<svg xmlns="http://www.w3.org/2000/svg" xmlns:xlink="http://www.w3.org/1999/xlink" width="600" height="600" viewBox="0 0 450 450"><defs><symbol overflow="visible" id="a"><path d="M3.25-8.39c1.082 0 1.867.449 2.36 1.343.374.688.562 1.637.562 2.844 0 1.137-.172 2.078-.516 2.828C5.164-.301 4.36.235 3.234.235c-1 0-1.75-.438-2.25-1.313C.578-1.816.375-2.801.375-4.031c0-.946.125-1.766.375-2.453.457-1.27 1.29-1.907 2.5-1.907zM3.234-.735c.551 0 .989-.239 1.313-.72.32-.487.484-1.394.484-2.718 0-.945-.12-1.726-.36-2.344-.23-.613-.683-.921-1.359-.921-.624 0-1.085.292-1.374.875-.282.585-.422 1.445-.422 2.578 0 .855.093 1.543.28 2.062.282.793.759 1.188 1.438 1.188zm0 0"/></symbol><symbol overflow="visible" id="b"><path d="M1.031-1.281H2.25V0H1.031zm0 0"/></symbol><symbol overflow="visible" id="c"><path d="M.375 0c.04-.719.191-1.344.453-1.875.258-.54.766-1.031 1.516-1.469L3.469-4c.5-.29.851-.54 1.062-.75.32-.32.485-.691.485-1.11 0-.488-.153-.874-.454-1.156-.292-.289-.68-.437-1.156-.437-.73 0-1.23.273-1.5.812-.156.305-.242.711-.25 1.22H.578c.008-.727.145-1.321.406-1.782.457-.813 1.266-1.219 2.422-1.219.957 0 1.656.262 2.094.781.445.524.672 1.102.672 1.735 0 .668-.234 1.242-.703 1.718-.274.282-.762.622-1.469 1.016l-.813.438a5.12 5.12 0 00-.89.609c-.399.336-.649.71-.75 1.125H6.14v1zm0 0"/></symbol><symbol overflow="visible" id="d"><path d="M3.969-2.969V-6.78L1.28-2.97zM3.984 0v-2.047H.313v-1.031l3.843-5.344h.89v5.453h1.235v.922H5.047V0zm0 0"/></symbol><symbol overflow="visible" id="e"><path d="M3.516-8.422c.937 0 1.586.246 1.953.735.375.48.562.98.562 1.5H4.984c-.062-.333-.164-.594-.296-.782C4.425-7.32 4.038-7.5 3.53-7.5c-.594 0-1.07.277-1.422.828-.343.543-.53 1.32-.562 2.328.238-.351.539-.617.906-.797a2.61 2.61 0 011.125-.234c.707 0 1.32.227 1.844.672.52.45.781 1.121.781 2.016 0 .761-.25 1.437-.75 2.03-.492.587-1.195.876-2.11.876-.792 0-1.476-.297-2.046-.89-.563-.602-.844-1.61-.844-3.016 0-1.04.125-1.926.375-2.657.488-1.383 1.383-2.078 2.688-2.078zM3.437-.719c.551 0 .961-.187 1.235-.562.281-.375.422-.817.422-1.328a2.21 2.21 0 00-.375-1.22c-.242-.382-.688-.577-1.344-.577-.45 0-.844.152-1.188.453-.343.293-.515.742-.515 1.344 0 .53.156.98.469 1.343.312.368.742.547 1.296.547zm0 0"/></symbol><symbol overflow="visible" id="f"><path d="M3.266-4.875c.468 0 .832-.129 1.093-.39.258-.258.391-.567.391-.923 0-.312-.125-.597-.375-.859-.25-.27-.633-.406-1.14-.406-.512 0-.883.137-1.11.406-.23.262-.344.563-.344.906 0 .399.145.711.438.938.3.219.648.328 1.047.328zm.062 4.156c.488 0 .895-.129 1.219-.39.32-.27.484-.664.484-1.188 0-.539-.168-.953-.5-1.234-.336-.281-.761-.422-1.281-.422-.5 0-.914.148-1.234.437-.313.282-.47.68-.47 1.188 0 .437.145.82.438 1.14.29.313.739.47 1.344.47zm-1.5-3.75c-.293-.125-.523-.27-.687-.437C.836-5.22.687-5.625.687-6.125c0-.625.223-1.16.672-1.61.457-.456 1.098-.687 1.922-.687.813 0 1.442.215 1.89.64.458.43.688.923.688 1.485 0 .524-.132.95-.39 1.281-.149.18-.375.356-.688.532.344.156.614.34.813.546.375.399.562.907.562 1.532 0 .742-.25 1.367-.75 1.875-.492.511-1.187.765-2.093.765-.825 0-1.516-.218-2.079-.656C.672-.867.391-1.516.391-2.359c0-.489.117-.914.359-1.282.238-.363.598-.64 1.078-.828zm0 0"/></symbol><symbol overflow="visible" id="g"><path d="M1.156-5.938v-.812c.758-.07 1.285-.195 1.578-.375.301-.176.532-.586.688-1.234h.828V0H3.125v-5.938zm0 0"/></symbol><symbol overflow="visible" id="h"><path d="M.984-8.031h1.063v1.75h1v.86h-1v4.109c0 .218.078.367.234.437.07.043.207.063.406.063h.157c.062-.008.129-.016.203-.016V0a2.21 2.21 0 01-.375.063c-.125.019-.266.03-.422.03-.492 0-.824-.124-1-.374-.18-.25-.266-.578-.266-.985v-4.156H.141v-.86h.843zm0 0"/></symbol><symbol overflow="visible" id="i"><path d="M.781-6.25h1.063V0H.78zm0-2.36h1.063v1.204H.78zm0 0"/></symbol><symbol overflow="visible" id="j"><path d="M.781-6.281h1.031v.89c.25-.3.477-.523.688-.671.344-.239.738-.36 1.188-.36.5 0 .898.125 1.203.375.164.137.32.344.468.625.227-.344.5-.594.813-.75.32-.164.68-.25 1.078-.25.844 0 1.414.309 1.719.922.164.324.25.766.25 1.328V0H8.125v-4.36c0-.413-.105-.702-.313-.859a1.248 1.248 0 00-.765-.234c-.418 0-.777.14-1.078.422-.293.273-.438.73-.438 1.375V0H4.453v-4.094c0-.426-.055-.738-.156-.937-.156-.29-.453-.438-.89-.438-.4 0-.762.157-1.095.469-.324.305-.484.86-.484 1.672V0H.781zm0 0"/></symbol><symbol overflow="visible" id="k"><path d="M3.39-6.422c.446 0 .88.106 1.297.313.415.21.735.48.954.812.207.324.347.695.421 1.11.063.292.094.757.094 1.39h-4.61c.02.637.173 1.149.454 1.531.281.387.719.579 1.313.579.55 0 .988-.18 1.312-.547.188-.207.32-.454.406-.735h1.032c-.024.23-.11.485-.266.766A3.15 3.15 0 015.28-.5a2.46 2.46 0 01-1.203.625c-.25.063-.539.094-.86.094a2.646 2.646 0 01-1.984-.844c-.543-.57-.812-1.367-.812-2.39 0-1.008.27-1.829.812-2.454.551-.633 1.27-.953 2.157-.953zM5.063-3.64c-.042-.457-.14-.82-.296-1.093-.282-.508-.762-.766-1.438-.766-.492 0-.902.18-1.234.531-.324.344-.496.79-.516 1.328zm-1.78-2.78zm0 0"/></symbol><symbol overflow="visible" id="l"><path d="M5.781-5.89c0-.446-.12-.766-.36-.954-.241-.195-.57-.297-.984-.297H2.75v2.547h1.688c.414 0 .742-.101.984-.312.238-.207.36-.535.36-.985zm1.782-.016c0 1.023-.262 1.746-.782 2.172-.511.418-1.246.625-2.203.625H2.75V0H.953v-8.64H4.72c.863 0 1.55.226 2.062.671.52.45.782 1.137.782 2.063zm0 0"/></symbol><symbol overflow="visible" id="m"><path d="M3.297-5.188c-.387 0-.688.125-.906.375-.211.243-.34.57-.391.985h2.594c-.032-.445-.168-.785-.407-1.016a1.258 1.258 0 00-.89-.343zm0-1.375c.531 0 1.008.106 1.437.313.426.2.782.512 1.063.938.25.375.41.812.484 1.312.04.293.055.715.047 1.266H1.953c.031.648.234 1.093.61 1.343.226.168.503.25.828.25.343 0 .625-.097.843-.296.114-.102.22-.25.313-.438H6.25c-.043.375-.242.762-.594 1.156-.554.625-1.32.938-2.297.938a3.258 3.258 0 01-2.156-.781C.586-1.095.281-1.946.281-3.126c0-1.102.274-1.953.828-2.547.563-.594 1.29-.89 2.188-.89zm.125 0zm0 0"/></symbol><symbol overflow="visible" id="n"><path d="M4.25-6.547c.031 0 .055.008.078.016h.14v1.718c-.105-.007-.198-.015-.28-.015-.086-.008-.153-.016-.204-.016-.668 0-1.117.219-1.343.657-.137.242-.204.62-.204 1.14V0H.766v-6.39h1.593v1.109c.258-.414.485-.703.672-.86.313-.27.719-.406 1.219-.406zm0 0"/></symbol><symbol overflow="visible" id="o"><path d="M2.078-2.047c.04.305.117.516.235.64.207.22.585.329 1.14.329.332 0 .594-.047.781-.14.196-.095.297-.239.297-.438a.498.498 0 00-.234-.438c-.156-.094-.734-.258-1.734-.5-.731-.176-1.243-.398-1.532-.672-.304-.257-.453-.64-.453-1.14 0-.594.227-1.098.688-1.516.468-.426 1.125-.64 1.968-.64.79 0 1.438.164 1.938.484.508.312.8.86.875 1.64H4.375c-.023-.218-.086-.39-.188-.515-.18-.227-.492-.344-.937-.344-.367 0-.625.059-.781.172-.149.117-.219.25-.219.406 0 .188.078.324.234.407.164.093.75.25 1.75.468.664.156 1.16.39 1.485.703.332.325.5.727.5 1.204 0 .636-.235 1.156-.703 1.562-.47.395-1.2.594-2.188.594-1 0-1.742-.215-2.219-.64-.48-.427-.718-.97-.718-1.626zM3.36-6.562zm0 0"/></symbol><symbol overflow="visible" id="p"><path d="M2.5-7.156H.797v-1.532H2.5zm-1.703.765H2.5V0H.797zm0 0"/></symbol><symbol overflow="visible" id="q"><path d="M.125-5.14v-1.188h.89V-8.11h1.657v1.78h1.031v1.188H2.672v3.375c0 .262.031.43.094.5.062.063.265.094.609.094h.156c.063-.008.117-.016.172-.016v1.25l-.797.032c-.781.02-1.32-.117-1.61-.422-.187-.188-.28-.477-.28-.875v-3.938zm0 0"/></symbol><symbol overflow="visible" id="r"><path d="M4.313-6.547c.664 0 1.207.18 1.625.531.414.344.625.918.625 1.72V0H4.859v-3.89c0-.333-.046-.587-.14-.766-.157-.332-.469-.5-.938-.5-.562 0-.949.242-1.156.718-.117.262-.172.59-.172.985V0H.797v-6.375h1.61v.938c.206-.333.41-.57.609-.72.343-.257.773-.39 1.296-.39zm-.61-.016zm0 0"/></symbol><symbol overflow="visible" id="s"><path d="M4.594-4.094a1.49 1.49 0 00-.235-.64c-.187-.258-.48-.391-.875-.391-.562 0-.949.277-1.156.828-.117.305-.172.7-.172 1.188 0 .468.055.851.172 1.14.195.532.57.797 1.125.797.383 0 .66-.101.828-.312.164-.22.266-.493.297-.829h1.703a2.643 2.643 0 01-.547 1.438C5.211-.145 4.438.219 3.406.219c-1.023 0-1.777-.301-2.265-.906C.66-1.301.42-2.095.42-3.063c0-1.102.267-1.958.798-2.563.531-.613 1.27-.922 2.218-.922.801 0 1.458.184 1.97.547.507.355.812.992.905 1.906zM3.469-6.562zm0 0"/></symbol><symbol overflow="visible" id="u"><path d="M2.672-7.14v1.906h2.11c.382 0 .69-.067.921-.204.238-.144.36-.398.36-.765 0-.406-.157-.672-.47-.797-.273-.094-.616-.14-1.03-.14zm0 3.343V-1.5h2.11c.382 0 .679-.05.89-.156.383-.188.578-.547.578-1.078 0-.446-.188-.754-.563-.922-.21-.094-.5-.14-.875-.14zM5.14-8.64c1.062.024 1.812.329 2.25.922.257.367.39.805.39 1.313 0 .531-.133.96-.39 1.281-.149.18-.368.34-.657.484.438.168.766.422.985.766.226.344.343.766.343 1.266 0 .511-.124.968-.374 1.375a2.45 2.45 0 01-.625.687c-.274.211-.602.356-.985.438C5.703-.035 5.297 0 4.86 0H.938v-8.64zm0 0"/></symbol><symbol overflow="visible" id="v"><path d="M4.297-3.11c-.106.075-.211.133-.313.172-.105.032-.25.07-.437.11l-.375.062c-.356.063-.61.141-.766.235a.765.765 0 00-.39.703c0 .293.078.5.234.625a.954.954 0 00.594.187c.351 0 .68-.101.984-.312.3-.207.457-.594.469-1.156zM3.28-3.89c.313-.032.535-.079.672-.141.238-.102.36-.258.36-.469 0-.27-.094-.453-.282-.547-.18-.101-.445-.156-.797-.156-.398 0-.68.101-.843.297a1.249 1.249 0 00-.235.593H.546c.04-.562.196-1.023.47-1.39.445-.563 1.207-.844 2.28-.844.696 0 1.317.14 1.86.422.54.281.813.809.813 1.578v2.922c0 .21.004.453.015.734.008.22.04.371.094.454a.738.738 0 00.25.187V0H4.516a1.504 1.504 0 01-.11-.36 2.612 2.612 0 01-.047-.39c-.23.25-.496.465-.796.64a2.378 2.378 0 01-1.22.313C1.77.203 1.29.035.907-.297c-.375-.332-.562-.8-.562-1.406 0-.781.3-1.348.906-1.703.332-.188.82-.32 1.469-.406zm.094-2.672zm0 0"/></symbol><symbol overflow="visible" id="w"><path d="M3.64-1.172c.489 0 .864-.172 1.126-.516.257-.351.39-.851.39-1.5 0-.632-.133-1.124-.39-1.468-.262-.352-.637-.532-1.125-.532-.493 0-.868.18-1.125.532-.262.343-.391.836-.391 1.468 0 .649.129 1.149.39 1.5.258.344.633.516 1.126.516zm3.282-2.016c0 .938-.274 1.743-.813 2.407-.543.668-1.359 1-2.453 1-1.105 0-1.93-.332-2.469-1C.657-1.445.391-2.25.391-3.187c0-.915.265-1.711.796-2.391.54-.676 1.364-1.016 2.47-1.016 1.093 0 1.91.34 2.452 1.016.54.68.813 1.476.813 2.39zM3.656-6.562zm0 0"/></symbol><symbol overflow="visible" id="x"><path d="M3.14-6.547c.383 0 .727.09 1.032.266.3.168.547.402.734.703v-3.047h1.688V0H4.969v-.89c-.242.386-.512.667-.813.843-.304.164-.683.25-1.14.25-.743 0-1.368-.3-1.875-.906C.629-1.305.375-2.082.375-3.031c0-1.094.25-1.953.75-2.578.5-.625 1.172-.938 2.016-.938zm.36 5.344c.469 0 .828-.176 1.078-.531.25-.352.375-.805.375-1.36 0-.781-.2-1.344-.594-1.687a1.34 1.34 0 00-.843-.297c-.493 0-.852.187-1.079.562-.23.368-.343.82-.343 1.36 0 .594.113 1.07.344 1.422.238.355.593.53 1.062.53zm0 0"/></symbol></defs><path fill="#fff" d="M0 0h450v450H0z"/><path d="M59.04 376.559h360.722V59.039H59.039v317.52M72.398 376.559h334M72.398 376.559v7.203M139.2 376.559v7.203M206 376.559v7.203M272.8 376.559v7.203M339.602 376.559v7.203M406.398 376.559v7.203" fill="none" stroke-width=".75" stroke-linecap="round" stroke-linejoin="round" stroke="#000" stroke-miterlimit="10"/><use xlink:href="#a" x="64.059" y="402.48"/><use xlink:href="#b" x="70.732" y="402.48"/><use xlink:href="#a" x="74.066" y="402.48"/><use xlink:href="#a" x="130.859" y="402.48"/><use xlink:href="#b" x="137.533" y="402.48"/><use xlink:href="#c" x="140.867" y="402.48"/><use xlink:href="#a" x="197.66" y="402.48"/><use xlink:href="#b" x="204.334" y="402.48"/><use xlink:href="#d" x="207.668" y="402.48"/><use xlink:href="#a" x="264.461" y="402.48"/><use xlink:href="#b" x="271.135" y="402.48"/><use xlink:href="#e" x="274.469" y="402.48"/><use xlink:href="#a" x="331.262" y="402.48"/><use xlink:href="#b" x="337.936" y="402.48"/><use xlink:href="#f" x="341.27" y="402.48"/><use xlink:href="#g" x="398.059" y="402.48"/><use xlink:href="#b" x="404.732" y="402.48"/><use xlink:href="#a" x="408.066" y="402.48"/><use xlink:href="#h" x="228.063" y="419.762"/><use xlink:href="#i" x="231.396" y="419.762"/><use xlink:href="#j" x="234.063" y="419.762"/><use xlink:href="#k" x="244.059" y="419.762"/><path d="M72.398 363.027h334M72.398 361.258h258.918M72.398 359.488h258.918M72.398 357.715h241.91M72.398 355.945h241.91M72.398 354.172h231.586M72.398 352.402h231.586M72.398 350.633h172.36M72.398 348.86h172.36M72.398 347.09h172.36M72.398 345.316h172.36M72.398 343.547h172.36M72.398 341.777h172.36M72.398 340.004h172.36M72.398 338.234h172.36M72.398 336.46h172.36M72.398 334.691h172.36M72.398 332.922h172.36M72.398 331.148h172.36M72.398 329.379h172.36M72.398 327.605h172.36M72.398 325.836h172.36M72.398 324.066h172.36M72.398 322.293h148.235M72.398 320.523h148.235M72.398 318.75h138.004M72.398 316.98h138.004M72.398 315.21h138.004M72.398 313.438h138.004M72.398 311.668h138.004M72.398 309.895h138.004M72.398 308.125h138.004M72.398 306.355h138.004M72.398 304.582h138.004M72.398 302.813h138.004M72.398 301.04h138.004M72.398 299.27h138.004M72.398 297.5h138.004M72.398 295.727h138.004M72.398 293.957h138.004M72.398 292.184h138.004M72.398 290.414h98.934M72.398 288.645h98.934M72.398 286.871h98.934M72.398 285.102h98.934M72.398 283.332h98.934M72.398 281.559h98.934M72.398 279.79h98.934M72.398 278.016h98.934M72.398 276.246h98.934M72.398 274.477h98.934M72.398 272.703h98.934M72.398 270.934h98.934M72.398 269.16h98.934M72.398 267.39h98.934M72.398 265.621h98.934M72.398 263.848h98.934M72.398 262.078h13.57M72.398 260.305h13.57M72.398 258.535h13.57M72.398 256.766h13.57M72.398 254.992h13.57M72.398 253.223h13.57M72.398 251.45h13.57M72.398 249.68h13.57M72.398 247.91h6.997M72.398 246.137h6.997M72.398 244.367h6.997M72.398 242.594h6.997M72.398 240.824h6.997M72.398 239.055h6.997M72.398 237.281h6.997M72.398 235.512h6.997M72.398 233.738h6.997M72.398 231.969h0M72.398 230.2h0M72.398 228.426h0M72.398 226.656h0M72.398 224.883h0M72.398 223.113h0M72.398 221.344h0M72.398 219.57h0M72.398 217.8h0M72.398 216.027h0M72.398 214.258h0M72.398 212.488h0M72.398 210.715h0M72.398 208.945h0M72.398 207.172h0M72.398 205.402h0M72.398 203.633h0" fill="none" stroke-width="1.5" stroke-linecap="round" stroke-linejoin="round" stroke="#1e90ff" stroke-miterlimit="10"/><path d="M244.758 201.86h102.547M244.758 200.09h102.547M210.402 198.316h93.582M210.402 196.547h93.582M171.332 194.777h53.762M171.332 193.004h53.762M331.316 191.234h42.454M331.316 189.46h42.454M331.316 187.691h42.454M331.316 185.922h42.454M331.316 184.148h42.454M331.316 182.379h42.454M331.316 180.605h42.454M331.316 178.836h42.454M331.316 177.066h42.454M331.316 175.293h42.454M331.316 173.523h42.454M331.316 171.75h42.454M331.316 169.98h42.454M331.316 168.21h42.454M331.316 166.438h42.454M331.316 164.668h42.454M314.309 162.895h32.996M314.309 161.125h32.996M314.309 159.355h32.996M314.309 157.582h32.996M314.309 155.813h32.996M314.309 154.04h32.996M314.309 152.27h32.996M314.309 150.5h32.996M314.309 148.727h32.996M314.309 146.957h32.996M314.309 145.184h32.996M314.309 143.414h32.996M314.309 141.645h32.996M314.309 139.871h32.996M314.309 138.102h32.996M314.309 136.332h32.996M85.969 134.559h20.789M220.633 132.79h4.46M220.633 131.016h4.46M220.633 129.246h4.46M220.633 127.477h4.46M220.633 125.703h4.46M220.633 123.934h4.46M220.633 122.16h4.46M220.633 120.39h4.46M220.633 118.621h4.46M220.633 116.848h4.46M220.633 115.078h4.46M220.633 113.305h4.46M220.633 111.535h4.46M220.633 109.766h4.46M220.633 107.992h4.46M220.633 106.223h4.46M85.969 104.45h1.699M85.969 102.68h1.699M85.969 100.91h1.699M85.969 99.137h1.699M85.969 97.367h1.699M85.969 95.594h1.699M85.969 93.824h1.699M85.969 92.055h1.699M85.969 90.281h1.699M72.398 88.512h0" fill="none" stroke-width="1.5" stroke-linecap="round" stroke-linejoin="round" stroke="#cd2626" stroke-miterlimit="10"/><path d="M373.77 86.738h32.628M373.77 84.969h32.628M106.758 83.2h4.71M106.758 81.426h4.71M106.758 79.656h.707M106.758 77.883h.707M106.758 76.113h.707M72.398 74.344h0M72.398 72.57h0" fill="none" stroke-width="1.5" stroke-linecap="round" stroke-linejoin="round" stroke="#0f0" stroke-miterlimit="10"/><g><use xlink:href="#l" x="180.035" y="51.84"/><use xlink:href="#m" x="188.039" y="51.84"/><use xlink:href="#n" x="194.713" y="51.84"/><use xlink:href="#o" x="199.383" y="51.84"/><use xlink:href="#p" x="206.057" y="51.84"/><use xlink:href="#o" x="209.391" y="51.84"/><use xlink:href="#q" x="216.064" y="51.84"/><use xlink:href="#m" x="220.061" y="51.84"/><use xlink:href="#r" x="226.734" y="51.84"/><use xlink:href="#s" x="234.064" y="51.84"/><use xlink:href="#m" x="240.738" y="51.84"/><use xlink:href="#t" x="247.412" y="51.84"/><use xlink:href="#u" x="250.746" y="51.84"/><use xlink:href="#v" x="259.412" y="51.84"/><use xlink:href="#n" x="266.086" y="51.84"/><use xlink:href="#s" x="270.756" y="51.84"/><use xlink:href="#w" x="277.43" y="51.84"/><use xlink:href="#x" x="284.76" y="51.84"/><use xlink:href="#m" x="292.09" y="51.84"/></g></svg>