<svg xmlns="http://www.w3.org/2000/svg" xmlns:xlink="http://www.w3.org/1999/xlink" width="374pt" height="374pt" viewBox="0 0 374 374"><defs><symbol overflow="visible" id="b"><path d="M3.25-8.39c1.082 0 1.867.449 2.36 1.343.374.688.562 1.637.562 2.844 0 1.137-.172 2.078-.516 2.828C5.164-.301 4.36.235 3.234.235c-1 0-1.75-.438-2.25-1.313C.578-1.816.375-2.801.375-4.031c0-.946.125-1.766.375-2.453.457-1.27 1.29-1.907 2.5-1.907zM3.234-.735c.551 0 .989-.239 1.313-.72.32-.487.484-1.394.484-2.718 0-.945-.12-1.726-.36-2.344-.23-.613-.683-.921-1.359-.921-.624 0-1.085.292-1.374.875-.282.585-.422 1.445-.422 2.578 0 .855.093 1.543.28 2.062.282.793.759 1.188 1.438 1.188zm0 0"/></symbol><symbol overflow="visible" id="c"><path d="M1.031-1.281H2.25V0H1.031zm0 0"/></symbol><symbol overflow="visible" id="d"><path d="M1.484-2.14c.07.605.352 1.023.844 1.25.25.117.535.171.86.171.624 0 1.085-.195 1.39-.594.3-.394.453-.835.453-1.328 0-.582-.183-1.035-.547-1.359a1.849 1.849 0 00-1.28-.484c-.368 0-.68.074-.938.218-.262.137-.48.329-.657.579l-.921-.047.64-4.516h4.36v1.016H2.124l-.36 2.328c.196-.145.383-.254.563-.328a2.887 2.887 0 011.078-.188c.77 0 1.422.25 1.953.75.54.492.813 1.117.813 1.875 0 .793-.25 1.496-.75 2.11-.492.605-1.274.906-2.344.906A3.02 3.02 0 011.266-.36C.742-.742.453-1.336.39-2.141zm0 0"/></symbol><symbol overflow="visible" id="e"><path d="M1.156-5.938v-.812c.758-.07 1.285-.195 1.578-.375.301-.176.532-.586.688-1.234h.828V0H3.125v-5.938zm0 0"/></symbol><symbol overflow="visible" id="f"><path d="M.375 0c.04-.719.191-1.344.453-1.875.258-.54.766-1.031 1.516-1.469L3.469-4c.5-.29.851-.54 1.062-.75.32-.32.485-.691.485-1.11 0-.488-.153-.874-.454-1.156-.292-.289-.68-.437-1.156-.437-.73 0-1.23.273-1.5.812-.156.305-.242.711-.25 1.22H.578c.008-.727.145-1.321.406-1.782.457-.813 1.266-1.219 2.422-1.219.957 0 1.656.262 2.094.781.445.524.672 1.102.672 1.735 0 .668-.234 1.242-.703 1.718-.274.282-.762.622-1.469 1.016l-.813.438a5.12 5.12 0 00-.89.609c-.399.336-.649.71-.75 1.125H6.14v1zm0 0"/></symbol><symbol overflow="visible" id="l"><path d="M4.156-4.969c.489 0 .867-.066 1.14-.203.427-.219.641-.601.641-1.156 0-.563-.23-.942-.687-1.14-.25-.114-.633-.173-1.14-.173H2.03v2.672zM4.546-1c.708 0 1.22-.207 1.532-.625.188-.258.281-.57.281-.938 0-.624-.28-1.05-.843-1.28-.293-.126-.684-.188-1.172-.188H2.03V-1zM.892-8.61h3.687c1.008 0 1.727.305 2.156.907.25.355.375.766.375 1.234 0 .543-.156.985-.468 1.328-.157.188-.387.356-.688.5.438.168.766.36.984.579.395.375.594.89.594 1.546 0 .555-.18 1.055-.531 1.5C6.477-.336 5.656 0 4.531 0H.891zm0 0"/></symbol><symbol overflow="visible" id="m"><path d="M.781-6.25h1.063V0H.78zm0-2.36h1.063v1.204H.78zm0 0"/></symbol><symbol overflow="visible" id="n"><path d="M.797-6.281h1.015v1.093c.07-.218.27-.476.594-.78.32-.302.692-.454 1.11-.454.02 0 .05.008.093.016.051 0 .133.008.25.015v1.11c-.062-.008-.12-.016-.171-.016h-.172c-.532 0-.946.172-1.235.516A1.77 1.77 0 001.86-3.61V0H.797zm0 0"/></symbol><symbol overflow="visible" id="o"><path d="M.984-8.031h1.063v1.75h1v.86h-1v4.109c0 .218.078.367.234.437.07.043.207.063.406.063h.157c.062-.008.129-.016.203-.016V0a2.21 2.21 0 01-.375.063c-.125.019-.266.03-.422.03-.492 0-.824-.124-1-.374-.18-.25-.266-.578-.266-.985v-4.156H.141v-.86h.843zm0 0"/></symbol><symbol overflow="visible" id="p"><path d="M.781-8.64h1.047v3.218c.25-.32.473-.547.672-.672.344-.218.77-.328 1.281-.328.906 0 1.52.32 1.844.953.176.344.266.824.266 1.438V0H4.812v-3.953c0-.457-.062-.797-.187-1.016-.188-.343-.547-.515-1.078-.515-.438 0-.836.152-1.188.453-.355.304-.53.87-.53 1.703V0H.78zm0 0"/></symbol><symbol overflow="visible" id="g"><path d="M-8.39-3.25c0-1.082.449-1.867 1.343-2.36.688-.374 1.637-.562 2.844-.562 1.137 0 2.078.172 2.828.516C-.301-5.164.235-4.36.235-3.234c0 1-.438 1.75-1.313 2.25-.738.406-1.723.609-2.953.609-.946 0-1.766-.125-2.453-.375-1.27-.457-1.907-1.29-1.907-2.5zm7.656.016c0-.551-.239-.989-.72-1.313-.487-.32-1.394-.484-2.718-.484-.945 0-1.726.12-2.344.36-.613.23-.921.683-.921 1.359 0 .624.292 1.085.875 1.374.585.282 1.445.422 2.578.422.855 0 1.543-.093 2.062-.28.793-.282 1.188-.759 1.188-1.438zm0 0"/></symbol><symbol overflow="visible" id="h"><path d="M-1.281-1.031V-2.25H0v1.219zm0 0"/></symbol><symbol overflow="visible" id="i"><path d="M-2.14-1.484c.605-.07 1.023-.352 1.25-.844.117-.25.171-.535.171-.86 0-.624-.195-1.085-.594-1.39a2.135 2.135 0 00-1.328-.453c-.582 0-1.035.183-1.359.547-.32.355-.484.78-.484 1.28 0 .368.074.68.218.938.137.262.329.48.579.657l-.047.921-4.516-.64v-4.36h1.016v3.563l2.328.36a2.676 2.676 0 01-.328-.563 2.887 2.887 0 01-.188-1.078c0-.77.25-1.422.75-1.953.492-.54 1.117-.813 1.875-.813.793 0 1.496.25 2.11.75.605.492.906 1.274.906 2.344A3.02 3.02 0 01-.36-1.266c-.383.524-.977.813-1.782.875zm0 0"/></symbol><symbol overflow="visible" id="j"><path d="M-5.938-1.156h-.812c-.07-.758-.195-1.285-.375-1.578-.176-.301-.586-.532-1.234-.688v-.828H0v1.125h-5.938zm0 0"/></symbol><symbol overflow="visible" id="k"><path d="M0-.375c-.719-.04-1.344-.191-1.875-.453-.54-.258-1.031-.766-1.469-1.516L-4-3.469c-.29-.5-.54-.851-.75-1.062-.32-.32-.691-.485-1.11-.485-.488 0-.874.153-1.156.454-.289.292-.437.68-.437 1.156 0 .73.273 1.23.812 1.5.305.156.711.242 1.22.25v1.078c-.727-.008-1.321-.145-1.782-.406-.813-.457-1.219-1.266-1.219-2.422 0-.957.262-1.656.781-2.094.524-.445 1.102-.672 1.735-.672.668 0 1.242.234 1.718.703.282.274.622.762 1.016 1.469l.438.813c.21.374.414.671.609.89.336.399.71.649 1.125.75V-6.14h1zm0 0"/></symbol><symbol overflow="visible" id="q"><path d="M-1-4.219c0-.394-.04-.718-.125-.968-.145-.458-.438-.833-.875-1.125-.344-.227-.785-.391-1.328-.485a4.925 4.925 0 00-.906-.094c-1.07 0-1.899.215-2.485.641-.593.418-.89 1.102-.89 2.047v2.062H-1zm-7.61 3.25v-3.484c0-1.188.422-2.102 1.266-2.75.75-.582 1.719-.875 2.907-.875.917 0 1.746.172 2.484.515C-.648-6.957 0-5.913 0-4.438v3.47zm0 0"/></symbol><symbol overflow="visible" id="r"><path d="M-6.422-3.39c0-.446.106-.88.313-1.297.21-.415.48-.735.812-.954a3.036 3.036 0 011.11-.421c.292-.063.757-.094 1.39-.094v4.61c.637-.02 1.149-.173 1.531-.454.387-.281.579-.719.579-1.313 0-.55-.18-.988-.547-1.312a1.904 1.904 0 00-.735-.406v-1.032c.23.024.485.11.766.266.281.156.516.328.703.516.313.324.52.726.625 1.203.063.25.094.539.094.86 0 .78-.281 1.445-.844 1.984-.57.543-1.367.812-2.39.812-1.008 0-1.829-.27-2.454-.812-.633-.551-.953-1.27-.953-2.157zm2.781-1.672c-.457.042-.82.14-1.093.296-.508.282-.766.762-.766 1.438 0 .492.18.902.531 1.234.344.324.79.496 1.328.516zm-2.78 1.78zm0 0"/></symbol><symbol overflow="visible" id="s"><path d="M-1.672-1.578c.305 0 .543-.11.719-.328.18-.227.265-.492.265-.797 0-.375-.082-.735-.25-1.078-.289-.594-.757-.89-1.406-.89h-.844c.075.136.141.308.204.515.054.199.09.398.109.593l.078.626c.055.386.137.68.25.874.18.325.469.485.875.485zm-2.125-2.563c-.031-.238-.133-.398-.312-.484a1.077 1.077 0 00-.407-.063c-.351 0-.609.133-.765.391-.164.25-.25.61-.25 1.078 0 .555.148.946.437 1.172.168.137.414.227.735.266v.984c-.77-.02-1.305-.27-1.61-.75-.3-.488-.453-1.05-.453-1.687 0-.739.14-1.336.422-1.797.281-.457.719-.688 1.313-.688h3.609c.105 0 .195-.02.266-.062.062-.051.093-.149.093-.297v-.14c-.008-.063-.02-.13-.031-.204h.781c.04.168.067.297.078.39.02.087.032.2.032.345 0 .367-.133.625-.391.78-.133.095-.328.157-.578.188.281.219.527.532.734.938.207.398.313.836.313 1.312 0 .586-.18 1.063-.531 1.438-.352.367-.797.547-1.329.547-.582 0-1.035-.18-1.359-.547-.32-.364-.52-.836-.594-1.422zm-2.625.875zm0 0"/></symbol><symbol overflow="visible" id="t"><path d="M-8.031-.984v-1.063h1.75v-1h.86v1h4.109c.218 0 .367-.078.437-.234.043-.07.063-.207.063-.406v-.157a1.591 1.591 0 01-.016-.203H0c.031.117.05.242.063.375.019.125.03.266.03.422 0 .492-.124.824-.374 1-.25.18-.578.266-.985.266h-4.156v.843h-.86v-.843zm0 0"/></symbol><symbol overflow="visible" id="u"><path d="M-8.64-.781v-1.047h3.218c-.32-.25-.547-.473-.672-.672-.218-.344-.328-.77-.328-1.281 0-.906.32-1.52.953-1.844.344-.176.824-.266 1.438-.266H0v1.079h-3.953c-.457 0-.797.062-1.016.187-.343.188-.515.547-.515 1.078 0 .438.152.836.453 1.188.304.355.87.53 1.703.53H0V-.78zm0 0"/></symbol><symbol overflow="visible" id="w"><path d="M2.594-6.703c.863 0 1.492.355 1.89 1.062.29.555.438 1.313.438 2.282 0 .906-.137 1.664-.406 2.265C4.129-.238 3.488.188 2.594.188 1.78.188 1.18-.16.797-.86c-.336-.594-.5-1.38-.5-2.36 0-.758.098-1.414.297-1.969.363-1.007 1.031-1.515 2-1.515zM2.578-.578c.438 0 .785-.192 1.047-.578.258-.395.39-1.117.39-2.172 0-.758-.093-1.383-.28-1.875-.188-.5-.555-.75-1.094-.75-.493 0-.852.234-1.079.703-.23.469-.343 1.156-.343 2.063 0 .687.07 1.242.218 1.656.22.636.598.953 1.141.953zm0 0"/></symbol><symbol overflow="visible" id="x"><path d="M.781-6.422h.86v1.406h.796v.688h-.796v3.281c0 .168.054.281.171.344.07.031.18.047.329.047h.125c.05 0 .109-.004.171-.016V0c-.093.031-.195.05-.296.063a4.535 4.535 0 01-.344.015c-.399 0-.668-.098-.813-.297C.848-.426.781-.688.781-1v-3.328H.11v-.688h.672zm0 0"/></symbol><symbol overflow="visible" id="y"><path d="M.625-6.906h.844v2.562c.195-.25.375-.426.531-.531.27-.176.61-.266 1.016-.266.726 0 1.222.258 1.484.766.133.281.203.668.203 1.156V0h-.86v-3.156c0-.375-.046-.645-.14-.813-.156-.281-.445-.422-.86-.422-.355 0-.671.125-.952.375-.282.243-.422.696-.422 1.36V0H.625zm0 0"/></symbol><symbol overflow="visible" id="A"><path d="M3.703-7.063c1.207 0 2.11.391 2.703 1.172.446.606.672 1.383.672 2.329 0 1.03-.262 1.886-.781 2.562C5.68-.195 4.813.203 3.687.203c-1.062 0-1.898-.348-2.5-1.047C.645-1.52.375-2.375.375-3.406c0-.926.227-1.723.688-2.39.593-.845 1.472-1.266 2.64-1.266zm.094 6.438c.82 0 1.414-.297 1.781-.89.363-.594.547-1.27.547-2.032 0-.812-.215-1.46-.64-1.953-.419-.488-.997-.734-1.735-.734-.71 0-1.29.246-1.734.734-.45.48-.672 1.2-.672 2.156 0 .762.191 1.406.578 1.938.383.523 1.008.781 1.875.781zm-.063-6.438zm0 0"/></symbol><symbol overflow="visible" id="B"><path d="M.64-5.016h.797v.86c.07-.164.235-.367.485-.61.258-.238.555-.359.89-.359h.079c.039 0 .101.008.187.016v.89c-.055-.008-.101-.015-.14-.015h-.126c-.43 0-.757.136-.984.406-.23.273-.344.586-.344.937V0H.641zm0 0"/></symbol><symbol overflow="visible" id="C"><path d="M1.156-2.453c0 .543.114.996.344 1.36.227.355.594.53 1.094.53.383 0 .703-.164.953-.5.258-.332.39-.812.39-1.437 0-.633-.132-1.102-.39-1.406-.262-.313-.586-.469-.969-.469-.43 0-.773.168-1.031.5-.262.324-.39.797-.39 1.422zM2.422-5.11c.383 0 .707.086.969.25.144.093.312.257.5.484v-2.531h.812V0h-.75v-.703c-.2.312-.433.539-.703.672a2.076 2.076 0 01-.922.203c-.562 0-1.047-.234-1.453-.703C.469-1 .265-1.625.265-2.406c0-.727.18-1.36.547-1.89.375-.54.91-.813 1.61-.813zm0 0"/></symbol><symbol overflow="visible" id="D"><path d="M2.703-5.125c.352 0 .695.086 1.031.25.344.168.598.383.766.64.176.262.29.56.344.891.05.23.078.602.078 1.11H1.234c.02.511.141.921.36 1.234.226.305.578.453 1.047.453.445 0 .8-.144 1.062-.437.145-.164.25-.364.313-.594h.828a1.766 1.766 0 01-.219.625c-.117.219-.25.402-.406.547-.262.25-.578.422-.953.515-.211.04-.438.063-.688.063A2.14 2.14 0 01.984-.5c-.43-.457-.64-1.094-.64-1.906 0-.813.219-1.469.656-1.969.438-.5 1.004-.75 1.703-.75zm1.344 2.219c-.031-.364-.11-.656-.234-.875-.231-.406-.618-.61-1.157-.61-.386 0-.715.141-.984.422-.262.274-.399.625-.406 1.063zM2.625-5.141zm0 0"/></symbol><symbol overflow="visible" id="E"><path d="M.75-6.875h.953v2.844h3.578v-2.844h.938V0H5.28v-3.219H1.703V0H.75zm0 0"/></symbol><symbol overflow="visible" id="F"><path d="M2.61-.547c.562 0 .945-.207 1.156-.625.207-.426.312-.898.312-1.422 0-.469-.078-.847-.234-1.14-.242-.457-.649-.688-1.219-.688-.523 0-.902.2-1.14.594-.231.387-.344.86-.344 1.422 0 .531.113.976.343 1.328.239.355.614.531 1.125.531zm.03-4.61c.645 0 1.192.216 1.641.641.446.43.672 1.063.672 1.907 0 .804-.2 1.468-.594 2-.398.53-1.007.796-1.828.796-.687 0-1.234-.234-1.64-.703C.484-.984.28-1.613.28-2.406c0-.832.211-1.5.64-2 .427-.5 1-.75 1.72-.75zm-.03.016zm0 0"/></symbol><symbol overflow="visible" id="G"><path d="M.625-5.016h.828v.704A2.84 2.84 0 012-4.845a1.6 1.6 0 01.938-.281c.406 0 .726.102.968.297.133.105.258.266.375.484.188-.258.407-.453.657-.578.257-.133.546-.203.859-.203.676 0 1.133.242 1.375.719.133.273.203.625.203 1.062V0H6.5v-3.484c0-.332-.09-.563-.266-.688a.992.992 0 00-.609-.187c-.324 0-.605.109-.844.328-.242.218-.36.59-.36 1.11V0h-.859v-3.281c0-.332-.042-.578-.124-.735-.126-.238-.368-.359-.72-.359-.312 0-.6.125-.859.375-.261.25-.39.7-.39 1.344V0H.625zm0 0"/></symbol><symbol overflow="visible" id="H"><path d="M.64-6.875h.844V0H.641zm0 0"/></symbol><symbol overflow="visible" id="I"><path d="M2.39-5.11c.395 0 .739.102 1.032.298.156.105.316.261.484.468v-.625h.781v4.563c0 .633-.093 1.133-.28 1.5-.356.687-1.016 1.031-1.985 1.031-.543 0-1-.125-1.375-.375C.68 1.508.477 1.133.437.625h.86c.039.219.125.39.25.516.187.187.484.28.89.28.645 0 1.067-.23 1.266-.687.125-.261.18-.738.172-1.437a1.62 1.62 0 01-.61.578c-.242.125-.554.188-.937.188A2.043 2.043 0 01.891-.516C.484-.898.28-1.539.28-2.437c0-.833.203-1.485.61-1.954.414-.476.914-.718 1.5-.718zM3.907-2.53c0-.625-.133-1.082-.39-1.375-.25-.301-.575-.453-.97-.453-.593 0-1 .277-1.218.828-.117.304-.172.695-.172 1.172 0 .562.114.996.344 1.296.227.293.535.438.922.438.601 0 1.031-.273 1.281-.828.133-.3.203-.66.203-1.078zm-1.422-2.61zm0 0"/></symbol><symbol overflow="visible" id="J"><path d="M3.75-5.016h.938c-.125.325-.391 1.059-.797 2.204a82.2 82.2 0 01-.766 2.109C2.633.578 2.289 1.359 2.094 1.64c-.2.28-.543.421-1.031.421-.118 0-.211-.007-.282-.015a1.793 1.793 0 01-.234-.063V1.22c.144.039.25.066.312.078.07.008.133.016.188.016.156 0 .27-.028.344-.079.07-.054.132-.117.187-.187a6.96 6.96 0 01.156-.39c.102-.231.176-.403.22-.516L.093-5.016h.953l1.36 4.079zM2.39-5.14zm0 0"/></symbol><symbol overflow="visible" id="K"><path d="M.922-4.75v-.64c.601-.063 1.023-.16 1.265-.298.239-.144.422-.476.547-1h.657V0H2.5v-4.75zm0 0"/></symbol><symbol overflow="visible" id="L"><path d="M1.125-1.578c.02.281.086.5.203.656.219.274.586.406 1.11.406.312 0 .582-.066.812-.203.238-.133.36-.347.36-.64a.543.543 0 00-.282-.485c-.125-.07-.367-.148-.719-.234l-.671-.172c-.43-.102-.743-.223-.938-.36-.367-.226-.547-.546-.547-.953 0-.468.164-.847.5-1.14.344-.29.805-.438 1.39-.438.75 0 1.298.22 1.641.657.207.28.305.586.297.906h-.797a.898.898 0 00-.203-.516c-.187-.218-.523-.328-1-.328-.324 0-.57.063-.734.188a.557.557 0 00-.234.468c0 .22.101.399.312.532.125.074.313.14.563.203l.546.14c.614.149 1.02.29 1.22.422.331.219.5.559.5 1.016 0 .45-.173.836-.516 1.156-.336.32-.852.484-1.547.484-.743 0-1.266-.167-1.579-.5a1.932 1.932 0 01-.5-1.265zm1.234-3.563zm0 0"/></symbol><clipPath id="a"><path d="M46.078 14.398h313.52v313.52H46.078zm0 0"/></clipPath><clipPath id="v"><path d="M46.078 14.398h313.52v313.52H46.078zm0 0"/></clipPath></defs><path fill="#fff" d="M0 0h374v374H0z"/><path d="M60.39 26.012c0 3.601-5.398 3.601-5.398 0 0-3.602 5.399-3.602 5.399 0M60.39 304.648c0 3.602-5.398 3.602-5.398 0 0-3.601 5.399-3.601 5.399 0" fill="#1e90ff" fill-opacity=".902"/><path d="M60.39 307.68c0 3.601-5.398 3.601-5.398 0 0-3.598 5.399-3.598 5.399 0" fill="#1e90ff" fill-opacity=".902"/><path d="M60.39 310.73c0 3.598-5.398 3.598-5.398 0 0-3.601 5.399-3.601 5.399 0" fill="#1e90ff" fill-opacity=".902"/><path d="M60.39 314.05c0 3.602-5.398 3.602-5.398 0 0-3.597 5.399-3.597 5.399 0" fill="#1e90ff" fill-opacity=".902"/><path d="M60.39 314.418c0 3.602-5.398 3.602-5.398 0s5.399-3.602 5.399 0" fill="#1e90ff" fill-opacity=".902"/><path d="M60.39 314.523c0 3.602-5.398 3.602-5.398 0 0-3.597 5.399-3.597 5.399 0" fill="#1e90ff" fill-opacity=".902"/><path d="M60.39 315.016c0 3.601-5.398 3.601-5.398 0 0-3.598 5.399-3.598 5.399 0" fill="#1e90ff" fill-opacity=".902"/><path d="M60.39 315.164c0 3.598-5.398 3.598-5.398 0 0-3.601 5.399-3.601 5.399 0" fill="#1e90ff" fill-opacity=".902"/><path d="M60.39 315.352c0 3.601-5.398 3.601-5.398 0 0-3.598 5.399-3.598 5.399 0" fill="#1e90ff" fill-opacity=".902"/><path d="M60.39 315.367c0 3.602-5.398 3.602-5.398 0 0-3.597 5.399-3.597 5.399 0" fill="#1e90ff" fill-opacity=".902"/><path d="M60.39 315.371c0 3.598-5.398 3.598-5.398 0 0-3.601 5.399-3.601 5.399 0" fill="#1e90ff" fill-opacity=".902"/><path d="M60.39 315.375c0 3.598-5.398 3.598-5.398 0 0-3.602 5.399-3.602 5.399 0" fill="#1e90ff" fill-opacity=".902"/><path d="M60.39 315.477c0 3.597-5.398 3.597-5.398 0 0-3.602 5.399-3.602 5.399 0" fill="#1e90ff" fill-opacity=".902"/><path d="M60.39 315.488c0 3.598-5.398 3.598-5.398 0 0-3.601 5.399-3.601 5.399 0" fill="#1e90ff" fill-opacity=".902"/><path d="M60.39 315.492c0 3.602-5.398 3.602-5.398 0 0-3.597 5.399-3.597 5.399 0" fill="#1e90ff" fill-opacity=".902"/><path d="M60.39 315.531c0 3.602-5.398 3.602-5.398 0 0-3.597 5.399-3.597 5.399 0" fill="#1e90ff" fill-opacity=".902"/><path d="M60.39 315.574c0 3.602-5.398 3.602-5.398 0 0-3.597 5.399-3.597 5.399 0" fill="#1e90ff" fill-opacity=".902"/><path d="M60.39 315.625c0 3.602-5.398 3.602-5.398 0 0-3.598 5.399-3.598 5.399 0" fill="#1e90ff" fill-opacity=".902"/><path d="M60.39 315.629c0 3.598-5.398 3.598-5.398 0 0-3.602 5.399-3.602 5.399 0" fill="#1e90ff" fill-opacity=".902"/><path d="M60.39 315.645c0 3.597-5.398 3.597-5.398 0 0-3.602 5.399-3.602 5.399 0" fill="#1e90ff" fill-opacity=".902"/><path d="M60.39 315.738c0 3.598-5.398 3.598-5.398 0 0-3.601 5.399-3.601 5.399 0" fill="#1e90ff" fill-opacity=".902"/><path d="M60.39 315.758c0 3.597-5.398 3.597-5.398 0 0-3.602 5.399-3.602 5.399 0" fill="#1e90ff" fill-opacity=".902"/><path d="M60.39 315.8c0 3.602-5.398 3.602-5.398 0 0-3.597 5.399-3.597 5.399 0" fill="#1e90ff" fill-opacity=".902"/><path d="M60.39 315.828c0 3.598-5.398 3.598-5.398 0 0-3.601 5.399-3.601 5.399 0" fill="#1e90ff" fill-opacity=".902"/><path d="M60.39 315.844c0 3.597-5.398 3.597-5.398 0 0-3.602 5.399-3.602 5.399 0" fill="#1e90ff" fill-opacity=".902"/><path d="M60.39 315.848c0 3.601-5.398 3.601-5.398 0 0-3.602 5.399-3.602 5.399 0" fill="#1e90ff" fill-opacity=".902"/><path d="M60.39 315.855c0 3.602-5.398 3.602-5.398 0 0-3.597 5.399-3.597 5.399 0" fill="#1e90ff" fill-opacity=".902"/><path d="M60.39 315.91c0 3.602-5.398 3.602-5.398 0 0-3.598 5.399-3.598 5.399 0" fill="#1e90ff" fill-opacity=".902"/><path d="M60.39 315.941c0 3.602-5.398 3.602-5.398 0 0-3.597 5.399-3.597 5.399 0" fill="#1e90ff" fill-opacity=".902"/><path d="M60.39 315.953c0 3.602-5.398 3.602-5.398 0 0-3.598 5.399-3.598 5.399 0" fill="#1e90ff" fill-opacity=".902"/><path d="M60.39 315.96c0 3.599-5.398 3.599-5.398 0 0-3.6 5.399-3.6 5.399 0" fill="#1e90ff" fill-opacity=".902"/><path d="M60.39 315.992c0 3.598-5.398 3.598-5.398 0 0-3.601 5.399-3.601 5.399 0" fill="#1e90ff" fill-opacity=".902"/><path d="M60.39 316.012c0 3.597-5.398 3.597-5.398 0 0-3.602 5.399-3.602 5.399 0" fill="#1e90ff" fill-opacity=".902"/><path d="M60.39 316.04c0 3.597-5.398 3.597-5.398 0 0-3.603 5.399-3.603 5.399 0" fill="#1e90ff" fill-opacity=".902"/><path d="M60.39 316.055c0 3.601-5.398 3.601-5.398 0 0-3.602 5.399-3.602 5.399 0" fill="#1e90ff" fill-opacity=".902"/><path d="M60.39 316.059c0 3.601-5.398 3.601-5.398 0 0-3.602 5.399-3.602 5.399 0" fill="#1e90ff" fill-opacity=".902"/><path d="M60.39 316.086c0 3.601-5.398 3.601-5.398 0 0-3.598 5.399-3.598 5.399 0" fill="#1e90ff" fill-opacity=".902"/><path d="M60.39 316.086c0 3.601-5.398 3.601-5.398 0 0-3.598 5.399-3.598 5.399 0" fill="#1e90ff" fill-opacity=".902"/><path d="M60.39 316.09c0 3.601-5.398 3.601-5.398 0 0-3.602 5.399-3.602 5.399 0" fill="#1e90ff" fill-opacity=".902"/><path d="M60.39 316.094c0 3.597-5.398 3.597-5.398 0 0-3.602 5.399-3.602 5.399 0" fill="#1e90ff" fill-opacity=".902"/><path d="M60.39 316.094c0 3.601-5.398 3.601-5.398 0 0-3.598 5.399-3.598 5.399 0" fill="#1e90ff" fill-opacity=".902"/><path d="M60.39 316.105c0 3.598-5.398 3.598-5.398 0 0-3.601 5.399-3.601 5.399 0" fill="#1e90ff" fill-opacity=".902"/><path d="M60.39 316.105c0 3.602-5.398 3.602-5.398 0 0-3.601 5.399-3.601 5.399 0" fill="#1e90ff" fill-opacity=".902"/><path d="M60.39 316.117c0 3.598-5.398 3.598-5.398 0 0-3.601 5.399-3.601 5.399 0" fill="#1e90ff" fill-opacity=".902"/><path d="M60.39 316.117c0 3.602-5.398 3.602-5.398 0 0-3.597 5.399-3.597 5.399 0" fill="#1e90ff" fill-opacity=".902"/><path d="M60.39 316.133c0 3.601-5.398 3.601-5.398 0 0-3.602 5.399-3.602 5.399 0" fill="#1e90ff" fill-opacity=".902"/><path d="M60.39 316.133c0 3.601-5.398 3.601-5.398 0 0-3.598 5.399-3.598 5.399 0" fill="#1e90ff" fill-opacity=".902"/><path d="M60.39 316.18c0 3.601-5.398 3.601-5.398 0 0-3.602 5.399-3.602 5.399 0" fill="#1e90ff" fill-opacity=".902"/><path d="M60.39 316.184c0 3.601-5.398 3.601-5.398 0 0-3.602 5.399-3.602 5.399 0" fill="#1e90ff" fill-opacity=".902"/><path d="M60.39 316.184c0 3.601-5.398 3.601-5.398 0 0-3.602 5.399-3.602 5.399 0" fill="#1e90ff" fill-opacity=".902"/><path d="M60.39 316.188c0 3.601-5.398 3.601-5.398 0 0-3.602 5.399-3.602 5.399 0" fill="#1e90ff" fill-opacity=".902"/><path d="M60.39 316.191c0 3.602-5.398 3.602-5.398 0 0-3.597 5.399-3.597 5.399 0" fill="#1e90ff" fill-opacity=".902"/><path d="M60.39 316.195c0 3.598-5.398 3.598-5.398 0 0-3.601 5.399-3.601 5.399 0" fill="#1e90ff" fill-opacity=".902"/><path d="M60.39 316.2c0 3.6-5.398 3.6-5.398 0 0-3.602 5.399-3.602 5.399 0" fill="#1e90ff" fill-opacity=".902"/><path d="M60.39 316.2c0 3.6-5.398 3.6-5.398 0 0-3.598 5.399-3.598 5.399 0" fill="#1e90ff" fill-opacity=".902"/><path d="M60.39 316.203c0 3.598-5.398 3.598-5.398 0 0-3.601 5.399-3.601 5.399 0" fill="#1e90ff" fill-opacity=".902"/><path d="M60.39 316.207c0 3.598-5.398 3.598-5.398 0 0-3.602 5.399-3.602 5.399 0" fill="#1e90ff" fill-opacity=".902"/><path d="M60.39 316.21c0 3.603-5.398 3.603-5.398 0 0-3.597 5.399-3.597 5.399 0" fill="#1e90ff" fill-opacity=".902"/><path d="M60.39 316.215c0 3.598-5.398 3.598-5.398 0 0-3.602 5.399-3.602 5.399 0" fill="#1e90ff" fill-opacity=".902"/><path d="M60.39 316.23c0 3.598-5.398 3.598-5.398 0 0-3.601 5.399-3.601 5.399 0" fill="#1e90ff" fill-opacity=".902"/><path d="M60.39 316.23c0 3.598-5.398 3.598-5.398 0 0-3.601 5.399-3.601 5.399 0" fill="#1e90ff" fill-opacity=".902"/><path d="M60.39 316.234c0 3.602-5.398 3.602-5.398 0 0-3.601 5.399-3.601 5.399 0" fill="#1e90ff" fill-opacity=".902"/><path d="M60.39 316.238c0 3.602-5.398 3.602-5.398 0 0-3.597 5.399-3.597 5.399 0" fill="#1e90ff" fill-opacity=".902"/><path d="M60.39 316.242c0 3.602-5.398 3.602-5.398 0 0-3.601 5.399-3.601 5.399 0" fill="#1e90ff" fill-opacity=".902"/><path d="M60.39 316.258c0 3.601-5.398 3.601-5.398 0 0-3.598 5.399-3.598 5.399 0" fill="#1e90ff" fill-opacity=".902"/><path d="M60.39 316.262c0 3.601-5.398 3.601-5.398 0 0-3.598 5.399-3.598 5.399 0" fill="#1e90ff" fill-opacity=".902"/><path d="M60.39 316.266c0 3.601-5.398 3.601-5.398 0 0-3.598 5.399-3.598 5.399 0" fill="#1e90ff" fill-opacity=".902"/><path d="M60.39 316.27c0 3.601-5.398 3.601-5.398 0 0-3.602 5.399-3.602 5.399 0" fill="#1e90ff" fill-opacity=".902"/><path d="M60.39 316.27c0 3.601-5.398 3.601-5.398 0 0-3.598 5.399-3.598 5.399 0" fill="#1e90ff" fill-opacity=".902"/><path d="M60.39 316.273c0 3.598-5.398 3.598-5.398 0 0-3.601 5.399-3.601 5.399 0" fill="#1e90ff" fill-opacity=".902"/><path d="M60.39 316.273c0 3.598-5.398 3.598-5.398 0 0-3.601 5.399-3.601 5.399 0" fill="#1e90ff" fill-opacity=".902"/><path d="M60.39 316.277c0 3.598-5.398 3.598-5.398 0 0-3.601 5.399-3.601 5.399 0" fill="#1e90ff" fill-opacity=".902"/><path d="M60.39 316.277c0 3.598-5.398 3.598-5.398 0 0-3.601 5.399-3.601 5.399 0" fill="#1e90ff" fill-opacity=".902"/><path d="M60.39 316.281c0 3.602-5.398 3.602-5.398 0 0-3.597 5.399-3.597 5.399 0" fill="#1e90ff" fill-opacity=".902"/><path d="M60.39 316.285c0 3.598-5.398 3.598-5.398 0 0-3.601 5.399-3.601 5.399 0" fill="#1e90ff" fill-opacity=".902"/><path d="M60.39 316.29c0 3.597-5.398 3.597-5.398 0 0-3.603 5.399-3.603 5.399 0" fill="#1e90ff" fill-opacity=".902"/><path d="M60.39 316.29c0 3.6-5.398 3.6-5.398 0 0-3.603 5.399-3.603 5.399 0" fill="#1e90ff" fill-opacity=".902"/><path d="M60.39 316.29c0 3.6-5.398 3.6-5.398 0 0-3.603 5.399-3.603 5.399 0" fill="#1e90ff" fill-opacity=".902"/><path d="M60.39 316.29c0 3.6-5.398 3.6-5.398 0 0-3.599 5.399-3.599 5.399 0" fill="#1e90ff" fill-opacity=".902"/><path d="M60.39 316.29c0 3.6-5.398 3.6-5.398 0 0-3.599 5.399-3.599 5.399 0" fill="#1e90ff" fill-opacity=".902"/><path d="M60.39 316.293c0 3.598-5.398 3.598-5.398 0 0-3.602 5.399-3.602 5.399 0" fill="#1e90ff" fill-opacity=".902"/><path d="M60.39 316.297c0 3.598-5.398 3.598-5.398 0 0-3.602 5.399-3.602 5.399 0" fill="#1e90ff" fill-opacity=".902"/><path d="M60.39 316.297c0 3.601-5.398 3.601-5.398 0 0-3.598 5.399-3.598 5.399 0" fill="#1e90ff" fill-opacity=".902"/><path d="M60.39 316.297c0 3.601-5.398 3.601-5.398 0 0-3.598 5.399-3.598 5.399 0" fill="#1e90ff" fill-opacity=".902"/><path d="M60.39 316.297c0 3.601-5.398 3.601-5.398 0 0-3.598 5.399-3.598 5.399 0" fill="#1e90ff" fill-opacity=".902"/><path d="M60.39 316.3c0 3.598-5.398 3.598-5.398 0 0-3.6 5.399-3.6 5.399 0" fill="#1e90ff" fill-opacity=".902"/><path d="M60.39 316.3c0 3.602-5.398 3.602-5.398 0 0-3.6 5.399-3.6 5.399 0" fill="#1e90ff" fill-opacity=".902"/><path d="M60.39 316.305c0 3.597-5.398 3.597-5.398 0 0-3.602 5.399-3.602 5.399 0" fill="#1e90ff" fill-opacity=".902"/><path d="M60.39 316.305c0 3.597-5.398 3.597-5.398 0 0-3.602 5.399-3.602 5.399 0" fill="#1e90ff" fill-opacity=".902"/><path d="M60.39 316.305c0 3.601-5.398 3.601-5.398 0 0-3.602 5.399-3.602 5.399 0" fill="#1e90ff" fill-opacity=".902"/><path d="M60.39 316.305c0 3.601-5.398 3.601-5.398 0 0-3.598 5.399-3.598 5.399 0" fill="#1e90ff" fill-opacity=".902"/><path d="M60.39 316.305c0 3.601-5.398 3.601-5.398 0 0-3.598 5.399-3.598 5.399 0" fill="#1e90ff" fill-opacity=".902"/><path d="M60.39 316.305c0 3.601-5.398 3.601-5.398 0 0-3.598 5.399-3.598 5.399 0" fill="#1e90ff" fill-opacity=".902"/><path d="M60.39 316.309c0 3.597-5.398 3.597-5.398 0 0-3.602 5.399-3.602 5.399 0" fill="#1e90ff" fill-opacity=".902"/><path d="M60.39 316.309c0 3.597-5.398 3.597-5.398 0 0-3.602 5.399-3.602 5.399 0" fill="#1e90ff" fill-opacity=".902"/><path d="M60.39 316.309c0 3.597-5.398 3.597-5.398 0 0-3.602 5.399-3.602 5.399 0" fill="#1e90ff" fill-opacity=".902"/><path d="M60.39 316.309c0 3.597-5.398 3.597-5.398 0 0-3.602 5.399-3.602 5.399 0" fill="#1e90ff" fill-opacity=".902"/><path d="M60.39 316.309c0 3.597-5.398 3.597-5.398 0 0-3.602 5.399-3.602 5.399 0" fill="#1e90ff" fill-opacity=".902"/><path d="M60.39 316.309c0 3.597-5.398 3.597-5.398 0 0-3.602 5.399-3.602 5.399 0" fill="#1e90ff" fill-opacity=".902"/><g clip-path="url(#a)"><path d="M46.078 327.922L359.602 14.398" fill="none" stroke-width=".75" stroke-linecap="round" stroke-linejoin="round" stroke="#000" stroke-miterlimit="10"/></g><path d="M57.691 327.922h290.297M57.691 327.922v7.2M130.266 327.922v7.2M202.84 327.922v7.2M275.414 327.922v7.2M347.988 327.922v7.2" fill="none" stroke-width=".75" stroke-linecap="round" stroke-linejoin="round" stroke="#000" stroke-miterlimit="10"/><use xlink:href="#b" x="49.352" y="353.84"/><use xlink:href="#c" x="56.025" y="353.84"/><use xlink:href="#b" x="59.359" y="353.84"/><use xlink:href="#b" x="121.926" y="353.84"/><use xlink:href="#c" x="128.6" y="353.84"/><use xlink:href="#d" x="131.934" y="353.84"/><use xlink:href="#e" x="194.5" y="353.84"/><use xlink:href="#c" x="201.174" y="353.84"/><use xlink:href="#b" x="204.508" y="353.84"/><use xlink:href="#e" x="267.074" y="353.84"/><use xlink:href="#c" x="273.748" y="353.84"/><use xlink:href="#d" x="277.082" y="353.84"/><use xlink:href="#f" x="339.648" y="353.84"/><use xlink:href="#c" x="346.322" y="353.84"/><use xlink:href="#b" x="349.656" y="353.84"/><path d="M46.078 316.309V26.012M46.078 316.309h-7.2M46.078 243.734h-7.2M46.078 171.16h-7.2M46.078 98.586h-7.2M46.078 26.012h-7.2" fill="none" stroke-width=".75" stroke-linecap="round" stroke-linejoin="round" stroke="#000" stroke-miterlimit="10"/><use xlink:href="#g" x="28.801" y="324.648"/><use xlink:href="#h" x="28.801" y="317.975"/><use xlink:href="#g" x="28.801" y="314.641"/><g><use xlink:href="#g" x="28.801" y="252.074"/><use xlink:href="#h" x="28.801" y="245.4"/><use xlink:href="#i" x="28.801" y="242.066"/></g><g><use xlink:href="#j" x="28.801" y="179.5"/><use xlink:href="#h" x="28.801" y="172.826"/><use xlink:href="#g" x="28.801" y="169.492"/></g><g><use xlink:href="#j" x="28.801" y="106.926"/><use xlink:href="#h" x="28.801" y="100.252"/><use xlink:href="#i" x="28.801" y="96.918"/></g><g><use xlink:href="#k" x="28.801" y="34.352"/><use xlink:href="#h" x="28.801" y="27.678"/><use xlink:href="#g" x="28.801" y="24.344"/></g><g><use xlink:href="#l" x="190.504" y="371.121"/><use xlink:href="#m" x="198.508" y="371.121"/><use xlink:href="#n" x="201.174" y="371.121"/><use xlink:href="#o" x="205.17" y="371.121"/><use xlink:href="#p" x="208.504" y="371.121"/></g><g><use xlink:href="#q" x="11.52" y="187.172"/><use xlink:href="#r" x="11.52" y="178.506"/><use xlink:href="#s" x="11.52" y="171.832"/><use xlink:href="#t" x="11.52" y="165.158"/><use xlink:href="#u" x="11.52" y="161.824"/></g><path d="M69.89 37.21l3.637 6.298h-7.273l3.637-6.297" fill="none" stroke-width="1.5" stroke-linecap="round" stroke-linejoin="round" stroke="#ee2c2c" stroke-opacity=".902" stroke-miterlimit="10"/><g clip-path="url(#v)" fill="none" stroke-width=".75" stroke-linecap="round" stroke-linejoin="round" stroke="#000" stroke-miterlimit="10"><path d="M46.078 327.922L359.602 14.398M46.078 327.922L359.602 14.398"/></g><path d="M237.586 300.059c0 1.918-2.879 1.918-2.879 0 0-1.922 2.879-1.922 2.879 0" fill="#1e90ff" stroke-width=".75" stroke-linecap="round" stroke-linejoin="round" stroke="#1e90ff" stroke-miterlimit="10"/><path d="M236.148 310.629l2.907 5.039h-5.817l2.91-5.04" fill="none" stroke-width=".75" stroke-linecap="round" stroke-linejoin="round" stroke="#ee2c2c" stroke-miterlimit="10"/><g><use xlink:href="#w" x="246.879" y="303.496"/><use xlink:href="#x" x="252.214" y="303.496"/><use xlink:href="#y" x="254.88" y="303.496"/><use xlink:href="#z" x="260.216" y="303.496"/><use xlink:href="#A" x="262.881" y="303.496"/><use xlink:href="#B" x="270.343" y="303.496"/><use xlink:href="#C" x="273.538" y="303.496"/><use xlink:href="#D" x="278.874" y="303.496"/><use xlink:href="#B" x="284.209" y="303.496"/><use xlink:href="#z" x="287.404" y="303.496"/><use xlink:href="#E" x="290.07" y="303.496"/><use xlink:href="#F" x="296.998" y="303.496"/><use xlink:href="#G" x="302.333" y="303.496"/><use xlink:href="#F" x="310.325" y="303.496"/><use xlink:href="#H" x="315.661" y="303.496"/><use xlink:href="#F" x="317.792" y="303.496"/><use xlink:href="#I" x="323.128" y="303.496"/><use xlink:href="#J" x="328.463" y="303.496"/></g><g><use xlink:href="#K" x="246.879" y="317.426"/><use xlink:href="#L" x="252.214" y="317.426"/><use xlink:href="#x" x="257.011" y="317.426"/><use xlink:href="#z" x="259.677" y="317.426"/><use xlink:href="#A" x="262.342" y="317.426"/><use xlink:href="#B" x="269.805" y="317.426"/><use xlink:href="#C" x="272.999" y="317.426"/><use xlink:href="#D" x="278.335" y="317.426"/><use xlink:href="#B" x="283.671" y="317.426"/><use xlink:href="#z" x="286.865" y="317.426"/><use xlink:href="#E" x="289.531" y="317.426"/><use xlink:href="#F" x="296.459" y="317.426"/><use xlink:href="#G" x="301.795" y="317.426"/><use xlink:href="#F" x="309.786" y="317.426"/><use xlink:href="#H" x="315.122" y="317.426"/><use xlink:href="#F" x="317.253" y="317.426"/><use xlink:href="#I" x="322.589" y="317.426"/><use xlink:href="#J" x="327.925" y="317.426"/></g></svg>