<svg xmlns="http://www.w3.org/2000/svg" width="700" height="700" viewBox="0 0 525 525"><path fill="#fff" d="M0 0h525v525H0z"/><path d="M417.848 145.809c0 1.918-2.883 1.918-2.883 0 0-1.922 2.883-1.922 2.883 0M165.234 337.027c0 1.922-2.882 1.922-2.882 0 0-1.918 2.882-1.918 2.882 0M71.168 386.61c0 1.917-2.883 1.917-2.883 0 0-1.923 2.883-1.923 2.883 0M172.383 435.121c0 1.918-2.88 1.918-2.88 0 0-1.922 2.88-1.922 2.88 0M386.496 414.484c0 1.918-2.883 1.918-2.883 0 0-1.921 2.883-1.921 2.883 0M151.023 422.145c0 1.918-2.878 1.918-2.878 0 0-1.922 2.878-1.922 2.878 0M490.29 250.473c0 1.922-2.88 1.922-2.88 0 0-1.918 2.88-1.918 2.88 0M345.055 139.73c0 1.922-2.883 1.922-2.883 0 0-1.917 2.883-1.917 2.883 0M139.379 392.703c0 1.922-2.879 1.922-2.879 0 0-1.918 2.879-1.918 2.879 0M130.336 330.129c0 1.918-2.879 1.918-2.879 0 0-1.922 2.879-1.922 2.879 0M186.152 365.73c0 1.918-2.879 1.918-2.879 0 0-1.921 2.88-1.921 2.88 0M104.516 266.25c0 1.918-2.88 1.918-2.88 0 0-1.922 2.88-1.922 2.88 0M252.434 124.523c0 1.922-2.883 1.922-2.883 0 0-1.918 2.883-1.918 2.883 0M434.664 345.082c0 1.922-2.879 1.922-2.879 0s2.88-1.922 2.88 0M170.8 124.133c0 1.922-2.878 1.922-2.878 0 0-1.918 2.879-1.918 2.879 0M345.988 459.977c0 1.918-2.879 1.918-2.879 0 0-1.922 2.88-1.922 2.88 0M287.367 206.324c0 1.918-2.879 1.918-2.879 0 0-1.922 2.88-1.922 2.88 0M258.8 106.41c0 1.918-2.882 1.918-2.882 0 0-1.922 2.883-1.922 2.883 0M309.938 118.91c0 1.922-2.88 1.922-2.88 0 0-1.918 2.88-1.918 2.88 0M267.234 45.469c0 1.918-2.879 1.918-2.879 0 0-1.922 2.88-1.922 2.88 0M237.402 192.11c0 1.917-2.879 1.917-2.879 0 0-1.923 2.88-1.923 2.88 0M225.895 137.918c0 1.918-2.88 1.918-2.88 0 0-1.922 2.88-1.922 2.88 0M335.16 99.02c0 1.918-2.879 1.918-2.879 0 0-1.922 2.88-1.922 2.88 0M444.691 218.2c0 1.917-2.878 1.917-2.878 0 0-1.923 2.878-1.923 2.878 0M327.992 103.313c0 1.917-2.879 1.917-2.879 0 0-1.922 2.88-1.922 2.88 0M400.824 451.14c0 1.923-2.879 1.923-2.879 0 0-1.917 2.88-1.917 2.88 0M62.621 292.137c0 1.922-2.879 1.922-2.879 0 0-1.918 2.88-1.918 2.88 0M411.078 366.934c0 1.921-2.879 1.921-2.879 0 0-1.918 2.88-1.918 2.88 0M395.234 414.816c0 1.918-2.882 1.918-2.882 0 0-1.921 2.882-1.921 2.882 0M425.926 246.02c0 1.921-2.88 1.921-2.88 0 0-1.918 2.88-1.918 2.88 0M152.805 183.23c0 1.922-2.88 1.922-2.88 0 0-1.917 2.88-1.917 2.88 0M292.496 66.508c0 1.922-2.883 1.922-2.883 0 0-1.918 2.883-1.918 2.883 0M150.383 65.422c0 1.918-2.88 1.918-2.88 0 0-1.922 2.88-1.922 2.88 0M108.29 293.648c0 1.918-2.88 1.918-2.88 0 0-1.921 2.88-1.921 2.88 0M294.36 131.191c0 1.918-2.88 1.918-2.88 0 0-1.921 2.88-1.921 2.88 0M228.555 452.953c0 1.922-2.88 1.922-2.88 0 0-1.918 2.88-1.918 2.88 0M327.809 62.059c0 1.921-2.88 1.921-2.88 0 0-1.918 2.88-1.918 2.88 0M263.516 115.785c0 1.918-2.88 1.918-2.88 0 0-1.922 2.88-1.922 2.88 0M448.664 277.203c0 1.918-2.883 1.918-2.883 0 0-1.922 2.883-1.922 2.883 0M380.645 415.695c0 1.922-2.88 1.922-2.88 0 0-1.918 2.88-1.918 2.88 0M113.324 302.895c0 1.921-2.883 1.921-2.883 0 0-1.918 2.883-1.918 2.883 0M138.379 415.902c0 1.922-2.879 1.922-2.879 0s2.879-1.922 2.879 0M208.004 31.172c0 1.922-2.879 1.922-2.879 0 0-1.918 2.879-1.918 2.879 0M123.602 422.813c0 1.917-2.883 1.917-2.883 0 0-1.922 2.883-1.922 2.883 0M182.95 177.441c0 1.918-2.88 1.918-2.88 0 0-1.921 2.88-1.921 2.88 0M50.563 273.055c0 1.922-2.88 1.922-2.88 0 0-1.918 2.88-1.918 2.88 0M188.063 358.414c0 1.922-2.88 1.922-2.88 0s2.88-1.922 2.88 0M97.145 254.75c0 1.922-2.883 1.922-2.883 0 0-1.918 2.883-1.918 2.883 0M252.453 100.656c0 1.922-2.879 1.922-2.879 0 0-1.918 2.88-1.918 2.88 0M290.176 408.043c0 1.922-2.883 1.922-2.883 0 0-1.918 2.883-1.918 2.883 0M407.46 201.023c0 1.922-2.882 1.922-2.882 0 0-1.918 2.883-1.918 2.883 0M182.277 112.43c0 1.918-2.882 1.918-2.882 0 0-1.922 2.882-1.922 2.882 0M227.344 392.656c0 1.918-2.88 1.918-2.88 0 0-1.922 2.88-1.922 2.88 0M110.625 273.86c0 1.921-2.879 1.921-2.879 0 0-1.919 2.879-1.919 2.879 0M366.133 162.332c0 1.918-2.88 1.918-2.88 0 0-1.922 2.88-1.922 2.88 0M99.617 262.188c0 1.917-2.879 1.917-2.879 0 0-1.922 2.88-1.922 2.88 0M128.223 306.09c0 1.918-2.88 1.918-2.88 0 0-1.922 2.88-1.922 2.88 0M262.234 493.828c0 1.918-2.882 1.918-2.882 0 0-1.922 2.882-1.922 2.882 0M349.035 127.52c0 1.918-2.879 1.918-2.879 0 0-1.922 2.88-1.922 2.88 0M393.648 449.664c0 1.922-2.882 1.922-2.882 0 0-1.918 2.882-1.918 2.882 0M343.332 377.32c0 1.918-2.879 1.918-2.879 0 0-1.922 2.879-1.922 2.879 0M463.844 234.215c0 1.922-2.883 1.922-2.883 0 0-1.918 2.883-1.918 2.883 0M178.512 147.352c0 1.921-2.883 1.921-2.883 0 0-1.918 2.883-1.918 2.883 0" fill="coral" stroke-width=".75" stroke-linecap="round" stroke-linejoin="round" stroke="coral" stroke-miterlimit="10"/><path d="M407.742 198.586c0 1.922-2.879 1.922-2.879 0s2.88-1.922 2.88 0M218.914 108.977c0 1.921-2.883 1.921-2.883 0 0-1.918 2.883-1.918 2.883 0M196.895 382.152c0 1.918-2.88 1.918-2.88 0 0-1.922 2.88-1.922 2.88 0M164.676 119.77c0 1.921-2.88 1.921-2.88 0 0-1.918 2.88-1.918 2.88 0M49.691 293.566c0 1.922-2.879 1.922-2.879 0 0-1.918 2.88-1.918 2.88 0M500.328 205.277c0 1.918-2.879 1.918-2.879 0 0-1.922 2.88-1.922 2.88 0M62.71 301.07c0 1.922-2.882 1.922-2.882 0 0-1.918 2.883-1.918 2.883 0M437.008 57.332c0 1.918-2.88 1.918-2.88 0 0-1.922 2.88-1.922 2.88 0M431.027 415.117c0 1.922-2.879 1.922-2.879 0s2.88-1.922 2.88 0M416.93 263.8c0 1.919-2.883 1.919-2.883 0 0-1.921 2.883-1.921 2.883 0M285.879 397.355c0 1.922-2.879 1.922-2.879 0 0-1.918 2.879-1.918 2.879 0M407.258 170.035c0 1.918-2.883 1.918-2.883 0 0-1.922 2.883-1.922 2.883 0M100.848 299.555c0 1.922-2.88 1.922-2.88 0 0-1.918 2.88-1.918 2.88 0M125.04 208.555c0 1.922-2.88 1.922-2.88 0 0-1.918 2.88-1.918 2.88 0M463.313 211.14c0 1.923-2.88 1.923-2.88 0 0-1.917 2.88-1.917 2.88 0M183.852 127.59c0 1.922-2.88 1.922-2.88 0 0-1.918 2.88-1.918 2.88 0M104.46 421.89c0 1.919-2.882 1.919-2.882 0 0-1.921 2.883-1.921 2.883 0M427.781 288.39c0 1.923-2.879 1.923-2.879 0 0-1.917 2.88-1.917 2.88 0M27.55 259.922c0 1.918-2.878 1.918-2.878 0 0-1.922 2.879-1.922 2.879 0M417.324 199.055c0 1.922-2.879 1.922-2.879 0 0-1.918 2.88-1.918 2.88 0M72.074 300.434c0 1.921-2.879 1.921-2.879 0 0-1.918 2.88-1.918 2.88 0M289.8 118.164c0 1.922-2.878 1.922-2.878 0 0-1.918 2.879-1.918 2.879 0M393.34 379.902c0 1.918-2.88 1.918-2.88 0 0-1.922 2.88-1.922 2.88 0M155.387 141.77c0 1.917-2.88 1.917-2.88 0 0-1.922 2.88-1.922 2.88 0M134.375 223.11c0 1.921-2.879 1.921-2.879 0 0-1.923 2.879-1.923 2.879 0M376.375 150.953c0 1.918-2.883 1.918-2.883 0 0-1.922 2.883-1.922 2.883 0M377.785 380.059c0 1.918-2.883 1.918-2.883 0 0-1.922 2.883-1.922 2.883 0M360.656 105.035c0 1.922-2.879 1.922-2.879 0 0-1.918 2.88-1.918 2.88 0M441.082 380.406c0 1.918-2.879 1.918-2.879 0 0-1.922 2.879-1.922 2.879 0M411.168 183.965c0 1.922-2.879 1.922-2.879 0 0-1.918 2.879-1.918 2.879 0M447.39 135.27c0 1.921-2.878 1.921-2.878 0 0-1.918 2.879-1.918 2.879 0M417.098 168.61c0 1.921-2.883 1.921-2.883 0 0-1.919 2.883-1.919 2.883 0M67.383 280.66c0 1.922-2.883 1.922-2.883 0 0-1.918 2.883-1.918 2.883 0M294.734 70.492c0 1.918-2.879 1.918-2.879 0 0-1.922 2.88-1.922 2.88 0M436.46 264.29c0 1.917-2.878 1.917-2.878 0 0-1.923 2.879-1.923 2.879 0M235.465 161.945c0 1.922-2.883 1.922-2.883 0 0-1.918 2.883-1.918 2.883 0M296.57 487.098c0 1.922-2.882 1.922-2.882 0 0-1.918 2.882-1.918 2.882 0" fill="coral" stroke-width=".75" stroke-linecap="round" stroke-linejoin="round" stroke="coral" stroke-miterlimit="10"/><path d="M7.2 517.8h510.6V7.2H7.2v510.6" fill="none" stroke-width=".75" stroke-linecap="round" stroke-linejoin="round" stroke="#000" stroke-miterlimit="10"/></svg>