<svg xmlns="http://www.w3.org/2000/svg" width="700" height="700" viewBox="0 0 525 525"><path fill="#fff" d="M0 0h525v525H0z"/><path d="M417.848 145.809c0 1.918-2.883 1.918-2.883 0 0-1.922 2.883-1.922 2.883 0M165.234 337.027c0 1.922-2.882 1.922-2.882 0 0-1.918 2.882-1.918 2.882 0M71.168 386.61c0 1.917-2.883 1.917-2.883 0 0-1.923 2.883-1.923 2.883 0M172.383 435.121c0 1.918-2.88 1.918-2.88 0 0-1.922 2.88-1.922 2.88 0M386.496 414.484c0 1.918-2.883 1.918-2.883 0 0-1.921 2.883-1.921 2.883 0M151.023 422.145c0 1.918-2.878 1.918-2.878 0 0-1.922 2.878-1.922 2.878 0M490.29 250.473c0 1.922-2.88 1.922-2.88 0 0-1.918 2.88-1.918 2.88 0M345.055 139.73c0 1.922-2.883 1.922-2.883 0 0-1.917 2.883-1.917 2.883 0M139.379 392.703c0 1.922-2.879 1.922-2.879 0 0-1.918 2.879-1.918 2.879 0M130.336 330.129c0 1.918-2.879 1.918-2.879 0 0-1.922 2.879-1.922 2.879 0M186.152 365.73c0 1.918-2.879 1.918-2.879 0 0-1.921 2.88-1.921 2.88 0M104.516 266.25c0 1.918-2.88 1.918-2.88 0 0-1.922 2.88-1.922 2.88 0M252.434 124.523c0 1.922-2.883 1.922-2.883 0 0-1.918 2.883-1.918 2.883 0M434.664 345.082c0 1.922-2.879 1.922-2.879 0s2.88-1.922 2.88 0M170.8 124.133c0 1.922-2.878 1.922-2.878 0 0-1.918 2.879-1.918 2.879 0M345.988 459.977c0 1.918-2.879 1.918-2.879 0 0-1.922 2.88-1.922 2.88 0M287.367 206.324c0 1.918-2.879 1.918-2.879 0 0-1.922 2.88-1.922 2.88 0M258.8 106.41c0 1.918-2.882 1.918-2.882 0 0-1.922 2.883-1.922 2.883 0M309.938 118.91c0 1.922-2.88 1.922-2.88 0 0-1.918 2.88-1.918 2.88 0M267.234 45.469c0 1.918-2.879 1.918-2.879 0 0-1.922 2.88-1.922 2.88 0M237.402 192.11c0 1.917-2.879 1.917-2.879 0 0-1.923 2.88-1.923 2.88 0M225.895 137.918c0 1.918-2.88 1.918-2.88 0 0-1.922 2.88-1.922 2.88 0M335.16 99.02c0 1.918-2.879 1.918-2.879 0 0-1.922 2.88-1.922 2.88 0M444.691 218.2c0 1.917-2.878 1.917-2.878 0 0-1.923 2.878-1.923 2.878 0M327.992 103.313c0 1.917-2.879 1.917-2.879 0 0-1.922 2.88-1.922 2.88 0M400.824 451.14c0 1.923-2.879 1.923-2.879 0 0-1.917 2.88-1.917 2.88 0M62.621 292.137c0 1.922-2.879 1.922-2.879 0 0-1.918 2.88-1.918 2.88 0M411.078 366.934c0 1.921-2.879 1.921-2.879 0 0-1.918 2.88-1.918 2.88 0M395.234 414.816c0 1.918-2.882 1.918-2.882 0 0-1.921 2.882-1.921 2.882 0M425.926 246.02c0 1.921-2.88 1.921-2.88 0 0-1.918 2.88-1.918 2.88 0M152.805 183.23c0 1.922-2.88 1.922-2.88 0 0-1.917 2.88-1.917 2.88 0M292.496 66.508c0 1.922-2.883 1.922-2.883 0 0-1.918 2.883-1.918 2.883 0M150.383 65.422c0 1.918-2.88 1.918-2.88 0 0-1.922 2.88-1.922 2.88 0M108.29 293.648c0 1.918-2.88 1.918-2.88 0 0-1.921 2.88-1.921 2.88 0M294.36 131.191c0 1.918-2.88 1.918-2.88 0 0-1.921 2.88-1.921 2.88 0M228.555 452.953c0 1.922-2.88 1.922-2.88 0 0-1.918 2.88-1.918 2.88 0M327.809 62.059c0 1.921-2.88 1.921-2.88 0 0-1.918 2.88-1.918 2.88 0M263.516 115.785c0 1.918-2.88 1.918-2.88 0 0-1.922 2.88-1.922 2.88 0M448.664 277.203c0 1.918-2.883 1.918-2.883 0 0-1.922 2.883-1.922 2.883 0M380.645 415.695c0 1.922-2.88 1.922-2.88 0 0-1.918 2.88-1.918 2.88 0M113.324 302.895c0 1.921-2.883 1.921-2.883 0 0-1.918 2.883-1.918 2.883 0M138.379 415.902c0 1.922-2.879 1.922-2.879 0s2.879-1.922 2.879 0M208.004 31.172c0 1.922-2.879 1.922-2.879 0 0-1.918 2.879-1.918 2.879 0M123.602 422.813c0 1.917-2.883 1.917-2.883 0 0-1.922 2.883-1.922 2.883 0M182.95 177.441c0 1.918-2.88 1.918-2.88 0 0-1.921 2.88-1.921 2.88 0M50.563 273.055c0 1.922-2.88 1.922-2.88 0 0-1.918 2.88-1.918 2.88 0M188.063 358.414c0 1.922-2.88 1.922-2.88 0s2.88-1.922 2.88 0M97.145 254.75c0 1.922-2.883 1.922-2.883 0 0-1.918 2.883-1.918 2.883 0M252.453 100.656c0 1.922-2.879 1.922-2.879 0 0-1.918 2.88-1.918 2.88 0M290.176 408.043c0 1.922-2.883 1.922-2.883 0 0-1.918 2.883-1.918 2.883 0M407.46 201.023c0 1.922-2.882 1.922-2.882 0 0-1.918 2.883-1.918 2.883 0M182.277 112.43c0 1.918-2.882 1.918-2.882 0 0-1.922 2.882-1.922 2.882 0M227.344 392.656c0 1.918-2.88 1.918-2.88 0 0-1.922 2.88-1.922 2.88 0M110.625 273.86c0 1.921-2.879 1.921-2.879 0 0-1.919 2.879-1.919 2.879 0M366.133 162.332c0 1.918-2.88 1.918-2.88 0 0-1.922 2.88-1.922 2.88 0M99.617 262.188c0 1.917-2.879 1.917-2.879 0 0-1.922 2.88-1.922 2.88 0M128.223 306.09c0 1.918-2.88 1.918-2.88 0 0-1.922 2.88-1.922 2.88 0M262.234 493.828c0 1.918-2.882 1.918-2.882 0 0-1.922 2.882-1.922 2.882 0M349.035 127.52c0 1.918-2.879 1.918-2.879 0 0-1.922 2.88-1.922 2.88 0M393.648 449.664c0 1.922-2.882 1.922-2.882 0 0-1.918 2.882-1.918 2.882 0M343.332 377.32c0 1.918-2.879 1.918-2.879 0 0-1.922 2.879-1.922 2.879 0M463.844 234.215c0 1.922-2.883 1.922-2.883 0 0-1.918 2.883-1.918 2.883 0M178.512 147.352c0 1.921-2.883 1.921-2.883 0 0-1.918 2.883-1.918 2.883 0" fill="coral" stroke-width=".75" stroke-linecap="round" stroke-linejoin="round" stroke="coral" stroke-miterlimit="10"/><path d="M407.742 198.586c0 1.922-2.879 1.922-2.879 0s2.88-1.922 2.88 0M218.914 108.977c0 1.921-2.883 1.921-2.883 0 0-1.918 2.883-1.918 2.883 0M196.895 382.152c0 1.918-2.88 1.918-2.88 0 0-1.922 2.88-1.922 2.88 0M164.676 119.77c0 1.921-2.88 1.921-2.88 0 0-1.918 2.88-1.918 2.88 0M49.691 293.566c0 1.922-2.879 1.922-2.879 0 0-1.918 2.88-1.918 2.88 0M500.328 205.277c0 1.918-2.879 1.918-2.879 0 0-1.922 2.88-1.922 2.88 0M62.71 301.07c0 1.922-2.882 1.922-2.882 0 0-1.918 2.883-1.918 2.883 0M437.008 57.332c0 1.918-2.88 1.918-2.88 0 0-1.922 2.88-1.922 2.88 0M431.027 415.117c0 1.922-2.879 1.922-2.879 0s2.88-1.922 2.88 0M416.93 263.8c0 1.919-2.883 1.919-2.883 0 0-1.921 2.883-1.921 2.883 0M285.879 397.355c0 1.922-2.879 1.922-2.879 0 0-1.918 2.879-1.918 2.879 0M407.258 170.035c0 1.918-2.883 1.918-2.883 0 0-1.922 2.883-1.922 2.883 0M100.848 299.555c0 1.922-2.88 1.922-2.88 0 0-1.918 2.88-1.918 2.88 0M125.04 208.555c0 1.922-2.88 1.922-2.88 0 0-1.918 2.88-1.918 2.88 0M463.313 211.14c0 1.923-2.88 1.923-2.88 0 0-1.917 2.88-1.917 2.88 0M183.852 127.59c0 1.922-2.88 1.922-2.88 0 0-1.918 2.88-1.918 2.88 0M104.46 421.89c0 1.919-2.882 1.919-2.882 0 0-1.921 2.883-1.921 2.883 0M427.781 288.39c0 1.923-2.879 1.923-2.879 0 0-1.917 2.88-1.917 2.88 0M27.55 259.922c0 1.918-2.878 1.918-2.878 0 0-1.922 2.879-1.922 2.879 0M417.324 199.055c0 1.922-2.879 1.922-2.879 0 0-1.918 2.88-1.918 2.88 0M72.074 300.434c0 1.921-2.879 1.921-2.879 0 0-1.918 2.88-1.918 2.88 0M289.8 118.164c0 1.922-2.878 1.922-2.878 0 0-1.918 2.879-1.918 2.879 0M393.34 379.902c0 1.918-2.88 1.918-2.88 0 0-1.922 2.88-1.922 2.88 0M155.387 141.77c0 1.917-2.88 1.917-2.88 0 0-1.922 2.88-1.922 2.88 0M134.375 223.11c0 1.921-2.879 1.921-2.879 0 0-1.923 2.879-1.923 2.879 0M376.375 150.953c0 1.918-2.883 1.918-2.883 0 0-1.922 2.883-1.922 2.883 0M377.785 380.059c0 1.918-2.883 1.918-2.883 0 0-1.922 2.883-1.922 2.883 0M360.656 105.035c0 1.922-2.879 1.922-2.879 0 0-1.918 2.88-1.918 2.88 0M441.082 380.406c0 1.918-2.879 1.918-2.879 0 0-1.922 2.879-1.922 2.879 0M411.168 183.965c0 1.922-2.879 1.922-2.879 0 0-1.918 2.879-1.918 2.879 0M447.39 135.27c0 1.921-2.878 1.921-2.878 0 0-1.918 2.879-1.918 2.879 0M417.098 168.61c0 1.921-2.883 1.921-2.883 0 0-1.919 2.883-1.919 2.883 0M67.383 280.66c0 1.922-2.883 1.922-2.883 0 0-1.918 2.883-1.918 2.883 0M294.734 70.492c0 1.918-2.879 1.918-2.879 0 0-1.922 2.88-1.922 2.88 0M436.46 264.29c0 1.917-2.878 1.917-2.878 0 0-1.923 2.879-1.923 2.879 0M235.465 161.945c0 1.922-2.883 1.922-2.883 0 0-1.918 2.883-1.918 2.883 0M296.57 487.098c0 1.922-2.882 1.922-2.882 0 0-1.918 2.882-1.918 2.882 0" fill="coral" stroke-width=".75" stroke-linecap="round" stroke-linejoin="round" stroke="coral" stroke-miterlimit="10"/><path d="M7.2 517.8h510.6V7.2H7.2v510.6" fill="none" stroke-width=".75" stroke-linecap="round" stroke-linejoin="round" stroke="#000" stroke-miterlimit="10"/><path d="M199.91 484.637c0 1.922-2.879 1.922-2.879 0 0-1.918 2.88-1.918 2.88 0M457.32 141.844c0 1.922-2.879 1.922-2.879 0s2.88-1.922 2.88 0M160.246 115.379c0 1.922-2.879 1.922-2.879 0 0-1.918 2.88-1.918 2.88 0M476.02 246.223c0 1.922-2.883 1.922-2.883 0 0-1.918 2.883-1.918 2.883 0M459.375 174.555c0 1.918-2.883 1.918-2.883 0 0-1.922 2.883-1.922 2.883 0M487.258 12.586c0 1.918-2.88 1.918-2.88 0 0-1.922 2.88-1.922 2.88 0M407.371 396.555c0 1.922-2.879 1.922-2.879 0 0-1.918 2.88-1.918 2.88 0M237.367 306.547c0 1.918-2.883 1.918-2.883 0 0-1.922 2.883-1.922 2.883 0M317.148 89.883c0 1.918-2.878 1.918-2.878 0 0-1.922 2.878-1.922 2.878 0M38.996 310.277c0 1.918-2.879 1.918-2.879 0 0-1.922 2.88-1.922 2.88 0M65.414 24.504c0 1.922-2.879 1.922-2.879 0 0-1.918 2.88-1.918 2.88 0M336.133 42.004c0 1.918-2.88 1.918-2.88 0 0-1.922 2.88-1.922 2.88 0M514.434 492.922c0 1.918-2.88 1.918-2.88 0 0-1.922 2.88-1.922 2.88 0M129.348 379.465c0 1.922-2.88 1.922-2.88 0 0-1.918 2.88-1.918 2.88 0M429.875 68.406c0 1.918-2.879 1.918-2.879 0 0-1.922 2.879-1.922 2.879 0M215.309 283.094c0 1.918-2.88 1.918-2.88 0 0-1.922 2.88-1.922 2.88 0M462.227 60.95c0 1.917-2.883 1.917-2.883 0 0-1.923 2.883-1.923 2.883 0M463.402 485.246c0 1.918-2.882 1.918-2.882 0 0-1.922 2.882-1.922 2.882 0M41.375 221.953c0 1.922-2.883 1.922-2.883 0s2.883-1.922 2.883 0M481.55 67.684c0 1.921-2.878 1.921-2.878 0 0-1.918 2.879-1.918 2.879 0M228.156 348.875c0 1.918-2.879 1.918-2.879 0 0-1.922 2.88-1.922 2.88 0" fill="#9932cc" stroke-width=".75" stroke-linecap="round" stroke-linejoin="round" stroke="#9932cc" stroke-miterlimit="10"/><path d="M42.883 221.04c0 1.92-2.88 1.92-2.88 0 0-1.919 2.88-1.919 2.88 0M407.266 429.488c0 1.922-2.88 1.922-2.88 0 0-1.918 2.88-1.918 2.88 0M484.047 48.066c0 1.922-2.879 1.922-2.879 0 0-1.918 2.879-1.918 2.879 0M344.867 403.04c0 1.917-2.879 1.917-2.879 0 0-1.923 2.88-1.923 2.88 0M250.547 205.293c0 1.918-2.879 1.918-2.879 0 0-1.922 2.879-1.922 2.879 0M382.852 367.57c0 1.918-2.883 1.918-2.883 0 0-1.922 2.883-1.922 2.883 0M262.102 172.027c0 1.922-2.883 1.922-2.883 0 0-1.918 2.883-1.918 2.883 0M379.82 486.953c0 1.922-2.879 1.922-2.879 0 0-1.918 2.88-1.918 2.88 0M334.66 86.953c0 1.922-2.879 1.922-2.879 0 0-1.918 2.88-1.918 2.88 0M189.02 369.086c0 1.918-2.88 1.918-2.88 0 0-1.922 2.88-1.922 2.88 0M331.844 450.309c0 1.918-2.883 1.918-2.883 0 0-1.922 2.883-1.922 2.883 0M222.832 86.395c0 1.921-2.879 1.921-2.879 0 0-1.918 2.879-1.918 2.879 0M77.27 283.273c0 1.922-2.88 1.922-2.88 0 0-1.918 2.88-1.918 2.88 0M113.559 385.633c0 1.922-2.88 1.922-2.88 0 0-1.918 2.88-1.918 2.88 0M194.496 198.328c0 1.918-2.883 1.918-2.883 0 0-1.922 2.883-1.922 2.883 0M447.676 36.063c0 1.921-2.88 1.921-2.88 0 0-1.918 2.88-1.918 2.88 0M278.527 197.203c0 1.918-2.879 1.918-2.879 0 0-1.922 2.88-1.922 2.88 0M39.746 261.207c0 1.918-2.879 1.918-2.879 0 0-1.922 2.88-1.922 2.88 0M434.57 303.398c0 1.918-2.879 1.918-2.879 0 0-1.921 2.88-1.921 2.88 0M217.223 229.883c0 1.922-2.883 1.922-2.883 0 0-1.918 2.883-1.918 2.883 0M163.973 398.543c0 1.918-2.88 1.918-2.88 0 0-1.922 2.88-1.922 2.88 0M413.527 162.234c0 1.922-2.879 1.922-2.879 0 0-1.918 2.88-1.918 2.88 0M273.379 356.828c0 1.918-2.879 1.918-2.879 0 0-1.922 2.879-1.922 2.879 0M231.004 410.672c0 1.922-2.883 1.922-2.883 0 0-1.918 2.883-1.918 2.883 0M146.016 157.406c0 1.918-2.88 1.918-2.88 0 0-1.922 2.88-1.922 2.88 0M479.41 388.418c0 1.922-2.883 1.922-2.883 0 0-1.918 2.883-1.918 2.883 0M310.352 315.969c0 1.922-2.88 1.922-2.88 0 0-1.918 2.88-1.918 2.88 0M417.598 331.55c0 1.919-2.88 1.919-2.88 0 0-1.921 2.88-1.921 2.88 0M197.54 315.637c0 1.918-2.884 1.918-2.884 0 0-1.922 2.883-1.922 2.883 0M121.45 25.984c0 1.922-2.88 1.922-2.88 0 0-1.918 2.88-1.918 2.88 0M231.098 59.96c0 1.919-2.88 1.919-2.88 0 0-1.92 2.88-1.92 2.88 0" fill="#9932cc" stroke-width=".75" stroke-linecap="round" stroke-linejoin="round" stroke="#9932cc" stroke-miterlimit="10"/><path d="M259.512 170.84c0 1.922-2.883 1.922-2.883 0 0-1.918 2.883-1.918 2.883 0M79.992 15.918c0 1.918-2.879 1.918-2.879 0 0-1.922 2.88-1.922 2.88 0M273.41 269.832c0 1.922-2.879 1.922-2.879 0 0-1.918 2.88-1.918 2.88 0M210.777 182.21c0 1.919-2.879 1.919-2.879 0 0-1.92 2.88-1.92 2.88 0M322.95 431.07c0 1.918-2.88 1.918-2.88 0 0-1.922 2.88-1.922 2.88 0M331.012 290.082c0 1.922-2.883 1.922-2.883 0s2.883-1.922 2.883 0M172.89 268.469c0 1.918-2.878 1.918-2.878 0 0-1.922 2.879-1.922 2.879 0M473.574 294.898c0 1.918-2.879 1.918-2.879 0 0-1.921 2.88-1.921 2.88 0M158.2 176.934c0 1.921-2.884 1.921-2.884 0 0-1.918 2.883-1.918 2.883 0M357.426 269.324c0 1.918-2.883 1.918-2.883 0 0-1.922 2.883-1.922 2.883 0M220.648 320.203c0 1.918-2.882 1.918-2.882 0 0-1.922 2.882-1.922 2.882 0M189.688 403.316c0 1.922-2.88 1.922-2.88 0 0-1.918 2.88-1.918 2.88 0M426.992 404.125c0 1.922-2.879 1.922-2.879 0 0-1.918 2.88-1.918 2.88 0M498.926 71.266c0 1.918-2.883 1.918-2.883 0 0-1.922 2.883-1.922 2.883 0M451.5 411.598c0 1.922-2.879 1.922-2.879 0 0-1.918 2.879-1.918 2.879 0M260.633 324.504c0 1.922-2.88 1.922-2.88 0 0-1.918 2.88-1.918 2.88 0M160.387 293.95c0 1.917-2.88 1.917-2.88 0 0-1.923 2.88-1.923 2.88 0M431.922 222.5c0 1.918-2.879 1.918-2.879 0 0-1.922 2.879-1.922 2.879 0M281.934 186.09c0 1.922-2.88 1.922-2.88 0 0-1.918 2.88-1.918 2.88 0M367.027 90.809c0 1.918-2.879 1.918-2.879 0 0-1.922 2.88-1.922 2.88 0M104.45 88.434c0 1.918-2.88 1.918-2.88 0 0-1.922 2.88-1.922 2.88 0M510.602 448.996c0 1.918-2.883 1.918-2.883 0 0-1.922 2.883-1.922 2.883 0M136.512 451.191c0 1.922-2.88 1.922-2.88 0 0-1.918 2.88-1.918 2.88 0M52.691 416.14c0 1.919-2.882 1.919-2.882 0 0-1.921 2.882-1.921 2.882 0M159.105 392.25c0 1.922-2.878 1.922-2.878 0 0-1.918 2.878-1.918 2.878 0M199.16 125.625c0 1.918-2.883 1.918-2.883 0 0-1.922 2.883-1.922 2.883 0M72.95 485.621c0 1.918-2.88 1.918-2.88 0 0-1.922 2.88-1.922 2.88 0M252.48 466.71c0 1.923-2.878 1.923-2.878 0 0-1.92 2.878-1.92 2.878 0" fill="#9932cc" stroke-width=".75" stroke-linecap="round" stroke-linejoin="round" stroke="#9932cc" stroke-miterlimit="10"/></svg>