<svg xmlns="http://www.w3.org/2000/svg" width="374pt" height="374pt" viewBox="0 0 374 374"><path fill="#fff" d="M0 0h374v374H0z"/><path d="M251.816 112.508c0 3.597-5.398 3.597-5.398 0 0-3.602 5.398-3.602 5.398 0M109.684 284.105c0 3.602-5.403 3.602-5.403 0 0-3.597 5.403-3.597 5.403 0M57.086 260.98c0 3.602-5.402 3.602-5.402 0 0-3.597 5.402-3.597 5.402 0M118.598 287.926c0 3.601-5.399 3.601-5.399 0 0-3.598 5.399-3.598 5.399 0M285.617 305.598c0 3.601-5.398 3.601-5.398 0 0-3.602 5.398-3.602 5.398 0M64.688 258.7c0 3.597-5.399 3.597-5.399 0 0-3.602 5.398-3.602 5.398 0M334.96 167.156c0 3.602-5.401 3.602-5.401 0 0-3.601 5.402-3.601 5.402 0M197.547 90.71c0 3.599-5.402 3.599-5.402 0 0-3.6 5.402-3.6 5.402 0M111.64 257.59c0 3.601-5.398 3.601-5.398 0 0-3.598 5.399-3.598 5.399 0M79.516 205.438c0 3.597-5.399 3.597-5.399 0 0-3.602 5.399-3.602 5.399 0M179.48 304.895c0 3.601-5.398 3.601-5.398 0 0-3.598 5.398-3.598 5.398 0M111.816 246.14c0 3.598-5.402 3.598-5.402 0 0-3.6 5.402-3.6 5.402 0M134.934 78.86c0 3.6-5.399 3.6-5.399 0 0-3.602 5.399-3.602 5.399 0M286.96 246.813c0 3.597-5.397 3.597-5.397 0 0-3.602 5.398-3.602 5.398 0M161.434 78.176c0 3.601-5.399 3.601-5.399 0 0-3.598 5.399-3.598 5.399 0M255.027 277.012c0 3.601-5.398 3.601-5.398 0 0-3.602 5.398-3.602 5.398 0M151.191 56.152c0 3.598-5.402 3.598-5.402 0 0-3.601 5.402-3.601 5.402 0M118.465 68.3c0 3.598-5.403 3.598-5.403 0 0-3.6 5.403-3.6 5.403 0M230.066 59.984c0 3.602-5.402 3.602-5.402 0 0-3.597 5.402-3.597 5.402 0M173.887 49.945c0 3.602-5.399 3.602-5.399 0 0-3.601 5.399-3.601 5.399 0M141.09 158.906c0 3.598-5.403 3.598-5.403 0 0-3.601 5.403-3.601 5.403 0M129.262 91.117c0 3.602-5.399 3.602-5.399 0 0-3.601 5.399-3.601 5.399 0M252.816 79.805c0 3.601-5.398 3.601-5.398 0 0-3.598 5.398-3.598 5.398 0M289.383 189.86c0 3.6-5.403 3.6-5.403 0 0-3.598 5.403-3.598 5.403 0M203.363 102.02c0 3.601-5.402 3.601-5.402 0 0-3.598 5.402-3.598 5.402 0M225.684 289.89c0 3.602-5.399 3.602-5.399 0 0-3.597 5.399-3.597 5.399 0M102.652 219.824c0 3.598-5.398 3.598-5.398 0 0-3.601 5.398-3.601 5.398 0M312.508 292.145c0 3.601-5.399 3.601-5.399 0 0-3.602 5.399-3.602 5.399 0M243.645 267.672c0 3.601-5.399 3.601-5.399 0 0-3.602 5.399-3.602 5.399 0M276.102 178.89c0 3.602-5.403 3.602-5.403 0 0-3.597 5.403-3.597 5.403 0M98.664 149.535c0 3.598-5.398 3.598-5.398 0 0-3.601 5.398-3.601 5.398 0M142.328 66.059c0 3.601-5.402 3.601-5.402 0 0-3.598 5.402-3.598 5.402 0M119.223 44.54c0 3.6-5.403 3.6-5.403 0 0-3.599 5.403-3.599 5.403 0M48.64 190.734c0 3.598-5.398 3.598-5.398 0 0-3.601 5.399-3.601 5.399 0M216.68 69.785c0 3.598-5.399 3.598-5.399 0 0-3.601 5.399-3.601 5.399 0M174.648 276.238c0 3.598-5.398 3.598-5.398 0 0-3.601 5.398-3.601 5.398 0M258.719 91.316c0 3.602-5.399 3.602-5.399 0 0-3.597 5.399-3.597 5.399 0M180.414 117.355c0 3.602-5.398 3.602-5.398 0 0-3.597 5.398-3.597 5.398 0" fill="coral" fill-opacity=".698" stroke-width=".75" stroke-linecap="round" stroke-linejoin="round" stroke="coral" stroke-opacity=".698" stroke-miterlimit="10"/><path d="M293.703 192.46c0 3.602-5.398 3.602-5.398 0 0-3.597 5.398-3.597 5.398 0M249.574 264.465c0 3.598-5.398 3.598-5.398 0 0-3.602 5.398-3.602 5.398 0M79.613 263.172c0 3.601-5.402 3.601-5.402 0 0-3.598 5.402-3.598 5.402 0M85.473 256.234c0 3.602-5.399 3.602-5.399 0 0-3.597 5.399-3.597 5.399 0M129.625 85.875c0 3.598-5.398 3.598-5.398 0 0-3.602 5.398-3.602 5.398 0M115.227 267.262c0 3.601-5.399 3.601-5.399 0 0-3.598 5.399-3.598 5.399 0M179.938 98.648c0 3.598-5.403 3.598-5.403 0 0-3.601 5.403-3.601 5.403 0M107.41 165.93c0 3.601-5.402 3.601-5.402 0 0-3.602 5.402-3.602 5.402 0M156.82 257.559c0 3.597-5.402 3.597-5.402 0 0-3.602 5.402-3.602 5.402 0M68.11 140.371c0 3.602-5.4 3.602-5.4 0 0-3.601 5.4-3.601 5.4 0M151.363 100.078c0 3.602-5.398 3.602-5.398 0 0-3.598 5.398-3.598 5.398 0M183.387 285.43c0 3.601-5.403 3.601-5.403 0 0-3.598 5.403-3.598 5.403 0M293.484 148.559c0 3.601-5.402 3.601-5.402 0 0-3.598 5.402-3.598 5.402 0M157.395 108.355c0 3.602-5.399 3.602-5.399 0 0-3.597 5.399-3.597 5.399 0M166.402 292.781c0 3.602-5.402 3.602-5.402 0 0-3.601 5.402-3.601 5.402 0M69.402 194.105c0 3.598-5.402 3.598-5.402 0 0-3.601 5.402-3.601 5.402 0M305.512 76.691c0 3.598-5.403 3.598-5.403 0 0-3.601 5.403-3.601 5.403 0M77.613 148.453c0 3.602-5.398 3.602-5.398 0 0-3.598 5.398-3.598 5.398 0M60.977 160.148c0 3.602-5.399 3.602-5.399 0 0-3.597 5.399-3.597 5.399 0M180.031 322.3c0 3.602-5.402 3.602-5.402 0 0-3.6 5.402-3.6 5.402 0M247.781 84.95c0 3.6-5.402 3.6-5.402 0 0-3.598 5.402-3.598 5.402 0M240.164 248.438c0 3.601-5.402 3.601-5.402 0 0-3.598 5.402-3.598 5.402 0M304.508 247.059c0 3.597-5.399 3.597-5.399 0 0-3.602 5.399-3.602 5.399 0M300.355 200.18c0 3.601-5.398 3.601-5.398 0 0-3.598 5.398-3.598 5.398 0M126.664 62.258c0 3.601-5.398 3.601-5.398 0 0-3.602 5.398-3.602 5.398 0" fill="coral" fill-opacity=".698" stroke-width=".75" stroke-linecap="round" stroke-linejoin="round" stroke="coral" stroke-opacity=".698" stroke-miterlimit="10"/><path d="M289.473 189.004c0 3.601-5.399 3.601-5.399 0 0-3.602 5.399-3.602 5.399 0M221.582 91.727c0 3.601-5.398 3.601-5.398 0 0-3.602 5.398-3.602 5.398 0M125.004 328.18c0 3.597-5.402 3.597-5.402 0 0-3.602 5.402-3.602 5.402 0M134.586 91.172c0 3.598-5.399 3.598-5.399 0 0-3.602 5.399-3.602 5.399 0M75.875 179.336c0 3.601-5.398 3.601-5.398 0 0-3.602 5.398-3.602 5.398 0M302.66 118.02c0 3.601-5.398 3.601-5.398 0 0-3.598 5.398-3.598 5.398 0M84.055 232.125c0 3.598-5.399 3.598-5.399 0 0-3.602 5.399-3.602 5.399 0M245.04 113.023c0 3.598-5.403 3.598-5.403 0 0-3.601 5.402-3.601 5.402 0M274.379 266.867c0 3.602-5.399 3.602-5.399 0 0-3.597 5.399-3.597 5.399 0M268.66 156.055c0 3.597-5.402 3.597-5.402 0 0-3.602 5.402-3.602 5.402 0M193.973 329.46c0 3.599-5.403 3.599-5.403 0 0-3.6 5.403-3.6 5.403 0M321.441 122.785c0 3.602-5.402 3.602-5.402 0 0-3.597 5.402-3.597 5.402 0" fill="coral" fill-opacity=".698" stroke-width=".75" stroke-linecap="round" stroke-linejoin="round" stroke="coral" stroke-opacity=".698" stroke-miterlimit="10"/><path d="M75.094 178.648c0 3.602-5.399 3.602-5.399 0 0-3.597 5.399-3.597 5.399 0M100.863 87.723c0 3.597-5.398 3.597-5.398 0 0-3.602 5.398-3.602 5.398 0M276.793 131.164c0 3.598-5.398 3.598-5.398 0 0-3.601 5.398-3.601 5.398 0M123.55 115.965c0 3.597-5.398 3.597-5.398 0 0-3.602 5.399-3.602 5.399 0M104.691 310.742c0 3.598-5.402 3.598-5.402 0 0-3.601 5.402-3.601 5.402 0M300.262 259.48c0 3.598-5.403 3.598-5.403 0 0-3.601 5.403-3.601 5.403 0M88.895 206.313c0 3.601-5.399 3.601-5.399 0 0-3.598 5.399-3.598 5.399 0M273.441 99.938c0 3.601-5.398 3.601-5.398 0 0-3.602 5.398-3.602 5.398 0M57.156 191.297c0 3.601-5.398 3.601-5.398 0 0-3.598 5.398-3.598 5.398 0M244.066 143.426c0 3.597-5.398 3.597-5.398 0 0-3.602 5.398-3.602 5.398 0M297.488 239.598c0 3.601-5.398 3.601-5.398 0 0-3.598 5.398-3.598 5.398 0M117.176 122.152c0 3.602-5.403 3.602-5.403 0 0-3.597 5.403-3.597 5.403 0M133.309 103.32c0 3.602-5.399 3.602-5.399 0 0-3.601 5.399-3.601 5.399 0M225.668 74.43c0 3.597-5.398 3.597-5.398 0 0-3.602 5.398-3.602 5.398 0M284.586 243.723c0 3.601-5.399 3.601-5.399 0 0-3.598 5.399-3.598 5.399 0M258.512 88.879c0 3.601-5.399 3.601-5.399 0 0-3.598 5.399-3.598 5.399 0M327.57 280.43c0 3.601-5.402 3.601-5.402 0 0-3.598 5.402-3.598 5.402 0M269.227 122.504c0 3.601-5.403 3.601-5.403 0 0-3.602 5.403-3.602 5.403 0M283.027 146.477c0 3.601-5.398 3.601-5.398 0 0-3.598 5.398-3.598 5.398 0M283.93 73.043c0 3.602-5.399 3.602-5.399 0 0-3.598 5.399-3.598 5.399 0M122.066 202.598c0 3.601-5.398 3.601-5.398 0 0-3.598 5.398-3.598 5.398 0M185.406 100.328c0 3.602-5.402 3.602-5.402 0 0-3.598 5.402-3.598 5.402 0M304.215 225.21c0 3.599-5.402 3.599-5.402 0 0-3.6 5.402-3.6 5.402 0M142 94.512c0 3.601-5.398 3.601-5.398 0 0-3.598 5.398-3.598 5.398 0M183.238 318.504c0 3.601-5.402 3.601-5.402 0 0-3.602 5.402-3.602 5.402 0" fill="coral" fill-opacity=".698" stroke-width=".75" stroke-linecap="round" stroke-linejoin="round" stroke="coral" stroke-opacity=".698" stroke-miterlimit="10"/></svg>