<svg xmlns="http://www.w3.org/2000/svg" width="374pt" height="374pt" viewBox="0 0 374 374"><path fill="#fff" d="M0 0h374v374H0z"/><path d="M281.918 111.91c0 3.602-5.402 3.602-5.402 0 0-3.597 5.402-3.597 5.402 0M102.152 266.57c0 3.602-5.398 3.602-5.398 0 0-3.597 5.398-3.597 5.398 0M95.52 259.57c0 3.602-5.399 3.602-5.399 0 0-3.597 5.399-3.597 5.399 0" fill="coral" fill-opacity=".698" stroke-width=".75" stroke-linecap="round" stroke-linejoin="round" stroke="coral" stroke-opacity=".698" stroke-miterlimit="10"/><path d="M102.73 267.129c0 3.598-5.398 3.598-5.398 0 0-3.602 5.398-3.602 5.398 0M268.063 274.797c0 3.601-5.399 3.601-5.399 0 0-3.598 5.399-3.598 5.399 0M112.281 275.363c0 3.598-5.398 3.598-5.398 0 0-3.601 5.398-3.601 5.398 0M311.512 180.129c0 3.601-5.399 3.601-5.399 0 0-3.598 5.399-3.598 5.399 0M203.152 73.102c0 3.597-5.398 3.597-5.398 0 0-3.602 5.398-3.602 5.398 0M128.469 285.95c0 3.6-5.403 3.6-5.403 0 0-3.598 5.403-3.598 5.403 0M68.383 197.203c0 3.602-5.399 3.602-5.399 0 0-3.601 5.399-3.601 5.399 0M147.5 294.387c0 3.601-5.398 3.601-5.398 0 0-3.598 5.398-3.598 5.398 0M72.73 218.898c0 3.602-5.398 3.602-5.398 0 0-3.597 5.398-3.597 5.398 0M164.914 74.828c0 3.598-5.398 3.598-5.398 0 0-3.601 5.398-3.601 5.398 0M297.89 239.965c0 3.601-5.398 3.601-5.398 0 0-3.598 5.399-3.598 5.399 0M157.777 76.438c0 3.601-5.398 3.601-5.398 0 0-3.602 5.398-3.602 5.398 0M253.379 284.703c0 3.602-5.399 3.602-5.399 0 0-3.598 5.399-3.598 5.399 0" fill="coral" fill-opacity=".698" stroke-width=".75" stroke-linecap="round" stroke-linejoin="round" stroke="coral" stroke-opacity=".698" stroke-miterlimit="10"/><path d="M162.305 75.367c0 3.602-5.403 3.602-5.403 0 0-3.601 5.403-3.601 5.403 0M176.95 73.05c0 3.602-5.4 3.602-5.4 0 0-3.597 5.4-3.597 5.4 0M237.016 81.348c0 3.601-5.399 3.601-5.399 0 0-3.602 5.399-3.602 5.399 0M203.398 73.125c0 3.602-5.398 3.602-5.398 0 0-3.598 5.398-3.598 5.398 0M140.262 82.3c0 3.598-5.399 3.598-5.399 0 0-3.6 5.399-3.6 5.399 0M150.18 78.633c0 3.601-5.399 3.601-5.399 0 0-3.598 5.399-3.598 5.399 0M255.754 90.613c0 3.602-5.399 3.602-5.399 0 0-3.597 5.399-3.597 5.399 0M307.898 158.477c0 3.597-5.398 3.597-5.398 0 0-3.602 5.398-3.602 5.398 0M213.559 74.605c0 3.602-5.399 3.602-5.399 0 0-3.597 5.399-3.597 5.399 0M235.117 293.305c0 3.597-5.398 3.597-5.398 0 0-3.602 5.398-3.602 5.398 0M69.48 205.375c0 3.602-5.398 3.602-5.398 0s5.398-3.602 5.398 0M294.617 245.48c0 3.602-5.398 3.602-5.398 0 0-3.601 5.398-3.601 5.398 0M249.445 286.867c0 3.602-5.398 3.602-5.398 0 0-3.597 5.398-3.597 5.398 0" fill="coral" fill-opacity=".698" stroke-width=".75" stroke-linecap="round" stroke-linejoin="round" stroke="coral" stroke-opacity=".698" stroke-miterlimit="10"/><path d="M306.723 154.469c0 3.601-5.403 3.601-5.403 0 0-3.598 5.403-3.598 5.403 0M72.504 155.758c0 3.601-5.399 3.601-5.399 0 0-3.602 5.399-3.602 5.399 0M178.195 72.934c0 3.601-5.398 3.601-5.398 0 0-3.602 5.398-3.602 5.398 0M148.75 79.105c0 3.602-5.398 3.602-5.398 0 0-3.601 5.398-3.601 5.398 0M68.023 192.219c0 3.597-5.398 3.597-5.398 0 0-3.602 5.398-3.602 5.398 0M240.96 82.98c0 3.602-5.398 3.602-5.398 0 0-3.597 5.399-3.597 5.399 0M197.215 301.297c0 3.598-5.399 3.598-5.399 0 0-3.602 5.399-3.602 5.399 0M226.578 77.746c0 3.598-5.402 3.598-5.402 0 0-3.601 5.402-3.601 5.402 0" fill="coral" fill-opacity=".698" stroke-width=".75" stroke-linecap="round" stroke-linejoin="round" stroke="coral" stroke-opacity=".698" stroke-miterlimit="10"/><path d="M183.066 72.59c0 3.597-5.398 3.597-5.398 0 0-3.602 5.398-3.602 5.398 0M311.582 192.605c0 3.602-5.402 3.602-5.402 0 0-3.597 5.402-3.597 5.402 0M232.8 294.148c0 3.602-5.398 3.602-5.398 0 0-3.597 5.399-3.597 5.399 0M74.676 224.629c0 3.601-5.399 3.601-5.399 0 0-3.598 5.399-3.598 5.399 0M115.941 278.086c0 3.601-5.398 3.601-5.398 0 0-3.598 5.398-3.598 5.398 0M143.637 80.945c0 3.602-5.403 3.602-5.403 0 0-3.597 5.403-3.597 5.403 0M101.898 266.32c0 3.602-5.398 3.602-5.398 0 0-3.597 5.398-3.597 5.398 0M131.234 86.504c0 3.598-5.402 3.598-5.402 0 0-3.602 5.402-3.602 5.402 0M67.906 188.398c0 3.598-5.402 3.598-5.402 0 0-3.601 5.402-3.601 5.402 0M135.898 289.7c0 3.597-5.402 3.597-5.402 0 0-3.602 5.402-3.602 5.402 0M68.438 176.176c0 3.597-5.403 3.597-5.403 0 0-3.602 5.403-3.602 5.403 0M194.46 72.496c0 3.602-5.398 3.602-5.398 0 0-3.601 5.399-3.601 5.399 0M201.637 300.969c0 3.597-5.403 3.597-5.403 0 0-3.602 5.403-3.602 5.403 0M298.863 135.742c0 3.598-5.402 3.598-5.402 0 0-3.601 5.402-3.601 5.402 0" fill="coral" fill-opacity=".698" stroke-width=".75" stroke-linecap="round" stroke-linejoin="round" stroke="coral" stroke-opacity=".698" stroke-miterlimit="10"/><path d="M145.156 80.375c0 3.598-5.402 3.598-5.402 0 0-3.602 5.402-3.602 5.402 0M164.918 299.094c0 3.601-5.398 3.601-5.398 0 0-3.602 5.398-3.602 5.398 0M67.945 190.23c0 3.602-5.398 3.602-5.398 0 0-3.597 5.398-3.597 5.398 0M259.602 93.04c0 3.597-5.399 3.597-5.399 0 0-3.603 5.399-3.603 5.399 0" fill="coral" fill-opacity=".698" stroke-width=".75" stroke-linecap="round" stroke-linejoin="round" stroke="coral" stroke-opacity=".698" stroke-miterlimit="10"/><path d="M67.934 189.79c0 3.6-5.403 3.6-5.403 0 0-3.599 5.403-3.599 5.403 0M67.984 182.613c0 3.602-5.402 3.602-5.402 0 0-3.597 5.402-3.597 5.402 0M190.73 301.504c0 3.601-5.398 3.601-5.398 0 0-3.602 5.398-3.602 5.398 0M245.398 85.012c0 3.601-5.398 3.601-5.398 0 0-3.598 5.398-3.598 5.398 0M260.473 280.305c0 3.601-5.399 3.601-5.399 0 0-3.598 5.399-3.598 5.399 0M270.34 272.96c0 3.603-5.399 3.603-5.399 0 0-3.597 5.399-3.597 5.399 0M307.535 157.18c0 3.601-5.398 3.601-5.398 0 0-3.598 5.398-3.598 5.398 0M139.863 82.469c0 3.597-5.398 3.597-5.398 0 0-3.602 5.398-3.602 5.398 0M311.273 177.074c0 3.602-5.398 3.602-5.398 0 0-3.597 5.398-3.597 5.398 0M198.21 72.684c0 3.601-5.398 3.601-5.398 0 0-3.598 5.399-3.598 5.399 0M156.898 297.254c0 3.601-5.398 3.601-5.398 0 0-3.602 5.398-3.602 5.398 0M146.293 79.96c0 3.599-5.402 3.599-5.402 0 0-3.6 5.402-3.6 5.402 0" fill="coral" fill-opacity=".698" stroke-width=".75" stroke-linecap="round" stroke-linejoin="round" stroke="coral" stroke-opacity=".698" stroke-miterlimit="10"/><path d="M68.07 193.11c0 3.597-5.398 3.597-5.398 0 0-3.602 5.398-3.602 5.398 0M305.367 150.438c0 3.601-5.402 3.601-5.402 0 0-3.602 5.402-3.602 5.402 0M77.793 232.168c0 3.602-5.402 3.602-5.402 0s5.402-3.602 5.402 0M277.906 107.773c0 3.602-5.402 3.602-5.402 0 0-3.597 5.402-3.597 5.402 0M285.121 258.39c0 3.602-5.398 3.602-5.398 0 0-3.6 5.398-3.6 5.398 0M311.215 176.445c0 3.602-5.399 3.602-5.399 0 0-3.597 5.399-3.597 5.399 0M215 299.035c0 3.602-5.398 3.602-5.398 0 0-3.598 5.398-3.598 5.398 0M292.766 125.605c0 3.602-5.399 3.602-5.399 0 0-3.597 5.399-3.597 5.399 0M68.781 200.738c0 3.602-5.402 3.602-5.402 0 0-3.601 5.402-3.601 5.402 0M98.734 110.813c0 3.601-5.402 3.601-5.402 0 0-3.598 5.402-3.598 5.402 0M300.11 138.152c0 3.602-5.403 3.602-5.403 0 0-3.597 5.402-3.597 5.402 0M137.457 83.512c0 3.601-5.402 3.601-5.402 0 0-3.598 5.402-3.598 5.402 0M130.07 286.813c0 3.601-5.398 3.601-5.398 0 0-3.602 5.398-3.602 5.398 0M298.922 238.063c0 3.601-5.399 3.601-5.399 0 0-3.598 5.399-3.598 5.399 0M69.79 166.848c0 3.601-5.4 3.601-5.4 0 0-3.602 5.4-3.602 5.4 0M265.973 97.512c0 3.601-5.403 3.601-5.403 0 0-3.602 5.403-3.602 5.403 0M72.582 218.414c0 3.598-5.402 3.598-5.402 0 0-3.601 5.402-3.601 5.402 0M230.262 78.902c0 3.598-5.399 3.598-5.399 0 0-3.601 5.399-3.601 5.399 0" fill="coral" fill-opacity=".698" stroke-width=".75" stroke-linecap="round" stroke-linejoin="round" stroke="coral" stroke-opacity=".698" stroke-miterlimit="10"/><path d="M287.8 255.113c0 3.598-5.398 3.598-5.398 0 0-3.601 5.399-3.601 5.399 0M96.117 113.668c0 3.602-5.398 3.602-5.398 0s5.398-3.602 5.398 0M144.313 80.688c0 3.601-5.403 3.601-5.403 0 0-3.598 5.403-3.598 5.403 0M255.121 90.234c0 3.598-5.402 3.598-5.402 0 0-3.601 5.402-3.601 5.402 0" fill="coral" fill-opacity=".698" stroke-width=".75" stroke-linecap="round" stroke-linejoin="round" stroke="coral" stroke-opacity=".698" stroke-miterlimit="10"/><path d="M286.7 256.492c0 3.598-5.4 3.598-5.4 0 0-3.601 5.4-3.601 5.4 0M250.953 87.86c0 3.597-5.402 3.597-5.402 0 0-3.602 5.402-3.602 5.402 0" fill="coral" fill-opacity=".698" stroke-width=".75" stroke-linecap="round" stroke-linejoin="round" stroke="coral" stroke-opacity=".698" stroke-miterlimit="10"/><path d="M288.637 254.043c0 3.598-5.403 3.598-5.403 0 0-3.602 5.403-3.602 5.403 0M270.965 101.477c0 3.601-5.399 3.601-5.399 0 0-3.598 5.399-3.598 5.399 0" fill="coral" fill-opacity=".698" stroke-width=".75" stroke-linecap="round" stroke-linejoin="round" stroke="coral" stroke-opacity=".698" stroke-miterlimit="10"/><path d="M272.363 102.668c0 3.602-5.398 3.602-5.398 0s5.398-3.602 5.398 0M286.012 116.59c0 3.601-5.403 3.601-5.403 0 0-3.602 5.403-3.602 5.403 0M68.219 195.29c0 3.6-5.403 3.6-5.403 0 0-3.599 5.403-3.599 5.403 0M151.992 78.063c0 3.601-5.398 3.601-5.398 0 0-3.598 5.398-3.598 5.398 0M310.016 167.82c0 3.602-5.399 3.602-5.399 0 0-3.597 5.399-3.597 5.399 0M145.184 80.363c0 3.602-5.403 3.602-5.403 0 0-3.601 5.403-3.601 5.403 0M183.777 301.367c0 3.598-5.398 3.598-5.398 0 0-3.601 5.398-3.601 5.398 0" fill="coral" fill-opacity=".698" stroke-width=".75" stroke-linecap="round" stroke-linejoin="round" stroke="coral" stroke-opacity=".698" stroke-miterlimit="10"/></svg>