<svg xmlns="http://www.w3.org/2000/svg" width="374pt" height="374pt" viewBox="0 0 374 374"><path fill="#fff" d="M0 0h374v374H0z"/><path d="M51.09 81.965c0 2.402-3.602 2.402-3.602 0 0-2.399 3.602-2.399 3.602 0M16.293 171.98c0 2.399-3.598 2.399-3.598 0 0-2.402 3.598-2.402 3.598 0M15.676 183.637c0 2.402-3.598 2.402-3.598 0 0-2.399 3.598-2.399 3.598 0M57.48 74.066c0 2.403-3.601 2.403-3.601 0 0-2.398 3.601-2.398 3.601 0M81.207 322.688c0 2.398-3.598 2.398-3.598 0 0-2.403 3.598-2.403 3.598 0M92.57 42.96c0 2.4-3.597 2.4-3.597 0 0-2.398 3.597-2.398 3.597 0M355.602 234.148c0 2.399-3.598 2.399-3.598 0 0-2.402 3.598-2.402 3.598 0M355.95 141.027c0 2.403-3.602 2.403-3.602 0 0-2.398 3.601-2.398 3.601 0M205.621 359.41c0 2.402-3.598 2.402-3.598 0 0-2.398 3.598-2.398 3.598 0M238.52 20.973c0 2.398-3.602 2.398-3.602 0 0-2.403 3.602-2.403 3.602 0M119.844 345.863c0 2.403-3.598 2.403-3.598 0 0-2.398 3.598-2.398 3.598 0" fill="red" stroke-width=".75" stroke-linecap="round" stroke-linejoin="round" stroke="red" stroke-miterlimit="10"/><path d="M51.227 81.785c0 2.403-3.602 2.403-3.602 0 0-2.398 3.602-2.398 3.602 0M350.598 124.754c0 2.398-3.602 2.398-3.602 0 0-2.399 3.602-2.399 3.602 0M173.953 359.574c0 2.399-3.601 2.399-3.601 0 0-2.398 3.601-2.398 3.601 0M66.277 309.363c0 2.399-3.601 2.399-3.601 0 0-2.402 3.601-2.402 3.601 0M69.64 312.64c0 2.403-3.6 2.403-3.6 0 0-2.398 3.6-2.398 3.6 0M30.293 256.691c0 2.399-3.598 2.399-3.598 0 0-2.402 3.598-2.402 3.598 0M231.266 354.96c0 2.4-3.598 2.4-3.598 0 0-2.401 3.598-2.401 3.598 0M258.617 28.363c0 2.399-3.597 2.399-3.597 0 0-2.402 3.597-2.402 3.597 0M274.914 337.36c0 2.398-3.598 2.398-3.598 0 0-2.403 3.598-2.403 3.598 0M18.805 219.898c0 2.403-3.602 2.403-3.602 0 0-2.398 3.602-2.398 3.602 0M18.11 157.855c0 2.399-3.602 2.399-3.602 0 0-2.398 3.601-2.398 3.601 0" fill="red" stroke-width=".75" stroke-linecap="round" stroke-linejoin="round" stroke="red" stroke-miterlimit="10"/><path d="M29.137 254c0 2.398-3.598 2.398-3.598 0 0-2.402 3.598-2.402 3.598 0M220.059 16.54c0 2.401-3.598 2.401-3.598 0 0-2.4 3.598-2.4 3.598 0M142.309 353.84c0 2.398-3.602 2.398-3.602 0 0-2.402 3.602-2.402 3.602 0M113.957 30.762c0 2.398-3.598 2.398-3.598 0 0-2.403 3.598-2.403 3.598 0M199.27 359.91c0 2.399-3.598 2.399-3.598 0 0-2.402 3.598-2.402 3.598 0M281.488 40.531c0 2.399-3.601 2.399-3.601 0 0-2.402 3.601-2.402 3.601 0M66.484 309.57c0 2.403-3.597 2.403-3.597 0 0-2.398 3.597-2.398 3.597 0M323.555 77.953c0 2.399-3.602 2.399-3.602 0 0-2.402 3.602-2.402 3.602 0M304.563 315.957c0 2.402-3.602 2.402-3.602 0 0-2.398 3.601-2.398 3.601 0M219.922 357.422c0 2.398-3.602 2.398-3.602 0 0-2.402 3.602-2.402 3.602 0" fill="red" stroke-width=".75" stroke-linecap="round" stroke-linejoin="round" stroke="red" stroke-miterlimit="10"/><path d="M220.398 357.332c0 2.402-3.601 2.402-3.601 0 0-2.398 3.601-2.398 3.601 0M15.734 192.504c0 2.398-3.601 2.398-3.601 0 0-2.402 3.601-2.402 3.601 0M311.898 308.98c0 2.399-3.597 2.399-3.597 0 0-2.398 3.597-2.398 3.597 0M93.852 331.824c0 2.399-3.598 2.399-3.598 0 0-2.402 3.598-2.402 3.598 0M326.648 292.043c0 2.402-3.597 2.402-3.597 0 0-2.398 3.597-2.398 3.597 0M252.191 348.246c0 2.399-3.601 2.399-3.601 0 0-2.402 3.601-2.402 3.601 0M197.855 359.988c0 2.399-3.601 2.399-3.601 0 0-2.398 3.601-2.398 3.601 0M248.098 349.793c0 2.398-3.602 2.398-3.602 0 0-2.402 3.602-2.402 3.602 0M102.922 337.383c0 2.398-3.598 2.398-3.598 0 0-2.399 3.598-2.399 3.598 0M16.25 201.418c0 2.402-3.602 2.402-3.602 0 0-2.398 3.602-2.398 3.602 0M264.523 31.09c0 2.402-3.597 2.402-3.597 0 0-2.399 3.597-2.399 3.597 0M28.941 253.531c0 2.403-3.597 2.403-3.597 0 0-2.398 3.597-2.398 3.597 0M168.172 14.957c0 2.402-3.598 2.402-3.598 0 0-2.398 3.598-2.398 3.598 0M155.383 356.95c0 2.398-3.602 2.398-3.602 0 0-2.403 3.602-2.403 3.602 0M249.563 24.684c0 2.398-3.598 2.398-3.598 0 0-2.403 3.597-2.403 3.597 0M342.922 266.3c0 2.4-3.602 2.4-3.602 0 0-2.398 3.602-2.398 3.602 0M353.484 132.855c0 2.403-3.601 2.403-3.601 0 0-2.398 3.601-2.398 3.601 0M358.465 222.516c0 2.402-3.602 2.402-3.602 0 0-2.399 3.602-2.399 3.602 0M333.734 91.895c0 2.402-3.597 2.402-3.597 0 0-2.399 3.597-2.399 3.597 0M331.375 285.543c0 2.402-3.602 2.402-3.602 0 0-2.398 3.602-2.398 3.602 0M255.71 27.113c0 2.403-3.6 2.403-3.6 0 0-2.398 3.6-2.398 3.6 0M239.676 21.32c0 2.403-3.602 2.403-3.602 0 0-2.398 3.602-2.398 3.602 0M147.332 18.773c0 2.399-3.598 2.399-3.598 0 0-2.398 3.598-2.398 3.598 0M241.016 352.195c0 2.399-3.598 2.399-3.598 0 0-2.398 3.598-2.398 3.598 0M17.758 159.996c0 2.399-3.602 2.399-3.602 0 0-2.402 3.602-2.402 3.602 0M211.445 358.746c0 2.402-3.601 2.402-3.601 0 0-2.398 3.601-2.398 3.601 0M361.95 195.348c0 2.402-3.602 2.402-3.602 0 0-2.399 3.601-2.399 3.601 0" fill="red" stroke-width=".75" stroke-linecap="round" stroke-linejoin="round" stroke="red" stroke-miterlimit="10"/><path d="M253.79 347.61c0 2.398-3.602 2.398-3.602 0 0-2.4 3.601-2.4 3.601 0M73.547 316.234c0 2.403-3.602 2.403-3.602 0 0-2.398 3.602-2.398 3.602 0M287.188 329.64c0 2.4-3.598 2.4-3.598 0 0-2.398 3.598-2.398 3.598 0M15.656 188.813c0 2.398-3.601 2.398-3.601 0 0-2.403 3.601-2.403 3.601 0M99.04 335.094c0 2.402-3.603 2.402-3.603 0 0-2.399 3.602-2.399 3.602 0M16.11 199.645c0 2.398-3.602 2.398-3.602 0 0-2.403 3.601-2.403 3.601 0M17.715 213.68c0 2.402-3.598 2.402-3.598 0 0-2.399 3.598-2.399 3.598 0M89.719 44.91c0 2.399-3.598 2.399-3.598 0 0-2.398 3.598-2.398 3.598 0" fill="red" stroke-width=".75" stroke-linecap="round" stroke-linejoin="round" stroke="red" stroke-miterlimit="10"/><path d="M251.902 348.36c0 2.398-3.601 2.398-3.601 0 0-2.403 3.601-2.403 3.601 0M227.781 18.133c0 2.402-3.601 2.402-3.601 0 0-2.399 3.601-2.399 3.601 0M35.523 106.39c0 2.403-3.601 2.403-3.601 0 0-2.398 3.601-2.398 3.601 0M64.379 66.504c0 2.398-3.602 2.398-3.602 0 0-2.402 3.602-2.402 3.602 0M226.32 356.129c0 2.402-3.601 2.402-3.601 0 0-2.399 3.601-2.399 3.601 0M74.613 56.754c0 2.398-3.601 2.398-3.601 0 0-2.402 3.601-2.402 3.601 0M168.934 359.066c0 2.399-3.598 2.399-3.598 0 0-2.398 3.598-2.398 3.598 0" fill="red" stroke-width=".75" stroke-linecap="round" stroke-linejoin="round" stroke="red" stroke-miterlimit="10"/><path d="M62.355 68.633c0 2.398-3.601 2.398-3.601 0 0-2.403 3.601-2.403 3.601 0M150.926 356.008c0 2.398-3.602 2.398-3.602 0 0-2.399 3.602-2.399 3.602 0M357.477 146.988c0 2.403-3.602 2.403-3.602 0 0-2.398 3.602-2.398 3.602 0M15.652 185.398c0 2.399-3.601 2.399-3.601 0 0-2.398 3.601-2.398 3.601 0M158.027 357.45c0 2.398-3.597 2.398-3.597 0 0-2.403 3.597-2.403 3.597 0M360.574 210.281c0 2.399-3.597 2.399-3.597 0 0-2.398 3.597-2.398 3.597 0M353.352 241.48c0 2.399-3.602 2.399-3.602 0 0-2.402 3.602-2.402 3.602 0M139.422 20.93c0 2.398-3.602 2.398-3.602 0 0-2.403 3.602-2.403 3.602 0M178.75 14.012c0 2.398-3.598 2.398-3.598 0 0-2.399 3.598-2.399 3.598 0M342.758 266.617c0 2.399-3.602 2.399-3.602 0 0-2.402 3.602-2.402 3.602 0M169.387 359.117c0 2.403-3.598 2.403-3.598 0 0-2.398 3.598-2.398 3.598 0M177.719 359.86c0 2.398-3.602 2.398-3.602 0 0-2.4 3.602-2.4 3.602 0M44.652 282.938c0 2.398-3.597 2.398-3.597 0 0-2.399 3.597-2.399 3.597 0M340.582 103.254c0 2.398-3.598 2.398-3.598 0 0-2.402 3.598-2.402 3.598 0M243.844 351.277c0 2.399-3.598 2.399-3.598 0 0-2.402 3.598-2.402 3.598 0" fill="red" stroke-width=".75" stroke-linecap="round" stroke-linejoin="round" stroke="red" stroke-miterlimit="10"/><path d="M176.762 14.14c0 2.4-3.602 2.4-3.602 0 0-2.402 3.602-2.402 3.602 0M153.121 17.45c0 2.398-3.601 2.398-3.601 0 0-2.403 3.601-2.403 3.601 0M150.207 355.844c0 2.402-3.598 2.402-3.598 0 0-2.399 3.598-2.399 3.598 0M306.074 314.586c0 2.398-3.601 2.398-3.601 0 0-2.402 3.601-2.402 3.601 0M136.73 352.18c0 2.398-3.597 2.398-3.597 0 0-2.399 3.597-2.399 3.597 0M349.262 121.39c0 2.4-3.602 2.4-3.602 0 0-2.398 3.602-2.398 3.602 0M28.871 120.578c0 2.399-3.601 2.399-3.601 0 0-2.402 3.601-2.402 3.601 0M104.816 35.484c0 2.403-3.601 2.403-3.601 0 0-2.398 3.601-2.398 3.601 0M331.703 285.063c0 2.402-3.598 2.402-3.598 0 0-2.399 3.598-2.399 3.598 0" fill="red" stroke-width=".75" stroke-linecap="round" stroke-linejoin="round" stroke="red" stroke-miterlimit="10"/><path d="M27.766 123.309c0 2.398-3.602 2.398-3.602 0 0-2.403 3.602-2.403 3.602 0M58.96 72.367c0 2.403-3.6 2.403-3.6 0 0-2.398 3.6-2.398 3.6 0" fill="red" stroke-width=".75" stroke-linecap="round" stroke-linejoin="round" stroke="red" stroke-miterlimit="10"/><path d="M13.844 374h346.508M13.844 374h0M100.473 374h0M187.098 374h0M273.723 374h0M360.352 374h0M0 360.219V13.715M0 360.219h0M0 273.594h0M0 186.969h0M0 100.34h0M0 13.715h0M0 374h374V0H0v374" fill="none" stroke-width=".75" stroke-linecap="round" stroke-linejoin="round" stroke="#000" stroke-miterlimit="10"/><path d="M317.04 186.969l-.259-8.16-.77-8.13-1.277-8.062-1.777-7.965-2.277-7.84-2.766-7.68-3.242-7.491-3.707-7.274-4.156-7.023-4.586-6.754-5.004-6.45-5.399-6.124-5.773-5.77-6.121-5.398-6.45-5.004-6.753-4.59-7.028-4.152-7.273-3.707-7.488-3.243-7.684-2.765-7.836-2.278-7.969-1.78-8.062-1.278-8.125-.766-8.16-.258-8.16.258-8.125.766-8.063 1.277-7.969 1.781-7.836 2.278-7.68 2.765-7.492 3.243-7.273 3.707-7.027 4.152-6.75 4.59-6.453 5.004-6.122 5.398-5.773 5.77-5.398 6.125-5.004 6.449-4.586 6.754-4.157 7.023-3.707 7.274-3.242 7.492-2.761 7.68-2.278 7.84-1.781 7.964-1.277 8.063-.77 8.129-.258 8.16.258 8.156.77 8.129 1.277 8.062 1.781 7.965 2.278 7.84 2.761 7.68 3.242 7.492 3.707 7.273 4.157 7.028 4.586 6.75 5.004 6.449 5.398 6.125 5.773 5.77 6.122 5.398 6.453 5.004 6.75 4.59 7.027 4.156 7.273 3.703 7.493 3.242 7.68 2.766 7.835 2.277 7.969 1.781 8.063 1.278 8.125.77 8.16.253 8.16-.254 8.125-.77 8.062-1.277 7.97-1.78 7.835-2.278 7.684-2.766 7.488-3.242 7.273-3.703 7.028-4.156 6.754-4.59 6.449-5.004 6.12-5.399 5.774-5.769 5.399-6.125 5.004-6.45 4.586-6.75 4.156-7.027 3.707-7.273 3.242-7.492 2.766-7.68 2.277-7.84 1.777-7.965 1.278-8.062.77-8.129zm0 0" fill="pink" fill-opacity=".4" stroke-width=".075" stroke-linecap="round" stroke-linejoin="round" stroke="red" stroke-opacity=".4" stroke-miterlimit="10"/><path d="M282.387 186.969l-.188-5.985-.562-5.96-.938-5.91-1.304-5.844-1.672-5.75-2.028-5.63-2.379-5.495-2.714-5.333-3.047-5.152-3.368-4.953-3.667-4.73-3.957-4.489-4.235-4.234-4.492-3.957-4.727-3.672-4.953-3.363-5.152-3.047-5.332-2.719-5.496-2.375-5.633-2.031-5.746-1.668-5.844-1.305-5.914-.937-5.957-.563-5.984-.187-5.985.187-5.957.563-5.914.937-5.84 1.305-5.75 1.668-5.632 2.031-5.493 2.375-5.336 2.719-5.152 3.047-4.95 3.363-4.73 3.672-4.492 3.957-4.23 4.234-3.961 4.489-3.668 4.73-3.367 4.953-3.047 5.153-2.715 5.332-2.379 5.496-2.027 5.629-1.672 5.75-1.305 5.843-.937 5.91-.563 5.961-.187 5.985.187 5.98.563 5.961.937 5.914 1.305 5.84 1.672 5.75 2.027 5.633 2.379 5.492 2.715 5.336 3.047 5.152 3.367 4.95 3.668 4.73 3.96 4.488 4.231 4.235 4.492 3.96 4.73 3.669 4.95 3.363 5.152 3.047 5.336 2.719 5.493 2.378 5.632 2.028 5.75 1.668 5.84 1.308 5.914.934 5.957.562 5.985.192 5.984-.192 5.957-.562 5.914-.934 5.844-1.308 5.746-1.668 5.633-2.028 5.496-2.378 5.332-2.72 5.152-3.046 4.953-3.363 4.727-3.668 4.492-3.961 4.234-4.235 3.958-4.488 3.668-4.73 3.367-4.95 3.047-5.152 2.714-5.336 2.38-5.492 2.027-5.633 1.672-5.75 1.304-5.84.938-5.914.562-5.96zm0 0" fill="pink" fill-opacity=".4" stroke-width=".075" stroke-linecap="round" stroke-linejoin="round" stroke="red" stroke-opacity=".4" stroke-miterlimit="10"/><path d="M351.688 186.969l-.325-10.336-.972-10.293-1.618-10.215-2.257-10.09-2.883-9.93-3.504-9.726-4.106-9.492-4.695-9.211-5.262-8.903-5.812-8.55-6.336-8.168-6.84-7.758-7.308-7.313-7.758-6.836-8.172-6.336L275.29 48l-8.9-5.266-9.214-4.691-9.488-4.11-9.727-3.5-9.93-2.886-10.094-2.254-10.21-1.617-10.293-.973-10.336-.328-10.336.328-10.293.973-10.211 1.617-10.094 2.254-9.926 2.887-9.73 3.5-9.488 4.109-9.215 4.691L98.906 48l-8.55 5.813-8.172 6.335-7.754 6.836-7.313 7.313-6.84 7.758-6.336 8.168-5.812 8.55-5.262 8.903-4.695 9.21-4.106 9.493-3.504 9.726-2.882 9.93-2.258 10.09-1.617 10.215-.973 10.293-.324 10.336.324 10.332.973 10.297 1.617 10.21 2.258 10.09 2.883 9.93 3.503 9.73 4.106 9.489 4.695 9.21 5.262 8.903 5.812 8.55 6.336 8.173 6.84 7.754 7.313 7.312 7.754 6.836 8.171 6.34 8.551 5.809 8.899 5.265 9.215 4.696 9.488 4.105 9.73 3.504 9.926 2.883 10.094 2.254 10.21 1.62 10.294.973 10.336.325 10.336-.325 10.293-.972 10.21-1.621 10.094-2.254 9.93-2.883 9.726-3.504 9.489-4.105 9.215-4.696 8.898-5.265 8.55-5.809 8.173-6.34 7.758-6.836 7.308-7.312 6.84-7.754 6.336-8.172 5.812-8.55 5.262-8.903 4.695-9.211 4.106-9.488 3.504-9.73 2.883-9.93 2.257-10.09 1.618-10.211.972-10.297zm0 0" fill="pink" fill-opacity=".4" stroke-width=".075" stroke-linecap="round" stroke-linejoin="round" stroke="red" stroke-opacity=".4" stroke-miterlimit="10"/><path d="M247.738 186.969l-.12-3.809-.36-3.793-.594-3.762-.832-3.718-1.062-3.657-1.293-3.585-1.512-3.497-1.73-3.394-1.938-3.277-2.14-3.153-2.337-3.008-2.52-2.859-2.69-2.695-2.86-2.516-3.008-2.336-3.152-2.14-3.278-1.942-3.394-1.726-3.496-1.516-3.586-1.29-3.656-1.062-3.72-.832-3.76-.593-3.794-.36-3.808-.12-3.809.12-3.793.36-3.762.593-3.714.832-3.66 1.063-3.587 1.289-3.496 1.516-3.39 1.726-3.282 1.942-3.148 2.14-3.012 2.336-2.855 2.516-2.695 2.695-2.52 2.86-2.336 3.007-2.14 3.153-1.938 3.277-1.73 3.394-1.512 3.497-1.293 3.585-1.063 3.657-.828 3.718-.597 3.762-.36 3.793-.117 3.809.117 3.804.36 3.793.597 3.762.828 3.719 1.063 3.66 1.293 3.582 1.511 3.496 1.73 3.395 1.938 3.277 2.141 3.152 2.336 3.012 2.52 2.856 2.695 2.695 2.855 2.52 3.012 2.331 3.148 2.141 3.282 1.941 3.39 1.73 3.496 1.513 3.586 1.289 3.66 1.062 3.715.832 3.762.598 3.793.355 3.809.121 3.808-.12 3.793-.356 3.762-.598 3.719-.832 3.656-1.062 3.586-1.29 3.496-1.511 3.394-1.73 3.278-1.942 3.152-2.14 3.008-2.333 2.86-2.52 2.69-2.694 2.52-2.856 2.336-3.012 2.14-3.152 1.938-3.277 1.73-3.395 1.513-3.496 1.293-3.582 1.062-3.66.832-3.719.594-3.762.36-3.793zm0 0" fill="pink" fill-opacity=".4" stroke-width=".075" stroke-linecap="round" stroke-linejoin="round" stroke="red" stroke-opacity=".4" stroke-miterlimit="10"/><path d="M230.41 186.969l-.086-2.723-.254-2.707-.425-2.687-.594-2.657-.758-2.613-.922-2.559-1.082-2.5-1.234-2.421-1.387-2.344-1.527-2.25-1.668-2.149-1.801-2.043-1.926-1.921-2.039-1.801-2.148-1.668-2.254-1.528-2.34-1.386-2.426-1.235-2.496-1.082-2.559-.922-2.613-.757-2.656-.594-2.688-.426-2.71-.258-2.72-.086-2.718.086-2.711.258-2.688.426-2.652.594-2.613.757-2.563.922-2.496 1.082-2.426 1.235-2.34 1.386-2.25 1.528-2.152 1.668-2.039 1.8-1.926 1.922-1.8 2.043-1.664 2.149-1.532 2.25-1.386 2.344-1.235 2.421-1.078 2.5-.922 2.559-.761 2.613-.594 2.657-.426 2.687-.254 2.707-.086 2.723.086 2.719.254 2.707.426 2.687.594 2.656.761 2.614.922 2.558 1.078 2.5 1.235 2.422 1.386 2.344 1.532 2.25 1.664 2.148 1.8 2.043 1.926 1.926 2.04 1.797 2.152 1.668 2.25 1.531 2.34 1.383 2.425 1.234 2.496 1.082 2.563.922 2.613.758 2.652.594 2.688.425 2.71.258 2.72.086 2.718-.086 2.711-.257 2.688-.426 2.656-.594 2.613-.758 2.559-.922 2.496-1.082 2.426-1.234 2.34-1.383 2.254-1.531 2.148-1.668 2.04-1.797 1.925-1.926 1.8-2.043 1.669-2.148 1.527-2.25 1.387-2.344 1.234-2.422 1.082-2.5.922-2.558.758-2.614.594-2.656.425-2.687.254-2.708zm0 0" fill="pink" fill-opacity=".4" stroke-width=".075" stroke-linecap="round" stroke-linejoin="round" stroke="red" stroke-opacity=".4" stroke-miterlimit="10"/><path d="M213.086 186.969l-.05-1.633-.153-1.625-.258-1.613-.355-1.594-.458-1.566-.55-1.54-.649-1.496-.742-1.453-.832-1.406-.918-1.352-1-1.289-1.078-1.226-1.156-1.153-1.223-1.082-1.289-1-1.352-.918-1.406-.828-1.453-.742-1.5-.648-1.535-.555-1.566-.453-1.594-.356-1.614-.257-1.625-.153-1.632-.05-1.633.05-1.625.153-1.613.257-1.59.356-1.57.453-1.536.555-1.5.648-1.453.742-1.406.828-1.348.918-1.293 1-1.222 1.082-1.157 1.153-1.078 1.226-1 1.29-.918 1.351-.832 1.406-.742 1.453-.648 1.496-.551 1.54-.457 1.566-.356 1.594-.254 1.613-.156 1.625-.05 1.633.05 1.629.156 1.625.254 1.613.356 1.594.457 1.566.55 1.54.649 1.495.742 1.457.832 1.403.918 1.351 1 1.29 1.078 1.226 1.157 1.152 1.222 1.082 1.293 1 1.348.918 1.406.832 1.453.738 1.5.649 1.535.555 1.57.453 1.59.36 1.614.253 1.625.152 1.633.055 1.632-.055 1.625-.152 1.614-.254 1.594-.36 1.566-.452 1.535-.555 1.5-.649 1.453-.738 1.406-.832 1.352-.918 1.29-1 1.222-1.082 1.156-1.152 1.078-1.227 1-1.289.918-1.351.832-1.403.742-1.457.649-1.496.55-1.539.458-1.566.355-1.594.258-1.613.152-1.625zm0 0" fill="pink" fill-opacity=".4" stroke-width=".075" stroke-linecap="round" stroke-linejoin="round" stroke="red" stroke-opacity=".4" stroke-miterlimit="10"/></svg>