<svg xmlns="http://www.w3.org/2000/svg" xmlns:xlink="http://www.w3.org/1999/xlink" width="600" height="600" viewBox="0 0 450 450"><defs><symbol overflow="visible" id="d"><path d="M3.25-8.39c1.082 0 1.867.449 2.36 1.343.374.688.562 1.637.562 2.844 0 1.137-.172 2.078-.516 2.828C5.164-.301 4.36.235 3.234.235c-1 0-1.75-.438-2.25-1.313C.578-1.816.375-2.801.375-4.031c0-.946.125-1.766.375-2.453.457-1.27 1.29-1.907 2.5-1.907zM3.234-.735c.551 0 .989-.239 1.313-.72.32-.487.484-1.394.484-2.718 0-.945-.12-1.726-.36-2.344-.23-.613-.683-.921-1.359-.921-.624 0-1.085.292-1.374.875-.282.585-.422 1.445-.422 2.578 0 .855.093 1.543.28 2.062.282.793.759 1.188 1.438 1.188zm0 0"/></symbol><symbol overflow="visible" id="e"><path d="M1.031-1.281H2.25V0H1.031zm0 0"/></symbol><symbol overflow="visible" id="f"><path d="M.375 0c.04-.719.191-1.344.453-1.875.258-.54.766-1.031 1.516-1.469L3.469-4c.5-.29.851-.54 1.062-.75.32-.32.485-.691.485-1.11 0-.488-.153-.874-.454-1.156-.292-.289-.68-.437-1.156-.437-.73 0-1.23.273-1.5.812-.156.305-.242.711-.25 1.22H.578c.008-.727.145-1.321.406-1.782.457-.813 1.266-1.219 2.422-1.219.957 0 1.656.262 2.094.781.445.524.672 1.102.672 1.735 0 .668-.234 1.242-.703 1.718-.274.282-.762.622-1.469 1.016l-.813.438a5.12 5.12 0 00-.89.609c-.399.336-.649.71-.75 1.125H6.14v1zm0 0"/></symbol><symbol overflow="visible" id="g"><path d="M3.969-2.969V-6.78L1.28-2.97zM3.984 0v-2.047H.313v-1.031l3.843-5.344h.89v5.453h1.235v.922H5.047V0zm0 0"/></symbol><symbol overflow="visible" id="h"><path d="M3.516-8.422c.937 0 1.586.246 1.953.735.375.48.562.98.562 1.5H4.984c-.062-.333-.164-.594-.296-.782C4.425-7.32 4.038-7.5 3.53-7.5c-.594 0-1.07.277-1.422.828-.343.543-.53 1.32-.562 2.328.238-.351.539-.617.906-.797a2.61 2.61 0 011.125-.234c.707 0 1.32.227 1.844.672.52.45.781 1.121.781 2.016 0 .761-.25 1.437-.75 2.03-.492.587-1.195.876-2.11.876-.792 0-1.476-.297-2.046-.89-.563-.602-.844-1.61-.844-3.016 0-1.04.125-1.926.375-2.657.488-1.383 1.383-2.078 2.688-2.078zM3.437-.719c.551 0 .961-.187 1.235-.562.281-.375.422-.817.422-1.328a2.21 2.21 0 00-.375-1.22c-.242-.382-.688-.577-1.344-.577-.45 0-.844.152-1.188.453-.343.293-.515.742-.515 1.344 0 .53.156.98.469 1.343.312.368.742.547 1.296.547zm0 0"/></symbol><symbol overflow="visible" id="i"><path d="M3.266-4.875c.468 0 .832-.129 1.093-.39.258-.258.391-.567.391-.923 0-.312-.125-.597-.375-.859-.25-.27-.633-.406-1.14-.406-.512 0-.883.137-1.11.406-.23.262-.344.563-.344.906 0 .399.145.711.438.938.3.219.648.328 1.047.328zm.062 4.156c.488 0 .895-.129 1.219-.39.32-.27.484-.664.484-1.188 0-.539-.168-.953-.5-1.234-.336-.281-.761-.422-1.281-.422-.5 0-.914.148-1.234.437-.313.282-.47.68-.47 1.188 0 .437.145.82.438 1.14.29.313.739.47 1.344.47zm-1.5-3.75c-.293-.125-.523-.27-.687-.437C.836-5.22.687-5.625.687-6.125c0-.625.223-1.16.672-1.61.457-.456 1.098-.687 1.922-.687.813 0 1.442.215 1.89.64.458.43.688.923.688 1.485 0 .524-.132.95-.39 1.281-.149.18-.375.356-.688.532.344.156.614.34.813.546.375.399.562.907.562 1.532 0 .742-.25 1.367-.75 1.875-.492.511-1.187.765-2.093.765-.825 0-1.516-.218-2.079-.656C.672-.867.391-1.516.391-2.359c0-.489.117-.914.359-1.282.238-.363.598-.64 1.078-.828zm0 0"/></symbol><symbol overflow="visible" id="j"><path d="M1.156-5.938v-.812c.758-.07 1.285-.195 1.578-.375.301-.176.532-.586.688-1.234h.828V0H3.125v-5.938zm0 0"/></symbol><symbol overflow="visible" id="r"><path d="M4.156-4.969c.489 0 .867-.066 1.14-.203.427-.219.641-.601.641-1.156 0-.563-.23-.942-.687-1.14-.25-.114-.633-.173-1.14-.173H2.03v2.672zM4.546-1c.708 0 1.22-.207 1.532-.625.188-.258.281-.57.281-.938 0-.624-.28-1.05-.843-1.28-.293-.126-.684-.188-1.172-.188H2.03V-1zM.892-8.61h3.687c1.008 0 1.727.305 2.156.907.25.355.375.766.375 1.234 0 .543-.156.985-.468 1.328-.157.188-.387.356-.688.5.438.168.766.36.984.579.395.375.594.89.594 1.546 0 .555-.18 1.055-.531 1.5C6.477-.336 5.656 0 4.531 0H.891zm0 0"/></symbol><symbol overflow="visible" id="s"><path d="M.781-6.25h1.063V0H.78zm0-2.36h1.063v1.204H.78zm0 0"/></symbol><symbol overflow="visible" id="t"><path d="M.797-6.281h1.015v1.093c.07-.218.27-.476.594-.78.32-.302.692-.454 1.11-.454.02 0 .05.008.093.016.051 0 .133.008.25.015v1.11c-.062-.008-.12-.016-.171-.016h-.172c-.532 0-.946.172-1.235.516A1.77 1.77 0 001.86-3.61V0H.797zm0 0"/></symbol><symbol overflow="visible" id="u"><path d="M.984-8.031h1.063v1.75h1v.86h-1v4.109c0 .218.078.367.234.437.07.043.207.063.406.063h.157c.062-.008.129-.016.203-.016V0a2.21 2.21 0 01-.375.063c-.125.019-.266.03-.422.03-.492 0-.824-.124-1-.374-.18-.25-.266-.578-.266-.985v-4.156H.141v-.86h.843zm0 0"/></symbol><symbol overflow="visible" id="v"><path d="M.781-8.64h1.047v3.218c.25-.32.473-.547.672-.672.344-.218.77-.328 1.281-.328.906 0 1.52.32 1.844.953.176.344.266.824.266 1.438V0H4.812v-3.953c0-.457-.062-.797-.187-1.016-.188-.343-.547-.515-1.078-.515-.438 0-.836.152-1.188.453-.355.304-.53.87-.53 1.703V0H.78zm0 0"/></symbol><symbol overflow="visible" id="k"><path d="M-8.39-3.25c0-1.082.449-1.867 1.343-2.36.688-.374 1.637-.562 2.844-.562 1.137 0 2.078.172 2.828.516C-.301-5.164.235-4.36.235-3.234c0 1-.438 1.75-1.313 2.25-.738.406-1.723.609-2.953.609-.946 0-1.766-.125-2.453-.375-1.27-.457-1.907-1.29-1.907-2.5zm7.656.016c0-.551-.239-.989-.72-1.313-.487-.32-1.394-.484-2.718-.484-.945 0-1.726.12-2.344.36-.613.23-.921.683-.921 1.359 0 .624.292 1.085.875 1.374.585.282 1.445.422 2.578.422.855 0 1.543-.093 2.062-.28.793-.282 1.188-.759 1.188-1.438zm0 0"/></symbol><symbol overflow="visible" id="l"><path d="M-1.281-1.031V-2.25H0v1.219zm0 0"/></symbol><symbol overflow="visible" id="m"><path d="M0-.375c-.719-.04-1.344-.191-1.875-.453-.54-.258-1.031-.766-1.469-1.516L-4-3.469c-.29-.5-.54-.851-.75-1.062-.32-.32-.691-.485-1.11-.485-.488 0-.874.153-1.156.454-.289.292-.437.68-.437 1.156 0 .73.273 1.23.812 1.5.305.156.711.242 1.22.25v1.078c-.727-.008-1.321-.145-1.782-.406-.813-.457-1.219-1.266-1.219-2.422 0-.957.262-1.656.781-2.094.524-.445 1.102-.672 1.735-.672.668 0 1.242.234 1.718.703.282.274.622.762 1.016 1.469l.438.813c.21.374.414.671.609.89.336.399.71.649 1.125.75V-6.14h1zm0 0"/></symbol><symbol overflow="visible" id="n"><path d="M-2.969-3.969H-6.78L-2.97-1.28zM0-3.984h-2.047v3.671h-1.031l-5.344-3.843v-.89h5.453v-1.235h.922v1.234H0zm0 0"/></symbol><symbol overflow="visible" id="o"><path d="M-8.422-3.516c0-.937.246-1.586.735-1.953.48-.375.98-.562 1.5-.562v1.047c-.333.062-.594.164-.782.296-.351.262-.531.649-.531 1.157 0 .594.277 1.07.828 1.422.543.343 1.32.53 2.328.562a2.306 2.306 0 01-.797-.906 2.61 2.61 0 01-.234-1.125c0-.707.227-1.32.672-1.844.45-.52 1.121-.781 2.016-.781.761 0 1.437.25 2.03.75.587.492.876 1.195.876 2.11 0 .792-.297 1.476-.89 2.046-.602.563-1.61.844-3.016.844-1.04 0-1.926-.125-2.657-.375-1.383-.488-2.078-1.383-2.078-2.688zm7.703.079c0-.551-.187-.961-.562-1.235-.375-.281-.817-.422-1.328-.422a2.21 2.21 0 00-1.22.375c-.382.242-.577.688-.577 1.344 0 .45.152.844.453 1.188.293.343.742.515 1.344.515.53 0 .98-.156 1.343-.469.368-.312.547-.742.547-1.296zm0 0"/></symbol><symbol overflow="visible" id="p"><path d="M-4.875-3.266c0-.468-.129-.832-.39-1.093a1.265 1.265 0 00-.923-.391c-.312 0-.597.125-.859.375-.27.25-.406.633-.406 1.14 0 .512.137.883.406 1.11.262.23.563.344.906.344.399 0 .711-.145.938-.438.219-.3.328-.648.328-1.047zm4.156-.062c0-.488-.129-.895-.39-1.219-.27-.32-.664-.484-1.188-.484-.539 0-.953.168-1.234.5-.281.336-.422.761-.422 1.281 0 .5.148.914.437 1.234.282.313.68.47 1.188.47.437 0 .82-.145 1.14-.438.313-.29.47-.739.47-1.344zm-3.75 1.5c-.125.293-.27.523-.437.687-.313.305-.719.454-1.219.454-.625 0-1.16-.223-1.61-.672-.456-.457-.687-1.098-.687-1.922 0-.813.215-1.442.64-1.89.43-.458.923-.688 1.485-.688.524 0 .95.132 1.281.39.18.149.356.375.532.688.156-.344.34-.614.546-.813.399-.375.907-.562 1.532-.562.742 0 1.367.25 1.875.75.511.492.765 1.187.765 2.093 0 .825-.218 1.516-.656 2.079-.445.562-1.094.843-1.937.843-.489 0-.914-.117-1.282-.359-.363-.238-.64-.598-.828-1.078zm0 0"/></symbol><symbol overflow="visible" id="q"><path d="M-5.938-1.156h-.812c-.07-.758-.195-1.285-.375-1.578-.176-.301-.586-.532-1.234-.688v-.828H0v1.125h-5.938zm0 0"/></symbol><symbol overflow="visible" id="w"><path d="M-1-4.219c0-.394-.04-.718-.125-.968-.145-.458-.438-.833-.875-1.125-.344-.227-.785-.391-1.328-.485a4.925 4.925 0 00-.906-.094c-1.07 0-1.899.215-2.485.641-.593.418-.89 1.102-.89 2.047v2.062H-1zm-7.61 3.25v-3.484c0-1.188.422-2.102 1.266-2.75.75-.582 1.719-.875 2.907-.875.917 0 1.746.172 2.484.515C-.648-6.957 0-5.913 0-4.438v3.47zm0 0"/></symbol><symbol overflow="visible" id="x"><path d="M-6.422-3.39c0-.446.106-.88.313-1.297.21-.415.48-.735.812-.954a3.036 3.036 0 011.11-.421c.292-.063.757-.094 1.39-.094v4.61c.637-.02 1.149-.173 1.531-.454.387-.281.579-.719.579-1.313 0-.55-.18-.988-.547-1.312a1.904 1.904 0 00-.735-.406v-1.032c.23.024.485.11.766.266.281.156.516.328.703.516.313.324.52.726.625 1.203.063.25.094.539.094.86 0 .78-.281 1.445-.844 1.984-.57.543-1.367.812-2.39.812-1.008 0-1.829-.27-2.454-.812-.633-.551-.953-1.27-.953-2.157zm2.781-1.672c-.457.042-.82.14-1.093.296-.508.282-.766.762-.766 1.438 0 .492.18.902.531 1.234.344.324.79.496 1.328.516zm-2.78 1.78zm0 0"/></symbol><symbol overflow="visible" id="y"><path d="M-1.672-1.578c.305 0 .543-.11.719-.328.18-.227.265-.492.265-.797 0-.375-.082-.735-.25-1.078-.289-.594-.757-.89-1.406-.89h-.844c.075.136.141.308.204.515.054.199.09.398.109.593l.078.626c.055.386.137.68.25.874.18.325.469.485.875.485zm-2.125-2.563c-.031-.238-.133-.398-.312-.484a1.077 1.077 0 00-.407-.063c-.351 0-.609.133-.765.391-.164.25-.25.61-.25 1.078 0 .555.148.946.437 1.172.168.137.414.227.735.266v.984c-.77-.02-1.305-.27-1.61-.75-.3-.488-.453-1.05-.453-1.687 0-.739.14-1.336.422-1.797.281-.457.719-.688 1.313-.688h3.609c.105 0 .195-.02.266-.062.062-.051.093-.149.093-.297v-.14c-.008-.063-.02-.13-.031-.204h.781c.04.168.067.297.078.39.02.087.032.2.032.345 0 .367-.133.625-.391.78-.133.095-.328.157-.578.188.281.219.527.532.734.938.207.398.313.836.313 1.312 0 .586-.18 1.063-.531 1.438-.352.367-.797.547-1.329.547-.582 0-1.035-.18-1.359-.547-.32-.364-.52-.836-.594-1.422zm-2.625.875zm0 0"/></symbol><symbol overflow="visible" id="z"><path d="M-8.031-.984v-1.063h1.75v-1h.86v1h4.109c.218 0 .367-.078.437-.234.043-.07.063-.207.063-.406v-.157a1.591 1.591 0 01-.016-.203H0c.031.117.05.242.063.375.019.125.03.266.03.422 0 .492-.124.824-.374 1-.25.18-.578.266-.985.266h-4.156v.843h-.86v-.843zm0 0"/></symbol><symbol overflow="visible" id="A"><path d="M-8.64-.781v-1.047h3.218c-.32-.25-.547-.473-.672-.672-.218-.344-.328-.77-.328-1.281 0-.906.32-1.52.953-1.844.344-.176.824-.266 1.438-.266H0v1.079h-3.953c-.457 0-.797.062-1.016.187-.343.188-.515.547-.515 1.078 0 .438.152.836.453 1.188.304.355.87.53 1.703.53H0V-.78zm0 0"/></symbol><symbol overflow="visible" id="B"><path d="M5.781-5.89c0-.446-.12-.766-.36-.954-.241-.195-.57-.297-.984-.297H2.75v2.547h1.688c.414 0 .742-.101.984-.312.238-.207.36-.535.36-.985zm1.782-.016c0 1.023-.262 1.746-.782 2.172-.511.418-1.246.625-2.203.625H2.75V0H.953v-8.64H4.72c.863 0 1.55.226 2.062.671.52.45.782 1.137.782 2.063zm0 0"/></symbol><symbol overflow="visible" id="C"><path d="M3.297-5.188c-.387 0-.688.125-.906.375-.211.243-.34.57-.391.985h2.594c-.032-.445-.168-.785-.407-1.016a1.258 1.258 0 00-.89-.343zm0-1.375c.531 0 1.008.106 1.437.313.426.2.782.512 1.063.938.25.375.41.812.484 1.312.04.293.055.715.047 1.266H1.953c.031.648.234 1.093.61 1.343.226.168.503.25.828.25.343 0 .625-.097.843-.296.114-.102.22-.25.313-.438H6.25c-.043.375-.242.762-.594 1.156-.554.625-1.32.938-2.297.938a3.258 3.258 0 01-2.156-.781C.586-1.095.281-1.946.281-3.126c0-1.102.274-1.953.828-2.547.563-.594 1.29-.89 2.188-.89zm.125 0zm0 0"/></symbol><symbol overflow="visible" id="D"><path d="M4.25-6.547c.031 0 .055.008.078.016h.14v1.718c-.105-.007-.198-.015-.28-.015-.086-.008-.153-.016-.204-.016-.668 0-1.117.219-1.343.657-.137.242-.204.62-.204 1.14V0H.766v-6.39h1.593v1.109c.258-.414.485-.703.672-.86.313-.27.719-.406 1.219-.406zm0 0"/></symbol><symbol overflow="visible" id="E"><path d="M2.078-2.047c.04.305.117.516.235.64.207.22.585.329 1.14.329.332 0 .594-.047.781-.14.196-.095.297-.239.297-.438a.498.498 0 00-.234-.438c-.156-.094-.734-.258-1.734-.5-.731-.176-1.243-.398-1.532-.672-.304-.257-.453-.64-.453-1.14 0-.594.227-1.098.688-1.516.468-.426 1.125-.64 1.968-.64.79 0 1.438.164 1.938.484.508.312.8.86.875 1.64H4.375c-.023-.218-.086-.39-.188-.515-.18-.227-.492-.344-.937-.344-.367 0-.625.059-.781.172-.149.117-.219.25-.219.406 0 .188.078.324.234.407.164.093.75.25 1.75.468.664.156 1.16.39 1.485.703.332.325.5.727.5 1.204 0 .636-.235 1.156-.703 1.562-.47.395-1.2.594-2.188.594-1 0-1.742-.215-2.219-.64-.48-.427-.718-.97-.718-1.626zM3.36-6.562zm0 0"/></symbol><symbol overflow="visible" id="F"><path d="M2.5-7.156H.797v-1.532H2.5zm-1.703.765H2.5V0H.797zm0 0"/></symbol><symbol overflow="visible" id="G"><path d="M.125-5.14v-1.188h.89V-8.11h1.657v1.78h1.031v1.188H2.672v3.375c0 .262.031.43.094.5.062.063.265.094.609.094h.156c.063-.008.117-.016.172-.016v1.25l-.797.032c-.781.02-1.32-.117-1.61-.422-.187-.188-.28-.477-.28-.875v-3.938zm0 0"/></symbol><symbol overflow="visible" id="H"><path d="M4.313-6.547c.664 0 1.207.18 1.625.531.414.344.625.918.625 1.72V0H4.859v-3.89c0-.333-.046-.587-.14-.766-.157-.332-.469-.5-.938-.5-.562 0-.949.242-1.156.718-.117.262-.172.59-.172.985V0H.797v-6.375h1.61v.938c.206-.333.41-.57.609-.72.343-.257.773-.39 1.296-.39zm-.61-.016zm0 0"/></symbol><symbol overflow="visible" id="I"><path d="M4.594-4.094a1.49 1.49 0 00-.235-.64c-.187-.258-.48-.391-.875-.391-.562 0-.949.277-1.156.828-.117.305-.172.7-.172 1.188 0 .468.055.851.172 1.14.195.532.57.797 1.125.797.383 0 .66-.101.828-.312.164-.22.266-.493.297-.829h1.703a2.643 2.643 0 01-.547 1.438C5.211-.145 4.438.219 3.406.219c-1.023 0-1.777-.301-2.265-.906C.66-1.301.42-2.095.42-3.063c0-1.102.267-1.958.798-2.563.531-.613 1.27-.922 2.218-.922.801 0 1.458.184 1.97.547.507.355.812.992.905 1.906zM3.469-6.562zm0 0"/></symbol><symbol overflow="visible" id="K"><path d="M2.672-7.14v5.64h1.656c.852 0 1.445-.422 1.781-1.266.188-.457.282-1.004.282-1.64 0-.875-.141-1.547-.422-2.016-.274-.476-.82-.719-1.64-.719zm1.969-1.5c.53.011.972.074 1.328.187.601.2 1.093.562 1.468 1.094.301.437.504.906.61 1.406.113.5.172.976.172 1.422 0 1.148-.23 2.12-.688 2.922C6.906-.535 5.941 0 4.641 0H.92v-8.64zm0 0"/></symbol><symbol overflow="visible" id="L"><path d="M4.297-3.11c-.106.075-.211.133-.313.172-.105.032-.25.07-.437.11l-.375.062c-.356.063-.61.141-.766.235a.765.765 0 00-.39.703c0 .293.078.5.234.625a.954.954 0 00.594.187c.351 0 .68-.101.984-.312.3-.207.457-.594.469-1.156zM3.28-3.89c.313-.032.535-.079.672-.141.238-.102.36-.258.36-.469 0-.27-.094-.453-.282-.547-.18-.101-.445-.156-.797-.156-.398 0-.68.101-.843.297a1.249 1.249 0 00-.235.593H.546c.04-.562.196-1.023.47-1.39.445-.563 1.207-.844 2.28-.844.696 0 1.317.14 1.86.422.54.281.813.809.813 1.578v2.922c0 .21.004.453.015.734.008.22.04.371.094.454a.738.738 0 00.25.187V0H4.516a1.504 1.504 0 01-.11-.36 2.612 2.612 0 01-.047-.39c-.23.25-.496.465-.796.64a2.378 2.378 0 01-1.22.313C1.77.203 1.29.035.907-.297c-.375-.332-.562-.8-.562-1.406 0-.781.3-1.348.906-1.703.332-.188.82-.32 1.469-.406zm.094-2.672zm0 0"/></symbol><symbol overflow="visible" id="M"><path d="M3.516-1.375c.394 0 .726-.145 1-.438.27-.289.406-.757.406-1.406 0-.601-.133-1.062-.39-1.375-.25-.32-.595-.484-1.032-.484-.586 0-.984.277-1.203.828-.125.293-.188.652-.188 1.078 0 .375.063.703.188.985.226.542.633.812 1.219.812zm-.407-5.172c.32 0 .598.055.829.156.406.168.734.477.984.922v-.922h1.625v6.063c0 .82-.137 1.441-.406 1.86-.48.718-1.399 1.077-2.75 1.077-.813 0-1.48-.164-2-.484C.879 1.812.598 1.335.547.703h1.812c.04.188.114.328.22.422.187.145.491.219.921.219.594 0 .992-.2 1.203-.594.133-.262.203-.7.203-1.313v-.406c-.168.274-.34.477-.515.61-.336.261-.766.39-1.297.39-.824 0-1.48-.285-1.969-.86C.633-1.41.391-2.19.391-3.171c0-.945.234-1.742.703-2.39.476-.657 1.148-.985 2.015-.985zm.532-.016zm0 0"/></symbol><symbol overflow="visible" id="N"><path d="M7.922-6.531c.281 0 .555.058.828.172.27.105.52.293.75.562.176.23.297.508.36.828.038.219.062.532.062.938L9.906 0H8.187v-4.063c0-.25-.039-.453-.109-.609-.148-.289-.422-.437-.828-.437-.46 0-.777.195-.953.578-.086.199-.125.445-.125.734V0H4.484v-3.797c0-.383-.043-.66-.125-.828-.136-.313-.406-.469-.812-.469-.48 0-.805.157-.969.469-.094.18-.14.438-.14.781V0H.75v-6.375h1.625v.938c.207-.333.398-.57.578-.72.332-.25.754-.374 1.266-.374.488 0 .883.11 1.187.328.239.2.422.453.547.766.219-.375.488-.649.813-.829a2.496 2.496 0 011.156-.265zm0 0"/></symbol><clipPath id="c"><path d="M59.04 59.04h361.718V377H59.039zm0 0"/></clipPath></defs><path fill="#fff" d="M0 0h450v450H0z"/><use xlink:href="#a" x="237.73" y="431.281"/><use xlink:href="#b" x="12.961" y="219.469"/><path d="M75.102 70.8c0 3.598-5.403 3.598-5.403 0 0-3.6 5.403-3.6 5.403 0M75.102 136.89c0 3.602-5.403 3.602-5.403 0 0-3.597 5.403-3.597 5.403 0" fill="#1e90ff"/><path d="M75.102 136.89c0 3.602-5.403 3.602-5.403 0 0-3.597 5.403-3.597 5.403 0M75.102 151.863c0 3.598-5.403 3.598-5.403 0 0-3.601 5.403-3.601 5.403 0" fill="#1e90ff"/><path d="M75.102 151.863c0 3.598-5.403 3.598-5.403 0 0-3.601 5.403-3.601 5.403 0M75.102 160.95c0 3.6-5.403 3.6-5.403 0 0-3.598 5.403-3.598 5.403 0" fill="#1e90ff"/><path d="M75.102 160.95c0 3.6-5.403 3.6-5.403 0 0-3.598 5.403-3.598 5.403 0M75.102 213.082c0 3.602-5.403 3.602-5.403 0 0-3.598 5.403-3.598 5.403 0" fill="#1e90ff"/><path d="M75.102 213.082c0 3.602-5.403 3.602-5.403 0 0-3.598 5.403-3.598 5.403 0" fill="#1e90ff"/><path d="M75.102 213.082c0 3.602-5.403 3.602-5.403 0 0-3.598 5.403-3.598 5.403 0" fill="#1e90ff"/><path d="M75.102 213.082c0 3.602-5.403 3.602-5.403 0 0-3.598 5.403-3.598 5.403 0" fill="#1e90ff"/><path d="M75.102 213.082c0 3.602-5.403 3.602-5.403 0 0-3.598 5.403-3.598 5.403 0" fill="#1e90ff"/><path d="M75.102 213.082c0 3.602-5.403 3.602-5.403 0 0-3.598 5.403-3.598 5.403 0" fill="#1e90ff"/><path d="M75.102 213.082c0 3.602-5.403 3.602-5.403 0 0-3.598 5.403-3.598 5.403 0" fill="#1e90ff"/><path d="M75.102 213.082c0 3.602-5.403 3.602-5.403 0 0-3.598 5.403-3.598 5.403 0" fill="#1e90ff"/><path d="M75.102 213.082c0 3.602-5.403 3.602-5.403 0 0-3.598 5.403-3.598 5.403 0" fill="#1e90ff"/><path d="M75.102 213.082c0 3.602-5.403 3.602-5.403 0 0-3.598 5.403-3.598 5.403 0" fill="#1e90ff"/><path d="M75.102 213.082c0 3.602-5.403 3.602-5.403 0 0-3.598 5.403-3.598 5.403 0" fill="#1e90ff"/><path d="M75.102 213.082c0 3.602-5.403 3.602-5.403 0 0-3.598 5.403-3.598 5.403 0" fill="#1e90ff"/><path d="M75.102 213.082c0 3.602-5.403 3.602-5.403 0 0-3.598 5.403-3.598 5.403 0" fill="#1e90ff"/><path d="M75.102 213.082c0 3.602-5.403 3.602-5.403 0 0-3.598 5.403-3.598 5.403 0" fill="#1e90ff"/><path d="M75.102 213.082c0 3.602-5.403 3.602-5.403 0 0-3.598 5.403-3.598 5.403 0" fill="#1e90ff"/><path d="M75.102 213.082c0 3.602-5.403 3.602-5.403 0 0-3.598 5.403-3.598 5.403 0M75.102 234.32c0 3.602-5.403 3.602-5.403 0 0-3.601 5.403-3.601 5.403 0" fill="#1e90ff"/><path d="M75.102 234.32c0 3.602-5.403 3.602-5.403 0 0-3.601 5.403-3.601 5.403 0M75.102 243.328c0 3.598-5.403 3.598-5.403 0 0-3.601 5.403-3.601 5.403 0" fill="#1e90ff"/><path d="M75.102 243.328c0 3.598-5.403 3.598-5.403 0 0-3.601 5.403-3.601 5.403 0" fill="#1e90ff"/><path d="M75.102 243.328c0 3.598-5.403 3.598-5.403 0 0-3.601 5.403-3.601 5.403 0" fill="#1e90ff"/><path d="M75.102 243.328c0 3.598-5.403 3.598-5.403 0 0-3.601 5.403-3.601 5.403 0" fill="#1e90ff"/><path d="M75.102 243.328c0 3.598-5.403 3.598-5.403 0 0-3.601 5.403-3.601 5.403 0" fill="#1e90ff"/><path d="M75.102 243.328c0 3.598-5.403 3.598-5.403 0 0-3.601 5.403-3.601 5.403 0" fill="#1e90ff"/><path d="M75.102 243.328c0 3.598-5.403 3.598-5.403 0 0-3.601 5.403-3.601 5.403 0" fill="#1e90ff"/><path d="M75.102 243.328c0 3.598-5.403 3.598-5.403 0 0-3.601 5.403-3.601 5.403 0" fill="#1e90ff"/><path d="M75.102 243.328c0 3.598-5.403 3.598-5.403 0 0-3.601 5.403-3.601 5.403 0" fill="#1e90ff"/><path d="M75.102 243.328c0 3.598-5.403 3.598-5.403 0 0-3.601 5.403-3.601 5.403 0" fill="#1e90ff"/><path d="M75.102 243.328c0 3.598-5.403 3.598-5.403 0 0-3.601 5.403-3.601 5.403 0" fill="#1e90ff"/><path d="M75.102 243.328c0 3.598-5.403 3.598-5.403 0 0-3.601 5.403-3.601 5.403 0" fill="#1e90ff"/><path d="M75.102 243.328c0 3.598-5.403 3.598-5.403 0 0-3.601 5.403-3.601 5.403 0" fill="#1e90ff"/><path d="M75.102 243.328c0 3.598-5.403 3.598-5.403 0 0-3.601 5.403-3.601 5.403 0" fill="#1e90ff"/><path d="M75.102 243.328c0 3.598-5.403 3.598-5.403 0 0-3.601 5.403-3.601 5.403 0" fill="#1e90ff"/><path d="M75.102 243.328c0 3.598-5.403 3.598-5.403 0 0-3.601 5.403-3.601 5.403 0M75.102 277.719c0 3.597-5.403 3.597-5.403 0 0-3.602 5.403-3.602 5.403 0" fill="#1e90ff"/><path d="M75.102 277.719c0 3.597-5.403 3.597-5.403 0 0-3.602 5.403-3.602 5.403 0" fill="#1e90ff"/><path d="M75.102 277.719c0 3.597-5.403 3.597-5.403 0 0-3.602 5.403-3.602 5.403 0" fill="#1e90ff"/><path d="M75.102 277.719c0 3.597-5.403 3.597-5.403 0 0-3.602 5.403-3.602 5.403 0" fill="#1e90ff"/><path d="M75.102 277.719c0 3.597-5.403 3.597-5.403 0 0-3.602 5.403-3.602 5.403 0" fill="#1e90ff"/><path d="M75.102 277.719c0 3.597-5.403 3.597-5.403 0 0-3.602 5.403-3.602 5.403 0" fill="#1e90ff"/><path d="M75.102 277.719c0 3.597-5.403 3.597-5.403 0 0-3.602 5.403-3.602 5.403 0" fill="#1e90ff"/><path d="M75.102 277.719c0 3.597-5.403 3.597-5.403 0 0-3.602 5.403-3.602 5.403 0" fill="#1e90ff"/><path d="M75.102 277.719c0 3.597-5.403 3.597-5.403 0 0-3.602 5.403-3.602 5.403 0" fill="#1e90ff"/><path d="M75.102 277.719c0 3.597-5.403 3.597-5.403 0 0-3.602 5.403-3.602 5.403 0" fill="#1e90ff"/><path d="M75.102 277.719c0 3.597-5.403 3.597-5.403 0 0-3.602 5.403-3.602 5.403 0" fill="#1e90ff"/><path d="M75.102 277.719c0 3.597-5.403 3.597-5.403 0 0-3.602 5.403-3.602 5.403 0" fill="#1e90ff"/><path d="M75.102 277.719c0 3.597-5.403 3.597-5.403 0 0-3.602 5.403-3.602 5.403 0" fill="#1e90ff"/><path d="M75.102 277.719c0 3.597-5.403 3.597-5.403 0 0-3.602 5.403-3.602 5.403 0" fill="#1e90ff"/><path d="M75.102 277.719c0 3.597-5.403 3.597-5.403 0 0-3.602 5.403-3.602 5.403 0" fill="#1e90ff"/><path d="M75.102 277.719c0 3.597-5.403 3.597-5.403 0 0-3.602 5.403-3.602 5.403 0M75.102 352.855c0 3.602-5.403 3.602-5.403 0 0-3.597 5.403-3.597 5.403 0" fill="#1e90ff"/><path d="M75.102 352.855c0 3.602-5.403 3.602-5.403 0 0-3.597 5.403-3.597 5.403 0" fill="#1e90ff"/><path d="M75.102 352.855c0 3.602-5.403 3.602-5.403 0 0-3.597 5.403-3.597 5.403 0" fill="#1e90ff"/><path d="M75.102 352.855c0 3.602-5.403 3.602-5.403 0 0-3.597 5.403-3.597 5.403 0" fill="#1e90ff"/><path d="M75.102 352.855c0 3.602-5.403 3.602-5.403 0 0-3.597 5.403-3.597 5.403 0" fill="#1e90ff"/><path d="M75.102 352.855c0 3.602-5.403 3.602-5.403 0 0-3.597 5.403-3.597 5.403 0" fill="#1e90ff"/><path d="M75.102 352.855c0 3.602-5.403 3.602-5.403 0 0-3.597 5.403-3.597 5.403 0" fill="#1e90ff"/><path d="M75.102 352.855c0 3.602-5.403 3.602-5.403 0 0-3.597 5.403-3.597 5.403 0" fill="#1e90ff"/><path d="M75.102 358.64c0 3.602-5.403 3.602-5.403 0 0-3.597 5.403-3.597 5.403 0" fill="#1e90ff"/><path d="M75.102 358.64c0 3.602-5.403 3.602-5.403 0 0-3.597 5.403-3.597 5.403 0" fill="#1e90ff"/><path d="M75.102 358.64c0 3.602-5.403 3.602-5.403 0 0-3.597 5.403-3.597 5.403 0" fill="#1e90ff"/><path d="M75.102 358.64c0 3.602-5.403 3.602-5.403 0 0-3.597 5.403-3.597 5.403 0" fill="#1e90ff"/><path d="M75.102 358.64c0 3.602-5.403 3.602-5.403 0 0-3.597 5.403-3.597 5.403 0" fill="#1e90ff"/><path d="M75.102 358.64c0 3.602-5.403 3.602-5.403 0 0-3.597 5.403-3.597 5.403 0" fill="#1e90ff"/><path d="M75.102 358.64c0 3.602-5.403 3.602-5.403 0 0-3.597 5.403-3.597 5.403 0" fill="#1e90ff"/><path d="M75.102 358.64c0 3.602-5.403 3.602-5.403 0 0-3.597 5.403-3.597 5.403 0" fill="#1e90ff"/><path d="M75.102 358.64c0 3.602-5.403 3.602-5.403 0 0-3.597 5.403-3.597 5.403 0" fill="#1e90ff"/><path d="M75.102 364.8c0 3.598-5.403 3.598-5.403 0 0-3.6 5.403-3.6 5.403 0" fill="#1e90ff"/><path d="M75.102 364.8c0 3.598-5.403 3.598-5.403 0 0-3.6 5.403-3.6 5.403 0" fill="#1e90ff"/><path d="M75.102 364.8c0 3.598-5.403 3.598-5.403 0 0-3.6 5.403-3.6 5.403 0" fill="#1e90ff"/><path d="M75.102 364.8c0 3.598-5.403 3.598-5.403 0 0-3.6 5.403-3.6 5.403 0" fill="#1e90ff"/><path d="M75.102 364.8c0 3.598-5.403 3.598-5.403 0 0-3.6 5.403-3.6 5.403 0" fill="#1e90ff"/><path d="M75.102 364.8c0 3.598-5.403 3.598-5.403 0 0-3.6 5.403-3.6 5.403 0" fill="#1e90ff"/><path d="M75.102 364.8c0 3.598-5.403 3.598-5.403 0 0-3.6 5.403-3.6 5.403 0" fill="#1e90ff"/><path d="M75.102 364.8c0 3.598-5.403 3.598-5.403 0 0-3.6 5.403-3.6 5.403 0" fill="#1e90ff"/><path d="M75.102 364.8c0 3.598-5.403 3.598-5.403 0 0-3.6 5.403-3.6 5.403 0" fill="#1e90ff"/><path d="M75.102 364.8c0 3.598-5.403 3.598-5.403 0 0-3.6 5.403-3.6 5.403 0" fill="#1e90ff"/><path d="M75.102 364.8c0 3.598-5.403 3.598-5.403 0 0-3.6 5.403-3.6 5.403 0" fill="#1e90ff"/><path d="M75.102 364.8c0 3.598-5.403 3.598-5.403 0 0-3.6 5.403-3.6 5.403 0" fill="#1e90ff"/><path d="M75.102 364.8c0 3.598-5.403 3.598-5.403 0 0-3.6 5.403-3.6 5.403 0" fill="#1e90ff"/><path d="M75.102 364.8c0 3.598-5.403 3.598-5.403 0 0-3.6 5.403-3.6 5.403 0" fill="#1e90ff"/><path d="M75.102 364.8c0 3.598-5.403 3.598-5.403 0 0-3.6 5.403-3.6 5.403 0" fill="#1e90ff"/><path d="M75.102 364.8c0 3.598-5.403 3.598-5.403 0 0-3.6 5.403-3.6 5.403 0" fill="#1e90ff"/><path d="M75.102 364.8c0 3.598-5.403 3.598-5.403 0 0-3.6 5.403-3.6 5.403 0" fill="#1e90ff"/><path d="M244.758 118.621l3.637 6.297h-7.274l3.637-6.297" fill="none" stroke-width="1.5" stroke-linecap="round" stroke-linejoin="round" stroke="#cd2626" stroke-miterlimit="10"/><path d="M244.758 118.621l3.637 6.297h-7.274l3.637-6.297M210.402 156.75l3.633 6.3h-7.27l3.637-6.3" fill="none" stroke-width="1.5" stroke-linecap="round" stroke-linejoin="round" stroke="#cd2626" stroke-miterlimit="10"/><path d="M210.402 156.75l3.633 6.3h-7.27l3.637-6.3M171.332 226.195l3.633 6.297h-7.27l3.637-6.297" fill="none" stroke-width="1.5" stroke-linecap="round" stroke-linejoin="round" stroke="#cd2626" stroke-miterlimit="10"/><path d="M171.332 226.195l3.633 6.297h-7.27l3.637-6.297M331.316 95.324l3.637 6.297h-7.273l3.636-6.297" fill="none" stroke-width="1.5" stroke-linecap="round" stroke-linejoin="round" stroke="#cd2626" stroke-miterlimit="10"/><path d="M331.316 95.324l3.637 6.297h-7.273l3.636-6.297" fill="none" stroke-width="1.5" stroke-linecap="round" stroke-linejoin="round" stroke="#cd2626" stroke-miterlimit="10"/><path d="M331.316 95.324l3.637 6.297h-7.273l3.636-6.297" fill="none" stroke-width="1.5" stroke-linecap="round" stroke-linejoin="round" stroke="#cd2626" stroke-miterlimit="10"/><path d="M331.316 95.324l3.637 6.297h-7.273l3.636-6.297" fill="none" stroke-width="1.5" stroke-linecap="round" stroke-linejoin="round" stroke="#cd2626" stroke-miterlimit="10"/><path d="M331.316 95.324l3.637 6.297h-7.273l3.636-6.297" fill="none" stroke-width="1.5" stroke-linecap="round" stroke-linejoin="round" stroke="#cd2626" stroke-miterlimit="10"/><path d="M331.316 95.324l3.637 6.297h-7.273l3.636-6.297" fill="none" stroke-width="1.5" stroke-linecap="round" stroke-linejoin="round" stroke="#cd2626" stroke-miterlimit="10"/><path d="M331.316 95.324l3.637 6.297h-7.273l3.636-6.297" fill="none" stroke-width="1.5" stroke-linecap="round" stroke-linejoin="round" stroke="#cd2626" stroke-miterlimit="10"/><path d="M331.316 95.324l3.637 6.297h-7.273l3.636-6.297" fill="none" stroke-width="1.5" stroke-linecap="round" stroke-linejoin="round" stroke="#cd2626" stroke-miterlimit="10"/><path d="M331.316 95.324l3.637 6.297h-7.273l3.636-6.297" fill="none" stroke-width="1.5" stroke-linecap="round" stroke-linejoin="round" stroke="#cd2626" stroke-miterlimit="10"/><path d="M331.316 95.324l3.637 6.297h-7.273l3.636-6.297" fill="none" stroke-width="1.5" stroke-linecap="round" stroke-linejoin="round" stroke="#cd2626" stroke-miterlimit="10"/><path d="M331.316 95.324l3.637 6.297h-7.273l3.636-6.297" fill="none" stroke-width="1.5" stroke-linecap="round" stroke-linejoin="round" stroke="#cd2626" stroke-miterlimit="10"/><path d="M331.316 95.324l3.637 6.297h-7.273l3.636-6.297" fill="none" stroke-width="1.5" stroke-linecap="round" stroke-linejoin="round" stroke="#cd2626" stroke-miterlimit="10"/><path d="M331.316 95.324l3.637 6.297h-7.273l3.636-6.297" fill="none" stroke-width="1.5" stroke-linecap="round" stroke-linejoin="round" stroke="#cd2626" stroke-miterlimit="10"/><path d="M331.316 95.324l3.637 6.297h-7.273l3.636-6.297" fill="none" stroke-width="1.5" stroke-linecap="round" stroke-linejoin="round" stroke="#cd2626" stroke-miterlimit="10"/><path d="M331.316 95.324l3.637 6.297h-7.273l3.636-6.297" fill="none" stroke-width="1.5" stroke-linecap="round" stroke-linejoin="round" stroke="#cd2626" stroke-miterlimit="10"/><path d="M331.316 95.324l3.637 6.297h-7.273l3.636-6.297M314.309 118.621l3.636 6.297h-7.273l3.637-6.297" fill="none" stroke-width="1.5" stroke-linecap="round" stroke-linejoin="round" stroke="#cd2626" stroke-miterlimit="10"/><path d="M314.309 118.621l3.636 6.297h-7.273l3.637-6.297" fill="none" stroke-width="1.5" stroke-linecap="round" stroke-linejoin="round" stroke="#cd2626" stroke-miterlimit="10"/><path d="M314.309 118.621l3.636 6.297h-7.273l3.637-6.297" fill="none" stroke-width="1.5" stroke-linecap="round" stroke-linejoin="round" stroke="#cd2626" stroke-miterlimit="10"/><path d="M314.309 118.621l3.636 6.297h-7.273l3.637-6.297" fill="none" stroke-width="1.5" stroke-linecap="round" stroke-linejoin="round" stroke="#cd2626" stroke-miterlimit="10"/><path d="M314.309 118.621l3.636 6.297h-7.273l3.637-6.297" fill="none" stroke-width="1.5" stroke-linecap="round" stroke-linejoin="round" stroke="#cd2626" stroke-miterlimit="10"/><path d="M314.309 118.621l3.636 6.297h-7.273l3.637-6.297" fill="none" stroke-width="1.5" stroke-linecap="round" stroke-linejoin="round" stroke="#cd2626" stroke-miterlimit="10"/><path d="M314.309 118.621l3.636 6.297h-7.273l3.637-6.297" fill="none" stroke-width="1.5" stroke-linecap="round" stroke-linejoin="round" stroke="#cd2626" stroke-miterlimit="10"/><path d="M314.309 118.621l3.636 6.297h-7.273l3.637-6.297" fill="none" stroke-width="1.5" stroke-linecap="round" stroke-linejoin="round" stroke="#cd2626" stroke-miterlimit="10"/><path d="M314.309 118.621l3.636 6.297h-7.273l3.637-6.297" fill="none" stroke-width="1.5" stroke-linecap="round" stroke-linejoin="round" stroke="#cd2626" stroke-miterlimit="10"/><path d="M314.309 118.621l3.636 6.297h-7.273l3.637-6.297" fill="none" stroke-width="1.5" stroke-linecap="round" stroke-linejoin="round" stroke="#cd2626" stroke-miterlimit="10"/><path d="M314.309 118.621l3.636 6.297h-7.273l3.637-6.297" fill="none" stroke-width="1.5" stroke-linecap="round" stroke-linejoin="round" stroke="#cd2626" stroke-miterlimit="10"/><path d="M314.309 118.621l3.636 6.297h-7.273l3.637-6.297" fill="none" stroke-width="1.5" stroke-linecap="round" stroke-linejoin="round" stroke="#cd2626" stroke-miterlimit="10"/><path d="M314.309 118.621l3.636 6.297h-7.273l3.637-6.297" fill="none" stroke-width="1.5" stroke-linecap="round" stroke-linejoin="round" stroke="#cd2626" stroke-miterlimit="10"/><path d="M314.309 118.621l3.636 6.297h-7.273l3.637-6.297" fill="none" stroke-width="1.5" stroke-linecap="round" stroke-linejoin="round" stroke="#cd2626" stroke-miterlimit="10"/><path d="M314.309 118.621l3.636 6.297h-7.273l3.637-6.297" fill="none" stroke-width="1.5" stroke-linecap="round" stroke-linejoin="round" stroke="#cd2626" stroke-miterlimit="10"/><path d="M314.309 118.621l3.636 6.297h-7.273l3.637-6.297M85.969 330.36l3.636 6.296h-7.273l3.637-6.297M220.633 226.195l3.637 6.297h-7.274l3.637-6.297" fill="none" stroke-width="1.5" stroke-linecap="round" stroke-linejoin="round" stroke="#cd2626" stroke-miterlimit="10"/><path d="M220.633 226.195l3.637 6.297h-7.274l3.637-6.297" fill="none" stroke-width="1.5" stroke-linecap="round" stroke-linejoin="round" stroke="#cd2626" stroke-miterlimit="10"/><path d="M220.633 226.195l3.637 6.297h-7.274l3.637-6.297" fill="none" stroke-width="1.5" stroke-linecap="round" stroke-linejoin="round" stroke="#cd2626" stroke-miterlimit="10"/><path d="M220.633 226.195l3.637 6.297h-7.274l3.637-6.297" fill="none" stroke-width="1.5" stroke-linecap="round" stroke-linejoin="round" stroke="#cd2626" stroke-miterlimit="10"/><path d="M220.633 226.195l3.637 6.297h-7.274l3.637-6.297" fill="none" stroke-width="1.5" stroke-linecap="round" stroke-linejoin="round" stroke="#cd2626" stroke-miterlimit="10"/><path d="M220.633 226.195l3.637 6.297h-7.274l3.637-6.297" fill="none" stroke-width="1.5" stroke-linecap="round" stroke-linejoin="round" stroke="#cd2626" stroke-miterlimit="10"/><path d="M220.633 226.195l3.637 6.297h-7.274l3.637-6.297" fill="none" stroke-width="1.5" stroke-linecap="round" stroke-linejoin="round" stroke="#cd2626" stroke-miterlimit="10"/><path d="M220.633 226.195l3.637 6.297h-7.274l3.637-6.297" fill="none" stroke-width="1.5" stroke-linecap="round" stroke-linejoin="round" stroke="#cd2626" stroke-miterlimit="10"/><path d="M220.633 226.195l3.637 6.297h-7.274l3.637-6.297" fill="none" stroke-width="1.5" stroke-linecap="round" stroke-linejoin="round" stroke="#cd2626" stroke-miterlimit="10"/><path d="M220.633 226.195l3.637 6.297h-7.274l3.637-6.297" fill="none" stroke-width="1.5" stroke-linecap="round" stroke-linejoin="round" stroke="#cd2626" stroke-miterlimit="10"/><path d="M220.633 226.195l3.637 6.297h-7.274l3.637-6.297" fill="none" stroke-width="1.5" stroke-linecap="round" stroke-linejoin="round" stroke="#cd2626" stroke-miterlimit="10"/><path d="M220.633 226.195l3.637 6.297h-7.274l3.637-6.297" fill="none" stroke-width="1.5" stroke-linecap="round" stroke-linejoin="round" stroke="#cd2626" stroke-miterlimit="10"/><path d="M220.633 226.195l3.637 6.297h-7.274l3.637-6.297" fill="none" stroke-width="1.5" stroke-linecap="round" stroke-linejoin="round" stroke="#cd2626" stroke-miterlimit="10"/><path d="M220.633 226.195l3.637 6.297h-7.274l3.637-6.297" fill="none" stroke-width="1.5" stroke-linecap="round" stroke-linejoin="round" stroke="#cd2626" stroke-miterlimit="10"/><path d="M220.633 226.195l3.637 6.297h-7.274l3.637-6.297" fill="none" stroke-width="1.5" stroke-linecap="round" stroke-linejoin="round" stroke="#cd2626" stroke-miterlimit="10"/><path d="M220.633 226.195l3.637 6.297h-7.274l3.637-6.297M85.969 347.164l3.636 6.297h-7.273l3.637-6.297" fill="none" stroke-width="1.5" stroke-linecap="round" stroke-linejoin="round" stroke="#cd2626" stroke-miterlimit="10"/><path d="M85.969 347.164l3.636 6.297h-7.273l3.637-6.297" fill="none" stroke-width="1.5" stroke-linecap="round" stroke-linejoin="round" stroke="#cd2626" stroke-miterlimit="10"/><path d="M85.969 347.164l3.636 6.297h-7.273l3.637-6.297" fill="none" stroke-width="1.5" stroke-linecap="round" stroke-linejoin="round" stroke="#cd2626" stroke-miterlimit="10"/><path d="M85.969 347.164l3.636 6.297h-7.273l3.637-6.297" fill="none" stroke-width="1.5" stroke-linecap="round" stroke-linejoin="round" stroke="#cd2626" stroke-miterlimit="10"/><path d="M85.969 347.164l3.636 6.297h-7.273l3.637-6.297" fill="none" stroke-width="1.5" stroke-linecap="round" stroke-linejoin="round" stroke="#cd2626" stroke-miterlimit="10"/><path d="M85.969 347.164l3.636 6.297h-7.273l3.637-6.297" fill="none" stroke-width="1.5" stroke-linecap="round" stroke-linejoin="round" stroke="#cd2626" stroke-miterlimit="10"/><path d="M85.969 347.164l3.636 6.297h-7.273l3.637-6.297" fill="none" stroke-width="1.5" stroke-linecap="round" stroke-linejoin="round" stroke="#cd2626" stroke-miterlimit="10"/><path d="M85.969 347.164l3.636 6.297h-7.273l3.637-6.297" fill="none" stroke-width="1.5" stroke-linecap="round" stroke-linejoin="round" stroke="#cd2626" stroke-miterlimit="10"/><path d="M85.969 347.164l3.636 6.297h-7.273l3.637-6.297M72.398 360.602l3.637 6.296h-7.27l3.633-6.296" fill="none" stroke-width="1.5" stroke-linecap="round" stroke-linejoin="round" stroke="#cd2626" stroke-miterlimit="10"/><path d="M369.95 70.8l3.82-3.82 3.816 3.82-3.816 3.817-3.82-3.816" fill="none" stroke-width="1.5" stroke-linecap="round" stroke-linejoin="round" stroke="#0f0" stroke-miterlimit="10"/><path d="M369.95 70.8l3.82-3.82 3.816 3.82-3.816 3.817-3.82-3.816M102.941 330.41l3.817-3.82 3.82 3.82-3.82 3.817-3.817-3.817" fill="none" stroke-width="1.5" stroke-linecap="round" stroke-linejoin="round" stroke="#0f0" stroke-miterlimit="10"/><path d="M102.941 330.41l3.817-3.82 3.82 3.82-3.82 3.817-3.817-3.817" fill="none" stroke-width="1.5" stroke-linecap="round" stroke-linejoin="round" stroke="#0f0" stroke-miterlimit="10"/><path d="M102.941 333.938l3.817-3.82 3.82 3.82-3.82 3.816-3.817-3.817" fill="none" stroke-width="1.5" stroke-linecap="round" stroke-linejoin="round" stroke="#0f0" stroke-miterlimit="10"/><path d="M102.941 333.938l3.817-3.82 3.82 3.82-3.82 3.816-3.817-3.817" fill="none" stroke-width="1.5" stroke-linecap="round" stroke-linejoin="round" stroke="#0f0" stroke-miterlimit="10"/><path d="M102.941 333.938l3.817-3.82 3.82 3.82-3.82 3.816-3.817-3.817M68.582 364.8l3.816-3.82 3.82 3.82-3.82 3.817-3.816-3.816" fill="none" stroke-width="1.5" stroke-linecap="round" stroke-linejoin="round" stroke="#0f0" stroke-miterlimit="10"/><path d="M68.582 364.8l3.816-3.82 3.82 3.82-3.82 3.817-3.816-3.816" fill="none" stroke-width="1.5" stroke-linecap="round" stroke-linejoin="round" stroke="#0f0" stroke-miterlimit="10"/><g clip-path="url(#c)"><path d="M59.04 376.559l360.722-317.52" fill="none" stroke-width=".75" stroke-linecap="round" stroke-linejoin="round" stroke="#000" stroke-miterlimit="10"/></g><path d="M72.398 376.559h334M72.398 376.559v7.203M139.2 376.559v7.203M206 376.559v7.203M272.8 376.559v7.203M339.602 376.559v7.203M406.398 376.559v7.203" fill="none" stroke-width=".75" stroke-linecap="round" stroke-linejoin="round" stroke="#000" stroke-miterlimit="10"/><use xlink:href="#d" x="64.059" y="402.48"/><use xlink:href="#e" x="70.732" y="402.48"/><use xlink:href="#d" x="74.066" y="402.48"/><use xlink:href="#d" x="130.859" y="402.48"/><use xlink:href="#e" x="137.533" y="402.48"/><use xlink:href="#f" x="140.867" y="402.48"/><use xlink:href="#d" x="197.66" y="402.48"/><use xlink:href="#e" x="204.334" y="402.48"/><use xlink:href="#g" x="207.668" y="402.48"/><use xlink:href="#d" x="264.461" y="402.48"/><use xlink:href="#e" x="271.135" y="402.48"/><use xlink:href="#h" x="274.469" y="402.48"/><use xlink:href="#d" x="331.262" y="402.48"/><use xlink:href="#e" x="337.936" y="402.48"/><use xlink:href="#i" x="341.27" y="402.48"/><use xlink:href="#j" x="398.059" y="402.48"/><use xlink:href="#e" x="404.732" y="402.48"/><use xlink:href="#d" x="408.066" y="402.48"/><path d="M59.04 364.8v-294M59.04 364.8h-7.2M59.04 306h-7.2M59.04 247.2h-7.2M59.04 188.398h-7.2M59.04 129.602h-7.2M59.04 70.8h-7.2" fill="none" stroke-width=".75" stroke-linecap="round" stroke-linejoin="round" stroke="#000" stroke-miterlimit="10"/><g><use xlink:href="#k" x="41.762" y="373.141"/><use xlink:href="#l" x="41.762" y="366.467"/><use xlink:href="#k" x="41.762" y="363.133"/></g><g><use xlink:href="#k" x="41.762" y="314.34"/><use xlink:href="#l" x="41.762" y="307.666"/><use xlink:href="#m" x="41.762" y="304.332"/></g><g><use xlink:href="#k" x="41.762" y="255.539"/><use xlink:href="#l" x="41.762" y="248.865"/><use xlink:href="#n" x="41.762" y="245.531"/></g><g><use xlink:href="#k" x="41.762" y="196.738"/><use xlink:href="#l" x="41.762" y="190.064"/><use xlink:href="#o" x="41.762" y="186.73"/></g><g><use xlink:href="#k" x="41.762" y="137.941"/><use xlink:href="#l" x="41.762" y="131.268"/><use xlink:href="#p" x="41.762" y="127.934"/></g><g><use xlink:href="#q" x="41.762" y="79.141"/><use xlink:href="#l" x="41.762" y="72.467"/><use xlink:href="#k" x="41.762" y="69.133"/></g><g><use xlink:href="#r" x="227.063" y="419.762"/><use xlink:href="#s" x="235.066" y="419.762"/><use xlink:href="#t" x="237.732" y="419.762"/><use xlink:href="#u" x="241.729" y="419.762"/><use xlink:href="#v" x="245.063" y="419.762"/></g><g><use xlink:href="#w" x="24.48" y="233.813"/><use xlink:href="#x" x="24.48" y="225.146"/><use xlink:href="#y" x="24.48" y="218.473"/><use xlink:href="#z" x="24.48" y="211.799"/><use xlink:href="#A" x="24.48" y="208.465"/></g><g><use xlink:href="#B" x="180.035" y="51.84"/><use xlink:href="#C" x="188.039" y="51.84"/><use xlink:href="#D" x="194.713" y="51.84"/><use xlink:href="#E" x="199.383" y="51.84"/><use xlink:href="#F" x="206.057" y="51.84"/><use xlink:href="#E" x="209.391" y="51.84"/><use xlink:href="#G" x="216.064" y="51.84"/><use xlink:href="#C" x="220.061" y="51.84"/><use xlink:href="#H" x="226.734" y="51.84"/><use xlink:href="#I" x="234.064" y="51.84"/><use xlink:href="#C" x="240.738" y="51.84"/><use xlink:href="#J" x="247.412" y="51.84"/><use xlink:href="#K" x="250.746" y="51.84"/><use xlink:href="#F" x="259.412" y="51.84"/><use xlink:href="#L" x="262.746" y="51.84"/><use xlink:href="#M" x="269.42" y="51.84"/><use xlink:href="#D" x="276.75" y="51.84"/><use xlink:href="#L" x="281.42" y="51.84"/><use xlink:href="#N" x="288.094" y="51.84"/></g></svg>