<svg xmlns="http://www.w3.org/2000/svg" xmlns:xlink="http://www.w3.org/1999/xlink" width="374pt" height="374pt" viewBox="0 0 374 374"><defs><symbol overflow="visible" id="a"><path d="M3.25-8.39c1.082 0 1.867.449 2.36 1.343.374.688.562 1.637.562 2.844 0 1.137-.172 2.078-.516 2.828C5.164-.301 4.36.235 3.234.235c-1 0-1.75-.438-2.25-1.313C.578-1.816.375-2.801.375-4.031c0-.946.125-1.766.375-2.453.457-1.27 1.29-1.907 2.5-1.907zM3.234-.735c.551 0 .989-.239 1.313-.72.32-.487.484-1.394.484-2.718 0-.945-.12-1.726-.36-2.344-.23-.613-.683-.921-1.359-.921-.624 0-1.085.292-1.374.875-.282.585-.422 1.445-.422 2.578 0 .855.093 1.543.28 2.062.282.793.759 1.188 1.438 1.188zm0 0"/></symbol><symbol overflow="visible" id="b"><path d="M1.031-1.281H2.25V0H1.031zm0 0"/></symbol><symbol overflow="visible" id="c"><path d="M.375 0c.04-.719.191-1.344.453-1.875.258-.54.766-1.031 1.516-1.469L3.469-4c.5-.29.851-.54 1.062-.75.32-.32.485-.691.485-1.11 0-.488-.153-.874-.454-1.156-.292-.289-.68-.437-1.156-.437-.73 0-1.23.273-1.5.812-.156.305-.242.711-.25 1.22H.578c.008-.727.145-1.321.406-1.782.457-.813 1.266-1.219 2.422-1.219.957 0 1.656.262 2.094.781.445.524.672 1.102.672 1.735 0 .668-.234 1.242-.703 1.718-.274.282-.762.622-1.469 1.016l-.813.438a5.12 5.12 0 00-.89.609c-.399.336-.649.71-.75 1.125H6.14v1zm0 0"/></symbol><symbol overflow="visible" id="d"><path d="M3.969-2.969V-6.78L1.28-2.97zM3.984 0v-2.047H.313v-1.031l3.843-5.344h.89v5.453h1.235v.922H5.047V0zm0 0"/></symbol><symbol overflow="visible" id="e"><path d="M3.516-8.422c.937 0 1.586.246 1.953.735.375.48.562.98.562 1.5H4.984c-.062-.333-.164-.594-.296-.782C4.425-7.32 4.038-7.5 3.53-7.5c-.594 0-1.07.277-1.422.828-.343.543-.53 1.32-.562 2.328.238-.351.539-.617.906-.797a2.61 2.61 0 011.125-.234c.707 0 1.32.227 1.844.672.52.45.781 1.121.781 2.016 0 .761-.25 1.437-.75 2.03-.492.587-1.195.876-2.11.876-.792 0-1.476-.297-2.046-.89-.563-.602-.844-1.61-.844-3.016 0-1.04.125-1.926.375-2.657.488-1.383 1.383-2.078 2.688-2.078zM3.437-.719c.551 0 .961-.187 1.235-.562.281-.375.422-.817.422-1.328a2.21 2.21 0 00-.375-1.22c-.242-.382-.688-.577-1.344-.577-.45 0-.844.152-1.188.453-.343.293-.515.742-.515 1.344 0 .53.156.98.469 1.343.312.368.742.547 1.296.547zm0 0"/></symbol><symbol overflow="visible" id="f"><path d="M3.266-4.875c.468 0 .832-.129 1.093-.39.258-.258.391-.567.391-.923 0-.312-.125-.597-.375-.859-.25-.27-.633-.406-1.14-.406-.512 0-.883.137-1.11.406-.23.262-.344.563-.344.906 0 .399.145.711.438.938.3.219.648.328 1.047.328zm.062 4.156c.488 0 .895-.129 1.219-.39.32-.27.484-.664.484-1.188 0-.539-.168-.953-.5-1.234-.336-.281-.761-.422-1.281-.422-.5 0-.914.148-1.234.437-.313.282-.47.68-.47 1.188 0 .437.145.82.438 1.14.29.313.739.47 1.344.47zm-1.5-3.75c-.293-.125-.523-.27-.687-.437C.836-5.22.687-5.625.687-6.125c0-.625.223-1.16.672-1.61.457-.456 1.098-.687 1.922-.687.813 0 1.442.215 1.89.64.458.43.688.923.688 1.485 0 .524-.132.95-.39 1.281-.149.18-.375.356-.688.532.344.156.614.34.813.546.375.399.562.907.562 1.532 0 .742-.25 1.367-.75 1.875-.492.511-1.187.765-2.093.765-.825 0-1.516-.218-2.079-.656C.672-.867.391-1.516.391-2.359c0-.489.117-.914.359-1.282.238-.363.598-.64 1.078-.828zm0 0"/></symbol><symbol overflow="visible" id="g"><path d="M1.156-5.938v-.812c.758-.07 1.285-.195 1.578-.375.301-.176.532-.586.688-1.234h.828V0H3.125v-5.938zm0 0"/></symbol><symbol overflow="visible" id="h"><path d="M.984-8.031h1.063v1.75h1v.86h-1v4.109c0 .218.078.367.234.437.07.043.207.063.406.063h.157c.062-.008.129-.016.203-.016V0a2.21 2.21 0 01-.375.063c-.125.019-.266.03-.422.03-.492 0-.824-.124-1-.374-.18-.25-.266-.578-.266-.985v-4.156H.141v-.86h.843zm0 0"/></symbol><symbol overflow="visible" id="i"><path d="M.781-6.25h1.063V0H.78zm0-2.36h1.063v1.204H.78zm0 0"/></symbol><symbol overflow="visible" id="j"><path d="M.781-6.281h1.031v.89c.25-.3.477-.523.688-.671.344-.239.738-.36 1.188-.36.5 0 .898.125 1.203.375.164.137.32.344.468.625.227-.344.5-.594.813-.75.32-.164.68-.25 1.078-.25.844 0 1.414.309 1.719.922.164.324.25.766.25 1.328V0H8.125v-4.36c0-.413-.105-.702-.313-.859a1.248 1.248 0 00-.765-.234c-.418 0-.777.14-1.078.422-.293.273-.438.73-.438 1.375V0H4.453v-4.094c0-.426-.055-.738-.156-.937-.156-.29-.453-.438-.89-.438-.4 0-.762.157-1.095.469-.324.305-.484.86-.484 1.672V0H.781zm0 0"/></symbol><symbol overflow="visible" id="k"><path d="M3.39-6.422c.446 0 .88.106 1.297.313.415.21.735.48.954.812.207.324.347.695.421 1.11.063.292.094.757.094 1.39h-4.61c.02.637.173 1.149.454 1.531.281.387.719.579 1.313.579.55 0 .988-.18 1.312-.547.188-.207.32-.454.406-.735h1.032c-.024.23-.11.485-.266.766A3.15 3.15 0 015.28-.5a2.46 2.46 0 01-1.203.625c-.25.063-.539.094-.86.094a2.646 2.646 0 01-1.984-.844c-.543-.57-.812-1.367-.812-2.39 0-1.008.27-1.829.812-2.454.551-.633 1.27-.953 2.157-.953zM5.063-3.64c-.042-.457-.14-.82-.296-1.093-.282-.508-.762-.766-1.438-.766-.492 0-.902.18-1.234.531-.324.344-.496.79-.516 1.328zm-1.78-2.78zm0 0"/></symbol><symbol overflow="visible" id="l"><path d="M4.625-4.703c0-.363-.102-.617-.297-.766-.187-.156-.45-.234-.781-.234H2.203v2.031h1.344c.332 0 .594-.082.781-.25.195-.164.297-.426.297-.781zm1.422-.016c0 .813-.211 1.39-.625 1.735-.406.336-.996.5-1.766.5H2.203V0H.766v-6.906h3c.695 0 1.25.18 1.656.531.414.355.625.906.625 1.656zm0 0"/></symbol><symbol overflow="visible" id="m"><path d="M2.64-4.14c-.312 0-.558.1-.734.296-.168.188-.273.45-.312.781h2.078c-.024-.351-.133-.617-.328-.796a.954.954 0 00-.703-.282zm0-1.094c.426 0 .805.078 1.141.234.344.156.625.406.844.75.195.305.328.656.39 1.063.032.23.048.562.048 1h-3.5c.019.511.18.87.484 1.078.187.136.41.203.672.203.27 0 .488-.078.656-.235.094-.093.176-.21.25-.359H5c-.043.305-.203.61-.484.922-.438.5-1.047.75-1.829.75A2.623 2.623 0 01.954-.453C.461-.88.22-1.563.22-2.5c0-.883.222-1.563.672-2.031.445-.469 1.03-.703 1.75-.703zm.094 0zm0 0"/></symbol><symbol overflow="visible" id="n"><path d="M3.39-5.234a.11.11 0 01.063.015h.125v1.375c-.086-.008-.164-.015-.234-.015-.063-.008-.117-.016-.156-.016-.532 0-.891.18-1.079.531-.105.2-.156.5-.156.906V0H.61v-5.11h1.282v.891c.195-.343.375-.57.53-.687.25-.219.571-.328.97-.328zm0 0"/></symbol><symbol overflow="visible" id="o"><path d="M1.656-1.625c.032.23.094.398.188.5.164.18.472.266.922.266.257 0 .468-.036.625-.11.156-.082.234-.203.234-.36a.397.397 0 00-.188-.343c-.124-.07-.59-.207-1.39-.406-.586-.133-.996-.313-1.235-.531-.23-.207-.343-.516-.343-.922 0-.469.18-.867.547-1.203.375-.344.894-.516 1.562-.516.633 0 1.149.133 1.547.39.406.25.64.688.703 1.313H3.5c-.023-.176-.074-.312-.156-.406-.149-.188-.399-.281-.75-.281-.281 0-.485.046-.61.14-.125.094-.187.2-.187.313 0 .156.062.273.187.344.133.074.598.195 1.391.359.531.125.93.32 1.203.578.258.25.39.57.39.953 0 .512-.187.93-.562 1.25-.375.313-.96.469-1.75.469-.804 0-1.398-.168-1.781-.5a1.68 1.68 0 01-.563-1.297zm1.032-3.61zm0 0"/></symbol><symbol overflow="visible" id="p"><path d="M2-5.719H.64v-1.234H2zm-1.36.61H2V0H.64zm0 0"/></symbol><symbol overflow="visible" id="q"><path d="M.094-4.11v-.952h.719v-1.422h1.312v1.421h.828v.954h-.828v2.703c0 .21.023.34.078.39.063.055.227.079.5.079h.125a.644.644 0 01.125-.016v1l-.625.015c-.637.032-1.07-.07-1.297-.312C.883-.406.813-.645.813-.969v-3.14zm0 0"/></symbol><symbol overflow="visible" id="r"><path d="M3.453-5.234c.531 0 .961.14 1.297.421.332.274.5.731.5 1.375V0H3.89v-3.11c0-.269-.038-.472-.109-.609-.136-.27-.386-.406-.75-.406-.46 0-.773.195-.937.578-.086.211-.125.469-.125.781V0H.625v-5.094h1.297v.735c.164-.258.328-.446.484-.563.27-.207.617-.312 1.047-.312zm-.5 0zm0 0"/></symbol><symbol overflow="visible" id="s"><path d="M3.672-3.281a1.209 1.209 0 00-.188-.516c-.156-.195-.39-.297-.703-.297-.449 0-.758.227-.922.672-.086.23-.125.543-.125.938 0 .375.04.68.125.906.157.43.457.64.907.64.312 0 .53-.082.656-.25a1.25 1.25 0 00.234-.656h1.375c-.031.407-.18.79-.437 1.14-.43.587-1.055.876-1.875.876C1.906.172 1.3-.066.906-.547.52-1.035.328-1.672.328-2.453c0-.875.211-1.555.64-2.047.427-.488 1.02-.734 1.782-.734.633 0 1.156.148 1.563.437.406.293.648.797.734 1.516zm-.906-1.953zm0 0"/></symbol><symbol overflow="visible" id="u"><path d="M2.125-5.703v1.516h1.703c.3 0 .547-.055.735-.172.187-.114.28-.313.28-.594 0-.32-.124-.535-.374-.64a2.6 2.6 0 00-.813-.11zm0 2.656v1.844h1.703c.3 0 .535-.04.703-.125.313-.145.469-.43.469-.86 0-.351-.152-.597-.453-.734-.168-.07-.402-.113-.703-.125zm1.984-3.86c.844.012 1.442.259 1.797.735.207.293.313.649.313 1.063 0 .418-.106.757-.313 1.015-.117.137-.293.266-.531.39.352.126.617.329.797.61.187.281.281.621.281 1.016 0 .406-.105.773-.312 1.094a2.055 2.055 0 01-.485.546c-.23.168-.496.282-.797.344A4.796 4.796 0 013.891 0H.75v-6.906zm0 0"/></symbol><symbol overflow="visible" id="v"><path d="M3.438-2.484a1.176 1.176 0 01-.266.125c-.086.03-.2.062-.344.093l-.297.063c-.281.055-.484.11-.61.172-.21.125-.312.32-.312.578 0 .23.063.398.188.5.133.094.289.14.469.14.289 0 .554-.082.796-.25.239-.164.364-.472.376-.921zm-.813-.625c.25-.032.426-.067.531-.11.188-.082.281-.21.281-.39 0-.207-.074-.348-.218-.422-.149-.082-.36-.125-.64-.125-.313 0-.532.078-.657.234a.987.987 0 00-.188.469H.438c.03-.445.156-.813.374-1.094.352-.457.958-.687 1.813-.687.563 0 1.063.117 1.5.343.438.22.656.637.656 1.25V-.703c.008.18.035.297.078.36.04.062.11.109.204.14V0H3.609a1.692 1.692 0 01-.093-.281 5.272 5.272 0 01-.032-.313c-.187.2-.402.367-.64.5-.281.164-.606.25-.969.25-.46 0-.84-.133-1.14-.39C.43-.492.28-.867.28-1.36c0-.625.239-1.079.719-1.36.27-.156.66-.265 1.172-.328zm.078-2.125zm0 0"/></symbol><symbol overflow="visible" id="w"><path d="M2.906-.938c.395 0 .696-.14.906-.421.208-.282.313-.676.313-1.188 0-.508-.105-.898-.313-1.172-.21-.281-.511-.422-.906-.422-.386 0-.683.141-.89.422-.211.274-.313.664-.313 1.172 0 .512.102.906.313 1.188.207.28.504.421.89.421zm2.625-1.609c0 .75-.218 1.39-.656 1.922-.43.531-1.078.797-1.953.797S1.39-.094.953-.625c-.43-.531-.64-1.172-.64-1.922 0-.738.21-1.375.64-1.906.438-.54 1.094-.813 1.969-.813s1.523.274 1.953.813c.438.531.656 1.168.656 1.906zm-2.61-2.687zm0 0"/></symbol><symbol overflow="visible" id="x"><path d="M2.5-5.234c.313 0 .586.074.828.218.238.137.438.325.594.563v-2.438h1.344V0H3.969v-.703c-.188.305-.406.523-.656.656-.243.133-.543.203-.907.203-.594 0-1.094-.238-1.5-.719C.5-1.038.296-1.66.296-2.421c0-.875.196-1.562.595-2.062.406-.5.941-.75 1.609-.75zM2.797-.97c.375 0 .66-.14.86-.422.195-.28.296-.644.296-1.093 0-.625-.156-1.067-.469-1.329-.199-.164-.421-.25-.671-.25-.399 0-.688.153-.876.454-.18.293-.265.656-.265 1.093 0 .47.094.844.281 1.125.188.282.469.422.844.422zm0 0"/></symbol></defs><path fill="#fff" d="M0 0h374v374H0z"/><path d="M59.04 300.559h284.722V59.039H59.039v241.52M69.586 300.559h263.629M69.586 300.559v7.203M122.313 300.559v7.203M175.035 300.559v7.203M227.762 300.559v7.203M280.488 300.559v7.203M333.215 300.559v7.203" fill="none" stroke-width=".75" stroke-linecap="round" stroke-linejoin="round" stroke="#000" stroke-miterlimit="10"/><use xlink:href="#a" x="61.246" y="326.48"/><use xlink:href="#b" x="67.92" y="326.48"/><use xlink:href="#a" x="71.254" y="326.48"/><use xlink:href="#a" x="113.973" y="326.48"/><use xlink:href="#b" x="120.646" y="326.48"/><use xlink:href="#c" x="123.98" y="326.48"/><use xlink:href="#a" x="166.695" y="326.48"/><use xlink:href="#b" x="173.369" y="326.48"/><use xlink:href="#d" x="176.703" y="326.48"/><use xlink:href="#a" x="219.422" y="326.48"/><use xlink:href="#b" x="226.096" y="326.48"/><use xlink:href="#e" x="229.43" y="326.48"/><use xlink:href="#a" x="272.148" y="326.48"/><use xlink:href="#b" x="278.822" y="326.48"/><use xlink:href="#f" x="282.156" y="326.48"/><use xlink:href="#g" x="324.875" y="326.48"/><use xlink:href="#b" x="331.549" y="326.48"/><use xlink:href="#a" x="334.883" y="326.48"/><use xlink:href="#h" x="190.063" y="343.762"/><use xlink:href="#i" x="193.396" y="343.762"/><use xlink:href="#j" x="196.063" y="343.762"/><use xlink:href="#k" x="206.059" y="343.762"/><path d="M69.586 281.45h263.629M69.586 271.285h86.031M69.586 261.121h67.238M69.586 250.953h65.348M69.586 240.79h60.84M69.586 230.625h60.727M69.586 220.46h60.156M69.586 210.297h54.672M69.586 200.129h52.566M69.586 189.965h49.867M69.586 179.8h47.14M69.586 169.637h46.289M69.586 159.469h45.16M69.586 149.305h44.59M69.586 139.14h44.547M69.586 128.977h43.324M69.586 118.809h41.59M69.586 108.645h40.906M69.586 98.48h40.129M69.586 88.316h18.016" fill="none" stroke-width="1.5" stroke-linecap="round" stroke-linejoin="round" stroke="#1e90ff" stroke-miterlimit="10"/><path d="M161.238 78.148h73" fill="none" stroke-width="1.5" stroke-linecap="round" stroke-linejoin="round" stroke="#cd2626" stroke-miterlimit="10"/><g><use xlink:href="#l" x="153.938" y="51.84"/><use xlink:href="#m" x="160.336" y="51.84"/><use xlink:href="#n" x="165.672" y="51.84"/><use xlink:href="#o" x="169.406" y="51.84"/><use xlink:href="#p" x="174.741" y="51.84"/><use xlink:href="#o" x="177.407" y="51.84"/><use xlink:href="#q" x="182.742" y="51.84"/><use xlink:href="#m" x="185.937" y="51.84"/><use xlink:href="#r" x="191.273" y="51.84"/><use xlink:href="#s" x="197.133" y="51.84"/><use xlink:href="#m" x="202.468" y="51.84"/><use xlink:href="#t" x="207.804" y="51.84"/><use xlink:href="#u" x="210.469" y="51.84"/><use xlink:href="#v" x="217.398" y="51.84"/><use xlink:href="#n" x="222.733" y="51.84"/><use xlink:href="#s" x="226.467" y="51.84"/><use xlink:href="#w" x="231.802" y="51.84"/><use xlink:href="#x" x="237.663" y="51.84"/><use xlink:href="#m" x="243.523" y="51.84"/></g></svg>