<svg xmlns="http://www.w3.org/2000/svg" width="374pt" height="374pt" viewBox="0 0 374 374"><path fill="#fff" d="M0 0h374v374H0z"/><path d="M360.367 158.848c0 2.402-3.597 2.402-3.597 0 0-2.399 3.597-2.399 3.597 0M309.73 126.156c0 2.399-3.597 2.399-3.597 0 0-2.402 3.597-2.402 3.597 0M319.207 77.352c0 2.398-3.598 2.398-3.598 0 0-2.403 3.598-2.403 3.598 0M302.363 24.36c0 2.402-3.597 2.402-3.597 0 0-2.4 3.597-2.4 3.597 0M244.055 42.137c0 2.398-3.602 2.398-3.602 0 0-2.403 3.602-2.403 3.602 0M203.035 20.504c0 2.402-3.601 2.402-3.601 0 0-2.399 3.601-2.399 3.601 0M150.895 13.852c0 2.398-3.598 2.398-3.598 0 0-2.399 3.598-2.399 3.598 0M116.156 52.023c0 2.399-3.597 2.399-3.597 0 0-2.398 3.597-2.398 3.597 0M102.977 98.496c0 2.402-3.598 2.402-3.598 0 0-2.398 3.598-2.398 3.598 0M124.797 143.879c0 2.402-3.602 2.402-3.602 0 0-2.399 3.602-2.399 3.602 0M17.23 191.766c0 2.402-3.597 2.402-3.597 0 0-2.399 3.597-2.399 3.597 0M110.234 215.273c0 2.399-3.601 2.399-3.601 0 0-2.398 3.601-2.398 3.601 0M121.984 259.344c0 2.402-3.597 2.402-3.597 0 0-2.399 3.597-2.399 3.597 0M142.39 323.242c0 2.399-3.6 2.399-3.6 0 0-2.402 3.6-2.402 3.6 0M200.988 321.91c0 2.402-3.601 2.402-3.601 0 0-2.398 3.601-2.398 3.601 0M265.473 360.148c0 2.399-3.598 2.399-3.598 0 0-2.398 3.598-2.398 3.598 0M318.508 318.047c0 2.398-3.602 2.398-3.602 0 0-2.399 3.602-2.399 3.602 0M292.172 219.305c0 2.398-3.602 2.398-3.602 0 0-2.399 3.602-2.399 3.602 0M359.14 208.504c0 2.402-3.597 2.402-3.597 0 0-2.399 3.598-2.399 3.598 0M340.277 158.848c0 2.402-3.597 2.402-3.597 0 0-2.399 3.597-2.399 3.597 0" fill="red" stroke-width=".75" stroke-linecap="round" stroke-linejoin="round" stroke="red" stroke-miterlimit="10"/><path d="M358.57 158.848l-50.64-32.692 9.476-48.804zm0 0" fill="#1e90ff" fill-opacity=".502" stroke-width=".75" stroke-linecap="round" stroke-linejoin="round" stroke="#000" stroke-miterlimit="10"/><path d="M358.57 158.848l-50.64-32.692-17.559 93.149zm0 0" fill="#1e90ff" fill-opacity=".502" stroke-width=".75" stroke-linecap="round" stroke-linejoin="round" stroke="#000" stroke-miterlimit="10"/><path d="M358.57 158.848l-50.64-32.692 49.414 82.348zm0 0" fill="#1e90ff" fill-opacity=".502" stroke-width=".75" stroke-linecap="round" stroke-linejoin="round" stroke="#000" stroke-miterlimit="10"/><path d="M358.57 158.848l-50.64-32.692 30.55 32.692zm0 0" fill="#1e90ff" fill-opacity=".502" stroke-width=".75" stroke-linecap="round" stroke-linejoin="round" stroke="#000" stroke-miterlimit="10"/><path d="M358.57 158.848l-41.164-81.496 21.074 81.496zm0 0M358.57 158.848l-68.199 60.457 66.973-10.801zm0 0" fill="#1e90ff" fill-opacity=".502" stroke-width=".75" stroke-linecap="round" stroke-linejoin="round" stroke="#000" stroke-miterlimit="10"/><path d="M358.57 158.848l-68.199 60.457 48.11-60.457zm0 0" fill="#1e90ff" fill-opacity=".502" stroke-width=".75" stroke-linecap="round" stroke-linejoin="round" stroke="#000" stroke-miterlimit="10"/><path d="M358.57 158.848l-1.226 49.656-18.864-49.656zm0 0M307.93 126.156l9.476-48.804-16.844-52.993zm0 0M307.93 126.156l9.476-48.804 21.074 81.496zm0 0M307.93 126.156l-17.559 93.149 66.973-10.801zm0 0" fill="#1e90ff" fill-opacity=".502" stroke-width=".75" stroke-linecap="round" stroke-linejoin="round" stroke="#000" stroke-miterlimit="10"/><path d="M307.93 126.156l-17.559 93.149 48.11-60.457zm0 0" fill="#1e90ff" fill-opacity=".502" stroke-width=".75" stroke-linecap="round" stroke-linejoin="round" stroke="#000" stroke-miterlimit="10"/><path d="M307.93 126.156l49.414 82.348-18.864-49.656zm0 0M317.406 77.352l-16.844-52.993-58.308 17.778zm0 0" fill="#1e90ff" fill-opacity=".502" stroke-width=".75" stroke-linecap="round" stroke-linejoin="round" stroke="#000" stroke-miterlimit="10"/><path d="M300.563 24.36l-58.31 17.777-41.019-21.633zm0 0" fill="#1e90ff" fill-opacity=".502" stroke-width=".75" stroke-linecap="round" stroke-linejoin="round" stroke="#000" stroke-miterlimit="10"/><path d="M242.254 42.137l-41.02-21.633-52.136-6.652zm0 0" fill="#1e90ff" fill-opacity=".502" stroke-width=".75" stroke-linecap="round" stroke-linejoin="round" stroke="#000" stroke-miterlimit="10"/><path d="M201.234 20.504l-52.136-6.652-34.739 38.171zm0 0" fill="#1e90ff" fill-opacity=".502" stroke-width=".75" stroke-linecap="round" stroke-linejoin="round" stroke="#000" stroke-miterlimit="10"/><path d="M149.098 13.852l-34.739 38.171-13.183 46.473zm0 0" fill="#1e90ff" fill-opacity=".502" stroke-width=".75" stroke-linecap="round" stroke-linejoin="round" stroke="#000" stroke-miterlimit="10"/><path d="M114.36 52.023l-13.184 46.473 21.82 45.383zm0 0M120.184 259.344l20.406 63.898 58.597-1.332zm0 0M290.371 219.305l66.973-10.801-18.864-49.656zm0 0" fill="#1e90ff" fill-opacity=".502" stroke-width=".75" stroke-linecap="round" stroke-linejoin="round" stroke="#000" stroke-miterlimit="10"/><path d="M358.57 158.848l-50.64-32.692M358.57 158.848l-41.164-81.496M358.57 158.848l-68.199 60.457M358.57 158.848l-1.226 49.656M358.57 158.848h-20.09M307.93 126.156l9.476-48.804M307.93 126.156L300.562 24.36M307.93 126.156l-17.559 93.149M307.93 126.156l49.414 82.348M307.93 126.156l30.55 32.692M317.406 77.352l-16.844-52.993M317.406 77.352l-75.152-35.215M317.406 77.352l21.074 81.496M300.563 24.36l-58.31 17.777M300.563 24.36l-99.329-3.856M242.254 42.137l-41.02-21.633M242.254 42.137l-93.156-28.285M201.234 20.504l-52.136-6.652M201.234 20.504l-86.875 31.52M149.098 13.852l-34.739 38.171M149.098 13.852l-47.922 84.644M114.36 52.023l-13.184 46.473M114.36 52.023l8.636 91.856M101.176 98.496l21.82 45.383M122.996 143.879l-14.562 71.394M15.43 191.766l93.004 23.507M108.434 215.273l11.75 44.07M120.184 259.344l20.406 63.898M120.184 259.344l79.004 62.566M140.59 323.242l58.597-1.332M199.188 321.91l64.488 38.238M263.676 360.148l53.031-42.101M316.707 318.047l-26.336-98.742M290.371 219.305l66.973-10.801M290.371 219.305l48.11-60.457M357.344 208.504l-18.864-49.656" fill="none" stroke-width="1.5" stroke-linecap="round" stroke-linejoin="round" stroke="#000" stroke-miterlimit="10"/><path d="M360.367 158.848c0 2.402-3.597 2.402-3.597 0 0-2.399 3.597-2.399 3.597 0M309.73 126.156c0 2.399-3.597 2.399-3.597 0 0-2.402 3.597-2.402 3.597 0M319.207 77.352c0 2.398-3.598 2.398-3.598 0 0-2.403 3.598-2.403 3.598 0M302.363 24.36c0 2.402-3.597 2.402-3.597 0 0-2.4 3.597-2.4 3.597 0M244.055 42.137c0 2.398-3.602 2.398-3.602 0 0-2.403 3.602-2.403 3.602 0M203.035 20.504c0 2.402-3.601 2.402-3.601 0 0-2.399 3.601-2.399 3.601 0M150.895 13.852c0 2.398-3.598 2.398-3.598 0 0-2.399 3.598-2.399 3.598 0M116.156 52.023c0 2.399-3.597 2.399-3.597 0 0-2.398 3.597-2.398 3.597 0M102.977 98.496c0 2.402-3.598 2.402-3.598 0 0-2.398 3.598-2.398 3.598 0M124.797 143.879c0 2.402-3.602 2.402-3.602 0 0-2.399 3.602-2.399 3.602 0M17.23 191.766c0 2.402-3.597 2.402-3.597 0 0-2.399 3.597-2.399 3.597 0M110.234 215.273c0 2.399-3.601 2.399-3.601 0 0-2.398 3.601-2.398 3.601 0M121.984 259.344c0 2.402-3.597 2.402-3.597 0 0-2.399 3.597-2.399 3.597 0M142.39 323.242c0 2.399-3.6 2.399-3.6 0 0-2.402 3.6-2.402 3.6 0M200.988 321.91c0 2.402-3.601 2.402-3.601 0 0-2.398 3.601-2.398 3.601 0M265.473 360.148c0 2.399-3.598 2.399-3.598 0 0-2.398 3.598-2.398 3.598 0M318.508 318.047c0 2.398-3.602 2.398-3.602 0 0-2.399 3.602-2.399 3.602 0M292.172 219.305c0 2.398-3.602 2.398-3.602 0 0-2.399 3.602-2.399 3.602 0M359.14 208.504c0 2.402-3.597 2.402-3.597 0 0-2.399 3.598-2.399 3.598 0M340.277 158.848c0 2.402-3.597 2.402-3.597 0 0-2.399 3.597-2.399 3.597 0" fill="#ff3030" stroke-width=".75" stroke-linecap="round" stroke-linejoin="round" stroke="#ff3030" stroke-miterlimit="10"/></svg>