<svg xmlns="http://www.w3.org/2000/svg" width="374pt" height="374pt" viewBox="0 0 374 374"><path fill="#fff" d="M0 0h374v374H0z"/><path d="M360.367 158.848c0 2.402-3.597 2.402-3.597 0 0-2.399 3.597-2.399 3.597 0M309.73 126.156c0 2.399-3.597 2.399-3.597 0 0-2.402 3.597-2.402 3.597 0M319.207 77.352c0 2.398-3.598 2.398-3.598 0 0-2.403 3.598-2.403 3.598 0M302.363 24.36c0 2.402-3.597 2.402-3.597 0 0-2.4 3.597-2.4 3.597 0M244.055 42.137c0 2.398-3.602 2.398-3.602 0 0-2.403 3.602-2.403 3.602 0M203.035 20.504c0 2.402-3.601 2.402-3.601 0 0-2.399 3.601-2.399 3.601 0M150.895 13.852c0 2.398-3.598 2.398-3.598 0 0-2.399 3.598-2.399 3.598 0M116.156 52.023c0 2.399-3.597 2.399-3.597 0 0-2.398 3.597-2.398 3.597 0M102.977 98.496c0 2.402-3.598 2.402-3.598 0 0-2.398 3.598-2.398 3.598 0M124.797 143.879c0 2.402-3.602 2.402-3.602 0 0-2.399 3.602-2.399 3.602 0M17.23 191.766c0 2.402-3.597 2.402-3.597 0 0-2.399 3.597-2.399 3.597 0M110.234 215.273c0 2.399-3.601 2.399-3.601 0 0-2.398 3.601-2.398 3.601 0M121.984 259.344c0 2.402-3.597 2.402-3.597 0 0-2.399 3.597-2.399 3.597 0M142.39 323.242c0 2.399-3.6 2.399-3.6 0 0-2.402 3.6-2.402 3.6 0M200.988 321.91c0 2.402-3.601 2.402-3.601 0 0-2.398 3.601-2.398 3.601 0M265.473 360.148c0 2.399-3.598 2.399-3.598 0 0-2.398 3.598-2.398 3.598 0M318.508 318.047c0 2.398-3.602 2.398-3.602 0 0-2.399 3.602-2.399 3.602 0M292.172 219.305c0 2.398-3.602 2.398-3.602 0 0-2.399 3.602-2.399 3.602 0M359.14 208.504c0 2.402-3.597 2.402-3.597 0 0-2.399 3.598-2.399 3.598 0M340.277 158.848c0 2.402-3.597 2.402-3.597 0 0-2.399 3.597-2.399 3.597 0" fill="red" stroke-width=".75" stroke-linecap="round" stroke-linejoin="round" stroke="red" stroke-miterlimit="10"/><path d="M358.57 158.848l-50.64-32.692 9.476-48.804zm0 0" fill="#1e90ff" fill-opacity=".502" stroke-width=".75" stroke-linecap="round" stroke-linejoin="round" stroke="#000" stroke-miterlimit="10"/><path d="M358.57 158.848l-50.64-32.692-7.368-101.797zm0 0" fill="#1e90ff" fill-opacity=".502" stroke-width=".75" stroke-linecap="round" stroke-linejoin="round" stroke="#000" stroke-miterlimit="10"/><path d="M358.57 158.848l-50.64-32.692-17.559 93.149zm0 0" fill="#1e90ff" fill-opacity=".502" stroke-width=".75" stroke-linecap="round" stroke-linejoin="round" stroke="#000" stroke-miterlimit="10"/><path d="M358.57 158.848l-50.64-32.692 49.414 82.348zm0 0" fill="#1e90ff" fill-opacity=".502" stroke-width=".75" stroke-linecap="round" stroke-linejoin="round" stroke="#000" stroke-miterlimit="10"/><path d="M358.57 158.848l-50.64-32.692 30.55 32.692zm0 0M358.57 158.848l-41.164-81.496-16.844-52.993zm0 0" fill="#1e90ff" fill-opacity=".502" stroke-width=".75" stroke-linecap="round" stroke-linejoin="round" stroke="#000" stroke-miterlimit="10"/><path d="M358.57 158.848l-41.164-81.496-27.035 141.953zm0 0" fill="#1e90ff" fill-opacity=".502" stroke-width=".75" stroke-linecap="round" stroke-linejoin="round" stroke="#000" stroke-miterlimit="10"/><path d="M358.57 158.848l-41.164-81.496 39.938 131.152zm0 0" fill="#1e90ff" fill-opacity=".502" stroke-width=".75" stroke-linecap="round" stroke-linejoin="round" stroke="#000" stroke-miterlimit="10"/><path d="M358.57 158.848l-41.164-81.496 21.074 81.496zm0 0" fill="#1e90ff" fill-opacity=".502" stroke-width=".75" stroke-linecap="round" stroke-linejoin="round" stroke="#000" stroke-miterlimit="10"/><path d="M358.57 158.848L300.563 24.359l37.917 134.489zm0 0M358.57 158.848l-68.199 60.457 66.973-10.801zm0 0" fill="#1e90ff" fill-opacity=".502" stroke-width=".75" stroke-linecap="round" stroke-linejoin="round" stroke="#000" stroke-miterlimit="10"/><path d="M358.57 158.848l-68.199 60.457 48.11-60.457zm0 0" fill="#1e90ff" fill-opacity=".502" stroke-width=".75" stroke-linecap="round" stroke-linejoin="round" stroke="#000" stroke-miterlimit="10"/><path d="M358.57 158.848l-1.226 49.656-18.864-49.656zm0 0M307.93 126.156l9.476-48.804-16.844-52.993zm0 0" fill="#1e90ff" fill-opacity=".502" stroke-width=".75" stroke-linecap="round" stroke-linejoin="round" stroke="#000" stroke-miterlimit="10"/><path d="M307.93 126.156l9.476-48.804-75.152-35.215zm0 0" fill="#1e90ff" fill-opacity=".502" stroke-width=".75" stroke-linecap="round" stroke-linejoin="round" stroke="#000" stroke-miterlimit="10"/><path d="M307.93 126.156l9.476-48.804-27.035 141.953zm0 0" fill="#1e90ff" fill-opacity=".502" stroke-width=".75" stroke-linecap="round" stroke-linejoin="round" stroke="#000" stroke-miterlimit="10"/><path d="M307.93 126.156l9.476-48.804 39.938 131.152zm0 0" fill="#1e90ff" fill-opacity=".502" stroke-width=".75" stroke-linecap="round" stroke-linejoin="round" stroke="#000" stroke-miterlimit="10"/><path d="M307.93 126.156l9.476-48.804 21.074 81.496zm0 0M307.93 126.156L300.562 24.36l-58.308 17.778zm0 0" fill="#1e90ff" fill-opacity=".502" stroke-width=".75" stroke-linecap="round" stroke-linejoin="round" stroke="#000" stroke-miterlimit="10"/><path d="M307.93 126.156L300.562 24.36l37.918 134.489zm0 0M307.93 126.156l-17.559 93.149 66.973-10.801zm0 0" fill="#1e90ff" fill-opacity=".502" stroke-width=".75" stroke-linecap="round" stroke-linejoin="round" stroke="#000" stroke-miterlimit="10"/><path d="M307.93 126.156l-17.559 93.149 48.11-60.457zm0 0" fill="#1e90ff" fill-opacity=".502" stroke-width=".75" stroke-linecap="round" stroke-linejoin="round" stroke="#000" stroke-miterlimit="10"/><path d="M307.93 126.156l49.414 82.348-18.864-49.656zm0 0M317.406 77.352l-16.844-52.993-58.308 17.778zm0 0" fill="#1e90ff" fill-opacity=".502" stroke-width=".75" stroke-linecap="round" stroke-linejoin="round" stroke="#000" stroke-miterlimit="10"/><path d="M317.406 77.352l-16.844-52.993-99.328-3.855zm0 0" fill="#1e90ff" fill-opacity=".502" stroke-width=".75" stroke-linecap="round" stroke-linejoin="round" stroke="#000" stroke-miterlimit="10"/><path d="M317.406 77.352l-16.844-52.993 37.918 134.489zm0 0" fill="#1e90ff" fill-opacity=".502" stroke-width=".75" stroke-linecap="round" stroke-linejoin="round" stroke="#000" stroke-miterlimit="10"/><path d="M317.406 77.352l-75.152-35.215-41.02-21.633zm0 0M317.406 77.352l-27.035 141.953 66.973-10.801zm0 0" fill="#1e90ff" fill-opacity=".502" stroke-width=".75" stroke-linecap="round" stroke-linejoin="round" stroke="#000" stroke-miterlimit="10"/><path d="M317.406 77.352l-27.035 141.953 48.11-60.457zm0 0" fill="#1e90ff" fill-opacity=".502" stroke-width=".75" stroke-linecap="round" stroke-linejoin="round" stroke="#000" stroke-miterlimit="10"/><path d="M317.406 77.352l39.938 131.152-18.864-49.656zm0 0M300.563 24.36l-58.31 17.777-41.019-21.633zm0 0" fill="#1e90ff" fill-opacity=".502" stroke-width=".75" stroke-linecap="round" stroke-linejoin="round" stroke="#000" stroke-miterlimit="10"/><path d="M242.254 42.137l-41.02-21.633-52.136-6.652zm0 0" fill="#1e90ff" fill-opacity=".502" stroke-width=".75" stroke-linecap="round" stroke-linejoin="round" stroke="#000" stroke-miterlimit="10"/><path d="M242.254 42.137l-41.02-21.633-86.875 31.52zm0 0" fill="#1e90ff" fill-opacity=".502" stroke-width=".75" stroke-linecap="round" stroke-linejoin="round" stroke="#000" stroke-miterlimit="10"/><path d="M242.254 42.137l-93.156-28.285-34.739 38.171zm0 0" fill="#1e90ff" fill-opacity=".502" stroke-width=".75" stroke-linecap="round" stroke-linejoin="round" stroke="#000" stroke-miterlimit="10"/><path d="M201.234 20.504l-52.136-6.652-34.739 38.171zm0 0" fill="#1e90ff" fill-opacity=".502" stroke-width=".75" stroke-linecap="round" stroke-linejoin="round" stroke="#000" stroke-miterlimit="10"/><path d="M201.234 20.504l-52.136-6.652-47.922 84.644zm0 0" fill="#1e90ff" fill-opacity=".502" stroke-width=".75" stroke-linecap="round" stroke-linejoin="round" stroke="#000" stroke-miterlimit="10"/><path d="M201.234 20.504l-52.136-6.652-26.102 130.027zm0 0" fill="#1e90ff" fill-opacity=".502" stroke-width=".75" stroke-linecap="round" stroke-linejoin="round" stroke="#000" stroke-miterlimit="10"/><path d="M201.234 20.504l-86.875 31.52-13.183 46.472zm0 0" fill="#1e90ff" fill-opacity=".502" stroke-width=".75" stroke-linecap="round" stroke-linejoin="round" stroke="#000" stroke-miterlimit="10"/><path d="M201.234 20.504l-86.875 31.52 8.637 91.855zm0 0" fill="#1e90ff" fill-opacity=".502" stroke-width=".75" stroke-linecap="round" stroke-linejoin="round" stroke="#000" stroke-miterlimit="10"/><path d="M201.234 20.504L101.176 98.496l21.82 45.383zm0 0" fill="#1e90ff" fill-opacity=".502" stroke-width=".75" stroke-linecap="round" stroke-linejoin="round" stroke="#000" stroke-miterlimit="10"/><path d="M149.098 13.852l-34.739 38.171-13.183 46.473zm0 0" fill="#1e90ff" fill-opacity=".502" stroke-width=".75" stroke-linecap="round" stroke-linejoin="round" stroke="#000" stroke-miterlimit="10"/><path d="M149.098 13.852l-34.739 38.171 8.637 91.856zm0 0" fill="#1e90ff" fill-opacity=".502" stroke-width=".75" stroke-linecap="round" stroke-linejoin="round" stroke="#000" stroke-miterlimit="10"/><path d="M149.098 13.852l-47.922 84.644 21.82 45.383zm0 0" fill="#1e90ff" fill-opacity=".502" stroke-width=".75" stroke-linecap="round" stroke-linejoin="round" stroke="#000" stroke-miterlimit="10"/><path d="M114.36 52.023l-13.184 46.473 21.82 45.383zm0 0" fill="#1e90ff" fill-opacity=".502" stroke-width=".75" stroke-linecap="round" stroke-linejoin="round" stroke="#000" stroke-miterlimit="10"/><path d="M101.176 98.496l21.82 45.383L15.43 191.766zm0 0" fill="#1e90ff" fill-opacity=".502" stroke-width=".75" stroke-linecap="round" stroke-linejoin="round" stroke="#000" stroke-miterlimit="10"/><path d="M101.176 98.496l21.82 45.383-14.562 71.394zm0 0" fill="#1e90ff" fill-opacity=".502" stroke-width=".75" stroke-linecap="round" stroke-linejoin="round" stroke="#000" stroke-miterlimit="10"/><path d="M101.176 98.496l-85.746 93.27 93.004 23.507zm0 0" fill="#1e90ff" fill-opacity=".502" stroke-width=".75" stroke-linecap="round" stroke-linejoin="round" stroke="#000" stroke-miterlimit="10"/><path d="M122.996 143.879L15.43 191.766l93.004 23.507zm0 0" fill="#1e90ff" fill-opacity=".502" stroke-width=".75" stroke-linecap="round" stroke-linejoin="round" stroke="#000" stroke-miterlimit="10"/><path d="M122.996 143.879L15.43 191.766l104.754 67.578zm0 0" fill="#1e90ff" fill-opacity=".502" stroke-width=".75" stroke-linecap="round" stroke-linejoin="round" stroke="#000" stroke-miterlimit="10"/><path d="M122.996 143.879l-14.562 71.394 11.75 44.07zm0 0" fill="#1e90ff" fill-opacity=".502" stroke-width=".75" stroke-linecap="round" stroke-linejoin="round" stroke="#000" stroke-miterlimit="10"/><path d="M15.43 191.766l93.004 23.507 11.75 44.07zm0 0" fill="#1e90ff" fill-opacity=".502" stroke-width=".75" stroke-linecap="round" stroke-linejoin="round" stroke="#000" stroke-miterlimit="10"/><path d="M108.434 215.273l11.75 44.07 20.406 63.9zm0 0" fill="#1e90ff" fill-opacity=".502" stroke-width=".75" stroke-linecap="round" stroke-linejoin="round" stroke="#000" stroke-miterlimit="10"/><path d="M108.434 215.273l11.75 44.07 79.004 62.567zm0 0" fill="#1e90ff" fill-opacity=".502" stroke-width=".75" stroke-linecap="round" stroke-linejoin="round" stroke="#000" stroke-miterlimit="10"/><path d="M108.434 215.273l32.156 107.97 58.597-1.333zm0 0" fill="#1e90ff" fill-opacity=".502" stroke-width=".75" stroke-linecap="round" stroke-linejoin="round" stroke="#000" stroke-miterlimit="10"/><path d="M120.184 259.344l20.406 63.898 58.597-1.332zm0 0" fill="#1e90ff" fill-opacity=".502" stroke-width=".75" stroke-linecap="round" stroke-linejoin="round" stroke="#000" stroke-miterlimit="10"/><path d="M140.59 323.242l58.597-1.332 64.489 38.238zm0 0" fill="#1e90ff" fill-opacity=".502" stroke-width=".75" stroke-linecap="round" stroke-linejoin="round" stroke="#000" stroke-miterlimit="10"/><path d="M199.188 321.91l64.488 38.238 53.031-42.101zm0 0" fill="#1e90ff" fill-opacity=".502" stroke-width=".75" stroke-linecap="round" stroke-linejoin="round" stroke="#000" stroke-miterlimit="10"/><path d="M199.188 321.91l64.488 38.238 26.695-140.843zm0 0" fill="#1e90ff" fill-opacity=".502" stroke-width=".75" stroke-linecap="round" stroke-linejoin="round" stroke="#000" stroke-miterlimit="10"/><path d="M199.188 321.91l117.519-3.863-26.336-98.742zm0 0" fill="#1e90ff" fill-opacity=".502" stroke-width=".75" stroke-linecap="round" stroke-linejoin="round" stroke="#000" stroke-miterlimit="10"/><path d="M263.676 360.148l53.031-42.101-26.336-98.742zm0 0" fill="#1e90ff" fill-opacity=".502" stroke-width=".75" stroke-linecap="round" stroke-linejoin="round" stroke="#000" stroke-miterlimit="10"/><path d="M316.707 318.047l-26.336-98.742 66.973-10.801zm0 0" fill="#1e90ff" fill-opacity=".502" stroke-width=".75" stroke-linecap="round" stroke-linejoin="round" stroke="#000" stroke-miterlimit="10"/><path d="M290.371 219.305l66.973-10.801-18.864-49.656zm0 0" fill="#1e90ff" fill-opacity=".502" stroke-width=".75" stroke-linecap="round" stroke-linejoin="round" stroke="#000" stroke-miterlimit="10"/><path d="M358.57 158.848l-50.64-32.692M358.57 158.848l-41.164-81.496M358.57 158.848L300.563 24.359M358.57 158.848l-68.199 60.457M358.57 158.848l-1.226 49.656M358.57 158.848h-20.09M307.93 126.156l9.476-48.804M307.93 126.156L300.562 24.36M307.93 126.156l-65.676-84.02M307.93 126.156l-17.559 93.149M307.93 126.156l49.414 82.348M307.93 126.156l30.55 32.692M317.406 77.352l-16.844-52.993M317.406 77.352l-75.152-35.215M317.406 77.352L201.234 20.504M317.406 77.352l-27.035 141.953M317.406 77.352l39.938 131.152M317.406 77.352l21.074 81.496M300.563 24.36l-58.31 17.777M300.563 24.36l-99.329-3.856M300.563 24.36l37.917 134.488M242.254 42.137l-41.02-21.633M242.254 42.137l-93.156-28.285M242.254 42.137l-127.895 9.886M201.234 20.504l-52.136-6.652M201.234 20.504l-86.875 31.52M201.234 20.504L101.176 98.496M201.234 20.504l-78.238 123.375M149.098 13.852l-34.739 38.171M149.098 13.852l-47.922 84.644M149.098 13.852l-26.102 130.027M114.36 52.023l-13.184 46.473M114.36 52.023l8.636 91.856M101.176 98.496l21.82 45.383M101.176 98.496l-85.746 93.27M101.176 98.496l7.258 116.777M122.996 143.879L15.43 191.766M122.996 143.879l-14.562 71.394M122.996 143.879l-2.812 115.465M15.43 191.766l93.004 23.507M15.43 191.766l104.754 67.578M108.434 215.273l11.75 44.07M108.434 215.273l32.156 107.97M108.434 215.273l90.754 106.637M120.184 259.344l20.406 63.898M120.184 259.344l79.004 62.566M140.59 323.242l58.597-1.332M140.59 323.242l123.086 36.906M199.188 321.91l64.488 38.238M199.188 321.91l117.519-3.863M199.188 321.91l91.183-102.605M263.676 360.148l53.031-42.101M263.676 360.148l26.695-140.843M316.707 318.047l-26.336-98.742M316.707 318.047l40.637-109.543M290.371 219.305l66.973-10.801M290.371 219.305l48.11-60.457M357.344 208.504l-18.864-49.656" fill="none" stroke-width="1.5" stroke-linecap="round" stroke-linejoin="round" stroke="#000" stroke-miterlimit="10"/><path d="M360.367 158.848c0 2.402-3.597 2.402-3.597 0 0-2.399 3.597-2.399 3.597 0M309.73 126.156c0 2.399-3.597 2.399-3.597 0 0-2.402 3.597-2.402 3.597 0M319.207 77.352c0 2.398-3.598 2.398-3.598 0 0-2.403 3.598-2.403 3.598 0M302.363 24.36c0 2.402-3.597 2.402-3.597 0 0-2.4 3.597-2.4 3.597 0M244.055 42.137c0 2.398-3.602 2.398-3.602 0 0-2.403 3.602-2.403 3.602 0M203.035 20.504c0 2.402-3.601 2.402-3.601 0 0-2.399 3.601-2.399 3.601 0M150.895 13.852c0 2.398-3.598 2.398-3.598 0 0-2.399 3.598-2.399 3.598 0M116.156 52.023c0 2.399-3.597 2.399-3.597 0 0-2.398 3.597-2.398 3.597 0M102.977 98.496c0 2.402-3.598 2.402-3.598 0 0-2.398 3.598-2.398 3.598 0M124.797 143.879c0 2.402-3.602 2.402-3.602 0 0-2.399 3.602-2.399 3.602 0M17.23 191.766c0 2.402-3.597 2.402-3.597 0 0-2.399 3.597-2.399 3.597 0M110.234 215.273c0 2.399-3.601 2.399-3.601 0 0-2.398 3.601-2.398 3.601 0M121.984 259.344c0 2.402-3.597 2.402-3.597 0 0-2.399 3.597-2.399 3.597 0M142.39 323.242c0 2.399-3.6 2.399-3.6 0 0-2.402 3.6-2.402 3.6 0M200.988 321.91c0 2.402-3.601 2.402-3.601 0 0-2.398 3.601-2.398 3.601 0M265.473 360.148c0 2.399-3.598 2.399-3.598 0 0-2.398 3.598-2.398 3.598 0M318.508 318.047c0 2.398-3.602 2.398-3.602 0 0-2.399 3.602-2.399 3.602 0M292.172 219.305c0 2.398-3.602 2.398-3.602 0 0-2.399 3.602-2.399 3.602 0M359.14 208.504c0 2.402-3.597 2.402-3.597 0 0-2.399 3.598-2.399 3.598 0M340.277 158.848c0 2.402-3.597 2.402-3.597 0 0-2.399 3.597-2.399 3.597 0" fill="#ff3030" stroke-width=".75" stroke-linecap="round" stroke-linejoin="round" stroke="#ff3030" stroke-miterlimit="10"/></svg>