<svg xmlns="http://www.w3.org/2000/svg" xmlns:xlink="http://www.w3.org/1999/xlink" width="328pt" height="328" viewBox="0 0 328 246"><defs><clipPath id="f"><path d="M249 102h39v58h-39zm0 0"/></clipPath><clipPath id="g"><path d="M249 102h39v59h-39zm0 0"/></clipPath><clipPath id="h"><path d="M238 46h50v58h-50zm0 0"/></clipPath><clipPath id="i"><path d="M247 114h41v58h-41zm0 0"/></clipPath><clipPath id="j"><path d="M41 66h42v58H41zm0 0"/></clipPath><clipPath id="k"><path d="M41 62h43v58H41zm0 0"/></clipPath><clipPath id="l"><path d="M233 37h55v58h-55zm0 0"/></clipPath><clipPath id="m"><path d="M41 137h46v58H41zm0 0"/></clipPath><clipPath id="n"><path d="M249 88h39v58h-39zm0 0"/></clipPath><clipPath id="o"><path d="M248 105h40v58h-40zm0 0"/></clipPath><clipPath id="p"><path d="M249 97h39v58h-39zm0 0"/></clipPath><clipPath id="q"><path d="M249 103h39v58h-39zm0 0"/></clipPath><clipPath id="r"><path d="M239 49h49v58h-49zm0 0"/></clipPath><clipPath id="s"><path d="M41 88h38v58H41zm0 0"/></clipPath><clipPath id="t"><path d="M247 115h41v58h-41zm0 0"/></clipPath><symbol overflow="visible" id="a"><path d="M-3.89-.5v-2.938h1.093V-.5zm0 0"/></symbol><symbol overflow="visible" id="b"><path d="M-5.938-1.156h-.812c-.07-.758-.195-1.285-.375-1.578-.176-.301-.586-.532-1.234-.688v-.828H0v1.125h-5.938zm0 0"/></symbol><symbol overflow="visible" id="c"><path d="M-1.281-1.031V-2.25H0v1.219zm0 0"/></symbol><symbol overflow="visible" id="d"><path d="M-8.39-3.25c0-1.082.449-1.867 1.343-2.36.688-.374 1.637-.562 2.844-.562 1.137 0 2.078.172 2.828.516C-.301-5.164.235-4.36.235-3.234c0 1-.438 1.75-1.313 2.25-.738.406-1.723.609-2.953.609-.946 0-1.766-.125-2.453-.375-1.27-.457-1.907-1.29-1.907-2.5zm7.656.016c0-.551-.239-.989-.72-1.313-.487-.32-1.394-.484-2.718-.484-.945 0-1.726.12-2.344.36-.613.23-.921.683-.921 1.359 0 .624.292 1.085.875 1.374.585.282 1.445.422 2.578.422.855 0 1.543-.093 2.062-.28.793-.282 1.188-.759 1.188-1.438zm0 0"/></symbol><symbol overflow="visible" id="e"><path d="M-2.14-1.484c.605-.07 1.023-.352 1.25-.844.117-.25.171-.535.171-.86 0-.624-.195-1.085-.594-1.39a2.135 2.135 0 00-1.328-.453c-.582 0-1.035.183-1.359.547-.32.355-.484.78-.484 1.28 0 .368.074.68.218.938.137.262.329.48.579.657l-.047.921-4.516-.64v-4.36h1.016v3.563l2.328.36a2.676 2.676 0 01-.328-.563 2.887 2.887 0 01-.188-1.078c0-.77.25-1.422.75-1.953.492-.54 1.117-.813 1.875-.813.793 0 1.496.25 2.11.75.605.492.906 1.274.906 2.344A3.02 3.02 0 01-.36-1.266c-.383.524-.977.813-1.782.875zm0 0"/></symbol></defs><path fill="#fff" d="M0 0h328v246H0z"/><path d="M279.438 131.477c0 2.402-3.602 2.402-3.602 0 0-2.399 3.601-2.399 3.601 0M74.438 55.23c0 2.403-3.598 2.403-3.598 0 0-2.398 3.597-2.398 3.597 0M250.895 47.773c0 2.403-3.602 2.403-3.602 0 0-2.398 3.602-2.398 3.602 0M268.941 75.164c0 2.398-3.601 2.398-3.601 0 0-2.402 3.601-2.402 3.601 0M170.188 9.625c0 2.398-3.602 2.398-3.602 0s3.601-2.398 3.601 0M195.453 233.594c0 2.402-3.598 2.402-3.598 0 0-2.399 3.598-2.399 3.598 0M104.586 27.309c0 2.398-3.598 2.398-3.598 0 0-2.399 3.598-2.399 3.598 0M277.96 143.45c0 2.402-3.597 2.402-3.597 0 0-2.4 3.598-2.4 3.598 0M223.215 25.102c0 2.402-3.602 2.402-3.602 0 0-2.399 3.602-2.399 3.602 0M55.45 94.566c0 2.403-3.598 2.403-3.598 0 0-2.398 3.597-2.398 3.597 0M219.531 23.043c0 2.398-3.601 2.398-3.601 0 0-2.402 3.601-2.402 3.601 0M178.95 10.309c0 2.398-3.602 2.398-3.602 0 0-2.399 3.601-2.399 3.601 0M181.996 236.375c0 2.398-3.601 2.398-3.601 0s3.601-2.398 3.601 0M259.473 58.691c0 2.403-3.602 2.403-3.602 0 0-2.398 3.602-2.398 3.602 0" fill="red" stroke-width=".75" stroke-linecap="round" stroke-linejoin="round" stroke="red" stroke-miterlimit="10"/><path d="M56.55 90.668c0 2.402-3.6 2.402-3.6 0 0-2.398 3.6-2.398 3.6 0M263.945 65.691c0 2.403-3.597 2.403-3.597 0 0-2.398 3.597-2.398 3.597 0M59.89 165.95c0 2.402-3.6 2.402-3.6 0 0-2.4 3.6-2.4 3.6 0M279.543 117.309c0 2.398-3.602 2.398-3.602 0 0-2.399 3.602-2.399 3.602 0M279.254 133.742c0 2.403-3.598 2.403-3.598 0 0-2.398 3.598-2.398 3.598 0M119.395 19.371c0 2.399-3.602 2.399-3.602 0 0-2.402 3.602-2.402 3.602 0M92.738 211.129c0 2.402-3.601 2.402-3.601 0 0-2.399 3.601-2.399 3.601 0M133.75 14.11c0 2.398-3.598 2.398-3.598 0 0-2.403 3.598-2.403 3.598 0M279.688 125.902c0 2.399-3.598 2.399-3.598 0 0-2.402 3.598-2.402 3.598 0M260.41 187.012c0 2.402-3.601 2.402-3.601 0 0-2.399 3.601-2.399 3.601 0" fill="red" stroke-width=".75" stroke-linecap="round" stroke-linejoin="round" stroke="red" stroke-miterlimit="10"/><path d="M279.43 131.602c0 2.398-3.602 2.398-3.602 0 0-2.403 3.602-2.403 3.602 0M270.152 77.84c0 2.402-3.601 2.402-3.601 0 0-2.399 3.601-2.399 3.601 0M86.137 205.18c0 2.398-3.602 2.398-3.602 0 0-2.403 3.602-2.403 3.602 0M51.91 116.723c0 2.398-3.597 2.398-3.597 0 0-2.403 3.597-2.403 3.597 0M277.828 144.18c0 2.402-3.598 2.402-3.598 0 0-2.399 3.598-2.399 3.598 0M91.824 36.723c0 2.398-3.601 2.398-3.601 0 0-2.403 3.601-2.403 3.601 0" fill="red" stroke-width=".75" stroke-linecap="round" stroke-linejoin="round" stroke="red" stroke-miterlimit="10"/><path d="M49.906 246h228.008M49.906 246h0M106.91 246h0M163.91 246h0M220.91 246h0M277.914 246h0M41 237.543V9.539M41 237.543h-7.2M41 180.543h-7.2M41 123.54h-7.2M41 66.54h-7.2M41 9.54h-7.2" fill="none" stroke-width=".75" stroke-linecap="round" stroke-linejoin="round" stroke="#000" stroke-miterlimit="10"/><use xlink:href="#a" x="23.719" y="247.883"/><use xlink:href="#b" x="23.719" y="243.887"/><use xlink:href="#c" x="23.719" y="237.213"/><use xlink:href="#d" x="23.719" y="233.879"/><use xlink:href="#a" x="23.719" y="190.883"/><use xlink:href="#d" x="23.719" y="186.887"/><use xlink:href="#c" x="23.719" y="180.213"/><use xlink:href="#e" x="23.719" y="176.879"/><use xlink:href="#d" x="23.719" y="131.879"/><use xlink:href="#c" x="23.719" y="125.205"/><use xlink:href="#d" x="23.719" y="121.871"/><use xlink:href="#d" x="23.719" y="74.879"/><use xlink:href="#c" x="23.719" y="68.205"/><use xlink:href="#e" x="23.719" y="64.871"/><use xlink:href="#b" x="23.719" y="17.879"/><use xlink:href="#c" x="23.719" y="11.205"/><use xlink:href="#d" x="23.719" y="7.871"/><path d="M41 246h246V0H41v246" fill="none" stroke-width=".75" stroke-linecap="round" stroke-linejoin="round" stroke="#000" stroke-miterlimit="10"/><g clip-path="url(#f)"><path d="M306.137 131.477l-.055-1.79-.168-1.78-.281-1.77-.39-1.746-.5-1.72-.606-1.683-.711-1.644-.813-1.594-.914-1.543-1.004-1.48-1.097-1.415-1.184-1.343-1.266-1.266-1.343-1.183-1.414-1.098-1.485-1.008-1.539-.91-1.594-.813-1.644-.71-1.684-.61-1.722-.496-1.746-.39-1.77-.282-1.781-.168-1.79-.058-1.788.058-1.782.168-1.77.281-1.75.391-1.718.496-1.683.61-1.645.71-1.594.813-1.543.91-1.48 1.008-1.414 1.098-1.344 1.183-1.266 1.266-1.183 1.344-1.098 1.414-1.004 1.48-.914 1.543-.812 1.594-.711 1.644-.606 1.684-.5 1.719-.39 1.746-.282 1.77-.168 1.78-.054 1.79.054 1.793.168 1.78.282 1.77.39 1.746.5 1.72.606 1.683.71 1.644.813 1.594.914 1.543 1.004 1.48 1.098 1.415 1.183 1.343 1.266 1.266 1.344 1.184 1.414 1.097 1.48 1.008 1.543.91 1.594.813 1.645.71 1.683.61 1.719.496 1.75.39 1.77.282 1.78.168 1.79.058 1.789-.058 1.781-.168 1.77-.281 1.746-.391 1.722-.496 1.684-.61 1.644-.71 1.594-.813 1.54-.91 1.484-1.008 1.414-1.097 1.343-1.184 1.266-1.266 1.184-1.343 1.097-1.415 1.004-1.48.914-1.543.813-1.594.71-1.644.606-1.684.5-1.719.39-1.746.282-1.77.168-1.78zm0 0" fill="pink" fill-opacity=".4"/></g><g clip-path="url(#g)"><path d="M306.137 131.477l-.055-1.79-.168-1.78-.281-1.77-.39-1.746-.5-1.72-.606-1.683-.711-1.644-.813-1.594-.914-1.543-1.004-1.48-1.097-1.415-1.184-1.343-1.266-1.266-1.343-1.183-1.414-1.098-1.485-1.008-1.539-.91-1.594-.813-1.644-.71-1.684-.61-1.722-.496-1.746-.39-1.77-.282-1.781-.168-1.79-.058-1.788.058-1.782.168-1.77.281-1.75.391-1.718.496-1.683.61-1.645.71-1.594.813-1.543.91-1.48 1.008-1.414 1.098-1.344 1.183-1.266 1.266-1.183 1.344-1.098 1.414-1.004 1.48-.914 1.543-.812 1.594-.711 1.644-.606 1.684-.5 1.719-.39 1.746-.282 1.77-.168 1.78-.054 1.79.054 1.793.168 1.78.282 1.77.39 1.746.5 1.72.606 1.683.71 1.644.813 1.594.914 1.543 1.004 1.48 1.098 1.415 1.183 1.343 1.266 1.266 1.344 1.184 1.414 1.097 1.48 1.008 1.543.91 1.594.813 1.645.71 1.683.61 1.719.496 1.75.39 1.77.282 1.78.168 1.79.058 1.789-.058 1.781-.168 1.77-.281 1.746-.391 1.722-.496 1.684-.61 1.644-.71 1.594-.813 1.54-.91 1.484-1.008 1.414-1.097 1.343-1.184 1.266-1.266 1.184-1.343 1.097-1.415 1.004-1.48.914-1.543.813-1.594.71-1.644.606-1.684.5-1.719.39-1.746.282-1.77.168-1.78zm0 0" fill="none" stroke-width=".075" stroke-linecap="round" stroke-linejoin="round" stroke="red" stroke-opacity=".4" stroke-miterlimit="10"/></g><path d="M101.14 55.23l-.058-1.789-.168-1.78-.281-1.77-.39-1.746-.5-1.72-.606-1.687-.711-1.64-.813-1.598-.91-1.54-1.008-1.48-1.097-1.417-1.184-1.34-1.266-1.266-1.343-1.187-1.414-1.098-1.48-1.004-1.544-.91-1.594-.817-1.644-.71-1.684-.606-1.718-.5-1.747-.39-1.77-.278-1.784-.172-1.79-.055-1.788.055-1.782.172-1.77.277-1.745.391-1.719.5-1.687.605-1.641.711-1.598.817-1.539.91-1.48 1.004-1.414 1.098-1.344 1.187-1.266 1.266-1.183 1.34-1.098 1.417-1.008 1.48-.91 1.54-.812 1.598-.711 1.64-.61 1.688-.5 1.719-.39 1.746-.278 1.77-.168 1.78-.058 1.79.058 1.789.168 1.785.278 1.765.39 1.75.5 1.72.61 1.683.71 1.644.813 1.594.91 1.543 1.008 1.48 1.098 1.414 1.183 1.344 1.266 1.266 1.344 1.183 1.414 1.098 1.48 1.008 1.54.91 1.597.813 1.64.71 1.688.606 1.719.5 1.746.39 1.77.282 1.78.168 1.79.054 1.789-.054 1.785-.168 1.77-.281 1.746-.391 1.718-.5 1.684-.606 1.644-.71 1.594-.813 1.543-.91 1.48-1.008 1.415-1.098 1.343-1.183 1.266-1.266 1.184-1.344 1.097-1.414 1.008-1.48.91-1.543.813-1.594.71-1.644.606-1.684.5-1.719.39-1.75.282-1.765.168-1.785zm0 0M277.594 47.773l-.055-1.789-.168-1.78-.281-1.77-.39-1.746-.5-1.72-.606-1.687-.711-1.64-.813-1.598-.914-1.54-1.004-1.48-1.097-1.414-1.184-1.343L268.605 27l-1.343-1.184-1.414-1.097-1.48-1.008-1.544-.91-1.594-.813-1.644-.715-1.684-.605-1.718-.5-1.75-.39-1.77-.278-1.781-.168-1.79-.059-1.788.059-1.782.168-1.77.277-1.745.391-1.723.5-1.683.605-1.645.715-1.594.813-1.539.91-1.484 1.008-1.414 1.097L229.582 27l-1.266 1.266-1.183 1.343-1.098 1.414-1.004 1.48-.914 1.54-.812 1.598-.711 1.64-.606 1.688-.5 1.718-.39 1.747-.282 1.77-.168 1.78-.054 1.79.054 1.788.168 1.786.282 1.77.39 1.745.5 1.719.606 1.684.71 1.644.813 1.594.914 1.543 1.004 1.48 1.098 1.414 1.183 1.344 1.266 1.266 1.344 1.183 1.414 1.098 1.484 1.008 1.54.91 1.593.813 1.645.71 1.683.606 1.723.5 1.746.39 1.77.282 1.78.168 1.79.058 1.789-.058 1.781-.168 1.77-.281 1.75-.391 1.718-.5 1.684-.606 1.644-.71 1.594-.813 1.543-.91 1.48-1.008 1.415-1.098 1.343-1.183 1.266-1.266 1.184-1.344 1.097-1.414 1.004-1.48.914-1.543.813-1.594.71-1.644.606-1.684.5-1.719.39-1.746.282-1.77.168-1.785zm0 0" fill="pink" fill-opacity=".4" stroke-width=".075" stroke-linecap="round" stroke-linejoin="round" stroke="red" stroke-opacity=".4" stroke-miterlimit="10"/><g clip-path="url(#h)"><path d="M295.64 75.164l-.054-1.789-.172-1.785-.277-1.766-.39-1.75-.5-1.719-.606-1.683-.711-1.645-.813-1.593-.914-1.543-1.004-1.48-1.097-1.415-1.184-1.344-1.27-1.265-1.34-1.184-1.417-1.098-1.48-1.007-1.54-.91-1.598-.813-1.64-.71-1.688-.606-1.718-.5-1.747-.391-1.77-.281-1.78-.168-1.79-.055-1.788.055-1.786.168-1.765.281-1.75.39-1.719.5-1.684.606-1.644.711-1.594.813-1.543.91-1.48 1.007-1.414 1.098-1.344 1.184-1.266 1.265-1.183 1.344-1.098 1.414-1.008 1.48-.91 1.544-.812 1.593-.711 1.645-.606 1.683-.5 1.72-.39 1.75-.282 1.765-.168 1.785-.054 1.79.054 1.788.168 1.781.282 1.77.39 1.746.5 1.719.606 1.687.71 1.64.813 1.599.91 1.539 1.008 1.48 1.098 1.418 1.183 1.34 1.266 1.27 1.344 1.183 1.414 1.098 1.48 1.004 1.543.914 1.594.812 1.644.711 1.684.606 1.719.5 1.75.39 1.765.278 1.786.171 1.789.055 1.789-.055 1.78-.171 1.77-.278 1.747-.39 1.718-.5 1.688-.606 1.64-.71 1.598-.813 1.54-.914 1.48-1.004 1.418-1.098 1.34-1.184 1.269-1.27 1.184-1.339 1.097-1.418 1.004-1.48.914-1.54.813-1.597.71-1.64.606-1.688.5-1.719.39-1.746.278-1.77.172-1.78zm0 0" fill="pink" fill-opacity=".4" stroke-width=".075" stroke-linecap="round" stroke-linejoin="round" stroke="red" stroke-opacity=".4" stroke-miterlimit="10"/></g><path d="M196.887 9.625l-.055-1.79-.168-1.78-.281-1.77-.39-1.746-.5-1.723-.294-.816h-53.625l-.293.816-.5 1.723-.39 1.746-.282 1.77-.168 1.78-.054 1.79.054 1.79.168 1.784.282 1.766.39 1.75.5 1.719.606 1.683.71 1.645.813 1.593.914 1.543 1.004 1.48 1.098 1.415 1.183 1.344 1.266 1.265 1.344 1.184 1.414 1.098 1.48 1.004 1.543.914 1.594.812 1.645.711 1.683.605 1.719.5 1.75.391 1.766.281 1.785.168 1.789.055 1.789-.055 1.781-.168 1.77-.28 1.746-.392 1.722-.5 1.684-.605 1.64-.71 1.598-.813 1.54-.914 1.484-1.004 1.414-1.098 1.343-1.184 1.266-1.265 1.184-1.344 1.097-1.414 1.004-1.48.914-1.544.813-1.593.71-1.645.606-1.683.5-1.72.39-1.75.282-1.765.168-1.785zm0 0M222.156 233.594l-.058-1.79-.168-1.78-.282-1.77-.39-1.746-.496-1.719-.61-1.687-.71-1.641-.813-1.598-.91-1.539-1.008-1.48-1.098-1.414-1.183-1.344-1.266-1.266-1.344-1.183-1.414-1.098-1.48-1.008-1.543-.91-1.594-.812-1.644-.711-1.684-.61-1.719-.5-1.746-.39-1.77-.278-1.78-.168-1.794-.058-1.789.058-1.781.168-1.77.278-1.746.39-1.718.5-1.684.61-1.644.71-1.598.813-1.54.91-1.48 1.008-1.414 1.098-1.343 1.183-1.266 1.266-1.184 1.344-1.097 1.414-1.008 1.48-.91 1.54-.813 1.597-.71 1.64-.61 1.688-.5 1.719-.39 1.746-.278 1.77-.168 1.78-.059 1.79.059 1.789.168 1.785.277 1.77.39 1.746.5 1.718.61 1.684.711 1.644.137.27h51.3l.137-.27.711-1.644.61-1.684.496-1.718.39-1.746.282-1.77.168-1.785zm0 0M131.29 27.309l-.06-1.79-.167-1.78-.282-1.77-.39-1.75-.5-1.719-.606-1.684-.71-1.644-.813-1.594-.91-1.543-1.008-1.48-1.098-1.414-1.183-1.344-1.266-1.266-1.344-1.183-1.414-1.098-1.48-1.004-1.543-.914-1.594-.812-1.645-.711-1.683-.606-.7-.203H94.677l-.696.203-1.687.606-1.64.71-1.598.813-1.54.914-1.48 1.004-1.414 1.098-1.344 1.183-1.265 1.266-1.184 1.344-1.098 1.414-1.007 1.48-.91 1.543L77 15.172l-.71 1.644-.61 1.684-.5 1.719-.39 1.75-.278 1.77-.168 1.78-.059 1.79.059 1.789.168 1.78.277 1.77.39 1.747.5 1.722.61 1.684.711 1.644.813 1.594.91 1.54 1.007 1.483 1.098 1.415 1.184 1.343 1.265 1.266 1.344 1.184 1.414 1.097 1.48 1.004 1.54.914 1.597.813 1.641.71 1.687.606 1.72.5 1.745.39 1.77.282 1.781.168 1.79.055 1.788-.055 1.785-.168 1.77-.281 1.746-.39 1.719-.5 1.683-.606 1.645-.711 1.594-.813 1.543-.914 1.48-1.004 1.414-1.097 1.344-1.184 1.266-1.266 1.183-1.343 1.098-1.414 1.008-1.485.91-1.539.812-1.594.711-1.644.606-1.684.5-1.722.39-1.747.281-1.77.168-1.78zm0 0" fill="pink" fill-opacity=".4" stroke-width=".075" stroke-linecap="round" stroke-linejoin="round" stroke="red" stroke-opacity=".4" stroke-miterlimit="10"/><g clip-path="url(#i)"><path d="M304.664 143.45l-.059-1.79-.168-1.781-.28-1.77-.391-1.746-.5-1.722-.606-1.684-.71-1.64-.813-1.598-.91-1.54-1.008-1.48-1.098-1.418-1.183-1.34-1.266-1.27-1.344-1.183-1.414-1.097-1.48-1.004-1.543-.914-1.594-.813-1.645-.71-1.683-.606-1.719-.5-1.746-.39-1.77-.282-1.785-.168-1.789-.055-1.789.055-1.781.168-1.77.281-1.746.39-1.719.5-1.687.606-1.64.711-1.598.813-1.54.914-1.48 1.004-1.414 1.097-1.344 1.184-1.265 1.27-1.184 1.34-1.098 1.417-1.007 1.48-.91 1.54-.813 1.597-.715 1.641-.605 1.684-.5 1.722-.39 1.746-.278 1.77-.168 1.781-.059 1.79.059 1.788.168 1.785.277 1.766.39 1.75.5 1.719.606 1.683.715 1.645.813 1.594.91 1.543 1.007 1.48 1.098 1.414 1.184 1.344 1.265 1.266 1.344 1.183 1.414 1.098 1.48 1.008 1.54.91 1.597.812 1.641.711 1.687.606 1.72.5 1.745.39 1.77.282 1.781.168 1.79.054 1.788-.054 1.785-.168 1.77-.282 1.746-.39 1.719-.5 1.683-.606 1.645-.71 1.594-.813 1.543-.91 1.48-1.008 1.414-1.098 1.344-1.183 1.265-1.266 1.184-1.344 1.098-1.414 1.008-1.48.91-1.543.812-1.594.711-1.645.606-1.683.5-1.719.39-1.75.281-1.766.168-1.785zm0 0" fill="pink" fill-opacity=".4" stroke-width=".075" stroke-linecap="round" stroke-linejoin="round" stroke="red" stroke-opacity=".4" stroke-miterlimit="10"/></g><path d="M249.914 25.102l-.055-1.79-.168-1.78-.28-1.77-.391-1.746-.5-1.72-.606-1.687-.71-1.64-.813-1.598-.914-1.539-1.004-1.48-1.098-1.415-1.184-1.343-1.265-1.266-1.344-1.187-1.414-1.094-1.48-1.008-1.543-.91-.25-.129h-26.961l-.25.129-1.54.91-1.484 1.008-1.414 1.094-1.344 1.187-1.265 1.266-1.184 1.343-1.098 1.415-1.003 1.48-.915 1.54-.812 1.597-.71 1.64-.606 1.688-.5 1.719-.391 1.746-.281 1.77-.168 1.78-.055 1.79.055 1.789.168 1.785.281 1.765.39 1.75.5 1.72.606 1.683.711 1.644.813 1.594.914 1.543 1.003 1.48 1.098 1.415 1.184 1.343 1.265 1.266 1.344 1.184 1.414 1.097 1.485 1.008 1.539.91 1.593.813 1.645.71 1.683.606 1.723.5 1.746.39 1.77.282 1.781.168 1.79.058 1.788-.058 1.781-.168 1.77-.281 1.75-.391 1.719-.5 1.683-.605 1.645-.711 1.594-.813 1.542-.91 1.481-1.008 1.414-1.097 1.344-1.184 1.265-1.266 1.184-1.343 1.098-1.415 1.004-1.48.914-1.543.812-1.594.711-1.644.606-1.684.5-1.719.39-1.75.281-1.765.168-1.785zm0 0" fill="pink" fill-opacity=".4" stroke-width=".075" stroke-linecap="round" stroke-linejoin="round" stroke="red" stroke-opacity=".4" stroke-miterlimit="10"/><g clip-path="url(#j)"><path d="M82.152 94.566l-.058-1.789-.168-1.78-.281-1.77-.391-1.747-.496-1.718-.61-1.688-.71-1.64-.813-1.598-.91-1.54-1.008-1.48-1.098-1.414-1.183-1.343-1.266-1.266-1.344-1.184-1.414-1.097-1.48-1.008-1.543-.91-1.594-.813-1.644-.715-1.684-.605-1.719-.5-1.746-.39-1.77-.278-1.78-.168-1.794-.059-1.789.059-1.78.168-1.77.277-1.746.39-1.72.5-1.683.606-1.644.715-1.598.813-1.54.91-1.48 1.008-1.414 1.097-1.343 1.184-1.266 1.266-1.184 1.343-1.097 1.414-1.008 1.48-.91 1.54-.813 1.598-.71 1.64-.61 1.688-.5 1.718-.39 1.747-.278 1.77-.168 1.78-.059 1.79.059 1.788.168 1.786.277 1.77.391 1.745.5 1.719.61 1.684.71 1.644.813 1.594.91 1.543 1.008 1.48 1.097 1.414 1.184 1.344 1.266 1.266 1.343 1.183 1.414 1.098 1.48 1.008 1.54.91 1.598.812 1.644.711 1.684.606 1.718.5 1.747.39 1.77.282 1.78.168 1.79.058 1.792-.058 1.782-.168 1.77-.281 1.745-.391 1.719-.5 1.684-.606 1.644-.71 1.594-.813 1.543-.91 1.48-1.008 1.414-1.098 1.344-1.183 1.266-1.266 1.183-1.344 1.098-1.414 1.008-1.48.91-1.543.813-1.594.71-1.644.61-1.684.496-1.719.39-1.746.282-1.77.168-1.785zm0 0" fill="pink" fill-opacity=".4" stroke-width=".075" stroke-linecap="round" stroke-linejoin="round" stroke="red" stroke-opacity=".4" stroke-miterlimit="10"/></g><path d="M246.23 23.043l-.054-1.79-.168-1.784-.281-1.77-.391-1.746-.5-1.719-.606-1.683-.71-1.645-.813-1.594-.91-1.542-1.008-1.48-1.098-1.415-1.183-1.344-1.266-1.265-1.344-1.184L234.504 0h-33.547l-1.394 1.082-1.34 1.184-1.27 1.265-1.183 1.344-1.098 1.414-1.004 1.48-.914 1.543-.813 1.594-.71 1.645-.606 1.683-.5 1.72-.39 1.745-.282 1.77-.168 1.785-.055 1.789.055 1.789.168 1.781.281 1.77.391 1.746.5 1.719.605 1.687.711 1.64.813 1.598.914 1.54 1.004 1.48 1.098 1.414 1.183 1.344 1.27 1.265 1.34 1.184 1.417 1.098 1.48 1.007 1.54.91 1.598.813 1.64.711 1.688.61 1.719.5 1.746.39 1.77.277 1.78.168 1.79.059 1.789-.059 1.785-.168 1.765-.277 1.75-.39 1.72-.5 1.683-.61 1.644-.71 1.594-.813 1.543-.91 1.48-1.008L235.898 45l1.344-1.184 1.266-1.265 1.183-1.344 1.098-1.414 1.008-1.48.91-1.54.813-1.597.71-1.64.606-1.688.5-1.72.39-1.745.282-1.77.168-1.781zm0 0" fill="pink" fill-opacity=".4" stroke-width=".075" stroke-linecap="round" stroke-linejoin="round" stroke="red" stroke-opacity=".4" stroke-miterlimit="10"/><path d="M205.648 10.309l-.054-1.79-.168-1.78-.281-1.77-.391-1.746-.5-1.723-.54-1.5h-53.132l-.539 1.5-.5 1.723-.39 1.746-.282 1.77-.168 1.78-.055 1.79.055 1.789.168 1.78.281 1.77.391 1.747.5 1.722.605 1.684.711 1.644.813 1.594.914 1.543 1.004 1.48 1.097 1.415 1.184 1.343 1.266 1.266 1.343 1.184 1.415 1.097 1.48 1.004 1.543.914 1.594.813 1.644.71 1.684.606 1.719.5 1.75.39 1.765.282 1.785.168 1.79.055 1.788-.055 1.782-.168 1.77-.281 1.745-.39 1.723-.5 1.684-.606 1.644-.711 1.594-.813 1.539-.914 1.484-1.004 1.414-1.097 1.344-1.184 1.266-1.266 1.183-1.343 1.098-1.415 1.004-1.48.914-1.543.813-1.594.71-1.644.606-1.684.5-1.722.39-1.747.282-1.77.168-1.78zm0 0M208.695 236.375l-.054-1.79-.172-1.784-.278-1.766-.39-1.75-.5-1.719-.606-1.683-.71-1.645-.813-1.593-.914-1.543-1.004-1.48-1.098-1.415-1.183-1.344-1.27-1.265-1.34-1.184-1.418-1.098-1.48-1.004-1.54-.914-1.597-.812-1.64-.711-1.688-.605-1.719-.5-1.746-.391-1.77-.281-1.78-.168-1.79-.055-1.789.055-1.785.168-1.766.28-1.75.392-1.718.5-1.684.605-1.644.71-1.594.813-1.543.915-1.48 1.003-1.415 1.098-1.343 1.184-1.266 1.265-1.184 1.344-1.097 1.414-1.008 1.48-.91 1.544-.813 1.593-.71 1.645-.606 1.683-.5 1.72-.39 1.75-.282 1.765-.168 1.785-.055 1.789.055 1.79.168 1.78.281 1.77.39 1.746.5 1.723.294.816h53.625l.293-.816.5-1.723.39-1.746.278-1.77.172-1.78zm0 0M286.172 58.691l-.055-1.789-.168-1.78-.281-1.77-.39-1.747-.5-1.718-.606-1.688-.711-1.64-.813-1.598-.91-1.54-1.008-1.48-1.097-1.418-1.184-1.34-1.265-1.265-1.344-1.188-1.414-1.097-1.48-1.004-1.544-.91-1.593-.817-1.645-.71-1.684-.606-1.718-.5-1.75-.39-1.766-.278-1.785-.172-1.79-.055-1.788.055-1.781.172-1.77.277-1.746.39-1.719.5-1.687.606-1.64.711-1.599.817-1.539.91-1.48 1.004-1.418 1.097-1.34 1.188-1.266 1.266-1.187 1.34-1.098 1.417-1.004 1.48-.91 1.54-.816 1.598-.711 1.64-.606 1.688-.5 1.718-.39 1.747-.278 1.77-.171 1.78-.055 1.79.055 1.788.171 1.786.278 1.765.39 1.75.5 1.719.606 1.684.71 1.644.817 1.594.91 1.543 1.004 1.48 1.098 1.414 1.187 1.344 1.266 1.266 1.34 1.183 1.418 1.098 1.48 1.008 1.54.91 1.597.812 1.64.711 1.688.606 1.719.5 1.746.39 1.77.282 1.78.168 1.79.054 1.789-.054 1.785-.168 1.766-.281 1.75-.391 1.718-.5 1.684-.606 1.645-.71 1.593-.813 1.543-.91 1.48-1.008 1.415-1.098 1.344-1.183 1.265-1.266 1.184-1.344 1.097-1.414 1.008-1.48.91-1.543.813-1.594.71-1.644.606-1.684.5-1.719.391-1.75.281-1.765.168-1.786zm0 0" fill="pink" fill-opacity=".4" stroke-width=".075" stroke-linecap="round" stroke-linejoin="round" stroke="red" stroke-opacity=".4" stroke-miterlimit="10"/><g clip-path="url(#k)"><path d="M83.25 90.668l-.055-1.79-.172-1.78-.277-1.77-.39-1.746-.5-1.723-.606-1.683-.71-1.64-.817-1.599-.91-1.539-1.004-1.48L76.71 72.5l-1.188-1.34-1.265-1.27-1.34-1.183-1.418-1.098-1.48-1.004-1.54-.914-1.597-.812-1.64-.711-1.688-.606-1.72-.5-1.745-.39-1.77-.281-1.78-.168-1.79-.055-1.79.055-1.784.168-1.766.28-1.75.392-1.719.5-1.683.605-1.645.71-1.593.813-1.543.914-1.48 1.004-1.415 1.098-1.344 1.184-1.265 1.27-1.184 1.339-1.098 1.418-1.007 1.48-.91 1.54-.813 1.597-.711 1.64-.605 1.684-.5 1.723-.391 1.746-.281 1.77-.168 1.78-.055 1.79.055 1.789.168 1.785.28 1.766.392 1.75.5 1.719.605 1.683.71 1.645.813 1.593.91 1.543 1.008 1.48 1.098 1.415 1.184 1.344 1.265 1.265 1.344 1.184 1.414 1.098 1.48 1.007 1.544.91 1.593.813 1.645.711 1.683.605 1.72.5 1.75.391 1.765.281 1.785.168 1.789.055 1.79-.055 1.78-.168 1.77-.28 1.746-.392 1.719-.5 1.687-.605 1.64-.711 1.598-.812 1.54-.91 1.48-1.008 1.418-1.098 1.34-1.184 1.265-1.265 1.188-1.344 1.098-1.414 1.004-1.48.91-1.544.816-1.593.711-1.645.605-1.683.5-1.72.391-1.75.277-1.765.172-1.785zm0 0" fill="pink" fill-opacity=".4" stroke-width=".075" stroke-linecap="round" stroke-linejoin="round" stroke="red" stroke-opacity=".4" stroke-miterlimit="10"/></g><g clip-path="url(#l)"><path d="M290.648 65.691l-.058-1.789-.168-1.78-.281-1.77-.391-1.747-.496-1.718-.61-1.688-.71-1.64-.813-1.598-.91-1.54-1.008-1.48-1.098-1.414-1.183-1.343-1.266-1.266-1.344-1.184-1.414-1.097-1.48-1.008-1.543-.91-1.594-.813-1.644-.71-1.684-.61-1.719-.5-1.746-.39-1.77-.278-1.78-.168-1.793-.059-1.79.059-1.78.168-1.77.277-1.746.39-1.72.5-1.683.61-1.644.711-1.594.813-1.543.91-1.48 1.008-1.415 1.097-1.343 1.184-1.266 1.266-1.184 1.343-1.097 1.414-1.008 1.48-.91 1.54-.813 1.598-.71 1.64-.61 1.688-.496 1.718-.39 1.747-.282 1.77-.168 1.78-.058 1.79.058 1.792.168 1.782.281 1.77.391 1.745.496 1.719.61 1.684.71 1.644.813 1.594.91 1.543 1.008 1.48 1.097 1.414 1.184 1.344 1.266 1.266 1.343 1.183 1.415 1.098 1.48 1.008 1.543.91 1.594.812 1.644.711 1.684.606 1.719.5 1.746.39 1.77.282 1.78.168 1.79.058 1.793-.058 1.78-.168 1.77-.281 1.746-.391 1.72-.5 1.683-.606 1.644-.71 1.594-.813 1.543-.91 1.48-1.008 1.414-1.098 1.344-1.183 1.266-1.266 1.183-1.344 1.098-1.414 1.008-1.48.91-1.543.813-1.594.71-1.644.61-1.684.496-1.719.39-1.746.282-1.77.168-1.78zm0 0" fill="pink" fill-opacity=".4" stroke-width=".075" stroke-linecap="round" stroke-linejoin="round" stroke="red" stroke-opacity=".4" stroke-miterlimit="10"/></g><g clip-path="url(#m)"><path d="M86.59 165.95l-.055-1.79-.168-1.781-.281-1.77-.39-1.746-.5-1.718-.606-1.684-.711-1.645-.813-1.597-.914-1.54-1.004-1.48-1.097-1.414-1.184-1.344-1.27-1.265-1.34-1.184-1.417-1.097-1.48-1.008-1.54-.91-1.597-.813-1.641-.71-1.687-.61-1.72-.5-1.745-.39-1.77-.278-1.781-.168-1.79-.059-1.788.059-1.785.168-1.766.277-1.75.39-1.719.5-1.683.61-1.645.711-1.594.813-1.543.91-1.48 1.008-1.414 1.097-1.344 1.184-1.266 1.265-1.183 1.344-1.098 1.414-1.008 1.48-.91 1.54-.812 1.597-.711 1.645-.606 1.684-.5 1.718-.39 1.746-.282 1.77-.167 1.781-.055 1.79.055 1.792.168 1.781.28 1.77.391 1.746.5 1.719.606 1.683.71 1.645.813 1.594.91 1.543 1.008 1.48 1.098 1.414 1.184 1.344 1.265 1.266 1.344 1.183 1.414 1.098 1.48 1.008 1.543.91 1.594.812 1.645.711 1.683.61 1.719.496 1.75.39 1.766.282 1.785.168 1.789.058 1.789-.058 1.781-.168 1.77-.282 1.746-.39 1.719-.496 1.687-.61 1.64-.71 1.598-.813 1.54-.91 1.48-1.008 1.418-1.098 1.34-1.183 1.27-1.266 1.183-1.344 1.097-1.414 1.004-1.48.914-1.543.813-1.594.71-1.645.606-1.683.5-1.719.39-1.746.282-1.77.168-1.78zm0 0" fill="pink" fill-opacity=".4" stroke-width=".075" stroke-linecap="round" stroke-linejoin="round" stroke="red" stroke-opacity=".4" stroke-miterlimit="10"/></g><g clip-path="url(#n)"><path d="M306.242 117.309l-.055-1.79-.167-1.78-.282-1.77-.39-1.75-.5-1.719-.606-1.684-.71-1.644-.813-1.594-.91-1.543-1.008-1.48-1.098-1.414-1.183-1.344-1.266-1.266-1.344-1.183-1.414-1.098-1.48-1.004-1.543-.914-1.594-.812-1.645-.711-1.683-.606-1.719-.5-1.75-.39-1.766-.282-1.785-.168-1.789-.054-1.789.054-1.781.168-1.77.281-1.746.391-1.719.5-1.687.606-1.64.71-1.598.813-1.54.914-1.48 1.004-1.418 1.098-1.34 1.183-1.27 1.266-1.183 1.344-1.097 1.414-1.004 1.48-.914 1.543-.813 1.594-.71 1.644-.606 1.684-.5 1.719-.39 1.75-.278 1.77-.172 1.78-.055 1.79.055 1.789.172 1.78.277 1.77.39 1.747.5 1.722.606 1.684.711 1.644.813 1.594.914 1.54 1.004 1.483 1.097 1.415 1.184 1.343 1.27 1.266 1.34 1.184 1.417 1.097 1.48 1.004 1.54.914 1.597.813 1.641.71 1.688.606 1.718.5 1.746.39 1.77.282 1.781.168 1.79.055 1.788-.055 1.785-.168 1.766-.281 1.75-.39 1.719-.5 1.683-.606 1.645-.711 1.594-.813 1.543-.914 1.48-1.004 1.414-1.097 1.344-1.184 1.266-1.266 1.183-1.343 1.098-1.415 1.008-1.484.91-1.539.812-1.594.711-1.644.606-1.684.5-1.722.39-1.747.282-1.77.168-1.78zm0 0" fill="pink" fill-opacity=".4" stroke-width=".075" stroke-linecap="round" stroke-linejoin="round" stroke="red" stroke-opacity=".4" stroke-miterlimit="10"/></g><g clip-path="url(#o)"><path d="M305.957 133.742l-.055-1.789-.172-1.781-.277-1.77-.39-1.746-.5-1.719-.606-1.687-.71-1.64-.817-1.598-.91-1.54-1.008-1.48-1.094-1.414-1.188-1.344-1.265-1.265-1.344-1.184-1.414-1.097-1.48-1.008-1.54-.91-1.597-.813-1.64-.715-1.688-.605-1.719-.5-1.746-.39-1.77-.278-1.78-.168-1.79-.059-1.789.059-1.785.168-1.766.277-1.75.39-1.719.5-1.683.606-1.645.715-1.593.813-1.543.91-1.48 1.007-1.415 1.098-1.344 1.184-1.265 1.265-1.184 1.344-1.098 1.414-1.007 1.48-.91 1.54-.813 1.597-.711 1.641-.605 1.688-.5 1.718-.391 1.746-.281 1.77-.168 1.781-.059 1.79.059 1.788.168 1.785.28 1.766.392 1.75.5 1.719.605 1.683.711 1.645.812 1.594.91 1.543 1.008 1.48 1.098 1.414 1.184 1.344 1.265 1.266 1.344 1.183 1.414 1.098 1.48 1.008 1.544.91 1.593.812 1.645.711 1.683.606 1.72.5 1.75.39 1.765.282 1.785.167 1.789.06 1.79-.06 1.78-.167 1.77-.282 1.746-.39 1.719-.5 1.687-.606 1.64-.71 1.599-.813 1.539-.91 1.48-1.008 1.414-1.098 1.344-1.183 1.265-1.266 1.188-1.344 1.094-1.414 1.008-1.48.91-1.543.816-1.594.711-1.645.606-1.683.5-1.719.39-1.75.277-1.766.172-1.785zm0 0" fill="pink" fill-opacity=".4" stroke-width=".075" stroke-linecap="round" stroke-linejoin="round" stroke="red" stroke-opacity=".4" stroke-miterlimit="10"/></g><path d="M146.094 19.371l-.055-1.793-.168-1.781-.281-1.77-.39-1.746-.5-1.719-.606-1.683-.711-1.645-.813-1.593-.91-1.543-1.008-1.48-1.097-1.415L138.496 0h-41.8l-1.063 1.203-1.098 1.414-1.004 1.48-.914 1.544-.812 1.593-.711 1.645-.606 1.684-.5 1.718-.39 1.746-.278 1.77-.172 1.781-.054 1.793.054 1.79.172 1.78.278 1.77.39 1.746.5 1.719.606 1.687.71 1.64.813 1.599.914 1.539 1.004 1.48 1.098 1.414 1.183 1.344 1.27 1.266 1.34 1.183 1.418 1.098 1.48 1.008 1.54.91 1.597.812 1.64.711 1.688.61 1.719.5 1.746.39 1.77.278 1.78.167 1.79.06 1.789-.06 1.785-.167 1.766-.278 1.75-.39 1.718-.5 1.684-.61 1.644-.71 1.594-.813 1.543-.91 1.48-1.008 1.415-1.098 1.343-1.183 1.266-1.266 1.184-1.344 1.097-1.414 1.008-1.48.91-1.54.813-1.597.71-1.64.606-1.688.5-1.719.39-1.746.282-1.77.168-1.78zm0 0M119.438 211.129l-.055-1.79-.168-1.78-.281-1.77-.391-1.746-.5-1.723-.606-1.683-.71-1.64-.813-1.599-.91-1.539-1.008-1.48-1.098-1.418-1.183-1.34-1.266-1.27-1.344-1.183-1.414-1.098-1.48-1.004-1.543-.914-1.594-.812-1.644-.711-1.684-.606-1.719-.5-1.75-.39-1.765-.281-1.785-.168-1.79-.055-1.789.055-1.78.168-1.77.28-1.746.391-1.72.5-1.687.606-1.64.71-1.598.813-1.539.914-1.48 1.004-1.418 1.098-1.34 1.184-1.27 1.27-1.183 1.339-1.098 1.418-1.004 1.48-.914 1.54-.813 1.597-.71 1.64-.606 1.684-.5 1.723-.39 1.746-.282 1.77-.168 1.78-.054 1.79.054 1.789.168 1.785.281 1.766.391 1.75.5 1.719.605 1.683.711 1.645.813 1.593.914 1.543 1.004 1.48 1.098 1.415 1.183 1.344 1.27 1.265 1.34 1.184 1.418 1.097 1.48 1.008 1.539.91 1.598.813 1.64.71 1.688.606 1.719.5 1.746.391 1.77.281 1.78.168 1.79.055 1.789-.055 1.785-.168 1.765-.281 1.75-.39 1.72-.5 1.683-.606 1.644-.711 1.594-.813 1.543-.91 1.48-1.007 1.414-1.098 1.344-1.184 1.266-1.265 1.183-1.344 1.098-1.414 1.008-1.48.91-1.544.813-1.593.71-1.645.606-1.684.5-1.718.39-1.75.282-1.766.168-1.785zm0 0" fill="pink" fill-opacity=".4" stroke-width=".075" stroke-linecap="round" stroke-linejoin="round" stroke="red" stroke-opacity=".4" stroke-miterlimit="10"/><path d="M160.453 14.11l-.058-1.79-.168-1.785-.282-1.765-.39-1.75-.496-1.72-.61-1.683-.71-1.644-.813-1.594-.223-.379H107.2l-.222.379-.813 1.594-.71 1.644-.61 1.684-.5 1.719-.39 1.75-.278 1.765-.168 1.785-.059 1.79.059 1.788.168 1.782.277 1.77.39 1.745.5 1.72.61 1.687.711 1.64.813 1.598.91 1.539 1.008 1.48 1.097 1.418 1.184 1.34 1.265 1.27 1.344 1.183 1.414 1.098 1.48 1.004 1.54.914 1.597.812 1.641.711 1.688.606 1.718.5 1.746.39 1.77.282 1.781.168 1.79.054 1.792-.054 1.781-.168 1.77-.282 1.746-.39 1.719-.5 1.683-.606 1.645-.71 1.594-.813 1.543-.914 1.48-1.004 1.414-1.098 1.344-1.183 1.266-1.27 1.183-1.34 1.098-1.418 1.008-1.48.91-1.54.812-1.597.711-1.64.61-1.688.496-1.719.39-1.746.282-1.77.168-1.78zm0 0" fill="pink" fill-opacity=".4" stroke-width=".075" stroke-linecap="round" stroke-linejoin="round" stroke="red" stroke-opacity=".4" stroke-miterlimit="10"/><g clip-path="url(#p)"><path d="M306.39 125.902l-.058-1.789-.168-1.785-.277-1.766-.39-1.75-.5-1.718-.61-1.684-.711-1.644-.813-1.594-.91-1.543-1.008-1.48-1.097-1.415-1.184-1.343-1.266-1.266-1.343-1.184-1.414-1.097-1.48-1.008-1.54-.91-1.598-.813-1.644-.71-1.684-.606-1.718-.5-1.747-.39-1.77-.282-1.78-.168-1.79-.055-1.792.055-1.782.168-1.77.281-1.745.39-1.719.5-1.684.606-1.644.711-1.594.813-1.543.91-1.48 1.008-1.414 1.097-1.344 1.184-1.266 1.266-1.183 1.343-1.098 1.414-1.008 1.48-.91 1.544-.812 1.594-.711 1.644-.61 1.684-.496 1.719-.39 1.75-.282 1.765-.168 1.785-.058 1.79.058 1.788.168 1.782.282 1.77.39 1.745.496 1.719.61 1.688.71 1.64.813 1.598.91 1.539 1.008 1.48 1.098 1.418 1.183 1.34 1.266 1.266 1.344 1.187 1.414 1.098 1.48 1.004 1.543.914 1.594.812 1.644.711 1.684.606 1.719.5 1.746.39 1.77.278 1.78.172 1.794.054 1.789-.054 1.78-.172 1.77-.278 1.747-.39 1.718-.5 1.684-.606 1.644-.71 1.598-.813 1.54-.914 1.48-1.004 1.414-1.098 1.343-1.187 1.266-1.266 1.184-1.34 1.097-1.418 1.008-1.48.91-1.54.813-1.597.71-1.64.61-1.688.5-1.719.39-1.746.278-1.77.168-1.78zm0 0" fill="pink" fill-opacity=".4" stroke-width=".075" stroke-linecap="round" stroke-linejoin="round" stroke="red" stroke-opacity=".4" stroke-miterlimit="10"/></g><path d="M287.11 187.012l-.055-1.79-.168-1.78-.282-1.77-.39-1.746-.5-1.719-.606-1.684-.71-1.644-.813-1.598-.914-1.539-1.004-1.48-1.098-1.414-1.183-1.344-1.266-1.266-1.344-1.183-1.414-1.098-1.484-1.008-1.54-.91-1.593-.812-1.644-.711-1.684-.61-1.723-.5-1.746-.39-1.77-.278-1.78-.168-1.79-.058-1.789.058-1.78.168-1.77.278-1.75.39-1.72.5-1.683.61-1.644.71-1.594.813-1.543.91-1.48 1.008-1.415 1.098-1.343 1.183-1.266 1.266-1.184 1.344-1.097 1.414-1.004 1.48-.914 1.54-.813 1.597-.71 1.644-.606 1.684-.5 1.719-.39 1.746-.282 1.77-.168 1.78-.055 1.79.055 1.793.168 1.78.281 1.77.39 1.747.5 1.718.606 1.684.711 1.644.813 1.594.914 1.543 1.004 1.48 1.097 1.415 1.184 1.343 1.266 1.266 1.343 1.184 1.414 1.097 1.48 1.008 1.544.91 1.594.813 1.644.71 1.684.61 1.719.496 1.75.39 1.77.282 1.78.168 1.79.059 1.788-.059 1.782-.168 1.77-.281 1.745-.39 1.723-.497 1.684-.61 1.644-.71 1.594-.813 1.539-.91 1.484-1.008 1.414-1.097 1.344-1.184 1.266-1.266 1.183-1.343 1.098-1.414 1.004-1.48.914-1.544.812-1.594.711-1.644.606-1.684.5-1.718.39-1.747.282-1.77.168-1.78zm0 0" fill="pink" fill-opacity=".4" stroke-width=".075" stroke-linecap="round" stroke-linejoin="round" stroke="red" stroke-opacity=".4" stroke-miterlimit="10"/><g clip-path="url(#q)"><path d="M306.129 131.602l-.055-1.793-.172-1.782-.277-1.77-.39-1.745-.5-1.719-.606-1.684-.711-1.644-.813-1.594-.914-1.543-1.003-1.48-1.098-1.414-1.188-1.344-1.265-1.266-1.34-1.183-1.418-1.098-1.48-1.008-1.54-.91-1.597-.813-1.64-.71-1.688-.606-1.72-.5-1.745-.39-1.77-.282-1.781-.168-1.79-.058-1.788.058-1.785.168-1.766.281-1.75.391-1.719.5-1.683.606-1.645.71-1.594.813-1.543.91-1.48 1.008-1.414 1.098-1.344 1.183-1.265 1.266-1.184 1.344-1.098 1.414-1.007 1.48-.91 1.543-.813 1.594-.711 1.644-.606 1.684-.5 1.719-.39 1.746-.281 1.77-.168 1.78-.055 1.794.055 1.789.168 1.78.28 1.77.391 1.746.5 1.72.606 1.687.71 1.64.813 1.598.91 1.54 1.008 1.48 1.098 1.414 1.184 1.343 1.265 1.266 1.344 1.184 1.414 1.097 1.48 1.008 1.543.91 1.594.813 1.645.71 1.683.61 1.72.5 1.75.39 1.765.278 1.785.168 1.789.059 1.789-.059 1.781-.168 1.77-.277 1.746-.391 1.719-.5 1.687-.61 1.64-.71 1.598-.813 1.54-.91 1.48-1.008 1.418-1.097 1.34-1.184 1.265-1.266 1.188-1.343 1.098-1.414 1.003-1.48.914-1.54.813-1.598.71-1.64.606-1.688.5-1.719.391-1.746.277-1.77.172-1.78zm0 0" fill="pink" fill-opacity=".4" stroke-width=".075" stroke-linecap="round" stroke-linejoin="round" stroke="red" stroke-opacity=".4" stroke-miterlimit="10"/></g><g clip-path="url(#r)"><path d="M296.852 77.84l-.055-1.79-.168-1.78-.281-1.77-.391-1.746-.5-1.723-.605-1.683-.711-1.641-.813-1.598-.91-1.539-1.008-1.48-1.098-1.418-1.183-1.34-1.266-1.27-1.343-1.183-1.415-1.098-1.48-1.004-1.543-.914-1.594-.812-1.644-.711-1.684-.606-1.719-.5-1.75-.39-1.765-.282-1.785-.167-1.79-.055-1.788.055-1.782.167-1.77.282-1.745.39-1.72.5-1.687.606-1.64.71-1.598.813-1.539.914-1.48 1.004-1.418 1.098-1.34 1.184-1.266 1.269-1.187 1.34-1.094 1.418-1.008 1.48-.91 1.54-.816 1.597-.711 1.64-.606 1.684-.5 1.723-.39 1.746-.278 1.77-.172 1.78-.054 1.79.054 1.789.172 1.785.277 1.766.391 1.75.5 1.718.606 1.684.71 1.645.817 1.593.91 1.543 1.008 1.48 1.094 1.415 1.187 1.344 1.266 1.265 1.34 1.184 1.418 1.097 1.48 1.008 1.54.91 1.597.813 1.64.71 1.688.606 1.719.5 1.746.39 1.77.282 1.78.168 1.79.055 1.789-.055 1.785-.168 1.765-.281 1.75-.39 1.72-.5 1.683-.606 1.644-.711 1.594-.813 1.543-.91 1.48-1.008 1.415-1.097 1.343-1.184 1.266-1.265 1.183-1.344 1.098-1.414 1.008-1.48.91-1.544.813-1.593.71-1.645.606-1.684.5-1.718.39-1.75.282-1.766.168-1.785zm0 0" fill="pink" fill-opacity=".4" stroke-width=".075" stroke-linecap="round" stroke-linejoin="round" stroke="red" stroke-opacity=".4" stroke-miterlimit="10"/></g><path d="M112.836 205.18l-.055-1.79-.168-1.785-.281-1.765-.39-1.75-.5-1.719-.606-1.684-.711-1.644-.813-1.594-.91-1.543-1.007-1.48-1.098-1.414-1.184-1.344-1.265-1.266-1.344-1.183-1.414-1.098-1.48-1.008-1.544-.91-1.593-.812-1.645-.711-1.683-.606-1.72-.5-1.75-.39-1.765-.282-1.785-.168-1.79-.054-1.788.054-1.781.168-1.77.282-1.746.39-1.719.5-1.687.606-1.64.71-1.599.813-1.539.91-1.48 1.008-1.418 1.098-1.34 1.183-1.266 1.266-1.187 1.344-1.094 1.414-1.008 1.48-.91 1.543-.816 1.594-.711 1.644-.606 1.684-.5 1.719-.39 1.75-.278 1.765-.171 1.786-.055 1.789.055 1.789.172 1.781.277 1.77.39 1.746.5 1.718.606 1.688.71 1.64.817 1.598.91 1.54 1.008 1.48 1.094 1.418 1.188 1.34 1.265 1.269 1.34 1.184 1.418 1.097 1.48 1.004 1.54.914 1.597.813 1.64.71 1.688.606 1.719.5 1.746.39 1.77.278 1.78.172 1.79.055 1.789-.055 1.785-.172 1.766-.277 1.75-.39 1.719-.5 1.683-.606 1.645-.711 1.593-.813 1.543-.914 1.48-1.004 1.415-1.097 1.344-1.184 1.265-1.27 1.184-1.34 1.098-1.417 1.007-1.48.91-1.54.813-1.597.71-1.641.606-1.688.5-1.718.391-1.746.281-1.77.168-1.781zm0 0" fill="pink" fill-opacity=".4" stroke-width=".075" stroke-linecap="round" stroke-linejoin="round" stroke="red" stroke-opacity=".4" stroke-miterlimit="10"/><g clip-path="url(#s)"><path d="M78.613 116.723l-.058-1.79-.168-1.785-.282-1.765-.39-1.75-.496-1.719-.61-1.684-.71-1.644-.813-1.594-.91-1.543-1.008-1.48-1.098-1.414-1.183-1.344-1.266-1.266-1.344-1.183-1.414-1.098-1.48-1.008-1.543-.91-1.594-.812-1.644-.711-1.684-.606-1.719-.5-1.746-.39-1.77-.282-1.78-.168-1.794-.054-1.789.054-1.78.168-1.77.282-1.747.39-1.718.5-1.684.606-1.644.71-1.598.813-1.54.91-1.48 1.008-1.414 1.098-1.343 1.183-1.266 1.266-1.184 1.344-1.097 1.414-1.008 1.48-.91 1.543-.813 1.594-.71 1.644-.61 1.684-.5 1.719-.39 1.75-.278 1.765-.168 1.786-.059 1.789.059 1.789.168 1.781.277 1.77.39 1.746.5 1.718.61 1.688.711 1.64.813 1.598.91 1.54 1.008 1.48 1.097 1.418 1.184 1.34 1.266 1.269 1.343 1.184 1.414 1.097 1.48 1.004 1.54.914 1.598.813 1.644.71 1.684.606 1.718.5 1.747.39 1.77.278 1.78.172 1.79.055 1.792-.055 1.782-.172 1.77-.277 1.745-.39 1.719-.5 1.684-.606 1.644-.711 1.594-.813 1.543-.914 1.48-1.004 1.414-1.097 1.344-1.184 1.266-1.27 1.183-1.34 1.098-1.417 1.008-1.48.91-1.54.812-1.598.711-1.64.61-1.688.496-1.718.39-1.746.282-1.77.168-1.781zm0 0" fill="pink" fill-opacity=".4" stroke-width=".075" stroke-linecap="round" stroke-linejoin="round" stroke="red" stroke-opacity=".4" stroke-miterlimit="10"/></g><g clip-path="url(#t)"><path d="M304.531 144.18l-.058-1.79-.168-1.78-.282-1.77-.39-1.746-.496-1.719-.61-1.684-.71-1.644-.813-1.598-.91-1.539-1.008-1.48-1.098-1.414-1.183-1.344-1.266-1.266-1.344-1.183-1.414-1.098-1.48-1.008-1.543-.91-1.594-.812-1.644-.711-1.684-.61-1.719-.5-1.746-.39-1.77-.278-1.78-.168-1.794-.058-1.789.058-1.781.168-1.77.278-1.746.39-1.718.5-1.684.61-1.644.71-1.594.813-1.543.91-1.48 1.008-1.415 1.098-1.343 1.183-1.266 1.266-1.184 1.344-1.097 1.414-1.008 1.48-.91 1.54-.813 1.597-.71 1.644-.61 1.684-.5 1.719-.387 1.746-.281 1.77-.168 1.78-.059 1.79.059 1.793.168 1.78.281 1.77.387 1.747.5 1.718.61 1.684.71 1.644.813 1.594.91 1.543 1.008 1.48 1.097 1.415 1.184 1.343 1.266 1.266 1.343 1.184 1.414 1.097 1.48 1.008 1.544.91 1.594.813 1.644.71 1.684.61 1.718.496 1.747.39 1.769.282 1.781.168 1.79.059 1.792-.059 1.782-.168 1.77-.281 1.745-.39 1.719-.497 1.684-.61 1.644-.71 1.594-.813 1.543-.91 1.48-1.008 1.414-1.097 1.344-1.184 1.266-1.266 1.183-1.343 1.098-1.414 1.008-1.48.91-1.544.812-1.594.711-1.644.61-1.684.496-1.718.39-1.747.282-1.77.168-1.78zm0 0" fill="pink" fill-opacity=".4" stroke-width=".075" stroke-linecap="round" stroke-linejoin="round" stroke="red" stroke-opacity=".4" stroke-miterlimit="10"/></g><path d="M118.523 36.723l-.054-1.79-.168-1.785-.281-1.765-.391-1.75-.5-1.719-.606-1.684-.71-1.644-.813-1.594-.914-1.543-1.004-1.48-1.098-1.414-1.183-1.344-1.266-1.266-1.344-1.183-1.414-1.098-1.484-1.008-1.54-.91-1.593-.812-1.644-.711-1.684-.606-1.723-.5-1.746-.39-1.77-.282-1.78-.168-1.79-.054-1.789.054-1.785.168-1.765.282-1.75.39-1.72.5-1.683.606-1.644.71-1.594.813-1.543.91-1.48 1.008-1.415 1.098-1.343 1.183-1.266 1.266-1.183 1.344-1.098 1.414-1.004 1.48-.914 1.543-.813 1.594-.71 1.644-.606 1.684-.5 1.719-.39 1.75-.282 1.765-.168 1.786-.055 1.789.055 1.789.168 1.781.281 1.77.391 1.746.5 1.722.605 1.684.711 1.64.813 1.598.914 1.54 1.004 1.48 1.097 1.418 1.184 1.34 1.266 1.269 1.343 1.184 1.415 1.097 1.48 1.004 1.543.914 1.594.813 1.644.71 1.684.606 1.719.5 1.75.39 1.765.282 1.785.168 1.79.055 1.788-.055L93.594 65l1.77-.281 1.745-.39 1.723-.5 1.684-.606 1.644-.711 1.594-.813 1.539-.914 1.484-1.004 1.414-1.097 1.344-1.184 1.266-1.27 1.183-1.34 1.098-1.417 1.004-1.48.914-1.54.813-1.598.71-1.64.606-1.684.5-1.722.39-1.746.282-1.77.168-1.781zm0 0" fill="pink" fill-opacity=".4" stroke-width=".075" stroke-linecap="round" stroke-linejoin="round" stroke="red" stroke-opacity=".4" stroke-miterlimit="10"/><path d="M279.438 131.477c0 2.402-3.602 2.402-3.602 0 0-2.399 3.601-2.399 3.601 0M74.438 55.23c0 2.403-3.598 2.403-3.598 0 0-2.398 3.597-2.398 3.597 0M250.895 47.773c0 2.403-3.602 2.403-3.602 0 0-2.398 3.602-2.398 3.602 0M268.941 75.164c0 2.398-3.601 2.398-3.601 0 0-2.402 3.601-2.402 3.601 0M170.188 9.625c0 2.398-3.602 2.398-3.602 0s3.601-2.398 3.601 0M195.453 233.594c0 2.402-3.598 2.402-3.598 0 0-2.399 3.598-2.399 3.598 0M104.586 27.309c0 2.398-3.598 2.398-3.598 0 0-2.399 3.598-2.399 3.598 0M277.96 143.45c0 2.402-3.597 2.402-3.597 0 0-2.4 3.598-2.4 3.598 0M223.215 25.102c0 2.402-3.602 2.402-3.602 0 0-2.399 3.602-2.399 3.602 0M55.45 94.566c0 2.403-3.598 2.403-3.598 0 0-2.398 3.597-2.398 3.597 0M219.531 23.043c0 2.398-3.601 2.398-3.601 0 0-2.402 3.601-2.402 3.601 0M178.95 10.309c0 2.398-3.602 2.398-3.602 0 0-2.399 3.601-2.399 3.601 0M181.996 236.375c0 2.398-3.601 2.398-3.601 0s3.601-2.398 3.601 0M259.473 58.691c0 2.403-3.602 2.403-3.602 0 0-2.398 3.602-2.398 3.602 0" fill="red" stroke-width=".75" stroke-linecap="round" stroke-linejoin="round" stroke="red" stroke-miterlimit="10"/><path d="M56.55 90.668c0 2.402-3.6 2.402-3.6 0 0-2.398 3.6-2.398 3.6 0M263.945 65.691c0 2.403-3.597 2.403-3.597 0 0-2.398 3.597-2.398 3.597 0M59.89 165.95c0 2.402-3.6 2.402-3.6 0 0-2.4 3.6-2.4 3.6 0M279.543 117.309c0 2.398-3.602 2.398-3.602 0 0-2.399 3.602-2.399 3.602 0M279.254 133.742c0 2.403-3.598 2.403-3.598 0 0-2.398 3.598-2.398 3.598 0M119.395 19.371c0 2.399-3.602 2.399-3.602 0 0-2.402 3.602-2.402 3.602 0M92.738 211.129c0 2.402-3.601 2.402-3.601 0 0-2.399 3.601-2.399 3.601 0M133.75 14.11c0 2.398-3.598 2.398-3.598 0 0-2.403 3.598-2.403 3.598 0M279.688 125.902c0 2.399-3.598 2.399-3.598 0 0-2.402 3.598-2.402 3.598 0M260.41 187.012c0 2.402-3.601 2.402-3.601 0 0-2.399 3.601-2.399 3.601 0" fill="red" stroke-width=".75" stroke-linecap="round" stroke-linejoin="round" stroke="red" stroke-miterlimit="10"/><path d="M279.43 131.602c0 2.398-3.602 2.398-3.602 0 0-2.403 3.602-2.403 3.602 0M270.152 77.84c0 2.402-3.601 2.402-3.601 0 0-2.399 3.601-2.399 3.601 0M86.137 205.18c0 2.398-3.602 2.398-3.602 0 0-2.403 3.602-2.403 3.602 0M51.91 116.723c0 2.398-3.597 2.398-3.597 0 0-2.403 3.597-2.403 3.597 0M277.828 144.18c0 2.402-3.598 2.402-3.598 0 0-2.399 3.598-2.399 3.598 0M91.824 36.723c0 2.398-3.601 2.398-3.601 0 0-2.403 3.601-2.403 3.601 0" fill="red" stroke-width=".75" stroke-linecap="round" stroke-linejoin="round" stroke="red" stroke-miterlimit="10"/></svg>