<svg xmlns="http://www.w3.org/2000/svg" width="374pt" height="374pt" viewBox="0 0 374 374"><path fill="#fff" d="M0 0h374v374H0z"/><path d="M361.566 199.117c0 2.399-3.601 2.399-3.601 0 0-2.402 3.601-2.402 3.601 0M50.168 83.297c0 2.398-3.602 2.398-3.602 0 0-2.402 3.602-2.402 3.602 0M318.207 71.969c0 2.398-3.598 2.398-3.598 0 0-2.403 3.598-2.403 3.598 0M345.621 113.57c0 2.403-3.601 2.403-3.601 0 0-2.398 3.601-2.398 3.601 0M195.613 14.02c0 2.398-3.601 2.398-3.601 0 0-2.403 3.601-2.403 3.601 0M233.992 354.234c0 2.399-3.597 2.399-3.597 0 0-2.402 3.597-2.402 3.597 0M95.965 40.879c0 2.402-3.602 2.402-3.602 0 0-2.399 3.602-2.399 3.602 0M359.324 217.3c0 2.4-3.601 2.4-3.601 0 0-2.402 3.601-2.402 3.601 0M276.16 37.527c0 2.403-3.598 2.403-3.598 0 0-2.398 3.598-2.398 3.598 0M21.324 143.047c0 2.402-3.597 2.402-3.597 0 0-2.399 3.597-2.399 3.597 0M270.566 34.398c0 2.399-3.597 2.399-3.597 0 0-2.398 3.597-2.398 3.597 0M208.922 15.055c0 2.402-3.602 2.402-3.602 0 0-2.399 3.602-2.399 3.602 0M213.547 358.457c0 2.398-3.598 2.398-3.598 0 0-2.402 3.598-2.402 3.598 0M331.238 88.55c0 2.403-3.597 2.403-3.597 0 0-2.398 3.597-2.398 3.597 0M22.996 137.125c0 2.398-3.601 2.398-3.601 0s3.601-2.398 3.601 0M338.035 99.188c0 2.398-3.601 2.398-3.601 0 0-2.403 3.601-2.403 3.601 0M28.066 251.48c0 2.399-3.597 2.399-3.597 0 0-2.398 3.597-2.398 3.597 0M361.727 177.59c0 2.402-3.602 2.402-3.602 0 0-2.399 3.602-2.399 3.602 0" fill="red" stroke-width=".75" stroke-linecap="round" stroke-linejoin="round" stroke="red" stroke-miterlimit="10"/><path d="M361.29 202.555c0 2.402-3.599 2.402-3.599 0 0-2.399 3.598-2.399 3.598 0M118.457 28.82c0 2.399-3.598 2.399-3.598 0 0-2.398 3.598-2.398 3.598 0M77.965 320.105c0 2.403-3.598 2.403-3.598 0 0-2.398 3.598-2.398 3.598 0M140.266 20.828c0 2.402-3.602 2.402-3.602 0 0-2.398 3.602-2.398 3.602 0M361.95 190.645c0 2.398-3.602 2.398-3.602 0 0-2.399 3.601-2.399 3.601 0M332.66 283.477c0 2.398-3.598 2.398-3.598 0 0-2.403 3.598-2.403 3.598 0" fill="red" stroke-width=".75" stroke-linecap="round" stroke-linejoin="round" stroke="red" stroke-miterlimit="10"/><path d="M361.55 199.3c0 2.4-3.597 2.4-3.597 0 0-2.398 3.598-2.398 3.598 0M347.46 117.637c0 2.402-3.597 2.402-3.597 0 0-2.399 3.598-2.399 3.598 0M67.938 311.07c0 2.399-3.598 2.399-3.598 0 0-2.402 3.597-2.402 3.597 0M15.95 176.7c0 2.402-3.602 2.402-3.602 0 0-2.4 3.601-2.4 3.601 0M359.125 218.41c0 2.403-3.602 2.403-3.602 0 0-2.398 3.602-2.398 3.602 0M76.578 55.18c0 2.398-3.601 2.398-3.601 0 0-2.403 3.601-2.403 3.601 0M115.074 343.746c0 2.402-3.601 2.402-3.601 0 0-2.398 3.601-2.398 3.601 0M173.902 14.527c0 2.403-3.601 2.403-3.601 0 0-2.398 3.601-2.398 3.601 0M256.875 27.82c0 2.399-3.602 2.399-3.602 0 0-2.398 3.602-2.398 3.602 0" fill="red" stroke-width=".75" stroke-linecap="round" stroke-linejoin="round" stroke="red" stroke-miterlimit="10"/><path d="M257.445 28.066c0 2.399-3.601 2.399-3.601 0 0-2.402 3.601-2.402 3.601 0M63.098 67.957c0 2.398-3.598 2.398-3.598 0 0-2.402 3.598-2.402 3.598 0M287.965 329.035c0 2.402-3.602 2.402-3.602 0 0-2.398 3.602-2.398 3.602 0M15.652 184.965c0 2.398-3.601 2.398-3.601 0 0-2.399 3.601-2.399 3.601 0M232.496 354.633c0 2.398-3.601 2.398-3.601 0 0-2.403 3.601-2.403 3.601 0M280.188 334.16c0 2.402-3.602 2.402-3.602 0 0-2.398 3.601-2.398 3.601 0M21.95 140.738c0 2.399-3.602 2.399-3.602 0 0-2.402 3.601-2.402 3.601 0M241.781 351.93c0 2.402-3.597 2.402-3.597 0 0-2.399 3.597-2.399 3.597 0" fill="red" stroke-width=".75" stroke-linecap="round" stroke-linejoin="round" stroke="red" stroke-miterlimit="10"/><path d="M61.137 70.063c0 2.402-3.602 2.402-3.602 0 0-2.399 3.602-2.399 3.602 0M199.363 359.91c0 2.399-3.601 2.399-3.601 0 0-2.402 3.601-2.402 3.601 0M29.125 120.059c0 2.402-3.602 2.402-3.602 0 0-2.399 3.602-2.399 3.602 0M331.559 285.098c0 2.402-3.598 2.402-3.598 0 0-2.399 3.598-2.399 3.598 0M115.535 30.152c0 2.399-3.597 2.399-3.597 0 0-2.402 3.597-2.402 3.597 0M339.2 101.191c0 2.403-3.602 2.403-3.602 0 0-2.398 3.601-2.398 3.601 0M258.871 345.426c0 2.398-3.598 2.398-3.598 0 0-2.399 3.598-2.399 3.598 0M327.93 290.184c0 2.398-3.598 2.398-3.598 0 0-2.399 3.598-2.399 3.598 0M358.164 223.242c0 2.403-3.601 2.403-3.601 0 0-2.398 3.601-2.398 3.601 0M33.57 263.8c0 2.4-3.597 2.4-3.597 0 0-2.402 3.597-2.402 3.597 0M156.45 357.18c0 2.398-3.602 2.398-3.602 0 0-2.399 3.601-2.399 3.601 0M214.89 358.258c0 2.398-3.6 2.398-3.6 0 0-2.403 3.6-2.403 3.6 0M68.504 311.617c0 2.399-3.602 2.399-3.602 0 0-2.402 3.602-2.402 3.602 0" fill="red" stroke-width=".75" stroke-linecap="round" stroke-linejoin="round" stroke="red" stroke-miterlimit="10"/><path d="M159.563 357.742c0 2.403-3.598 2.403-3.598 0 0-2.398 3.597-2.398 3.597 0M57.605 74.04c0 2.397-3.601 2.397-3.601 0 0-2.4 3.601-2.4 3.601 0M279.023 39.238c0 2.403-3.597 2.403-3.597 0 0-2.398 3.597-2.398 3.597 0M255.355 27.18c0 2.402-3.601 2.402-3.601 0 0-2.399 3.601-2.399 3.601 0M54.52 77.723c0 2.402-3.602 2.402-3.602 0 0-2.399 3.602-2.399 3.602 0M162.902 15.836c0 2.398-3.597 2.398-3.597 0 0-2.402 3.597-2.402 3.597 0M250.617 25.29c0 2.398-3.601 2.398-3.601 0 0-2.4 3.601-2.4 3.601 0M15.707 191.836c0 2.398-3.602 2.398-3.602 0 0-2.399 3.602-2.399 3.602 0M203.852 359.578c0 2.399-3.598 2.399-3.598 0 0-2.402 3.598-2.402 3.598 0M128.793 349.496c0 2.402-3.602 2.402-3.602 0 0-2.398 3.602-2.398 3.602 0M22.23 234.383c0 2.398-3.597 2.398-3.597 0 0-2.399 3.597-2.399 3.597 0M95.184 332.738c0 2.399-3.598 2.399-3.598 0 0-2.398 3.598-2.398 3.598 0M18.973 153.25c0 2.402-3.602 2.402-3.602 0 0-2.398 3.602-2.398 3.602 0M16.77 167.305c0 2.398-3.602 2.398-3.602 0 0-2.403 3.602-2.403 3.602 0M98.734 39.156c0 2.399-3.597 2.399-3.597 0 0-2.398 3.597-2.398 3.597 0M34.75 107.98c0 2.399-3.602 2.399-3.602 0 0-2.398 3.602-2.398 3.602 0M148.898 18.547c0 2.402-3.597 2.402-3.597 0 0-2.399 3.597-2.399 3.597 0M49.477 289.895c0 2.398-3.598 2.398-3.598 0 0-2.403 3.598-2.403 3.598 0M282.285 332.84c0 2.398-3.601 2.398-3.601 0 0-2.402 3.601-2.402 3.601 0M63.2 306.266c0 2.398-3.598 2.398-3.598 0 0-2.399 3.597-2.399 3.597 0M303.7 57.48c0 2.403-3.602 2.403-3.602 0 0-2.398 3.601-2.398 3.601 0M31.082 258.543c0 2.398-3.602 2.398-3.602 0 0-2.402 3.602-2.402 3.602 0M26.465 126.79c0 2.401-3.602 2.401-3.602 0 0-2.4 3.602-2.4 3.602 0M28.625 121.266c0 2.398-3.602 2.398-3.602 0 0-2.399 3.602-2.399 3.602 0" fill="red" stroke-width=".75" stroke-linecap="round" stroke-linejoin="round" stroke="red" stroke-miterlimit="10"/><path d="M65.3 308.441c0 2.399-3.6 2.399-3.6 0 0-2.398 3.6-2.398 3.6 0M346.71 258.168c0 2.402-3.6 2.402-3.6 0 0-2.398 3.6-2.398 3.6 0M321.191 298.703c0 2.399-3.597 2.399-3.597 0 0-2.402 3.597-2.402 3.597 0M313.957 306.754c0 2.402-3.598 2.402-3.598 0 0-2.399 3.598-2.399 3.598 0M197.32 14.094c0 2.402-3.597 2.402-3.597 0 0-2.399 3.597-2.399 3.597 0M179.52 359.98c0 2.403-3.602 2.403-3.602 0 0-2.398 3.602-2.398 3.602 0M57.02 74.719c0 2.402-3.598 2.402-3.598 0 0-2.399 3.598-2.399 3.598 0M341.11 104.633c0 2.398-3.598 2.398-3.598 0 0-2.399 3.597-2.399 3.597 0M332.14 89.867c0 2.403-3.6 2.403-3.6 0 0-2.398 3.6-2.398 3.6 0M202.012 359.727c0 2.402-3.602 2.402-3.602 0 0-2.399 3.602-2.399 3.602 0M88.887 45.625c0 2.398-3.602 2.398-3.602 0 0-2.402 3.602-2.402 3.602 0M38.785 100.566c0 2.399-3.597 2.399-3.597 0 0-2.402 3.597-2.402 3.597 0" fill="red" stroke-width=".75" stroke-linecap="round" stroke-linejoin="round" stroke="red" stroke-miterlimit="10"/><path d="M92.363 43.23c0 2.403-3.601 2.403-3.601 0 0-2.398 3.601-2.398 3.601 0M361.742 177.91c0 2.403-3.597 2.403-3.597 0 0-2.398 3.597-2.398 3.597 0M335.938 278.398c0 2.399-3.598 2.399-3.598 0 0-2.402 3.598-2.402 3.598 0M260.367 29.36c0 2.398-3.601 2.398-3.601 0 0-2.4 3.601-2.4 3.601 0M159.363 357.707c0 2.402-3.597 2.402-3.597 0 0-2.398 3.597-2.398 3.597 0M33.043 262.719c0 2.398-3.602 2.398-3.602 0 0-2.399 3.602-2.399 3.602 0M21.09 230.164c0 2.399-3.602 2.399-3.602 0 0-2.402 3.602-2.402 3.602 0M82.719 50.188c0 2.402-3.602 2.402-3.602 0 0-2.399 3.602-2.399 3.602 0M266.55 341.8c0 2.403-3.6 2.403-3.6 0 0-2.398 3.6-2.398 3.6 0M256.45 27.64c0 2.4-3.598 2.4-3.598 0 0-2.398 3.597-2.398 3.597 0" fill="red" stroke-width=".75" stroke-linecap="round" stroke-linejoin="round" stroke="red" stroke-miterlimit="10"/><path d="M13.84 374h346.344M13.84 374h0M100.426 374h0M187.012 374h0M273.598 374h0M360.184 374h0M0 360.23V13.887M0 360.23h0M0 273.645h0M0 187.059h0M0 100.473h0M0 13.887h0M0 374h374V0H0v374" fill="none" stroke-width=".75" stroke-linecap="round" stroke-linejoin="round" stroke="#000" stroke-miterlimit="10"/><path d="M360.184 187.059l-.34-10.875-1.024-10.829-1.703-10.746-2.37-10.617-3.036-10.449-3.688-10.234-4.32-9.985-4.937-9.691-5.54-9.367-6.113-8.996-6.668-8.598-7.195-8.16-7.691-7.692-8.16-7.195-8.598-6.668-8.996-6.113-9.368-5.54-9.69-4.937-9.985-4.32-10.235-3.688-10.449-3.035-10.617-2.37-10.746-1.704-10.828-1.023-10.875-.34-10.875.34-10.828 1.023-10.746 1.703-10.618 2.371L133.5 22.36l-10.238 3.688-9.985 4.32-9.691 4.938-9.363 5.539-9 6.113-8.594 6.668-8.16 7.195-7.696 7.692-7.191 8.16-6.668 8.598-6.117 8.996-5.54 9.367-4.937 9.691L26 123.31l-3.684 10.234-3.035 10.45-2.375 10.616-1.703 10.746-1.023 10.829-.34 10.875.34 10.875 1.023 10.828 1.703 10.746 2.375 10.617 3.035 10.445L26 250.81l4.32 9.984 4.938 9.691 5.539 9.364 6.117 9 6.668 8.593 7.191 8.16 7.696 7.696 8.16 7.191 8.594 6.668 9 6.117 9.363 5.54 9.691 4.937 9.985 4.32 10.238 3.684 10.445 3.035 10.618 2.375 10.746 1.703 10.828 1.024 10.875.34 10.875-.34 10.828-1.024 10.746-1.703 10.617-2.375 10.45-3.035 10.234-3.684 9.984-4.32 9.692-4.938 9.367-5.539 8.996-6.117 8.597-6.668 8.16-7.191 7.692-7.695 7.195-8.16 6.668-8.594 6.114-9 5.539-9.364 4.937-9.691 4.32-9.984 3.688-10.239 3.035-10.445 2.371-10.617 1.703-10.746 1.024-10.828.34-10.875" fill="none" stroke-width=".375" stroke-linecap="round" stroke-linejoin="round" stroke="#000" stroke-miterlimit="10"/></svg>