<svg xmlns="http://www.w3.org/2000/svg" width="600" height="600" viewBox="0 0 450 450"><path fill="#fff" d="M0 0h450v450H0z"/><path d="M365.352 234.672c0 2.398-3.602 2.398-3.602 0 0-2.402 3.602-2.402 3.602 0M115.605 141.781c0 2.399-3.601 2.399-3.601 0 0-2.402 3.601-2.402 3.601 0M330.578 132.695c0 2.399-3.601 2.399-3.601 0 0-2.398 3.601-2.398 3.601 0M352.563 166.063c0 2.398-3.598 2.398-3.598 0 0-2.399 3.598-2.399 3.598 0M232.254 86.219c0 2.398-3.602 2.398-3.602 0 0-2.403 3.602-2.403 3.602 0M263.035 359.078c0 2.399-3.598 2.399-3.598 0 0-2.398 3.598-2.398 3.598 0M152.332 107.762c0 2.398-3.598 2.398-3.598 0 0-2.399 3.598-2.399 3.598 0M363.555 249.254c0 2.402-3.602 2.402-3.602 0 0-2.399 3.602-2.399 3.602 0M296.855 105.074c0 2.399-3.597 2.399-3.597 0 0-2.398 3.597-2.398 3.597 0M92.473 189.703c0 2.399-3.602 2.399-3.602 0 0-2.402 3.602-2.402 3.602 0M292.371 102.563c0 2.402-3.601 2.402-3.601 0 0-2.399 3.601-2.399 3.601 0M242.93 87.05c0 2.4-3.602 2.4-3.602 0 0-2.398 3.602-2.398 3.602 0M246.64 362.465c0 2.398-3.6 2.398-3.6 0 0-2.399 3.6-2.399 3.6 0M341.031 145.996c0 2.399-3.601 2.399-3.601 0 0-2.398 3.601-2.398 3.601 0M93.809 184.953c0 2.399-3.598 2.399-3.598 0 0-2.402 3.598-2.402 3.598 0M346.48 154.523c0 2.403-3.601 2.403-3.601 0 0-2.398 3.601-2.398 3.601 0M97.879 276.668c0 2.398-3.598 2.398-3.598 0s3.598-2.398 3.598 0M365.48 217.406c0 2.403-3.597 2.403-3.597 0 0-2.398 3.597-2.398 3.597 0" fill="red" stroke-width=".75" stroke-linecap="round" stroke-linejoin="round" stroke="red" stroke-miterlimit="10"/><path d="M365.133 237.43c0 2.402-3.602 2.402-3.602 0 0-2.399 3.602-2.399 3.602 0M170.375 98.09c0 2.398-3.602 2.398-3.602 0 0-2.399 3.602-2.399 3.602 0M137.898 331.707c0 2.402-3.597 2.402-3.597 0 0-2.398 3.597-2.398 3.597 0M187.863 91.68c0 2.402-3.597 2.402-3.597 0 0-2.399 3.597-2.399 3.597 0M365.66 227.875c0 2.402-3.601 2.402-3.601 0 0-2.398 3.601-2.398 3.601 0M342.172 302.328c0 2.399-3.602 2.399-3.602 0 0-2.398 3.602-2.398 3.602 0" fill="red" stroke-width=".75" stroke-linecap="round" stroke-linejoin="round" stroke="red" stroke-miterlimit="10"/><path d="M365.34 234.82c0 2.399-3.598 2.399-3.598 0 0-2.402 3.598-2.402 3.598 0M354.043 169.324c0 2.399-3.602 2.399-3.602 0 0-2.398 3.602-2.398 3.602 0M129.855 324.46c0 2.4-3.597 2.4-3.597 0 0-2.401 3.597-2.401 3.597 0M88.16 216.691c0 2.403-3.601 2.403-3.601 0 0-2.398 3.601-2.398 3.601 0M363.395 250.148c0 2.399-3.602 2.399-3.602 0 0-2.402 3.602-2.402 3.602 0M136.785 119.23c0 2.399-3.601 2.399-3.601 0 0-2.402 3.601-2.402 3.601 0M167.66 350.668c0 2.398-3.601 2.398-3.601 0s3.601-2.398 3.601 0M214.844 86.625c0 2.402-3.602 2.402-3.602 0 0-2.398 3.602-2.398 3.602 0M281.387 97.29c0 2.397-3.602 2.397-3.602 0 0-2.403 3.602-2.403 3.602 0" fill="red" stroke-width=".75" stroke-linecap="round" stroke-linejoin="round" stroke="red" stroke-miterlimit="10"/><path d="M281.844 97.484c0 2.399-3.598 2.399-3.598 0 0-2.398 3.598-2.398 3.598 0M125.977 129.477c0 2.402-3.602 2.402-3.602 0 0-2.399 3.602-2.399 3.602 0M306.32 338.871c0 2.399-3.597 2.399-3.597 0 0-2.402 3.597-2.402 3.597 0M87.922 223.32c0 2.403-3.602 2.403-3.602 0 0-2.398 3.602-2.398 3.602 0M261.836 359.398c0 2.399-3.602 2.399-3.602 0 0-2.402 3.602-2.402 3.602 0M300.086 342.98c0 2.399-3.602 2.399-3.602 0 0-2.398 3.602-2.398 3.602 0M92.973 187.848c0 2.402-3.602 2.402-3.602 0 0-2.399 3.602-2.399 3.602 0M269.285 357.23c0 2.403-3.601 2.403-3.601 0 0-2.398 3.601-2.398 3.601 0" fill="red" stroke-width=".75" stroke-linecap="round" stroke-linejoin="round" stroke="red" stroke-miterlimit="10"/><path d="M124.402 131.168c0 2.398-3.601 2.398-3.601 0 0-2.402 3.601-2.402 3.601 0M235.262 363.633c0 2.398-3.602 2.398-3.602 0 0-2.403 3.602-2.403 3.602 0M98.727 171.266c0 2.402-3.602 2.402-3.602 0 0-2.399 3.602-2.399 3.602 0M341.29 303.629c0 2.402-3.603 2.402-3.603 0 0-2.399 3.602-2.399 3.602 0M168.031 99.156c0 2.403-3.601 2.403-3.601 0 0-2.398 3.601-2.398 3.601 0M347.414 156.133c0 2.402-3.601 2.402-3.601 0 0-2.399 3.601-2.399 3.601 0M282.988 352.016c0 2.398-3.597 2.398-3.597 0 0-2.403 3.597-2.403 3.597 0M338.375 307.707c0 2.402-3.598 2.402-3.598 0 0-2.398 3.598-2.398 3.598 0M362.621 254.023c0 2.399-3.598 2.399-3.598 0 0-2.402 3.598-2.402 3.598 0M250.68 194.996c0 2.402-3.602 2.402-3.602 0 0-2.398 3.602-2.398 3.602 0" fill="red" stroke-width=".75" stroke-linecap="round" stroke-linejoin="round" stroke="red" stroke-miterlimit="10"/><path d="M0 450h450V0H0v450" fill="none" stroke-width=".75" stroke-linecap="round" stroke-linejoin="round" stroke="#000" stroke-miterlimit="10"/><path d="M250.68 194.996c0 2.402-3.602 2.402-3.602 0 0-2.398 3.602-2.398 3.602 0" fill="#0f0" stroke-width=".75" stroke-linecap="round" stroke-linejoin="round" stroke="#0f0" stroke-miterlimit="10"/><path d="M439.941 234.672l-.152-4.797-.45-4.777-.753-4.743-1.047-4.683-1.336-4.606-1.625-4.515-1.906-4.406-2.18-4.274-2.441-4.133-2.7-3.968-2.94-3.79-3.173-3.601-3.394-3.395-3.602-3.172-3.789-2.94-3.969-2.7-4.132-2.442-4.274-2.18-4.406-1.905-4.516-1.625-4.605-1.336-4.684-1.047-4.742-.754-4.777-.45-4.797-.152-4.797.153-4.777.449-4.739.754-4.683 1.047-4.61 1.336-4.515 1.625-4.403 1.906-4.277 2.18-4.129 2.44-3.969 2.7-3.793 2.941-3.597 3.172-3.395 3.395-3.176 3.601-2.941 3.79-2.695 3.968-2.442 4.133-2.18 4.274-1.906 4.406-1.625 4.515-1.34 4.606-1.046 4.683-.75 4.743-.454 4.777-.148 4.797.149 4.797.453 4.777.75 4.738 1.046 4.684 1.34 4.61 1.625 4.515 1.907 4.402 2.18 4.278 2.44 4.129 2.696 3.968 2.941 3.793 3.176 3.598 3.395 3.394 3.597 3.172 3.793 2.942 3.97 2.699 4.128 2.441 4.277 2.18 4.403 1.906 4.515 1.625 4.61 1.34 4.683 1.047 4.739.75 4.777.453 4.797.149 4.797-.149 4.777-.453 4.742-.75 4.684-1.047 4.605-1.34 4.516-1.625 4.406-1.906 4.274-2.18 4.132-2.441 3.97-2.7 3.788-2.94 3.602-3.173 3.394-3.394 3.172-3.598 2.942-3.793 2.699-3.968 2.441-4.13 2.18-4.277 1.906-4.402 1.625-4.516 1.336-4.609 1.047-4.684.754-4.738.45-4.777zm0 0M190.191 141.781l-.148-4.797-.453-4.777-.75-4.742-1.047-4.684-1.34-4.605-1.625-4.516-1.906-4.406-2.176-4.274-2.445-4.132-2.696-3.97-2.94-3.792-3.177-3.598-3.39-3.394-3.602-3.172-3.793-2.942-3.969-2.699-4.129-2.441-4.277-2.18-4.402-1.906-4.516-1.625-4.61-1.34-4.683-1.047-4.738-.75-4.777-.449-4.797-.152-4.797.152-4.778.45-4.738.75-4.683 1.046-4.61 1.34-4.515 1.625-4.403 1.906-4.277 2.18-4.133 2.441-3.969 2.7-3.789 2.94-3.601 3.173-3.395 3.394-3.172 3.598-2.941 3.793-2.695 3.969-2.446 4.132-2.18 4.274-1.902 4.406-1.629 4.516-1.336 4.605-1.046 4.684-.75 4.742-.454 4.777-.152 4.797.152 4.797.454 4.777.75 4.739 1.046 4.683 1.336 4.61 1.63 4.511 1.902 4.407 2.18 4.277 2.445 4.129 2.695 3.969 2.941 3.793 3.172 3.597 3.395 3.395 3.601 3.172 3.79 2.941 3.968 2.7 4.133 2.44 4.277 2.18 4.403 1.907 4.515 1.625 4.61 1.34 4.683 1.046 4.738.75 4.778.454 4.797.148 4.797-.148 4.777-.454 4.738-.75 4.684-1.046 4.61-1.34 4.515-1.625 4.402-1.907 4.277-2.18 4.13-2.44 3.968-2.7 3.793-2.941 3.602-3.172 3.39-3.395 3.176-3.597 2.941-3.793 2.696-3.97 2.445-4.128 2.176-4.277 1.906-4.407 1.625-4.511 1.34-4.61 1.047-4.683.75-4.739.453-4.777zm0 0" fill="pink" fill-opacity=".4" stroke-width=".075" stroke-linecap="round" stroke-linejoin="round" stroke="red" stroke-opacity=".4" stroke-miterlimit="10"/><path d="M405.168 132.695l-.152-4.797-.45-4.777-.753-4.738-1.047-4.684-1.336-4.61-1.625-4.515-1.907-4.402-2.18-4.277-2.44-4.13-2.7-3.968-2.941-3.793-3.172-3.602-3.395-3.39-3.601-3.176-3.79-2.941-3.968-2.696-4.133-2.445-4.273-2.176-4.407-1.906-4.515-1.625-4.606-1.34-4.683-1.047-4.742-.75-4.778-.453-4.797-.152-4.797.152-4.777.453-4.738.75-4.684 1.047-4.61 1.34-4.515 1.625-4.402 1.906-4.277 2.176-4.13 2.445-3.968 2.696-3.793 2.94-3.598 3.177-3.394 3.39-3.176 3.602-2.941 3.793-2.696 3.969-2.441 4.129-2.18 4.277-1.906 4.402-1.625 4.516-1.34 4.61-1.047 4.683-.75 4.738-.453 4.777-.148 4.797.148 4.797.453 4.778.75 4.738 1.047 4.683 1.34 4.61 1.625 4.515 1.906 4.403 2.18 4.277 2.441 4.129 2.696 3.969 2.941 3.793 3.176 3.601 3.394 3.39 3.598 3.177 3.793 2.941 3.969 2.695 4.129 2.446 4.277 2.175 4.402 1.907 4.516 1.625 4.61 1.34 4.683 1.046 4.738.75 4.777.454 4.797.152 4.797-.152 4.778-.454 4.742-.75 4.683-1.046 4.606-1.34 4.515-1.625 4.407-1.906 4.273-2.176 4.133-2.446 3.969-2.695 3.789-2.941 3.601-3.176 3.395-3.39 3.172-3.602 2.941-3.793 2.7-3.969 2.44-4.129 2.18-4.277 1.907-4.403 1.625-4.515 1.336-4.61 1.046-4.683.754-4.738.45-4.778zm0 0" fill="pink" fill-opacity=".4" stroke-width=".075" stroke-linecap="round" stroke-linejoin="round" stroke="red" stroke-opacity=".4" stroke-miterlimit="10"/><path d="M427.152 166.063l-.152-4.797-.45-4.778-.75-4.738-1.046-4.684-1.34-4.609-1.625-4.516-1.906-4.402-2.18-4.277-2.441-4.13-2.7-3.968-2.94-3.793-3.173-3.601-3.394-3.391-3.598-3.176-3.793-2.941-3.969-2.696-4.132-2.445-4.274-2.176-4.406-1.906-4.516-1.625-4.605-1.34-4.684-1.047-4.742-.75-4.777-.453-4.797-.152-4.793.152-4.778.453-4.742.75-4.683 1.047-4.61 1.34-4.511 1.625-4.407 1.906-4.273 2.176-4.133 2.445-3.969 2.696-3.793 2.941-3.597 3.176-3.395 3.39-3.172 3.602-2.941 3.793-2.7 3.969-2.44 4.129-2.18 4.277-1.907 4.402-1.625 4.516-1.34 4.61-1.046 4.683-.75 4.738-.45 4.778-.152 4.797.152 4.796.45 4.778.75 4.738 1.046 4.684 1.34 4.609 1.625 4.516 1.907 4.402 2.18 4.277 2.44 4.13 2.7 3.968 2.941 3.793 3.172 3.601 3.395 3.391 3.597 3.176 3.793 2.941 3.969 2.696 4.133 2.445 4.273 2.176 4.407 1.906 4.511 1.625 4.61 1.34 4.683 1.047 4.742.75 4.778.453 4.793.152 4.797-.152 4.777-.453 4.742-.75 4.684-1.047 4.605-1.34 4.516-1.625 4.406-1.906 4.274-2.176 4.132-2.445 3.97-2.696 3.792-2.941 3.598-3.176 3.394-3.39 3.172-3.602 2.942-3.793 2.699-3.969 2.441-4.129 2.18-4.277 1.906-4.402 1.625-4.516 1.34-4.61 1.047-4.683.75-4.738.449-4.778zm0 0" fill="pink" fill-opacity=".4" stroke-width=".075" stroke-linecap="round" stroke-linejoin="round" stroke="red" stroke-opacity=".4" stroke-miterlimit="10"/><path d="M306.844 86.219l-.153-4.797-.453-4.777-.75-4.739-1.047-4.683-1.34-4.61-1.624-4.515-1.907-4.403-2.175-4.277-2.446-4.133-2.695-3.969-2.942-3.789-3.175-3.601-3.39-3.395-3.602-3.172-3.79-2.941-3.972-2.695-4.13-2.446-4.276-2.18-4.403-1.902-4.515-1.629-4.61-1.336-4.683-1.046-4.739-.75-4.777-.454-4.797-.152-4.797.152-4.777.454-4.738.75-4.684 1.046-4.61 1.336-4.515 1.63-4.402 1.902-4.278 2.18-4.129 2.445-3.968 2.695-3.793 2.941-3.602 3.172-3.39 3.395-3.176 3.601-2.942 3.79-2.695 3.968-2.445 4.133-2.176 4.277-1.906 4.403-1.625 4.515-1.34 4.61-1.047 4.683-.75 4.739-.453 4.777-.153 4.797.153 4.797.453 4.777.75 4.738 1.047 4.684 1.34 4.61 1.625 4.515 1.906 4.402 2.176 4.278 2.445 4.128 2.695 3.97 2.942 3.792 3.176 3.602 3.39 3.39 3.602 3.176 3.793 2.942 3.968 2.695 4.13 2.445 4.277 2.176 4.402 1.906 4.516 1.625 4.609 1.34 4.684 1.047 4.738.75 4.777.453 4.797.148 4.797-.148 4.777-.453 4.739-.75 4.683-1.047 4.61-1.34 4.515-1.625 4.403-1.906 4.277-2.176 4.129-2.445 3.972-2.695 3.79-2.942 3.601-3.176 3.39-3.39 3.176-3.602 2.942-3.793 2.695-3.969 2.446-4.128 2.175-4.278 1.907-4.402 1.625-4.516 1.34-4.61 1.046-4.683.75-4.738.453-4.777zm0 0M337.625 359.078l-.148-4.797-.454-4.777-.75-4.738-1.046-4.684-1.34-4.61-1.625-4.515-1.907-4.402-2.18-4.278-2.44-4.129-2.7-3.968-2.941-3.793-3.172-3.602-3.395-3.39-3.597-3.176-3.793-2.942-3.969-2.695-4.129-2.445-4.277-2.176-4.407-1.906-4.511-1.625-4.61-1.34-4.683-1.047-4.738-.75-4.778-.453-4.797-.149-4.797.149-4.777.453-4.742.75-4.684 1.047-4.605 1.34-4.516 1.625-4.406 1.906-4.274 2.176-4.132 2.445-3.97 2.695-3.792 2.942-3.598 3.176-3.394 3.39-3.172 3.602-2.941 3.793-2.7 3.968-2.441 4.13-2.18 4.277-1.906 4.402-1.625 4.516-1.34 4.609-1.047 4.684-.75 4.738-.449 4.777-.152 4.797.152 4.797.45 4.777.75 4.739 1.046 4.683 1.34 4.61 1.625 4.515 1.906 4.403 2.18 4.277 2.441 4.129 2.7 3.972 2.94 3.79 3.173 3.601 3.394 3.39 3.598 3.176 3.793 2.942 3.969 2.695 4.132 2.446 4.274 2.175 4.406 1.907 4.516 1.628 4.605 1.336 4.684 1.047 4.742.75 4.777.453 4.797.153 4.797-.153 4.777-.453 4.739-.75 4.683-1.047 4.61-1.336 4.511-1.628 4.407-1.907 4.277-2.175 4.129-2.446 3.969-2.695 3.793-2.942 3.597-3.175 3.395-3.39 3.172-3.602 2.941-3.79 2.7-3.972 2.44-4.13 2.18-4.276 1.907-4.403 1.625-4.515 1.34-4.61 1.046-4.683.75-4.739.454-4.777zm0 0" fill="pink" fill-opacity=".4" stroke-width=".075" stroke-linecap="round" stroke-linejoin="round" stroke="red" stroke-opacity=".4" stroke-miterlimit="10"/><path d="M226.922 107.762l-.149-4.797-.453-4.778-.75-4.738-1.047-4.683-1.34-4.61-1.624-4.515-1.907-4.403-2.18-4.277-2.44-4.129-2.7-3.973-2.941-3.789-3.172-3.601-3.395-3.39-3.597-3.177-3.793-2.941-3.97-2.695-4.128-2.446-4.277-2.175-4.403-1.907-4.515-1.629-4.61-1.336-4.683-1.046-4.739-.75-4.777-.454-4.797-.152-4.797.152-4.777.454-4.742.75-4.684 1.046-4.605 1.336-4.516 1.63-4.406 1.906-4.274 2.175-4.132 2.446-3.97 2.695-3.792 2.941-3.598 3.176-3.394 3.39-3.172 3.602-2.942 3.79-2.699 3.972-2.441 4.129-2.18 4.277-1.906 4.403-1.625 4.515-1.34 4.61-1.047 4.683-.75 4.739-.45 4.777-.151 4.797.152 4.797.45 4.777.75 4.738 1.046 4.684 1.34 4.61 1.625 4.515 1.906 4.402 2.18 4.278 2.441 4.128 2.7 3.97 2.94 3.792 3.173 3.602 3.394 3.39 3.598 3.176 3.793 2.941 3.969 2.696 4.132 2.445 4.274 2.176 4.406 1.906 4.516 1.625 4.605 1.34 4.684 1.047 4.742.75 4.777.453 4.797.148 4.797-.148 4.777-.453 4.739-.75 4.683-1.047 4.61-1.34 4.515-1.625 4.403-1.906 4.277-2.176 4.129-2.445 3.969-2.696 3.793-2.94 3.597-3.177 3.395-3.39 3.172-3.602 2.941-3.793 2.7-3.969 2.44-4.129 2.18-4.277 1.907-4.402 1.625-4.516 1.34-4.61 1.046-4.683.75-4.738.453-4.777zm0 0M438.145 249.254l-.153-4.797-.449-4.777-.754-4.739-1.047-4.683-1.336-4.61-1.629-4.515-1.902-4.403-2.18-4.277-2.445-4.129-2.695-3.969-2.942-3.792-3.172-3.598-3.394-3.395-3.602-3.175-3.789-2.938-3.969-2.7-4.132-2.44-4.274-2.18-4.406-1.907-4.516-1.625-4.609-1.34-4.68-1.046-4.742-.75-4.777-.453-4.797-.149-4.797.149-4.777.453-4.739.75-4.683 1.047-4.61 1.34-4.515 1.624-4.403 1.907-4.277 2.18-4.129 2.44-3.969 2.7-3.793 2.938-3.601 3.175-3.39 3.395-3.176 3.597-2.942 3.793-2.695 3.97-2.442 4.128-2.18 4.277-1.906 4.403-1.625 4.515-1.34 4.61-1.046 4.683-.75 4.739-.453 4.777-.149 4.797.149 4.797.453 4.777.75 4.742 1.047 4.684 1.34 4.605 1.624 4.516 1.907 4.406 2.18 4.274 2.44 4.132 2.696 3.97 2.942 3.788 3.175 3.602 3.39 3.394 3.603 3.172 3.792 2.942 3.97 2.699 4.128 2.441 4.277 2.18 4.403 1.906 4.515 1.625 4.61 1.336 4.683 1.047 4.739.754 4.777.45 4.797.152 4.797-.153 4.777-.449 4.742-.754 4.68-1.047 4.61-1.336 4.515-1.625 4.406-1.906 4.274-2.18 4.132-2.441 3.97-2.7 3.788-2.94 3.602-3.173 3.394-3.394 3.172-3.602 2.942-3.789 2.695-3.969 2.445-4.132 2.18-4.274 1.902-4.406 1.63-4.516 1.335-4.605 1.047-4.684.754-4.742.45-4.777zm0 0" fill="pink" fill-opacity=".4" stroke-width=".075" stroke-linecap="round" stroke-linejoin="round" stroke="red" stroke-opacity=".4" stroke-miterlimit="10"/><path d="M371.445 105.074l-.152-4.797-.45-4.777-.75-4.738-1.046-4.684-1.34-4.61-1.625-4.515-1.906-4.402-2.18-4.278-2.441-4.128-2.7-3.97-2.94-3.792-3.173-3.602-3.394-3.39-3.598-3.176-3.793-2.942-3.969-2.695-4.133-2.445-4.273-2.176-4.406-1.906-4.516-1.625-4.605-1.34-4.684-1.047-4.742-.75-4.777-.453-4.797-.152-4.793.152-4.778.453-4.742.75-4.683 1.047-4.61 1.34-4.512 1.625-4.406 1.906-4.273 2.176-4.133 2.445-3.969 2.695-3.793 2.942-3.597 3.176-3.395 3.39-3.172 3.602-2.941 3.793-2.7 3.969-2.44 4.128-2.18 4.278-1.907 4.402-1.625 4.516-1.34 4.61-1.046 4.683-.75 4.738-.45 4.777-.152 4.797.152 4.797.45 4.777.75 4.739 1.046 4.683 1.34 4.61 1.625 4.515 1.906 4.403 2.18 4.277 2.442 4.129 2.699 3.969 2.941 3.793 3.172 3.601 3.395 3.39 3.597 3.177 3.793 2.941 3.969 2.695 4.133 2.446 4.273 2.175 4.406 1.907 4.512 1.625 4.61 1.34 4.683 1.046 4.742.75 4.778.453 4.793.153 4.797-.153 4.777-.453 4.742-.75 4.684-1.047 4.605-1.34 4.516-1.624 4.406-1.907 4.273-2.175 4.133-2.446 3.969-2.695 3.793-2.941 3.598-3.176 3.394-3.39 3.172-3.602 2.941-3.793 2.7-3.97 2.441-4.128 2.18-4.277 1.906-4.403 1.625-4.515 1.34-4.61 1.047-4.683.75-4.739.449-4.777zm0 0M167.059 189.703l-.149-4.797-.453-4.777-.75-4.738-1.047-4.684-1.34-4.61-1.625-4.515-1.906-4.402-2.18-4.278-2.441-4.132-2.695-3.97-2.942-3.788-3.176-3.602-3.39-3.394-3.602-3.172-3.793-2.942-3.968-2.695-4.13-2.445-4.277-2.18-4.402-1.902-4.516-1.63-4.609-1.335-4.684-1.047-4.738-.75-4.777-.453-4.797-.153-4.797.153-4.777.453-4.743.75-4.68 1.047-4.609 1.336-4.515 1.629-4.406 1.902-4.274 2.18-4.133 2.445-3.968 2.695-3.79 2.942-3.601 3.172-3.395 3.394-3.172 3.602-2.94 3.789-2.696 3.969-2.446 4.132-2.18 4.278-1.902 4.402-1.628 4.516-1.336 4.609-1.047 4.684-.754 4.738-.45 4.777-.152 4.797.153 4.797.449 4.777.754 4.739 1.047 4.683 1.336 4.61 1.628 4.515 1.903 4.403 2.18 4.277 2.445 4.129 2.695 3.969 2.942 3.793 3.171 3.601 3.395 3.39 3.601 3.177 3.79 2.94 3.968 2.696 4.133 2.446 4.274 2.175 4.406 1.907 4.515 1.625 4.61 1.34 4.68 1.046 4.742.75 4.777.453 4.797.149 4.797-.149 4.777-.453 4.738-.75 4.684-1.047 4.61-1.34 4.515-1.624 4.402-1.907 4.278-2.175 4.129-2.446 3.968-2.695 3.793-2.941 3.602-3.176 3.39-3.39 3.176-3.602 2.942-3.793 2.695-3.97 2.441-4.128 2.18-4.277 1.906-4.403 1.625-4.515 1.34-4.61 1.047-4.683.75-4.739.453-4.777zm0 0" fill="pink" fill-opacity=".4" stroke-width=".075" stroke-linecap="round" stroke-linejoin="round" stroke="red" stroke-opacity=".4" stroke-miterlimit="10"/><path d="M366.957 102.563l-.148-4.797-.454-4.778-.75-4.738-1.046-4.684-1.34-4.609-1.625-4.516-1.906-4.402-2.18-4.277-2.442-4.13-2.695-3.968-2.941-3.793-3.176-3.601-3.395-3.391-3.597-3.176-3.793-2.941-3.969-2.696-4.129-2.441-4.277-2.18-4.403-1.906-4.515-1.625-4.61-1.34-4.683-1.047-4.738-.75-4.778-.453-4.797-.148-4.797.148-4.777.453-4.742.75-4.68 1.047-4.61 1.34-4.515 1.625-4.406 1.906-4.273 2.18-4.133 2.441-3.969 2.696-3.79 2.941-3.6 3.176-3.395 3.39-3.172 3.602-2.941 3.793-2.7 3.969-2.441 4.129-2.18 4.277-1.906 4.402-1.625 4.516-1.336 4.61-1.047 4.683-.754 4.738-.449 4.778-.152 4.796.152 4.797.45 4.778.753 4.742 1.047 4.68 1.336 4.609 1.625 4.516 1.906 4.406 2.18 4.273 2.441 4.133 2.7 3.969 2.94 3.789 3.173 3.601 3.394 3.395 3.602 3.172 3.789 2.941 3.969 2.696 4.133 2.445 4.273 2.18 4.406 1.902 4.516 1.629 4.61 1.336 4.679 1.047 4.742.754 4.777.449 4.797.152 4.797-.152 4.778-.45 4.738-.753 4.683-1.047 4.61-1.336 4.515-1.63 4.403-1.901 4.277-2.18 4.129-2.445 3.969-2.696 3.793-2.941 3.597-3.172 3.395-3.395 3.176-3.601 2.941-3.79 2.695-3.968 2.442-4.133 2.18-4.273 1.906-4.406 1.625-4.516 1.34-4.61 1.046-4.68.75-4.741.454-4.778zm0 0" fill="pink" fill-opacity=".4" stroke-width=".075" stroke-linecap="round" stroke-linejoin="round" stroke="red" stroke-opacity=".4" stroke-miterlimit="10"/><path d="M317.516 87.05l-.149-4.796-.453-4.777-.75-4.739-1.047-4.683-1.34-4.61-1.625-4.515-1.906-4.403-2.18-4.277-2.441-4.129-2.7-3.969-2.937-3.793-3.175-3.601-3.395-3.39-3.598-3.177-3.793-2.941-3.968-2.695-4.13-2.446-4.277-2.175-4.402-1.907-4.516-1.625-4.609-1.34-4.684-1.046-4.738-.75-4.777-.454-4.797-.152-4.797.152-4.777.454-4.743.75-4.683 1.046-4.606 1.34-4.515 1.625-4.406 1.907-4.274 2.175-4.133 2.446-3.968 2.695-3.79 2.941-3.601 3.176-3.395 3.39-3.171 3.602-2.942 3.793-2.7 3.97-2.44 4.128-2.18 4.277-1.906 4.403-1.625 4.515-1.336 4.61-1.047 4.683-.754 4.739-.45 4.777-.152 4.797.153 4.797.449 4.777.754 4.738 1.047 4.684 1.336 4.61 1.625 4.515 1.906 4.402 2.18 4.278 2.44 4.128 2.7 3.97 2.942 3.792 3.171 3.602 3.395 3.39 3.601 3.176 3.79 2.942 3.968 2.695 4.133 2.445 4.274 2.176 4.406 1.906 4.515 1.625 4.606 1.34 4.684 1.047 4.742.75 4.777.453 4.797.152 4.797-.152 4.777-.453 4.738-.75 4.684-1.047 4.61-1.34 4.515-1.625 4.402-1.906 4.278-2.176 4.129-2.445 3.968-2.695 3.793-2.942 3.598-3.176 3.394-3.39 3.176-3.602 2.938-3.793 2.699-3.969 2.441-4.128 2.18-4.278 1.906-4.402 1.625-4.516 1.34-4.61 1.047-4.683.75-4.738.453-4.777zm0 0M321.227 362.465l-.149-4.797-.453-4.777-.75-4.739-1.047-4.683-1.34-4.61-1.625-4.515-1.906-4.403-2.18-4.277-2.441-4.129-2.695-3.973-2.942-3.789-3.176-3.601-3.39-3.39-3.602-3.177-3.793-2.94-3.968-2.696-4.13-2.446-4.277-2.175-4.402-1.907-4.516-1.625-4.61-1.34-4.683-1.046-4.738-.75-4.777-.453-4.797-.153-4.797.153-4.777.453-4.743.75-4.68 1.047-4.609 1.34-4.515 1.624-4.406 1.907-4.274 2.175-4.133 2.446-3.969 2.695-3.789 2.941-3.601 3.176-3.395 3.39-3.172 3.602-2.94 3.79-2.696 3.972-2.446 4.13-2.18 4.276-1.902 4.403-1.629 4.515-1.335 4.61-1.047 4.683-.754 4.739-.45 4.777-.152 4.797.153 4.797.449 4.777.754 4.738 1.047 4.684 1.335 4.61 1.63 4.515 1.902 4.402 2.18 4.278 2.445 4.129 2.695 3.968 2.941 3.793 3.172 3.602 3.395 3.39 3.601 3.176 3.79 2.942 3.968 2.695 4.133 2.445 4.274 2.176 4.406 1.906 4.515 1.625 4.61 1.34 4.68 1.047 4.742.75 4.777.453 4.797.152 4.797-.152 4.777-.453 4.738-.75 4.684-1.047 4.61-1.34 4.515-1.625 4.402-1.906 4.278-2.176 4.129-2.445 3.968-2.695 3.793-2.942 3.602-3.176 3.39-3.39 3.176-3.602 2.942-3.793 2.695-3.968 2.441-4.13 2.18-4.277 1.906-4.402 1.625-4.516 1.34-4.61 1.047-4.683.75-4.738.453-4.777zm0 0" fill="pink" fill-opacity=".4" stroke-width=".075" stroke-linecap="round" stroke-linejoin="round" stroke="red" stroke-opacity=".4" stroke-miterlimit="10"/><path d="M415.617 145.996l-.148-4.797-.453-4.777-.75-4.738-1.047-4.684-1.34-4.61-1.625-4.515-1.906-4.402-2.176-4.278-2.445-4.129-2.696-3.968-2.941-3.793-3.176-3.602-3.39-3.39-3.602-3.176-3.793-2.942-3.969-2.695-4.129-2.445-4.277-2.176-4.402-1.906-4.516-1.625-4.61-1.34-4.683-1.047-4.738-.75-4.778-.453-4.797-.153-4.796.153-4.778.453-4.738.75-4.684 1.047-4.609 1.34-4.516 1.625-4.402 1.906-4.277 2.176-4.13 2.445-3.972 2.695-3.789 2.942-3.601 3.175-3.391 3.391-3.176 3.602-2.941 3.793-2.696 3.968-2.445 4.13-2.18 4.277-1.902 4.402-1.629 4.516-1.336 4.609-1.047 4.684-.75 4.738-.453 4.777-.152 4.797.152 4.797.453 4.777.75 4.739 1.047 4.683 1.336 4.61 1.629 4.515 1.902 4.403 2.18 4.277 2.445 4.129 2.696 3.969 2.941 3.792 3.176 3.602 3.39 3.39 3.602 3.176 3.79 2.942 3.972 2.695 4.129 2.446 4.277 2.175 4.402 1.907 4.516 1.625 4.61 1.34 4.683 1.046 4.738.75 4.778.453 4.796.153 4.797-.153 4.778-.453 4.738-.75 4.684-1.047 4.609-1.34 4.516-1.624 4.402-1.907 4.277-2.175 4.13-2.446 3.968-2.695 3.793-2.942 3.601-3.175 3.391-3.39 3.176-3.602 2.941-3.793 2.696-3.97 2.445-4.128 2.176-4.277 1.906-4.403 1.625-4.515 1.34-4.61 1.047-4.683.75-4.739.453-4.777zm0 0M168.398 184.953l-.148-4.797-.453-4.777-.75-4.742-1.047-4.68-1.34-4.61-1.625-4.515-1.906-4.406-2.18-4.274-2.441-4.132-2.7-3.97-2.94-3.788-3.173-3.602-3.394-3.394-3.598-3.172-3.793-2.942-3.969-2.699-4.129-2.441-4.277-2.18-4.406-1.906-4.512-1.625-4.61-1.336-4.683-1.047-4.738-.754-4.781-.45-4.793-.151-4.797.152-4.778.45-4.742.753-4.683 1.047-4.606 1.336-4.515 1.625-4.407 1.906-4.273 2.18-4.133 2.441-3.969 2.7-3.793 2.94-3.597 3.173-3.395 3.394-3.172 3.602-2.941 3.789-2.7 3.969-2.44 4.132-2.18 4.274-1.907 4.406-1.625 4.516-1.34 4.609-1.046 4.68-.75 4.742-.45 4.777-.152 4.797.152 4.797.45 4.777.75 4.739 1.047 4.683 1.34 4.61 1.624 4.515 1.907 4.403 2.18 4.277 2.44 4.129 2.7 3.969 2.941 3.793 3.172 3.597 3.395 3.395 3.597 3.175 3.793 2.942 3.97 2.695 4.132 2.442 4.273 2.18 4.407 1.906 4.515 1.625 4.606 1.34 4.683 1.046 4.743.75 4.777.453 4.797.149 4.793-.149 4.78-.453 4.74-.75 4.683-1.047 4.61-1.34 4.51-1.624 4.407-1.907 4.278-2.18 4.128-2.44 3.97-2.696 3.792-2.941 3.598-3.176 3.394-3.395 3.172-3.597 2.942-3.793 2.699-3.97 2.441-4.128 2.18-4.277 1.906-4.403 1.625-4.515 1.34-4.61 1.047-4.683.75-4.739.453-4.777zm0 0" fill="pink" fill-opacity=".4" stroke-width=".075" stroke-linecap="round" stroke-linejoin="round" stroke="red" stroke-opacity=".4" stroke-miterlimit="10"/><path d="M421.07 154.523l-.152-4.796-.453-4.778-.75-4.738-1.047-4.684-1.336-4.609-1.629-4.516-1.902-4.402-2.18-4.277-2.445-4.13-2.696-3.968-2.94-3.793-3.173-3.598-3.394-3.394-3.602-3.172-3.789-2.941-3.969-2.7-4.133-2.441-4.277-2.18-4.402-1.906-4.516-1.625-4.61-1.34-4.683-1.047-4.738-.75-4.777-.453-4.797-.148-4.797.148-4.778.453-4.738.75-4.683 1.047-4.61 1.34-4.515 1.625-4.403 1.906-4.277 2.18-4.129 2.441-3.969 2.7-3.793 2.941-3.601 3.172-3.39 3.394-3.177 3.598-2.941 3.793-2.695 3.969-2.446 4.129-2.175 4.277-1.907 4.402-1.625 4.516-1.34 4.61-1.046 4.683-.75 4.738-.454 4.778-.148 4.796.148 4.797.454 4.778.75 4.742 1.046 4.683 1.34 4.606 1.625 4.516 1.906 4.406 2.176 4.273 2.446 4.133 2.695 3.969 2.941 3.793 3.176 3.597 3.39 3.395 3.602 3.172 3.793 2.941 3.969 2.7 4.129 2.44 4.277 2.18 4.403 1.907 4.515 1.625 4.61 1.34 4.683 1.047 4.738.75 4.778.449 4.797.152 4.797-.152 4.777-.45 4.738-.75 4.684-1.046 4.61-1.34 4.515-1.625 4.402-1.906 4.277-2.18 4.133-2.442 3.969-2.699 3.79-2.941 3.6-3.172 3.395-3.395 3.172-3.597 2.941-3.793 2.696-3.969 2.445-4.133 2.18-4.273 1.902-4.406 1.629-4.516 1.336-4.606 1.047-4.683.75-4.742.453-4.778zm0 0M172.469 276.668l-.153-4.797-.449-4.777-.75-4.739-1.047-4.683-1.34-4.61-1.625-4.515-1.906-4.402-2.18-4.278-2.44-4.129-2.7-3.968-2.941-3.793-3.172-3.602-3.395-3.39-3.598-3.176-3.793-2.942-3.968-2.695-4.133-2.445-4.274-2.176-4.406-1.906-4.515-1.625-4.606-1.34-4.683-1.047-4.743-.75-4.777-.453-4.797-.149-4.797.149-4.777.453-4.738.75-4.684 1.047-4.61 1.34-4.515 1.625-4.402 1.906-4.278 2.176-4.129 2.445-3.968 2.695-3.793 2.942-3.598 3.175-3.394 3.391-3.172 3.602-2.942 3.793-2.699 3.968-2.441 4.13-2.18 4.277-1.906 4.402-1.625 4.516-1.34 4.609-1.047 4.683-.75 4.739-.453 4.777-.149 4.797.149 4.797.453 4.777.75 4.738 1.047 4.684 1.34 4.61 1.625 4.515 1.906 4.402 2.18 4.278 2.441 4.129 2.7 3.972 2.94 3.79 3.173 3.6 3.394 3.392 3.598 3.175 3.793 2.942 3.968 2.695 4.13 2.445 4.277 2.176 4.402 1.906 4.516 1.63 4.609 1.335 4.684 1.047 4.738.75 4.777.453 4.797.153 4.797-.153 4.777-.453 4.743-.75 4.683-1.047 4.606-1.336 4.515-1.629 4.406-1.906 4.274-2.176 4.133-2.445 3.968-2.695 3.793-2.942 3.598-3.175 3.395-3.391 3.172-3.602 2.94-3.789 2.7-3.972 2.442-4.13 2.18-4.277 1.905-4.402 1.625-4.516 1.34-4.609 1.047-4.684.75-4.738.45-4.777zm0 0" fill="pink" fill-opacity=".4" stroke-width=".075" stroke-linecap="round" stroke-linejoin="round" stroke="red" stroke-opacity=".4" stroke-miterlimit="10"/><path d="M440.07 217.406l-.152-4.797-.45-4.777-.75-4.738-1.046-4.684-1.34-4.61-1.625-4.515-1.906-4.402-2.18-4.278-2.441-4.128-2.7-3.97-2.94-3.792-3.173-3.598-3.394-3.394-3.598-3.172-3.793-2.942-3.969-2.699-4.133-2.441-4.273-2.18-4.406-1.906-4.516-1.625-4.605-1.34-4.684-1.047-4.742-.75-4.777-.453-4.797-.148-4.797.148-4.778.453-4.738.75-4.683 1.047-4.61 1.34-4.512 1.625-4.406 1.906-4.277 2.18-4.129 2.441-3.969 2.7-3.793 2.94-3.597 3.173-3.395 3.394-3.172 3.598-2.941 3.793-2.7 3.969-2.44 4.128-2.18 4.278-1.907 4.402-1.625 4.516-1.34 4.61-1.046 4.683-.75 4.738-.454 4.777-.148 4.797.148 4.797.454 4.777.75 4.743 1.046 4.683 1.34 4.606 1.625 4.515 1.906 4.407 2.18 4.273 2.442 4.133 2.699 3.969 2.941 3.793 3.172 3.597 3.395 3.395 3.597 3.172 3.793 2.941 3.969 2.7 4.129 2.44 4.277 2.18 4.406 1.907 4.512 1.625 4.61 1.34 4.683 1.046 4.738.75 4.778.45 4.797.152 4.797-.152 4.777-.45 4.742-.75 4.684-1.047 4.605-1.34 4.516-1.624 4.406-1.907 4.273-2.18 4.133-2.44 3.969-2.7 3.793-2.941 3.598-3.172 3.394-3.395 3.172-3.597 2.941-3.793 2.7-3.97 2.441-4.132 2.18-4.273 1.906-4.407 1.625-4.515 1.34-4.606 1.047-4.683.75-4.743.449-4.777zm0 0" fill="pink" fill-opacity=".4" stroke-width=".075" stroke-linecap="round" stroke-linejoin="round" stroke="red" stroke-opacity=".4" stroke-miterlimit="10"/><path d="M439.719 237.43l-.149-4.797-.453-4.778-.75-4.738-1.047-4.683-1.34-4.61-1.625-4.515-1.906-4.403-2.176-4.277-2.445-4.129-2.695-3.969-2.942-3.793-3.175-3.601-3.391-3.39-3.602-3.177-3.793-2.941-3.968-2.695-4.13-2.446-4.277-2.175-4.402-1.907-4.515-1.625-4.61-1.34-4.683-1.046-4.739-.75-4.777-.454-4.797-.148-4.797.148-4.777.454-4.738.75-4.684 1.046-4.61 1.34-4.515 1.625-4.402 1.906-4.278 2.176-4.133 2.446-3.968 2.695-3.79 2.941-3.6 3.176-3.395 3.39-3.172 3.602-2.942 3.793-2.695 3.969-2.445 4.129-2.18 4.277-1.902 4.403-1.63 4.515-1.335 4.61-1.047 4.683-.75 4.738-.453 4.778-.153 4.797.153 4.797.453 4.777.75 4.738 1.047 4.684 1.336 4.61 1.629 4.515 1.902 4.402 2.18 4.277 2.445 4.13 2.695 3.972 2.942 3.79 3.172 3.6 3.394 3.391 3.602 3.176 3.789 2.941 3.968 2.696 4.133 2.445 4.278 2.176 4.402 1.906 4.516 1.629 4.609 1.336 4.684 1.047 4.738.75 4.777.453 4.797.152 4.797-.152 4.777-.453 4.739-.75 4.683-1.047 4.61-1.336 4.515-1.629 4.402-1.906 4.278-2.176 4.129-2.445 3.968-2.696 3.793-2.94 3.602-3.177 3.39-3.39 3.176-3.602 2.942-3.789 2.695-3.973 2.445-4.129 2.176-4.277 1.906-4.402 1.625-4.516 1.34-4.61 1.047-4.683.75-4.738.453-4.777zm0 0M244.965 98.09l-.153-4.797-.453-4.777-.75-4.739-1.047-4.683-1.34-4.61-1.624-4.515-1.907-4.403-2.175-4.277-2.446-4.129-2.695-3.972-2.941-3.79-3.176-3.601-3.39-3.39-3.602-3.177-3.793-2.94-3.97-2.696-4.128-2.446-4.277-2.175-4.403-1.907-4.515-1.625-4.61-1.34-4.683-1.046-4.739-.75-4.777-.453-4.797-.153-4.797.153-4.777.453-4.738.75-4.684 1.047-4.61 1.34-4.515 1.624-4.402 1.907-4.278 2.175-4.128 2.446-3.973 2.695-3.79 2.941-3.6 3.176-3.391 3.39-3.176 3.602-2.942 3.79-2.695 3.972-2.445 4.13-2.176 4.276-1.906 4.403-1.625 4.515-1.34 4.61-1.047 4.683-.75 4.739-.453 4.777-.152 4.797.152 4.797.453 4.777.75 4.738 1.047 4.684 1.34 4.61 1.625 4.515 1.906 4.402 2.176 4.278 2.445 4.129 2.695 3.968 2.942 3.793 3.176 3.602 3.39 3.39 3.602 3.176 3.789 2.942 3.973 2.695 4.128 2.445 4.278 2.176 4.402 1.906 4.516 1.625 4.61 1.34 4.683 1.047 4.738.75 4.777.453 4.797.152 4.797-.152 4.777-.453 4.739-.75 4.683-1.047 4.61-1.34 4.515-1.625 4.403-1.906 4.277-2.176 4.129-2.445 3.969-2.695 3.793-2.942 3.601-3.176 3.39-3.39 3.177-3.602 2.941-3.793 2.695-3.968 2.446-4.13 2.175-4.277 1.907-4.402 1.625-4.516 1.34-4.61 1.046-4.683.75-4.738.453-4.777zm0 0M212.488 331.707l-.152-4.797-.45-4.777-.753-4.738-1.047-4.684-1.336-4.61-1.625-4.511-1.906-4.406-2.18-4.278-2.441-4.129-2.7-3.968-2.941-3.793-3.172-3.598-3.394-3.395-3.602-3.171L181 269.91l-3.969-2.7-4.133-2.44-4.273-2.18-4.406-1.906-4.516-1.625-4.605-1.34-4.684-1.047-4.742-.75-4.777-.453-4.797-.149-4.797.149-4.778.453-4.738.75-4.683 1.047-4.61 1.34-4.515 1.625-4.403 1.906-4.277 2.18-4.129 2.44-3.969 2.7-3.793 2.942-3.597 3.171-3.395 3.395-3.172 3.598-2.941 3.793-2.7 3.968-2.44 4.13-2.18 4.277-1.907 4.406-1.625 4.512-1.34 4.609-1.047 4.684-.75 4.738-.453 4.777-.148 4.797.148 4.797.453 4.777.75 4.742 1.047 4.684 1.34 4.606 1.625 4.515 1.906 4.406 2.18 4.274 2.442 4.133 2.699 3.968 2.941 3.793L80.414 384l3.395 3.395 3.597 3.171 3.793 2.942 3.969 2.699 4.129 2.441 4.277 2.18 4.403 1.906 4.515 1.625 4.61 1.34 4.683 1.047 4.738.75 4.778.45 4.797.152 4.797-.153 4.777-.449 4.742-.75 4.684-1.047 4.605-1.34 4.516-1.625 4.406-1.906 4.273-2.18 4.133-2.441 3.969-2.7 3.79-2.94 3.6-3.172 3.395-3.395 3.172-3.598 2.941-3.793 2.7-3.968 2.441-4.133 2.18-4.274 1.906-4.406 1.625-4.515 1.336-4.606 1.047-4.684.754-4.742.449-4.777zm0 0" fill="pink" fill-opacity=".4" stroke-width=".075" stroke-linecap="round" stroke-linejoin="round" stroke="red" stroke-opacity=".4" stroke-miterlimit="10"/><path d="M262.453 91.68l-.152-4.797-.45-4.778-.75-4.738-1.046-4.683-1.34-4.61-1.625-4.515-1.906-4.403-2.18-4.277-2.441-4.129-2.7-3.969-2.941-3.793-3.172-3.601-3.395-3.39-3.597-3.177-3.793-2.941-3.969-2.695-4.133-2.442-4.273-2.18-4.406-1.906-4.516-1.625-4.606-1.34-4.683-1.046-4.742-.75-4.778-.454-4.797-.148-4.792.148-4.782.454-4.738.75-4.684 1.046-4.609 1.34-4.512 1.625-4.406 1.907-4.277 2.18-4.13 2.44-3.968 2.696-3.793 2.941-3.598 3.176-3.394 3.39-3.172 3.602-2.941 3.793-2.7 3.969-2.441 4.129-2.18 4.277-1.906 4.403-1.625 4.515-1.34 4.61-1.047 4.683-.75 4.738-.453 4.778-.148 4.797.148 4.797.453 4.777.75 4.742 1.047 4.68 1.34 4.61 1.625 4.515 1.906 4.406 2.18 4.273 2.441 4.133 2.7 3.969 2.941 3.79 3.172 3.6 3.394 3.395 3.598 3.172 3.793 2.941 3.969 2.696 4.129 2.445 4.277 2.18 4.406 1.902 4.512 1.629 4.61 1.336 4.683 1.047 4.738.754 4.782.449 4.792.152 4.797-.152 4.778-.45 4.742-.753 4.684-1.047 4.605-1.336 4.516-1.629 4.406-1.902 4.273-2.18 4.133-2.445 3.969-2.696 3.793-2.94 3.597-3.173 3.395-3.394 3.172-3.602 2.941-3.789 2.7-3.969 2.44-4.133 2.18-4.273 1.907-4.406 1.625-4.516 1.34-4.61 1.047-4.679.75-4.742.449-4.777zm0 0M440.246 227.875l-.148-4.797-.453-4.777-.75-4.738-1.047-4.684-1.34-4.61-1.625-4.515-1.906-4.402-2.176-4.278-2.446-4.129-2.695-3.968-2.941-3.793-3.176-3.598-3.39-3.395-3.602-3.171-3.793-2.942-3.969-2.7-4.129-2.44-4.277-2.18-4.403-1.906-4.515-1.625-4.61-1.34-4.683-1.047-4.738-.75-4.778-.453-4.797-.149-4.796.149-4.778.453-4.738.75-4.684 1.047-4.61 1.34-4.515 1.625-4.402 1.906-4.277 2.18-4.13 2.44-3.972 2.7-3.789 2.942-3.602 3.171-3.39 3.395-3.176 3.598-2.941 3.793-2.696 3.968-2.445 4.13-2.176 4.277-1.906 4.402-1.629 4.516-1.336 4.609-1.047 4.684-.75 4.738-.453 4.777-.152 4.797.152 4.797.453 4.777.75 4.742 1.047 4.684 1.336 4.605 1.629 4.516 1.906 4.406 2.176 4.274 2.445 4.133 2.696 3.968L305 276.57l3.176 3.598 3.39 3.394 3.602 3.172 3.789 2.942 3.973 2.699 4.129 2.441 4.277 2.18 4.402 1.906 4.516 1.625 4.61 1.34 4.683 1.047 4.738.75 4.777.45 4.797.152 4.797-.153 4.778-.449 4.738-.75 4.683-1.047 4.61-1.34 4.515-1.625 4.403-1.906 4.277-2.18 4.13-2.441 3.968-2.7 3.793-2.94 3.601-3.173 3.391-3.394 3.176-3.598 2.941-3.793 2.695-3.968 2.446-4.133 2.176-4.274 1.906-4.406 1.625-4.516 1.34-4.605 1.047-4.684.75-4.742.453-4.777zm0 0" fill="pink" fill-opacity=".4" stroke-width=".075" stroke-linecap="round" stroke-linejoin="round" stroke="red" stroke-opacity=".4" stroke-miterlimit="10"/><path d="M416.762 302.328l-.153-4.797-.453-4.777-.75-4.738-1.047-4.684-1.34-4.61-1.624-4.515-1.907-4.402-2.175-4.278-2.446-4.129-2.695-3.968-2.942-3.793-3.175-3.602-3.39-3.39-3.603-3.176-3.792-2.942-3.97-2.695-4.128-2.445-4.277-2.176-4.403-1.906-4.515-1.625-4.61-1.34-4.683-1.047-4.739-.75-4.777-.453-4.797-.149-4.797.149-4.777.453-4.738.75-4.684 1.047-4.61 1.34-4.515 1.625-4.402 1.906-4.278 2.176-4.129 2.445-3.972 2.695-3.79 2.942-3.6 3.176-3.392 3.39-3.175 3.602-2.942 3.793-2.695 3.968-2.445 4.13-2.176 4.277-1.906 4.402-1.625 4.516-1.34 4.609-1.047 4.684-.75 4.738-.453 4.777-.153 4.797.153 4.797.453 4.777.75 4.739 1.047 4.683 1.34 4.61 1.625 4.515 1.906 4.403 2.176 4.277 2.445 4.129 2.695 3.972 2.942 3.79 3.175 3.601 3.391 3.39 3.602 3.176 3.789 2.942 3.972 2.695 4.13 2.446 4.277 2.175 4.402 1.907 4.516 1.628 4.609 1.336 4.684 1.047 4.738.75 4.777.453 4.797.153 4.797-.153 4.777-.453 4.739-.75 4.683-1.047 4.61-1.336 4.515-1.628 4.403-1.907 4.277-2.175 4.129-2.446 3.969-2.695 3.793-2.942 3.601-3.175 3.39-3.39 3.176-3.602 2.942-3.79 2.695-3.972 2.445-4.13 2.176-4.276 1.907-4.403 1.625-4.515 1.34-4.61 1.046-4.683.75-4.739.453-4.777zm0 0" fill="pink" fill-opacity=".4" stroke-width=".075" stroke-linecap="round" stroke-linejoin="round" stroke="red" stroke-opacity=".4" stroke-miterlimit="10"/><path d="M439.93 234.82l-.149-4.797-.453-4.777-.75-4.742-1.047-4.684-1.34-4.605-1.625-4.516-1.906-4.406-2.18-4.273-2.44-4.133-2.7-3.969-2.942-3.793-3.171-3.598-3.395-3.394-3.598-3.172-3.793-2.941-3.968-2.7-4.13-2.441-4.277-2.18-4.406-1.906-4.512-1.625-4.609-1.34-4.684-1.047-4.738-.75-4.781-.449-4.793-.152-4.797.152-4.777.45-4.742.75-4.684 1.046-4.606 1.34-4.515 1.625-4.406 1.906-4.274 2.18-4.133 2.441-3.968 2.7-3.793 2.94-3.598 3.173-3.395 3.394-3.171 3.598-2.942 3.793-2.699 3.969-2.441 4.133-2.18 4.273-1.906 4.406-1.625 4.516-1.34 4.605-1.047 4.684-.75 4.742-.45 4.777-.152 4.797.153 4.797.449 4.778.75 4.738 1.047 4.683 1.34 4.61 1.625 4.512 1.906 4.406 2.18 4.277 2.441 4.129 2.7 3.969 2.94 3.793 3.172 3.597 3.395 3.395 3.598 3.172 3.793 2.941 3.968 2.7 4.133 2.44 4.274 2.18 4.406 1.907 4.515 1.625 4.606 1.34 4.684 1.046 4.742.75 4.777.454 4.797.148 4.793-.148 4.781-.454 4.738-.75 4.684-1.046 4.61-1.34 4.511-1.625 4.406-1.906 4.278-2.18 4.129-2.442 3.968-2.699 3.793-2.941 3.598-3.172 3.395-3.395 3.171-3.597 2.942-3.793 2.7-3.969 2.44-4.129 2.18-4.277 1.906-4.406 1.625-4.512 1.34-4.61 1.047-4.683.75-4.738.453-4.778zm0 0" fill="pink" fill-opacity=".4" stroke-width=".075" stroke-linecap="round" stroke-linejoin="round" stroke="red" stroke-opacity=".4" stroke-miterlimit="10"/><path d="M428.629 169.324l-.149-4.797-.453-4.777-.75-4.738-1.047-4.684-1.34-4.61-1.624-4.515-1.907-4.402-2.18-4.278-2.44-4.128-2.7-3.973-2.937-3.79-3.176-3.6-3.395-3.391-3.597-3.176-3.793-2.942-3.97-2.695-4.128-2.445-4.277-2.176-4.403-1.906-4.515-1.63-4.61-1.335-4.683-1.047-4.739-.75-4.777-.453-4.797-.152-4.797.152-4.777.453-4.742.75-4.684 1.047-4.605 1.336-4.516 1.629-4.406 1.906-4.274 2.176-4.132 2.445-3.97 2.695-3.788 2.942-3.602 3.176-3.394 3.39-3.172 3.602-2.942 3.789-2.699 3.973-2.441 4.128-2.18 4.278-1.906 4.402-1.625 4.516-1.336 4.61-1.047 4.683-.754 4.738-.45 4.777-.151 4.797.152 4.797.45 4.777.753 4.739 1.047 4.683 1.336 4.61 1.625 4.515 1.906 4.403 2.18 4.277 2.441 4.129 2.7 3.969 2.94 3.793 3.173 3.601 3.394 3.39 3.602 3.177 3.789 2.941 3.969 2.695 4.132 2.446 4.274 2.175 4.406 1.907 4.516 1.625 4.605 1.34 4.684 1.046 4.742.75 4.777.453 4.797.149 4.797-.149 4.777-.453 4.739-.75 4.683-1.047 4.61-1.34 4.515-1.624 4.403-1.907 4.277-2.175 4.129-2.446 3.969-2.695 3.793-2.941 3.597-3.176 3.395-3.39 3.176-3.602 2.937-3.793 2.7-3.97 2.44-4.128 2.18-4.277 1.907-4.403 1.625-4.515 1.34-4.61 1.046-4.683.75-4.739.453-4.777zm0 0M204.445 324.46l-.148-4.796-.453-4.777-.75-4.742-1.047-4.684-1.34-4.606-1.625-4.515-1.906-4.406-2.18-4.274-2.441-4.133-2.7-3.968-2.94-3.793-3.173-3.598-3.394-3.395-3.598-3.171-3.793-2.942-3.969-2.7-4.129-2.44-4.277-2.18-4.406-1.906-4.512-1.625-4.61-1.34-4.683-1.047-4.738-.75-4.781-.45-4.793-.152-4.797.153-4.778.449-4.742.75-4.683 1.047-4.606 1.34-4.516 1.625-4.406 1.906-4.273 2.18-4.133 2.44-3.969 2.7-3.793 2.942-3.597 3.171-3.395 3.395-3.172 3.598-2.941 3.793-2.7 3.968-2.44 4.133-2.18 4.274-1.907 4.406-1.625 4.515-1.34 4.606-1.046 4.684-.75 4.742-.45 4.777-.152 4.797.152 4.793.45 4.781.75 4.738 1.046 4.684 1.34 4.61 1.625 4.511 1.907 4.406 2.18 4.278 2.44 4.129 2.7 3.968 2.941 3.793 3.172 3.598 3.395 3.395 3.597 3.171 3.793 2.942 3.969 2.699 4.133 2.441 4.273 2.18 4.406 1.906 4.516 1.625 4.606 1.34 4.683 1.047 4.742.75 4.778.453 4.797.149 4.793-.149 4.78-.453 4.74-.75 4.683-1.047 4.61-1.34 4.51-1.625 4.407-1.906 4.277-2.18 4.13-2.441 3.968-2.7 3.793-2.94 3.598-3.172 3.394-3.395 3.172-3.598 2.941-3.793 2.7-3.968 2.441-4.13 2.18-4.277 1.906-4.406 1.625-4.512 1.34-4.609 1.047-4.684.75-4.738.453-4.781zm0 0" fill="pink" fill-opacity=".4" stroke-width=".075" stroke-linecap="round" stroke-linejoin="round" stroke="red" stroke-opacity=".4" stroke-miterlimit="10"/><path d="M162.75 216.691l-.152-4.796-.453-4.778-.75-4.738-1.047-4.684-1.336-4.61-1.63-4.515-1.905-4.402-2.176-4.277-2.446-4.13-2.695-3.968L145.22 168l-3.176-3.598-3.39-3.394-3.602-3.172-3.79-2.941-3.972-2.7-4.129-2.441-4.277-2.18-4.403-1.906-4.515-1.625-4.61-1.34-4.683-1.047-4.738-.75-4.778-.453-4.797-.148-4.796.148-4.778.453-4.738.75-4.684 1.047-4.61 1.34-4.515 1.625-4.402 1.906-4.277 2.18-4.13 2.441-3.968 2.7-3.793 2.94-3.602 3.173-3.39 3.394L27.5 168l-2.941 3.793-2.696 3.969-2.445 4.129-2.176 4.277-1.906 4.402-1.625 4.516-1.34 4.61-1.047 4.683-.75 4.738-.453 4.778-.148 4.796.148 4.797.453 4.778.75 4.742 1.047 4.683 1.34 4.606 1.625 4.516 1.906 4.406 2.176 4.273 2.445 4.133 2.696 3.969 2.941 3.793 3.176 3.597 3.39 3.395 3.602 3.172 3.793 2.941 3.969 2.7 4.129 2.44 4.277 2.18 4.402 1.907 4.516 1.625 4.61 1.34 4.683 1.046 4.738.75 4.778.45 4.796.152 4.797-.152 4.778-.45 4.738-.75 4.683-1.046 4.61-1.34 4.515-1.625 4.403-1.906 4.277-2.18 4.13-2.442 3.972-2.699 3.789-2.941 3.601-3.172 3.391-3.395 3.176-3.597 2.941-3.793 2.695-3.969 2.446-4.133 2.176-4.273 1.906-4.406 1.629-4.516 1.336-4.606 1.047-4.683.75-4.742.453-4.778zm0 0M437.98 250.148l-.148-4.796-.453-4.778-.75-4.742-1.047-4.684-1.34-4.605-1.625-4.516-1.906-4.406-2.176-4.273-2.445-4.133-2.695-3.969-2.942-3.793-3.176-3.598-3.39-3.394-3.602-3.172-3.793-2.941-3.969-2.7-4.128-2.441-4.278-2.18-4.402-1.906-4.516-1.625-4.61-1.34-4.683-1.047-4.738-.75-4.777-.449-4.797-.152-4.797.152-4.777.45-4.739.75-4.683 1.046-4.61 1.34-4.515 1.625-4.403 1.906-4.277 2.18-4.129 2.441-3.973 2.7-3.789 2.941-3.601 3.172-3.39 3.394-3.177 3.598-2.941 3.793-2.695 3.969-2.446 4.133-2.175 4.273-1.907 4.406-1.629 4.516-1.336 4.605-1.046 4.684-.75 4.742-.454 4.778-.152 4.796.152 4.793.454 4.778.75 4.742 1.046 4.684 1.336 4.609 1.63 4.512 1.906 4.406 2.175 4.273 2.446 4.133 2.695 3.969 2.941 3.793 3.176 3.598 3.39 3.394 3.602 3.172 3.79 2.941 3.972 2.7 4.129 2.44 4.277 2.18 4.403 1.907 4.515 1.625 4.61 1.34 4.683 1.047 4.739.75 4.777.449 4.797.152 4.797-.152 4.777-.45 4.738-.75 4.684-1.046 4.61-1.34 4.515-1.625 4.402-1.906 4.278-2.18 4.128-2.441 3.97-2.7 3.792-2.941 3.602-3.172 3.39-3.394 3.176-3.598 2.942-3.793 2.695-3.969 2.445-4.133 2.176-4.273 1.906-4.406 1.625-4.512 1.34-4.61 1.047-4.683.75-4.742.453-4.778zm0 0" fill="pink" fill-opacity=".4" stroke-width=".075" stroke-linecap="round" stroke-linejoin="round" stroke="red" stroke-opacity=".4" stroke-miterlimit="10"/><path d="M211.375 119.23l-.152-4.796-.453-4.778-.75-4.738-1.047-4.684-1.34-4.609-1.625-4.516-1.906-4.402-2.176-4.277-2.446-4.133-2.695-3.969-2.941-3.789-3.176-3.602-3.39-3.394-3.602-3.172-3.793-2.941-3.969-2.696-4.129-2.445-4.277-2.18-4.403-1.902-4.515-1.629-4.61-1.336-4.683-1.047-4.738-.75-4.778-.453-4.797-.152-4.797.152-4.777.453-4.738.75-4.684 1.047-4.61 1.336-4.515 1.629-4.402 1.902-4.277 2.18-4.13 2.445-3.968 2.696-3.793 2.941-3.602 3.172-3.39 3.395-3.176 3.601-2.941 3.79-2.696 3.968-2.445 4.133-2.176 4.277-1.906 4.402-1.625 4.516-1.34 4.61-1.047 4.683-.75 4.738-.453 4.778-.152 4.796.152 4.797.453 4.778.75 4.738 1.047 4.684 1.34 4.609 1.625 4.516 1.906 4.402 2.176 4.277 2.445 4.13 2.696 3.968 2.941 3.793 3.176 3.601 3.39 3.391 3.602 3.176 3.793 2.941 3.969 2.696 4.129 2.445 4.277 2.176 4.402 1.906 4.516 1.625 4.61 1.34 4.683 1.047 4.738.75 4.778.453 4.796.148 4.797-.148 4.778-.453 4.738-.75 4.683-1.047 4.61-1.34 4.515-1.625 4.403-1.906 4.277-2.176 4.13-2.445 3.968-2.696 3.793-2.941 3.601-3.176 3.391-3.39 3.176-3.602 2.941-3.793 2.695-3.969 2.446-4.129 2.176-4.277 1.906-4.402 1.625-4.516 1.34-4.61 1.047-4.683.75-4.738.453-4.778zm0 0M242.246 350.668l-.148-4.797-.453-4.777-.75-4.739-1.047-4.683-1.34-4.61-1.625-4.515-1.906-4.402-2.176-4.278-2.446-4.129-2.695-3.968-2.941-3.793-3.176-3.602-3.39-3.39-3.602-3.176-3.793-2.942-3.969-2.695-4.129-2.445-4.277-2.176-4.403-1.906-4.515-1.625-4.61-1.34-4.683-1.047-4.738-.75-4.778-.453-4.797-.153-4.797.153-4.777.453-4.738.75-4.684 1.047-4.61 1.34-4.515 1.625-4.402 1.906-4.277 2.176-4.133 2.445-3.969 2.695-3.789 2.942-3.602 3.175-3.394 3.391-3.172 3.602-2.941 3.793-2.696 3.968-2.445 4.13-2.18 4.277-1.902 4.402-1.629 4.515-1.336 4.61-1.047 4.683-.75 4.739-.453 4.777-.152 4.797.152 4.797.453 4.777.75 4.738 1.047 4.684 1.336 4.61 1.629 4.515 1.902 4.402 2.18 4.278 2.445 4.129 2.696 3.968L107 399.36l3.172 3.602 3.394 3.39 3.602 3.176 3.789 2.942 3.969 2.695 4.133 2.445 4.277 2.176 4.402 1.906 4.516 1.625 4.61 1.34 4.683 1.047 4.738.75 4.778.453 4.796.153 4.797-.153 4.778-.453 4.738-.75 4.683-1.047 4.61-1.34 4.515-1.625 4.403-1.906 4.277-2.176 4.13-2.445 3.968-2.695 3.793-2.942 3.601-3.175 3.391-3.391 3.176-3.602 2.941-3.793 2.695-3.968 2.446-4.13 2.176-4.277 1.906-4.402 1.625-4.516 1.34-4.609 1.047-4.684.75-4.738.453-4.777zm0 0" fill="pink" fill-opacity=".4" stroke-width=".075" stroke-linecap="round" stroke-linejoin="round" stroke="red" stroke-opacity=".4" stroke-miterlimit="10"/><path d="M289.43 86.625l-.149-4.793-.453-4.777-.75-4.743-1.047-4.683-1.34-4.61-1.625-4.511-1.906-4.406-2.18-4.274-2.44-4.133-2.696-3.968-2.942-3.793-3.175-3.598-3.395-3.395-3.598-3.171-3.793-2.942-3.968-2.7-4.13-2.44-4.277-2.18-4.402-1.906-4.516-1.625-4.609-1.34-4.684-1.047-4.738-.75-4.777-.45-4.797-.152-4.797.153-4.777.449-4.742.75-4.684 1.047-4.606 1.34-4.515 1.625-4.406 1.906-4.274 2.18-4.133 2.44-3.968 2.7-3.79 2.942-3.601 3.171-3.395 3.395-3.171 3.598-2.942 3.793-2.699 3.968-2.441 4.133-2.18 4.274-1.906 4.406-1.625 4.512-1.336 4.609-1.047 4.683-.754 4.743-.45 4.777-.152 4.793.153 4.797.449 4.777.754 4.742 1.047 4.684 1.336 4.605 1.625 4.516 1.906 4.406 2.18 4.274 2.441 4.133 2.7 3.968 2.94 3.793 3.172 3.598 3.395 3.394 3.602 3.172 3.789 2.942 3.968 2.699 4.133 2.441 4.274 2.18 4.406 1.906 4.516 1.625 4.605 1.34 4.684 1.047 4.742.75 4.777.45 4.797.152 4.797-.153 4.777-.449 4.738-.75 4.684-1.047 4.61-1.34 4.515-1.625 4.402-1.906 4.278-2.18 4.129-2.441 3.968-2.7 3.793-2.94 3.598-3.173 3.395-3.394 3.175-3.598 2.942-3.793 2.695-3.968 2.441-4.133 2.18-4.274 1.906-4.406 1.625-4.516 1.34-4.605 1.047-4.684.75-4.742.453-4.777zm0 0" fill="pink" fill-opacity=".4" stroke-width=".075" stroke-linecap="round" stroke-linejoin="round" stroke="red" stroke-opacity=".4" stroke-miterlimit="10"/><path d="M355.977 97.29l-.153-4.798-.449-4.777-.754-4.742-1.047-4.684-1.336-4.605-1.625-4.516-1.906-4.406-2.18-4.274-2.441-4.133-2.7-3.968-2.94-3.79-3.173-3.6-3.394-3.395-3.602-3.172-3.789-2.942-3.968-2.699-4.133-2.441-4.274-2.18-4.406-1.906-4.516-1.625-4.609-1.34-4.68-1.043-4.742-.754-4.777-.45-4.797-.152-4.797.153-4.777.449-4.739.754-4.683 1.043-4.61 1.34-4.515 1.625-4.403 1.906-4.277 2.18-4.129 2.441-3.969 2.7-3.792 2.94-3.598 3.173-3.395 3.394-3.175 3.602-2.942 3.789-2.695 3.968-2.442 4.133-2.18 4.274-1.905 4.406-1.625 4.516-1.34 4.605-1.047 4.684-.75 4.742-.453 4.777-.149 4.797.149 4.797.453 4.777.75 4.739 1.047 4.683 1.34 4.61 1.625 4.515 1.906 4.403 2.18 4.277 2.44 4.129 2.696 3.969 2.942 3.792 3.175 3.598 3.395 3.395 3.598 3.172 3.792 2.94 3.97 2.7 4.128 2.442 4.278 2.18 4.402 1.905 4.515 1.625 4.61 1.34 4.683 1.047 4.739.75 4.777.453 4.797.149 4.797-.149 4.777-.453 4.742-.75 4.68-1.047 4.61-1.34 4.515-1.625 4.406-1.906 4.274-2.18 4.133-2.44 3.968-2.7 3.79-2.941 3.6-3.172 3.395-3.395 3.172-3.598 2.942-3.792 2.699-3.97 2.441-4.128 2.18-4.278 1.906-4.402 1.625-4.515 1.336-4.61 1.047-4.683.754-4.739.45-4.777zm0 0" fill="pink" fill-opacity=".4" stroke-width=".075" stroke-linecap="round" stroke-linejoin="round" stroke="red" stroke-opacity=".4" stroke-miterlimit="10"/><path d="M356.434 97.484l-.153-4.796-.449-4.778-.75-4.738-1.047-4.684-1.34-4.61-1.625-4.515-1.906-4.402-2.18-4.277-2.441-4.13-2.7-3.968-2.94-3.793-3.173-3.602-3.394-3.39-3.598-3.176-3.793-2.941-3.968-2.696-4.133-2.445-4.274-2.176-4.406-1.906-4.516-1.625-4.605-1.34-4.684-1.047-4.742-.75-4.777-.453-4.797-.152-4.793.152-4.781.453-4.739.75-4.683 1.047-4.61 1.34-4.511 1.625-4.406 1.906-4.278 2.176-4.129 2.445-3.968 2.696-3.793 2.941-3.598 3.176-3.395 3.39-3.172 3.602-2.94 3.793-2.7 3.969-2.442 4.129-2.18 4.277-1.905 4.402-1.625 4.516-1.34 4.61-1.047 4.683-.75 4.738-.453 4.778-.149 4.796.149 4.797.453 4.778.75 4.738 1.047 4.683 1.34 4.61 1.625 4.515 1.906 4.403 2.18 4.277 2.44 4.13 2.7 3.968 2.941 3.793 3.172 3.601 3.395 3.391 3.598 3.176 3.793 2.941 3.968 2.695 4.13 2.446 4.277 2.176 4.406 1.906 4.512 1.625 4.609 1.34 4.683 1.047 4.739.75 4.781.453 4.793.152 4.797-.152 4.777-.453 4.742-.75 4.684-1.047 4.605-1.34 4.516-1.625 4.406-1.906 4.274-2.176 4.133-2.446 3.968-2.695 3.793-2.941 3.598-3.176 3.394-3.39 3.172-3.602 2.942-3.793 2.699-3.969 2.441-4.129 2.18-4.277 1.906-4.403 1.625-4.515 1.34-4.61 1.047-4.683.75-4.738.45-4.778zm0 0M200.563 129.477l-.149-4.797-.453-4.778-.75-4.738-1.047-4.684-1.34-4.609-1.625-4.516-1.906-4.402-2.176-4.277-2.445-4.13-2.695-3.968-2.942-3.793-3.176-3.597-3.39-3.395-3.602-3.176-3.793-2.941-3.969-2.696-4.128-2.44-4.278-2.18-4.402-1.907-4.516-1.625-4.61-1.34-4.683-1.047-4.738-.75-4.777-.453-4.797-.148-4.797.148-4.777.453-4.739.75-4.683 1.047-4.61 1.34-4.515 1.625-4.403 1.906-4.277 2.18-4.129 2.441-3.973 2.696-3.789 2.941-3.601 3.176-3.39 3.394-3.177 3.598-2.941 3.793-2.695 3.969-2.446 4.129-2.175 4.277-1.907 4.402-1.629 4.516-1.336 4.61-1.046 4.683-.75 4.738-.453 4.778-.153 4.797.153 4.796.453 4.778.75 4.742 1.047 4.684 1.335 4.605 1.63 4.516 1.906 4.406 2.175 4.273 2.446 4.133 2.695 3.969 2.941 3.789 3.176 3.602 3.39 3.394 3.602 3.172 3.79 2.941 3.972 2.7 4.129 2.441 4.277 2.18 4.403 1.906 4.515 1.625 4.61 1.336 4.683 1.047 4.739.754 4.777.449 4.797.152 4.797-.152 4.777-.45 4.738-.753 4.684-1.047 4.61-1.336 4.515-1.625 4.402-1.906 4.278-2.18 4.128-2.441 3.97-2.7 3.792-2.941 3.602-3.172 3.39-3.394 3.176-3.602 2.942-3.79 2.695-3.968 2.445-4.133 2.176-4.273 1.906-4.406 1.625-4.516 1.34-4.605 1.047-4.684.75-4.742.453-4.778zm0 0M380.91 338.871l-.148-4.797-.453-4.777-.75-4.742-1.047-4.684-1.34-4.605-1.625-4.516-1.906-4.406-2.18-4.274-2.441-4.132-2.7-3.97-2.941-3.788-3.172-3.602-3.394-3.394-3.598-3.172-3.793-2.942-3.969-2.699-4.129-2.441-4.277-2.18-4.406-1.906-4.512-1.625-4.61-1.336-4.683-1.047-4.738-.754-4.778-.45-4.797-.152-4.796.153-4.778.449-4.742.754-4.684 1.047-4.605 1.336-4.516 1.625-4.406 1.906-4.273 2.18-4.133 2.441-3.969 2.7-3.793 2.94-3.598 3.173-3.394 3.394-3.172 3.602-2.941 3.789-2.7 3.969-2.441 4.132-2.18 4.274-1.906 4.406-1.625 4.516-1.34 4.605-1.047 4.684-.75 4.742-.449 4.777-.152 4.797.152 4.797.45 4.777.75 4.739 1.046 4.683 1.34 4.61 1.625 4.515 1.906 4.403 2.18 4.277 2.441 4.129 2.7 3.969 2.941 3.793 3.172 3.597 3.394 3.395 3.598 3.175 3.793 2.942 3.969 2.695 4.133 2.442 4.273 2.18 4.406 1.906 4.516 1.625 4.605 1.34 4.684 1.046 4.742.75 4.778.453 4.796.149 4.797-.149 4.778-.453 4.738-.75 4.684-1.047 4.609-1.34 4.512-1.624 4.406-1.907 4.277-2.18 4.13-2.44 3.968-2.696 3.793-2.942 3.598-3.175 3.394-3.395 3.172-3.598 2.941-3.792 2.7-3.97 2.44-4.128 2.18-4.277 1.907-4.403 1.625-4.515 1.34-4.61 1.047-4.683.75-4.739.453-4.777zm0 0" fill="pink" fill-opacity=".4" stroke-width=".075" stroke-linecap="round" stroke-linejoin="round" stroke="red" stroke-opacity=".4" stroke-miterlimit="10"/><path d="M162.512 223.32l-.153-4.797-.453-4.777-.75-4.738-1.047-4.684-1.34-4.61-1.624-4.515-1.907-4.402-2.175-4.277-2.446-4.13-2.695-3.968-2.942-3.793-3.175-3.598-3.39-3.394-3.602-3.176-3.79-2.941-3.972-2.696-4.13-2.441-4.276-2.18-4.403-1.906-4.515-1.625-4.61-1.34-4.683-1.047-4.739-.75-4.777-.453-4.797-.148-4.797.148-4.777.453-4.738.75-4.684 1.047-4.61 1.34L58 152.297l-4.402 1.906-4.278 2.18-4.129 2.441-3.968 2.696-3.793 2.94-3.602 3.177-3.39 3.394-3.176 3.598-2.942 3.793-2.695 3.969-2.445 4.129-2.176 4.277-1.906 4.402-1.625 4.516-1.34 4.61-1.047 4.683-.75 4.738-.453 4.777-.153 4.797.153 4.797.453 4.778.75 4.742 1.047 4.68 1.34 4.609 1.625 4.515 1.906 4.407 2.176 4.273 2.445 4.133 2.695 3.969 2.942 3.789 3.175 3.601 3.391 3.395 3.602 3.172 3.793 2.941 3.968 2.7 4.13 2.44 4.277 2.18L58 294.348l4.516 1.625 4.609 1.336 4.684 1.046 4.738.754 4.777.45 4.797.152 4.797-.152 4.777-.45 4.739-.754 4.683-1.046 4.61-1.336 4.515-1.625 4.403-1.907 4.277-2.18 4.129-2.44 3.972-2.7 3.79-2.941 3.601-3.172 3.39-3.395 3.176-3.601 2.942-3.79 2.695-3.968 2.446-4.133 2.175-4.273 1.907-4.407 1.625-4.515 1.34-4.61 1.046-4.68.75-4.741.453-4.778zm0 0M336.426 359.398l-.153-4.796-.453-4.778-.75-4.742-1.047-4.684-1.34-4.605-1.624-4.516-1.907-4.406-2.175-4.273-2.446-4.133-2.695-3.969-2.941-3.789-3.176-3.602-3.39-3.394-3.602-3.172-3.793-2.941-3.97-2.7-4.128-2.441-4.277-2.18-4.403-1.906-4.515-1.625-4.61-1.336-4.683-1.047-4.739-.754-4.777-.449-4.797-.152-4.797.152-4.777.45-4.738.753-4.684 1.047-4.61 1.336-4.515 1.625-4.402 1.906-4.278 2.18-4.129 2.441-3.972 2.7-3.79 2.941-3.6 3.172-3.391 3.394-3.176 3.602-2.942 3.79-2.695 3.968-2.445 4.133-2.176 4.273-1.906 4.406-1.625 4.516-1.34 4.605-1.047 4.684-.75 4.742-.453 4.778-.152 4.796.152 4.797.453 4.778.75 4.738 1.047 4.684 1.34 4.609 1.625 4.516 1.906 4.402 2.176 4.277 2.445 4.13 2.695 3.968 2.942 3.793 3.176 3.598 3.39 3.394 3.602 3.176 3.789 2.941 3.972 2.696 4.13 2.44 4.277 2.18 4.402 1.907 4.516 1.625 4.61 1.34 4.683 1.047 4.738.75 4.777.453 4.797.148 4.797-.148 4.777-.453 4.739-.75 4.683-1.047 4.61-1.34 4.515-1.625 4.403-1.906 4.277-2.18 4.129-2.441 3.969-2.696 3.793-2.941 3.601-3.176 3.39-3.394 3.177-3.598 2.94-3.793 2.696-3.969 2.446-4.129 2.175-4.277 1.907-4.402 1.625-4.516 1.34-4.61 1.046-4.683.75-4.738.453-4.778zm0 0" fill="pink" fill-opacity=".4" stroke-width=".075" stroke-linecap="round" stroke-linejoin="round" stroke="red" stroke-opacity=".4" stroke-miterlimit="10"/><path d="M374.676 342.98l-.153-4.796-.453-4.778-.75-4.738-1.047-4.684-1.34-4.609-1.624-4.516-1.907-4.402-2.175-4.277-2.446-4.13-2.695-3.968-2.941-3.793-3.176-3.601-3.39-3.391-3.602-3.176-3.793-2.941-3.97-2.696-4.128-2.445-4.277-2.176-4.403-1.906-4.515-1.625-4.61-1.34-4.683-1.047-4.739-.75-4.777-.453-4.797-.152-4.797.152-4.777.453-4.738.75-4.684 1.047-4.61 1.34-4.515 1.625-4.402 1.906-4.278 2.176-4.129 2.445-3.968 2.696-3.793 2.941-3.602 3.176-3.39 3.39-3.176 3.602-2.942 3.793-2.695 3.969-2.445 4.129-2.176 4.277-1.906 4.402-1.625 4.516-1.34 4.61-1.047 4.683-.75 4.738-.453 4.778-.152 4.796.152 4.797.453 4.778.75 4.738 1.047 4.684 1.34 4.609 1.625 4.516 1.906 4.402 2.176 4.277 2.445 4.13 2.695 3.968 2.942 3.793 3.176 3.601 3.39 3.391 3.602 3.176 3.793 2.941 3.968 2.696 4.13 2.445 4.277 2.176 4.402 1.906 4.516 1.625 4.61 1.34 4.683 1.047 4.738.75 4.777.453 4.797.152 4.797-.152 4.777-.453 4.739-.75 4.683-1.047 4.61-1.34 4.515-1.625 4.403-1.906 4.277-2.176 4.129-2.445 3.969-2.696 3.793-2.941 3.601-3.176 3.39-3.39 3.177-3.602 2.94-3.793 2.696-3.969 2.446-4.129 2.175-4.277 1.907-4.402 1.625-4.516 1.34-4.61 1.046-4.683.75-4.738.453-4.778zm0 0M167.563 187.848l-.153-4.793-.453-4.782-.75-4.738-1.047-4.683-1.34-4.61-1.625-4.512-1.906-4.406-2.176-4.277-2.445-4.129-2.695-3.969-2.942-3.793-3.176-3.597-3.39-3.395-3.602-3.172-3.793-2.941-3.968-2.7-4.13-2.44-4.277-2.18-4.402-1.907-4.516-1.625-4.609-1.34-4.684-1.046-4.738-.75-4.777-.454-4.797-.148-4.797.148-4.777.454-4.739.75-4.683 1.046-4.61 1.34-4.515 1.625-4.403 1.906-4.277 2.18-4.129 2.442-3.969 2.699-3.793 2.941-3.601 3.172-3.39 3.395-3.176 3.597-2.942 3.793-2.695 3.969-2.446 4.129-2.175 4.277-1.907 4.406-1.625 4.512-1.34 4.61-1.046 4.683-.75 4.738-.453 4.782-.153 4.793.153 4.797.453 4.777.75 4.742 1.047 4.684 1.34 4.605 1.624 4.516 1.907 4.406 2.175 4.273 2.446 4.133 2.695 3.969 2.942 3.793 3.175 3.598 3.39 3.394 3.602 3.172 3.793 2.941 3.97 2.7 4.128 2.441 4.277 2.18 4.403 1.906 4.515 1.625 4.61 1.34 4.683 1.047 4.739.75 4.777.449 4.797.152 4.797-.152 4.777-.45 4.738-.75 4.684-1.046 4.61-1.34 4.515-1.625 4.402-1.906 4.278-2.18 4.129-2.441 3.968-2.7 3.793-2.941 3.602-3.172 3.39-3.394 3.176-3.598 2.942-3.793 2.695-3.969 2.445-4.133 2.176-4.273 1.906-4.406 1.625-4.516 1.34-4.605 1.047-4.684.75-4.742.453-4.777zm0 0" fill="pink" fill-opacity=".4" stroke-width=".075" stroke-linecap="round" stroke-linejoin="round" stroke="red" stroke-opacity=".4" stroke-miterlimit="10"/><path d="M343.871 357.23l-.148-4.796-.453-4.778-.75-4.738-1.047-4.684-1.34-4.609-1.625-4.516-1.906-4.402-2.176-4.277-2.446-4.13-2.695-3.968-2.941-3.793-3.176-3.598-3.39-3.394-3.602-3.172-3.793-2.941-3.969-2.7-4.129-2.441-4.277-2.18-4.403-1.906-4.515-1.625-4.61-1.34-4.683-1.047-4.738-.75-4.778-.453-4.797-.148-4.796.148-4.778.453-4.742.75-4.68 1.047-4.61 1.34-4.515 1.625-4.406 1.906-4.273 2.18-4.133 2.441-3.969 2.7-3.789 2.941-3.602 3.172-3.394 3.394-3.172 3.598-2.941 3.793-2.696 3.969-2.445 4.129-2.18 4.277-1.902 4.402-1.629 4.516-1.336 4.61-1.047 4.683-.754 4.738-.449 4.778-.152 4.796.152 4.797.45 4.778.753 4.742 1.047 4.683 1.336 4.606 1.629 4.516 1.902 4.406 2.18 4.273 2.445 4.133 2.696 3.969 2.941 3.793 3.172 3.597 3.394 3.395 3.602 3.172 3.789 2.941 3.969 2.7 4.133 2.44 4.273 2.18 4.406 1.907 4.516 1.625 4.61 1.34 4.679 1.047 4.742.75 4.777.449 4.797.152 4.797-.152 4.778-.45 4.738-.75 4.683-1.046 4.61-1.34 4.515-1.625 4.403-1.906 4.277-2.18 4.13-2.442 3.968-2.699 3.793-2.941 3.601-3.172 3.391-3.395 3.176-3.597 2.941-3.793 2.695-3.969 2.446-4.133 2.176-4.273 1.906-4.406 1.625-4.516 1.34-4.606 1.047-4.683.75-4.742.453-4.778zm0 0M198.988 131.168l-.148-4.797-.453-4.777-.75-4.742-1.047-4.68-1.34-4.61-1.625-4.515-1.906-4.406-2.176-4.274-2.445-4.133-2.696-3.968-2.941-3.79-3.176-3.601-3.39-3.395-3.602-3.171-3.793-2.942-3.969-2.699-4.129-2.441-4.277-2.18-4.402-1.906-4.516-1.625-4.61-1.336-4.683-1.047-4.738-.754-4.778-.45-4.796-.152-4.797.153-4.778.449-4.738.754-4.684 1.047-4.609 1.336-4.516 1.625-4.402 1.906-4.277 2.18-4.13 2.441-3.972 2.7-3.789 2.94-3.601 3.172-3.391 3.395-3.176 3.602-2.941 3.789-2.696 3.968-2.445 4.133-2.176 4.274-1.906 4.406-1.629 4.516-1.336 4.609-1.047 4.68-.75 4.742-.453 4.777-.152 4.797.152 4.797.453 4.777.75 4.738 1.047 4.684 1.336 4.61 1.63 4.515 1.905 4.402 2.176 4.278 2.445 4.129 2.696 3.968 2.941 3.793 3.176 3.598 3.39 3.395 3.602 3.175 3.79 2.942 3.972 2.695 4.129 2.441 4.277 2.18 4.402 1.906 4.516 1.625 4.61 1.34 4.683 1.047 4.738.75 4.778.453 4.797.149 4.796-.149 4.778-.453 4.738-.75 4.684-1.047 4.609-1.34 4.516-1.625 4.402-1.906 4.277-2.18 4.13-2.44 3.968-2.696 3.793-2.942 3.602-3.175 3.39-3.395 3.176-3.598 2.941-3.793 2.696-3.968 2.445-4.13 2.176-4.277 1.906-4.402 1.625-4.516 1.34-4.609 1.047-4.684.75-4.738.453-4.777zm0 0" fill="pink" fill-opacity=".4" stroke-width=".075" stroke-linecap="round" stroke-linejoin="round" stroke="red" stroke-opacity=".4" stroke-miterlimit="10"/><path d="M309.848 363.633l-.149-4.797-.453-4.777-.75-4.743-1.047-4.683-1.34-4.606-1.625-4.515-1.906-4.407-2.176-4.273-2.445-4.133-2.695-3.969-2.942-3.793-3.175-3.597-3.391-3.395-3.602-3.172-3.793-2.941-3.968-2.7-4.13-2.44-4.277-2.18-4.402-1.907-4.516-1.625-4.609-1.34-4.684-1.046-4.738-.75-4.777-.45-4.797-.152-4.797.153-4.777.449-4.739.75-4.683 1.047-4.61 1.34-4.515 1.624-4.403 1.907-4.277 2.18-4.129 2.44-3.972 2.7-3.79 2.941-3.601 3.172-3.39 3.395-3.176 3.598-2.942 3.792-2.695 3.97-2.445 4.132-2.176 4.273-1.906 4.407-1.63 4.515-1.335 4.606-1.047 4.683-.75 4.743-.453 4.777-.153 4.797.153 4.793.453 4.777.75 4.742 1.047 4.684 1.336 4.61 1.629 4.511 1.906 4.406 2.176 4.274 2.445 4.132 2.695 3.97 2.942 3.792 3.175 3.598 3.391 3.394 3.602 3.172 3.789 2.942 3.972 2.699 4.13 2.441 4.276 2.18 4.403 1.906 4.515 1.625 4.61 1.34 4.683 1.047 4.739.75 4.777.45 4.797.152 4.797-.153 4.777-.449 4.738-.75 4.684-1.047 4.61-1.34 4.515-1.625 4.402-1.906 4.278-2.18 4.129-2.441 3.968-2.7 3.793-2.94 3.602-3.173 3.39-3.394 3.176-3.598 2.942-3.793 2.695-3.969 2.445-4.132 2.176-4.274 1.906-4.406 1.625-4.512 1.34-4.61 1.047-4.683.75-4.742.453-4.777zm0 0M173.316 171.266l-.152-4.797-.45-4.778-.753-4.738-1.047-4.683-1.336-4.61-1.625-4.515-1.906-4.403-2.18-4.277-2.441-4.13-2.7-3.968-2.94-3.793-3.173-3.601-3.394-3.391-3.602-3.176-3.789-2.941-3.969-2.695-4.132-2.446-4.274-2.176-4.406-1.906-4.516-1.625-4.61-1.34-4.679-1.047-4.742-.75-4.777-.453-4.797-.148-4.797.148-4.777.453-4.739.75-4.683 1.047-4.61 1.34-4.515 1.625-4.403 1.906-4.277 2.176-4.129 2.446-3.969 2.695-3.793 2.941-3.597 3.176-3.395 3.39-3.176 3.602-2.941 3.793-2.695 3.969-2.442 4.129-2.18 4.277-1.906 4.403-1.625 4.515-1.34 4.61-1.046 4.683-.75 4.738-.453 4.778-.149 4.797.148 4.797.454 4.777.75 4.738 1.047 4.684 1.34 4.61 1.624 4.515 1.907 4.402 2.18 4.277 2.44 4.13 2.696 3.972 2.941 3.789 3.176 3.602 3.395 3.39 3.597 3.176 3.793 2.941 3.97 2.696 4.128 2.445 4.277 2.18 4.403 1.902 4.515 1.629 4.61 1.336 4.683 1.047 4.739.75 4.777.453 4.797.152 4.797-.152 4.777-.453 4.742-.75 4.68-1.047 4.61-1.336 4.515-1.629 4.406-1.902 4.274-2.18 4.132-2.445 3.97-2.696 3.788-2.941 3.602-3.176 3.394-3.39 3.172-3.602 2.942-3.789 2.699-3.973 2.441-4.129 2.18-4.277 1.906-4.402 1.625-4.516 1.336-4.61 1.047-4.683.754-4.738.45-4.778zm0 0" fill="pink" fill-opacity=".4" stroke-width=".075" stroke-linecap="round" stroke-linejoin="round" stroke="red" stroke-opacity=".4" stroke-miterlimit="10"/><path d="M415.875 303.629l-.148-4.793-.454-4.777-.75-4.743-1.046-4.683-1.34-4.61-1.625-4.511-1.907-4.407-2.18-4.273-2.44-4.133-2.7-3.969-2.937-3.793-3.176-3.597-3.395-3.395-3.597-3.172-3.793-2.941-3.969-2.7-4.129-2.44-4.277-2.18-4.403-1.907-4.515-1.625-4.61-1.34-4.683-1.046-4.738-.75-4.778-.45-4.797-.152-4.797.153-4.777.449-4.742.75-4.684 1.047-4.605 1.34-4.516 1.624-4.406 1.907-4.274 2.18-4.132 2.44-3.97 2.7-3.788 2.941-3.602 3.172-3.394 3.395-3.172 3.597-2.942 3.793-2.699 3.97-2.441 4.132-2.18 4.273-1.906 4.407-1.625 4.511-1.336 4.61-1.047 4.683-.754 4.743-.449 4.777-.152 4.793.152 4.797.45 4.777.753 4.742 1.047 4.684 1.336 4.605 1.625 4.516 1.906 4.406 2.18 4.274 2.441 4.132 2.7 3.97 2.94 3.792 3.173 3.598 3.394 3.394 3.602 3.172 3.789 2.942 3.969 2.699 4.132 2.441 4.274 2.18 4.406 1.906 4.516 1.625 4.605 1.34 4.684 1.047 4.742.75 4.777.45 4.797.152 4.797-.153 4.777-.449 4.739-.75 4.683-1.047 4.61-1.34 4.515-1.625 4.403-1.906 4.277-2.18 4.129-2.441 3.969-2.7 3.793-2.94 3.597-3.173 3.395-3.394 3.176-3.598 2.937-3.793 2.7-3.969 2.44-4.132 2.18-4.274 1.907-4.406 1.625-4.516 1.34-4.605 1.046-4.684.75-4.742.454-4.777zm0 0M242.621 99.156l-.152-4.797-.45-4.777-.753-4.738-1.047-4.684-1.336-4.61-1.625-4.515-1.906-4.402-2.18-4.278-2.442-4.128-2.699-3.97-2.941-3.792-3.172-3.598-3.395-3.394-3.601-3.176-3.79-2.942-3.968-2.695-4.133-2.441-4.273-2.18-4.406-1.906-4.516-1.625-4.606-1.34-4.683-1.047-4.742-.75-4.778-.453-4.797-.148-4.796.148-4.778.453-4.738.75-4.684 1.047-4.609 1.34-4.516 1.625-4.402 1.906-4.277 2.18-4.13 2.441-3.968 2.695-3.793 2.942-3.598 3.176-3.394 3.394-3.176 3.598-2.941 3.793-2.696 3.969-2.441 4.128-2.18 4.278-1.906 4.402-1.625 4.516-1.34 4.61-1.047 4.683-.75 4.738-.453 4.777-.148 4.797.148 4.797.453 4.777.75 4.743 1.047 4.683 1.34 4.606 1.625 4.515 1.906 4.407 2.18 4.273 2.441 4.133 2.696 3.969 2.941 3.789 3.176 3.601 3.394 3.395 3.598 3.172 3.793 2.941 3.969 2.7 4.129 2.44 4.277 2.18 4.402 1.907 4.516 1.625 4.61 1.336 4.683 1.046 4.738.754 4.778.45 4.796.152 4.797-.152 4.778-.45 4.742-.754 4.683-1.046 4.606-1.336 4.516-1.625 4.406-1.907 4.273-2.18 4.133-2.44 3.969-2.7 3.789-2.941 3.601-3.172 3.395-3.395 3.172-3.601 2.941-3.79 2.7-3.968 2.44-4.133 2.18-4.273 1.907-4.407 1.625-4.515 1.336-4.606 1.047-4.683.754-4.743.449-4.777zm0 0" fill="pink" fill-opacity=".4" stroke-width=".075" stroke-linecap="round" stroke-linejoin="round" stroke="red" stroke-opacity=".4" stroke-miterlimit="10"/><path d="M422.004 156.133l-.152-4.797-.454-4.777-.75-4.739-1.046-4.683-1.34-4.61-1.625-4.515-1.907-4.403-2.175-4.277-2.446-4.129-2.695-3.969-2.941-3.793-3.176-3.597-3.39-3.395-3.602-3.176-3.793-2.937-3.969-2.7-4.129-2.44-4.277-2.18-4.403-1.907-4.515-1.625-4.61-1.34-4.683-1.046-4.738-.75-4.778-.453-4.797-.149-4.797.149-4.777.453-4.738.75-4.684 1.047-4.61 1.34-4.515 1.624-4.402 1.907-4.277 2.18-4.13 2.44-3.968 2.7-3.793 2.937-3.602 3.176-3.39 3.395-3.176 3.597-2.942 3.793-2.695 3.97-2.445 4.128-2.176 4.277-1.906 4.403-1.625 4.515-1.34 4.61-1.047 4.683-.75 4.739-.453 4.777-.152 4.797.152 4.797.453 4.777.75 4.742 1.047 4.684 1.34 4.605 1.625 4.516 1.906 4.406 2.176 4.274 2.445 4.132 2.695 3.97 2.942 3.788 3.176 3.602 3.39 3.394 3.602 3.172 3.793 2.942 3.969 2.699 4.128 2.441 4.278 2.18 4.402 1.906 4.516 1.625 4.61 1.336 4.683 1.047 4.738.754 4.777.45 4.797.151 4.797-.152 4.777-.45 4.739-.753 4.683-1.047 4.61-1.336 4.515-1.625 4.403-1.906 4.277-2.18 4.129-2.441 3.969-2.7 3.793-2.94 3.601-3.173 3.39-3.394 3.177-3.602 2.941-3.789 2.695-3.969 2.446-4.132 2.175-4.274 1.907-4.406 1.625-4.516 1.34-4.605 1.046-4.684.75-4.742.454-4.777zm0 0M357.578 352.016l-.148-4.797-.453-4.778-.75-4.742-1.047-4.68-1.34-4.609-1.625-4.515-1.906-4.407-2.18-4.273-2.442-4.133-2.699-3.969-2.941-3.789-3.172-3.601-3.395-3.395-3.597-3.172-3.793-2.941-3.969-2.695-4.129-2.446-4.277-2.18-4.402-1.902-4.516-1.629-4.61-1.336-4.683-1.047-4.738-.753-4.778-.45-4.797-.152-4.796.152-4.778.45-4.742.753-4.684 1.047-4.605 1.336-4.516 1.63-4.406 1.902-4.273 2.18-4.133 2.445-3.969 2.695-3.793 2.941-3.598 3.172-3.394 3.395-3.172 3.601-2.941 3.79-2.7 3.968-2.441 4.133-2.18 4.273-1.906 4.407-1.625 4.515-1.34 4.61-1.047 4.68-.75 4.741-.449 4.778-.152 4.797.152 4.796.45 4.778.75 4.738 1.046 4.684 1.34 4.61 1.625 4.515 1.906 4.402 2.18 4.277 2.441 4.13 2.7 3.968 2.941 3.793 3.172 3.602 3.394 3.39 3.598 3.176 3.793 2.941 3.969 2.696 4.133 2.441 4.273 2.18 4.406 1.906 4.516 1.625 4.605 1.34 4.684 1.047 4.742.75 4.778.453 4.796.148 4.797-.148 4.778-.453 4.738-.75 4.683-1.047 4.61-1.34 4.515-1.625 4.403-1.906 4.277-2.18 4.13-2.441 3.968-2.696 3.793-2.941 3.597-3.176 3.395-3.39 3.172-3.602 2.941-3.793 2.7-3.969 2.44-4.129 2.18-4.277 1.907-4.402 1.625-4.516 1.34-4.61 1.047-4.683.75-4.738.453-4.777zm0 0" fill="pink" fill-opacity=".4" stroke-width=".075" stroke-linecap="round" stroke-linejoin="round" stroke="red" stroke-opacity=".4" stroke-miterlimit="10"/><path d="M412.965 307.707l-.149-4.793-.453-4.777-.75-4.742-1.047-4.684-1.34-4.61-1.624-4.511-1.907-4.406-2.18-4.274-2.44-4.133-2.7-3.968-2.941-3.793-3.172-3.598-3.395-3.395-3.597-3.171-3.793-2.942-3.97-2.7-4.128-2.44-4.277-2.18-4.403-1.906-4.515-1.625-4.61-1.34-4.683-1.047-4.739-.75-4.777-.45-4.797-.152-4.797.153-4.777.449-4.742.75-4.684 1.047-4.605 1.34-4.516 1.625-4.406 1.906-4.274 2.18-4.132 2.44-3.97 2.7-3.792 2.942-3.598 3.171-3.394 3.395-3.172 3.598-2.942 3.793-2.699 3.968-2.441 4.133-2.18 4.274-1.906 4.406-1.625 4.512-1.34 4.609-1.047 4.684-.75 4.742-.45 4.777-.151 4.793.152 4.797.45 4.777.75 4.742 1.046 4.684 1.34 4.606 1.625 4.515 1.906 4.406 2.18 4.274 2.441 4.133 2.7 3.968 2.94 3.793 3.173 3.598 3.394 3.395 3.598 3.171 3.793 2.942 3.969 2.699 4.132 2.441 4.274 2.18 4.406 1.906 4.516 1.625 4.605 1.34 4.684 1.047 4.742.75 4.777.45 4.797.152 4.797-.153 4.777-.449 4.739-.75 4.683-1.047 4.61-1.34 4.515-1.625 4.403-1.906 4.277-2.18 4.129-2.441 3.969-2.7 3.793-2.94 3.597-3.172 3.395-3.395 3.172-3.598 2.941-3.793 2.7-3.968 2.44-4.133 2.18-4.274 1.907-4.406 1.625-4.515 1.34-4.606 1.046-4.684.75-4.742.453-4.777zm0 0" fill="pink" fill-opacity=".4" stroke-width=".075" stroke-linecap="round" stroke-linejoin="round" stroke="red" stroke-opacity=".4" stroke-miterlimit="10"/><path d="M437.21 254.023l-.147-4.796-.454-4.778-.75-4.742-1.046-4.684-1.34-4.605-1.625-4.516-1.907-4.406-2.18-4.273-2.44-4.133-2.7-3.969-2.941-3.793-3.172-3.598-3.395-3.394-3.597-3.172-3.793-2.941-3.97-2.7-4.128-2.441-4.277-2.18-4.403-1.906-4.515-1.625-4.61-1.34-4.683-1.047-4.739-.75-4.777-.449-4.797-.152-4.797.152-4.777.45-4.742.75-4.684 1.046-4.605 1.34-4.516 1.625-4.406 1.906-4.274 2.18-4.132 2.441-3.97 2.7-3.792 2.941-3.598 3.172-3.394 3.394-3.172 3.598-2.942 3.793-2.699 3.969-2.441 4.133-2.18 4.273-1.906 4.406-1.625 4.516-1.34 4.605-1.047 4.684-.75 4.742-.45 4.778-.151 4.796.152 4.797.45 4.778.75 4.738 1.046 4.684 1.34 4.609 1.625 4.512 1.906 4.406 2.18 4.277 2.441 4.13 2.7 3.968 2.94 3.793 3.173 3.598 3.394 3.394 3.598 3.172 3.793 2.941 3.969 2.7 4.132 2.44 4.274 2.18 4.406 1.907 4.516 1.625 4.605 1.34 4.684 1.047 4.742.75 4.777.453 4.797.148 4.797-.148 4.777-.453 4.739-.75 4.683-1.047 4.61-1.34 4.515-1.625 4.403-1.906 4.277-2.18 4.129-2.441 3.969-2.7 3.793-2.941 3.597-3.172 3.395-3.394 3.172-3.598 2.941-3.793 2.7-3.969 2.44-4.129 2.18-4.277 1.907-4.406 1.625-4.512 1.34-4.61 1.046-4.683.75-4.738.454-4.778zm0 0" fill="pink" fill-opacity=".4" stroke-width=".075" stroke-linecap="round" stroke-linejoin="round" stroke="red" stroke-opacity=".4" stroke-miterlimit="10"/><path d="M325.266 194.996l-.149-4.797-.453-4.777-.75-4.738-1.047-4.684-1.34-4.61-1.625-4.515-1.906-4.402-2.18-4.278-2.441-4.129-2.695-3.968-2.942-3.793-3.175-3.602-3.395-3.39-3.598-3.176-3.793-2.942-3.968-2.695-4.13-2.445-4.277-2.176-4.402-1.906-4.516-1.625-4.609-1.34-4.684-1.047-4.738-.75-4.777-.453-4.797-.149-4.797.149-4.777.453-4.743.75-4.683 1.047-4.606 1.34-4.515 1.625-4.406 1.906-4.274 2.176-4.133 2.445-3.968 2.695-3.79 2.942-3.601 3.175-3.395 3.391-3.171 3.602-2.942 3.793-2.7 3.968-2.44 4.13-2.18 4.277-1.906 4.402-1.625 4.516L174.89 176l-1.047 4.684-.754 4.738-.45 4.777-.152 4.797.153 4.797.449 4.777.754 4.739 1.047 4.683 1.336 4.61 1.625 4.515 1.906 4.406 2.18 4.274 2.44 4.133 2.7 3.968 2.942 3.79 3.171 3.601 3.395 3.395 3.601 3.171 3.79 2.942 3.968 2.695 4.133 2.445 4.274 2.18 4.406 1.903 4.515 1.628 4.606 1.336 4.684 1.047 4.742.754 4.777.45 4.797.152 4.797-.153 4.777-.449 4.738-.754 4.684-1.047 4.61-1.336L277 266.02l4.402-1.903 4.278-2.18 4.129-2.445 3.968-2.695 3.793-2.942 3.598-3.171 3.394-3.395 3.176-3.601 2.942-3.79 2.695-3.968 2.441-4.133 2.18-4.274 1.906-4.406 1.625-4.515 1.34-4.61 1.047-4.683.75-4.739.453-4.777zm0 0" fill="pink" fill-opacity=".4" stroke-width=".075" stroke-linecap="round" stroke-linejoin="round" stroke="red" stroke-opacity=".4" stroke-miterlimit="10"/><path d="M363.55 234.672l-34.773-101.977M363.55 234.672l-12.788-68.61M363.55 234.672l-1.796 14.582M363.55 234.672l-68.495-129.598M363.55 234.672l-72.98-132.11M363.55 234.672l-24.32-88.676M363.55 234.672l-18.87-80.149M363.55 234.672l.13-17.266M363.55 234.672l-.218 2.758M363.55 234.672l.31-6.797M363.55 234.672l-23.179 67.656M363.55 234.672l-.007.148M363.55 234.672l-11.308-65.348M363.55 234.672l-1.956 15.476M363.55 234.672l-59.027 104.2M363.55 234.672L298.286 342.98M363.55 234.672l-24.062 68.957M363.55 234.672l-17.937-78.54M363.55 234.672l-82.359 117.344M363.55 234.672l-26.972 73.035M363.55 234.672l-2.726 19.351M363.55 234.672L248.88 194.996M113.805 141.781L230.453 86.22M113.805 141.781l36.73-34.02M113.805 141.781l-23.133 47.922M113.805 141.781l127.324-54.73M113.805 141.781l-21.793 43.172M113.805 141.781L96.078 276.668M113.805 141.781l54.77-43.691M113.805 141.781l72.257-50.101M113.805 141.781l-27.446 74.91M113.805 141.781l21.18-22.55M113.805 141.781l99.238-55.156M113.805 141.781l10.37-12.304M113.805 141.781l-27.684 81.54M113.805 141.781l-22.633 46.067M113.805 141.781l8.797-10.613M113.805 141.781l-16.88 29.485M113.805 141.781l52.425-42.625M113.805 141.781l135.074 53.215M328.777 132.695l21.985 33.368M328.777 132.695L230.453 86.22M328.777 132.695l32.977 116.559M328.777 132.695l-33.722-27.62M328.777 132.695l-38.207-30.132M328.777 132.695L241.13 87.051M328.777 132.695l10.453 13.301M328.777 132.695l15.903 21.828M328.777 132.695l34.903 84.711M328.777 132.695l34.555 104.735M328.777 132.695L186.063 91.68M328.777 132.695l35.082 95.18M328.777 132.695l34.766 102.125M328.777 132.695l23.465 36.63M328.777 132.695l32.817 117.453M328.777 132.695l-115.734-46.07M328.777 132.695L279.586 97.29M328.777 132.695l-48.734-35.21M328.777 132.695l16.836 23.438M328.777 132.695l32.047 121.328M328.777 132.695l-79.898 62.301M350.762 166.063L230.453 86.219M350.762 166.063l10.992 83.19M350.762 166.063l-55.707-60.989M350.762 166.063l-60.192-63.5M350.762 166.063L241.129 87.05M350.762 166.063l-11.532-20.067M350.762 166.063l-6.082-11.54M350.762 166.063l12.918 51.343M350.762 166.063l12.57 71.367M350.762 166.063l13.097 61.812M350.762 166.063l-10.39 136.265M350.762 166.063l12.781 68.757M350.762 166.063l1.48 3.261M350.762 166.063l10.832 84.085M350.762 166.063l-71.176-68.774M350.762 166.063l-70.719-68.579M350.762 166.063l-11.274 137.566M350.762 166.063l-5.149-9.93M350.762 166.063l-14.184 141.644M350.762 166.063l10.062 87.96M350.762 166.063l-101.883 28.933M230.453 86.219l-79.918 21.543M230.453 86.219l64.602 18.855M230.453 86.219l60.117 16.344M230.453 86.219l10.676.832M230.453 86.219l108.777 59.777M230.453 86.219l114.227 68.304M230.453 86.219l-61.879 11.87M230.453 86.219l-44.39 5.46M230.453 86.219l121.79 83.105M230.453 86.219l-95.469 33.011M230.453 86.219l-17.41.406M230.453 86.219l49.133 11.07M230.453 86.219l49.59 11.265M230.453 86.219l-106.277 43.258M230.453 86.219l-107.851 44.949M230.453 86.219L166.23 99.156M230.453 86.219l115.16 69.914M230.453 86.219l18.426 108.777M261.238 359.078l100.516-109.824M261.238 359.078l-16.398 3.387M261.238 359.078l-125.14-27.371M261.238 359.078l79.133-56.75M261.238 359.078l-133.18-34.617M261.238 359.078l100.356-108.93M261.238 359.078l-95.379-8.41M261.238 359.078l43.285-20.207M261.238 359.078l-1.203.32M261.238 359.078l37.047-16.098M261.238 359.078l6.246-1.848M261.238 359.078l-27.777 4.555M261.238 359.078l78.25-55.45M261.238 359.078l19.953-7.062M261.238 359.078l75.34-51.371M261.238 359.078l99.586-105.055M150.535 107.762l144.52-2.688M150.535 107.762l-59.863 81.941M150.535 107.762l140.035-5.2M150.535 107.762L241.13 87.05M150.535 107.762l-58.523 77.191M150.535 107.762l18.04-9.672M150.535 107.762l35.528-16.082M150.535 107.762L86.36 216.692M150.535 107.762l-15.55 11.468M150.535 107.762l62.508-21.137M150.535 107.762l129.05-10.473M150.535 107.762l129.508-10.278M150.535 107.762l-26.36 21.715M150.535 107.762L86.121 223.32M150.535 107.762l-59.363 80.086M150.535 107.762l-27.933 23.406M150.535 107.762l-53.61 63.504M150.535 107.762l15.695-8.606M150.535 107.762l98.344 87.234M361.754 249.254L339.23 145.996M361.754 249.254l-17.074-94.73M361.754 249.254l1.926-31.848M361.754 249.254l1.578-11.824M361.754 249.254l2.105-21.379M361.754 249.254l-21.383 53.074M361.754 249.254l1.789-14.434M361.754 249.254l-9.512-79.93M361.754 249.254l-.16.894M361.754 249.254l-57.23 89.617M361.754 249.254L260.035 359.398M361.754 249.254l-63.469 93.726M361.754 249.254l-94.27 107.976M361.754 249.254l-22.266 54.375M361.754 249.254l-16.14-93.121M361.754 249.254L281.19 352.016M361.754 249.254l-25.176 58.453M361.754 249.254l-.93 4.77M361.754 249.254l-112.875-54.258M295.055 105.074l-4.485-2.511M295.055 105.074l-53.926-18.023M295.055 105.074l44.175 40.922M295.055 105.074l49.625 49.45M295.055 105.074l68.625 112.332M295.055 105.074l68.277 132.356M295.055 105.074l-126.48-6.984M295.055 105.074L186.062 91.68M295.055 105.074l68.804 122.801M295.055 105.074l68.488 129.746M295.055 105.074l57.187 64.25M295.055 105.074l-82.012-18.449M295.055 105.074l-15.47-7.785M295.055 105.074l-15.012-7.59M295.055 105.074L166.23 99.156M295.055 105.074l50.558 51.059M295.055 105.074l-46.176 89.922M90.672 189.703l1.34-4.75M90.672 189.703l5.406 86.965M90.672 189.703l77.902-91.613M90.672 189.703l45.426 142.004M90.672 189.703l95.39-98.023M90.672 189.703l37.387 134.758M90.672 189.703l-4.313 26.988M90.672 189.703l44.312-70.473M90.672 189.703l33.504-60.226M90.672 189.703l-4.55 33.617M90.672 189.703l.5-1.855M90.672 189.703l31.93-58.535M90.672 189.703l6.254-18.437M90.672 189.703l75.558-90.547M290.57 102.563L241.13 87.05M290.57 102.563l48.66 43.433M290.57 102.563l54.11 51.96M290.57 102.563l73.11 114.843M290.57 102.563L168.574 98.09M290.57 102.563L186.063 91.68M290.57 102.563l73.29 125.312M290.57 102.563l72.973 132.257M290.57 102.563l61.672 66.761M290.57 102.563l-77.527-15.938M290.57 102.563l-10.984-5.274M290.57 102.563l-10.527-5.079M290.57 102.563l-124.34-3.407M290.57 102.563l55.043 53.57M290.57 102.563l-41.691 92.433M241.129 87.05l98.101 58.946M241.129 87.05l103.55 67.473M241.129 87.05l-72.555 11.04M241.129 87.05l-55.066 4.63M241.129 87.05l111.113 82.274M241.129 87.05l-106.145 32.18M241.129 87.05l-28.086-.425M241.129 87.05l38.457 10.24M241.129 87.05l38.914 10.434M241.129 87.05l-116.953 42.427M241.129 87.05l-118.527 44.118M241.129 87.05L166.23 99.157M241.129 87.05l104.484 69.083M241.129 87.05l7.75 107.946M244.84 362.465l-108.742-30.758M244.84 362.465l95.531-60.137M244.84 362.465L128.059 324.46M244.84 362.465l-78.98-11.797M244.84 362.465l59.683-23.594M244.84 362.465l15.195-3.067M244.84 362.465l53.445-19.485M244.84 362.465l22.644-5.235M244.84 362.465l-11.38 1.168M244.84 362.465l94.648-58.836M244.84 362.465l36.351-10.45M244.84 362.465l91.738-54.758M339.23 145.996l5.45 8.527M339.23 145.996l24.45 71.41M339.23 145.996l24.102 91.434M339.23 145.996l24.63 81.879M339.23 145.996l24.313 88.824M339.23 145.996l13.012 23.328M339.23 145.996l22.364 104.152M339.23 145.996L213.043 86.625M339.23 145.996L279.586 97.29M339.23 145.996l-59.187-48.512M339.23 145.996l6.383 10.137M339.23 145.996l21.594 108.027M339.23 145.996l-90.351 49M92.012 184.953l4.066 91.715M92.012 184.953l76.562-86.863M92.012 184.953l94.05-93.273M92.012 184.953l36.047 139.508M92.012 184.953l-5.653 31.738M92.012 184.953l42.972-65.723M92.012 184.953l32.164-55.476M92.012 184.953l-5.89 38.367M92.012 184.953l-.84 2.895M92.012 184.953l30.59-53.785M92.012 184.953l4.914-13.687M92.012 184.953l74.218-85.797M344.68 154.523l19 62.883M344.68 154.523l18.652 82.907M344.68 154.523l19.18 73.352M344.68 154.523l-4.309 147.805M344.68 154.523l18.863 80.297M344.68 154.523l7.562 14.801M344.68 154.523l16.914 95.625M344.68 154.523L213.043 86.625M344.68 154.523L279.586 97.29M344.68 154.523l-64.637-57.039M344.68 154.523l-5.192 149.106M344.68 154.523l.933 1.61M344.68 154.523l16.144 99.5M344.68 154.523l-95.801 40.473M96.078 276.668l40.02 55.039M96.078 276.668l31.98 47.793M96.078 276.668l-9.719-59.977M96.078 276.668l69.781 74M96.078 276.668l28.098-147.191M96.078 276.668l-9.957-53.348M96.078 276.668l-4.906-88.82M96.078 276.668l26.524-145.5M96.078 276.668l.848-105.402M363.68 217.406l-.348 20.024M363.68 217.406l.18 10.469M363.68 217.406l-23.309 84.922M363.68 217.406l-.137 17.414M363.68 217.406l-11.438-48.082M363.68 217.406l-2.086 32.742M363.68 217.406L279.586 97.29M363.68 217.406L280.043 97.484M363.68 217.406l-59.157 121.465M363.68 217.406L298.285 342.98M363.68 217.406l-24.192 86.223M363.68 217.406l-18.067-61.273M363.68 217.406l-27.102 90.301M363.68 217.406l-2.856 36.617M363.68 217.406l-114.801-22.41M363.332 237.43l.527-9.555M363.332 237.43l-22.96 64.898M363.332 237.43l.211-2.61M363.332 237.43l-11.09-68.106M363.332 237.43l-1.738 12.718M363.332 237.43L304.523 338.87M363.332 237.43l-65.047 105.55M363.332 237.43l-23.844 66.199M363.332 237.43l-17.719-81.297M363.332 237.43l-82.14 114.586M363.332 237.43l-26.754 70.277M363.332 237.43l-2.508 16.593M363.332 237.43l-114.453-42.434M168.574 98.09l17.488-6.41M168.574 98.09L86.36 216.69M168.574 98.09l-33.59 21.14M168.574 98.09l44.469-11.465M168.574 98.09l111.012-.8M168.574 98.09l111.469-.606M168.574 98.09l-44.398 31.387M168.574 98.09L86.121 223.32M168.574 98.09l-77.402 89.758M168.574 98.09l-45.972 33.078M168.574 98.09l-71.648 73.176M168.574 98.09l-2.344 1.066M168.574 98.09l80.305 96.906M136.098 331.707l-8.04-7.246M136.098 331.707L86.359 216.691M136.098 331.707l29.761 18.961M136.098 331.707L86.12 223.32M136.098 331.707l123.937 27.691M136.098 331.707l-44.926-143.86M136.098 331.707l131.386 25.523M136.098 331.707l97.363 31.926M136.098 331.707l145.093 20.309M186.063 91.68l-51.079 27.55M186.063 91.68l26.98-5.055M186.063 91.68l93.523 5.61M186.063 91.68l93.98 5.804M186.063 91.68l-61.887 37.797M186.063 91.68l-94.891 96.168M186.063 91.68l-63.461 39.488M186.063 91.68l-89.137 79.586M186.063 91.68l-19.833 7.476M186.063 91.68l62.816 103.316M363.86 227.875l-23.489 74.453M363.86 227.875l-.317 6.945M363.86 227.875l-11.618-58.55M363.86 227.875l-2.266 22.273M363.86 227.875l-59.337 110.996M363.86 227.875L298.284 342.98M363.86 227.875l-24.372 75.754M363.86 227.875l-18.247-71.742M363.86 227.875l-82.669 124.14M363.86 227.875l-27.282 79.832M363.86 227.875l-3.036 26.148M363.86 227.875l-114.981-32.879M340.371 302.328l23.172-67.508M340.371 302.328l11.871-133.004M340.371 302.328l21.223-52.18M340.371 302.328l-35.848 36.543M340.371 302.328l-80.336 57.07M340.371 302.328l-42.086 40.652M340.371 302.328l-72.887 54.902M340.371 302.328l-106.91 61.305M340.371 302.328l-.883 1.3M340.371 302.328l5.242-146.195M340.371 302.328l-59.18 49.688M340.371 302.328l-3.793 5.379M340.371 302.328l20.453-48.305M340.371 302.328L248.88 194.996M363.543 234.82l-11.3-65.496M363.543 234.82l-1.95 15.328M363.543 234.82l-59.02 104.051M363.543 234.82l-65.258 108.16M363.543 234.82l-24.055 68.809M363.543 234.82l-17.93-78.687M363.543 234.82l-82.352 117.196M363.543 234.82l-26.965 72.887M363.543 234.82l-2.719 19.203M363.543 234.82l-114.664-39.824M352.242 169.324l9.352 80.824M352.242 169.324L279.586 97.29M352.242 169.324l-72.199-71.84M352.242 169.324L339.488 303.63M352.242 169.324l-6.629-13.191M352.242 169.324l-15.664 138.383M352.242 169.324l8.582 84.7M352.242 169.324L248.88 194.996M128.059 324.46l-41.7-107.769M128.059 324.46l37.8 26.208M128.059 324.46L86.12 223.32M128.059 324.46l131.976 34.938M128.059 324.46L91.172 187.849M128.059 324.46l139.425 32.77M128.059 324.46l105.402 39.173M86.36 216.691l48.624-97.46M86.36 216.691l37.816-87.214M86.36 216.691l-.239 6.63M86.36 216.691l4.812-28.843M86.36 216.691l36.242-85.523M86.36 216.691l10.566-45.425M86.36 216.691l79.87-117.535M361.594 250.148l-57.07 88.723M361.594 250.148l-101.559 109.25M361.594 250.148l-63.309 92.832M361.594 250.148l-94.11 107.082M361.594 250.148l-22.106 53.48M361.594 250.148l-15.98-94.015M361.594 250.148L281.19 352.016M361.594 250.148l-25.016 57.559M361.594 250.148l-.77 3.875M361.594 250.148l-112.715-55.152M134.984 119.23l78.059-32.605M134.984 119.23l144.602-21.94M134.984 119.23l145.059-21.746M134.984 119.23l-10.808 10.247M134.984 119.23L86.121 223.32M134.984 119.23l-43.812 68.618M134.984 119.23l-12.382 11.938M134.984 119.23l-38.058 52.036M134.984 119.23l31.246-20.074M134.984 119.23l113.895 75.766M165.86 350.668l138.663-11.797M165.86 350.668L86.12 223.32M165.86 350.668l94.175 8.73M165.86 350.668l132.425-7.688M165.86 350.668l101.624 6.562M165.86 350.668l67.6 12.965M165.86 350.668l115.331 1.348M213.043 86.625l66.543 10.664M213.043 86.625l67 10.86M213.043 86.625l-88.867 42.852M213.043 86.625l-90.441 44.543M213.043 86.625l-116.117 84.64M213.043 86.625L166.23 99.156M213.043 86.625l132.57 69.508M213.043 86.625l35.836 108.371M279.586 97.29l.457.194M279.586 97.29L166.23 99.155M279.586 97.29l66.027 58.843M279.586 97.29l-30.707 97.706M280.043 97.484L166.23 99.156M280.043 97.484l65.57 58.649M280.043 97.484l-31.164 97.512M124.176 129.477L86.12 223.32M124.176 129.477l-33.004 58.37M124.176 129.477l-1.574 1.691M124.176 129.477l-27.25 41.789M124.176 129.477l42.054-30.32M124.176 129.477l124.703 65.52M304.523 338.871l-44.488 20.527M304.523 338.871l-6.238 4.11M304.523 338.871l-37.039 18.36M304.523 338.871l-71.062 24.762M304.523 338.871l34.965-35.242M304.523 338.871l-23.332 13.145M304.523 338.871l32.055-31.164M304.523 338.871l56.301-84.848M86.121 223.32l5.05-35.472M86.121 223.32l36.48-92.152M86.121 223.32l10.805-52.054M86.121 223.32l80.11-124.164M260.035 359.398l38.25-16.418M260.035 359.398l7.45-2.168M260.035 359.398l-26.574 4.235M260.035 359.398l79.453-55.77M260.035 359.398l21.156-7.382M260.035 359.398l76.543-51.691M260.035 359.398l100.79-105.375M298.285 342.98l-30.8 14.25M298.285 342.98l-64.824 20.653M298.285 342.98l41.203-39.351M298.285 342.98l-17.094 9.036M298.285 342.98l38.293-35.273M298.285 342.98l62.54-88.957M91.172 187.848l31.43-56.68M91.172 187.848l5.754-16.582M91.172 187.848l75.058-88.692M267.484 357.23l-34.023 6.403M267.484 357.23l72.004-53.601M267.484 357.23l13.707-5.214M267.484 357.23l69.094-49.523M267.484 357.23l93.34-103.207M122.602 131.168l-25.676 40.098M122.602 131.168l43.628-32.012M122.602 131.168l126.277 63.828M233.46 363.633l106.028-60.004M233.46 363.633l47.731-11.617M233.46 363.633l103.118-55.926M96.926 171.266l69.304-72.11M339.488 303.629l6.125-147.496M339.488 303.629l-58.297 48.387M339.488 303.629l-2.91 4.078M339.488 303.629l21.336-49.606M339.488 303.629l-90.61-108.633M166.23 99.156l82.649 95.84M345.613 156.133l-9.035 151.574M345.613 156.133l15.211 97.89M345.613 156.133l-96.734 38.863M281.191 352.016l55.387-44.309M281.191 352.016l79.633-97.993M336.578 307.707l24.246-53.684M336.578 307.707l-87.7-112.71M360.824 254.023L248.88 194.996" fill="none" stroke-width=".375" stroke-linecap="round" stroke-linejoin="round" stroke="#000" stroke-miterlimit="10"/><path d="M365.352 234.672c0 2.398-3.602 2.398-3.602 0 0-2.402 3.602-2.402 3.602 0M115.605 141.781c0 2.399-3.601 2.399-3.601 0 0-2.402 3.601-2.402 3.601 0M330.578 132.695c0 2.399-3.601 2.399-3.601 0 0-2.398 3.601-2.398 3.601 0M352.563 166.063c0 2.398-3.598 2.398-3.598 0 0-2.399 3.598-2.399 3.598 0M232.254 86.219c0 2.398-3.602 2.398-3.602 0 0-2.403 3.602-2.403 3.602 0M263.035 359.078c0 2.399-3.598 2.399-3.598 0 0-2.398 3.598-2.398 3.598 0M152.332 107.762c0 2.398-3.598 2.398-3.598 0 0-2.399 3.598-2.399 3.598 0M363.555 249.254c0 2.402-3.602 2.402-3.602 0 0-2.399 3.602-2.399 3.602 0M296.855 105.074c0 2.399-3.597 2.399-3.597 0 0-2.398 3.597-2.398 3.597 0M92.473 189.703c0 2.399-3.602 2.399-3.602 0 0-2.402 3.602-2.402 3.602 0M292.371 102.563c0 2.402-3.601 2.402-3.601 0 0-2.399 3.601-2.399 3.601 0M242.93 87.05c0 2.4-3.602 2.4-3.602 0 0-2.398 3.602-2.398 3.602 0M246.64 362.465c0 2.398-3.6 2.398-3.6 0 0-2.399 3.6-2.399 3.6 0M341.031 145.996c0 2.399-3.601 2.399-3.601 0 0-2.398 3.601-2.398 3.601 0M93.809 184.953c0 2.399-3.598 2.399-3.598 0 0-2.402 3.598-2.402 3.598 0M346.48 154.523c0 2.403-3.601 2.403-3.601 0 0-2.398 3.601-2.398 3.601 0M97.879 276.668c0 2.398-3.598 2.398-3.598 0s3.598-2.398 3.598 0M365.48 217.406c0 2.403-3.597 2.403-3.597 0 0-2.398 3.597-2.398 3.597 0" fill="red" stroke-width=".75" stroke-linecap="round" stroke-linejoin="round" stroke="red" stroke-miterlimit="10"/><path d="M365.133 237.43c0 2.402-3.602 2.402-3.602 0 0-2.399 3.602-2.399 3.602 0M170.375 98.09c0 2.398-3.602 2.398-3.602 0 0-2.399 3.602-2.399 3.602 0M137.898 331.707c0 2.402-3.597 2.402-3.597 0 0-2.398 3.597-2.398 3.597 0M187.863 91.68c0 2.402-3.597 2.402-3.597 0 0-2.399 3.597-2.399 3.597 0M365.66 227.875c0 2.402-3.601 2.402-3.601 0 0-2.398 3.601-2.398 3.601 0M342.172 302.328c0 2.399-3.602 2.399-3.602 0 0-2.398 3.602-2.398 3.602 0" fill="red" stroke-width=".75" stroke-linecap="round" stroke-linejoin="round" stroke="red" stroke-miterlimit="10"/><path d="M365.34 234.82c0 2.399-3.598 2.399-3.598 0 0-2.402 3.598-2.402 3.598 0M354.043 169.324c0 2.399-3.602 2.399-3.602 0 0-2.398 3.602-2.398 3.602 0M129.855 324.46c0 2.4-3.597 2.4-3.597 0 0-2.401 3.597-2.401 3.597 0M88.16 216.691c0 2.403-3.601 2.403-3.601 0 0-2.398 3.601-2.398 3.601 0M363.395 250.148c0 2.399-3.602 2.399-3.602 0 0-2.402 3.602-2.402 3.602 0M136.785 119.23c0 2.399-3.601 2.399-3.601 0 0-2.402 3.601-2.402 3.601 0M167.66 350.668c0 2.398-3.601 2.398-3.601 0s3.601-2.398 3.601 0M214.844 86.625c0 2.402-3.602 2.402-3.602 0 0-2.398 3.602-2.398 3.602 0M281.387 97.29c0 2.397-3.602 2.397-3.602 0 0-2.403 3.602-2.403 3.602 0" fill="red" stroke-width=".75" stroke-linecap="round" stroke-linejoin="round" stroke="red" stroke-miterlimit="10"/><path d="M281.844 97.484c0 2.399-3.598 2.399-3.598 0 0-2.398 3.598-2.398 3.598 0M125.977 129.477c0 2.402-3.602 2.402-3.602 0 0-2.399 3.602-2.399 3.602 0M306.32 338.871c0 2.399-3.597 2.399-3.597 0 0-2.402 3.597-2.402 3.597 0M87.922 223.32c0 2.403-3.602 2.403-3.602 0 0-2.398 3.602-2.398 3.602 0M261.836 359.398c0 2.399-3.602 2.399-3.602 0 0-2.402 3.602-2.402 3.602 0M300.086 342.98c0 2.399-3.602 2.399-3.602 0 0-2.398 3.602-2.398 3.602 0M92.973 187.848c0 2.402-3.602 2.402-3.602 0 0-2.399 3.602-2.399 3.602 0M269.285 357.23c0 2.403-3.601 2.403-3.601 0 0-2.398 3.601-2.398 3.601 0" fill="red" stroke-width=".75" stroke-linecap="round" stroke-linejoin="round" stroke="red" stroke-miterlimit="10"/><path d="M124.402 131.168c0 2.398-3.601 2.398-3.601 0 0-2.402 3.601-2.402 3.601 0M235.262 363.633c0 2.398-3.602 2.398-3.602 0 0-2.403 3.602-2.403 3.602 0M98.727 171.266c0 2.402-3.602 2.402-3.602 0 0-2.399 3.602-2.399 3.602 0M341.29 303.629c0 2.402-3.603 2.402-3.603 0 0-2.399 3.602-2.399 3.602 0M168.031 99.156c0 2.403-3.601 2.403-3.601 0 0-2.398 3.601-2.398 3.601 0M347.414 156.133c0 2.402-3.601 2.402-3.601 0 0-2.399 3.601-2.399 3.601 0M282.988 352.016c0 2.398-3.597 2.398-3.597 0 0-2.403 3.597-2.403 3.597 0M338.375 307.707c0 2.402-3.598 2.402-3.598 0 0-2.398 3.598-2.398 3.598 0M362.621 254.023c0 2.399-3.598 2.399-3.598 0 0-2.402 3.598-2.402 3.598 0M250.68 194.996c0 2.402-3.602 2.402-3.602 0 0-2.398 3.602-2.398 3.602 0" fill="red" stroke-width=".75" stroke-linecap="round" stroke-linejoin="round" stroke="red" stroke-miterlimit="10"/><path d="M250.68 194.996c0 2.402-3.602 2.402-3.602 0 0-2.398 3.602-2.398 3.602 0" fill="#0f0" stroke-width=".75" stroke-linecap="round" stroke-linejoin="round" stroke="#0f0" stroke-miterlimit="10"/></svg>