<svg xmlns="http://www.w3.org/2000/svg" width="310" height="260" version="1.0"><path d="M79.36 37.154c70.91-30.86 163.019-14.199 205.6 37.19 42.582 51.39 19.592 118.143-51.318 149.002-70.91 30.86-163.019 14.198-205.6-37.19-42.524-51.32-19.06-118.22 51.663-149.148" fill="none" stroke="#000" stroke-width="1.52"/><path d="M97.251 30.7c54.463-18.497 125.209-8.51 157.914 22.292 32.706 30.801 15.048 70.811-39.415 89.308S90.54 150.81 57.836 120.008c-32.661-30.76-15.114-70.7 39.205-89.236" fill="none" stroke="#000" stroke-width="1.031"/><path d="M103.25 118c-23.836-65.452 134.677-56.217 107.625-1.25M44 202c63.292 36.548 155.229 49.613 234.336-8.482M10.37 154.019c50.095 86.961 233.914 91.713 292.742.177M7.81 118.948c14.163 120.398 287.183 107.881 297.565-.573" fill="none" fill-rule="evenodd" stroke="#000"/><path d="M16.026 92.677c-7.738 34.63 24.753 92.748 139.477 94.4 100.159-1.373 153.877-49.583 140.184-96.874" fill="none" fill-rule="evenodd" stroke="#000"/><path d="M39.714 62.272c-52.463 73.167 69.288 107.97 117.557 106.596 50.164 2.256 167.135-34.894 116.142-106.243" fill="none" fill-rule="evenodd" stroke="#000"/><path d="M105.775 37.654c46.303-15.605 106.448-7.18 134.253 18.807 27.805 25.987 12.793 59.744-33.51 75.35-46.302 15.605-106.448 7.18-134.253-18.808-27.767-25.952-12.849-59.649 33.331-75.288" fill="none" stroke="#000"/><path d="M114.196 47.594c38.724-13.014 89.025-5.987 112.28 15.684 23.254 21.671 10.699 49.821-28.026 62.835-38.724 13.014-89.025 5.987-112.28-15.684-23.222-21.642-10.746-49.742 27.876-62.785" fill="none" stroke="#000"/><path d="M121.367 61.22c31.902-10.942 73.342-5.035 92.5 13.186s8.814 41.89-23.088 52.832c-31.903 10.941-73.343 5.034-92.5-13.187-19.132-18.196-8.853-41.823 22.965-52.789" fill="none" stroke="#000"/><path d="M106.5 120.125c-4.677-25.484 32.25-33.73 49.25-33.37 21.975.463 58.114 12.206 50 33.37" fill="none" fill-rule="evenodd" stroke="#000"/><path d="M109.644 121.732c.773-13.266 26.91-21.43 43.48-22.088 21.955-.873 47.718 9.254 50.23 22.088" fill="none" fill-rule="evenodd" stroke="#000"/><path d="M112 123.125c11.394-10.273 28.133-13.936 43.313-14.242 15.17-.305 31.58 3.005 44.812 14.242" fill="none" fill-rule="evenodd" stroke="#000"/><path d="M112.04 123.586c11.383-7.065 28.107-9.584 43.274-9.794 15.156-.21 31.552 2.066 44.772 9.794M151 132.5c-2.86 35.5-4 71-3.116 106.5M137.75 131.25c-11.238 21.345-21.836 58.081-14.75 105M125.25 128.5C97.981 152.317 88.308 208.375 100 231M114 125l.5.25c-28.422 10.562-49.253 57.275-39.25 96.5" fill="none" fill-rule="evenodd" stroke="#000"/><path d="M109.25 121.5c-20.944-2.004-41.043 18.825-48.647 35.724-7.026 15.618-14.69 35.582-3.603 54.276" fill="none" fill-rule="evenodd" stroke="#000"/><path d="M101.75 117c-26.477-4.81-38.567 10.092-50.125 20.875-14.428 19.172-22.271 38.539-14.125 58.375" fill="none" fill-rule="evenodd" stroke="#000"/><path d="M98 114c-13.037-6.012-26.553-7.067-41 1.5-26.259 15.395-33.39 36.082-34.293 40.763-.643 9.964-1.841 15.863-.09 23.53" fill="none" fill-rule="evenodd" stroke="#000"/><path d="M103.177 117.603c-1.759-3.877-6.618-7.969-11.667-11.844-14.992-5.711-29.263-6.516-44.725 1.414-14.517 7.756-27.346 17.202-32.527 34.295-1.122 5.362-2.172 10.724-2.828 16.086" fill="none" fill-rule="evenodd" stroke="#000"/><path d="M104.643 119.03c-3.694-5.603-4.398-12.098-15.078-18.574-12.21-7.123-27.28-9.242-47.022-3.182-21.787 6.552-32.404 23.869-35.356 44.547M151 132.5c-2.86 35.5-4 71-3.116 106.5M137.75 131.25c-11.238 21.345-21.836 58.081-14.75 105M125.25 128.5C97.981 152.317 88.308 208.375 100 231M114 125l.5.25c-28.422 10.562-49.253 57.275-39.25 96.5M60.603 157.224C53.577 172.842 45.913 192.806 57 211.5" fill="none" fill-rule="evenodd" stroke="#000"/><path d="M101.75 117c-26.477-4.81-38.567 10.092-50.125 20.875-14.428 19.172-22.271 38.539-14.125 58.375" fill="none" fill-rule="evenodd" stroke="#000"/><path d="M98 114c-13.037-6.012-26.553-7.067-41 1.5-26.259 15.395-33.39 36.082-34.293 40.763-.643 9.964-1.841 15.863-.09 23.53" fill="none" fill-rule="evenodd" stroke="#000"/><path d="M103.177 117.603c-1.759-3.877-6.618-7.969-11.667-11.844-14.992-5.711-29.263-6.516-44.725 1.414-14.517 7.756-27.346 17.202-32.527 34.295-1.122 5.362-2.172 10.724-2.828 16.086" fill="none" fill-rule="evenodd" stroke="#000"/><path d="M104.643 119.03c-3.694-5.603-4.398-12.098-15.078-18.574-12.21-7.123-27.28-9.242-47.022-3.182-21.787 6.552-32.404 23.869-35.356 44.547" fill="none" fill-rule="evenodd" stroke="#000"/><path d="M106.25 120.25c-2.036-7.262-6.096-16.449-18-27-23.77-12.86-36.397-8.779-47.25-6.5C22.754 90.837 11.496 101.913 7.25 120" fill="none" fill-rule="evenodd" stroke="#000"/><path d="M107.75 120.75c-.16-10.917-10.68-27.333-18-33-31.403-19.042-47.655-11.688-60-7.75-4.876 3.521-8.956 6.645-12.5 9.5" fill="none" fill-rule="evenodd" stroke="#000"/><path d="M109.25 121.75c.35-13.19-2.779-26.972-17-39.25-22.103-18.545-33.558-15.931-45.5-15.75-6.548.851-11.833 2.209-15.5 4.25" fill="none" fill-rule="evenodd" stroke="#000"/><path d="M111 123c1.204-10.398.573-21.69-5.5-32.75C98.407 76.506 86.343 66.077 69.25 59c-7.57-1.183-14.635-2.997-24.75-1" fill="none" fill-rule="evenodd" stroke="#000"/><path d="M112.25 122.75c2.477-13.515 9.502-23.165-10.5-51.25-10.917-9.23-18.147-21.223-39-23L58.5 48" fill="none" fill-rule="evenodd" stroke="#000"/><path d="M115.25 122c7.384-18.413 5.45-36.504-6.5-54.25-8.544-16.024-21.935-21.664-35-28" fill="none" fill-rule="evenodd" stroke="#000"/><path d="M121.407 119.297c7.317-13.964 3.562-27.66.685-42.53-9.516-27.169-20.879-36.284-34.294-43.84" fill="none" fill-rule="evenodd" stroke="#000"/><path d="M101.94 28.684c16.22 12.286 22.046 25.588 26.594 40.124 4.834 15.448 5.872 40.34-1.514 48.536M135.88 115.387c8.246-29.59 1.815-60.653-16.263-90.592M135.799 22.445c12.269 29.247 12.144 60.814 10.296 91.32M156 114c1.597-31.186.08-61.75-.5-92.5M160.897 132.5c2.86 35.5 3.999 71 3.116 106.5M174.147 131.25c11.238 21.345 21.835 58.081 14.75 105M186.647 128.5c27.268 23.817 36.942 79.875 25.25 102.5M197.897 125l-.5.25c28.422 10.562 49.253 57.275 39.25 96.5" fill="none" fill-rule="evenodd" stroke="#000"/><path d="M202.647 121.5c20.943-2.004 41.043 18.825 48.646 35.724 7.026 15.618 14.69 35.582 3.604 54.276" fill="none" fill-rule="evenodd" stroke="#000"/><path d="M210.147 117c26.477-4.81 38.567 10.092 50.125 20.875 14.427 19.172 22.271 38.539 14.125 58.375" fill="none" fill-rule="evenodd" stroke="#000"/><path d="M213.897 114c13.036-6.012 26.552-7.067 41 1.5 26.258 15.395 33.39 36.082 34.293 40.763.643 9.964 1.84 15.863.09 23.53" fill="none" fill-rule="evenodd" stroke="#000"/><path d="M208.72 117.603c1.758-3.877 6.617-7.969 11.667-11.844 14.991-5.711 29.262-6.516 44.724 1.414 14.518 7.756 27.346 17.202 32.527 34.295 1.122 5.362 2.172 10.724 2.829 16.086" fill="none" fill-rule="evenodd" stroke="#000"/><path d="M207.254 119.03c3.694-5.603 4.397-12.098 15.077-18.574 12.21-7.123 27.28-9.242 47.023-3.182 21.786 6.552 32.403 23.869 35.355 44.547M160.897 132.5c2.86 35.5 3.999 71 3.116 106.5M174.147 131.25c11.238 21.345 21.835 58.081 14.75 105M186.647 128.5c27.268 23.817 36.942 79.875 25.25 102.5M197.897 125l-.5.25c28.422 10.562 49.253 57.275 39.25 96.5M251.293 157.224c7.026 15.618 14.69 35.582 3.604 54.276" fill="none" fill-rule="evenodd" stroke="#000"/><path d="M210.147 117c26.477-4.81 38.567 10.092 50.125 20.875 14.427 19.172 22.271 38.539 14.125 58.375" fill="none" fill-rule="evenodd" stroke="#000"/><path d="M213.897 114c13.036-6.012 26.552-7.067 41 1.5 26.258 15.395 33.39 36.082 34.293 40.763.643 9.964 1.84 15.863.09 23.53" fill="none" fill-rule="evenodd" stroke="#000"/><path d="M208.72 117.603c1.758-3.877 6.617-7.969 11.667-11.844 14.991-5.711 29.262-6.516 44.724 1.414 14.518 7.756 27.346 17.202 32.527 34.295 1.122 5.362 2.172 10.724 2.829 16.086" fill="none" fill-rule="evenodd" stroke="#000"/><path d="M207.254 119.03c3.694-5.603 4.397-12.098 15.077-18.574 12.21-7.123 27.28-9.242 47.023-3.182 21.786 6.552 32.403 23.869 35.355 44.547" fill="none" fill-rule="evenodd" stroke="#000"/><path d="M205.647 120.25c2.035-7.262 6.096-16.449 18-27 23.77-12.86 36.396-8.779 47.25-6.5 18.246 4.087 29.504 15.163 33.75 33.25" fill="none" fill-rule="evenodd" stroke="#000"/><path d="M204.147 120.75c.16-10.917 10.68-27.333 18-33 31.403-19.042 47.655-11.688 60-7.75 4.876 3.521 8.956 6.645 12.5 9.5" fill="none" fill-rule="evenodd" stroke="#000"/><path d="M202.647 121.75c-.35-13.19 2.778-26.972 17-39.25 22.103-18.545 33.558-15.931 45.5-15.75 6.547.851 11.832 2.209 15.5 4.25" fill="none" fill-rule="evenodd" stroke="#000"/><path d="M200.897 123c-1.205-10.398-.574-21.69 5.5-32.75 7.093-13.744 19.157-24.173 36.25-31.25 7.57-1.183 14.635-2.997 24.75-1" fill="none" fill-rule="evenodd" stroke="#000"/><path d="M199.647 122.75c-2.478-13.515-9.502-23.165 10.5-51.25 10.916-9.23 18.147-21.223 39-23l4.25-.5" fill="none" fill-rule="evenodd" stroke="#000"/><path d="M196.647 122c-7.384-18.413-5.45-36.504 6.5-54.25 8.544-16.024 21.934-21.664 35-28" fill="none" fill-rule="evenodd" stroke="#000"/><path d="M190.49 119.297c-7.317-13.964-3.563-27.66-.686-42.53 9.517-27.169 20.88-36.284 34.295-43.84" fill="none" fill-rule="evenodd" stroke="#000"/><path d="M209.957 28.684c-16.22 12.286-22.046 25.588-26.595 40.124-4.834 15.448-5.872 40.34 1.514 48.536M176.016 115.387c-8.246-29.59-1.814-60.653 16.263-90.592M176.098 22.445c-12.27 29.247-12.145 60.814-10.296 91.32" fill="none" fill-rule="evenodd" stroke="#000"/></svg>