<svg xmlns="http://www.w3.org/2000/svg" width="374pt" height="374pt" viewBox="0 0 374 374"><path fill="#fff" d="M0 0h374v374H0z"/><path d="M294.254 131.625c0 3.598-5.399 3.598-5.399 0 0-3.602 5.399-3.602 5.399 0M103.863 129.527c0 3.602-5.398 3.602-5.398 0 0-3.597 5.398-3.597 5.398 0M278.98 119.617c0 3.598-5.402 3.598-5.402 0 0-3.601 5.402-3.601 5.402 0M293.32 249.36c0 3.6-5.398 3.6-5.398 0 0-3.598 5.398-3.598 5.398 0M295.703 152.266c0 3.601-5.398 3.601-5.398 0 0-3.602 5.398-3.602 5.398 0M117.934 108.738c0 3.602-5.403 3.602-5.403 0 0-3.597 5.403-3.597 5.403 0M222.402 316.46c0 3.599-5.402 3.599-5.402 0 0-3.6 5.402-3.6 5.402 0M109.59 106.273c0 3.602-5.399 3.602-5.399 0 0-3.597 5.399-3.597 5.399 0" fill="coral" stroke-width=".75" stroke-linecap="round" stroke-linejoin="round" stroke="coral" stroke-miterlimit="10"/><path d="M280.84 115.84c0 3.601-5.402 3.601-5.402 0 0-3.598 5.402-3.598 5.402 0M245.441 74.871c0 3.602-5.402 3.602-5.402 0 0-3.598 5.402-3.598 5.402 0M198.797 316.273c0 3.598-5.399 3.598-5.399 0 0-3.601 5.399-3.601 5.399 0M171.79 64.816c0 3.602-5.4 3.602-5.4 0 0-3.597 5.4-3.597 5.4 0M306.074 187.547c0 3.601-5.402 3.601-5.402 0 0-3.598 5.402-3.598 5.402 0M259.273 286.191c0 3.598-5.402 3.598-5.402 0 0-3.601 5.402-3.601 5.402 0M112.145 137.66c0 3.602-5.403 3.602-5.403 0 0-3.597 5.403-3.597 5.403 0M305.375 219.398c0 3.602-5.398 3.602-5.398 0 0-3.597 5.398-3.597 5.398 0M94.582 136.344c0 3.597-5.398 3.597-5.398 0 0-3.602 5.398-3.602 5.398 0M299.145 228.305c0 3.597-5.399 3.597-5.399 0 0-3.602 5.399-3.602 5.399 0M223.914 311.3c0 3.602-5.398 3.602-5.398 0 0-3.6 5.398-3.6 5.398 0M187 70.125c0 3.602-5.398 3.602-5.398 0 0-3.598 5.398-3.598 5.398 0M80.07 185.137c0 3.601-5.398 3.601-5.398 0 0-3.598 5.398-3.598 5.398 0" fill="coral" stroke-width=".75" stroke-linecap="round" stroke-linejoin="round" stroke="coral" stroke-miterlimit="10"/><path d="M260.668 281.203c0 3.602-5.398 3.602-5.398 0 0-3.598 5.398-3.598 5.398 0M220.348 71.598c0 3.601-5.403 3.601-5.403 0 0-3.598 5.403-3.598 5.403 0M289.297 114.598c0 3.601-5.402 3.601-5.402 0 0-3.598 5.402-3.598 5.402 0M288.754 124.96c0 3.603-5.399 3.603-5.399 0 0-3.6 5.399-3.6 5.399 0M227.238 59.402c0 3.598-5.402 3.598-5.402 0 0-3.601 5.402-3.601 5.402 0M95.547 219.93c0 3.601-5.402 3.601-5.402 0 0-3.598 5.402-3.598 5.402 0M111.55 274.96c0 3.603-5.398 3.603-5.398 0 0-3.6 5.399-3.6 5.399 0M143.402 84.477c0 3.601-5.402 3.601-5.402 0 0-3.598 5.402-3.598 5.402 0M296.75 210.914c0 3.602-5.398 3.602-5.398 0 0-3.598 5.398-3.598 5.398 0M136.762 298.602c0 3.601-5.399 3.601-5.399 0 0-3.602 5.399-3.602 5.399 0M95.219 203.738c0 3.602-5.399 3.602-5.399 0 0-3.597 5.399-3.597 5.399 0" fill="coral" stroke-width=".75" stroke-linecap="round" stroke-linejoin="round" stroke="coral" stroke-miterlimit="10"/><path d="M109.188 278.566c0 3.602-5.403 3.602-5.403 0 0-3.597 5.403-3.597 5.403 0M262.555 286.797c0 3.598-5.403 3.598-5.403 0 0-3.602 5.403-3.602 5.403 0M271.191 265.332c0 3.598-5.398 3.598-5.398 0 0-3.602 5.398-3.602 5.398 0M90 172.027c0 3.602-5.402 3.602-5.402 0 0-3.597 5.402-3.597 5.402 0M180.39 305.496c0 3.602-5.398 3.602-5.398 0 0-3.601 5.399-3.601 5.399 0M88.844 190.21c0 3.599-5.399 3.599-5.399 0 0-3.6 5.399-3.6 5.399 0M277.516 278.004c0 3.601-5.403 3.601-5.403 0 0-3.602 5.403-3.602 5.403 0M132.191 295.305c0 3.597-5.398 3.597-5.398 0 0-3.602 5.398-3.602 5.398 0M96.152 206.887c0 3.601-5.402 3.601-5.402 0 0-3.602 5.402-3.602 5.402 0M292.2 221.168c0 3.598-5.4 3.598-5.4 0 0-3.602 5.4-3.602 5.4 0M214.297 310.566c0 3.602-5.399 3.602-5.399 0 0-3.601 5.399-3.601 5.399 0M230.457 57.54c0 3.6-5.398 3.6-5.398 0 0-3.599 5.398-3.599 5.398 0M110.93 129.336c0 3.601-5.399 3.601-5.399 0 0-3.598 5.399-3.598 5.399 0M110.809 111.676c0 3.601-5.399 3.601-5.399 0 0-3.598 5.399-3.598 5.399 0M97.922 138.758c0 3.597-5.399 3.597-5.399 0 0-3.602 5.399-3.602 5.399 0M116.566 276.82c0 3.602-5.398 3.602-5.398 0 0-3.601 5.398-3.601 5.398 0" fill="coral" stroke-width=".75" stroke-linecap="round" stroke-linejoin="round" stroke="coral" stroke-miterlimit="10"/><path d="M94.121 211.512c0 3.597-5.402 3.597-5.402 0 0-3.602 5.402-3.602 5.402 0" fill="coral" stroke-width=".75" stroke-linecap="round" stroke-linejoin="round" stroke="coral" stroke-miterlimit="10"/><path d="M96.508 214.29c0 3.6-5.399 3.6-5.399 0 0-3.599 5.399-3.599 5.399 0" fill="coral" stroke-width=".75" stroke-linecap="round" stroke-linejoin="round" stroke="coral" stroke-miterlimit="10"/><path d="M262.488 114.574c0 3.598-5.398 3.598-5.398 0 0-3.601 5.398-3.601 5.398 0M317.242 95.977c0 3.601-5.402 3.601-5.402 0 0-3.598 5.402-3.598 5.402 0M283.11 131.824c0 3.602-5.4 3.602-5.4 0 0-3.601 5.4-3.601 5.4 0M123.43 167.715c0 3.601-5.403 3.601-5.403 0 0-3.598 5.403-3.598 5.403 0M107.066 72.133c0 3.597-5.398 3.597-5.398 0 0-3.602 5.398-3.602 5.398 0M179.473 304.098c0 3.601-5.399 3.601-5.399 0 0-3.602 5.399-3.602 5.399 0M337.566 138.852c0 3.597-5.398 3.597-5.398 0 0-3.602 5.398-3.602 5.398 0M97.453 163.355c0 3.598-5.402 3.598-5.402 0 0-3.601 5.402-3.601 5.402 0M122.316 197.543c0 3.602-5.402 3.602-5.402 0 0-3.598 5.402-3.598 5.402 0M60.695 227.207c0 3.602-5.402 3.602-5.402 0 0-3.598 5.402-3.598 5.402 0M237.707 302.328c0 3.602-5.398 3.602-5.398 0 0-3.598 5.398-3.598 5.398 0M289.375 90.605c0 3.602-5.398 3.602-5.398 0 0-3.597 5.398-3.597 5.398 0M293.559 79.508c0 3.601-5.403 3.601-5.403 0 0-3.598 5.403-3.598 5.403 0M183.238 52.672c0 3.598-5.398 3.598-5.398 0 0-3.602 5.398-3.602 5.398 0M103.633 231.043c0 3.598-5.403 3.598-5.403 0 0-3.602 5.403-3.602 5.403 0M215.816 112.48c0 3.598-5.398 3.598-5.398 0 0-3.601 5.398-3.601 5.398 0M331.805 132.566c0 3.602-5.399 3.602-5.399 0 0-3.597 5.399-3.597 5.399 0M136.445 238.91c0 3.598-5.402 3.598-5.402 0 0-3.601 5.402-3.601 5.402 0M217.61 308.012c0 3.597-5.403 3.597-5.403 0 0-3.602 5.402-3.602 5.402 0M170.484 90.797c0 3.601-5.398 3.601-5.398 0 0-3.598 5.398-3.598 5.398 0M150.965 70.133c0 3.601-5.403 3.601-5.403 0 0-3.598 5.403-3.598 5.403 0M163.879 81.945c0 3.602-5.399 3.602-5.399 0 0-3.597 5.399-3.597 5.399 0M364.633 261.422c0 3.598-5.403 3.598-5.403 0 0-3.602 5.403-3.602 5.403 0M268.277 319.992c0 3.602-5.398 3.602-5.398 0 0-3.597 5.398-3.597 5.398 0M76.465 203.664c0 3.602-5.399 3.602-5.399 0 0-3.598 5.399-3.598 5.399 0M111.953 222.934c0 3.597-5.402 3.597-5.402 0 0-3.602 5.402-3.602 5.402 0M323.668 190.297c0 3.601-5.398 3.601-5.398 0 0-3.598 5.398-3.598 5.398 0M310.035 190.313c0 3.597-5.402 3.597-5.402 0 0-3.602 5.402-3.602 5.402 0M43.613 254.758c0 3.601-5.402 3.601-5.402 0 0-3.598 5.402-3.598 5.402 0M303.605 129.895c0 3.601-5.402 3.601-5.402 0 0-3.602 5.402-3.602 5.402 0M101.723 106.68c0 3.597-5.399 3.597-5.399 0 0-3.602 5.399-3.602 5.399 0M291.68 244.875c0 3.602-5.399 3.602-5.399 0 0-3.598 5.399-3.598 5.399 0M274.32 296.195c0 3.598-5.402 3.598-5.402 0 0-3.601 5.402-3.601 5.402 0" fill="#1e90ff" stroke-width=".75" stroke-linecap="round" stroke-linejoin="round" stroke="#1e90ff" stroke-miterlimit="10"/><path d="M109.922 219.098c0 3.601-5.402 3.601-5.402 0 0-3.602 5.402-3.602 5.402 0M206.195 336.348c0 3.601-5.402 3.601-5.402 0 0-3.598 5.402-3.598 5.402 0M288.379 93.992c0 3.598-5.399 3.598-5.399 0 0-3.601 5.399-3.601 5.399 0M148.086 27.422c0 3.601-5.399 3.601-5.399 0 0-3.598 5.399-3.598 5.399 0M89.242 192.004c0 3.598-5.402 3.598-5.402 0 0-3.602 5.402-3.602 5.402 0M203.793 300.684c0 3.601-5.398 3.601-5.398 0 0-3.598 5.398-3.598 5.398 0M90.645 230.309c0 3.601-5.403 3.601-5.403 0 0-3.598 5.403-3.598 5.403 0M145.59 334.594c0 3.601-5.399 3.601-5.399 0 0-3.598 5.399-3.598 5.399 0M119.281 163.227c0 3.601-5.402 3.601-5.402 0 0-3.598 5.402-3.598 5.402 0M152.598 283.133c0 3.597-5.399 3.597-5.399 0 0-3.602 5.399-3.602 5.399 0M70.68 189.32c0 3.598-5.403 3.598-5.403 0 0-3.601 5.403-3.601 5.403 0M140.309 96.7c0 3.6-5.399 3.6-5.399 0 0-3.602 5.399-3.602 5.399 0M283.227 282.14c0 3.598-5.399 3.598-5.399 0 0-3.6 5.399-3.6 5.399 0M82.2 201.91c0 3.602-5.4 3.602-5.4 0 0-3.597 5.4-3.597 5.4 0M151.098 261.852c0 3.597-5.403 3.597-5.403 0 0-3.602 5.403-3.602 5.403 0M254.559 274.406c0 3.602-5.399 3.602-5.399 0 0-3.601 5.399-3.601 5.399 0M259.082 96.254c0 3.601-5.402 3.601-5.402 0 0-3.598 5.402-3.598 5.402 0" fill="#1e90ff" stroke-width=".75" stroke-linecap="round" stroke-linejoin="round" stroke="#1e90ff" stroke-miterlimit="10"/></svg>