<svg xmlns="http://www.w3.org/2000/svg" xmlns:xlink="http://www.w3.org/1999/xlink" width="374pt" height="374pt" viewBox="0 0 374 374"><defs><symbol overflow="visible" id="a"><path d="M2.516-10.375L3.89-4.437l.28 1.656.313-1.61 1.172-5.984h2.282l1.234 5.938.312 1.656.313-1.594 1.39-6h2.204L10.469 0H8.406L7.141-6.063l-.36-2-.36 2L5.157 0h-2L.22-10.375zm0 0"/></symbol><symbol overflow="visible" id="b"><path d="M5.156-3.734c-.125.086-.25.152-.375.203a2.417 2.417 0 01-.531.14l-.453.079c-.418.074-.719.167-.906.28-.313.18-.47.462-.47.845 0 .343.095.593.282.75.195.148.43.218.703.218.426 0 .82-.125 1.188-.375.363-.258.55-.722.562-1.39zm-1.203-.922c.363-.051.625-.114.781-.188.29-.113.438-.3.438-.562 0-.313-.11-.524-.328-.64-.219-.126-.54-.188-.953-.188-.48 0-.82.117-1.016.343-.137.18-.23.414-.281.704H.656c.04-.665.227-1.22.563-1.657.531-.664 1.441-1 2.734-1 .844 0 1.586.168 2.235.5.656.336.984.961.984 1.875v3.516c0 .25.004.547.016.89.007.262.046.438.109.532.07.094.172.172.297.234V0H5.422a2.96 2.96 0 01-.14-.438 3.645 3.645 0 01-.048-.468 4.168 4.168 0 01-.953.765c-.437.25-.93.375-1.468.375-.7 0-1.274-.199-1.72-.593C.646-.754.423-1.316.423-2.047c0-.937.36-1.617 1.078-2.047.406-.226.992-.39 1.766-.484zm.094-3.219zm0 0"/></symbol><symbol overflow="visible" id="c"><path d="M2.5-2.453c.04.367.129.621.266.765.25.274.71.407 1.39.407.383 0 .692-.055.922-.172.238-.125.36-.3.36-.531a.57.57 0 00-.282-.516c-.187-.125-.886-.328-2.093-.61-.868-.218-1.477-.488-1.829-.812-.355-.312-.53-.77-.53-1.375 0-.707.273-1.316.827-1.828.551-.508 1.332-.766 2.344-.766.957 0 1.738.196 2.344.579.601.386.945 1.046 1.031 1.984h-2c-.031-.258-.105-.461-.219-.61-.218-.28-.593-.421-1.125-.421-.437 0-.75.074-.937.218-.188.137-.281.293-.281.47 0 .23.097.398.296.5.196.105.895.292 2.094.562.8.187 1.399.468 1.797.843.395.387.594.868.594 1.438 0 .762-.29 1.387-.86 1.875C6.047.023 5.176.266 4 .266 2.79.266 1.898.008 1.328-.5c-.574-.508-.86-1.16-.86-1.953zm1.531-5.422zm0 0"/></symbol><symbol overflow="visible" id="d"><path d="M3.953-6.219c-.46 0-.82.149-1.078.438-.25.293-.406.687-.469 1.187h3.11c-.032-.531-.196-.93-.485-1.203a1.498 1.498 0 00-1.078-.422zm0-1.656c.645 0 1.223.121 1.735.36.507.242.93.62 1.265 1.14.3.45.492.977.578 1.578.051.356.07.86.063 1.516h-5.25c.031.773.273 1.312.734 1.625.27.187.602.281 1 .281.406 0 .738-.113 1-.344.145-.125.27-.3.375-.531H7.5c-.055.46-.293.922-.719 1.39C6.125-.116 5.207.25 4.031.25c-.98 0-1.843-.313-2.593-.938C.695-1.313.327-2.332.327-3.75c0-1.332.332-2.352 1-3.063.676-.707 1.55-1.062 2.625-1.062zm.14 0zm0 0"/></symbol><symbol overflow="visible" id="e"><path d="M5.094-7.844h.265v2.063c-.125-.008-.242-.016-.343-.016-.094-.008-.168-.016-.22-.016-.812 0-1.355.262-1.624.782-.156.293-.235.746-.235 1.36V0H.922v-7.672h1.906v1.344c.313-.508.582-.86.813-1.047.375-.313.859-.469 1.453-.469zm0 0"/></symbol><symbol overflow="visible" id="f"><path d="M.14-6.172v-1.422H1.22v-2.14h1.984v2.14h1.25v1.422h-1.25v4.047c0 .324.035.527.11.61.082.074.328.109.734.109h.187c.07-.008.145-.016.22-.016v1.5L3.5.11c-.95.032-1.602-.132-1.953-.5-.219-.226-.328-.582-.328-1.062v-4.719zm0 0"/></symbol><symbol overflow="visible" id="g"><path d="M3-8.578H.969v-1.86H3zm-2.031.906H3V0H.969zm0 0"/></symbol><symbol overflow="visible" id="h"><path d="M5.188-7.844c.789 0 1.437.211 1.937.625.508.407.766 1.094.766 2.063V0H5.828v-4.656c0-.407-.055-.719-.156-.938-.2-.394-.574-.593-1.125-.593-.68 0-1.149.292-1.406.875-.125.304-.188.687-.188 1.156V0h-2v-7.656h1.938v1.125c.25-.395.488-.68.718-.86.414-.3.942-.453 1.579-.453zm-.735-.031zm0 0"/></symbol><symbol overflow="visible" id="j"><path d="M7.969-10.375h3.125V0H9.063v-7.016-.843c.007-.364.015-.645.015-.844L7.125 0h-2.11L3.064-8.703v.844c.007.367.015.648.015.843V0H1.063v-10.375h3.156l1.875 8.156zm0 0"/></symbol><symbol overflow="visible" id="k"><path d="M5.516-4.922a1.836 1.836 0 00-.297-.766C5-6 4.649-6.155 4.172-6.155c-.668 0-1.125.336-1.375 1-.137.367-.203.84-.203 1.422 0 .562.066 1.015.203 1.359.238.648.687.969 1.344.969.468 0 .8-.125 1-.375.195-.258.316-.594.359-1h2.047c-.043.617-.262 1.195-.656 1.734C6.254-.172 5.32.266 4.094.266c-1.23 0-2.137-.364-2.719-1.094C.789-1.555.5-2.504.5-3.672c0-1.32.316-2.348.953-3.078.645-.727 1.535-1.094 2.672-1.094.957 0 1.742.215 2.36.64.613.43.972 1.188 1.077 2.282zm-1.36-2.953zm0 0"/></symbol><symbol overflow="visible" id="l"><path d="M5.156-7.86c.477 0 .91.087 1.297.25.383.157.703.407.953.75.207.282.332.575.375.876.051.304.078.796.078 1.484V0H5.813v-4.656c0-.414-.07-.75-.204-1-.187-.364-.539-.547-1.046-.547-.532 0-.934.18-1.204.531-.273.356-.406.86-.406 1.516V0h-2v-10.328h2v3.656c.29-.445.625-.754 1-.922a2.857 2.857 0 011.203-.265zm0 0"/></symbol><symbol overflow="visible" id="m"><path d="M4.234-1.64c.47 0 .864-.176 1.188-.532.32-.351.484-.922.484-1.703 0-.719-.156-1.266-.468-1.64-.305-.383-.715-.579-1.235-.579-.7 0-1.183.328-1.453.985-.137.355-.203.789-.203 1.296 0 .45.07.852.219 1.204.27.648.757.968 1.468.968zm-.5-6.204c.383 0 .72.059 1 .172.489.2.883.57 1.188 1.11v-1.11h1.937V-.39c0 .989-.168 1.735-.5 2.235-.574.863-1.668 1.297-3.28 1.297-.981 0-1.782-.196-2.407-.579C1.055 2.176.71 1.603.64.845h2.187c.05.226.145.394.281.5.207.187.567.281 1.079.281.726 0 1.21-.246 1.453-.734.156-.313.234-.836.234-1.563v-.484c-.188.324-.39.57-.61.734-.406.305-.93.453-1.562.453-.98 0-1.765-.344-2.36-1.031C.759-1.695.47-2.633.47-3.813c0-1.132.281-2.085.844-2.859.57-.781 1.378-1.172 2.421-1.172zm.641-.031zm0 0"/></symbol><symbol overflow="visible" id="o"><path d="M3.25-8.39c1.082 0 1.867.449 2.36 1.343.374.688.562 1.637.562 2.844 0 1.137-.172 2.078-.516 2.828C5.164-.301 4.36.235 3.234.235c-1 0-1.75-.438-2.25-1.313C.578-1.816.375-2.801.375-4.031c0-.946.125-1.766.375-2.453.457-1.27 1.29-1.907 2.5-1.907zM3.234-.735c.551 0 .989-.239 1.313-.72.32-.487.484-1.394.484-2.718 0-.945-.12-1.726-.36-2.344-.23-.613-.683-.921-1.359-.921-.624 0-1.085.292-1.374.875-.282.585-.422 1.445-.422 2.578 0 .855.093 1.543.28 2.062.282.793.759 1.188 1.438 1.188zm0 0"/></symbol><symbol overflow="visible" id="p"><path d="M1.031-1.281H2.25V0H1.031zm0 0"/></symbol><symbol overflow="visible" id="q"><path d="M1.484-2.14c.07.605.352 1.023.844 1.25.25.117.535.171.86.171.624 0 1.085-.195 1.39-.594.3-.394.453-.835.453-1.328 0-.582-.183-1.035-.547-1.359a1.849 1.849 0 00-1.28-.484c-.368 0-.68.074-.938.218-.262.137-.48.329-.657.579l-.921-.047.64-4.516h4.36v1.016H2.124l-.36 2.328c.196-.145.383-.254.563-.328a2.887 2.887 0 011.078-.188c.77 0 1.422.25 1.953.75.54.492.813 1.117.813 1.875 0 .793-.25 1.496-.75 2.11-.492.605-1.274.906-2.344.906A3.02 3.02 0 011.266-.36C.742-.742.453-1.336.39-2.141zm0 0"/></symbol><symbol overflow="visible" id="r"><path d="M1.156-5.938v-.812c.758-.07 1.285-.195 1.578-.375.301-.176.532-.586.688-1.234h.828V0H3.125v-5.938zm0 0"/></symbol><symbol overflow="visible" id="s"><path d="M.375 0c.04-.719.191-1.344.453-1.875.258-.54.766-1.031 1.516-1.469L3.469-4c.5-.29.851-.54 1.062-.75.32-.32.485-.691.485-1.11 0-.488-.153-.874-.454-1.156-.292-.289-.68-.437-1.156-.437-.73 0-1.23.273-1.5.812-.156.305-.242.711-.25 1.22H.578c.008-.727.145-1.321.406-1.782.457-.813 1.266-1.219 2.422-1.219.957 0 1.656.262 2.094.781.445.524.672 1.102.672 1.735 0 .668-.234 1.242-.703 1.718-.274.282-.762.622-1.469 1.016l-.813.438a5.12 5.12 0 00-.89.609c-.399.336-.649.71-.75 1.125H6.14v1zm0 0"/></symbol><symbol overflow="visible" id="y"><path d="M4.156-4.969c.489 0 .867-.066 1.14-.203.427-.219.641-.601.641-1.156 0-.563-.23-.942-.687-1.14-.25-.114-.633-.173-1.14-.173H2.03v2.672zM4.546-1c.708 0 1.22-.207 1.532-.625.188-.258.281-.57.281-.938 0-.624-.28-1.05-.843-1.28-.293-.126-.684-.188-1.172-.188H2.03V-1zM.892-8.61h3.687c1.008 0 1.727.305 2.156.907.25.355.375.766.375 1.234 0 .543-.156.985-.468 1.328-.157.188-.387.356-.688.5.438.168.766.36.984.579.395.375.594.89.594 1.546 0 .555-.18 1.055-.531 1.5C6.477-.336 5.656 0 4.531 0H.891zm0 0"/></symbol><symbol overflow="visible" id="z"><path d="M.781-6.25h1.063V0H.78zm0-2.36h1.063v1.204H.78zm0 0"/></symbol><symbol overflow="visible" id="A"><path d="M.797-6.281h1.015v1.093c.07-.218.27-.476.594-.78.32-.302.692-.454 1.11-.454.02 0 .05.008.093.016.051 0 .133.008.25.015v1.11c-.062-.008-.12-.016-.171-.016h-.172c-.532 0-.946.172-1.235.516A1.77 1.77 0 001.86-3.61V0H.797zm0 0"/></symbol><symbol overflow="visible" id="B"><path d="M.984-8.031h1.063v1.75h1v.86h-1v4.109c0 .218.078.367.234.437.07.043.207.063.406.063h.157c.062-.008.129-.016.203-.016V0a2.21 2.21 0 01-.375.063c-.125.019-.266.03-.422.03-.492 0-.824-.124-1-.374-.18-.25-.266-.578-.266-.985v-4.156H.141v-.86h.843zm0 0"/></symbol><symbol overflow="visible" id="C"><path d="M.781-8.64h1.047v3.218c.25-.32.473-.547.672-.672.344-.218.77-.328 1.281-.328.906 0 1.52.32 1.844.953.176.344.266.824.266 1.438V0H4.812v-3.953c0-.457-.062-.797-.187-1.016-.188-.343-.547-.515-1.078-.515-.438 0-.836.152-1.188.453-.355.304-.53.87-.53 1.703V0H.78zm0 0"/></symbol><symbol overflow="visible" id="t"><path d="M-8.39-3.25c0-1.082.449-1.867 1.343-2.36.688-.374 1.637-.562 2.844-.562 1.137 0 2.078.172 2.828.516C-.301-5.164.235-4.36.235-3.234c0 1-.438 1.75-1.313 2.25-.738.406-1.723.609-2.953.609-.946 0-1.766-.125-2.453-.375-1.27-.457-1.907-1.29-1.907-2.5zm7.656.016c0-.551-.239-.989-.72-1.313-.487-.32-1.394-.484-2.718-.484-.945 0-1.726.12-2.344.36-.613.23-.921.683-.921 1.359 0 .624.292 1.085.875 1.374.585.282 1.445.422 2.578.422.855 0 1.543-.093 2.062-.28.793-.282 1.188-.759 1.188-1.438zm0 0"/></symbol><symbol overflow="visible" id="u"><path d="M-1.281-1.031V-2.25H0v1.219zm0 0"/></symbol><symbol overflow="visible" id="v"><path d="M-2.14-1.484c.605-.07 1.023-.352 1.25-.844.117-.25.171-.535.171-.86 0-.624-.195-1.085-.594-1.39a2.135 2.135 0 00-1.328-.453c-.582 0-1.035.183-1.359.547-.32.355-.484.78-.484 1.28 0 .368.074.68.218.938.137.262.329.48.579.657l-.047.921-4.516-.64v-4.36h1.016v3.563l2.328.36a2.676 2.676 0 01-.328-.563 2.887 2.887 0 01-.188-1.078c0-.77.25-1.422.75-1.953.492-.54 1.117-.813 1.875-.813.793 0 1.496.25 2.11.75.605.492.906 1.274.906 2.344A3.02 3.02 0 01-.36-1.266c-.383.524-.977.813-1.782.875zm0 0"/></symbol><symbol overflow="visible" id="w"><path d="M-5.938-1.156h-.812c-.07-.758-.195-1.285-.375-1.578-.176-.301-.586-.532-1.234-.688v-.828H0v1.125h-5.938zm0 0"/></symbol><symbol overflow="visible" id="x"><path d="M0-.375c-.719-.04-1.344-.191-1.875-.453-.54-.258-1.031-.766-1.469-1.516L-4-3.469c-.29-.5-.54-.851-.75-1.062-.32-.32-.691-.485-1.11-.485-.488 0-.874.153-1.156.454-.289.292-.437.68-.437 1.156 0 .73.273 1.23.812 1.5.305.156.711.242 1.22.25v1.078c-.727-.008-1.321-.145-1.782-.406-.813-.457-1.219-1.266-1.219-2.422 0-.957.262-1.656.781-2.094.524-.445 1.102-.672 1.735-.672.668 0 1.242.234 1.718.703.282.274.622.762 1.016 1.469l.438.813c.21.374.414.671.609.89.336.399.71.649 1.125.75V-6.14h1zm0 0"/></symbol><symbol overflow="visible" id="D"><path d="M-1-4.219c0-.394-.04-.718-.125-.968-.145-.458-.438-.833-.875-1.125-.344-.227-.785-.391-1.328-.485a4.925 4.925 0 00-.906-.094c-1.07 0-1.899.215-2.485.641-.593.418-.89 1.102-.89 2.047v2.062H-1zm-7.61 3.25v-3.484c0-1.188.422-2.102 1.266-2.75.75-.582 1.719-.875 2.907-.875.917 0 1.746.172 2.484.515C-.648-6.957 0-5.913 0-4.438v3.47zm0 0"/></symbol><symbol overflow="visible" id="E"><path d="M-6.422-3.39c0-.446.106-.88.313-1.297.21-.415.48-.735.812-.954a3.036 3.036 0 011.11-.421c.292-.063.757-.094 1.39-.094v4.61c.637-.02 1.149-.173 1.531-.454.387-.281.579-.719.579-1.313 0-.55-.18-.988-.547-1.312a1.904 1.904 0 00-.735-.406v-1.032c.23.024.485.11.766.266.281.156.516.328.703.516.313.324.52.726.625 1.203.063.25.094.539.094.86 0 .78-.281 1.445-.844 1.984-.57.543-1.367.812-2.39.812-1.008 0-1.829-.27-2.454-.812-.633-.551-.953-1.27-.953-2.157zm2.781-1.672c-.457.042-.82.14-1.093.296-.508.282-.766.762-.766 1.438 0 .492.18.902.531 1.234.344.324.79.496 1.328.516zm-2.78 1.78zm0 0"/></symbol><symbol overflow="visible" id="F"><path d="M-1.672-1.578c.305 0 .543-.11.719-.328.18-.227.265-.492.265-.797 0-.375-.082-.735-.25-1.078-.289-.594-.757-.89-1.406-.89h-.844c.075.136.141.308.204.515.054.199.09.398.109.593l.078.626c.055.386.137.68.25.874.18.325.469.485.875.485zm-2.125-2.563c-.031-.238-.133-.398-.312-.484a1.077 1.077 0 00-.407-.063c-.351 0-.609.133-.765.391-.164.25-.25.61-.25 1.078 0 .555.148.946.437 1.172.168.137.414.227.735.266v.984c-.77-.02-1.305-.27-1.61-.75-.3-.488-.453-1.05-.453-1.687 0-.739.14-1.336.422-1.797.281-.457.719-.688 1.313-.688h3.609c.105 0 .195-.02.266-.062.062-.051.093-.149.093-.297v-.14c-.008-.063-.02-.13-.031-.204h.781c.04.168.067.297.078.39.02.087.032.2.032.345 0 .367-.133.625-.391.78-.133.095-.328.157-.578.188.281.219.527.532.734.938.207.398.313.836.313 1.312 0 .586-.18 1.063-.531 1.438-.352.367-.797.547-1.329.547-.582 0-1.035-.18-1.359-.547-.32-.364-.52-.836-.594-1.422zm-2.625.875zm0 0"/></symbol><symbol overflow="visible" id="G"><path d="M-8.031-.984v-1.063h1.75v-1h.86v1h4.109c.218 0 .367-.078.437-.234.043-.07.063-.207.063-.406v-.157a1.591 1.591 0 01-.016-.203H0c.031.117.05.242.063.375.019.125.03.266.03.422 0 .492-.124.824-.374 1-.25.18-.578.266-.985.266h-4.156v.843h-.86v-.843zm0 0"/></symbol><symbol overflow="visible" id="H"><path d="M-8.64-.781v-1.047h3.218c-.32-.25-.547-.473-.672-.672-.218-.344-.328-.77-.328-1.281 0-.906.32-1.52.953-1.844.344-.176.824-.266 1.438-.266H0v1.079h-3.953c-.457 0-.797.062-1.016.187-.343.188-.515.547-.515 1.078 0 .438.152.836.453 1.188.304.355.87.53 1.703.53H0V-.78zm0 0"/></symbol><clipPath id="n"><path d="M46.078 14.398h313.52v313.52H46.078zm0 0"/></clipPath><clipPath id="I"><path d="M46.078 14.398h313.52v313.52H46.078zm0 0"/></clipPath><clipPath id="J"><path d="M46.078 14.398h313.52v313.52H46.078zm0 0"/></clipPath><clipPath id="K"><path d="M46.078 14.398h313.52v313.52H46.078zm0 0"/></clipPath></defs><path fill="#fff" d="M0 0h374v374H0z"/><use xlink:href="#a" x="126.789" y="12.387"/><use xlink:href="#b" x="140.386" y="12.387"/><use xlink:href="#c" x="148.398" y="12.387"/><use xlink:href="#c" x="156.411" y="12.387"/><use xlink:href="#d" x="164.423" y="12.387"/><use xlink:href="#e" x="172.435" y="12.387"/><use xlink:href="#c" x="178.041" y="12.387"/><use xlink:href="#f" x="186.053" y="12.387"/><use xlink:href="#d" x="190.85" y="12.387"/><use xlink:href="#g" x="198.863" y="12.387"/><use xlink:href="#h" x="202.865" y="12.387"/><use xlink:href="#i" x="211.665" y="12.387"/><use xlink:href="#j" x="215.667" y="12.387"/><use xlink:href="#b" x="227.668" y="12.387"/><use xlink:href="#f" x="235.68" y="12.387"/><use xlink:href="#k" x="240.477" y="12.387"/><use xlink:href="#l" x="248.49" y="12.387"/><use xlink:href="#g" x="257.289" y="12.387"/><use xlink:href="#h" x="261.292" y="12.387"/><use xlink:href="#m" x="270.092" y="12.387"/><path d="M79.094 112.41l3.636 6.297h-7.273l3.637-6.297M90.73 276.758l3.633 6.3h-7.27l3.637-6.3M73.945 295.008l3.637 6.297h-7.273l3.636-6.297M83.969 285.34l3.636 6.297h-7.273l3.637-6.297M62.879 306.71l3.637 6.298h-7.274l3.637-6.297" fill="none" stroke-width="1.5" stroke-linecap="round" stroke-linejoin="round" stroke="#1e90ff" stroke-miterlimit="10"/><path d="M58.457 311.137l3.637 6.3H54.82l3.637-6.3M96.586 273.07l3.637 6.297h-7.274l3.637-6.297M67.09 302.594l3.637 6.3h-7.27l3.633-6.3" fill="none" stroke-width="1.5" stroke-linecap="round" stroke-linejoin="round" stroke="#1e90ff" stroke-miterlimit="10"/><path d="M61.762 308.027l3.636 6.297h-7.273l3.637-6.297" fill="none" stroke-width="1.5" stroke-linecap="round" stroke-linejoin="round" stroke="#1e90ff" stroke-miterlimit="10"/><path d="M59.602 310.195l3.636 6.301h-7.273l3.637-6.3M92.445 277.355l3.637 6.297h-7.273l3.636-6.297" fill="none" stroke-width="1.5" stroke-linecap="round" stroke-linejoin="round" stroke="#1e90ff" stroke-miterlimit="10"/><path d="M58.02 311.777l3.636 6.301h-7.273l3.637-6.3M217.355 130.676l3.637 6.297h-7.273l3.636-6.297" fill="none" stroke-width="1.5" stroke-linecap="round" stroke-linejoin="round" stroke="#1e90ff" stroke-miterlimit="10"/><g clip-path="url(#n)"><path d="M46.078 327.922L359.602 14.398" fill="none" stroke-width=".75" stroke-linecap="round" stroke-linejoin="round" stroke="#000" stroke-miterlimit="10"/></g><path d="M57.691 327.922h290.297M57.691 327.922v7.2M130.266 327.922v7.2M202.84 327.922v7.2M275.414 327.922v7.2M347.988 327.922v7.2" fill="none" stroke-width=".75" stroke-linecap="round" stroke-linejoin="round" stroke="#000" stroke-miterlimit="10"/><use xlink:href="#o" x="49.352" y="353.84"/><use xlink:href="#p" x="56.025" y="353.84"/><use xlink:href="#o" x="59.359" y="353.84"/><use xlink:href="#o" x="121.926" y="353.84"/><use xlink:href="#p" x="128.6" y="353.84"/><use xlink:href="#q" x="131.934" y="353.84"/><use xlink:href="#r" x="194.5" y="353.84"/><use xlink:href="#p" x="201.174" y="353.84"/><use xlink:href="#o" x="204.508" y="353.84"/><use xlink:href="#r" x="267.074" y="353.84"/><use xlink:href="#p" x="273.748" y="353.84"/><use xlink:href="#q" x="277.082" y="353.84"/><use xlink:href="#s" x="339.648" y="353.84"/><use xlink:href="#p" x="346.322" y="353.84"/><use xlink:href="#o" x="349.656" y="353.84"/><path d="M46.078 316.309V26.012M46.078 316.309h-7.2M46.078 243.734h-7.2M46.078 171.16h-7.2M46.078 98.586h-7.2M46.078 26.012h-7.2" fill="none" stroke-width=".75" stroke-linecap="round" stroke-linejoin="round" stroke="#000" stroke-miterlimit="10"/><use xlink:href="#t" x="28.801" y="324.648"/><use xlink:href="#u" x="28.801" y="317.975"/><use xlink:href="#t" x="28.801" y="314.641"/><use xlink:href="#t" x="28.801" y="252.074"/><use xlink:href="#u" x="28.801" y="245.4"/><use xlink:href="#v" x="28.801" y="242.066"/><use xlink:href="#w" x="28.801" y="179.5"/><use xlink:href="#u" x="28.801" y="172.826"/><use xlink:href="#t" x="28.801" y="169.492"/><use xlink:href="#w" x="28.801" y="106.926"/><use xlink:href="#u" x="28.801" y="100.252"/><use xlink:href="#v" x="28.801" y="96.918"/><use xlink:href="#x" x="28.801" y="34.352"/><use xlink:href="#u" x="28.801" y="27.678"/><use xlink:href="#t" x="28.801" y="24.344"/><use xlink:href="#y" x="190.504" y="371.121"/><use xlink:href="#z" x="198.508" y="371.121"/><use xlink:href="#A" x="201.174" y="371.121"/><use xlink:href="#B" x="205.17" y="371.121"/><use xlink:href="#C" x="208.504" y="371.121"/><use xlink:href="#D" x="11.52" y="187.172"/><use xlink:href="#E" x="11.52" y="178.506"/><use xlink:href="#F" x="11.52" y="171.832"/><use xlink:href="#G" x="11.52" y="165.158"/><use xlink:href="#H" x="11.52" y="161.824"/><path d="M75.098 72.191l3.636 6.301h-7.273l3.637-6.3M60.066 309.29l3.637 6.296H56.43l3.636-6.297" fill="none" stroke-width="1.5" stroke-linecap="round" stroke-linejoin="round" stroke="coral" stroke-miterlimit="10"/><path d="M63.355 306.023l3.633 6.297h-7.27l3.637-6.297" fill="none" stroke-width="1.5" stroke-linecap="round" stroke-linejoin="round" stroke="coral" stroke-miterlimit="10"/><path d="M62.168 307.242l3.637 6.297H58.53l3.637-6.297" fill="none" stroke-width="1.5" stroke-linecap="round" stroke-linejoin="round" stroke="coral" stroke-miterlimit="10"/><path d="M60.8 308.64l3.638 6.298h-7.274l3.637-6.297" fill="none" stroke-width="1.5" stroke-linecap="round" stroke-linejoin="round" stroke="coral" stroke-miterlimit="10"/><path d="M64.113 305.395l3.637 6.3h-7.273l3.636-6.3M58.895 310.656l3.636 6.297h-7.273l3.637-6.297" fill="none" stroke-width="1.5" stroke-linecap="round" stroke-linejoin="round" stroke="coral" stroke-miterlimit="10"/><path d="M58.684 310.918l3.636 6.297h-7.273l3.637-6.297" fill="none" stroke-width="1.5" stroke-linecap="round" stroke-linejoin="round" stroke="coral" stroke-miterlimit="10"/><path d="M58.883 310.734l3.637 6.301h-7.274l3.637-6.3M65.559 304.16l3.636 6.297h-7.273l3.637-6.297" fill="none" stroke-width="1.5" stroke-linecap="round" stroke-linejoin="round" stroke="coral" stroke-miterlimit="10"/><path d="M59.281 310.438l3.637 6.296h-7.273l3.636-6.296M75.605 294.137l3.637 6.297h-7.27l3.633-6.297" fill="none" stroke-width="1.5" stroke-linecap="round" stroke-linejoin="round" stroke="coral" stroke-miterlimit="10"/><path d="M59.215 310.54l3.637 6.3h-7.274l3.637-6.3" fill="none" stroke-width="1.5" stroke-linecap="round" stroke-linejoin="round" stroke="coral" stroke-miterlimit="10"/><path d="M58.691 311.074l3.637 6.297h-7.273l3.636-6.297M74.305 295.465l3.636 6.297h-7.273l3.637-6.297M93.98 239.535l3.633 6.297h-7.27l3.637-6.297" fill="none" stroke-width="1.5" stroke-linecap="round" stroke-linejoin="round" stroke="coral" stroke-miterlimit="10"/><g clip-path="url(#I)"><path d="M46.078 327.922L359.602 14.398" fill="none" stroke-width=".75" stroke-linecap="round" stroke-linejoin="round" stroke="#000" stroke-miterlimit="10"/></g><path d="M75.098 76.39l3.996 40.22M60.066 313.488v.446M63.355 310.223v.422M62.168 311.441v.391M60.8 312.84v.36M64.113 309.594v.293M58.895 314.855v.25M58.684 315.117v.2M58.883 314.934v.183M65.559 308.355v.086M59.281 314.637v.082M75.605 298.332v.063M59.215 314.738v.047M58.691 315.273v.036M74.305 299.664v.031M93.98 243.734v36.286M90.73 280.957v2.313M73.945 299.207v.848M83.969 289.54v.491M62.879 310.91v.211M58.457 315.336v.207M96.586 277.27v.144M67.09 306.793v.117M61.762 312.227v.011M59.602 314.395v.003M92.445 281.55v.005M58.02 315.977v.003M217.355 134.871v21.774" fill="none" stroke-width="1.5" stroke-linecap="round" stroke-linejoin="round" stroke="#000" stroke-opacity=".6" stroke-miterlimit="10"/><path d="M79.094 112.41l3.636 6.297h-7.273l3.637-6.297M90.73 276.758l3.633 6.3h-7.27l3.637-6.3M73.945 295.008l3.637 6.297h-7.273l3.636-6.297M83.969 285.34l3.636 6.297h-7.273l3.637-6.297M62.879 306.71l3.637 6.298h-7.274l3.637-6.297" fill="none" stroke-width="1.5" stroke-linecap="round" stroke-linejoin="round" stroke="#1e90ff" stroke-miterlimit="10"/><path d="M58.457 311.137l3.637 6.3H54.82l3.637-6.3M96.586 273.07l3.637 6.297h-7.274l3.637-6.297M67.09 302.594l3.637 6.3h-7.27l3.633-6.3" fill="none" stroke-width="1.5" stroke-linecap="round" stroke-linejoin="round" stroke="#1e90ff" stroke-miterlimit="10"/><path d="M61.762 308.027l3.636 6.297h-7.273l3.637-6.297" fill="none" stroke-width="1.5" stroke-linecap="round" stroke-linejoin="round" stroke="#1e90ff" stroke-miterlimit="10"/><path d="M59.602 310.195l3.636 6.301h-7.273l3.637-6.3M92.445 277.355l3.637 6.297h-7.273l3.636-6.297" fill="none" stroke-width="1.5" stroke-linecap="round" stroke-linejoin="round" stroke="#1e90ff" stroke-miterlimit="10"/><path d="M58.02 311.777l3.636 6.301h-7.273l3.637-6.3M217.355 130.676l3.637 6.297h-7.273l3.636-6.297M159.297 166.96l3.637 6.298h-7.274l3.637-6.297" fill="none" stroke-width="1.5" stroke-linecap="round" stroke-linejoin="round" stroke="#1e90ff" stroke-miterlimit="10"/><g clip-path="url(#J)"><path d="M46.078 327.922L359.602 14.398" fill="none" stroke-width=".75" stroke-linecap="round" stroke-linejoin="round" stroke="#000" stroke-miterlimit="10"/></g><path d="M75.098 72.191l3.636 6.301h-7.273l3.637-6.3M60.066 309.29l3.637 6.296H56.43l3.636-6.297" fill="none" stroke-width="1.5" stroke-linecap="round" stroke-linejoin="round" stroke="coral" stroke-miterlimit="10"/><path d="M63.355 306.023l3.633 6.297h-7.27l3.637-6.297" fill="none" stroke-width="1.5" stroke-linecap="round" stroke-linejoin="round" stroke="coral" stroke-miterlimit="10"/><path d="M62.168 307.242l3.637 6.297H58.53l3.637-6.297" fill="none" stroke-width="1.5" stroke-linecap="round" stroke-linejoin="round" stroke="coral" stroke-miterlimit="10"/><path d="M60.8 308.64l3.638 6.298h-7.274l3.637-6.297" fill="none" stroke-width="1.5" stroke-linecap="round" stroke-linejoin="round" stroke="coral" stroke-miterlimit="10"/><path d="M64.113 305.395l3.637 6.3h-7.273l3.636-6.3M58.895 310.656l3.636 6.297h-7.273l3.637-6.297" fill="none" stroke-width="1.5" stroke-linecap="round" stroke-linejoin="round" stroke="coral" stroke-miterlimit="10"/><path d="M58.684 310.918l3.636 6.297h-7.273l3.637-6.297" fill="none" stroke-width="1.5" stroke-linecap="round" stroke-linejoin="round" stroke="coral" stroke-miterlimit="10"/><path d="M58.883 310.734l3.637 6.301h-7.274l3.637-6.3M65.559 304.16l3.636 6.297h-7.273l3.637-6.297" fill="none" stroke-width="1.5" stroke-linecap="round" stroke-linejoin="round" stroke="coral" stroke-miterlimit="10"/><path d="M59.281 310.438l3.637 6.296h-7.273l3.636-6.296M75.605 294.137l3.637 6.297h-7.27l3.633-6.297" fill="none" stroke-width="1.5" stroke-linecap="round" stroke-linejoin="round" stroke="coral" stroke-miterlimit="10"/><path d="M59.215 310.54l3.637 6.3h-7.274l3.637-6.3" fill="none" stroke-width="1.5" stroke-linecap="round" stroke-linejoin="round" stroke="coral" stroke-miterlimit="10"/><path d="M58.691 311.074l3.637 6.297h-7.273l3.636-6.297M74.305 295.465l3.636 6.297h-7.273l3.637-6.297M93.98 239.535l3.633 6.297h-7.27l3.637-6.297M144.781 181.477l3.637 6.296h-7.273l3.636-6.296" fill="none" stroke-width="1.5" stroke-linecap="round" stroke-linejoin="round" stroke="coral" stroke-miterlimit="10"/><g clip-path="url(#K)"><path d="M46.078 327.922L359.602 14.398" fill="none" stroke-width=".75" stroke-linecap="round" stroke-linejoin="round" stroke="#000" stroke-miterlimit="10"/></g><path d="M144.781 185.676l14.516-14.516" fill="none" stroke-width="1.5" stroke-linecap="round" stroke-linejoin="round" stroke="#000" stroke-opacity=".6" stroke-miterlimit="10"/></svg>