<svg xmlns="http://www.w3.org/2000/svg" xmlns:xlink="http://www.w3.org/1999/xlink" width="1056" height="768" viewBox="0 0 792 576"><defs><clipPath id="a"><path d="M65.734 29.879h301.383v193.383H65.734zm0 0"/></clipPath><clipPath id="b"><path d="M0 0h793v577H0zm0 0"/></clipPath><clipPath id="i"><path d="M0 0h397v289H0zm0 0"/></clipPath><clipPath id="n"><path d="M65.734 29.879h301.383v193.383H65.734zm0 0"/></clipPath><clipPath id="o"><path d="M461.734 29.879h301.383v193.383H461.734zm0 0"/></clipPath><clipPath id="p"><path d="M0 0h793v577H0zm0 0"/></clipPath><clipPath id="q"><path d="M396 0h397v289H396zm0 0"/></clipPath><clipPath id="t"><path d="M461.734 29.879h301.383v193.383H461.734zm0 0"/></clipPath><clipPath id="u"><path d="M65.734 317.879h301.383v193.383H65.734zm0 0"/></clipPath><clipPath id="v"><path d="M0 0h793v577H0zm0 0"/></clipPath><clipPath id="w"><path d="M0 288h397v289H0zm0 0"/></clipPath><clipPath id="z"><path d="M65.734 317.879h301.383v193.383H65.734zm0 0"/></clipPath><clipPath id="A"><path d="M461.734 317.879h301.383v193.383H461.734zm0 0"/></clipPath><clipPath id="B"><path d="M0 0h793v577H0zm0 0"/></clipPath><clipPath id="C"><path d="M396 288h397v289H396zm0 0"/></clipPath><clipPath id="F"><path d="M461.734 317.879h301.383v193.383H461.734zm0 0"/></clipPath><symbol overflow="visible" id="c"><path d="M4.281-3.203v-4.11l-2.906 4.11h2.906zM4.297 0v-2.219H.328v-1.11l4.156-5.75h.954v5.876H6.78v.984H5.438V0H4.296zm0 0"/></symbol><symbol overflow="visible" id="d"><path d="M3.781-9.094c1.02 0 1.727.266 2.125.797.395.524.594 1.059.594 1.61H5.375c-.063-.352-.172-.633-.328-.844-.274-.375-.684-.563-1.234-.563-.637 0-1.141.297-1.516.89-.375.587-.59 1.423-.64 2.516a2.54 2.54 0 011-.859c.35-.164.753-.25 1.202-.25.758 0 1.422.246 1.985.734.57.481.86 1.2.86 2.157A3.28 3.28 0 015.89-.72c-.532.637-1.293.953-2.282.953-.855 0-1.59-.316-2.203-.953C.79-1.363.484-2.453.484-3.984c0-1.125.133-2.079.407-2.86.53-1.5 1.492-2.25 2.89-2.25zM3.703-.78c.602 0 1.05-.196 1.344-.594.3-.406.453-.883.453-1.438 0-.457-.137-.894-.406-1.312-.262-.426-.742-.64-1.438-.64-.492 0-.922.167-1.297.5-.367.324-.546.808-.546 1.452 0 .575.164 1.06.5 1.454.332.386.796.578 1.39.578zm0 0"/></symbol><symbol overflow="visible" id="e"><path d="M3.516-5.266c.507 0 .906-.14 1.187-.421.281-.282.422-.614.422-1 0-.333-.137-.641-.406-.922-.274-.282-.684-.422-1.235-.422-.554 0-.953.14-1.203.422-.242.28-.36.609-.36.984 0 .43.157.762.47 1 .32.242.695.36 1.125.36zM3.594-.78c.531 0 .969-.14 1.312-.422.344-.281.516-.707.516-1.281 0-.582-.184-1.024-.547-1.329-.355-.3-.809-.453-1.36-.453-.554 0-1 .157-1.343.47-.344.304-.516.73-.516 1.28 0 .47.157.875.469 1.22.32.343.813.515 1.469.515zM1.969-4.828c-.313-.133-.559-.29-.735-.469-.336-.344-.5-.781-.5-1.312 0-.676.243-1.254.735-1.735.488-.488 1.18-.734 2.078-.734.863 0 1.539.23 2.031.687.5.461.75.993.75 1.594 0 .574-.14 1.031-.422 1.375-.168.2-.418.39-.75.578.375.18.672.375.89.594.395.43.595.98.595 1.656 0 .793-.274 1.469-.813 2.031-.531.555-1.289.829-2.266.829-.874 0-1.62-.243-2.234-.72C.723-.93.422-1.628.422-2.546c0-.531.129-.988.39-1.375.258-.394.645-.695 1.157-.906zm0 0"/></symbol><symbol overflow="visible" id="f"><path d="M1.234-6.406v-.875c.82-.082 1.395-.219 1.72-.407.331-.187.577-.628.733-1.328h.891V0H3.375v-6.406h-2.14zm0 0"/></symbol><symbol overflow="visible" id="g"><path d="M3.5-9.063c1.176 0 2.023.485 2.547 1.454.406.75.61 1.773.61 3.062 0 1.242-.184 2.262-.548 3.063C5.58-.328 4.707.25 3.5.25c-1.094 0-1.906-.473-2.438-1.422C.625-1.96.406-3.02.406-4.344c0-1.031.13-1.914.39-2.656.5-1.375 1.4-2.063 2.704-2.063zM3.484-.796c.594 0 1.063-.258 1.407-.781.351-.52.53-1.492.53-2.922 0-1.031-.124-1.875-.374-2.531-.25-.664-.742-1-1.469-1-.68 0-1.172.32-1.484.953-.305.625-.453 1.555-.453 2.781 0 .918.097 1.656.296 2.219.301.855.817 1.281 1.547 1.281zm0 0"/></symbol><symbol overflow="visible" id="h"><path d="M.406 0c.04-.781.203-1.457.485-2.031.28-.582.828-1.11 1.64-1.578l1.219-.704c.54-.312.922-.582 1.14-.812.344-.344.516-.742.516-1.203 0-.52-.164-.938-.484-1.25-.313-.313-.73-.469-1.25-.469-.781 0-1.324.297-1.625.89-.156.313-.246.75-.266 1.313H.625c.008-.789.156-1.43.438-1.922.488-.882 1.359-1.328 2.609-1.328 1.039 0 1.8.281 2.281.844.477.563.719 1.188.719 1.875 0 .73-.258 1.352-.766 1.86-.304.304-.836.667-1.593 1.093l-.86.469c-.418.23-.746.45-.984.656-.418.367-.684.774-.797 1.219h4.953V0H.406zm0 0"/></symbol><symbol overflow="visible" id="j"><path d="M.297-10.422h2.265L4.954-6.75l2.422-3.672 2.125.047-3.516 5.031L9.656 0H7.422L4.828-3.906 2.328 0H.11l3.672-5.344-3.484-5.078zm0 0"/></symbol><symbol overflow="visible" id="k"><path d="M1.328-6.906v-.938c.883-.082 1.5-.222 1.844-.422.351-.207.617-.687.797-1.437h.969V0H3.625v-6.906H1.328zm0 0"/></symbol><symbol overflow="visible" id="r"><path d="M.438 0c.039-.844.21-1.57.515-2.188.3-.624.89-1.19 1.766-1.703l1.312-.75c.582-.343.992-.632 1.235-.875.363-.375.546-.804.546-1.296 0-.563-.171-1.008-.515-1.344-.336-.332-.781-.5-1.344-.5-.844 0-1.43.32-1.75.953-.168.344-.262.82-.281 1.422H.672c.008-.852.164-1.547.469-2.078.53-.946 1.468-1.422 2.812-1.422 1.113 0 1.926.304 2.438.906.52.605.78 1.277.78 2.016 0 .78-.276 1.449-.827 2-.313.324-.883.714-1.703 1.171l-.938.516c-.437.25-.789.485-1.047.703-.449.399-.734.836-.86 1.313h5.329V0H.437zm0 0"/></symbol><symbol overflow="visible" id="x"><path d="M3.625.266c-1.156 0-1.996-.317-2.516-.954C.586-1.32.33-2.093.33-3h1.28c.051.637.172 1.094.36 1.375.312.523.883.781 1.718.781.645 0 1.16-.172 1.547-.515.395-.352.594-.801.594-1.344 0-.664-.21-1.133-.625-1.406-.406-.27-.976-.407-1.703-.407-.086 0-.168.008-.25.016H3v-1.078l.313.031h.28c.458 0 .833-.07 1.126-.219.52-.25.781-.703.781-1.359 0-.488-.172-.863-.516-1.125a1.956 1.956 0 00-1.203-.39c-.824 0-1.39.273-1.703.812-.168.305-.262.73-.281 1.281H.578c0-.726.145-1.344.438-1.844.5-.914 1.375-1.375 2.625-1.375 1 0 1.77.227 2.312.672.54.438.813 1.078.813 1.922 0 .594-.164 1.078-.485 1.453-.199.23-.453.414-.765.547.507.137.906.406 1.187.813.29.406.438.898.438 1.468 0 .938-.309 1.7-.922 2.282-.606.586-1.469.875-2.594.875zm0 0"/></symbol><symbol overflow="visible" id="D"><path d="M4.61-3.453V-7.86L1.483-3.453H4.61zM4.624 0v-2.375H.359v-1.203l4.454-6.188h1.046v6.313h1.422v1.078H5.86V0H4.625zm0 0"/></symbol><symbol overflow="visible" id="l"><path d="M-10.422-7.797v-1.937c.668.25 2.195.804 4.578 1.656 1.793.637 3.25 1.168 4.375 1.594 2.657 1.011 4.274 1.726 4.86 2.14.582.418.875 1.133.875 2.14 0 .243-.012.43-.032.563a3.103 3.103 0 01-.093.5H2.53a3.797 3.797 0 00.188-1.03c0-.321-.055-.556-.156-.704a1.43 1.43 0 00-.391-.39 16.51 16.51 0 00-.797-.344c-.48-.207-.84-.36-1.078-.454l-10.719 3.86v-1.984l8.485-2.797-8.485-2.813zm-.25 2.828zm0 0"/></symbol><symbol overflow="visible" id="m"><path d="M-6.906-1.328h-.938c-.082-.883-.222-1.5-.422-1.844-.207-.351-.687-.617-1.437-.797v-.969H0v1.313h-6.906v2.297zm0 0"/></symbol><symbol overflow="visible" id="s"><path d="M0-.438c-.844-.039-1.57-.21-2.188-.515-.624-.3-1.19-.89-1.703-1.766l-.75-1.312c-.343-.582-.632-.992-.875-1.235-.375-.363-.804-.546-1.296-.546-.563 0-1.008.171-1.344.515-.332.336-.5.781-.5 1.344 0 .844.32 1.43.953 1.75.344.168.82.262 1.422.281v1.25C-7.133-.68-7.828-.836-8.36-1.14c-.946-.53-1.422-1.468-1.422-2.812 0-1.113.304-1.926.906-2.438.605-.52 1.277-.78 2.016-.78.78 0 1.449.276 2 .827.324.313.714.883 1.171 1.703l.516.938c.25.437.485.789.703 1.047.399.449.836.734 1.313.86v-5.329H0v6.688zm0 0"/></symbol><symbol overflow="visible" id="y"><path d="M.266-3.625c0 1.156-.317 1.996-.954 2.516-.632.523-1.406.78-2.312.78v-1.28c.637-.051 1.094-.172 1.375-.36.523-.312.781-.883.781-1.718 0-.645-.172-1.16-.515-1.547a1.724 1.724 0 00-1.344-.594c-.664 0-1.133.21-1.406.625-.27.406-.407.976-.407 1.703 0 .086.008.168.016.25V-3h-1.078l.031-.313v-.28c0-.458-.07-.833-.219-1.126-.25-.52-.703-.781-1.359-.781-.488 0-.863.172-1.125.516-.258.343-.39.746-.39 1.203 0 .824.273 1.39.812 1.703.305.168.73.262 1.281.281v1.219c-.726 0-1.344-.145-1.844-.438-.914-.5-1.375-1.375-1.375-2.625 0-1 .227-1.77.672-2.312.438-.54 1.078-.813 1.922-.813.594 0 1.078.164 1.453.485.23.199.414.453.547.765.137-.507.406-.906.813-1.187.406-.29.898-.438 1.468-.438.938 0 1.7.309 2.282.922.586.606.875 1.469.875 2.594zm0 0"/></symbol><symbol overflow="visible" id="E"><path d="M-3.453-4.61H-7.86l4.406 3.126V-4.61zM0-4.624h-2.375v4.266h-1.203l-6.188-4.454v-1.046h6.313v-1.422h1.078v1.422H0v1.234zm0 0"/></symbol></defs><path fill="#fff" d="M0 0h792v576H0z"/><g clip-path="url(#a)" fill="orange" stroke-width=".75" stroke-linecap="round" stroke-linejoin="round" stroke="red" stroke-miterlimit="10"><path d="M203.922 125.36c0 7.171-10.754 7.171-10.754 0 0-7.172 10.754-7.172 10.754 0M169.156 144.777c0 7.168-10.758 7.168-10.758 0 0-7.172 10.758-7.172 10.758 0M256.074 133.555c0 7.172-10.758 7.172-10.758 0s10.758-7.172 10.758 0M186.54 111.645c0 7.168-10.759 7.168-10.759 0 0-7.172 10.758-7.172 10.758 0M221.305 120.195c0 7.168-10.754 7.168-10.754 0 0-7.172 10.754-7.172 10.754 0M273.457 91.156c0 7.172-10.758 7.172-10.758 0 0-7.168 10.758-7.168 10.758 0M134.39 139.61c0 7.171-10.757 7.171-10.757 0 0-7.173 10.758-7.173 10.758 0M99.625 192.695c0 7.168-10.758 7.168-10.758 0 0-7.172 10.758-7.172 10.758 0M238.691 75.48c0 7.172-10.757 7.172-10.757 0 0-7.168 10.757-7.168 10.757 0M151.773 182.719c0 7.172-10.757 7.172-10.757 0s10.757-7.172 10.757 0M117.008 167.398c0 7.172-10.758 7.172-10.758 0 0-7.171 10.758-7.171 10.758 0"/></g><g clip-path="url(#b)"><path d="M94.246 222.266h243.367M94.246 222.266v5.972M129.012 222.266v5.972M163.777 222.266v5.972M198.543 222.266v5.972M233.313 222.266v5.972M268.078 222.266v5.972M302.844 222.266v5.972M337.613 222.266v5.972" fill="none" stroke-width=".75" stroke-linecap="round" stroke-linejoin="round" stroke="#000" stroke-miterlimit="10"/><use xlink:href="#c" x="90.645" y="244.973"/><use xlink:href="#d" x="125.41" y="244.973"/><use xlink:href="#e" x="160.176" y="244.973"/><use xlink:href="#f" x="191.34" y="244.973"/><use xlink:href="#g" x="198.544" y="244.973"/><use xlink:href="#f" x="226.109" y="244.973"/><use xlink:href="#h" x="233.313" y="244.973"/><use xlink:href="#f" x="260.875" y="244.973"/><use xlink:href="#c" x="268.079" y="244.973"/><use xlink:href="#f" x="295.641" y="244.973"/><use xlink:href="#d" x="302.845" y="244.973"/><use xlink:href="#f" x="330.41" y="244.973"/><use xlink:href="#e" x="337.614" y="244.973"/><path d="M65.734 197.324V54.82M65.734 197.324h-5.972M65.734 161.7h-5.972M65.734 126.07h-5.972M65.734 90.445h-5.972M65.734 54.82h-5.972" fill="none" stroke-width=".75" stroke-linecap="round" stroke-linejoin="round" stroke="#000" stroke-miterlimit="10"/><use xlink:href="#c" x="46.582" y="201.973"/><g><use xlink:href="#d" x="46.582" y="166.348"/></g><g><use xlink:href="#e" x="46.582" y="130.719"/></g><g><use xlink:href="#f" x="39.379" y="95.094"/><use xlink:href="#g" x="46.583" y="95.094"/></g><g><use xlink:href="#f" x="39.379" y="59.469"/><use xlink:href="#h" x="46.583" y="59.469"/></g><path d="M65.734 222.266h300.387V29.879H65.734v192.387" fill="none" stroke-width=".75" stroke-linecap="round" stroke-linejoin="round" stroke="#000" stroke-miterlimit="10"/></g><g clip-path="url(#i)"><use xlink:href="#j" x="207.07" y="266.426"/><use xlink:href="#k" x="217.031" y="270.07"/><use xlink:href="#l" x="25.613" y="134.93"/><use xlink:href="#m" x="29.262" y="124.969"/></g><g clip-path="url(#n)"><path d="M65.734 194.113L366.121 40.18" fill="none" stroke-width=".75" stroke-linecap="round" stroke-linejoin="round" stroke="#00f" stroke-miterlimit="10"/></g><g clip-path="url(#o)" fill="orange" stroke-width=".75" stroke-linecap="round" stroke-linejoin="round" stroke="red" stroke-miterlimit="10"><path d="M599.922 105.766c0 7.171-10.754 7.171-10.754 0 0-7.172 10.754-7.172 10.754 0M565.156 123.578c0 7.172-10.758 7.172-10.758 0s10.758-7.172 10.758 0M652.074 112.89c0 7.172-10.758 7.172-10.758 0 0-7.171 10.758-7.171 10.758 0M582.54 112.355c0 7.172-10.759 7.172-10.759 0 0-7.171 10.758-7.171 10.758 0M617.305 103.629c0 7.168-10.754 7.168-10.754 0 0-7.172 10.754-7.172 10.754 0M669.457 124.29c0 7.17-10.758 7.17-10.758 0 0-7.169 10.758-7.169 10.758 0M530.39 159.383c0 7.172-10.757 7.172-10.757 0s10.758-7.172 10.758 0M495.625 213.355c0 7.172-10.758 7.172-10.758 0 0-7.167 10.758-7.167 10.758 0M634.691 105.941c0 7.172-10.757 7.172-10.757 0 0-7.168 10.757-7.168 10.757 0M547.773 139.254c0 7.172-10.757 7.172-10.757 0s10.757-7.172 10.757 0M513.008 184.145c0 7.171-10.758 7.171-10.758 0 0-7.172 10.758-7.172 10.758 0"/></g><g clip-path="url(#p)"><path d="M490.246 222.266h243.367M490.246 222.266v5.972M525.012 222.266v5.972M559.777 222.266v5.972M594.543 222.266v5.972M629.313 222.266v5.972M664.078 222.266v5.972M698.844 222.266v5.972M733.613 222.266v5.972" fill="none" stroke-width=".75" stroke-linecap="round" stroke-linejoin="round" stroke="#000" stroke-miterlimit="10"/><use xlink:href="#c" x="486.645" y="244.973"/><use xlink:href="#d" x="521.41" y="244.973"/><use xlink:href="#e" x="556.176" y="244.973"/><use xlink:href="#f" x="587.34" y="244.973"/><use xlink:href="#g" x="594.544" y="244.973"/><use xlink:href="#f" x="622.109" y="244.973"/><use xlink:href="#h" x="629.313" y="244.973"/><use xlink:href="#f" x="656.875" y="244.973"/><use xlink:href="#c" x="664.079" y="244.973"/><use xlink:href="#f" x="691.641" y="244.973"/><use xlink:href="#d" x="698.845" y="244.973"/><use xlink:href="#f" x="726.41" y="244.973"/><use xlink:href="#e" x="733.614" y="244.973"/><path d="M461.734 197.324V54.82M461.734 197.324h-5.972M461.734 161.7h-5.972M461.734 126.07h-5.972M461.734 90.445h-5.972M461.734 54.82h-5.972" fill="none" stroke-width=".75" stroke-linecap="round" stroke-linejoin="round" stroke="#000" stroke-miterlimit="10"/><use xlink:href="#c" x="442.582" y="201.973"/><g><use xlink:href="#d" x="442.582" y="166.348"/></g><g><use xlink:href="#e" x="442.582" y="130.719"/></g><g><use xlink:href="#f" x="435.379" y="95.094"/><use xlink:href="#g" x="442.583" y="95.094"/></g><g><use xlink:href="#f" x="435.379" y="59.469"/><use xlink:href="#h" x="442.583" y="59.469"/></g><path d="M461.734 222.266h300.387V29.879H461.734v192.387" fill="none" stroke-width=".75" stroke-linecap="round" stroke-linejoin="round" stroke="#000" stroke-miterlimit="10"/></g><g clip-path="url(#q)"><use xlink:href="#j" x="603.07" y="266.426"/><use xlink:href="#r" x="613.031" y="270.07"/><use xlink:href="#l" x="421.613" y="134.93"/><use xlink:href="#s" x="425.262" y="124.969"/></g><g clip-path="url(#t)"><path d="M461.734 194.102L762.121 40.195" fill="none" stroke-width=".75" stroke-linecap="round" stroke-linejoin="round" stroke="#00f" stroke-miterlimit="10"/></g><g clip-path="url(#u)" fill="orange" stroke-width=".75" stroke-linecap="round" stroke-linejoin="round" stroke="red" stroke-miterlimit="10"><path d="M203.922 423.691c0 7.172-10.754 7.172-10.754 0 0-7.171 10.754-7.171 10.754 0M169.156 435.98c0 7.172-10.758 7.172-10.758 0 0-7.168 10.758-7.168 10.758 0M256.074 329.637c0 7.172-10.758 7.172-10.758 0s10.758-7.172 10.758 0M186.54 429.926c0 7.172-10.759 7.172-10.759 0s10.758-7.172 10.758 0M221.305 417.457c0 7.172-10.754 7.172-10.754 0s10.754-7.172 10.754 0M273.457 399.11c0 7.171-10.758 7.171-10.758 0 0-7.173 10.758-7.173 10.758 0M134.39 448.273c0 7.172-10.757 7.172-10.757 0 0-7.171 10.758-7.171 10.758 0M99.625 460.566c0 7.168-10.758 7.168-10.758 0 0-7.171 10.758-7.171 10.758 0M238.691 411.398c0 7.172-10.757 7.172-10.757 0 0-7.168 10.757-7.168 10.757 0M151.773 442.219c0 7.168-10.757 7.168-10.757 0 0-7.172 10.757-7.172 10.757 0M117.008 454.508c0 7.172-10.758 7.172-10.758 0s10.758-7.172 10.758 0"/></g><g clip-path="url(#v)"><path d="M94.246 510.266h243.367M94.246 510.266v5.972M129.012 510.266v5.972M163.777 510.266v5.972M198.543 510.266v5.972M233.313 510.266v5.972M268.078 510.266v5.972M302.844 510.266v5.972M337.613 510.266v5.972" fill="none" stroke-width=".75" stroke-linecap="round" stroke-linejoin="round" stroke="#000" stroke-miterlimit="10"/><use xlink:href="#c" x="90.645" y="532.973"/><use xlink:href="#d" x="125.41" y="532.973"/><use xlink:href="#e" x="160.176" y="532.973"/><use xlink:href="#f" x="191.34" y="532.973"/><use xlink:href="#g" x="198.544" y="532.973"/><use xlink:href="#f" x="226.109" y="532.973"/><use xlink:href="#h" x="233.313" y="532.973"/><use xlink:href="#f" x="260.875" y="532.973"/><use xlink:href="#c" x="268.079" y="532.973"/><use xlink:href="#f" x="295.641" y="532.973"/><use xlink:href="#d" x="302.845" y="532.973"/><use xlink:href="#f" x="330.41" y="532.973"/><use xlink:href="#e" x="337.614" y="532.973"/><path d="M65.734 485.324V342.82M65.734 485.324h-5.972M65.734 449.7h-5.972M65.734 414.07h-5.972M65.734 378.445h-5.972M65.734 342.82h-5.972" fill="none" stroke-width=".75" stroke-linecap="round" stroke-linejoin="round" stroke="#000" stroke-miterlimit="10"/><use xlink:href="#c" x="46.582" y="489.973"/><g><use xlink:href="#d" x="46.582" y="454.348"/></g><g><use xlink:href="#e" x="46.582" y="418.719"/></g><g><use xlink:href="#f" x="39.379" y="383.094"/><use xlink:href="#g" x="46.583" y="383.094"/></g><g><use xlink:href="#f" x="39.379" y="347.469"/><use xlink:href="#h" x="46.583" y="347.469"/></g><path d="M65.734 510.266h300.387V317.879H65.734v192.387" fill="none" stroke-width=".75" stroke-linecap="round" stroke-linejoin="round" stroke="#000" stroke-miterlimit="10"/></g><g clip-path="url(#w)"><use xlink:href="#j" x="207.07" y="554.16"/><use xlink:href="#x" x="217.031" y="557.805"/><use xlink:href="#l" x="25.613" y="422.93"/><use xlink:href="#y" x="29.262" y="412.969"/></g><g clip-path="url(#z)"><path d="M65.734 482.086l300.387-153.824" fill="none" stroke-width=".75" stroke-linecap="round" stroke-linejoin="round" stroke="#00f" stroke-miterlimit="10"/></g><g clip-path="url(#A)" fill="orange" stroke-width=".75" stroke-linecap="round" stroke-linejoin="round" stroke="red" stroke-miterlimit="10"><path d="M565.156 439.367c0 7.172-10.758 7.172-10.758 0s10.758-7.172 10.758 0M565.156 453.973c0 7.172-10.758 7.172-10.758 0s10.758-7.172 10.758 0M565.156 419.238c0 7.172-10.758 7.172-10.758 0s10.758-7.172 10.758 0M565.156 399.11c0 7.171-10.758 7.171-10.758 0 0-7.173 10.758-7.173 10.758 0"/><path d="M565.156 405.7c0 7.171-10.758 7.171-10.758 0 0-7.173 10.758-7.173 10.758 0M565.156 431.172c0 7.172-10.758 7.172-10.758 0s10.758-7.172 10.758 0M565.156 463.059c0 7.171-10.758 7.171-10.758 0 0-7.172 10.758-7.172 10.758 0M756.375 333.91c0 7.172-10.758 7.172-10.758 0 0-7.168 10.758-7.168 10.758 0"/><path d="M565.156 457.535c0 7.172-10.758 7.172-10.758 0 0-7.168 10.758-7.168 10.758 0M565.156 415.676c0 7.172-10.758 7.172-10.758 0s10.758-7.172 10.758 0M565.156 433.844c0 7.172-10.758 7.172-10.758 0s10.758-7.172 10.758 0"/></g><g clip-path="url(#B)"><path d="M490.246 510.266h243.367M490.246 510.266v5.972M525.012 510.266v5.972M559.777 510.266v5.972M594.543 510.266v5.972M629.313 510.266v5.972M664.078 510.266v5.972M698.844 510.266v5.972M733.613 510.266v5.972" fill="none" stroke-width=".75" stroke-linecap="round" stroke-linejoin="round" stroke="#000" stroke-miterlimit="10"/><use xlink:href="#c" x="486.645" y="532.973"/><use xlink:href="#d" x="521.41" y="532.973"/><use xlink:href="#e" x="556.176" y="532.973"/><use xlink:href="#f" x="587.34" y="532.973"/><use xlink:href="#g" x="594.544" y="532.973"/><use xlink:href="#f" x="622.109" y="532.973"/><use xlink:href="#h" x="629.313" y="532.973"/><use xlink:href="#f" x="656.875" y="532.973"/><use xlink:href="#c" x="664.079" y="532.973"/><use xlink:href="#f" x="691.641" y="532.973"/><use xlink:href="#d" x="698.845" y="532.973"/><use xlink:href="#f" x="726.41" y="532.973"/><use xlink:href="#e" x="733.614" y="532.973"/><path d="M461.734 485.324V342.82M461.734 485.324h-5.972M461.734 449.7h-5.972M461.734 414.07h-5.972M461.734 378.445h-5.972M461.734 342.82h-5.972" fill="none" stroke-width=".75" stroke-linecap="round" stroke-linejoin="round" stroke="#000" stroke-miterlimit="10"/><use xlink:href="#c" x="442.582" y="489.973"/><g><use xlink:href="#d" x="442.582" y="454.348"/></g><g><use xlink:href="#e" x="442.582" y="418.719"/></g><g><use xlink:href="#f" x="435.379" y="383.094"/><use xlink:href="#g" x="442.583" y="383.094"/></g><g><use xlink:href="#f" x="435.379" y="347.469"/><use xlink:href="#h" x="442.583" y="347.469"/></g><path d="M461.734 510.266h300.387V317.879H461.734v192.387" fill="none" stroke-width=".75" stroke-linecap="round" stroke-linejoin="round" stroke="#000" stroke-miterlimit="10"/></g><g clip-path="url(#C)"><use xlink:href="#j" x="603.07" y="554.426"/><use xlink:href="#D" x="613.031" y="558.07"/><use xlink:href="#l" x="421.613" y="422.93"/><use xlink:href="#E" x="425.262" y="412.969"/></g><g clip-path="url(#F)"><path d="M461.734 482.094L762.121 328.21" fill="none" stroke-width=".75" stroke-linecap="round" stroke-linejoin="round" stroke="#00f" stroke-miterlimit="10"/></g></svg>