<svg xmlns="http://www.w3.org/2000/svg" width="700" height="700" viewBox="0 0 525 525"><path fill="#fff" d="M0 0h525v525H0z"/><path d="M442.777 116.813c0 1.921-2.882 1.921-2.882 0 0-1.918 2.882-1.918 2.882 0M94 416.883c0 1.922-2.879 1.922-2.879 0 0-1.918 2.879-1.918 2.879 0M81.129 403.305c0 1.918-2.879 1.918-2.879 0 0-1.922 2.879-1.922 2.879 0" fill="coral" stroke-width=".75" stroke-linecap="round" stroke-linejoin="round" stroke="coral" stroke-miterlimit="10"/><path d="M95.121 417.965c0 1.918-2.883 1.918-2.883 0 0-1.922 2.883-1.922 2.883 0M415.898 432.848c0 1.918-2.878 1.918-2.878 0 0-1.922 2.878-1.922 2.878 0M113.652 433.941c0 1.918-2.879 1.918-2.879 0 0-1.921 2.88-1.921 2.88 0M500.195 249.172c0 1.918-2.879 1.918-2.879 0 0-1.922 2.88-1.922 2.88 0M289.957 41.512c0 1.922-2.879 1.922-2.879 0 0-1.918 2.879-1.918 2.879 0M145.055 454.48c0 1.922-2.88 1.922-2.88 0 0-1.918 2.88-1.918 2.88 0M28.48 282.297c0 1.918-2.878 1.918-2.878 0 0-1.922 2.878-1.922 2.878 0M181.98 470.852c0 1.921-2.878 1.921-2.878 0 0-1.918 2.878-1.918 2.878 0M36.914 324.39c0 1.923-2.879 1.923-2.879 0 0-1.917 2.88-1.917 2.88 0M215.766 44.863c0 1.918-2.88 1.918-2.88 0 0-1.922 2.88-1.922 2.88 0M473.77 365.262c0 1.922-2.883 1.922-2.883 0 0-1.918 2.883-1.918 2.883 0M201.922 47.988c0 1.922-2.879 1.922-2.879 0s2.879-1.922 2.879 0M387.41 452.066c0 1.918-2.883 1.918-2.883 0 0-1.921 2.883-1.921 2.883 0M210.703 45.91c0 1.922-2.883 1.922-2.883 0 0-1.918 2.883-1.918 2.883 0M239.121 41.418c0 1.922-2.879 1.922-2.879 0 0-1.918 2.88-1.918 2.88 0M355.66 57.516c0 1.918-2.879 1.918-2.879 0 0-1.922 2.88-1.922 2.88 0" fill="coral" stroke-width=".75" stroke-linecap="round" stroke-linejoin="round" stroke="coral" stroke-miterlimit="10"/><path d="M290.438 41.563c0 1.921-2.883 1.921-2.883 0 0-1.918 2.882-1.918 2.882 0M167.938 59.363c0 1.918-2.88 1.918-2.88 0 0-1.922 2.88-1.922 2.88 0M187.184 52.25c0 1.918-2.883 1.918-2.883 0 0-1.922 2.883-1.922 2.883 0M392.016 75.492c0 1.922-2.88 1.922-2.88 0 0-1.918 2.88-1.918 2.88 0M493.188 207.16c0 1.918-2.883 1.918-2.883 0 0-1.922 2.882-1.922 2.882 0M310.148 44.438c0 1.917-2.878 1.917-2.878 0 0-1.922 2.878-1.922 2.878 0M351.977 468.75c0 1.918-2.88 1.918-2.88 0 0-1.922 2.88-1.922 2.88 0M30.61 298.152c0 1.918-2.88 1.918-2.88 0 0-1.922 2.88-1.922 2.88 0M467.418 375.965c0 1.918-2.883 1.918-2.883 0 0-1.922 2.883-1.922 2.883 0M379.777 456.266c0 1.918-2.879 1.918-2.879 0 0-1.922 2.88-1.922 2.88 0M490.902 199.387c0 1.918-2.879 1.918-2.879 0 0-1.922 2.88-1.922 2.88 0M36.477 201.883c0 1.922-2.88 1.922-2.88 0 0-1.918 2.88-1.918 2.88 0M241.54 41.191c0 1.918-2.884 1.918-2.884 0 0-1.921 2.883-1.921 2.883 0" fill="coral" stroke-width=".75" stroke-linecap="round" stroke-linejoin="round" stroke="coral" stroke-miterlimit="10"/><path d="M184.406 53.164c0 1.918-2.879 1.918-2.879 0 0-1.922 2.88-1.922 2.88 0M27.781 272.621c0 1.922-2.879 1.922-2.879 0 0-1.918 2.88-1.918 2.88 0M363.313 60.684c0 1.921-2.88 1.921-2.88 0 0-1.918 2.88-1.918 2.88 0M278.438 484.254c0 1.922-2.88 1.922-2.88 0 0-1.918 2.88-1.918 2.88 0M335.402 50.523c0 1.922-2.879 1.922-2.879 0 0-1.918 2.88-1.918 2.88 0M250.988 40.52c0 1.921-2.879 1.921-2.879 0 0-1.922 2.88-1.922 2.88 0M500.328 273.379c0 1.922-2.879 1.922-2.879 0 0-1.918 2.88-1.918 2.88 0M347.48 470.39c0 1.923-2.878 1.923-2.878 0 0-1.917 2.878-1.917 2.878 0M40.691 335.512c0 1.918-2.882 1.918-2.882 0 0-1.922 2.882-1.922 2.882 0M120.754 439.227c0 1.918-2.879 1.918-2.879 0 0-1.922 2.879-1.922 2.879 0M174.48 56.738c0 1.918-2.878 1.918-2.878 0 0-1.922 2.878-1.922 2.878 0M93.504 416.398c0 1.922-2.879 1.922-2.879 0 0-1.918 2.879-1.918 2.879 0M150.418 67.516c0 1.918-2.879 1.918-2.879 0 0-1.922 2.879-1.922 2.879 0M27.55 265.21c0 1.923-2.878 1.923-2.878 0 0-1.917 2.879-1.917 2.879 0M159.469 461.754c0 1.918-2.88 1.918-2.88 0 0-1.922 2.88-1.922 2.88 0M28.582 241.496c0 1.918-2.879 1.918-2.879 0 0-1.922 2.879-1.922 2.879 0M273.094 40.34c0 1.922-2.88 1.922-2.88 0 0-1.918 2.88-1.918 2.88 0M287.016 483.617c0 1.922-2.88 1.922-2.88 0 0-1.918 2.88-1.918 2.88 0M475.652 163.047c0 1.922-2.879 1.922-2.879 0 0-1.918 2.88-1.918 2.88 0M177.43 55.625c0 1.922-2.88 1.922-2.88 0 0-1.918 2.88-1.918 2.88 0M215.773 479.984c0 1.918-2.878 1.918-2.878 0 0-1.921 2.878-1.921 2.878 0" fill="coral" stroke-width=".75" stroke-linecap="round" stroke-linejoin="round" stroke="coral" stroke-miterlimit="10"/><path d="M27.629 268.77c0 1.918-2.879 1.918-2.879 0 0-1.922 2.879-1.922 2.879 0M399.48 80.195c0 1.918-2.878 1.918-2.878 0 0-1.922 2.878-1.922 2.878 0" fill="coral" stroke-width=".75" stroke-linecap="round" stroke-linejoin="round" stroke="coral" stroke-miterlimit="10"/><path d="M27.605 267.914c0 1.922-2.878 1.922-2.878 0 0-1.918 2.878-1.918 2.878 0M27.703 253.992c0 1.918-2.879 1.918-2.879 0 0-1.922 2.88-1.922 2.88 0M265.86 484.66c0 1.918-2.883 1.918-2.883 0 0-1.922 2.882-1.922 2.882 0M371.926 64.625c0 1.918-2.88 1.918-2.88 0 0-1.922 2.88-1.922 2.88 0M401.172 443.531c0 1.918-2.883 1.918-2.883 0 0-1.922 2.883-1.922 2.883 0M420.316 429.281c0 1.922-2.878 1.922-2.878 0 0-1.918 2.878-1.918 2.878 0M492.484 204.645c0 1.921-2.882 1.921-2.882 0 0-1.922 2.882-1.922 2.882 0M167.164 59.688c0 1.917-2.879 1.917-2.879 0 0-1.922 2.88-1.922 2.88 0M499.734 243.246c0 1.918-2.879 1.918-2.879 0 0-1.922 2.88-1.922 2.88 0M280.371 40.707c0 1.922-2.879 1.922-2.879 0 0-1.918 2.88-1.918 2.88 0M200.219 476.414c0 1.918-2.883 1.918-2.883 0 0-1.922 2.883-1.922 2.883 0M179.637 54.82c0 1.922-2.88 1.922-2.88 0 0-1.918 2.88-1.918 2.88 0M27.875 274.352c0 1.921-2.883 1.921-2.883 0 0-1.918 2.883-1.918 2.883 0M488.27 191.563c0 1.917-2.88 1.917-2.88 0 0-1.922 2.88-1.922 2.88 0M46.734 350.133c0 1.922-2.879 1.922-2.879 0 0-1.918 2.88-1.918 2.88 0M434.992 108.785c0 1.922-2.879 1.922-2.879 0 0-1.918 2.88-1.918 2.88 0M448.992 401.012c0 1.918-2.883 1.918-2.883 0 0-1.922 2.883-1.922 2.883 0" fill="coral" stroke-width=".75" stroke-linecap="round" stroke-linejoin="round" stroke="coral" stroke-miterlimit="10"/><path d="M499.617 242.027c0 1.918-2.879 1.918-2.879 0 0-1.922 2.88-1.922 2.88 0M312.945 479.871c0 1.918-2.879 1.918-2.879 0 0-1.922 2.88-1.922 2.88 0M463.824 143.383c0 1.922-2.879 1.922-2.879 0 0-1.918 2.88-1.918 2.88 0M29.25 289.152c0 1.922-2.879 1.922-2.879 0 0-1.918 2.879-1.918 2.879 0M87.363 114.684c0 1.921-2.879 1.921-2.879 0 0-1.918 2.88-1.918 2.88 0M478.07 167.73c0 1.918-2.879 1.918-2.879 0 0-1.921 2.88-1.921 2.88 0M162.492 61.715c0 1.922-2.879 1.922-2.879 0 0-1.918 2.88-1.918 2.88 0M148.164 456.156c0 1.918-2.879 1.918-2.879 0 0-1.922 2.88-1.922 2.88 0M475.773 361.57c0 1.922-2.882 1.922-2.882 0 0-1.918 2.882-1.918 2.882 0M31.207 223.402c0 1.918-2.879 1.918-2.879 0 0-1.922 2.879-1.922 2.879 0M411.836 88.875c0 1.922-2.879 1.922-2.879 0 0-1.918 2.879-1.918 2.879 0M36.625 323.445c0 1.922-2.879 1.922-2.879 0 0-1.918 2.879-1.918 2.879 0M342.555 52.77c0 1.917-2.88 1.917-2.88 0 0-1.922 2.88-1.922 2.88 0M454.191 394.652c0 1.918-2.878 1.918-2.878 0 0-1.922 2.878-1.922 2.878 0M82.29 120.223c0 1.918-2.88 1.918-2.88 0 0-1.922 2.88-1.922 2.88 0M175.797 56.238c0 1.918-2.883 1.918-2.883 0 0-1.922 2.883-1.922 2.883 0M390.785 74.754c0 1.922-2.883 1.922-2.883 0 0-1.918 2.883-1.918 2.883 0M452.055 397.324c0 1.922-2.88 1.922-2.88 0 0-1.918 2.88-1.918 2.88 0M382.695 70.145c0 1.921-2.879 1.921-2.879 0 0-1.918 2.88-1.918 2.88 0" fill="coral" stroke-width=".75" stroke-linecap="round" stroke-linejoin="round" stroke="coral" stroke-miterlimit="10"/><path d="M455.813 392.574c0 1.918-2.883 1.918-2.883 0 0-1.922 2.882-1.922 2.882 0M421.527 96.57c0 1.918-2.879 1.918-2.879 0 0-1.922 2.88-1.922 2.88 0M424.242 98.879c0 1.922-2.879 1.922-2.879 0 0-1.918 2.88-1.918 2.88 0M450.719 125.89c0 1.922-2.883 1.922-2.883 0 0-1.917 2.883-1.917 2.883 0M28.16 278.582c0 1.922-2.883 1.922-2.883 0 0-1.918 2.883-1.918 2.883 0M190.7 51.14c0 1.922-2.884 1.922-2.884 0 0-1.917 2.883-1.917 2.883 0M497.293 225.29c0 1.92-2.883 1.92-2.883 0 0-1.919 2.883-1.919 2.883 0M177.484 55.605c0 1.918-2.879 1.918-2.879 0 0-1.921 2.88-1.921 2.88 0M252.367 484.395c0 1.918-2.879 1.918-2.879 0 0-1.922 2.88-1.922 2.88 0" fill="coral" stroke-width=".75" stroke-linecap="round" stroke-linejoin="round" stroke="coral" stroke-miterlimit="10"/><path d="M7.2 517.8h510.6V7.2H7.2v510.6" fill="none" stroke-width=".75" stroke-linecap="round" stroke-linejoin="round" stroke="#000" stroke-miterlimit="10"/></svg>