<?xml version="1.0" encoding="UTF-8"?>
<svg xmlns="http://www.w3.org/2000/svg" xmlns:xlink="http://www.w3.org/1999/xlink" width="525pt" height="525pt" viewBox="0 0 525 525" version="1.1">
<g id="surface36">
<rect x="0" y="0" width="525" height="525" style="fill:rgb(100%,100%,100%);fill-opacity:1;stroke:none;"/>
<path style="fill-rule:nonzero;fill:rgb(100%,49.803922%,31.372549%);fill-opacity:1;stroke-width:0.75;stroke-linecap:round;stroke-linejoin:round;stroke:rgb(100%,49.803922%,31.372549%);stroke-opacity:1;stroke-miterlimit:10;" d="M 442.777344 116.8125 C 442.777344 118.734375 439.894531 118.734375 439.894531 116.8125 C 439.894531 114.894531 442.777344 114.894531 442.777344 116.8125 "/>
<path style="fill-rule:nonzero;fill:rgb(100%,49.803922%,31.372549%);fill-opacity:1;stroke-width:0.75;stroke-linecap:round;stroke-linejoin:round;stroke:rgb(100%,49.803922%,31.372549%);stroke-opacity:1;stroke-miterlimit:10;" d="M 94 416.882812 C 94 418.804688 91.121094 418.804688 91.121094 416.882812 C 91.121094 414.964844 94 414.964844 94 416.882812 "/>
<path style="fill-rule:nonzero;fill:rgb(100%,49.803922%,31.372549%);fill-opacity:1;stroke-width:0.75;stroke-linecap:round;stroke-linejoin:round;stroke:rgb(100%,49.803922%,31.372549%);stroke-opacity:1;stroke-miterlimit:10;" d="M 81.128906 403.304688 C 81.128906 405.222656 78.25 405.222656 78.25 403.304688 C 78.25 401.382812 81.128906 401.382812 81.128906 403.304688 "/>
<path style="fill-rule:nonzero;fill:rgb(100%,49.803922%,31.372549%);fill-opacity:1;stroke-width:0.75;stroke-linecap:round;stroke-linejoin:round;stroke:rgb(100%,49.803922%,31.372549%);stroke-opacity:1;stroke-miterlimit:10;" d="M 95.121094 417.964844 C 95.121094 419.882812 92.238281 419.882812 92.238281 417.964844 C 92.238281 416.042969 95.121094 416.042969 95.121094 417.964844 "/>
<path style="fill-rule:nonzero;fill:rgb(100%,49.803922%,31.372549%);fill-opacity:1;stroke-width:0.75;stroke-linecap:round;stroke-linejoin:round;stroke:rgb(100%,49.803922%,31.372549%);stroke-opacity:1;stroke-miterlimit:10;" d="M 415.898438 432.847656 C 415.898438 434.765625 413.019531 434.765625 413.019531 432.847656 C 413.019531 430.925781 415.898438 430.925781 415.898438 432.847656 "/>
<path style="fill-rule:nonzero;fill:rgb(100%,49.803922%,31.372549%);fill-opacity:1;stroke-width:0.75;stroke-linecap:round;stroke-linejoin:round;stroke:rgb(100%,49.803922%,31.372549%);stroke-opacity:1;stroke-miterlimit:10;" d="M 113.652344 433.941406 C 113.652344 435.859375 110.773438 435.859375 110.773438 433.941406 C 110.773438 432.019531 113.652344 432.019531 113.652344 433.941406 "/>
<path style="fill-rule:nonzero;fill:rgb(100%,49.803922%,31.372549%);fill-opacity:1;stroke-width:0.75;stroke-linecap:round;stroke-linejoin:round;stroke:rgb(100%,49.803922%,31.372549%);stroke-opacity:1;stroke-miterlimit:10;" d="M 500.195312 249.171875 C 500.195312 251.089844 497.316406 251.089844 497.316406 249.171875 C 497.316406 247.25 500.195312 247.25 500.195312 249.171875 "/>
<path style="fill-rule:nonzero;fill:rgb(100%,49.803922%,31.372549%);fill-opacity:1;stroke-width:0.75;stroke-linecap:round;stroke-linejoin:round;stroke:rgb(100%,49.803922%,31.372549%);stroke-opacity:1;stroke-miterlimit:10;" d="M 289.957031 41.511719 C 289.957031 43.433594 287.078125 43.433594 287.078125 41.511719 C 287.078125 39.59375 289.957031 39.59375 289.957031 41.511719 "/>
<path style="fill-rule:nonzero;fill:rgb(100%,49.803922%,31.372549%);fill-opacity:1;stroke-width:0.75;stroke-linecap:round;stroke-linejoin:round;stroke:rgb(100%,49.803922%,31.372549%);stroke-opacity:1;stroke-miterlimit:10;" d="M 145.054688 454.480469 C 145.054688 456.402344 142.175781 456.402344 142.175781 454.480469 C 142.175781 452.5625 145.054688 452.5625 145.054688 454.480469 "/>
<path style="fill-rule:nonzero;fill:rgb(100%,49.803922%,31.372549%);fill-opacity:1;stroke-width:0.75;stroke-linecap:round;stroke-linejoin:round;stroke:rgb(100%,49.803922%,31.372549%);stroke-opacity:1;stroke-miterlimit:10;" d="M 28.480469 282.296875 C 28.480469 284.214844 25.601562 284.214844 25.601562 282.296875 C 25.601562 280.375 28.480469 280.375 28.480469 282.296875 "/>
<path style="fill-rule:nonzero;fill:rgb(100%,49.803922%,31.372549%);fill-opacity:1;stroke-width:0.75;stroke-linecap:round;stroke-linejoin:round;stroke:rgb(100%,49.803922%,31.372549%);stroke-opacity:1;stroke-miterlimit:10;" d="M 181.980469 470.851562 C 181.980469 472.773438 179.101562 472.773438 179.101562 470.851562 C 179.101562 468.933594 181.980469 468.933594 181.980469 470.851562 "/>
<path style="fill-rule:nonzero;fill:rgb(100%,49.803922%,31.372549%);fill-opacity:1;stroke-width:0.75;stroke-linecap:round;stroke-linejoin:round;stroke:rgb(100%,49.803922%,31.372549%);stroke-opacity:1;stroke-miterlimit:10;" d="M 36.914062 324.390625 C 36.914062 326.3125 34.035156 326.3125 34.035156 324.390625 C 34.035156 322.472656 36.914062 322.472656 36.914062 324.390625 "/>
<path style="fill-rule:nonzero;fill:rgb(100%,49.803922%,31.372549%);fill-opacity:1;stroke-width:0.75;stroke-linecap:round;stroke-linejoin:round;stroke:rgb(100%,49.803922%,31.372549%);stroke-opacity:1;stroke-miterlimit:10;" d="M 215.765625 44.863281 C 215.765625 46.78125 212.886719 46.78125 212.886719 44.863281 C 212.886719 42.941406 215.765625 42.941406 215.765625 44.863281 "/>
<path style="fill-rule:nonzero;fill:rgb(100%,49.803922%,31.372549%);fill-opacity:1;stroke-width:0.75;stroke-linecap:round;stroke-linejoin:round;stroke:rgb(100%,49.803922%,31.372549%);stroke-opacity:1;stroke-miterlimit:10;" d="M 473.769531 365.261719 C 473.769531 367.183594 470.886719 367.183594 470.886719 365.261719 C 470.886719 363.34375 473.769531 363.34375 473.769531 365.261719 "/>
<path style="fill-rule:nonzero;fill:rgb(100%,49.803922%,31.372549%);fill-opacity:1;stroke-width:0.75;stroke-linecap:round;stroke-linejoin:round;stroke:rgb(100%,49.803922%,31.372549%);stroke-opacity:1;stroke-miterlimit:10;" d="M 201.921875 47.988281 C 201.921875 49.910156 199.042969 49.910156 199.042969 47.988281 C 199.042969 46.066406 201.921875 46.066406 201.921875 47.988281 "/>
<path style="fill-rule:nonzero;fill:rgb(100%,49.803922%,31.372549%);fill-opacity:1;stroke-width:0.75;stroke-linecap:round;stroke-linejoin:round;stroke:rgb(100%,49.803922%,31.372549%);stroke-opacity:1;stroke-miterlimit:10;" d="M 387.410156 452.066406 C 387.410156 453.984375 384.527344 453.984375 384.527344 452.066406 C 384.527344 450.144531 387.410156 450.144531 387.410156 452.066406 "/>
<path style="fill-rule:nonzero;fill:rgb(100%,49.803922%,31.372549%);fill-opacity:1;stroke-width:0.75;stroke-linecap:round;stroke-linejoin:round;stroke:rgb(100%,49.803922%,31.372549%);stroke-opacity:1;stroke-miterlimit:10;" d="M 210.703125 45.910156 C 210.703125 47.832031 207.820312 47.832031 207.820312 45.910156 C 207.820312 43.992188 210.703125 43.992188 210.703125 45.910156 "/>
<path style="fill-rule:nonzero;fill:rgb(100%,49.803922%,31.372549%);fill-opacity:1;stroke-width:0.75;stroke-linecap:round;stroke-linejoin:round;stroke:rgb(100%,49.803922%,31.372549%);stroke-opacity:1;stroke-miterlimit:10;" d="M 239.121094 41.417969 C 239.121094 43.339844 236.242188 43.339844 236.242188 41.417969 C 236.242188 39.5 239.121094 39.5 239.121094 41.417969 "/>
<path style="fill-rule:nonzero;fill:rgb(100%,49.803922%,31.372549%);fill-opacity:1;stroke-width:0.75;stroke-linecap:round;stroke-linejoin:round;stroke:rgb(100%,49.803922%,31.372549%);stroke-opacity:1;stroke-miterlimit:10;" d="M 355.660156 57.515625 C 355.660156 59.433594 352.78125 59.433594 352.78125 57.515625 C 352.78125 55.59375 355.660156 55.59375 355.660156 57.515625 "/>
<path style="fill-rule:nonzero;fill:rgb(100%,49.803922%,31.372549%);fill-opacity:1;stroke-width:0.75;stroke-linecap:round;stroke-linejoin:round;stroke:rgb(100%,49.803922%,31.372549%);stroke-opacity:1;stroke-miterlimit:10;" d="M 290.4375 41.5625 C 290.4375 43.484375 287.554688 43.484375 287.554688 41.5625 C 287.554688 39.644531 290.4375 39.644531 290.4375 41.5625 "/>
<path style="fill-rule:nonzero;fill:rgb(100%,49.803922%,31.372549%);fill-opacity:1;stroke-width:0.75;stroke-linecap:round;stroke-linejoin:round;stroke:rgb(100%,49.803922%,31.372549%);stroke-opacity:1;stroke-miterlimit:10;" d="M 167.9375 59.363281 C 167.9375 61.28125 165.058594 61.28125 165.058594 59.363281 C 165.058594 57.441406 167.9375 57.441406 167.9375 59.363281 "/>
<path style="fill-rule:nonzero;fill:rgb(100%,49.803922%,31.372549%);fill-opacity:1;stroke-width:0.75;stroke-linecap:round;stroke-linejoin:round;stroke:rgb(100%,49.803922%,31.372549%);stroke-opacity:1;stroke-miterlimit:10;" d="M 187.183594 52.25 C 187.183594 54.167969 184.300781 54.167969 184.300781 52.25 C 184.300781 50.328125 187.183594 50.328125 187.183594 52.25 "/>
<path style="fill-rule:nonzero;fill:rgb(100%,49.803922%,31.372549%);fill-opacity:1;stroke-width:0.75;stroke-linecap:round;stroke-linejoin:round;stroke:rgb(100%,49.803922%,31.372549%);stroke-opacity:1;stroke-miterlimit:10;" d="M 392.015625 75.492188 C 392.015625 77.414062 389.136719 77.414062 389.136719 75.492188 C 389.136719 73.574219 392.015625 73.574219 392.015625 75.492188 "/>
<path style="fill-rule:nonzero;fill:rgb(100%,49.803922%,31.372549%);fill-opacity:1;stroke-width:0.75;stroke-linecap:round;stroke-linejoin:round;stroke:rgb(100%,49.803922%,31.372549%);stroke-opacity:1;stroke-miterlimit:10;" d="M 493.1875 207.160156 C 493.1875 209.078125 490.304688 209.078125 490.304688 207.160156 C 490.304688 205.238281 493.1875 205.238281 493.1875 207.160156 "/>
<path style="fill-rule:nonzero;fill:rgb(100%,49.803922%,31.372549%);fill-opacity:1;stroke-width:0.75;stroke-linecap:round;stroke-linejoin:round;stroke:rgb(100%,49.803922%,31.372549%);stroke-opacity:1;stroke-miterlimit:10;" d="M 310.148438 44.4375 C 310.148438 46.355469 307.269531 46.355469 307.269531 44.4375 C 307.269531 42.515625 310.148438 42.515625 310.148438 44.4375 "/>
<path style="fill-rule:nonzero;fill:rgb(100%,49.803922%,31.372549%);fill-opacity:1;stroke-width:0.75;stroke-linecap:round;stroke-linejoin:round;stroke:rgb(100%,49.803922%,31.372549%);stroke-opacity:1;stroke-miterlimit:10;" d="M 351.976562 468.75 C 351.976562 470.667969 349.097656 470.667969 349.097656 468.75 C 349.097656 466.828125 351.976562 466.828125 351.976562 468.75 "/>
<path style="fill-rule:nonzero;fill:rgb(100%,49.803922%,31.372549%);fill-opacity:1;stroke-width:0.75;stroke-linecap:round;stroke-linejoin:round;stroke:rgb(100%,49.803922%,31.372549%);stroke-opacity:1;stroke-miterlimit:10;" d="M 30.609375 298.152344 C 30.609375 300.070312 27.730469 300.070312 27.730469 298.152344 C 27.730469 296.230469 30.609375 296.230469 30.609375 298.152344 "/>
<path style="fill-rule:nonzero;fill:rgb(100%,49.803922%,31.372549%);fill-opacity:1;stroke-width:0.75;stroke-linecap:round;stroke-linejoin:round;stroke:rgb(100%,49.803922%,31.372549%);stroke-opacity:1;stroke-miterlimit:10;" d="M 467.417969 375.964844 C 467.417969 377.882812 464.535156 377.882812 464.535156 375.964844 C 464.535156 374.042969 467.417969 374.042969 467.417969 375.964844 "/>
<path style="fill-rule:nonzero;fill:rgb(100%,49.803922%,31.372549%);fill-opacity:1;stroke-width:0.75;stroke-linecap:round;stroke-linejoin:round;stroke:rgb(100%,49.803922%,31.372549%);stroke-opacity:1;stroke-miterlimit:10;" d="M 379.777344 456.265625 C 379.777344 458.183594 376.898438 458.183594 376.898438 456.265625 C 376.898438 454.34375 379.777344 454.34375 379.777344 456.265625 "/>
<path style="fill-rule:nonzero;fill:rgb(100%,49.803922%,31.372549%);fill-opacity:1;stroke-width:0.75;stroke-linecap:round;stroke-linejoin:round;stroke:rgb(100%,49.803922%,31.372549%);stroke-opacity:1;stroke-miterlimit:10;" d="M 490.902344 199.386719 C 490.902344 201.304688 488.023438 201.304688 488.023438 199.386719 C 488.023438 197.464844 490.902344 197.464844 490.902344 199.386719 "/>
<path style="fill-rule:nonzero;fill:rgb(100%,49.803922%,31.372549%);fill-opacity:1;stroke-width:0.75;stroke-linecap:round;stroke-linejoin:round;stroke:rgb(100%,49.803922%,31.372549%);stroke-opacity:1;stroke-miterlimit:10;" d="M 36.476562 201.882812 C 36.476562 203.804688 33.597656 203.804688 33.597656 201.882812 C 33.597656 199.964844 36.476562 199.964844 36.476562 201.882812 "/>
<path style="fill-rule:nonzero;fill:rgb(100%,49.803922%,31.372549%);fill-opacity:1;stroke-width:0.75;stroke-linecap:round;stroke-linejoin:round;stroke:rgb(100%,49.803922%,31.372549%);stroke-opacity:1;stroke-miterlimit:10;" d="M 241.539062 41.191406 C 241.539062 43.109375 238.65625 43.109375 238.65625 41.191406 C 238.65625 39.269531 241.539062 39.269531 241.539062 41.191406 "/>
<path style="fill-rule:nonzero;fill:rgb(100%,49.803922%,31.372549%);fill-opacity:1;stroke-width:0.75;stroke-linecap:round;stroke-linejoin:round;stroke:rgb(100%,49.803922%,31.372549%);stroke-opacity:1;stroke-miterlimit:10;" d="M 184.40625 53.164062 C 184.40625 55.082031 181.527344 55.082031 181.527344 53.164062 C 181.527344 51.242188 184.40625 51.242188 184.40625 53.164062 "/>
<path style="fill-rule:nonzero;fill:rgb(100%,49.803922%,31.372549%);fill-opacity:1;stroke-width:0.75;stroke-linecap:round;stroke-linejoin:round;stroke:rgb(100%,49.803922%,31.372549%);stroke-opacity:1;stroke-miterlimit:10;" d="M 27.78125 272.621094 C 27.78125 274.542969 24.902344 274.542969 24.902344 272.621094 C 24.902344 270.703125 27.78125 270.703125 27.78125 272.621094 "/>
<path style="fill-rule:nonzero;fill:rgb(100%,49.803922%,31.372549%);fill-opacity:1;stroke-width:0.75;stroke-linecap:round;stroke-linejoin:round;stroke:rgb(100%,49.803922%,31.372549%);stroke-opacity:1;stroke-miterlimit:10;" d="M 363.3125 60.683594 C 363.3125 62.605469 360.433594 62.605469 360.433594 60.683594 C 360.433594 58.765625 363.3125 58.765625 363.3125 60.683594 "/>
<path style="fill-rule:nonzero;fill:rgb(100%,49.803922%,31.372549%);fill-opacity:1;stroke-width:0.75;stroke-linecap:round;stroke-linejoin:round;stroke:rgb(100%,49.803922%,31.372549%);stroke-opacity:1;stroke-miterlimit:10;" d="M 278.4375 484.253906 C 278.4375 486.175781 275.558594 486.175781 275.558594 484.253906 C 275.558594 482.335938 278.4375 482.335938 278.4375 484.253906 "/>
<path style="fill-rule:nonzero;fill:rgb(100%,49.803922%,31.372549%);fill-opacity:1;stroke-width:0.75;stroke-linecap:round;stroke-linejoin:round;stroke:rgb(100%,49.803922%,31.372549%);stroke-opacity:1;stroke-miterlimit:10;" d="M 335.402344 50.523438 C 335.402344 52.445312 332.523438 52.445312 332.523438 50.523438 C 332.523438 48.605469 335.402344 48.605469 335.402344 50.523438 "/>
<path style="fill-rule:nonzero;fill:rgb(100%,49.803922%,31.372549%);fill-opacity:1;stroke-width:0.75;stroke-linecap:round;stroke-linejoin:round;stroke:rgb(100%,49.803922%,31.372549%);stroke-opacity:1;stroke-miterlimit:10;" d="M 250.988281 40.519531 C 250.988281 42.441406 248.109375 42.441406 248.109375 40.519531 C 248.109375 38.597656 250.988281 38.597656 250.988281 40.519531 "/>
<path style="fill-rule:nonzero;fill:rgb(100%,49.803922%,31.372549%);fill-opacity:1;stroke-width:0.75;stroke-linecap:round;stroke-linejoin:round;stroke:rgb(100%,49.803922%,31.372549%);stroke-opacity:1;stroke-miterlimit:10;" d="M 500.328125 273.378906 C 500.328125 275.300781 497.449219 275.300781 497.449219 273.378906 C 497.449219 271.460938 500.328125 271.460938 500.328125 273.378906 "/>
<path style="fill-rule:nonzero;fill:rgb(100%,49.803922%,31.372549%);fill-opacity:1;stroke-width:0.75;stroke-linecap:round;stroke-linejoin:round;stroke:rgb(100%,49.803922%,31.372549%);stroke-opacity:1;stroke-miterlimit:10;" d="M 347.480469 470.390625 C 347.480469 472.3125 344.601562 472.3125 344.601562 470.390625 C 344.601562 468.472656 347.480469 468.472656 347.480469 470.390625 "/>
<path style="fill-rule:nonzero;fill:rgb(100%,49.803922%,31.372549%);fill-opacity:1;stroke-width:0.75;stroke-linecap:round;stroke-linejoin:round;stroke:rgb(100%,49.803922%,31.372549%);stroke-opacity:1;stroke-miterlimit:10;" d="M 40.691406 335.511719 C 40.691406 337.429688 37.808594 337.429688 37.808594 335.511719 C 37.808594 333.589844 40.691406 333.589844 40.691406 335.511719 "/>
<path style="fill-rule:nonzero;fill:rgb(100%,49.803922%,31.372549%);fill-opacity:1;stroke-width:0.75;stroke-linecap:round;stroke-linejoin:round;stroke:rgb(100%,49.803922%,31.372549%);stroke-opacity:1;stroke-miterlimit:10;" d="M 120.753906 439.226562 C 120.753906 441.144531 117.875 441.144531 117.875 439.226562 C 117.875 437.304688 120.753906 437.304688 120.753906 439.226562 "/>
<path style="fill-rule:nonzero;fill:rgb(100%,49.803922%,31.372549%);fill-opacity:1;stroke-width:0.75;stroke-linecap:round;stroke-linejoin:round;stroke:rgb(100%,49.803922%,31.372549%);stroke-opacity:1;stroke-miterlimit:10;" d="M 174.480469 56.738281 C 174.480469 58.65625 171.601562 58.65625 171.601562 56.738281 C 171.601562 54.816406 174.480469 54.816406 174.480469 56.738281 "/>
<path style="fill-rule:nonzero;fill:rgb(100%,49.803922%,31.372549%);fill-opacity:1;stroke-width:0.75;stroke-linecap:round;stroke-linejoin:round;stroke:rgb(100%,49.803922%,31.372549%);stroke-opacity:1;stroke-miterlimit:10;" d="M 93.503906 416.398438 C 93.503906 418.320312 90.625 418.320312 90.625 416.398438 C 90.625 414.480469 93.503906 414.480469 93.503906 416.398438 "/>
<path style="fill-rule:nonzero;fill:rgb(100%,49.803922%,31.372549%);fill-opacity:1;stroke-width:0.75;stroke-linecap:round;stroke-linejoin:round;stroke:rgb(100%,49.803922%,31.372549%);stroke-opacity:1;stroke-miterlimit:10;" d="M 150.417969 67.515625 C 150.417969 69.433594 147.539062 69.433594 147.539062 67.515625 C 147.539062 65.59375 150.417969 65.59375 150.417969 67.515625 "/>
<path style="fill-rule:nonzero;fill:rgb(100%,49.803922%,31.372549%);fill-opacity:1;stroke-width:0.75;stroke-linecap:round;stroke-linejoin:round;stroke:rgb(100%,49.803922%,31.372549%);stroke-opacity:1;stroke-miterlimit:10;" d="M 27.550781 265.210938 C 27.550781 267.132812 24.671875 267.132812 24.671875 265.210938 C 24.671875 263.292969 27.550781 263.292969 27.550781 265.210938 "/>
<path style="fill-rule:nonzero;fill:rgb(100%,49.803922%,31.372549%);fill-opacity:1;stroke-width:0.75;stroke-linecap:round;stroke-linejoin:round;stroke:rgb(100%,49.803922%,31.372549%);stroke-opacity:1;stroke-miterlimit:10;" d="M 159.46875 461.753906 C 159.46875 463.671875 156.589844 463.671875 156.589844 461.753906 C 156.589844 459.832031 159.46875 459.832031 159.46875 461.753906 "/>
<path style="fill-rule:nonzero;fill:rgb(100%,49.803922%,31.372549%);fill-opacity:1;stroke-width:0.75;stroke-linecap:round;stroke-linejoin:round;stroke:rgb(100%,49.803922%,31.372549%);stroke-opacity:1;stroke-miterlimit:10;" d="M 28.582031 241.496094 C 28.582031 243.414062 25.703125 243.414062 25.703125 241.496094 C 25.703125 239.574219 28.582031 239.574219 28.582031 241.496094 "/>
<path style="fill-rule:nonzero;fill:rgb(100%,49.803922%,31.372549%);fill-opacity:1;stroke-width:0.75;stroke-linecap:round;stroke-linejoin:round;stroke:rgb(100%,49.803922%,31.372549%);stroke-opacity:1;stroke-miterlimit:10;" d="M 273.09375 40.339844 C 273.09375 42.261719 270.214844 42.261719 270.214844 40.339844 C 270.214844 38.421875 273.09375 38.421875 273.09375 40.339844 "/>
<path style="fill-rule:nonzero;fill:rgb(100%,49.803922%,31.372549%);fill-opacity:1;stroke-width:0.75;stroke-linecap:round;stroke-linejoin:round;stroke:rgb(100%,49.803922%,31.372549%);stroke-opacity:1;stroke-miterlimit:10;" d="M 287.015625 483.617188 C 287.015625 485.539062 284.136719 485.539062 284.136719 483.617188 C 284.136719 481.699219 287.015625 481.699219 287.015625 483.617188 "/>
<path style="fill-rule:nonzero;fill:rgb(100%,49.803922%,31.372549%);fill-opacity:1;stroke-width:0.75;stroke-linecap:round;stroke-linejoin:round;stroke:rgb(100%,49.803922%,31.372549%);stroke-opacity:1;stroke-miterlimit:10;" d="M 475.652344 163.046875 C 475.652344 164.96875 472.773438 164.96875 472.773438 163.046875 C 472.773438 161.128906 475.652344 161.128906 475.652344 163.046875 "/>
<path style="fill-rule:nonzero;fill:rgb(100%,49.803922%,31.372549%);fill-opacity:1;stroke-width:0.75;stroke-linecap:round;stroke-linejoin:round;stroke:rgb(100%,49.803922%,31.372549%);stroke-opacity:1;stroke-miterlimit:10;" d="M 177.429688 55.625 C 177.429688 57.546875 174.550781 57.546875 174.550781 55.625 C 174.550781 53.707031 177.429688 53.707031 177.429688 55.625 "/>
<path style="fill-rule:nonzero;fill:rgb(100%,49.803922%,31.372549%);fill-opacity:1;stroke-width:0.75;stroke-linecap:round;stroke-linejoin:round;stroke:rgb(100%,49.803922%,31.372549%);stroke-opacity:1;stroke-miterlimit:10;" d="M 215.773438 479.984375 C 215.773438 481.902344 212.894531 481.902344 212.894531 479.984375 C 212.894531 478.0625 215.773438 478.0625 215.773438 479.984375 "/>
<path style="fill-rule:nonzero;fill:rgb(100%,49.803922%,31.372549%);fill-opacity:1;stroke-width:0.75;stroke-linecap:round;stroke-linejoin:round;stroke:rgb(100%,49.803922%,31.372549%);stroke-opacity:1;stroke-miterlimit:10;" d="M 27.628906 268.769531 C 27.628906 270.6875 24.75 270.6875 24.75 268.769531 C 24.75 266.847656 27.628906 266.847656 27.628906 268.769531 "/>
<path style="fill-rule:nonzero;fill:rgb(100%,49.803922%,31.372549%);fill-opacity:1;stroke-width:0.75;stroke-linecap:round;stroke-linejoin:round;stroke:rgb(100%,49.803922%,31.372549%);stroke-opacity:1;stroke-miterlimit:10;" d="M 399.480469 80.195312 C 399.480469 82.113281 396.601562 82.113281 396.601562 80.195312 C 396.601562 78.273438 399.480469 78.273438 399.480469 80.195312 "/>
<path style="fill-rule:nonzero;fill:rgb(100%,49.803922%,31.372549%);fill-opacity:1;stroke-width:0.75;stroke-linecap:round;stroke-linejoin:round;stroke:rgb(100%,49.803922%,31.372549%);stroke-opacity:1;stroke-miterlimit:10;" d="M 27.605469 267.914062 C 27.605469 269.835938 24.726562 269.835938 24.726562 267.914062 C 24.726562 265.996094 27.605469 265.996094 27.605469 267.914062 "/>
<path style="fill-rule:nonzero;fill:rgb(100%,49.803922%,31.372549%);fill-opacity:1;stroke-width:0.75;stroke-linecap:round;stroke-linejoin:round;stroke:rgb(100%,49.803922%,31.372549%);stroke-opacity:1;stroke-miterlimit:10;" d="M 27.703125 253.992188 C 27.703125 255.910156 24.824219 255.910156 24.824219 253.992188 C 24.824219 252.070312 27.703125 252.070312 27.703125 253.992188 "/>
<path style="fill-rule:nonzero;fill:rgb(100%,49.803922%,31.372549%);fill-opacity:1;stroke-width:0.75;stroke-linecap:round;stroke-linejoin:round;stroke:rgb(100%,49.803922%,31.372549%);stroke-opacity:1;stroke-miterlimit:10;" d="M 265.859375 484.660156 C 265.859375 486.578125 262.976562 486.578125 262.976562 484.660156 C 262.976562 482.738281 265.859375 482.738281 265.859375 484.660156 "/>
<path style="fill-rule:nonzero;fill:rgb(100%,49.803922%,31.372549%);fill-opacity:1;stroke-width:0.75;stroke-linecap:round;stroke-linejoin:round;stroke:rgb(100%,49.803922%,31.372549%);stroke-opacity:1;stroke-miterlimit:10;" d="M 371.925781 64.625 C 371.925781 66.542969 369.046875 66.542969 369.046875 64.625 C 369.046875 62.703125 371.925781 62.703125 371.925781 64.625 "/>
<path style="fill-rule:nonzero;fill:rgb(100%,49.803922%,31.372549%);fill-opacity:1;stroke-width:0.75;stroke-linecap:round;stroke-linejoin:round;stroke:rgb(100%,49.803922%,31.372549%);stroke-opacity:1;stroke-miterlimit:10;" d="M 401.171875 443.53125 C 401.171875 445.449219 398.289062 445.449219 398.289062 443.53125 C 398.289062 441.609375 401.171875 441.609375 401.171875 443.53125 "/>
<path style="fill-rule:nonzero;fill:rgb(100%,49.803922%,31.372549%);fill-opacity:1;stroke-width:0.75;stroke-linecap:round;stroke-linejoin:round;stroke:rgb(100%,49.803922%,31.372549%);stroke-opacity:1;stroke-miterlimit:10;" d="M 420.316406 429.28125 C 420.316406 431.203125 417.4375 431.203125 417.4375 429.28125 C 417.4375 427.363281 420.316406 427.363281 420.316406 429.28125 "/>
<path style="fill-rule:nonzero;fill:rgb(100%,49.803922%,31.372549%);fill-opacity:1;stroke-width:0.75;stroke-linecap:round;stroke-linejoin:round;stroke:rgb(100%,49.803922%,31.372549%);stroke-opacity:1;stroke-miterlimit:10;" d="M 492.484375 204.644531 C 492.484375 206.566406 489.601562 206.566406 489.601562 204.644531 C 489.601562 202.722656 492.484375 202.722656 492.484375 204.644531 "/>
<path style="fill-rule:nonzero;fill:rgb(100%,49.803922%,31.372549%);fill-opacity:1;stroke-width:0.75;stroke-linecap:round;stroke-linejoin:round;stroke:rgb(100%,49.803922%,31.372549%);stroke-opacity:1;stroke-miterlimit:10;" d="M 167.164062 59.6875 C 167.164062 61.605469 164.285156 61.605469 164.285156 59.6875 C 164.285156 57.765625 167.164062 57.765625 167.164062 59.6875 "/>
<path style="fill-rule:nonzero;fill:rgb(100%,49.803922%,31.372549%);fill-opacity:1;stroke-width:0.75;stroke-linecap:round;stroke-linejoin:round;stroke:rgb(100%,49.803922%,31.372549%);stroke-opacity:1;stroke-miterlimit:10;" d="M 499.734375 243.246094 C 499.734375 245.164062 496.855469 245.164062 496.855469 243.246094 C 496.855469 241.324219 499.734375 241.324219 499.734375 243.246094 "/>
<path style="fill-rule:nonzero;fill:rgb(100%,49.803922%,31.372549%);fill-opacity:1;stroke-width:0.75;stroke-linecap:round;stroke-linejoin:round;stroke:rgb(100%,49.803922%,31.372549%);stroke-opacity:1;stroke-miterlimit:10;" d="M 280.371094 40.707031 C 280.371094 42.628906 277.492188 42.628906 277.492188 40.707031 C 277.492188 38.789062 280.371094 38.789062 280.371094 40.707031 "/>
<path style="fill-rule:nonzero;fill:rgb(100%,49.803922%,31.372549%);fill-opacity:1;stroke-width:0.75;stroke-linecap:round;stroke-linejoin:round;stroke:rgb(100%,49.803922%,31.372549%);stroke-opacity:1;stroke-miterlimit:10;" d="M 200.21875 476.414062 C 200.21875 478.332031 197.335938 478.332031 197.335938 476.414062 C 197.335938 474.492188 200.21875 474.492188 200.21875 476.414062 "/>
<path style="fill-rule:nonzero;fill:rgb(100%,49.803922%,31.372549%);fill-opacity:1;stroke-width:0.75;stroke-linecap:round;stroke-linejoin:round;stroke:rgb(100%,49.803922%,31.372549%);stroke-opacity:1;stroke-miterlimit:10;" d="M 179.636719 54.820312 C 179.636719 56.742188 176.757812 56.742188 176.757812 54.820312 C 176.757812 52.902344 179.636719 52.902344 179.636719 54.820312 "/>
<path style="fill-rule:nonzero;fill:rgb(100%,49.803922%,31.372549%);fill-opacity:1;stroke-width:0.75;stroke-linecap:round;stroke-linejoin:round;stroke:rgb(100%,49.803922%,31.372549%);stroke-opacity:1;stroke-miterlimit:10;" d="M 27.875 274.351562 C 27.875 276.273438 24.992188 276.273438 24.992188 274.351562 C 24.992188 272.433594 27.875 272.433594 27.875 274.351562 "/>
<path style="fill-rule:nonzero;fill:rgb(100%,49.803922%,31.372549%);fill-opacity:1;stroke-width:0.75;stroke-linecap:round;stroke-linejoin:round;stroke:rgb(100%,49.803922%,31.372549%);stroke-opacity:1;stroke-miterlimit:10;" d="M 488.269531 191.5625 C 488.269531 193.480469 485.390625 193.480469 485.390625 191.5625 C 485.390625 189.640625 488.269531 189.640625 488.269531 191.5625 "/>
<path style="fill-rule:nonzero;fill:rgb(100%,49.803922%,31.372549%);fill-opacity:1;stroke-width:0.75;stroke-linecap:round;stroke-linejoin:round;stroke:rgb(100%,49.803922%,31.372549%);stroke-opacity:1;stroke-miterlimit:10;" d="M 46.734375 350.132812 C 46.734375 352.054688 43.855469 352.054688 43.855469 350.132812 C 43.855469 348.214844 46.734375 348.214844 46.734375 350.132812 "/>
<path style="fill-rule:nonzero;fill:rgb(100%,49.803922%,31.372549%);fill-opacity:1;stroke-width:0.75;stroke-linecap:round;stroke-linejoin:round;stroke:rgb(100%,49.803922%,31.372549%);stroke-opacity:1;stroke-miterlimit:10;" d="M 434.992188 108.785156 C 434.992188 110.707031 432.113281 110.707031 432.113281 108.785156 C 432.113281 106.867188 434.992188 106.867188 434.992188 108.785156 "/>
<path style="fill-rule:nonzero;fill:rgb(100%,49.803922%,31.372549%);fill-opacity:1;stroke-width:0.75;stroke-linecap:round;stroke-linejoin:round;stroke:rgb(100%,49.803922%,31.372549%);stroke-opacity:1;stroke-miterlimit:10;" d="M 448.992188 401.011719 C 448.992188 402.929688 446.109375 402.929688 446.109375 401.011719 C 446.109375 399.089844 448.992188 399.089844 448.992188 401.011719 "/>
<path style="fill-rule:nonzero;fill:rgb(100%,49.803922%,31.372549%);fill-opacity:1;stroke-width:0.75;stroke-linecap:round;stroke-linejoin:round;stroke:rgb(100%,49.803922%,31.372549%);stroke-opacity:1;stroke-miterlimit:10;" d="M 499.617188 242.027344 C 499.617188 243.945312 496.738281 243.945312 496.738281 242.027344 C 496.738281 240.105469 499.617188 240.105469 499.617188 242.027344 "/>
<path style="fill-rule:nonzero;fill:rgb(100%,49.803922%,31.372549%);fill-opacity:1;stroke-width:0.75;stroke-linecap:round;stroke-linejoin:round;stroke:rgb(100%,49.803922%,31.372549%);stroke-opacity:1;stroke-miterlimit:10;" d="M 312.945312 479.871094 C 312.945312 481.789062 310.066406 481.789062 310.066406 479.871094 C 310.066406 477.949219 312.945312 477.949219 312.945312 479.871094 "/>
<path style="fill-rule:nonzero;fill:rgb(100%,49.803922%,31.372549%);fill-opacity:1;stroke-width:0.75;stroke-linecap:round;stroke-linejoin:round;stroke:rgb(100%,49.803922%,31.372549%);stroke-opacity:1;stroke-miterlimit:10;" d="M 463.824219 143.382812 C 463.824219 145.304688 460.945312 145.304688 460.945312 143.382812 C 460.945312 141.464844 463.824219 141.464844 463.824219 143.382812 "/>
<path style="fill-rule:nonzero;fill:rgb(100%,49.803922%,31.372549%);fill-opacity:1;stroke-width:0.75;stroke-linecap:round;stroke-linejoin:round;stroke:rgb(100%,49.803922%,31.372549%);stroke-opacity:1;stroke-miterlimit:10;" d="M 29.25 289.152344 C 29.25 291.074219 26.371094 291.074219 26.371094 289.152344 C 26.371094 287.234375 29.25 287.234375 29.25 289.152344 "/>
<path style="fill-rule:nonzero;fill:rgb(100%,49.803922%,31.372549%);fill-opacity:1;stroke-width:0.75;stroke-linecap:round;stroke-linejoin:round;stroke:rgb(100%,49.803922%,31.372549%);stroke-opacity:1;stroke-miterlimit:10;" d="M 87.363281 114.683594 C 87.363281 116.605469 84.484375 116.605469 84.484375 114.683594 C 84.484375 112.765625 87.363281 112.765625 87.363281 114.683594 "/>
<path style="fill-rule:nonzero;fill:rgb(100%,49.803922%,31.372549%);fill-opacity:1;stroke-width:0.75;stroke-linecap:round;stroke-linejoin:round;stroke:rgb(100%,49.803922%,31.372549%);stroke-opacity:1;stroke-miterlimit:10;" d="M 478.070312 167.730469 C 478.070312 169.648438 475.191406 169.648438 475.191406 167.730469 C 475.191406 165.808594 478.070312 165.808594 478.070312 167.730469 "/>
<path style="fill-rule:nonzero;fill:rgb(100%,49.803922%,31.372549%);fill-opacity:1;stroke-width:0.75;stroke-linecap:round;stroke-linejoin:round;stroke:rgb(100%,49.803922%,31.372549%);stroke-opacity:1;stroke-miterlimit:10;" d="M 162.492188 61.714844 C 162.492188 63.636719 159.613281 63.636719 159.613281 61.714844 C 159.613281 59.796875 162.492188 59.796875 162.492188 61.714844 "/>
<path style="fill-rule:nonzero;fill:rgb(100%,49.803922%,31.372549%);fill-opacity:1;stroke-width:0.75;stroke-linecap:round;stroke-linejoin:round;stroke:rgb(100%,49.803922%,31.372549%);stroke-opacity:1;stroke-miterlimit:10;" d="M 148.164062 456.15625 C 148.164062 458.074219 145.285156 458.074219 145.285156 456.15625 C 145.285156 454.234375 148.164062 454.234375 148.164062 456.15625 "/>
<path style="fill-rule:nonzero;fill:rgb(100%,49.803922%,31.372549%);fill-opacity:1;stroke-width:0.75;stroke-linecap:round;stroke-linejoin:round;stroke:rgb(100%,49.803922%,31.372549%);stroke-opacity:1;stroke-miterlimit:10;" d="M 475.773438 361.570312 C 475.773438 363.492188 472.890625 363.492188 472.890625 361.570312 C 472.890625 359.652344 475.773438 359.652344 475.773438 361.570312 "/>
<path style="fill-rule:nonzero;fill:rgb(100%,49.803922%,31.372549%);fill-opacity:1;stroke-width:0.75;stroke-linecap:round;stroke-linejoin:round;stroke:rgb(100%,49.803922%,31.372549%);stroke-opacity:1;stroke-miterlimit:10;" d="M 31.207031 223.402344 C 31.207031 225.320312 28.328125 225.320312 28.328125 223.402344 C 28.328125 221.480469 31.207031 221.480469 31.207031 223.402344 "/>
<path style="fill-rule:nonzero;fill:rgb(100%,49.803922%,31.372549%);fill-opacity:1;stroke-width:0.75;stroke-linecap:round;stroke-linejoin:round;stroke:rgb(100%,49.803922%,31.372549%);stroke-opacity:1;stroke-miterlimit:10;" d="M 411.835938 88.875 C 411.835938 90.796875 408.957031 90.796875 408.957031 88.875 C 408.957031 86.957031 411.835938 86.957031 411.835938 88.875 "/>
<path style="fill-rule:nonzero;fill:rgb(100%,49.803922%,31.372549%);fill-opacity:1;stroke-width:0.75;stroke-linecap:round;stroke-linejoin:round;stroke:rgb(100%,49.803922%,31.372549%);stroke-opacity:1;stroke-miterlimit:10;" d="M 36.625 323.445312 C 36.625 325.367188 33.746094 325.367188 33.746094 323.445312 C 33.746094 321.527344 36.625 321.527344 36.625 323.445312 "/>
<path style="fill-rule:nonzero;fill:rgb(100%,49.803922%,31.372549%);fill-opacity:1;stroke-width:0.75;stroke-linecap:round;stroke-linejoin:round;stroke:rgb(100%,49.803922%,31.372549%);stroke-opacity:1;stroke-miterlimit:10;" d="M 342.554688 52.769531 C 342.554688 54.6875 339.675781 54.6875 339.675781 52.769531 C 339.675781 50.847656 342.554688 50.847656 342.554688 52.769531 "/>
<path style="fill-rule:nonzero;fill:rgb(100%,49.803922%,31.372549%);fill-opacity:1;stroke-width:0.75;stroke-linecap:round;stroke-linejoin:round;stroke:rgb(100%,49.803922%,31.372549%);stroke-opacity:1;stroke-miterlimit:10;" d="M 454.191406 394.652344 C 454.191406 396.570312 451.3125 396.570312 451.3125 394.652344 C 451.3125 392.730469 454.191406 392.730469 454.191406 394.652344 "/>
<path style="fill-rule:nonzero;fill:rgb(100%,49.803922%,31.372549%);fill-opacity:1;stroke-width:0.75;stroke-linecap:round;stroke-linejoin:round;stroke:rgb(100%,49.803922%,31.372549%);stroke-opacity:1;stroke-miterlimit:10;" d="M 82.289062 120.222656 C 82.289062 122.140625 79.410156 122.140625 79.410156 120.222656 C 79.410156 118.300781 82.289062 118.300781 82.289062 120.222656 "/>
<path style="fill-rule:nonzero;fill:rgb(100%,49.803922%,31.372549%);fill-opacity:1;stroke-width:0.75;stroke-linecap:round;stroke-linejoin:round;stroke:rgb(100%,49.803922%,31.372549%);stroke-opacity:1;stroke-miterlimit:10;" d="M 175.796875 56.238281 C 175.796875 58.15625 172.914062 58.15625 172.914062 56.238281 C 172.914062 54.316406 175.796875 54.316406 175.796875 56.238281 "/>
<path style="fill-rule:nonzero;fill:rgb(100%,49.803922%,31.372549%);fill-opacity:1;stroke-width:0.75;stroke-linecap:round;stroke-linejoin:round;stroke:rgb(100%,49.803922%,31.372549%);stroke-opacity:1;stroke-miterlimit:10;" d="M 390.785156 74.753906 C 390.785156 76.675781 387.902344 76.675781 387.902344 74.753906 C 387.902344 72.835938 390.785156 72.835938 390.785156 74.753906 "/>
<path style="fill-rule:nonzero;fill:rgb(100%,49.803922%,31.372549%);fill-opacity:1;stroke-width:0.75;stroke-linecap:round;stroke-linejoin:round;stroke:rgb(100%,49.803922%,31.372549%);stroke-opacity:1;stroke-miterlimit:10;" d="M 452.054688 397.324219 C 452.054688 399.246094 449.175781 399.246094 449.175781 397.324219 C 449.175781 395.40625 452.054688 395.40625 452.054688 397.324219 "/>
<path style="fill-rule:nonzero;fill:rgb(100%,49.803922%,31.372549%);fill-opacity:1;stroke-width:0.75;stroke-linecap:round;stroke-linejoin:round;stroke:rgb(100%,49.803922%,31.372549%);stroke-opacity:1;stroke-miterlimit:10;" d="M 382.695312 70.144531 C 382.695312 72.066406 379.816406 72.066406 379.816406 70.144531 C 379.816406 68.226562 382.695312 68.226562 382.695312 70.144531 "/>
<path style="fill-rule:nonzero;fill:rgb(100%,49.803922%,31.372549%);fill-opacity:1;stroke-width:0.75;stroke-linecap:round;stroke-linejoin:round;stroke:rgb(100%,49.803922%,31.372549%);stroke-opacity:1;stroke-miterlimit:10;" d="M 455.8125 392.574219 C 455.8125 394.492188 452.929688 394.492188 452.929688 392.574219 C 452.929688 390.652344 455.8125 390.652344 455.8125 392.574219 "/>
<path style="fill-rule:nonzero;fill:rgb(100%,49.803922%,31.372549%);fill-opacity:1;stroke-width:0.75;stroke-linecap:round;stroke-linejoin:round;stroke:rgb(100%,49.803922%,31.372549%);stroke-opacity:1;stroke-miterlimit:10;" d="M 421.527344 96.570312 C 421.527344 98.488281 418.648438 98.488281 418.648438 96.570312 C 418.648438 94.648438 421.527344 94.648438 421.527344 96.570312 "/>
<path style="fill-rule:nonzero;fill:rgb(100%,49.803922%,31.372549%);fill-opacity:1;stroke-width:0.75;stroke-linecap:round;stroke-linejoin:round;stroke:rgb(100%,49.803922%,31.372549%);stroke-opacity:1;stroke-miterlimit:10;" d="M 424.242188 98.878906 C 424.242188 100.800781 421.363281 100.800781 421.363281 98.878906 C 421.363281 96.960938 424.242188 96.960938 424.242188 98.878906 "/>
<path style="fill-rule:nonzero;fill:rgb(100%,49.803922%,31.372549%);fill-opacity:1;stroke-width:0.75;stroke-linecap:round;stroke-linejoin:round;stroke:rgb(100%,49.803922%,31.372549%);stroke-opacity:1;stroke-miterlimit:10;" d="M 450.71875 125.890625 C 450.71875 127.8125 447.835938 127.8125 447.835938 125.890625 C 447.835938 123.972656 450.71875 123.972656 450.71875 125.890625 "/>
<path style="fill-rule:nonzero;fill:rgb(100%,49.803922%,31.372549%);fill-opacity:1;stroke-width:0.75;stroke-linecap:round;stroke-linejoin:round;stroke:rgb(100%,49.803922%,31.372549%);stroke-opacity:1;stroke-miterlimit:10;" d="M 28.160156 278.582031 C 28.160156 280.503906 25.277344 280.503906 25.277344 278.582031 C 25.277344 276.664062 28.160156 276.664062 28.160156 278.582031 "/>
<path style="fill-rule:nonzero;fill:rgb(100%,49.803922%,31.372549%);fill-opacity:1;stroke-width:0.75;stroke-linecap:round;stroke-linejoin:round;stroke:rgb(100%,49.803922%,31.372549%);stroke-opacity:1;stroke-miterlimit:10;" d="M 190.699219 51.140625 C 190.699219 53.0625 187.816406 53.0625 187.816406 51.140625 C 187.816406 49.222656 190.699219 49.222656 190.699219 51.140625 "/>
<path style="fill-rule:nonzero;fill:rgb(100%,49.803922%,31.372549%);fill-opacity:1;stroke-width:0.75;stroke-linecap:round;stroke-linejoin:round;stroke:rgb(100%,49.803922%,31.372549%);stroke-opacity:1;stroke-miterlimit:10;" d="M 497.292969 225.289062 C 497.292969 227.210938 494.410156 227.210938 494.410156 225.289062 C 494.410156 223.371094 497.292969 223.371094 497.292969 225.289062 "/>
<path style="fill-rule:nonzero;fill:rgb(100%,49.803922%,31.372549%);fill-opacity:1;stroke-width:0.75;stroke-linecap:round;stroke-linejoin:round;stroke:rgb(100%,49.803922%,31.372549%);stroke-opacity:1;stroke-miterlimit:10;" d="M 177.484375 55.605469 C 177.484375 57.523438 174.605469 57.523438 174.605469 55.605469 C 174.605469 53.683594 177.484375 53.683594 177.484375 55.605469 "/>
<path style="fill-rule:nonzero;fill:rgb(100%,49.803922%,31.372549%);fill-opacity:1;stroke-width:0.75;stroke-linecap:round;stroke-linejoin:round;stroke:rgb(100%,49.803922%,31.372549%);stroke-opacity:1;stroke-miterlimit:10;" d="M 252.367188 484.394531 C 252.367188 486.3125 249.488281 486.3125 249.488281 484.394531 C 249.488281 482.472656 252.367188 482.472656 252.367188 484.394531 "/>
<path style="fill:none;stroke-width:0.75;stroke-linecap:round;stroke-linejoin:round;stroke:rgb(0%,0%,0%);stroke-opacity:1;stroke-miterlimit:10;" d="M 7.199219 517.800781 L 517.800781 517.800781 L 517.800781 7.199219 L 7.199219 7.199219 L 7.199219 517.800781 "/>
</g>
</svg>
