<?xml version="1.0" encoding="UTF-8"?>
<svg xmlns="http://www.w3.org/2000/svg" xmlns:xlink="http://www.w3.org/1999/xlink" width="525pt" height="525pt" viewBox="0 0 525 525" version="1.1">
<g id="surface46">
<rect x="0" y="0" width="525" height="525" style="fill:rgb(100%,100%,100%);fill-opacity:1;stroke:none;"/>
<path style="fill-rule:nonzero;fill:rgb(100%,49.803922%,31.372549%);fill-opacity:1;stroke-width:0.75;stroke-linecap:round;stroke-linejoin:round;stroke:rgb(100%,49.803922%,31.372549%);stroke-opacity:1;stroke-miterlimit:10;" d="M 417.847656 145.808594 C 417.847656 147.726562 414.964844 147.726562 414.964844 145.808594 C 414.964844 143.886719 417.847656 143.886719 417.847656 145.808594 "/>
<path style="fill-rule:nonzero;fill:rgb(100%,49.803922%,31.372549%);fill-opacity:1;stroke-width:0.75;stroke-linecap:round;stroke-linejoin:round;stroke:rgb(100%,49.803922%,31.372549%);stroke-opacity:1;stroke-miterlimit:10;" d="M 165.234375 337.027344 C 165.234375 338.949219 162.351562 338.949219 162.351562 337.027344 C 162.351562 335.109375 165.234375 335.109375 165.234375 337.027344 "/>
<path style="fill-rule:nonzero;fill:rgb(100%,49.803922%,31.372549%);fill-opacity:1;stroke-width:0.75;stroke-linecap:round;stroke-linejoin:round;stroke:rgb(100%,49.803922%,31.372549%);stroke-opacity:1;stroke-miterlimit:10;" d="M 71.167969 386.609375 C 71.167969 388.527344 68.285156 388.527344 68.285156 386.609375 C 68.285156 384.6875 71.167969 384.6875 71.167969 386.609375 "/>
<path style="fill-rule:nonzero;fill:rgb(100%,49.803922%,31.372549%);fill-opacity:1;stroke-width:0.75;stroke-linecap:round;stroke-linejoin:round;stroke:rgb(100%,49.803922%,31.372549%);stroke-opacity:1;stroke-miterlimit:10;" d="M 172.382812 435.121094 C 172.382812 437.039062 169.503906 437.039062 169.503906 435.121094 C 169.503906 433.199219 172.382812 433.199219 172.382812 435.121094 "/>
<path style="fill-rule:nonzero;fill:rgb(100%,49.803922%,31.372549%);fill-opacity:1;stroke-width:0.75;stroke-linecap:round;stroke-linejoin:round;stroke:rgb(100%,49.803922%,31.372549%);stroke-opacity:1;stroke-miterlimit:10;" d="M 386.496094 414.484375 C 386.496094 416.402344 383.613281 416.402344 383.613281 414.484375 C 383.613281 412.5625 386.496094 412.5625 386.496094 414.484375 "/>
<path style="fill-rule:nonzero;fill:rgb(100%,49.803922%,31.372549%);fill-opacity:1;stroke-width:0.75;stroke-linecap:round;stroke-linejoin:round;stroke:rgb(100%,49.803922%,31.372549%);stroke-opacity:1;stroke-miterlimit:10;" d="M 151.023438 422.144531 C 151.023438 424.0625 148.144531 424.0625 148.144531 422.144531 C 148.144531 420.222656 151.023438 420.222656 151.023438 422.144531 "/>
<path style="fill-rule:nonzero;fill:rgb(100%,49.803922%,31.372549%);fill-opacity:1;stroke-width:0.75;stroke-linecap:round;stroke-linejoin:round;stroke:rgb(100%,49.803922%,31.372549%);stroke-opacity:1;stroke-miterlimit:10;" d="M 490.289062 250.472656 C 490.289062 252.394531 487.410156 252.394531 487.410156 250.472656 C 487.410156 248.554688 490.289062 248.554688 490.289062 250.472656 "/>
<path style="fill-rule:nonzero;fill:rgb(100%,49.803922%,31.372549%);fill-opacity:1;stroke-width:0.75;stroke-linecap:round;stroke-linejoin:round;stroke:rgb(100%,49.803922%,31.372549%);stroke-opacity:1;stroke-miterlimit:10;" d="M 345.054688 139.730469 C 345.054688 141.652344 342.171875 141.652344 342.171875 139.730469 C 342.171875 137.8125 345.054688 137.8125 345.054688 139.730469 "/>
<path style="fill-rule:nonzero;fill:rgb(100%,49.803922%,31.372549%);fill-opacity:1;stroke-width:0.75;stroke-linecap:round;stroke-linejoin:round;stroke:rgb(100%,49.803922%,31.372549%);stroke-opacity:1;stroke-miterlimit:10;" d="M 139.378906 392.703125 C 139.378906 394.625 136.5 394.625 136.5 392.703125 C 136.5 390.785156 139.378906 390.785156 139.378906 392.703125 "/>
<path style="fill-rule:nonzero;fill:rgb(100%,49.803922%,31.372549%);fill-opacity:1;stroke-width:0.75;stroke-linecap:round;stroke-linejoin:round;stroke:rgb(100%,49.803922%,31.372549%);stroke-opacity:1;stroke-miterlimit:10;" d="M 130.335938 330.128906 C 130.335938 332.046875 127.457031 332.046875 127.457031 330.128906 C 127.457031 328.207031 130.335938 328.207031 130.335938 330.128906 "/>
<path style="fill-rule:nonzero;fill:rgb(100%,49.803922%,31.372549%);fill-opacity:1;stroke-width:0.75;stroke-linecap:round;stroke-linejoin:round;stroke:rgb(100%,49.803922%,31.372549%);stroke-opacity:1;stroke-miterlimit:10;" d="M 186.152344 365.730469 C 186.152344 367.648438 183.273438 367.648438 183.273438 365.730469 C 183.273438 363.808594 186.152344 363.808594 186.152344 365.730469 "/>
<path style="fill-rule:nonzero;fill:rgb(100%,49.803922%,31.372549%);fill-opacity:1;stroke-width:0.75;stroke-linecap:round;stroke-linejoin:round;stroke:rgb(100%,49.803922%,31.372549%);stroke-opacity:1;stroke-miterlimit:10;" d="M 104.515625 266.25 C 104.515625 268.167969 101.636719 268.167969 101.636719 266.25 C 101.636719 264.328125 104.515625 264.328125 104.515625 266.25 "/>
<path style="fill-rule:nonzero;fill:rgb(100%,49.803922%,31.372549%);fill-opacity:1;stroke-width:0.75;stroke-linecap:round;stroke-linejoin:round;stroke:rgb(100%,49.803922%,31.372549%);stroke-opacity:1;stroke-miterlimit:10;" d="M 252.433594 124.523438 C 252.433594 126.445312 249.550781 126.445312 249.550781 124.523438 C 249.550781 122.605469 252.433594 122.605469 252.433594 124.523438 "/>
<path style="fill-rule:nonzero;fill:rgb(100%,49.803922%,31.372549%);fill-opacity:1;stroke-width:0.75;stroke-linecap:round;stroke-linejoin:round;stroke:rgb(100%,49.803922%,31.372549%);stroke-opacity:1;stroke-miterlimit:10;" d="M 434.664062 345.082031 C 434.664062 347.003906 431.785156 347.003906 431.785156 345.082031 C 431.785156 343.160156 434.664062 343.160156 434.664062 345.082031 "/>
<path style="fill-rule:nonzero;fill:rgb(100%,49.803922%,31.372549%);fill-opacity:1;stroke-width:0.75;stroke-linecap:round;stroke-linejoin:round;stroke:rgb(100%,49.803922%,31.372549%);stroke-opacity:1;stroke-miterlimit:10;" d="M 170.800781 124.132812 C 170.800781 126.054688 167.921875 126.054688 167.921875 124.132812 C 167.921875 122.214844 170.800781 122.214844 170.800781 124.132812 "/>
<path style="fill-rule:nonzero;fill:rgb(100%,49.803922%,31.372549%);fill-opacity:1;stroke-width:0.75;stroke-linecap:round;stroke-linejoin:round;stroke:rgb(100%,49.803922%,31.372549%);stroke-opacity:1;stroke-miterlimit:10;" d="M 345.988281 459.976562 C 345.988281 461.894531 343.109375 461.894531 343.109375 459.976562 C 343.109375 458.054688 345.988281 458.054688 345.988281 459.976562 "/>
<path style="fill-rule:nonzero;fill:rgb(100%,49.803922%,31.372549%);fill-opacity:1;stroke-width:0.75;stroke-linecap:round;stroke-linejoin:round;stroke:rgb(100%,49.803922%,31.372549%);stroke-opacity:1;stroke-miterlimit:10;" d="M 287.367188 206.324219 C 287.367188 208.242188 284.488281 208.242188 284.488281 206.324219 C 284.488281 204.402344 287.367188 204.402344 287.367188 206.324219 "/>
<path style="fill-rule:nonzero;fill:rgb(100%,49.803922%,31.372549%);fill-opacity:1;stroke-width:0.75;stroke-linecap:round;stroke-linejoin:round;stroke:rgb(100%,49.803922%,31.372549%);stroke-opacity:1;stroke-miterlimit:10;" d="M 258.800781 106.410156 C 258.800781 108.328125 255.917969 108.328125 255.917969 106.410156 C 255.917969 104.488281 258.800781 104.488281 258.800781 106.410156 "/>
<path style="fill-rule:nonzero;fill:rgb(100%,49.803922%,31.372549%);fill-opacity:1;stroke-width:0.75;stroke-linecap:round;stroke-linejoin:round;stroke:rgb(100%,49.803922%,31.372549%);stroke-opacity:1;stroke-miterlimit:10;" d="M 309.9375 118.910156 C 309.9375 120.832031 307.058594 120.832031 307.058594 118.910156 C 307.058594 116.992188 309.9375 116.992188 309.9375 118.910156 "/>
<path style="fill-rule:nonzero;fill:rgb(100%,49.803922%,31.372549%);fill-opacity:1;stroke-width:0.75;stroke-linecap:round;stroke-linejoin:round;stroke:rgb(100%,49.803922%,31.372549%);stroke-opacity:1;stroke-miterlimit:10;" d="M 267.234375 45.46875 C 267.234375 47.386719 264.355469 47.386719 264.355469 45.46875 C 264.355469 43.546875 267.234375 43.546875 267.234375 45.46875 "/>
<path style="fill-rule:nonzero;fill:rgb(100%,49.803922%,31.372549%);fill-opacity:1;stroke-width:0.75;stroke-linecap:round;stroke-linejoin:round;stroke:rgb(100%,49.803922%,31.372549%);stroke-opacity:1;stroke-miterlimit:10;" d="M 237.402344 192.109375 C 237.402344 194.027344 234.523438 194.027344 234.523438 192.109375 C 234.523438 190.1875 237.402344 190.1875 237.402344 192.109375 "/>
<path style="fill-rule:nonzero;fill:rgb(100%,49.803922%,31.372549%);fill-opacity:1;stroke-width:0.75;stroke-linecap:round;stroke-linejoin:round;stroke:rgb(100%,49.803922%,31.372549%);stroke-opacity:1;stroke-miterlimit:10;" d="M 225.894531 137.917969 C 225.894531 139.835938 223.015625 139.835938 223.015625 137.917969 C 223.015625 135.996094 225.894531 135.996094 225.894531 137.917969 "/>
<path style="fill-rule:nonzero;fill:rgb(100%,49.803922%,31.372549%);fill-opacity:1;stroke-width:0.75;stroke-linecap:round;stroke-linejoin:round;stroke:rgb(100%,49.803922%,31.372549%);stroke-opacity:1;stroke-miterlimit:10;" d="M 335.160156 99.019531 C 335.160156 100.9375 332.28125 100.9375 332.28125 99.019531 C 332.28125 97.097656 335.160156 97.097656 335.160156 99.019531 "/>
<path style="fill-rule:nonzero;fill:rgb(100%,49.803922%,31.372549%);fill-opacity:1;stroke-width:0.75;stroke-linecap:round;stroke-linejoin:round;stroke:rgb(100%,49.803922%,31.372549%);stroke-opacity:1;stroke-miterlimit:10;" d="M 444.691406 218.199219 C 444.691406 220.117188 441.8125 220.117188 441.8125 218.199219 C 441.8125 216.277344 444.691406 216.277344 444.691406 218.199219 "/>
<path style="fill-rule:nonzero;fill:rgb(100%,49.803922%,31.372549%);fill-opacity:1;stroke-width:0.75;stroke-linecap:round;stroke-linejoin:round;stroke:rgb(100%,49.803922%,31.372549%);stroke-opacity:1;stroke-miterlimit:10;" d="M 327.992188 103.3125 C 327.992188 105.230469 325.113281 105.230469 325.113281 103.3125 C 325.113281 101.390625 327.992188 101.390625 327.992188 103.3125 "/>
<path style="fill-rule:nonzero;fill:rgb(100%,49.803922%,31.372549%);fill-opacity:1;stroke-width:0.75;stroke-linecap:round;stroke-linejoin:round;stroke:rgb(100%,49.803922%,31.372549%);stroke-opacity:1;stroke-miterlimit:10;" d="M 400.824219 451.140625 C 400.824219 453.0625 397.945312 453.0625 397.945312 451.140625 C 397.945312 449.222656 400.824219 449.222656 400.824219 451.140625 "/>
<path style="fill-rule:nonzero;fill:rgb(100%,49.803922%,31.372549%);fill-opacity:1;stroke-width:0.75;stroke-linecap:round;stroke-linejoin:round;stroke:rgb(100%,49.803922%,31.372549%);stroke-opacity:1;stroke-miterlimit:10;" d="M 62.621094 292.136719 C 62.621094 294.058594 59.742188 294.058594 59.742188 292.136719 C 59.742188 290.21875 62.621094 290.21875 62.621094 292.136719 "/>
<path style="fill-rule:nonzero;fill:rgb(100%,49.803922%,31.372549%);fill-opacity:1;stroke-width:0.75;stroke-linecap:round;stroke-linejoin:round;stroke:rgb(100%,49.803922%,31.372549%);stroke-opacity:1;stroke-miterlimit:10;" d="M 411.078125 366.933594 C 411.078125 368.855469 408.199219 368.855469 408.199219 366.933594 C 408.199219 365.015625 411.078125 365.015625 411.078125 366.933594 "/>
<path style="fill-rule:nonzero;fill:rgb(100%,49.803922%,31.372549%);fill-opacity:1;stroke-width:0.75;stroke-linecap:round;stroke-linejoin:round;stroke:rgb(100%,49.803922%,31.372549%);stroke-opacity:1;stroke-miterlimit:10;" d="M 395.234375 414.816406 C 395.234375 416.734375 392.351562 416.734375 392.351562 414.816406 C 392.351562 412.894531 395.234375 412.894531 395.234375 414.816406 "/>
<path style="fill-rule:nonzero;fill:rgb(100%,49.803922%,31.372549%);fill-opacity:1;stroke-width:0.75;stroke-linecap:round;stroke-linejoin:round;stroke:rgb(100%,49.803922%,31.372549%);stroke-opacity:1;stroke-miterlimit:10;" d="M 425.925781 246.019531 C 425.925781 247.941406 423.046875 247.941406 423.046875 246.019531 C 423.046875 244.101562 425.925781 244.101562 425.925781 246.019531 "/>
<path style="fill-rule:nonzero;fill:rgb(100%,49.803922%,31.372549%);fill-opacity:1;stroke-width:0.75;stroke-linecap:round;stroke-linejoin:round;stroke:rgb(100%,49.803922%,31.372549%);stroke-opacity:1;stroke-miterlimit:10;" d="M 152.804688 183.230469 C 152.804688 185.152344 149.925781 185.152344 149.925781 183.230469 C 149.925781 181.3125 152.804688 181.3125 152.804688 183.230469 "/>
<path style="fill-rule:nonzero;fill:rgb(100%,49.803922%,31.372549%);fill-opacity:1;stroke-width:0.75;stroke-linecap:round;stroke-linejoin:round;stroke:rgb(100%,49.803922%,31.372549%);stroke-opacity:1;stroke-miterlimit:10;" d="M 292.496094 66.507812 C 292.496094 68.429688 289.613281 68.429688 289.613281 66.507812 C 289.613281 64.589844 292.496094 64.589844 292.496094 66.507812 "/>
<path style="fill-rule:nonzero;fill:rgb(100%,49.803922%,31.372549%);fill-opacity:1;stroke-width:0.75;stroke-linecap:round;stroke-linejoin:round;stroke:rgb(100%,49.803922%,31.372549%);stroke-opacity:1;stroke-miterlimit:10;" d="M 150.382812 65.421875 C 150.382812 67.339844 147.503906 67.339844 147.503906 65.421875 C 147.503906 63.5 150.382812 63.5 150.382812 65.421875 "/>
<path style="fill-rule:nonzero;fill:rgb(100%,49.803922%,31.372549%);fill-opacity:1;stroke-width:0.75;stroke-linecap:round;stroke-linejoin:round;stroke:rgb(100%,49.803922%,31.372549%);stroke-opacity:1;stroke-miterlimit:10;" d="M 108.289062 293.648438 C 108.289062 295.566406 105.410156 295.566406 105.410156 293.648438 C 105.410156 291.726562 108.289062 291.726562 108.289062 293.648438 "/>
<path style="fill-rule:nonzero;fill:rgb(100%,49.803922%,31.372549%);fill-opacity:1;stroke-width:0.75;stroke-linecap:round;stroke-linejoin:round;stroke:rgb(100%,49.803922%,31.372549%);stroke-opacity:1;stroke-miterlimit:10;" d="M 294.359375 131.191406 C 294.359375 133.109375 291.480469 133.109375 291.480469 131.191406 C 291.480469 129.269531 294.359375 129.269531 294.359375 131.191406 "/>
<path style="fill-rule:nonzero;fill:rgb(100%,49.803922%,31.372549%);fill-opacity:1;stroke-width:0.75;stroke-linecap:round;stroke-linejoin:round;stroke:rgb(100%,49.803922%,31.372549%);stroke-opacity:1;stroke-miterlimit:10;" d="M 228.554688 452.953125 C 228.554688 454.875 225.675781 454.875 225.675781 452.953125 C 225.675781 451.035156 228.554688 451.035156 228.554688 452.953125 "/>
<path style="fill-rule:nonzero;fill:rgb(100%,49.803922%,31.372549%);fill-opacity:1;stroke-width:0.75;stroke-linecap:round;stroke-linejoin:round;stroke:rgb(100%,49.803922%,31.372549%);stroke-opacity:1;stroke-miterlimit:10;" d="M 327.808594 62.058594 C 327.808594 63.980469 324.929688 63.980469 324.929688 62.058594 C 324.929688 60.140625 327.808594 60.140625 327.808594 62.058594 "/>
<path style="fill-rule:nonzero;fill:rgb(100%,49.803922%,31.372549%);fill-opacity:1;stroke-width:0.75;stroke-linecap:round;stroke-linejoin:round;stroke:rgb(100%,49.803922%,31.372549%);stroke-opacity:1;stroke-miterlimit:10;" d="M 263.515625 115.785156 C 263.515625 117.703125 260.636719 117.703125 260.636719 115.785156 C 260.636719 113.863281 263.515625 113.863281 263.515625 115.785156 "/>
<path style="fill-rule:nonzero;fill:rgb(100%,49.803922%,31.372549%);fill-opacity:1;stroke-width:0.75;stroke-linecap:round;stroke-linejoin:round;stroke:rgb(100%,49.803922%,31.372549%);stroke-opacity:1;stroke-miterlimit:10;" d="M 448.664062 277.203125 C 448.664062 279.121094 445.78125 279.121094 445.78125 277.203125 C 445.78125 275.28125 448.664062 275.28125 448.664062 277.203125 "/>
<path style="fill-rule:nonzero;fill:rgb(100%,49.803922%,31.372549%);fill-opacity:1;stroke-width:0.75;stroke-linecap:round;stroke-linejoin:round;stroke:rgb(100%,49.803922%,31.372549%);stroke-opacity:1;stroke-miterlimit:10;" d="M 380.644531 415.695312 C 380.644531 417.617188 377.765625 417.617188 377.765625 415.695312 C 377.765625 413.777344 380.644531 413.777344 380.644531 415.695312 "/>
<path style="fill-rule:nonzero;fill:rgb(100%,49.803922%,31.372549%);fill-opacity:1;stroke-width:0.75;stroke-linecap:round;stroke-linejoin:round;stroke:rgb(100%,49.803922%,31.372549%);stroke-opacity:1;stroke-miterlimit:10;" d="M 113.324219 302.894531 C 113.324219 304.816406 110.441406 304.816406 110.441406 302.894531 C 110.441406 300.976562 113.324219 300.976562 113.324219 302.894531 "/>
<path style="fill-rule:nonzero;fill:rgb(100%,49.803922%,31.372549%);fill-opacity:1;stroke-width:0.75;stroke-linecap:round;stroke-linejoin:round;stroke:rgb(100%,49.803922%,31.372549%);stroke-opacity:1;stroke-miterlimit:10;" d="M 138.378906 415.902344 C 138.378906 417.824219 135.5 417.824219 135.5 415.902344 C 135.5 413.980469 138.378906 413.980469 138.378906 415.902344 "/>
<path style="fill-rule:nonzero;fill:rgb(100%,49.803922%,31.372549%);fill-opacity:1;stroke-width:0.75;stroke-linecap:round;stroke-linejoin:round;stroke:rgb(100%,49.803922%,31.372549%);stroke-opacity:1;stroke-miterlimit:10;" d="M 208.003906 31.171875 C 208.003906 33.09375 205.125 33.09375 205.125 31.171875 C 205.125 29.253906 208.003906 29.253906 208.003906 31.171875 "/>
<path style="fill-rule:nonzero;fill:rgb(100%,49.803922%,31.372549%);fill-opacity:1;stroke-width:0.75;stroke-linecap:round;stroke-linejoin:round;stroke:rgb(100%,49.803922%,31.372549%);stroke-opacity:1;stroke-miterlimit:10;" d="M 123.601562 422.8125 C 123.601562 424.730469 120.71875 424.730469 120.71875 422.8125 C 120.71875 420.890625 123.601562 420.890625 123.601562 422.8125 "/>
<path style="fill-rule:nonzero;fill:rgb(100%,49.803922%,31.372549%);fill-opacity:1;stroke-width:0.75;stroke-linecap:round;stroke-linejoin:round;stroke:rgb(100%,49.803922%,31.372549%);stroke-opacity:1;stroke-miterlimit:10;" d="M 182.949219 177.441406 C 182.949219 179.359375 180.070312 179.359375 180.070312 177.441406 C 180.070312 175.519531 182.949219 175.519531 182.949219 177.441406 "/>
<path style="fill-rule:nonzero;fill:rgb(100%,49.803922%,31.372549%);fill-opacity:1;stroke-width:0.75;stroke-linecap:round;stroke-linejoin:round;stroke:rgb(100%,49.803922%,31.372549%);stroke-opacity:1;stroke-miterlimit:10;" d="M 50.5625 273.054688 C 50.5625 274.976562 47.683594 274.976562 47.683594 273.054688 C 47.683594 271.136719 50.5625 271.136719 50.5625 273.054688 "/>
<path style="fill-rule:nonzero;fill:rgb(100%,49.803922%,31.372549%);fill-opacity:1;stroke-width:0.75;stroke-linecap:round;stroke-linejoin:round;stroke:rgb(100%,49.803922%,31.372549%);stroke-opacity:1;stroke-miterlimit:10;" d="M 188.0625 358.414062 C 188.0625 360.335938 185.183594 360.335938 185.183594 358.414062 C 185.183594 356.492188 188.0625 356.492188 188.0625 358.414062 "/>
<path style="fill-rule:nonzero;fill:rgb(100%,49.803922%,31.372549%);fill-opacity:1;stroke-width:0.75;stroke-linecap:round;stroke-linejoin:round;stroke:rgb(100%,49.803922%,31.372549%);stroke-opacity:1;stroke-miterlimit:10;" d="M 97.144531 254.75 C 97.144531 256.671875 94.261719 256.671875 94.261719 254.75 C 94.261719 252.832031 97.144531 252.832031 97.144531 254.75 "/>
<path style="fill-rule:nonzero;fill:rgb(100%,49.803922%,31.372549%);fill-opacity:1;stroke-width:0.75;stroke-linecap:round;stroke-linejoin:round;stroke:rgb(100%,49.803922%,31.372549%);stroke-opacity:1;stroke-miterlimit:10;" d="M 252.453125 100.65625 C 252.453125 102.578125 249.574219 102.578125 249.574219 100.65625 C 249.574219 98.738281 252.453125 98.738281 252.453125 100.65625 "/>
<path style="fill-rule:nonzero;fill:rgb(100%,49.803922%,31.372549%);fill-opacity:1;stroke-width:0.75;stroke-linecap:round;stroke-linejoin:round;stroke:rgb(100%,49.803922%,31.372549%);stroke-opacity:1;stroke-miterlimit:10;" d="M 290.175781 408.042969 C 290.175781 409.964844 287.292969 409.964844 287.292969 408.042969 C 287.292969 406.125 290.175781 406.125 290.175781 408.042969 "/>
<path style="fill-rule:nonzero;fill:rgb(100%,49.803922%,31.372549%);fill-opacity:1;stroke-width:0.75;stroke-linecap:round;stroke-linejoin:round;stroke:rgb(100%,49.803922%,31.372549%);stroke-opacity:1;stroke-miterlimit:10;" d="M 407.460938 201.023438 C 407.460938 202.945312 404.578125 202.945312 404.578125 201.023438 C 404.578125 199.105469 407.460938 199.105469 407.460938 201.023438 "/>
<path style="fill-rule:nonzero;fill:rgb(100%,49.803922%,31.372549%);fill-opacity:1;stroke-width:0.75;stroke-linecap:round;stroke-linejoin:round;stroke:rgb(100%,49.803922%,31.372549%);stroke-opacity:1;stroke-miterlimit:10;" d="M 182.277344 112.429688 C 182.277344 114.347656 179.394531 114.347656 179.394531 112.429688 C 179.394531 110.507812 182.277344 110.507812 182.277344 112.429688 "/>
<path style="fill-rule:nonzero;fill:rgb(100%,49.803922%,31.372549%);fill-opacity:1;stroke-width:0.75;stroke-linecap:round;stroke-linejoin:round;stroke:rgb(100%,49.803922%,31.372549%);stroke-opacity:1;stroke-miterlimit:10;" d="M 227.34375 392.65625 C 227.34375 394.574219 224.464844 394.574219 224.464844 392.65625 C 224.464844 390.734375 227.34375 390.734375 227.34375 392.65625 "/>
<path style="fill-rule:nonzero;fill:rgb(100%,49.803922%,31.372549%);fill-opacity:1;stroke-width:0.75;stroke-linecap:round;stroke-linejoin:round;stroke:rgb(100%,49.803922%,31.372549%);stroke-opacity:1;stroke-miterlimit:10;" d="M 110.625 273.859375 C 110.625 275.78125 107.746094 275.78125 107.746094 273.859375 C 107.746094 271.941406 110.625 271.941406 110.625 273.859375 "/>
<path style="fill-rule:nonzero;fill:rgb(100%,49.803922%,31.372549%);fill-opacity:1;stroke-width:0.75;stroke-linecap:round;stroke-linejoin:round;stroke:rgb(100%,49.803922%,31.372549%);stroke-opacity:1;stroke-miterlimit:10;" d="M 366.132812 162.332031 C 366.132812 164.25 363.253906 164.25 363.253906 162.332031 C 363.253906 160.410156 366.132812 160.410156 366.132812 162.332031 "/>
<path style="fill-rule:nonzero;fill:rgb(100%,49.803922%,31.372549%);fill-opacity:1;stroke-width:0.75;stroke-linecap:round;stroke-linejoin:round;stroke:rgb(100%,49.803922%,31.372549%);stroke-opacity:1;stroke-miterlimit:10;" d="M 99.617188 262.1875 C 99.617188 264.105469 96.738281 264.105469 96.738281 262.1875 C 96.738281 260.265625 99.617188 260.265625 99.617188 262.1875 "/>
<path style="fill-rule:nonzero;fill:rgb(100%,49.803922%,31.372549%);fill-opacity:1;stroke-width:0.75;stroke-linecap:round;stroke-linejoin:round;stroke:rgb(100%,49.803922%,31.372549%);stroke-opacity:1;stroke-miterlimit:10;" d="M 128.222656 306.089844 C 128.222656 308.007812 125.34375 308.007812 125.34375 306.089844 C 125.34375 304.167969 128.222656 304.167969 128.222656 306.089844 "/>
<path style="fill-rule:nonzero;fill:rgb(100%,49.803922%,31.372549%);fill-opacity:1;stroke-width:0.75;stroke-linecap:round;stroke-linejoin:round;stroke:rgb(100%,49.803922%,31.372549%);stroke-opacity:1;stroke-miterlimit:10;" d="M 262.234375 493.828125 C 262.234375 495.746094 259.351562 495.746094 259.351562 493.828125 C 259.351562 491.90625 262.234375 491.90625 262.234375 493.828125 "/>
<path style="fill-rule:nonzero;fill:rgb(100%,49.803922%,31.372549%);fill-opacity:1;stroke-width:0.75;stroke-linecap:round;stroke-linejoin:round;stroke:rgb(100%,49.803922%,31.372549%);stroke-opacity:1;stroke-miterlimit:10;" d="M 349.035156 127.519531 C 349.035156 129.4375 346.15625 129.4375 346.15625 127.519531 C 346.15625 125.597656 349.035156 125.597656 349.035156 127.519531 "/>
<path style="fill-rule:nonzero;fill:rgb(100%,49.803922%,31.372549%);fill-opacity:1;stroke-width:0.75;stroke-linecap:round;stroke-linejoin:round;stroke:rgb(100%,49.803922%,31.372549%);stroke-opacity:1;stroke-miterlimit:10;" d="M 393.648438 449.664062 C 393.648438 451.585938 390.765625 451.585938 390.765625 449.664062 C 390.765625 447.746094 393.648438 447.746094 393.648438 449.664062 "/>
<path style="fill-rule:nonzero;fill:rgb(100%,49.803922%,31.372549%);fill-opacity:1;stroke-width:0.75;stroke-linecap:round;stroke-linejoin:round;stroke:rgb(100%,49.803922%,31.372549%);stroke-opacity:1;stroke-miterlimit:10;" d="M 343.332031 377.320312 C 343.332031 379.238281 340.453125 379.238281 340.453125 377.320312 C 340.453125 375.398438 343.332031 375.398438 343.332031 377.320312 "/>
<path style="fill-rule:nonzero;fill:rgb(100%,49.803922%,31.372549%);fill-opacity:1;stroke-width:0.75;stroke-linecap:round;stroke-linejoin:round;stroke:rgb(100%,49.803922%,31.372549%);stroke-opacity:1;stroke-miterlimit:10;" d="M 463.84375 234.214844 C 463.84375 236.136719 460.960938 236.136719 460.960938 234.214844 C 460.960938 232.296875 463.84375 232.296875 463.84375 234.214844 "/>
<path style="fill-rule:nonzero;fill:rgb(100%,49.803922%,31.372549%);fill-opacity:1;stroke-width:0.75;stroke-linecap:round;stroke-linejoin:round;stroke:rgb(100%,49.803922%,31.372549%);stroke-opacity:1;stroke-miterlimit:10;" d="M 178.511719 147.351562 C 178.511719 149.273438 175.628906 149.273438 175.628906 147.351562 C 175.628906 145.433594 178.511719 145.433594 178.511719 147.351562 "/>
<path style="fill-rule:nonzero;fill:rgb(100%,49.803922%,31.372549%);fill-opacity:1;stroke-width:0.75;stroke-linecap:round;stroke-linejoin:round;stroke:rgb(100%,49.803922%,31.372549%);stroke-opacity:1;stroke-miterlimit:10;" d="M 407.742188 198.585938 C 407.742188 200.507812 404.863281 200.507812 404.863281 198.585938 C 404.863281 196.664062 407.742188 196.664062 407.742188 198.585938 "/>
<path style="fill-rule:nonzero;fill:rgb(100%,49.803922%,31.372549%);fill-opacity:1;stroke-width:0.75;stroke-linecap:round;stroke-linejoin:round;stroke:rgb(100%,49.803922%,31.372549%);stroke-opacity:1;stroke-miterlimit:10;" d="M 218.914062 108.976562 C 218.914062 110.898438 216.03125 110.898438 216.03125 108.976562 C 216.03125 107.058594 218.914062 107.058594 218.914062 108.976562 "/>
<path style="fill-rule:nonzero;fill:rgb(100%,49.803922%,31.372549%);fill-opacity:1;stroke-width:0.75;stroke-linecap:round;stroke-linejoin:round;stroke:rgb(100%,49.803922%,31.372549%);stroke-opacity:1;stroke-miterlimit:10;" d="M 196.894531 382.152344 C 196.894531 384.070312 194.015625 384.070312 194.015625 382.152344 C 194.015625 380.230469 196.894531 380.230469 196.894531 382.152344 "/>
<path style="fill-rule:nonzero;fill:rgb(100%,49.803922%,31.372549%);fill-opacity:1;stroke-width:0.75;stroke-linecap:round;stroke-linejoin:round;stroke:rgb(100%,49.803922%,31.372549%);stroke-opacity:1;stroke-miterlimit:10;" d="M 164.675781 119.769531 C 164.675781 121.691406 161.796875 121.691406 161.796875 119.769531 C 161.796875 117.851562 164.675781 117.851562 164.675781 119.769531 "/>
<path style="fill-rule:nonzero;fill:rgb(100%,49.803922%,31.372549%);fill-opacity:1;stroke-width:0.75;stroke-linecap:round;stroke-linejoin:round;stroke:rgb(100%,49.803922%,31.372549%);stroke-opacity:1;stroke-miterlimit:10;" d="M 49.691406 293.566406 C 49.691406 295.488281 46.8125 295.488281 46.8125 293.566406 C 46.8125 291.648438 49.691406 291.648438 49.691406 293.566406 "/>
<path style="fill-rule:nonzero;fill:rgb(100%,49.803922%,31.372549%);fill-opacity:1;stroke-width:0.75;stroke-linecap:round;stroke-linejoin:round;stroke:rgb(100%,49.803922%,31.372549%);stroke-opacity:1;stroke-miterlimit:10;" d="M 500.328125 205.277344 C 500.328125 207.195312 497.449219 207.195312 497.449219 205.277344 C 497.449219 203.355469 500.328125 203.355469 500.328125 205.277344 "/>
<path style="fill-rule:nonzero;fill:rgb(100%,49.803922%,31.372549%);fill-opacity:1;stroke-width:0.75;stroke-linecap:round;stroke-linejoin:round;stroke:rgb(100%,49.803922%,31.372549%);stroke-opacity:1;stroke-miterlimit:10;" d="M 62.710938 301.070312 C 62.710938 302.992188 59.828125 302.992188 59.828125 301.070312 C 59.828125 299.152344 62.710938 299.152344 62.710938 301.070312 "/>
<path style="fill-rule:nonzero;fill:rgb(100%,49.803922%,31.372549%);fill-opacity:1;stroke-width:0.75;stroke-linecap:round;stroke-linejoin:round;stroke:rgb(100%,49.803922%,31.372549%);stroke-opacity:1;stroke-miterlimit:10;" d="M 437.007812 57.332031 C 437.007812 59.25 434.128906 59.25 434.128906 57.332031 C 434.128906 55.410156 437.007812 55.410156 437.007812 57.332031 "/>
<path style="fill-rule:nonzero;fill:rgb(100%,49.803922%,31.372549%);fill-opacity:1;stroke-width:0.75;stroke-linecap:round;stroke-linejoin:round;stroke:rgb(100%,49.803922%,31.372549%);stroke-opacity:1;stroke-miterlimit:10;" d="M 431.027344 415.117188 C 431.027344 417.039062 428.148438 417.039062 428.148438 415.117188 C 428.148438 413.195312 431.027344 413.195312 431.027344 415.117188 "/>
<path style="fill-rule:nonzero;fill:rgb(100%,49.803922%,31.372549%);fill-opacity:1;stroke-width:0.75;stroke-linecap:round;stroke-linejoin:round;stroke:rgb(100%,49.803922%,31.372549%);stroke-opacity:1;stroke-miterlimit:10;" d="M 416.929688 263.800781 C 416.929688 265.71875 414.046875 265.71875 414.046875 263.800781 C 414.046875 261.878906 416.929688 261.878906 416.929688 263.800781 "/>
<path style="fill-rule:nonzero;fill:rgb(100%,49.803922%,31.372549%);fill-opacity:1;stroke-width:0.75;stroke-linecap:round;stroke-linejoin:round;stroke:rgb(100%,49.803922%,31.372549%);stroke-opacity:1;stroke-miterlimit:10;" d="M 285.878906 397.355469 C 285.878906 399.277344 283 399.277344 283 397.355469 C 283 395.4375 285.878906 395.4375 285.878906 397.355469 "/>
<path style="fill-rule:nonzero;fill:rgb(100%,49.803922%,31.372549%);fill-opacity:1;stroke-width:0.75;stroke-linecap:round;stroke-linejoin:round;stroke:rgb(100%,49.803922%,31.372549%);stroke-opacity:1;stroke-miterlimit:10;" d="M 407.257812 170.035156 C 407.257812 171.953125 404.375 171.953125 404.375 170.035156 C 404.375 168.113281 407.257812 168.113281 407.257812 170.035156 "/>
<path style="fill-rule:nonzero;fill:rgb(100%,49.803922%,31.372549%);fill-opacity:1;stroke-width:0.75;stroke-linecap:round;stroke-linejoin:round;stroke:rgb(100%,49.803922%,31.372549%);stroke-opacity:1;stroke-miterlimit:10;" d="M 100.847656 299.554688 C 100.847656 301.476562 97.96875 301.476562 97.96875 299.554688 C 97.96875 297.636719 100.847656 297.636719 100.847656 299.554688 "/>
<path style="fill-rule:nonzero;fill:rgb(100%,49.803922%,31.372549%);fill-opacity:1;stroke-width:0.75;stroke-linecap:round;stroke-linejoin:round;stroke:rgb(100%,49.803922%,31.372549%);stroke-opacity:1;stroke-miterlimit:10;" d="M 125.039062 208.554688 C 125.039062 210.476562 122.160156 210.476562 122.160156 208.554688 C 122.160156 206.636719 125.039062 206.636719 125.039062 208.554688 "/>
<path style="fill-rule:nonzero;fill:rgb(100%,49.803922%,31.372549%);fill-opacity:1;stroke-width:0.75;stroke-linecap:round;stroke-linejoin:round;stroke:rgb(100%,49.803922%,31.372549%);stroke-opacity:1;stroke-miterlimit:10;" d="M 463.3125 211.140625 C 463.3125 213.0625 460.433594 213.0625 460.433594 211.140625 C 460.433594 209.222656 463.3125 209.222656 463.3125 211.140625 "/>
<path style="fill-rule:nonzero;fill:rgb(100%,49.803922%,31.372549%);fill-opacity:1;stroke-width:0.75;stroke-linecap:round;stroke-linejoin:round;stroke:rgb(100%,49.803922%,31.372549%);stroke-opacity:1;stroke-miterlimit:10;" d="M 183.851562 127.589844 C 183.851562 129.511719 180.972656 129.511719 180.972656 127.589844 C 180.972656 125.671875 183.851562 125.671875 183.851562 127.589844 "/>
<path style="fill-rule:nonzero;fill:rgb(100%,49.803922%,31.372549%);fill-opacity:1;stroke-width:0.75;stroke-linecap:round;stroke-linejoin:round;stroke:rgb(100%,49.803922%,31.372549%);stroke-opacity:1;stroke-miterlimit:10;" d="M 104.460938 421.890625 C 104.460938 423.808594 101.578125 423.808594 101.578125 421.890625 C 101.578125 419.96875 104.460938 419.96875 104.460938 421.890625 "/>
<path style="fill-rule:nonzero;fill:rgb(100%,49.803922%,31.372549%);fill-opacity:1;stroke-width:0.75;stroke-linecap:round;stroke-linejoin:round;stroke:rgb(100%,49.803922%,31.372549%);stroke-opacity:1;stroke-miterlimit:10;" d="M 427.78125 288.390625 C 427.78125 290.3125 424.902344 290.3125 424.902344 288.390625 C 424.902344 286.472656 427.78125 286.472656 427.78125 288.390625 "/>
<path style="fill-rule:nonzero;fill:rgb(100%,49.803922%,31.372549%);fill-opacity:1;stroke-width:0.75;stroke-linecap:round;stroke-linejoin:round;stroke:rgb(100%,49.803922%,31.372549%);stroke-opacity:1;stroke-miterlimit:10;" d="M 27.550781 259.921875 C 27.550781 261.839844 24.671875 261.839844 24.671875 259.921875 C 24.671875 258 27.550781 258 27.550781 259.921875 "/>
<path style="fill-rule:nonzero;fill:rgb(100%,49.803922%,31.372549%);fill-opacity:1;stroke-width:0.75;stroke-linecap:round;stroke-linejoin:round;stroke:rgb(100%,49.803922%,31.372549%);stroke-opacity:1;stroke-miterlimit:10;" d="M 417.324219 199.054688 C 417.324219 200.976562 414.445312 200.976562 414.445312 199.054688 C 414.445312 197.136719 417.324219 197.136719 417.324219 199.054688 "/>
<path style="fill-rule:nonzero;fill:rgb(100%,49.803922%,31.372549%);fill-opacity:1;stroke-width:0.75;stroke-linecap:round;stroke-linejoin:round;stroke:rgb(100%,49.803922%,31.372549%);stroke-opacity:1;stroke-miterlimit:10;" d="M 72.074219 300.433594 C 72.074219 302.355469 69.195312 302.355469 69.195312 300.433594 C 69.195312 298.515625 72.074219 298.515625 72.074219 300.433594 "/>
<path style="fill-rule:nonzero;fill:rgb(100%,49.803922%,31.372549%);fill-opacity:1;stroke-width:0.75;stroke-linecap:round;stroke-linejoin:round;stroke:rgb(100%,49.803922%,31.372549%);stroke-opacity:1;stroke-miterlimit:10;" d="M 289.800781 118.164062 C 289.800781 120.085938 286.921875 120.085938 286.921875 118.164062 C 286.921875 116.246094 289.800781 116.246094 289.800781 118.164062 "/>
<path style="fill-rule:nonzero;fill:rgb(100%,49.803922%,31.372549%);fill-opacity:1;stroke-width:0.75;stroke-linecap:round;stroke-linejoin:round;stroke:rgb(100%,49.803922%,31.372549%);stroke-opacity:1;stroke-miterlimit:10;" d="M 393.339844 379.902344 C 393.339844 381.820312 390.460938 381.820312 390.460938 379.902344 C 390.460938 377.980469 393.339844 377.980469 393.339844 379.902344 "/>
<path style="fill-rule:nonzero;fill:rgb(100%,49.803922%,31.372549%);fill-opacity:1;stroke-width:0.75;stroke-linecap:round;stroke-linejoin:round;stroke:rgb(100%,49.803922%,31.372549%);stroke-opacity:1;stroke-miterlimit:10;" d="M 155.386719 141.769531 C 155.386719 143.6875 152.507812 143.6875 152.507812 141.769531 C 152.507812 139.847656 155.386719 139.847656 155.386719 141.769531 "/>
<path style="fill-rule:nonzero;fill:rgb(100%,49.803922%,31.372549%);fill-opacity:1;stroke-width:0.75;stroke-linecap:round;stroke-linejoin:round;stroke:rgb(100%,49.803922%,31.372549%);stroke-opacity:1;stroke-miterlimit:10;" d="M 134.375 223.109375 C 134.375 225.03125 131.496094 225.03125 131.496094 223.109375 C 131.496094 221.1875 134.375 221.1875 134.375 223.109375 "/>
<path style="fill-rule:nonzero;fill:rgb(100%,49.803922%,31.372549%);fill-opacity:1;stroke-width:0.75;stroke-linecap:round;stroke-linejoin:round;stroke:rgb(100%,49.803922%,31.372549%);stroke-opacity:1;stroke-miterlimit:10;" d="M 376.375 150.953125 C 376.375 152.871094 373.492188 152.871094 373.492188 150.953125 C 373.492188 149.03125 376.375 149.03125 376.375 150.953125 "/>
<path style="fill-rule:nonzero;fill:rgb(100%,49.803922%,31.372549%);fill-opacity:1;stroke-width:0.75;stroke-linecap:round;stroke-linejoin:round;stroke:rgb(100%,49.803922%,31.372549%);stroke-opacity:1;stroke-miterlimit:10;" d="M 377.785156 380.058594 C 377.785156 381.976562 374.902344 381.976562 374.902344 380.058594 C 374.902344 378.136719 377.785156 378.136719 377.785156 380.058594 "/>
<path style="fill-rule:nonzero;fill:rgb(100%,49.803922%,31.372549%);fill-opacity:1;stroke-width:0.75;stroke-linecap:round;stroke-linejoin:round;stroke:rgb(100%,49.803922%,31.372549%);stroke-opacity:1;stroke-miterlimit:10;" d="M 360.65625 105.035156 C 360.65625 106.957031 357.777344 106.957031 357.777344 105.035156 C 357.777344 103.117188 360.65625 103.117188 360.65625 105.035156 "/>
<path style="fill-rule:nonzero;fill:rgb(100%,49.803922%,31.372549%);fill-opacity:1;stroke-width:0.75;stroke-linecap:round;stroke-linejoin:round;stroke:rgb(100%,49.803922%,31.372549%);stroke-opacity:1;stroke-miterlimit:10;" d="M 441.082031 380.40625 C 441.082031 382.324219 438.203125 382.324219 438.203125 380.40625 C 438.203125 378.484375 441.082031 378.484375 441.082031 380.40625 "/>
<path style="fill-rule:nonzero;fill:rgb(100%,49.803922%,31.372549%);fill-opacity:1;stroke-width:0.75;stroke-linecap:round;stroke-linejoin:round;stroke:rgb(100%,49.803922%,31.372549%);stroke-opacity:1;stroke-miterlimit:10;" d="M 411.167969 183.964844 C 411.167969 185.886719 408.289062 185.886719 408.289062 183.964844 C 408.289062 182.046875 411.167969 182.046875 411.167969 183.964844 "/>
<path style="fill-rule:nonzero;fill:rgb(100%,49.803922%,31.372549%);fill-opacity:1;stroke-width:0.75;stroke-linecap:round;stroke-linejoin:round;stroke:rgb(100%,49.803922%,31.372549%);stroke-opacity:1;stroke-miterlimit:10;" d="M 447.390625 135.269531 C 447.390625 137.191406 444.511719 137.191406 444.511719 135.269531 C 444.511719 133.351562 447.390625 133.351562 447.390625 135.269531 "/>
<path style="fill-rule:nonzero;fill:rgb(100%,49.803922%,31.372549%);fill-opacity:1;stroke-width:0.75;stroke-linecap:round;stroke-linejoin:round;stroke:rgb(100%,49.803922%,31.372549%);stroke-opacity:1;stroke-miterlimit:10;" d="M 417.097656 168.609375 C 417.097656 170.53125 414.214844 170.53125 414.214844 168.609375 C 414.214844 166.691406 417.097656 166.691406 417.097656 168.609375 "/>
<path style="fill-rule:nonzero;fill:rgb(100%,49.803922%,31.372549%);fill-opacity:1;stroke-width:0.75;stroke-linecap:round;stroke-linejoin:round;stroke:rgb(100%,49.803922%,31.372549%);stroke-opacity:1;stroke-miterlimit:10;" d="M 67.382812 280.660156 C 67.382812 282.582031 64.5 282.582031 64.5 280.660156 C 64.5 278.742188 67.382812 278.742188 67.382812 280.660156 "/>
<path style="fill-rule:nonzero;fill:rgb(100%,49.803922%,31.372549%);fill-opacity:1;stroke-width:0.75;stroke-linecap:round;stroke-linejoin:round;stroke:rgb(100%,49.803922%,31.372549%);stroke-opacity:1;stroke-miterlimit:10;" d="M 294.734375 70.492188 C 294.734375 72.410156 291.855469 72.410156 291.855469 70.492188 C 291.855469 68.570312 294.734375 68.570312 294.734375 70.492188 "/>
<path style="fill-rule:nonzero;fill:rgb(100%,49.803922%,31.372549%);fill-opacity:1;stroke-width:0.75;stroke-linecap:round;stroke-linejoin:round;stroke:rgb(100%,49.803922%,31.372549%);stroke-opacity:1;stroke-miterlimit:10;" d="M 436.460938 264.289062 C 436.460938 266.207031 433.582031 266.207031 433.582031 264.289062 C 433.582031 262.367188 436.460938 262.367188 436.460938 264.289062 "/>
<path style="fill-rule:nonzero;fill:rgb(100%,49.803922%,31.372549%);fill-opacity:1;stroke-width:0.75;stroke-linecap:round;stroke-linejoin:round;stroke:rgb(100%,49.803922%,31.372549%);stroke-opacity:1;stroke-miterlimit:10;" d="M 235.464844 161.945312 C 235.464844 163.867188 232.582031 163.867188 232.582031 161.945312 C 232.582031 160.027344 235.464844 160.027344 235.464844 161.945312 "/>
<path style="fill-rule:nonzero;fill:rgb(100%,49.803922%,31.372549%);fill-opacity:1;stroke-width:0.75;stroke-linecap:round;stroke-linejoin:round;stroke:rgb(100%,49.803922%,31.372549%);stroke-opacity:1;stroke-miterlimit:10;" d="M 296.570312 487.097656 C 296.570312 489.019531 293.6875 489.019531 293.6875 487.097656 C 293.6875 485.179688 296.570312 485.179688 296.570312 487.097656 "/>
<path style="fill:none;stroke-width:0.75;stroke-linecap:round;stroke-linejoin:round;stroke:rgb(0%,0%,0%);stroke-opacity:1;stroke-miterlimit:10;" d="M 7.199219 517.800781 L 517.800781 517.800781 L 517.800781 7.199219 L 7.199219 7.199219 L 7.199219 517.800781 "/>
<path style="fill-rule:nonzero;fill:rgb(60%,19.607843%,80%);fill-opacity:1;stroke-width:0.75;stroke-linecap:round;stroke-linejoin:round;stroke:rgb(60%,19.607843%,80%);stroke-opacity:1;stroke-miterlimit:10;" d="M 199.910156 484.636719 C 199.910156 486.558594 197.03125 486.558594 197.03125 484.636719 C 197.03125 482.71875 199.910156 482.71875 199.910156 484.636719 "/>
<path style="fill-rule:nonzero;fill:rgb(60%,19.607843%,80%);fill-opacity:1;stroke-width:0.75;stroke-linecap:round;stroke-linejoin:round;stroke:rgb(60%,19.607843%,80%);stroke-opacity:1;stroke-miterlimit:10;" d="M 457.320312 141.84375 C 457.320312 143.765625 454.441406 143.765625 454.441406 141.84375 C 454.441406 139.921875 457.320312 139.921875 457.320312 141.84375 "/>
<path style="fill-rule:nonzero;fill:rgb(60%,19.607843%,80%);fill-opacity:1;stroke-width:0.75;stroke-linecap:round;stroke-linejoin:round;stroke:rgb(60%,19.607843%,80%);stroke-opacity:1;stroke-miterlimit:10;" d="M 160.246094 115.378906 C 160.246094 117.300781 157.367188 117.300781 157.367188 115.378906 C 157.367188 113.460938 160.246094 113.460938 160.246094 115.378906 "/>
<path style="fill-rule:nonzero;fill:rgb(60%,19.607843%,80%);fill-opacity:1;stroke-width:0.75;stroke-linecap:round;stroke-linejoin:round;stroke:rgb(60%,19.607843%,80%);stroke-opacity:1;stroke-miterlimit:10;" d="M 476.019531 246.222656 C 476.019531 248.144531 473.136719 248.144531 473.136719 246.222656 C 473.136719 244.304688 476.019531 244.304688 476.019531 246.222656 "/>
<path style="fill-rule:nonzero;fill:rgb(60%,19.607843%,80%);fill-opacity:1;stroke-width:0.75;stroke-linecap:round;stroke-linejoin:round;stroke:rgb(60%,19.607843%,80%);stroke-opacity:1;stroke-miterlimit:10;" d="M 459.375 174.554688 C 459.375 176.472656 456.492188 176.472656 456.492188 174.554688 C 456.492188 172.632812 459.375 172.632812 459.375 174.554688 "/>
<path style="fill-rule:nonzero;fill:rgb(60%,19.607843%,80%);fill-opacity:1;stroke-width:0.75;stroke-linecap:round;stroke-linejoin:round;stroke:rgb(60%,19.607843%,80%);stroke-opacity:1;stroke-miterlimit:10;" d="M 487.257812 12.585938 C 487.257812 14.503906 484.378906 14.503906 484.378906 12.585938 C 484.378906 10.664062 487.257812 10.664062 487.257812 12.585938 "/>
<path style="fill-rule:nonzero;fill:rgb(60%,19.607843%,80%);fill-opacity:1;stroke-width:0.75;stroke-linecap:round;stroke-linejoin:round;stroke:rgb(60%,19.607843%,80%);stroke-opacity:1;stroke-miterlimit:10;" d="M 407.371094 396.554688 C 407.371094 398.476562 404.492188 398.476562 404.492188 396.554688 C 404.492188 394.636719 407.371094 394.636719 407.371094 396.554688 "/>
<path style="fill-rule:nonzero;fill:rgb(60%,19.607843%,80%);fill-opacity:1;stroke-width:0.75;stroke-linecap:round;stroke-linejoin:round;stroke:rgb(60%,19.607843%,80%);stroke-opacity:1;stroke-miterlimit:10;" d="M 237.367188 306.546875 C 237.367188 308.464844 234.484375 308.464844 234.484375 306.546875 C 234.484375 304.625 237.367188 304.625 237.367188 306.546875 "/>
<path style="fill-rule:nonzero;fill:rgb(60%,19.607843%,80%);fill-opacity:1;stroke-width:0.75;stroke-linecap:round;stroke-linejoin:round;stroke:rgb(60%,19.607843%,80%);stroke-opacity:1;stroke-miterlimit:10;" d="M 317.148438 89.882812 C 317.148438 91.800781 314.269531 91.800781 314.269531 89.882812 C 314.269531 87.960938 317.148438 87.960938 317.148438 89.882812 "/>
<path style="fill-rule:nonzero;fill:rgb(60%,19.607843%,80%);fill-opacity:1;stroke-width:0.75;stroke-linecap:round;stroke-linejoin:round;stroke:rgb(60%,19.607843%,80%);stroke-opacity:1;stroke-miterlimit:10;" d="M 38.996094 310.277344 C 38.996094 312.195312 36.117188 312.195312 36.117188 310.277344 C 36.117188 308.355469 38.996094 308.355469 38.996094 310.277344 "/>
<path style="fill-rule:nonzero;fill:rgb(60%,19.607843%,80%);fill-opacity:1;stroke-width:0.75;stroke-linecap:round;stroke-linejoin:round;stroke:rgb(60%,19.607843%,80%);stroke-opacity:1;stroke-miterlimit:10;" d="M 65.414062 24.503906 C 65.414062 26.425781 62.535156 26.425781 62.535156 24.503906 C 62.535156 22.585938 65.414062 22.585938 65.414062 24.503906 "/>
<path style="fill-rule:nonzero;fill:rgb(60%,19.607843%,80%);fill-opacity:1;stroke-width:0.75;stroke-linecap:round;stroke-linejoin:round;stroke:rgb(60%,19.607843%,80%);stroke-opacity:1;stroke-miterlimit:10;" d="M 336.132812 42.003906 C 336.132812 43.921875 333.253906 43.921875 333.253906 42.003906 C 333.253906 40.082031 336.132812 40.082031 336.132812 42.003906 "/>
<path style="fill-rule:nonzero;fill:rgb(60%,19.607843%,80%);fill-opacity:1;stroke-width:0.75;stroke-linecap:round;stroke-linejoin:round;stroke:rgb(60%,19.607843%,80%);stroke-opacity:1;stroke-miterlimit:10;" d="M 514.433594 492.921875 C 514.433594 494.839844 511.554688 494.839844 511.554688 492.921875 C 511.554688 491 514.433594 491 514.433594 492.921875 "/>
<path style="fill-rule:nonzero;fill:rgb(60%,19.607843%,80%);fill-opacity:1;stroke-width:0.75;stroke-linecap:round;stroke-linejoin:round;stroke:rgb(60%,19.607843%,80%);stroke-opacity:1;stroke-miterlimit:10;" d="M 129.347656 379.464844 C 129.347656 381.386719 126.46875 381.386719 126.46875 379.464844 C 126.46875 377.546875 129.347656 377.546875 129.347656 379.464844 "/>
<path style="fill-rule:nonzero;fill:rgb(60%,19.607843%,80%);fill-opacity:1;stroke-width:0.75;stroke-linecap:round;stroke-linejoin:round;stroke:rgb(60%,19.607843%,80%);stroke-opacity:1;stroke-miterlimit:10;" d="M 429.875 68.40625 C 429.875 70.324219 426.996094 70.324219 426.996094 68.40625 C 426.996094 66.484375 429.875 66.484375 429.875 68.40625 "/>
<path style="fill-rule:nonzero;fill:rgb(60%,19.607843%,80%);fill-opacity:1;stroke-width:0.75;stroke-linecap:round;stroke-linejoin:round;stroke:rgb(60%,19.607843%,80%);stroke-opacity:1;stroke-miterlimit:10;" d="M 215.308594 283.09375 C 215.308594 285.011719 212.429688 285.011719 212.429688 283.09375 C 212.429688 281.171875 215.308594 281.171875 215.308594 283.09375 "/>
<path style="fill-rule:nonzero;fill:rgb(60%,19.607843%,80%);fill-opacity:1;stroke-width:0.75;stroke-linecap:round;stroke-linejoin:round;stroke:rgb(60%,19.607843%,80%);stroke-opacity:1;stroke-miterlimit:10;" d="M 462.226562 60.949219 C 462.226562 62.867188 459.34375 62.867188 459.34375 60.949219 C 459.34375 59.027344 462.226562 59.027344 462.226562 60.949219 "/>
<path style="fill-rule:nonzero;fill:rgb(60%,19.607843%,80%);fill-opacity:1;stroke-width:0.75;stroke-linecap:round;stroke-linejoin:round;stroke:rgb(60%,19.607843%,80%);stroke-opacity:1;stroke-miterlimit:10;" d="M 463.402344 485.246094 C 463.402344 487.164062 460.519531 487.164062 460.519531 485.246094 C 460.519531 483.324219 463.402344 483.324219 463.402344 485.246094 "/>
<path style="fill-rule:nonzero;fill:rgb(60%,19.607843%,80%);fill-opacity:1;stroke-width:0.75;stroke-linecap:round;stroke-linejoin:round;stroke:rgb(60%,19.607843%,80%);stroke-opacity:1;stroke-miterlimit:10;" d="M 41.375 221.953125 C 41.375 223.875 38.492188 223.875 38.492188 221.953125 C 38.492188 220.03125 41.375 220.03125 41.375 221.953125 "/>
<path style="fill-rule:nonzero;fill:rgb(60%,19.607843%,80%);fill-opacity:1;stroke-width:0.75;stroke-linecap:round;stroke-linejoin:round;stroke:rgb(60%,19.607843%,80%);stroke-opacity:1;stroke-miterlimit:10;" d="M 481.550781 67.683594 C 481.550781 69.605469 478.671875 69.605469 478.671875 67.683594 C 478.671875 65.765625 481.550781 65.765625 481.550781 67.683594 "/>
<path style="fill-rule:nonzero;fill:rgb(60%,19.607843%,80%);fill-opacity:1;stroke-width:0.75;stroke-linecap:round;stroke-linejoin:round;stroke:rgb(60%,19.607843%,80%);stroke-opacity:1;stroke-miterlimit:10;" d="M 228.15625 348.875 C 228.15625 350.792969 225.277344 350.792969 225.277344 348.875 C 225.277344 346.953125 228.15625 346.953125 228.15625 348.875 "/>
<path style="fill-rule:nonzero;fill:rgb(60%,19.607843%,80%);fill-opacity:1;stroke-width:0.75;stroke-linecap:round;stroke-linejoin:round;stroke:rgb(60%,19.607843%,80%);stroke-opacity:1;stroke-miterlimit:10;" d="M 42.882812 221.039062 C 42.882812 222.960938 40.003906 222.960938 40.003906 221.039062 C 40.003906 219.121094 42.882812 219.121094 42.882812 221.039062 "/>
<path style="fill-rule:nonzero;fill:rgb(60%,19.607843%,80%);fill-opacity:1;stroke-width:0.75;stroke-linecap:round;stroke-linejoin:round;stroke:rgb(60%,19.607843%,80%);stroke-opacity:1;stroke-miterlimit:10;" d="M 407.265625 429.488281 C 407.265625 431.410156 404.386719 431.410156 404.386719 429.488281 C 404.386719 427.570312 407.265625 427.570312 407.265625 429.488281 "/>
<path style="fill-rule:nonzero;fill:rgb(60%,19.607843%,80%);fill-opacity:1;stroke-width:0.75;stroke-linecap:round;stroke-linejoin:round;stroke:rgb(60%,19.607843%,80%);stroke-opacity:1;stroke-miterlimit:10;" d="M 484.046875 48.066406 C 484.046875 49.988281 481.167969 49.988281 481.167969 48.066406 C 481.167969 46.148438 484.046875 46.148438 484.046875 48.066406 "/>
<path style="fill-rule:nonzero;fill:rgb(60%,19.607843%,80%);fill-opacity:1;stroke-width:0.75;stroke-linecap:round;stroke-linejoin:round;stroke:rgb(60%,19.607843%,80%);stroke-opacity:1;stroke-miterlimit:10;" d="M 344.867188 403.039062 C 344.867188 404.957031 341.988281 404.957031 341.988281 403.039062 C 341.988281 401.117188 344.867188 401.117188 344.867188 403.039062 "/>
<path style="fill-rule:nonzero;fill:rgb(60%,19.607843%,80%);fill-opacity:1;stroke-width:0.75;stroke-linecap:round;stroke-linejoin:round;stroke:rgb(60%,19.607843%,80%);stroke-opacity:1;stroke-miterlimit:10;" d="M 250.546875 205.292969 C 250.546875 207.210938 247.667969 207.210938 247.667969 205.292969 C 247.667969 203.371094 250.546875 203.371094 250.546875 205.292969 "/>
<path style="fill-rule:nonzero;fill:rgb(60%,19.607843%,80%);fill-opacity:1;stroke-width:0.75;stroke-linecap:round;stroke-linejoin:round;stroke:rgb(60%,19.607843%,80%);stroke-opacity:1;stroke-miterlimit:10;" d="M 382.851562 367.570312 C 382.851562 369.488281 379.96875 369.488281 379.96875 367.570312 C 379.96875 365.648438 382.851562 365.648438 382.851562 367.570312 "/>
<path style="fill-rule:nonzero;fill:rgb(60%,19.607843%,80%);fill-opacity:1;stroke-width:0.75;stroke-linecap:round;stroke-linejoin:round;stroke:rgb(60%,19.607843%,80%);stroke-opacity:1;stroke-miterlimit:10;" d="M 262.101562 172.027344 C 262.101562 173.949219 259.21875 173.949219 259.21875 172.027344 C 259.21875 170.109375 262.101562 170.109375 262.101562 172.027344 "/>
<path style="fill-rule:nonzero;fill:rgb(60%,19.607843%,80%);fill-opacity:1;stroke-width:0.75;stroke-linecap:round;stroke-linejoin:round;stroke:rgb(60%,19.607843%,80%);stroke-opacity:1;stroke-miterlimit:10;" d="M 379.820312 486.953125 C 379.820312 488.875 376.941406 488.875 376.941406 486.953125 C 376.941406 485.035156 379.820312 485.035156 379.820312 486.953125 "/>
<path style="fill-rule:nonzero;fill:rgb(60%,19.607843%,80%);fill-opacity:1;stroke-width:0.75;stroke-linecap:round;stroke-linejoin:round;stroke:rgb(60%,19.607843%,80%);stroke-opacity:1;stroke-miterlimit:10;" d="M 334.660156 86.953125 C 334.660156 88.875 331.78125 88.875 331.78125 86.953125 C 331.78125 85.035156 334.660156 85.035156 334.660156 86.953125 "/>
<path style="fill-rule:nonzero;fill:rgb(60%,19.607843%,80%);fill-opacity:1;stroke-width:0.75;stroke-linecap:round;stroke-linejoin:round;stroke:rgb(60%,19.607843%,80%);stroke-opacity:1;stroke-miterlimit:10;" d="M 189.019531 369.085938 C 189.019531 371.003906 186.140625 371.003906 186.140625 369.085938 C 186.140625 367.164062 189.019531 367.164062 189.019531 369.085938 "/>
<path style="fill-rule:nonzero;fill:rgb(60%,19.607843%,80%);fill-opacity:1;stroke-width:0.75;stroke-linecap:round;stroke-linejoin:round;stroke:rgb(60%,19.607843%,80%);stroke-opacity:1;stroke-miterlimit:10;" d="M 331.84375 450.308594 C 331.84375 452.226562 328.960938 452.226562 328.960938 450.308594 C 328.960938 448.386719 331.84375 448.386719 331.84375 450.308594 "/>
<path style="fill-rule:nonzero;fill:rgb(60%,19.607843%,80%);fill-opacity:1;stroke-width:0.75;stroke-linecap:round;stroke-linejoin:round;stroke:rgb(60%,19.607843%,80%);stroke-opacity:1;stroke-miterlimit:10;" d="M 222.832031 86.394531 C 222.832031 88.316406 219.953125 88.316406 219.953125 86.394531 C 219.953125 84.476562 222.832031 84.476562 222.832031 86.394531 "/>
<path style="fill-rule:nonzero;fill:rgb(60%,19.607843%,80%);fill-opacity:1;stroke-width:0.75;stroke-linecap:round;stroke-linejoin:round;stroke:rgb(60%,19.607843%,80%);stroke-opacity:1;stroke-miterlimit:10;" d="M 77.269531 283.273438 C 77.269531 285.195312 74.390625 285.195312 74.390625 283.273438 C 74.390625 281.355469 77.269531 281.355469 77.269531 283.273438 "/>
<path style="fill-rule:nonzero;fill:rgb(60%,19.607843%,80%);fill-opacity:1;stroke-width:0.75;stroke-linecap:round;stroke-linejoin:round;stroke:rgb(60%,19.607843%,80%);stroke-opacity:1;stroke-miterlimit:10;" d="M 113.558594 385.632812 C 113.558594 387.554688 110.679688 387.554688 110.679688 385.632812 C 110.679688 383.714844 113.558594 383.714844 113.558594 385.632812 "/>
<path style="fill-rule:nonzero;fill:rgb(60%,19.607843%,80%);fill-opacity:1;stroke-width:0.75;stroke-linecap:round;stroke-linejoin:round;stroke:rgb(60%,19.607843%,80%);stroke-opacity:1;stroke-miterlimit:10;" d="M 194.496094 198.328125 C 194.496094 200.246094 191.613281 200.246094 191.613281 198.328125 C 191.613281 196.40625 194.496094 196.40625 194.496094 198.328125 "/>
<path style="fill-rule:nonzero;fill:rgb(60%,19.607843%,80%);fill-opacity:1;stroke-width:0.75;stroke-linecap:round;stroke-linejoin:round;stroke:rgb(60%,19.607843%,80%);stroke-opacity:1;stroke-miterlimit:10;" d="M 447.675781 36.0625 C 447.675781 37.984375 444.796875 37.984375 444.796875 36.0625 C 444.796875 34.144531 447.675781 34.144531 447.675781 36.0625 "/>
<path style="fill-rule:nonzero;fill:rgb(60%,19.607843%,80%);fill-opacity:1;stroke-width:0.75;stroke-linecap:round;stroke-linejoin:round;stroke:rgb(60%,19.607843%,80%);stroke-opacity:1;stroke-miterlimit:10;" d="M 278.527344 197.203125 C 278.527344 199.121094 275.648438 199.121094 275.648438 197.203125 C 275.648438 195.28125 278.527344 195.28125 278.527344 197.203125 "/>
<path style="fill-rule:nonzero;fill:rgb(60%,19.607843%,80%);fill-opacity:1;stroke-width:0.75;stroke-linecap:round;stroke-linejoin:round;stroke:rgb(60%,19.607843%,80%);stroke-opacity:1;stroke-miterlimit:10;" d="M 39.746094 261.207031 C 39.746094 263.125 36.867188 263.125 36.867188 261.207031 C 36.867188 259.285156 39.746094 259.285156 39.746094 261.207031 "/>
<path style="fill-rule:nonzero;fill:rgb(60%,19.607843%,80%);fill-opacity:1;stroke-width:0.75;stroke-linecap:round;stroke-linejoin:round;stroke:rgb(60%,19.607843%,80%);stroke-opacity:1;stroke-miterlimit:10;" d="M 434.570312 303.398438 C 434.570312 305.316406 431.691406 305.316406 431.691406 303.398438 C 431.691406 301.476562 434.570312 301.476562 434.570312 303.398438 "/>
<path style="fill-rule:nonzero;fill:rgb(60%,19.607843%,80%);fill-opacity:1;stroke-width:0.75;stroke-linecap:round;stroke-linejoin:round;stroke:rgb(60%,19.607843%,80%);stroke-opacity:1;stroke-miterlimit:10;" d="M 217.222656 229.882812 C 217.222656 231.804688 214.339844 231.804688 214.339844 229.882812 C 214.339844 227.964844 217.222656 227.964844 217.222656 229.882812 "/>
<path style="fill-rule:nonzero;fill:rgb(60%,19.607843%,80%);fill-opacity:1;stroke-width:0.75;stroke-linecap:round;stroke-linejoin:round;stroke:rgb(60%,19.607843%,80%);stroke-opacity:1;stroke-miterlimit:10;" d="M 163.972656 398.542969 C 163.972656 400.460938 161.09375 400.460938 161.09375 398.542969 C 161.09375 396.621094 163.972656 396.621094 163.972656 398.542969 "/>
<path style="fill-rule:nonzero;fill:rgb(60%,19.607843%,80%);fill-opacity:1;stroke-width:0.75;stroke-linecap:round;stroke-linejoin:round;stroke:rgb(60%,19.607843%,80%);stroke-opacity:1;stroke-miterlimit:10;" d="M 413.527344 162.234375 C 413.527344 164.15625 410.648438 164.15625 410.648438 162.234375 C 410.648438 160.316406 413.527344 160.316406 413.527344 162.234375 "/>
<path style="fill-rule:nonzero;fill:rgb(60%,19.607843%,80%);fill-opacity:1;stroke-width:0.75;stroke-linecap:round;stroke-linejoin:round;stroke:rgb(60%,19.607843%,80%);stroke-opacity:1;stroke-miterlimit:10;" d="M 273.378906 356.828125 C 273.378906 358.746094 270.5 358.746094 270.5 356.828125 C 270.5 354.90625 273.378906 354.90625 273.378906 356.828125 "/>
<path style="fill-rule:nonzero;fill:rgb(60%,19.607843%,80%);fill-opacity:1;stroke-width:0.75;stroke-linecap:round;stroke-linejoin:round;stroke:rgb(60%,19.607843%,80%);stroke-opacity:1;stroke-miterlimit:10;" d="M 231.003906 410.671875 C 231.003906 412.59375 228.121094 412.59375 228.121094 410.671875 C 228.121094 408.753906 231.003906 408.753906 231.003906 410.671875 "/>
<path style="fill-rule:nonzero;fill:rgb(60%,19.607843%,80%);fill-opacity:1;stroke-width:0.75;stroke-linecap:round;stroke-linejoin:round;stroke:rgb(60%,19.607843%,80%);stroke-opacity:1;stroke-miterlimit:10;" d="M 146.015625 157.40625 C 146.015625 159.324219 143.136719 159.324219 143.136719 157.40625 C 143.136719 155.484375 146.015625 155.484375 146.015625 157.40625 "/>
<path style="fill-rule:nonzero;fill:rgb(60%,19.607843%,80%);fill-opacity:1;stroke-width:0.75;stroke-linecap:round;stroke-linejoin:round;stroke:rgb(60%,19.607843%,80%);stroke-opacity:1;stroke-miterlimit:10;" d="M 479.410156 388.417969 C 479.410156 390.339844 476.527344 390.339844 476.527344 388.417969 C 476.527344 386.5 479.410156 386.5 479.410156 388.417969 "/>
<path style="fill-rule:nonzero;fill:rgb(60%,19.607843%,80%);fill-opacity:1;stroke-width:0.75;stroke-linecap:round;stroke-linejoin:round;stroke:rgb(60%,19.607843%,80%);stroke-opacity:1;stroke-miterlimit:10;" d="M 310.351562 315.96875 C 310.351562 317.890625 307.472656 317.890625 307.472656 315.96875 C 307.472656 314.050781 310.351562 314.050781 310.351562 315.96875 "/>
<path style="fill-rule:nonzero;fill:rgb(60%,19.607843%,80%);fill-opacity:1;stroke-width:0.75;stroke-linecap:round;stroke-linejoin:round;stroke:rgb(60%,19.607843%,80%);stroke-opacity:1;stroke-miterlimit:10;" d="M 417.597656 331.550781 C 417.597656 333.46875 414.71875 333.46875 414.71875 331.550781 C 414.71875 329.628906 417.597656 329.628906 417.597656 331.550781 "/>
<path style="fill-rule:nonzero;fill:rgb(60%,19.607843%,80%);fill-opacity:1;stroke-width:0.75;stroke-linecap:round;stroke-linejoin:round;stroke:rgb(60%,19.607843%,80%);stroke-opacity:1;stroke-miterlimit:10;" d="M 197.539062 315.636719 C 197.539062 317.554688 194.65625 317.554688 194.65625 315.636719 C 194.65625 313.714844 197.539062 313.714844 197.539062 315.636719 "/>
<path style="fill-rule:nonzero;fill:rgb(60%,19.607843%,80%);fill-opacity:1;stroke-width:0.75;stroke-linecap:round;stroke-linejoin:round;stroke:rgb(60%,19.607843%,80%);stroke-opacity:1;stroke-miterlimit:10;" d="M 121.449219 25.984375 C 121.449219 27.90625 118.570312 27.90625 118.570312 25.984375 C 118.570312 24.066406 121.449219 24.066406 121.449219 25.984375 "/>
<path style="fill-rule:nonzero;fill:rgb(60%,19.607843%,80%);fill-opacity:1;stroke-width:0.75;stroke-linecap:round;stroke-linejoin:round;stroke:rgb(60%,19.607843%,80%);stroke-opacity:1;stroke-miterlimit:10;" d="M 231.097656 59.960938 C 231.097656 61.878906 228.21875 61.878906 228.21875 59.960938 C 228.21875 58.039062 231.097656 58.039062 231.097656 59.960938 "/>
<path style="fill-rule:nonzero;fill:rgb(60%,19.607843%,80%);fill-opacity:1;stroke-width:0.75;stroke-linecap:round;stroke-linejoin:round;stroke:rgb(60%,19.607843%,80%);stroke-opacity:1;stroke-miterlimit:10;" d="M 259.511719 170.839844 C 259.511719 172.761719 256.628906 172.761719 256.628906 170.839844 C 256.628906 168.921875 259.511719 168.921875 259.511719 170.839844 "/>
<path style="fill-rule:nonzero;fill:rgb(60%,19.607843%,80%);fill-opacity:1;stroke-width:0.75;stroke-linecap:round;stroke-linejoin:round;stroke:rgb(60%,19.607843%,80%);stroke-opacity:1;stroke-miterlimit:10;" d="M 79.992188 15.917969 C 79.992188 17.835938 77.113281 17.835938 77.113281 15.917969 C 77.113281 13.996094 79.992188 13.996094 79.992188 15.917969 "/>
<path style="fill-rule:nonzero;fill:rgb(60%,19.607843%,80%);fill-opacity:1;stroke-width:0.75;stroke-linecap:round;stroke-linejoin:round;stroke:rgb(60%,19.607843%,80%);stroke-opacity:1;stroke-miterlimit:10;" d="M 273.410156 269.832031 C 273.410156 271.753906 270.53125 271.753906 270.53125 269.832031 C 270.53125 267.914062 273.410156 267.914062 273.410156 269.832031 "/>
<path style="fill-rule:nonzero;fill:rgb(60%,19.607843%,80%);fill-opacity:1;stroke-width:0.75;stroke-linecap:round;stroke-linejoin:round;stroke:rgb(60%,19.607843%,80%);stroke-opacity:1;stroke-miterlimit:10;" d="M 210.777344 182.210938 C 210.777344 184.128906 207.898438 184.128906 207.898438 182.210938 C 207.898438 180.289062 210.777344 180.289062 210.777344 182.210938 "/>
<path style="fill-rule:nonzero;fill:rgb(60%,19.607843%,80%);fill-opacity:1;stroke-width:0.75;stroke-linecap:round;stroke-linejoin:round;stroke:rgb(60%,19.607843%,80%);stroke-opacity:1;stroke-miterlimit:10;" d="M 322.949219 431.070312 C 322.949219 432.988281 320.070312 432.988281 320.070312 431.070312 C 320.070312 429.148438 322.949219 429.148438 322.949219 431.070312 "/>
<path style="fill-rule:nonzero;fill:rgb(60%,19.607843%,80%);fill-opacity:1;stroke-width:0.75;stroke-linecap:round;stroke-linejoin:round;stroke:rgb(60%,19.607843%,80%);stroke-opacity:1;stroke-miterlimit:10;" d="M 331.011719 290.082031 C 331.011719 292.003906 328.128906 292.003906 328.128906 290.082031 C 328.128906 288.160156 331.011719 288.160156 331.011719 290.082031 "/>
<path style="fill-rule:nonzero;fill:rgb(60%,19.607843%,80%);fill-opacity:1;stroke-width:0.75;stroke-linecap:round;stroke-linejoin:round;stroke:rgb(60%,19.607843%,80%);stroke-opacity:1;stroke-miterlimit:10;" d="M 172.890625 268.46875 C 172.890625 270.386719 170.011719 270.386719 170.011719 268.46875 C 170.011719 266.546875 172.890625 266.546875 172.890625 268.46875 "/>
<path style="fill-rule:nonzero;fill:rgb(60%,19.607843%,80%);fill-opacity:1;stroke-width:0.75;stroke-linecap:round;stroke-linejoin:round;stroke:rgb(60%,19.607843%,80%);stroke-opacity:1;stroke-miterlimit:10;" d="M 473.574219 294.898438 C 473.574219 296.816406 470.695312 296.816406 470.695312 294.898438 C 470.695312 292.976562 473.574219 292.976562 473.574219 294.898438 "/>
<path style="fill-rule:nonzero;fill:rgb(60%,19.607843%,80%);fill-opacity:1;stroke-width:0.75;stroke-linecap:round;stroke-linejoin:round;stroke:rgb(60%,19.607843%,80%);stroke-opacity:1;stroke-miterlimit:10;" d="M 158.199219 176.933594 C 158.199219 178.855469 155.316406 178.855469 155.316406 176.933594 C 155.316406 175.015625 158.199219 175.015625 158.199219 176.933594 "/>
<path style="fill-rule:nonzero;fill:rgb(60%,19.607843%,80%);fill-opacity:1;stroke-width:0.75;stroke-linecap:round;stroke-linejoin:round;stroke:rgb(60%,19.607843%,80%);stroke-opacity:1;stroke-miterlimit:10;" d="M 357.425781 269.324219 C 357.425781 271.242188 354.542969 271.242188 354.542969 269.324219 C 354.542969 267.402344 357.425781 267.402344 357.425781 269.324219 "/>
<path style="fill-rule:nonzero;fill:rgb(60%,19.607843%,80%);fill-opacity:1;stroke-width:0.75;stroke-linecap:round;stroke-linejoin:round;stroke:rgb(60%,19.607843%,80%);stroke-opacity:1;stroke-miterlimit:10;" d="M 220.648438 320.203125 C 220.648438 322.121094 217.765625 322.121094 217.765625 320.203125 C 217.765625 318.28125 220.648438 318.28125 220.648438 320.203125 "/>
<path style="fill-rule:nonzero;fill:rgb(60%,19.607843%,80%);fill-opacity:1;stroke-width:0.75;stroke-linecap:round;stroke-linejoin:round;stroke:rgb(60%,19.607843%,80%);stroke-opacity:1;stroke-miterlimit:10;" d="M 189.6875 403.316406 C 189.6875 405.238281 186.808594 405.238281 186.808594 403.316406 C 186.808594 401.398438 189.6875 401.398438 189.6875 403.316406 "/>
<path style="fill-rule:nonzero;fill:rgb(60%,19.607843%,80%);fill-opacity:1;stroke-width:0.75;stroke-linecap:round;stroke-linejoin:round;stroke:rgb(60%,19.607843%,80%);stroke-opacity:1;stroke-miterlimit:10;" d="M 426.992188 404.125 C 426.992188 406.046875 424.113281 406.046875 424.113281 404.125 C 424.113281 402.207031 426.992188 402.207031 426.992188 404.125 "/>
<path style="fill-rule:nonzero;fill:rgb(60%,19.607843%,80%);fill-opacity:1;stroke-width:0.75;stroke-linecap:round;stroke-linejoin:round;stroke:rgb(60%,19.607843%,80%);stroke-opacity:1;stroke-miterlimit:10;" d="M 498.925781 71.265625 C 498.925781 73.183594 496.042969 73.183594 496.042969 71.265625 C 496.042969 69.34375 498.925781 69.34375 498.925781 71.265625 "/>
<path style="fill-rule:nonzero;fill:rgb(60%,19.607843%,80%);fill-opacity:1;stroke-width:0.75;stroke-linecap:round;stroke-linejoin:round;stroke:rgb(60%,19.607843%,80%);stroke-opacity:1;stroke-miterlimit:10;" d="M 451.5 411.597656 C 451.5 413.519531 448.621094 413.519531 448.621094 411.597656 C 448.621094 409.679688 451.5 409.679688 451.5 411.597656 "/>
<path style="fill-rule:nonzero;fill:rgb(60%,19.607843%,80%);fill-opacity:1;stroke-width:0.75;stroke-linecap:round;stroke-linejoin:round;stroke:rgb(60%,19.607843%,80%);stroke-opacity:1;stroke-miterlimit:10;" d="M 260.632812 324.503906 C 260.632812 326.425781 257.753906 326.425781 257.753906 324.503906 C 257.753906 322.585938 260.632812 322.585938 260.632812 324.503906 "/>
<path style="fill-rule:nonzero;fill:rgb(60%,19.607843%,80%);fill-opacity:1;stroke-width:0.75;stroke-linecap:round;stroke-linejoin:round;stroke:rgb(60%,19.607843%,80%);stroke-opacity:1;stroke-miterlimit:10;" d="M 160.386719 293.949219 C 160.386719 295.867188 157.507812 295.867188 157.507812 293.949219 C 157.507812 292.027344 160.386719 292.027344 160.386719 293.949219 "/>
<path style="fill-rule:nonzero;fill:rgb(60%,19.607843%,80%);fill-opacity:1;stroke-width:0.75;stroke-linecap:round;stroke-linejoin:round;stroke:rgb(60%,19.607843%,80%);stroke-opacity:1;stroke-miterlimit:10;" d="M 431.921875 222.5 C 431.921875 224.417969 429.042969 224.417969 429.042969 222.5 C 429.042969 220.578125 431.921875 220.578125 431.921875 222.5 "/>
<path style="fill-rule:nonzero;fill:rgb(60%,19.607843%,80%);fill-opacity:1;stroke-width:0.75;stroke-linecap:round;stroke-linejoin:round;stroke:rgb(60%,19.607843%,80%);stroke-opacity:1;stroke-miterlimit:10;" d="M 281.933594 186.089844 C 281.933594 188.011719 279.054688 188.011719 279.054688 186.089844 C 279.054688 184.171875 281.933594 184.171875 281.933594 186.089844 "/>
<path style="fill-rule:nonzero;fill:rgb(60%,19.607843%,80%);fill-opacity:1;stroke-width:0.75;stroke-linecap:round;stroke-linejoin:round;stroke:rgb(60%,19.607843%,80%);stroke-opacity:1;stroke-miterlimit:10;" d="M 367.027344 90.808594 C 367.027344 92.726562 364.148438 92.726562 364.148438 90.808594 C 364.148438 88.886719 367.027344 88.886719 367.027344 90.808594 "/>
<path style="fill-rule:nonzero;fill:rgb(60%,19.607843%,80%);fill-opacity:1;stroke-width:0.75;stroke-linecap:round;stroke-linejoin:round;stroke:rgb(60%,19.607843%,80%);stroke-opacity:1;stroke-miterlimit:10;" d="M 104.449219 88.433594 C 104.449219 90.351562 101.570312 90.351562 101.570312 88.433594 C 101.570312 86.511719 104.449219 86.511719 104.449219 88.433594 "/>
<path style="fill-rule:nonzero;fill:rgb(60%,19.607843%,80%);fill-opacity:1;stroke-width:0.75;stroke-linecap:round;stroke-linejoin:round;stroke:rgb(60%,19.607843%,80%);stroke-opacity:1;stroke-miterlimit:10;" d="M 510.601562 448.996094 C 510.601562 450.914062 507.71875 450.914062 507.71875 448.996094 C 507.71875 447.074219 510.601562 447.074219 510.601562 448.996094 "/>
<path style="fill-rule:nonzero;fill:rgb(60%,19.607843%,80%);fill-opacity:1;stroke-width:0.75;stroke-linecap:round;stroke-linejoin:round;stroke:rgb(60%,19.607843%,80%);stroke-opacity:1;stroke-miterlimit:10;" d="M 136.511719 451.191406 C 136.511719 453.113281 133.632812 453.113281 133.632812 451.191406 C 133.632812 449.273438 136.511719 449.273438 136.511719 451.191406 "/>
<path style="fill-rule:nonzero;fill:rgb(60%,19.607843%,80%);fill-opacity:1;stroke-width:0.75;stroke-linecap:round;stroke-linejoin:round;stroke:rgb(60%,19.607843%,80%);stroke-opacity:1;stroke-miterlimit:10;" d="M 52.691406 416.140625 C 52.691406 418.058594 49.808594 418.058594 49.808594 416.140625 C 49.808594 414.21875 52.691406 414.21875 52.691406 416.140625 "/>
<path style="fill-rule:nonzero;fill:rgb(60%,19.607843%,80%);fill-opacity:1;stroke-width:0.75;stroke-linecap:round;stroke-linejoin:round;stroke:rgb(60%,19.607843%,80%);stroke-opacity:1;stroke-miterlimit:10;" d="M 159.105469 392.25 C 159.105469 394.171875 156.226562 394.171875 156.226562 392.25 C 156.226562 390.332031 159.105469 390.332031 159.105469 392.25 "/>
<path style="fill-rule:nonzero;fill:rgb(60%,19.607843%,80%);fill-opacity:1;stroke-width:0.75;stroke-linecap:round;stroke-linejoin:round;stroke:rgb(60%,19.607843%,80%);stroke-opacity:1;stroke-miterlimit:10;" d="M 199.160156 125.625 C 199.160156 127.542969 196.277344 127.542969 196.277344 125.625 C 196.277344 123.703125 199.160156 123.703125 199.160156 125.625 "/>
<path style="fill-rule:nonzero;fill:rgb(60%,19.607843%,80%);fill-opacity:1;stroke-width:0.75;stroke-linecap:round;stroke-linejoin:round;stroke:rgb(60%,19.607843%,80%);stroke-opacity:1;stroke-miterlimit:10;" d="M 72.949219 485.621094 C 72.949219 487.539062 70.070312 487.539062 70.070312 485.621094 C 70.070312 483.699219 72.949219 483.699219 72.949219 485.621094 "/>
<path style="fill-rule:nonzero;fill:rgb(60%,19.607843%,80%);fill-opacity:1;stroke-width:0.75;stroke-linecap:round;stroke-linejoin:round;stroke:rgb(60%,19.607843%,80%);stroke-opacity:1;stroke-miterlimit:10;" d="M 252.480469 466.710938 C 252.480469 468.632812 249.601562 468.632812 249.601562 466.710938 C 249.601562 464.789062 252.480469 464.789062 252.480469 466.710938 "/>
</g>
</svg>
