<?xml version="1.0" encoding="UTF-8"?>
<svg xmlns="http://www.w3.org/2000/svg" xmlns:xlink="http://www.w3.org/1999/xlink" width="374pt" height="374pt" viewBox="0 0 374 374" version="1.1">
<g id="surface11">
<rect x="0" y="0" width="374" height="374" style="fill:rgb(100%,100%,100%);fill-opacity:1;stroke:none;"/>
<path style="fill-rule:nonzero;fill:rgb(100%,49.803922%,31.372549%);fill-opacity:0.698039;stroke-width:0.75;stroke-linecap:round;stroke-linejoin:round;stroke:rgb(100%,49.803922%,31.372549%);stroke-opacity:0.698039;stroke-miterlimit:10;" d="M 281.917969 111.910156 C 281.917969 115.511719 276.515625 115.511719 276.515625 111.910156 C 276.515625 108.3125 281.917969 108.3125 281.917969 111.910156 "/>
<path style="fill-rule:nonzero;fill:rgb(100%,49.803922%,31.372549%);fill-opacity:0.698039;stroke-width:0.75;stroke-linecap:round;stroke-linejoin:round;stroke:rgb(100%,49.803922%,31.372549%);stroke-opacity:0.698039;stroke-miterlimit:10;" d="M 102.152344 266.570312 C 102.152344 270.171875 96.753906 270.171875 96.753906 266.570312 C 96.753906 262.972656 102.152344 262.972656 102.152344 266.570312 "/>
<path style="fill-rule:nonzero;fill:rgb(100%,49.803922%,31.372549%);fill-opacity:0.698039;stroke-width:0.75;stroke-linecap:round;stroke-linejoin:round;stroke:rgb(100%,49.803922%,31.372549%);stroke-opacity:0.698039;stroke-miterlimit:10;" d="M 95.519531 259.570312 C 95.519531 263.171875 90.121094 263.171875 90.121094 259.570312 C 90.121094 255.972656 95.519531 255.972656 95.519531 259.570312 "/>
<path style="fill-rule:nonzero;fill:rgb(100%,49.803922%,31.372549%);fill-opacity:0.698039;stroke-width:0.75;stroke-linecap:round;stroke-linejoin:round;stroke:rgb(100%,49.803922%,31.372549%);stroke-opacity:0.698039;stroke-miterlimit:10;" d="M 102.730469 267.128906 C 102.730469 270.726562 97.332031 270.726562 97.332031 267.128906 C 97.332031 263.527344 102.730469 263.527344 102.730469 267.128906 "/>
<path style="fill-rule:nonzero;fill:rgb(100%,49.803922%,31.372549%);fill-opacity:0.698039;stroke-width:0.75;stroke-linecap:round;stroke-linejoin:round;stroke:rgb(100%,49.803922%,31.372549%);stroke-opacity:0.698039;stroke-miterlimit:10;" d="M 268.0625 274.796875 C 268.0625 278.398438 262.664062 278.398438 262.664062 274.796875 C 262.664062 271.199219 268.0625 271.199219 268.0625 274.796875 "/>
<path style="fill-rule:nonzero;fill:rgb(100%,49.803922%,31.372549%);fill-opacity:0.698039;stroke-width:0.75;stroke-linecap:round;stroke-linejoin:round;stroke:rgb(100%,49.803922%,31.372549%);stroke-opacity:0.698039;stroke-miterlimit:10;" d="M 112.28125 275.363281 C 112.28125 278.960938 106.882812 278.960938 106.882812 275.363281 C 106.882812 271.761719 112.28125 271.761719 112.28125 275.363281 "/>
<path style="fill-rule:nonzero;fill:rgb(100%,49.803922%,31.372549%);fill-opacity:0.698039;stroke-width:0.75;stroke-linecap:round;stroke-linejoin:round;stroke:rgb(100%,49.803922%,31.372549%);stroke-opacity:0.698039;stroke-miterlimit:10;" d="M 311.511719 180.128906 C 311.511719 183.730469 306.113281 183.730469 306.113281 180.128906 C 306.113281 176.53125 311.511719 176.53125 311.511719 180.128906 "/>
<path style="fill-rule:nonzero;fill:rgb(100%,49.803922%,31.372549%);fill-opacity:0.698039;stroke-width:0.75;stroke-linecap:round;stroke-linejoin:round;stroke:rgb(100%,49.803922%,31.372549%);stroke-opacity:0.698039;stroke-miterlimit:10;" d="M 203.152344 73.101562 C 203.152344 76.699219 197.753906 76.699219 197.753906 73.101562 C 197.753906 69.5 203.152344 69.5 203.152344 73.101562 "/>
<path style="fill-rule:nonzero;fill:rgb(100%,49.803922%,31.372549%);fill-opacity:0.698039;stroke-width:0.75;stroke-linecap:round;stroke-linejoin:round;stroke:rgb(100%,49.803922%,31.372549%);stroke-opacity:0.698039;stroke-miterlimit:10;" d="M 128.46875 285.949219 C 128.46875 289.550781 123.066406 289.550781 123.066406 285.949219 C 123.066406 282.351562 128.46875 282.351562 128.46875 285.949219 "/>
<path style="fill-rule:nonzero;fill:rgb(100%,49.803922%,31.372549%);fill-opacity:0.698039;stroke-width:0.75;stroke-linecap:round;stroke-linejoin:round;stroke:rgb(100%,49.803922%,31.372549%);stroke-opacity:0.698039;stroke-miterlimit:10;" d="M 68.382812 197.203125 C 68.382812 200.804688 62.984375 200.804688 62.984375 197.203125 C 62.984375 193.601562 68.382812 193.601562 68.382812 197.203125 "/>
<path style="fill-rule:nonzero;fill:rgb(100%,49.803922%,31.372549%);fill-opacity:0.698039;stroke-width:0.75;stroke-linecap:round;stroke-linejoin:round;stroke:rgb(100%,49.803922%,31.372549%);stroke-opacity:0.698039;stroke-miterlimit:10;" d="M 147.5 294.386719 C 147.5 297.988281 142.101562 297.988281 142.101562 294.386719 C 142.101562 290.789062 147.5 290.789062 147.5 294.386719 "/>
<path style="fill-rule:nonzero;fill:rgb(100%,49.803922%,31.372549%);fill-opacity:0.698039;stroke-width:0.75;stroke-linecap:round;stroke-linejoin:round;stroke:rgb(100%,49.803922%,31.372549%);stroke-opacity:0.698039;stroke-miterlimit:10;" d="M 72.730469 218.898438 C 72.730469 222.5 67.332031 222.5 67.332031 218.898438 C 67.332031 215.300781 72.730469 215.300781 72.730469 218.898438 "/>
<path style="fill-rule:nonzero;fill:rgb(100%,49.803922%,31.372549%);fill-opacity:0.698039;stroke-width:0.75;stroke-linecap:round;stroke-linejoin:round;stroke:rgb(100%,49.803922%,31.372549%);stroke-opacity:0.698039;stroke-miterlimit:10;" d="M 164.914062 74.828125 C 164.914062 78.425781 159.515625 78.425781 159.515625 74.828125 C 159.515625 71.226562 164.914062 71.226562 164.914062 74.828125 "/>
<path style="fill-rule:nonzero;fill:rgb(100%,49.803922%,31.372549%);fill-opacity:0.698039;stroke-width:0.75;stroke-linecap:round;stroke-linejoin:round;stroke:rgb(100%,49.803922%,31.372549%);stroke-opacity:0.698039;stroke-miterlimit:10;" d="M 297.890625 239.964844 C 297.890625 243.566406 292.492188 243.566406 292.492188 239.964844 C 292.492188 236.367188 297.890625 236.367188 297.890625 239.964844 "/>
<path style="fill-rule:nonzero;fill:rgb(100%,49.803922%,31.372549%);fill-opacity:0.698039;stroke-width:0.75;stroke-linecap:round;stroke-linejoin:round;stroke:rgb(100%,49.803922%,31.372549%);stroke-opacity:0.698039;stroke-miterlimit:10;" d="M 157.777344 76.4375 C 157.777344 80.039062 152.378906 80.039062 152.378906 76.4375 C 152.378906 72.835938 157.777344 72.835938 157.777344 76.4375 "/>
<path style="fill-rule:nonzero;fill:rgb(100%,49.803922%,31.372549%);fill-opacity:0.698039;stroke-width:0.75;stroke-linecap:round;stroke-linejoin:round;stroke:rgb(100%,49.803922%,31.372549%);stroke-opacity:0.698039;stroke-miterlimit:10;" d="M 253.378906 284.703125 C 253.378906 288.304688 247.980469 288.304688 247.980469 284.703125 C 247.980469 281.105469 253.378906 281.105469 253.378906 284.703125 "/>
<path style="fill-rule:nonzero;fill:rgb(100%,49.803922%,31.372549%);fill-opacity:0.698039;stroke-width:0.75;stroke-linecap:round;stroke-linejoin:round;stroke:rgb(100%,49.803922%,31.372549%);stroke-opacity:0.698039;stroke-miterlimit:10;" d="M 162.304688 75.367188 C 162.304688 78.96875 156.902344 78.96875 156.902344 75.367188 C 156.902344 71.765625 162.304688 71.765625 162.304688 75.367188 "/>
<path style="fill-rule:nonzero;fill:rgb(100%,49.803922%,31.372549%);fill-opacity:0.698039;stroke-width:0.75;stroke-linecap:round;stroke-linejoin:round;stroke:rgb(100%,49.803922%,31.372549%);stroke-opacity:0.698039;stroke-miterlimit:10;" d="M 176.949219 73.050781 C 176.949219 76.652344 171.550781 76.652344 171.550781 73.050781 C 171.550781 69.453125 176.949219 69.453125 176.949219 73.050781 "/>
<path style="fill-rule:nonzero;fill:rgb(100%,49.803922%,31.372549%);fill-opacity:0.698039;stroke-width:0.75;stroke-linecap:round;stroke-linejoin:round;stroke:rgb(100%,49.803922%,31.372549%);stroke-opacity:0.698039;stroke-miterlimit:10;" d="M 237.015625 81.347656 C 237.015625 84.949219 231.617188 84.949219 231.617188 81.347656 C 231.617188 77.746094 237.015625 77.746094 237.015625 81.347656 "/>
<path style="fill-rule:nonzero;fill:rgb(100%,49.803922%,31.372549%);fill-opacity:0.698039;stroke-width:0.75;stroke-linecap:round;stroke-linejoin:round;stroke:rgb(100%,49.803922%,31.372549%);stroke-opacity:0.698039;stroke-miterlimit:10;" d="M 203.398438 73.125 C 203.398438 76.726562 198 76.726562 198 73.125 C 198 69.527344 203.398438 69.527344 203.398438 73.125 "/>
<path style="fill-rule:nonzero;fill:rgb(100%,49.803922%,31.372549%);fill-opacity:0.698039;stroke-width:0.75;stroke-linecap:round;stroke-linejoin:round;stroke:rgb(100%,49.803922%,31.372549%);stroke-opacity:0.698039;stroke-miterlimit:10;" d="M 140.261719 82.300781 C 140.261719 85.898438 134.863281 85.898438 134.863281 82.300781 C 134.863281 78.699219 140.261719 78.699219 140.261719 82.300781 "/>
<path style="fill-rule:nonzero;fill:rgb(100%,49.803922%,31.372549%);fill-opacity:0.698039;stroke-width:0.75;stroke-linecap:round;stroke-linejoin:round;stroke:rgb(100%,49.803922%,31.372549%);stroke-opacity:0.698039;stroke-miterlimit:10;" d="M 150.179688 78.632812 C 150.179688 82.234375 144.78125 82.234375 144.78125 78.632812 C 144.78125 75.035156 150.179688 75.035156 150.179688 78.632812 "/>
<path style="fill-rule:nonzero;fill:rgb(100%,49.803922%,31.372549%);fill-opacity:0.698039;stroke-width:0.75;stroke-linecap:round;stroke-linejoin:round;stroke:rgb(100%,49.803922%,31.372549%);stroke-opacity:0.698039;stroke-miterlimit:10;" d="M 255.753906 90.613281 C 255.753906 94.214844 250.355469 94.214844 250.355469 90.613281 C 250.355469 87.015625 255.753906 87.015625 255.753906 90.613281 "/>
<path style="fill-rule:nonzero;fill:rgb(100%,49.803922%,31.372549%);fill-opacity:0.698039;stroke-width:0.75;stroke-linecap:round;stroke-linejoin:round;stroke:rgb(100%,49.803922%,31.372549%);stroke-opacity:0.698039;stroke-miterlimit:10;" d="M 307.898438 158.476562 C 307.898438 162.074219 302.5 162.074219 302.5 158.476562 C 302.5 154.875 307.898438 154.875 307.898438 158.476562 "/>
<path style="fill-rule:nonzero;fill:rgb(100%,49.803922%,31.372549%);fill-opacity:0.698039;stroke-width:0.75;stroke-linecap:round;stroke-linejoin:round;stroke:rgb(100%,49.803922%,31.372549%);stroke-opacity:0.698039;stroke-miterlimit:10;" d="M 213.558594 74.605469 C 213.558594 78.207031 208.160156 78.207031 208.160156 74.605469 C 208.160156 71.007812 213.558594 71.007812 213.558594 74.605469 "/>
<path style="fill-rule:nonzero;fill:rgb(100%,49.803922%,31.372549%);fill-opacity:0.698039;stroke-width:0.75;stroke-linecap:round;stroke-linejoin:round;stroke:rgb(100%,49.803922%,31.372549%);stroke-opacity:0.698039;stroke-miterlimit:10;" d="M 235.117188 293.304688 C 235.117188 296.902344 229.71875 296.902344 229.71875 293.304688 C 229.71875 289.703125 235.117188 289.703125 235.117188 293.304688 "/>
<path style="fill-rule:nonzero;fill:rgb(100%,49.803922%,31.372549%);fill-opacity:0.698039;stroke-width:0.75;stroke-linecap:round;stroke-linejoin:round;stroke:rgb(100%,49.803922%,31.372549%);stroke-opacity:0.698039;stroke-miterlimit:10;" d="M 69.480469 205.375 C 69.480469 208.976562 64.082031 208.976562 64.082031 205.375 C 64.082031 201.773438 69.480469 201.773438 69.480469 205.375 "/>
<path style="fill-rule:nonzero;fill:rgb(100%,49.803922%,31.372549%);fill-opacity:0.698039;stroke-width:0.75;stroke-linecap:round;stroke-linejoin:round;stroke:rgb(100%,49.803922%,31.372549%);stroke-opacity:0.698039;stroke-miterlimit:10;" d="M 294.617188 245.480469 C 294.617188 249.082031 289.21875 249.082031 289.21875 245.480469 C 289.21875 241.878906 294.617188 241.878906 294.617188 245.480469 "/>
<path style="fill-rule:nonzero;fill:rgb(100%,49.803922%,31.372549%);fill-opacity:0.698039;stroke-width:0.75;stroke-linecap:round;stroke-linejoin:round;stroke:rgb(100%,49.803922%,31.372549%);stroke-opacity:0.698039;stroke-miterlimit:10;" d="M 249.445312 286.867188 C 249.445312 290.46875 244.046875 290.46875 244.046875 286.867188 C 244.046875 283.269531 249.445312 283.269531 249.445312 286.867188 "/>
<path style="fill-rule:nonzero;fill:rgb(100%,49.803922%,31.372549%);fill-opacity:0.698039;stroke-width:0.75;stroke-linecap:round;stroke-linejoin:round;stroke:rgb(100%,49.803922%,31.372549%);stroke-opacity:0.698039;stroke-miterlimit:10;" d="M 306.722656 154.46875 C 306.722656 158.070312 301.320312 158.070312 301.320312 154.46875 C 301.320312 150.871094 306.722656 150.871094 306.722656 154.46875 "/>
<path style="fill-rule:nonzero;fill:rgb(100%,49.803922%,31.372549%);fill-opacity:0.698039;stroke-width:0.75;stroke-linecap:round;stroke-linejoin:round;stroke:rgb(100%,49.803922%,31.372549%);stroke-opacity:0.698039;stroke-miterlimit:10;" d="M 72.503906 155.757812 C 72.503906 159.359375 67.105469 159.359375 67.105469 155.757812 C 67.105469 152.15625 72.503906 152.15625 72.503906 155.757812 "/>
<path style="fill-rule:nonzero;fill:rgb(100%,49.803922%,31.372549%);fill-opacity:0.698039;stroke-width:0.75;stroke-linecap:round;stroke-linejoin:round;stroke:rgb(100%,49.803922%,31.372549%);stroke-opacity:0.698039;stroke-miterlimit:10;" d="M 178.195312 72.933594 C 178.195312 76.535156 172.796875 76.535156 172.796875 72.933594 C 172.796875 69.332031 178.195312 69.332031 178.195312 72.933594 "/>
<path style="fill-rule:nonzero;fill:rgb(100%,49.803922%,31.372549%);fill-opacity:0.698039;stroke-width:0.75;stroke-linecap:round;stroke-linejoin:round;stroke:rgb(100%,49.803922%,31.372549%);stroke-opacity:0.698039;stroke-miterlimit:10;" d="M 148.75 79.105469 C 148.75 82.707031 143.351562 82.707031 143.351562 79.105469 C 143.351562 75.503906 148.75 75.503906 148.75 79.105469 "/>
<path style="fill-rule:nonzero;fill:rgb(100%,49.803922%,31.372549%);fill-opacity:0.698039;stroke-width:0.75;stroke-linecap:round;stroke-linejoin:round;stroke:rgb(100%,49.803922%,31.372549%);stroke-opacity:0.698039;stroke-miterlimit:10;" d="M 68.023438 192.21875 C 68.023438 195.816406 62.625 195.816406 62.625 192.21875 C 62.625 188.617188 68.023438 188.617188 68.023438 192.21875 "/>
<path style="fill-rule:nonzero;fill:rgb(100%,49.803922%,31.372549%);fill-opacity:0.698039;stroke-width:0.75;stroke-linecap:round;stroke-linejoin:round;stroke:rgb(100%,49.803922%,31.372549%);stroke-opacity:0.698039;stroke-miterlimit:10;" d="M 240.960938 82.980469 C 240.960938 86.582031 235.5625 86.582031 235.5625 82.980469 C 235.5625 79.382812 240.960938 79.382812 240.960938 82.980469 "/>
<path style="fill-rule:nonzero;fill:rgb(100%,49.803922%,31.372549%);fill-opacity:0.698039;stroke-width:0.75;stroke-linecap:round;stroke-linejoin:round;stroke:rgb(100%,49.803922%,31.372549%);stroke-opacity:0.698039;stroke-miterlimit:10;" d="M 197.214844 301.296875 C 197.214844 304.894531 191.816406 304.894531 191.816406 301.296875 C 191.816406 297.695312 197.214844 297.695312 197.214844 301.296875 "/>
<path style="fill-rule:nonzero;fill:rgb(100%,49.803922%,31.372549%);fill-opacity:0.698039;stroke-width:0.75;stroke-linecap:round;stroke-linejoin:round;stroke:rgb(100%,49.803922%,31.372549%);stroke-opacity:0.698039;stroke-miterlimit:10;" d="M 226.578125 77.746094 C 226.578125 81.34375 221.175781 81.34375 221.175781 77.746094 C 221.175781 74.144531 226.578125 74.144531 226.578125 77.746094 "/>
<path style="fill-rule:nonzero;fill:rgb(100%,49.803922%,31.372549%);fill-opacity:0.698039;stroke-width:0.75;stroke-linecap:round;stroke-linejoin:round;stroke:rgb(100%,49.803922%,31.372549%);stroke-opacity:0.698039;stroke-miterlimit:10;" d="M 183.066406 72.589844 C 183.066406 76.1875 177.667969 76.1875 177.667969 72.589844 C 177.667969 68.988281 183.066406 68.988281 183.066406 72.589844 "/>
<path style="fill-rule:nonzero;fill:rgb(100%,49.803922%,31.372549%);fill-opacity:0.698039;stroke-width:0.75;stroke-linecap:round;stroke-linejoin:round;stroke:rgb(100%,49.803922%,31.372549%);stroke-opacity:0.698039;stroke-miterlimit:10;" d="M 311.582031 192.605469 C 311.582031 196.207031 306.179688 196.207031 306.179688 192.605469 C 306.179688 189.007812 311.582031 189.007812 311.582031 192.605469 "/>
<path style="fill-rule:nonzero;fill:rgb(100%,49.803922%,31.372549%);fill-opacity:0.698039;stroke-width:0.75;stroke-linecap:round;stroke-linejoin:round;stroke:rgb(100%,49.803922%,31.372549%);stroke-opacity:0.698039;stroke-miterlimit:10;" d="M 232.800781 294.148438 C 232.800781 297.75 227.402344 297.75 227.402344 294.148438 C 227.402344 290.550781 232.800781 290.550781 232.800781 294.148438 "/>
<path style="fill-rule:nonzero;fill:rgb(100%,49.803922%,31.372549%);fill-opacity:0.698039;stroke-width:0.75;stroke-linecap:round;stroke-linejoin:round;stroke:rgb(100%,49.803922%,31.372549%);stroke-opacity:0.698039;stroke-miterlimit:10;" d="M 74.675781 224.628906 C 74.675781 228.230469 69.277344 228.230469 69.277344 224.628906 C 69.277344 221.03125 74.675781 221.03125 74.675781 224.628906 "/>
<path style="fill-rule:nonzero;fill:rgb(100%,49.803922%,31.372549%);fill-opacity:0.698039;stroke-width:0.75;stroke-linecap:round;stroke-linejoin:round;stroke:rgb(100%,49.803922%,31.372549%);stroke-opacity:0.698039;stroke-miterlimit:10;" d="M 115.941406 278.085938 C 115.941406 281.6875 110.542969 281.6875 110.542969 278.085938 C 110.542969 274.488281 115.941406 274.488281 115.941406 278.085938 "/>
<path style="fill-rule:nonzero;fill:rgb(100%,49.803922%,31.372549%);fill-opacity:0.698039;stroke-width:0.75;stroke-linecap:round;stroke-linejoin:round;stroke:rgb(100%,49.803922%,31.372549%);stroke-opacity:0.698039;stroke-miterlimit:10;" d="M 143.636719 80.945312 C 143.636719 84.546875 138.234375 84.546875 138.234375 80.945312 C 138.234375 77.347656 143.636719 77.347656 143.636719 80.945312 "/>
<path style="fill-rule:nonzero;fill:rgb(100%,49.803922%,31.372549%);fill-opacity:0.698039;stroke-width:0.75;stroke-linecap:round;stroke-linejoin:round;stroke:rgb(100%,49.803922%,31.372549%);stroke-opacity:0.698039;stroke-miterlimit:10;" d="M 101.898438 266.320312 C 101.898438 269.921875 96.5 269.921875 96.5 266.320312 C 96.5 262.722656 101.898438 262.722656 101.898438 266.320312 "/>
<path style="fill-rule:nonzero;fill:rgb(100%,49.803922%,31.372549%);fill-opacity:0.698039;stroke-width:0.75;stroke-linecap:round;stroke-linejoin:round;stroke:rgb(100%,49.803922%,31.372549%);stroke-opacity:0.698039;stroke-miterlimit:10;" d="M 131.234375 86.503906 C 131.234375 90.101562 125.832031 90.101562 125.832031 86.503906 C 125.832031 82.902344 131.234375 82.902344 131.234375 86.503906 "/>
<path style="fill-rule:nonzero;fill:rgb(100%,49.803922%,31.372549%);fill-opacity:0.698039;stroke-width:0.75;stroke-linecap:round;stroke-linejoin:round;stroke:rgb(100%,49.803922%,31.372549%);stroke-opacity:0.698039;stroke-miterlimit:10;" d="M 67.90625 188.398438 C 67.90625 191.996094 62.503906 191.996094 62.503906 188.398438 C 62.503906 184.796875 67.90625 184.796875 67.90625 188.398438 "/>
<path style="fill-rule:nonzero;fill:rgb(100%,49.803922%,31.372549%);fill-opacity:0.698039;stroke-width:0.75;stroke-linecap:round;stroke-linejoin:round;stroke:rgb(100%,49.803922%,31.372549%);stroke-opacity:0.698039;stroke-miterlimit:10;" d="M 135.898438 289.699219 C 135.898438 293.296875 130.496094 293.296875 130.496094 289.699219 C 130.496094 286.097656 135.898438 286.097656 135.898438 289.699219 "/>
<path style="fill-rule:nonzero;fill:rgb(100%,49.803922%,31.372549%);fill-opacity:0.698039;stroke-width:0.75;stroke-linecap:round;stroke-linejoin:round;stroke:rgb(100%,49.803922%,31.372549%);stroke-opacity:0.698039;stroke-miterlimit:10;" d="M 68.4375 176.175781 C 68.4375 179.773438 63.035156 179.773438 63.035156 176.175781 C 63.035156 172.574219 68.4375 172.574219 68.4375 176.175781 "/>
<path style="fill-rule:nonzero;fill:rgb(100%,49.803922%,31.372549%);fill-opacity:0.698039;stroke-width:0.75;stroke-linecap:round;stroke-linejoin:round;stroke:rgb(100%,49.803922%,31.372549%);stroke-opacity:0.698039;stroke-miterlimit:10;" d="M 194.460938 72.496094 C 194.460938 76.097656 189.0625 76.097656 189.0625 72.496094 C 189.0625 68.894531 194.460938 68.894531 194.460938 72.496094 "/>
<path style="fill-rule:nonzero;fill:rgb(100%,49.803922%,31.372549%);fill-opacity:0.698039;stroke-width:0.75;stroke-linecap:round;stroke-linejoin:round;stroke:rgb(100%,49.803922%,31.372549%);stroke-opacity:0.698039;stroke-miterlimit:10;" d="M 201.636719 300.96875 C 201.636719 304.566406 196.234375 304.566406 196.234375 300.96875 C 196.234375 297.367188 201.636719 297.367188 201.636719 300.96875 "/>
<path style="fill-rule:nonzero;fill:rgb(100%,49.803922%,31.372549%);fill-opacity:0.698039;stroke-width:0.75;stroke-linecap:round;stroke-linejoin:round;stroke:rgb(100%,49.803922%,31.372549%);stroke-opacity:0.698039;stroke-miterlimit:10;" d="M 298.863281 135.742188 C 298.863281 139.339844 293.460938 139.339844 293.460938 135.742188 C 293.460938 132.140625 298.863281 132.140625 298.863281 135.742188 "/>
<path style="fill-rule:nonzero;fill:rgb(100%,49.803922%,31.372549%);fill-opacity:0.698039;stroke-width:0.75;stroke-linecap:round;stroke-linejoin:round;stroke:rgb(100%,49.803922%,31.372549%);stroke-opacity:0.698039;stroke-miterlimit:10;" d="M 145.15625 80.375 C 145.15625 83.972656 139.753906 83.972656 139.753906 80.375 C 139.753906 76.773438 145.15625 76.773438 145.15625 80.375 "/>
<path style="fill-rule:nonzero;fill:rgb(100%,49.803922%,31.372549%);fill-opacity:0.698039;stroke-width:0.75;stroke-linecap:round;stroke-linejoin:round;stroke:rgb(100%,49.803922%,31.372549%);stroke-opacity:0.698039;stroke-miterlimit:10;" d="M 164.917969 299.09375 C 164.917969 302.695312 159.519531 302.695312 159.519531 299.09375 C 159.519531 295.492188 164.917969 295.492188 164.917969 299.09375 "/>
<path style="fill-rule:nonzero;fill:rgb(100%,49.803922%,31.372549%);fill-opacity:0.698039;stroke-width:0.75;stroke-linecap:round;stroke-linejoin:round;stroke:rgb(100%,49.803922%,31.372549%);stroke-opacity:0.698039;stroke-miterlimit:10;" d="M 67.945312 190.230469 C 67.945312 193.832031 62.546875 193.832031 62.546875 190.230469 C 62.546875 186.632812 67.945312 186.632812 67.945312 190.230469 "/>
<path style="fill-rule:nonzero;fill:rgb(100%,49.803922%,31.372549%);fill-opacity:0.698039;stroke-width:0.75;stroke-linecap:round;stroke-linejoin:round;stroke:rgb(100%,49.803922%,31.372549%);stroke-opacity:0.698039;stroke-miterlimit:10;" d="M 259.601562 93.039062 C 259.601562 96.636719 254.203125 96.636719 254.203125 93.039062 C 254.203125 89.4375 259.601562 89.4375 259.601562 93.039062 "/>
<path style="fill-rule:nonzero;fill:rgb(100%,49.803922%,31.372549%);fill-opacity:0.698039;stroke-width:0.75;stroke-linecap:round;stroke-linejoin:round;stroke:rgb(100%,49.803922%,31.372549%);stroke-opacity:0.698039;stroke-miterlimit:10;" d="M 67.933594 189.789062 C 67.933594 193.390625 62.53125 193.390625 62.53125 189.789062 C 62.53125 186.191406 67.933594 186.191406 67.933594 189.789062 "/>
<path style="fill-rule:nonzero;fill:rgb(100%,49.803922%,31.372549%);fill-opacity:0.698039;stroke-width:0.75;stroke-linecap:round;stroke-linejoin:round;stroke:rgb(100%,49.803922%,31.372549%);stroke-opacity:0.698039;stroke-miterlimit:10;" d="M 67.984375 182.613281 C 67.984375 186.214844 62.582031 186.214844 62.582031 182.613281 C 62.582031 179.015625 67.984375 179.015625 67.984375 182.613281 "/>
<path style="fill-rule:nonzero;fill:rgb(100%,49.803922%,31.372549%);fill-opacity:0.698039;stroke-width:0.75;stroke-linecap:round;stroke-linejoin:round;stroke:rgb(100%,49.803922%,31.372549%);stroke-opacity:0.698039;stroke-miterlimit:10;" d="M 190.730469 301.503906 C 190.730469 305.105469 185.332031 305.105469 185.332031 301.503906 C 185.332031 297.902344 190.730469 297.902344 190.730469 301.503906 "/>
<path style="fill-rule:nonzero;fill:rgb(100%,49.803922%,31.372549%);fill-opacity:0.698039;stroke-width:0.75;stroke-linecap:round;stroke-linejoin:round;stroke:rgb(100%,49.803922%,31.372549%);stroke-opacity:0.698039;stroke-miterlimit:10;" d="M 245.398438 85.011719 C 245.398438 88.613281 240 88.613281 240 85.011719 C 240 81.414062 245.398438 81.414062 245.398438 85.011719 "/>
<path style="fill-rule:nonzero;fill:rgb(100%,49.803922%,31.372549%);fill-opacity:0.698039;stroke-width:0.75;stroke-linecap:round;stroke-linejoin:round;stroke:rgb(100%,49.803922%,31.372549%);stroke-opacity:0.698039;stroke-miterlimit:10;" d="M 260.472656 280.304688 C 260.472656 283.90625 255.074219 283.90625 255.074219 280.304688 C 255.074219 276.707031 260.472656 276.707031 260.472656 280.304688 "/>
<path style="fill-rule:nonzero;fill:rgb(100%,49.803922%,31.372549%);fill-opacity:0.698039;stroke-width:0.75;stroke-linecap:round;stroke-linejoin:round;stroke:rgb(100%,49.803922%,31.372549%);stroke-opacity:0.698039;stroke-miterlimit:10;" d="M 270.339844 272.960938 C 270.339844 276.5625 264.941406 276.5625 264.941406 272.960938 C 264.941406 269.363281 270.339844 269.363281 270.339844 272.960938 "/>
<path style="fill-rule:nonzero;fill:rgb(100%,49.803922%,31.372549%);fill-opacity:0.698039;stroke-width:0.75;stroke-linecap:round;stroke-linejoin:round;stroke:rgb(100%,49.803922%,31.372549%);stroke-opacity:0.698039;stroke-miterlimit:10;" d="M 307.535156 157.179688 C 307.535156 160.78125 302.136719 160.78125 302.136719 157.179688 C 302.136719 153.582031 307.535156 153.582031 307.535156 157.179688 "/>
<path style="fill-rule:nonzero;fill:rgb(100%,49.803922%,31.372549%);fill-opacity:0.698039;stroke-width:0.75;stroke-linecap:round;stroke-linejoin:round;stroke:rgb(100%,49.803922%,31.372549%);stroke-opacity:0.698039;stroke-miterlimit:10;" d="M 139.863281 82.46875 C 139.863281 86.066406 134.464844 86.066406 134.464844 82.46875 C 134.464844 78.867188 139.863281 78.867188 139.863281 82.46875 "/>
<path style="fill-rule:nonzero;fill:rgb(100%,49.803922%,31.372549%);fill-opacity:0.698039;stroke-width:0.75;stroke-linecap:round;stroke-linejoin:round;stroke:rgb(100%,49.803922%,31.372549%);stroke-opacity:0.698039;stroke-miterlimit:10;" d="M 311.273438 177.074219 C 311.273438 180.675781 305.875 180.675781 305.875 177.074219 C 305.875 173.476562 311.273438 173.476562 311.273438 177.074219 "/>
<path style="fill-rule:nonzero;fill:rgb(100%,49.803922%,31.372549%);fill-opacity:0.698039;stroke-width:0.75;stroke-linecap:round;stroke-linejoin:round;stroke:rgb(100%,49.803922%,31.372549%);stroke-opacity:0.698039;stroke-miterlimit:10;" d="M 198.210938 72.683594 C 198.210938 76.285156 192.8125 76.285156 192.8125 72.683594 C 192.8125 69.085938 198.210938 69.085938 198.210938 72.683594 "/>
<path style="fill-rule:nonzero;fill:rgb(100%,49.803922%,31.372549%);fill-opacity:0.698039;stroke-width:0.75;stroke-linecap:round;stroke-linejoin:round;stroke:rgb(100%,49.803922%,31.372549%);stroke-opacity:0.698039;stroke-miterlimit:10;" d="M 156.898438 297.253906 C 156.898438 300.855469 151.5 300.855469 151.5 297.253906 C 151.5 293.652344 156.898438 293.652344 156.898438 297.253906 "/>
<path style="fill-rule:nonzero;fill:rgb(100%,49.803922%,31.372549%);fill-opacity:0.698039;stroke-width:0.75;stroke-linecap:round;stroke-linejoin:round;stroke:rgb(100%,49.803922%,31.372549%);stroke-opacity:0.698039;stroke-miterlimit:10;" d="M 146.292969 79.960938 C 146.292969 83.558594 140.890625 83.558594 140.890625 79.960938 C 140.890625 76.359375 146.292969 76.359375 146.292969 79.960938 "/>
<path style="fill-rule:nonzero;fill:rgb(100%,49.803922%,31.372549%);fill-opacity:0.698039;stroke-width:0.75;stroke-linecap:round;stroke-linejoin:round;stroke:rgb(100%,49.803922%,31.372549%);stroke-opacity:0.698039;stroke-miterlimit:10;" d="M 68.070312 193.109375 C 68.070312 196.707031 62.671875 196.707031 62.671875 193.109375 C 62.671875 189.507812 68.070312 189.507812 68.070312 193.109375 "/>
<path style="fill-rule:nonzero;fill:rgb(100%,49.803922%,31.372549%);fill-opacity:0.698039;stroke-width:0.75;stroke-linecap:round;stroke-linejoin:round;stroke:rgb(100%,49.803922%,31.372549%);stroke-opacity:0.698039;stroke-miterlimit:10;" d="M 305.367188 150.4375 C 305.367188 154.039062 299.964844 154.039062 299.964844 150.4375 C 299.964844 146.835938 305.367188 146.835938 305.367188 150.4375 "/>
<path style="fill-rule:nonzero;fill:rgb(100%,49.803922%,31.372549%);fill-opacity:0.698039;stroke-width:0.75;stroke-linecap:round;stroke-linejoin:round;stroke:rgb(100%,49.803922%,31.372549%);stroke-opacity:0.698039;stroke-miterlimit:10;" d="M 77.792969 232.167969 C 77.792969 235.769531 72.390625 235.769531 72.390625 232.167969 C 72.390625 228.566406 77.792969 228.566406 77.792969 232.167969 "/>
<path style="fill-rule:nonzero;fill:rgb(100%,49.803922%,31.372549%);fill-opacity:0.698039;stroke-width:0.75;stroke-linecap:round;stroke-linejoin:round;stroke:rgb(100%,49.803922%,31.372549%);stroke-opacity:0.698039;stroke-miterlimit:10;" d="M 277.90625 107.773438 C 277.90625 111.375 272.503906 111.375 272.503906 107.773438 C 272.503906 104.175781 277.90625 104.175781 277.90625 107.773438 "/>
<path style="fill-rule:nonzero;fill:rgb(100%,49.803922%,31.372549%);fill-opacity:0.698039;stroke-width:0.75;stroke-linecap:round;stroke-linejoin:round;stroke:rgb(100%,49.803922%,31.372549%);stroke-opacity:0.698039;stroke-miterlimit:10;" d="M 285.121094 258.390625 C 285.121094 261.992188 279.722656 261.992188 279.722656 258.390625 C 279.722656 254.789062 285.121094 254.789062 285.121094 258.390625 "/>
<path style="fill-rule:nonzero;fill:rgb(100%,49.803922%,31.372549%);fill-opacity:0.698039;stroke-width:0.75;stroke-linecap:round;stroke-linejoin:round;stroke:rgb(100%,49.803922%,31.372549%);stroke-opacity:0.698039;stroke-miterlimit:10;" d="M 311.214844 176.445312 C 311.214844 180.046875 305.816406 180.046875 305.816406 176.445312 C 305.816406 172.847656 311.214844 172.847656 311.214844 176.445312 "/>
<path style="fill-rule:nonzero;fill:rgb(100%,49.803922%,31.372549%);fill-opacity:0.698039;stroke-width:0.75;stroke-linecap:round;stroke-linejoin:round;stroke:rgb(100%,49.803922%,31.372549%);stroke-opacity:0.698039;stroke-miterlimit:10;" d="M 215 299.035156 C 215 302.636719 209.601562 302.636719 209.601562 299.035156 C 209.601562 295.4375 215 295.4375 215 299.035156 "/>
<path style="fill-rule:nonzero;fill:rgb(100%,49.803922%,31.372549%);fill-opacity:0.698039;stroke-width:0.75;stroke-linecap:round;stroke-linejoin:round;stroke:rgb(100%,49.803922%,31.372549%);stroke-opacity:0.698039;stroke-miterlimit:10;" d="M 292.765625 125.605469 C 292.765625 129.207031 287.367188 129.207031 287.367188 125.605469 C 287.367188 122.007812 292.765625 122.007812 292.765625 125.605469 "/>
<path style="fill-rule:nonzero;fill:rgb(100%,49.803922%,31.372549%);fill-opacity:0.698039;stroke-width:0.75;stroke-linecap:round;stroke-linejoin:round;stroke:rgb(100%,49.803922%,31.372549%);stroke-opacity:0.698039;stroke-miterlimit:10;" d="M 68.78125 200.738281 C 68.78125 204.339844 63.378906 204.339844 63.378906 200.738281 C 63.378906 197.136719 68.78125 197.136719 68.78125 200.738281 "/>
<path style="fill-rule:nonzero;fill:rgb(100%,49.803922%,31.372549%);fill-opacity:0.698039;stroke-width:0.75;stroke-linecap:round;stroke-linejoin:round;stroke:rgb(100%,49.803922%,31.372549%);stroke-opacity:0.698039;stroke-miterlimit:10;" d="M 98.734375 110.8125 C 98.734375 114.414062 93.332031 114.414062 93.332031 110.8125 C 93.332031 107.214844 98.734375 107.214844 98.734375 110.8125 "/>
<path style="fill-rule:nonzero;fill:rgb(100%,49.803922%,31.372549%);fill-opacity:0.698039;stroke-width:0.75;stroke-linecap:round;stroke-linejoin:round;stroke:rgb(100%,49.803922%,31.372549%);stroke-opacity:0.698039;stroke-miterlimit:10;" d="M 300.109375 138.152344 C 300.109375 141.753906 294.707031 141.753906 294.707031 138.152344 C 294.707031 134.554688 300.109375 134.554688 300.109375 138.152344 "/>
<path style="fill-rule:nonzero;fill:rgb(100%,49.803922%,31.372549%);fill-opacity:0.698039;stroke-width:0.75;stroke-linecap:round;stroke-linejoin:round;stroke:rgb(100%,49.803922%,31.372549%);stroke-opacity:0.698039;stroke-miterlimit:10;" d="M 137.457031 83.511719 C 137.457031 87.113281 132.054688 87.113281 132.054688 83.511719 C 132.054688 79.914062 137.457031 79.914062 137.457031 83.511719 "/>
<path style="fill-rule:nonzero;fill:rgb(100%,49.803922%,31.372549%);fill-opacity:0.698039;stroke-width:0.75;stroke-linecap:round;stroke-linejoin:round;stroke:rgb(100%,49.803922%,31.372549%);stroke-opacity:0.698039;stroke-miterlimit:10;" d="M 130.070312 286.8125 C 130.070312 290.414062 124.671875 290.414062 124.671875 286.8125 C 124.671875 283.210938 130.070312 283.210938 130.070312 286.8125 "/>
<path style="fill-rule:nonzero;fill:rgb(100%,49.803922%,31.372549%);fill-opacity:0.698039;stroke-width:0.75;stroke-linecap:round;stroke-linejoin:round;stroke:rgb(100%,49.803922%,31.372549%);stroke-opacity:0.698039;stroke-miterlimit:10;" d="M 298.921875 238.0625 C 298.921875 241.664062 293.523438 241.664062 293.523438 238.0625 C 293.523438 234.464844 298.921875 234.464844 298.921875 238.0625 "/>
<path style="fill-rule:nonzero;fill:rgb(100%,49.803922%,31.372549%);fill-opacity:0.698039;stroke-width:0.75;stroke-linecap:round;stroke-linejoin:round;stroke:rgb(100%,49.803922%,31.372549%);stroke-opacity:0.698039;stroke-miterlimit:10;" d="M 69.789062 166.847656 C 69.789062 170.449219 64.390625 170.449219 64.390625 166.847656 C 64.390625 163.246094 69.789062 163.246094 69.789062 166.847656 "/>
<path style="fill-rule:nonzero;fill:rgb(100%,49.803922%,31.372549%);fill-opacity:0.698039;stroke-width:0.75;stroke-linecap:round;stroke-linejoin:round;stroke:rgb(100%,49.803922%,31.372549%);stroke-opacity:0.698039;stroke-miterlimit:10;" d="M 265.972656 97.511719 C 265.972656 101.113281 260.570312 101.113281 260.570312 97.511719 C 260.570312 93.910156 265.972656 93.910156 265.972656 97.511719 "/>
<path style="fill-rule:nonzero;fill:rgb(100%,49.803922%,31.372549%);fill-opacity:0.698039;stroke-width:0.75;stroke-linecap:round;stroke-linejoin:round;stroke:rgb(100%,49.803922%,31.372549%);stroke-opacity:0.698039;stroke-miterlimit:10;" d="M 72.582031 218.414062 C 72.582031 222.011719 67.179688 222.011719 67.179688 218.414062 C 67.179688 214.8125 72.582031 214.8125 72.582031 218.414062 "/>
<path style="fill-rule:nonzero;fill:rgb(100%,49.803922%,31.372549%);fill-opacity:0.698039;stroke-width:0.75;stroke-linecap:round;stroke-linejoin:round;stroke:rgb(100%,49.803922%,31.372549%);stroke-opacity:0.698039;stroke-miterlimit:10;" d="M 230.261719 78.902344 C 230.261719 82.5 224.863281 82.5 224.863281 78.902344 C 224.863281 75.300781 230.261719 75.300781 230.261719 78.902344 "/>
<path style="fill-rule:nonzero;fill:rgb(100%,49.803922%,31.372549%);fill-opacity:0.698039;stroke-width:0.75;stroke-linecap:round;stroke-linejoin:round;stroke:rgb(100%,49.803922%,31.372549%);stroke-opacity:0.698039;stroke-miterlimit:10;" d="M 287.800781 255.113281 C 287.800781 258.710938 282.402344 258.710938 282.402344 255.113281 C 282.402344 251.511719 287.800781 251.511719 287.800781 255.113281 "/>
<path style="fill-rule:nonzero;fill:rgb(100%,49.803922%,31.372549%);fill-opacity:0.698039;stroke-width:0.75;stroke-linecap:round;stroke-linejoin:round;stroke:rgb(100%,49.803922%,31.372549%);stroke-opacity:0.698039;stroke-miterlimit:10;" d="M 96.117188 113.667969 C 96.117188 117.269531 90.71875 117.269531 90.71875 113.667969 C 90.71875 110.066406 96.117188 110.066406 96.117188 113.667969 "/>
<path style="fill-rule:nonzero;fill:rgb(100%,49.803922%,31.372549%);fill-opacity:0.698039;stroke-width:0.75;stroke-linecap:round;stroke-linejoin:round;stroke:rgb(100%,49.803922%,31.372549%);stroke-opacity:0.698039;stroke-miterlimit:10;" d="M 144.3125 80.6875 C 144.3125 84.289062 138.910156 84.289062 138.910156 80.6875 C 138.910156 77.089844 144.3125 77.089844 144.3125 80.6875 "/>
<path style="fill-rule:nonzero;fill:rgb(100%,49.803922%,31.372549%);fill-opacity:0.698039;stroke-width:0.75;stroke-linecap:round;stroke-linejoin:round;stroke:rgb(100%,49.803922%,31.372549%);stroke-opacity:0.698039;stroke-miterlimit:10;" d="M 255.121094 90.234375 C 255.121094 93.832031 249.71875 93.832031 249.71875 90.234375 C 249.71875 86.632812 255.121094 86.632812 255.121094 90.234375 "/>
<path style="fill-rule:nonzero;fill:rgb(100%,49.803922%,31.372549%);fill-opacity:0.698039;stroke-width:0.75;stroke-linecap:round;stroke-linejoin:round;stroke:rgb(100%,49.803922%,31.372549%);stroke-opacity:0.698039;stroke-miterlimit:10;" d="M 286.699219 256.492188 C 286.699219 260.089844 281.300781 260.089844 281.300781 256.492188 C 281.300781 252.890625 286.699219 252.890625 286.699219 256.492188 "/>
<path style="fill-rule:nonzero;fill:rgb(100%,49.803922%,31.372549%);fill-opacity:0.698039;stroke-width:0.75;stroke-linecap:round;stroke-linejoin:round;stroke:rgb(100%,49.803922%,31.372549%);stroke-opacity:0.698039;stroke-miterlimit:10;" d="M 250.953125 87.859375 C 250.953125 91.457031 245.550781 91.457031 245.550781 87.859375 C 245.550781 84.257812 250.953125 84.257812 250.953125 87.859375 "/>
<path style="fill-rule:nonzero;fill:rgb(100%,49.803922%,31.372549%);fill-opacity:0.698039;stroke-width:0.75;stroke-linecap:round;stroke-linejoin:round;stroke:rgb(100%,49.803922%,31.372549%);stroke-opacity:0.698039;stroke-miterlimit:10;" d="M 288.636719 254.042969 C 288.636719 257.640625 283.234375 257.640625 283.234375 254.042969 C 283.234375 250.441406 288.636719 250.441406 288.636719 254.042969 "/>
<path style="fill-rule:nonzero;fill:rgb(100%,49.803922%,31.372549%);fill-opacity:0.698039;stroke-width:0.75;stroke-linecap:round;stroke-linejoin:round;stroke:rgb(100%,49.803922%,31.372549%);stroke-opacity:0.698039;stroke-miterlimit:10;" d="M 270.964844 101.476562 C 270.964844 105.078125 265.566406 105.078125 265.566406 101.476562 C 265.566406 97.878906 270.964844 97.878906 270.964844 101.476562 "/>
<path style="fill-rule:nonzero;fill:rgb(100%,49.803922%,31.372549%);fill-opacity:0.698039;stroke-width:0.75;stroke-linecap:round;stroke-linejoin:round;stroke:rgb(100%,49.803922%,31.372549%);stroke-opacity:0.698039;stroke-miterlimit:10;" d="M 272.363281 102.667969 C 272.363281 106.269531 266.964844 106.269531 266.964844 102.667969 C 266.964844 99.066406 272.363281 99.066406 272.363281 102.667969 "/>
<path style="fill-rule:nonzero;fill:rgb(100%,49.803922%,31.372549%);fill-opacity:0.698039;stroke-width:0.75;stroke-linecap:round;stroke-linejoin:round;stroke:rgb(100%,49.803922%,31.372549%);stroke-opacity:0.698039;stroke-miterlimit:10;" d="M 286.011719 116.589844 C 286.011719 120.191406 280.609375 120.191406 280.609375 116.589844 C 280.609375 112.988281 286.011719 112.988281 286.011719 116.589844 "/>
<path style="fill-rule:nonzero;fill:rgb(100%,49.803922%,31.372549%);fill-opacity:0.698039;stroke-width:0.75;stroke-linecap:round;stroke-linejoin:round;stroke:rgb(100%,49.803922%,31.372549%);stroke-opacity:0.698039;stroke-miterlimit:10;" d="M 68.21875 195.289062 C 68.21875 198.890625 62.816406 198.890625 62.816406 195.289062 C 62.816406 191.691406 68.21875 191.691406 68.21875 195.289062 "/>
<path style="fill-rule:nonzero;fill:rgb(100%,49.803922%,31.372549%);fill-opacity:0.698039;stroke-width:0.75;stroke-linecap:round;stroke-linejoin:round;stroke:rgb(100%,49.803922%,31.372549%);stroke-opacity:0.698039;stroke-miterlimit:10;" d="M 151.992188 78.0625 C 151.992188 81.664062 146.59375 81.664062 146.59375 78.0625 C 146.59375 74.464844 151.992188 74.464844 151.992188 78.0625 "/>
<path style="fill-rule:nonzero;fill:rgb(100%,49.803922%,31.372549%);fill-opacity:0.698039;stroke-width:0.75;stroke-linecap:round;stroke-linejoin:round;stroke:rgb(100%,49.803922%,31.372549%);stroke-opacity:0.698039;stroke-miterlimit:10;" d="M 310.015625 167.820312 C 310.015625 171.421875 304.617188 171.421875 304.617188 167.820312 C 304.617188 164.222656 310.015625 164.222656 310.015625 167.820312 "/>
<path style="fill-rule:nonzero;fill:rgb(100%,49.803922%,31.372549%);fill-opacity:0.698039;stroke-width:0.75;stroke-linecap:round;stroke-linejoin:round;stroke:rgb(100%,49.803922%,31.372549%);stroke-opacity:0.698039;stroke-miterlimit:10;" d="M 145.183594 80.363281 C 145.183594 83.964844 139.78125 83.964844 139.78125 80.363281 C 139.78125 76.761719 145.183594 76.761719 145.183594 80.363281 "/>
<path style="fill-rule:nonzero;fill:rgb(100%,49.803922%,31.372549%);fill-opacity:0.698039;stroke-width:0.75;stroke-linecap:round;stroke-linejoin:round;stroke:rgb(100%,49.803922%,31.372549%);stroke-opacity:0.698039;stroke-miterlimit:10;" d="M 183.777344 301.367188 C 183.777344 304.964844 178.378906 304.964844 178.378906 301.367188 C 178.378906 297.765625 183.777344 297.765625 183.777344 301.367188 "/>
</g>
</svg>
