<?xml version="1.0" encoding="UTF-8"?>
<svg xmlns="http://www.w3.org/2000/svg" xmlns:xlink="http://www.w3.org/1999/xlink" width="374pt" height="374pt" viewBox="0 0 374 374" version="1.1">
<g id="surface36">
<rect x="0" y="0" width="374" height="374" style="fill:rgb(100%,100%,100%);fill-opacity:1;stroke:none;"/>
<path style="fill-rule:nonzero;fill:rgb(100%,0%,0%);fill-opacity:1;stroke-width:0.75;stroke-linecap:round;stroke-linejoin:round;stroke:rgb(100%,0%,0%);stroke-opacity:1;stroke-miterlimit:10;" d="M 51.089844 81.964844 C 51.089844 84.367188 47.488281 84.367188 47.488281 81.964844 C 47.488281 79.566406 51.089844 79.566406 51.089844 81.964844 "/>
<path style="fill-rule:nonzero;fill:rgb(100%,0%,0%);fill-opacity:1;stroke-width:0.75;stroke-linecap:round;stroke-linejoin:round;stroke:rgb(100%,0%,0%);stroke-opacity:1;stroke-miterlimit:10;" d="M 16.292969 171.980469 C 16.292969 174.378906 12.695312 174.378906 12.695312 171.980469 C 12.695312 169.578125 16.292969 169.578125 16.292969 171.980469 "/>
<path style="fill-rule:nonzero;fill:rgb(100%,0%,0%);fill-opacity:1;stroke-width:0.75;stroke-linecap:round;stroke-linejoin:round;stroke:rgb(100%,0%,0%);stroke-opacity:1;stroke-miterlimit:10;" d="M 15.675781 183.636719 C 15.675781 186.039062 12.078125 186.039062 12.078125 183.636719 C 12.078125 181.238281 15.675781 181.238281 15.675781 183.636719 "/>
<path style="fill-rule:nonzero;fill:rgb(100%,0%,0%);fill-opacity:1;stroke-width:0.75;stroke-linecap:round;stroke-linejoin:round;stroke:rgb(100%,0%,0%);stroke-opacity:1;stroke-miterlimit:10;" d="M 57.480469 74.066406 C 57.480469 76.46875 53.878906 76.46875 53.878906 74.066406 C 53.878906 71.667969 57.480469 71.667969 57.480469 74.066406 "/>
<path style="fill-rule:nonzero;fill:rgb(100%,0%,0%);fill-opacity:1;stroke-width:0.75;stroke-linecap:round;stroke-linejoin:round;stroke:rgb(100%,0%,0%);stroke-opacity:1;stroke-miterlimit:10;" d="M 81.207031 322.6875 C 81.207031 325.085938 77.609375 325.085938 77.609375 322.6875 C 77.609375 320.285156 81.207031 320.285156 81.207031 322.6875 "/>
<path style="fill-rule:nonzero;fill:rgb(100%,0%,0%);fill-opacity:1;stroke-width:0.75;stroke-linecap:round;stroke-linejoin:round;stroke:rgb(100%,0%,0%);stroke-opacity:1;stroke-miterlimit:10;" d="M 92.570312 42.960938 C 92.570312 45.359375 88.972656 45.359375 88.972656 42.960938 C 88.972656 40.5625 92.570312 40.5625 92.570312 42.960938 "/>
<path style="fill-rule:nonzero;fill:rgb(100%,0%,0%);fill-opacity:1;stroke-width:0.75;stroke-linecap:round;stroke-linejoin:round;stroke:rgb(100%,0%,0%);stroke-opacity:1;stroke-miterlimit:10;" d="M 355.601562 234.148438 C 355.601562 236.546875 352.003906 236.546875 352.003906 234.148438 C 352.003906 231.746094 355.601562 231.746094 355.601562 234.148438 "/>
<path style="fill-rule:nonzero;fill:rgb(100%,0%,0%);fill-opacity:1;stroke-width:0.75;stroke-linecap:round;stroke-linejoin:round;stroke:rgb(100%,0%,0%);stroke-opacity:1;stroke-miterlimit:10;" d="M 355.949219 141.027344 C 355.949219 143.429688 352.347656 143.429688 352.347656 141.027344 C 352.347656 138.628906 355.949219 138.628906 355.949219 141.027344 "/>
<path style="fill-rule:nonzero;fill:rgb(100%,0%,0%);fill-opacity:1;stroke-width:0.75;stroke-linecap:round;stroke-linejoin:round;stroke:rgb(100%,0%,0%);stroke-opacity:1;stroke-miterlimit:10;" d="M 205.621094 359.410156 C 205.621094 361.8125 202.023438 361.8125 202.023438 359.410156 C 202.023438 357.011719 205.621094 357.011719 205.621094 359.410156 "/>
<path style="fill-rule:nonzero;fill:rgb(100%,0%,0%);fill-opacity:1;stroke-width:0.75;stroke-linecap:round;stroke-linejoin:round;stroke:rgb(100%,0%,0%);stroke-opacity:1;stroke-miterlimit:10;" d="M 238.519531 20.972656 C 238.519531 23.371094 234.917969 23.371094 234.917969 20.972656 C 234.917969 18.570312 238.519531 18.570312 238.519531 20.972656 "/>
<path style="fill-rule:nonzero;fill:rgb(100%,0%,0%);fill-opacity:1;stroke-width:0.75;stroke-linecap:round;stroke-linejoin:round;stroke:rgb(100%,0%,0%);stroke-opacity:1;stroke-miterlimit:10;" d="M 119.84375 345.863281 C 119.84375 348.265625 116.246094 348.265625 116.246094 345.863281 C 116.246094 343.464844 119.84375 343.464844 119.84375 345.863281 "/>
<path style="fill-rule:nonzero;fill:rgb(100%,0%,0%);fill-opacity:1;stroke-width:0.75;stroke-linecap:round;stroke-linejoin:round;stroke:rgb(100%,0%,0%);stroke-opacity:1;stroke-miterlimit:10;" d="M 51.226562 81.785156 C 51.226562 84.1875 47.625 84.1875 47.625 81.785156 C 47.625 79.386719 51.226562 79.386719 51.226562 81.785156 "/>
<path style="fill-rule:nonzero;fill:rgb(100%,0%,0%);fill-opacity:1;stroke-width:0.75;stroke-linecap:round;stroke-linejoin:round;stroke:rgb(100%,0%,0%);stroke-opacity:1;stroke-miterlimit:10;" d="M 350.597656 124.753906 C 350.597656 127.152344 346.996094 127.152344 346.996094 124.753906 C 346.996094 122.355469 350.597656 122.355469 350.597656 124.753906 "/>
<path style="fill-rule:nonzero;fill:rgb(100%,0%,0%);fill-opacity:1;stroke-width:0.75;stroke-linecap:round;stroke-linejoin:round;stroke:rgb(100%,0%,0%);stroke-opacity:1;stroke-miterlimit:10;" d="M 173.953125 359.574219 C 173.953125 361.972656 170.351562 361.972656 170.351562 359.574219 C 170.351562 357.175781 173.953125 357.175781 173.953125 359.574219 "/>
<path style="fill-rule:nonzero;fill:rgb(100%,0%,0%);fill-opacity:1;stroke-width:0.75;stroke-linecap:round;stroke-linejoin:round;stroke:rgb(100%,0%,0%);stroke-opacity:1;stroke-miterlimit:10;" d="M 66.277344 309.363281 C 66.277344 311.761719 62.675781 311.761719 62.675781 309.363281 C 62.675781 306.960938 66.277344 306.960938 66.277344 309.363281 "/>
<path style="fill-rule:nonzero;fill:rgb(100%,0%,0%);fill-opacity:1;stroke-width:0.75;stroke-linecap:round;stroke-linejoin:round;stroke:rgb(100%,0%,0%);stroke-opacity:1;stroke-miterlimit:10;" d="M 69.640625 312.640625 C 69.640625 315.042969 66.039062 315.042969 66.039062 312.640625 C 66.039062 310.242188 69.640625 310.242188 69.640625 312.640625 "/>
<path style="fill-rule:nonzero;fill:rgb(100%,0%,0%);fill-opacity:1;stroke-width:0.75;stroke-linecap:round;stroke-linejoin:round;stroke:rgb(100%,0%,0%);stroke-opacity:1;stroke-miterlimit:10;" d="M 30.292969 256.691406 C 30.292969 259.089844 26.695312 259.089844 26.695312 256.691406 C 26.695312 254.289062 30.292969 254.289062 30.292969 256.691406 "/>
<path style="fill-rule:nonzero;fill:rgb(100%,0%,0%);fill-opacity:1;stroke-width:0.75;stroke-linecap:round;stroke-linejoin:round;stroke:rgb(100%,0%,0%);stroke-opacity:1;stroke-miterlimit:10;" d="M 231.265625 354.960938 C 231.265625 357.359375 227.667969 357.359375 227.667969 354.960938 C 227.667969 352.558594 231.265625 352.558594 231.265625 354.960938 "/>
<path style="fill-rule:nonzero;fill:rgb(100%,0%,0%);fill-opacity:1;stroke-width:0.75;stroke-linecap:round;stroke-linejoin:round;stroke:rgb(100%,0%,0%);stroke-opacity:1;stroke-miterlimit:10;" d="M 258.617188 28.363281 C 258.617188 30.761719 255.019531 30.761719 255.019531 28.363281 C 255.019531 25.960938 258.617188 25.960938 258.617188 28.363281 "/>
<path style="fill-rule:nonzero;fill:rgb(100%,0%,0%);fill-opacity:1;stroke-width:0.75;stroke-linecap:round;stroke-linejoin:round;stroke:rgb(100%,0%,0%);stroke-opacity:1;stroke-miterlimit:10;" d="M 274.914062 337.359375 C 274.914062 339.757812 271.316406 339.757812 271.316406 337.359375 C 271.316406 334.957031 274.914062 334.957031 274.914062 337.359375 "/>
<path style="fill-rule:nonzero;fill:rgb(100%,0%,0%);fill-opacity:1;stroke-width:0.75;stroke-linecap:round;stroke-linejoin:round;stroke:rgb(100%,0%,0%);stroke-opacity:1;stroke-miterlimit:10;" d="M 18.804688 219.898438 C 18.804688 222.300781 15.203125 222.300781 15.203125 219.898438 C 15.203125 217.5 18.804688 217.5 18.804688 219.898438 "/>
<path style="fill-rule:nonzero;fill:rgb(100%,0%,0%);fill-opacity:1;stroke-width:0.75;stroke-linecap:round;stroke-linejoin:round;stroke:rgb(100%,0%,0%);stroke-opacity:1;stroke-miterlimit:10;" d="M 18.109375 157.855469 C 18.109375 160.253906 14.507812 160.253906 14.507812 157.855469 C 14.507812 155.457031 18.109375 155.457031 18.109375 157.855469 "/>
<path style="fill-rule:nonzero;fill:rgb(100%,0%,0%);fill-opacity:1;stroke-width:0.75;stroke-linecap:round;stroke-linejoin:round;stroke:rgb(100%,0%,0%);stroke-opacity:1;stroke-miterlimit:10;" d="M 29.136719 254 C 29.136719 256.398438 25.539062 256.398438 25.539062 254 C 25.539062 251.597656 29.136719 251.597656 29.136719 254 "/>
<path style="fill-rule:nonzero;fill:rgb(100%,0%,0%);fill-opacity:1;stroke-width:0.75;stroke-linecap:round;stroke-linejoin:round;stroke:rgb(100%,0%,0%);stroke-opacity:1;stroke-miterlimit:10;" d="M 220.058594 16.539062 C 220.058594 18.941406 216.460938 18.941406 216.460938 16.539062 C 216.460938 14.140625 220.058594 14.140625 220.058594 16.539062 "/>
<path style="fill-rule:nonzero;fill:rgb(100%,0%,0%);fill-opacity:1;stroke-width:0.75;stroke-linecap:round;stroke-linejoin:round;stroke:rgb(100%,0%,0%);stroke-opacity:1;stroke-miterlimit:10;" d="M 142.308594 353.839844 C 142.308594 356.238281 138.707031 356.238281 138.707031 353.839844 C 138.707031 351.4375 142.308594 351.4375 142.308594 353.839844 "/>
<path style="fill-rule:nonzero;fill:rgb(100%,0%,0%);fill-opacity:1;stroke-width:0.75;stroke-linecap:round;stroke-linejoin:round;stroke:rgb(100%,0%,0%);stroke-opacity:1;stroke-miterlimit:10;" d="M 113.957031 30.761719 C 113.957031 33.160156 110.359375 33.160156 110.359375 30.761719 C 110.359375 28.359375 113.957031 28.359375 113.957031 30.761719 "/>
<path style="fill-rule:nonzero;fill:rgb(100%,0%,0%);fill-opacity:1;stroke-width:0.75;stroke-linecap:round;stroke-linejoin:round;stroke:rgb(100%,0%,0%);stroke-opacity:1;stroke-miterlimit:10;" d="M 199.269531 359.910156 C 199.269531 362.308594 195.671875 362.308594 195.671875 359.910156 C 195.671875 357.507812 199.269531 357.507812 199.269531 359.910156 "/>
<path style="fill-rule:nonzero;fill:rgb(100%,0%,0%);fill-opacity:1;stroke-width:0.75;stroke-linecap:round;stroke-linejoin:round;stroke:rgb(100%,0%,0%);stroke-opacity:1;stroke-miterlimit:10;" d="M 281.488281 40.53125 C 281.488281 42.929688 277.886719 42.929688 277.886719 40.53125 C 277.886719 38.128906 281.488281 38.128906 281.488281 40.53125 "/>
<path style="fill-rule:nonzero;fill:rgb(100%,0%,0%);fill-opacity:1;stroke-width:0.75;stroke-linecap:round;stroke-linejoin:round;stroke:rgb(100%,0%,0%);stroke-opacity:1;stroke-miterlimit:10;" d="M 66.484375 309.570312 C 66.484375 311.972656 62.886719 311.972656 62.886719 309.570312 C 62.886719 307.171875 66.484375 307.171875 66.484375 309.570312 "/>
<path style="fill-rule:nonzero;fill:rgb(100%,0%,0%);fill-opacity:1;stroke-width:0.75;stroke-linecap:round;stroke-linejoin:round;stroke:rgb(100%,0%,0%);stroke-opacity:1;stroke-miterlimit:10;" d="M 323.554688 77.953125 C 323.554688 80.351562 319.953125 80.351562 319.953125 77.953125 C 319.953125 75.550781 323.554688 75.550781 323.554688 77.953125 "/>
<path style="fill-rule:nonzero;fill:rgb(100%,0%,0%);fill-opacity:1;stroke-width:0.75;stroke-linecap:round;stroke-linejoin:round;stroke:rgb(100%,0%,0%);stroke-opacity:1;stroke-miterlimit:10;" d="M 304.5625 315.957031 C 304.5625 318.359375 300.960938 318.359375 300.960938 315.957031 C 300.960938 313.558594 304.5625 313.558594 304.5625 315.957031 "/>
<path style="fill-rule:nonzero;fill:rgb(100%,0%,0%);fill-opacity:1;stroke-width:0.75;stroke-linecap:round;stroke-linejoin:round;stroke:rgb(100%,0%,0%);stroke-opacity:1;stroke-miterlimit:10;" d="M 219.921875 357.421875 C 219.921875 359.820312 216.320312 359.820312 216.320312 357.421875 C 216.320312 355.019531 219.921875 355.019531 219.921875 357.421875 "/>
<path style="fill-rule:nonzero;fill:rgb(100%,0%,0%);fill-opacity:1;stroke-width:0.75;stroke-linecap:round;stroke-linejoin:round;stroke:rgb(100%,0%,0%);stroke-opacity:1;stroke-miterlimit:10;" d="M 220.398438 357.332031 C 220.398438 359.734375 216.796875 359.734375 216.796875 357.332031 C 216.796875 354.933594 220.398438 354.933594 220.398438 357.332031 "/>
<path style="fill-rule:nonzero;fill:rgb(100%,0%,0%);fill-opacity:1;stroke-width:0.75;stroke-linecap:round;stroke-linejoin:round;stroke:rgb(100%,0%,0%);stroke-opacity:1;stroke-miterlimit:10;" d="M 15.734375 192.503906 C 15.734375 194.902344 12.132812 194.902344 12.132812 192.503906 C 12.132812 190.101562 15.734375 190.101562 15.734375 192.503906 "/>
<path style="fill-rule:nonzero;fill:rgb(100%,0%,0%);fill-opacity:1;stroke-width:0.75;stroke-linecap:round;stroke-linejoin:round;stroke:rgb(100%,0%,0%);stroke-opacity:1;stroke-miterlimit:10;" d="M 311.898438 308.980469 C 311.898438 311.378906 308.300781 311.378906 308.300781 308.980469 C 308.300781 306.582031 311.898438 306.582031 311.898438 308.980469 "/>
<path style="fill-rule:nonzero;fill:rgb(100%,0%,0%);fill-opacity:1;stroke-width:0.75;stroke-linecap:round;stroke-linejoin:round;stroke:rgb(100%,0%,0%);stroke-opacity:1;stroke-miterlimit:10;" d="M 93.851562 331.824219 C 93.851562 334.222656 90.253906 334.222656 90.253906 331.824219 C 90.253906 329.421875 93.851562 329.421875 93.851562 331.824219 "/>
<path style="fill-rule:nonzero;fill:rgb(100%,0%,0%);fill-opacity:1;stroke-width:0.75;stroke-linecap:round;stroke-linejoin:round;stroke:rgb(100%,0%,0%);stroke-opacity:1;stroke-miterlimit:10;" d="M 326.648438 292.042969 C 326.648438 294.445312 323.050781 294.445312 323.050781 292.042969 C 323.050781 289.644531 326.648438 289.644531 326.648438 292.042969 "/>
<path style="fill-rule:nonzero;fill:rgb(100%,0%,0%);fill-opacity:1;stroke-width:0.75;stroke-linecap:round;stroke-linejoin:round;stroke:rgb(100%,0%,0%);stroke-opacity:1;stroke-miterlimit:10;" d="M 252.191406 348.246094 C 252.191406 350.644531 248.589844 350.644531 248.589844 348.246094 C 248.589844 345.84375 252.191406 345.84375 252.191406 348.246094 "/>
<path style="fill-rule:nonzero;fill:rgb(100%,0%,0%);fill-opacity:1;stroke-width:0.75;stroke-linecap:round;stroke-linejoin:round;stroke:rgb(100%,0%,0%);stroke-opacity:1;stroke-miterlimit:10;" d="M 197.855469 359.988281 C 197.855469 362.386719 194.253906 362.386719 194.253906 359.988281 C 194.253906 357.589844 197.855469 357.589844 197.855469 359.988281 "/>
<path style="fill-rule:nonzero;fill:rgb(100%,0%,0%);fill-opacity:1;stroke-width:0.75;stroke-linecap:round;stroke-linejoin:round;stroke:rgb(100%,0%,0%);stroke-opacity:1;stroke-miterlimit:10;" d="M 248.097656 349.792969 C 248.097656 352.191406 244.496094 352.191406 244.496094 349.792969 C 244.496094 347.390625 248.097656 347.390625 248.097656 349.792969 "/>
<path style="fill-rule:nonzero;fill:rgb(100%,0%,0%);fill-opacity:1;stroke-width:0.75;stroke-linecap:round;stroke-linejoin:round;stroke:rgb(100%,0%,0%);stroke-opacity:1;stroke-miterlimit:10;" d="M 102.921875 337.382812 C 102.921875 339.78125 99.324219 339.78125 99.324219 337.382812 C 99.324219 334.984375 102.921875 334.984375 102.921875 337.382812 "/>
<path style="fill-rule:nonzero;fill:rgb(100%,0%,0%);fill-opacity:1;stroke-width:0.75;stroke-linecap:round;stroke-linejoin:round;stroke:rgb(100%,0%,0%);stroke-opacity:1;stroke-miterlimit:10;" d="M 16.25 201.417969 C 16.25 203.820312 12.648438 203.820312 12.648438 201.417969 C 12.648438 199.019531 16.25 199.019531 16.25 201.417969 "/>
<path style="fill-rule:nonzero;fill:rgb(100%,0%,0%);fill-opacity:1;stroke-width:0.75;stroke-linecap:round;stroke-linejoin:round;stroke:rgb(100%,0%,0%);stroke-opacity:1;stroke-miterlimit:10;" d="M 264.523438 31.089844 C 264.523438 33.492188 260.925781 33.492188 260.925781 31.089844 C 260.925781 28.691406 264.523438 28.691406 264.523438 31.089844 "/>
<path style="fill-rule:nonzero;fill:rgb(100%,0%,0%);fill-opacity:1;stroke-width:0.75;stroke-linecap:round;stroke-linejoin:round;stroke:rgb(100%,0%,0%);stroke-opacity:1;stroke-miterlimit:10;" d="M 28.941406 253.53125 C 28.941406 255.933594 25.34375 255.933594 25.34375 253.53125 C 25.34375 251.132812 28.941406 251.132812 28.941406 253.53125 "/>
<path style="fill-rule:nonzero;fill:rgb(100%,0%,0%);fill-opacity:1;stroke-width:0.75;stroke-linecap:round;stroke-linejoin:round;stroke:rgb(100%,0%,0%);stroke-opacity:1;stroke-miterlimit:10;" d="M 168.171875 14.957031 C 168.171875 17.359375 164.574219 17.359375 164.574219 14.957031 C 164.574219 12.558594 168.171875 12.558594 168.171875 14.957031 "/>
<path style="fill-rule:nonzero;fill:rgb(100%,0%,0%);fill-opacity:1;stroke-width:0.75;stroke-linecap:round;stroke-linejoin:round;stroke:rgb(100%,0%,0%);stroke-opacity:1;stroke-miterlimit:10;" d="M 155.382812 356.949219 C 155.382812 359.347656 151.78125 359.347656 151.78125 356.949219 C 151.78125 354.546875 155.382812 354.546875 155.382812 356.949219 "/>
<path style="fill-rule:nonzero;fill:rgb(100%,0%,0%);fill-opacity:1;stroke-width:0.75;stroke-linecap:round;stroke-linejoin:round;stroke:rgb(100%,0%,0%);stroke-opacity:1;stroke-miterlimit:10;" d="M 249.5625 24.683594 C 249.5625 27.082031 245.964844 27.082031 245.964844 24.683594 C 245.964844 22.28125 249.5625 22.28125 249.5625 24.683594 "/>
<path style="fill-rule:nonzero;fill:rgb(100%,0%,0%);fill-opacity:1;stroke-width:0.75;stroke-linecap:round;stroke-linejoin:round;stroke:rgb(100%,0%,0%);stroke-opacity:1;stroke-miterlimit:10;" d="M 342.921875 266.300781 C 342.921875 268.699219 339.320312 268.699219 339.320312 266.300781 C 339.320312 263.902344 342.921875 263.902344 342.921875 266.300781 "/>
<path style="fill-rule:nonzero;fill:rgb(100%,0%,0%);fill-opacity:1;stroke-width:0.75;stroke-linecap:round;stroke-linejoin:round;stroke:rgb(100%,0%,0%);stroke-opacity:1;stroke-miterlimit:10;" d="M 353.484375 132.855469 C 353.484375 135.257812 349.882812 135.257812 349.882812 132.855469 C 349.882812 130.457031 353.484375 130.457031 353.484375 132.855469 "/>
<path style="fill-rule:nonzero;fill:rgb(100%,0%,0%);fill-opacity:1;stroke-width:0.75;stroke-linecap:round;stroke-linejoin:round;stroke:rgb(100%,0%,0%);stroke-opacity:1;stroke-miterlimit:10;" d="M 358.464844 222.515625 C 358.464844 224.917969 354.863281 224.917969 354.863281 222.515625 C 354.863281 220.117188 358.464844 220.117188 358.464844 222.515625 "/>
<path style="fill-rule:nonzero;fill:rgb(100%,0%,0%);fill-opacity:1;stroke-width:0.75;stroke-linecap:round;stroke-linejoin:round;stroke:rgb(100%,0%,0%);stroke-opacity:1;stroke-miterlimit:10;" d="M 333.734375 91.894531 C 333.734375 94.296875 330.136719 94.296875 330.136719 91.894531 C 330.136719 89.496094 333.734375 89.496094 333.734375 91.894531 "/>
<path style="fill-rule:nonzero;fill:rgb(100%,0%,0%);fill-opacity:1;stroke-width:0.75;stroke-linecap:round;stroke-linejoin:round;stroke:rgb(100%,0%,0%);stroke-opacity:1;stroke-miterlimit:10;" d="M 331.375 285.542969 C 331.375 287.945312 327.773438 287.945312 327.773438 285.542969 C 327.773438 283.144531 331.375 283.144531 331.375 285.542969 "/>
<path style="fill-rule:nonzero;fill:rgb(100%,0%,0%);fill-opacity:1;stroke-width:0.75;stroke-linecap:round;stroke-linejoin:round;stroke:rgb(100%,0%,0%);stroke-opacity:1;stroke-miterlimit:10;" d="M 255.710938 27.113281 C 255.710938 29.515625 252.109375 29.515625 252.109375 27.113281 C 252.109375 24.714844 255.710938 24.714844 255.710938 27.113281 "/>
<path style="fill-rule:nonzero;fill:rgb(100%,0%,0%);fill-opacity:1;stroke-width:0.75;stroke-linecap:round;stroke-linejoin:round;stroke:rgb(100%,0%,0%);stroke-opacity:1;stroke-miterlimit:10;" d="M 239.675781 21.320312 C 239.675781 23.722656 236.074219 23.722656 236.074219 21.320312 C 236.074219 18.921875 239.675781 18.921875 239.675781 21.320312 "/>
<path style="fill-rule:nonzero;fill:rgb(100%,0%,0%);fill-opacity:1;stroke-width:0.75;stroke-linecap:round;stroke-linejoin:round;stroke:rgb(100%,0%,0%);stroke-opacity:1;stroke-miterlimit:10;" d="M 147.332031 18.773438 C 147.332031 21.171875 143.734375 21.171875 143.734375 18.773438 C 143.734375 16.375 147.332031 16.375 147.332031 18.773438 "/>
<path style="fill-rule:nonzero;fill:rgb(100%,0%,0%);fill-opacity:1;stroke-width:0.75;stroke-linecap:round;stroke-linejoin:round;stroke:rgb(100%,0%,0%);stroke-opacity:1;stroke-miterlimit:10;" d="M 241.015625 352.195312 C 241.015625 354.59375 237.417969 354.59375 237.417969 352.195312 C 237.417969 349.796875 241.015625 349.796875 241.015625 352.195312 "/>
<path style="fill-rule:nonzero;fill:rgb(100%,0%,0%);fill-opacity:1;stroke-width:0.75;stroke-linecap:round;stroke-linejoin:round;stroke:rgb(100%,0%,0%);stroke-opacity:1;stroke-miterlimit:10;" d="M 17.757812 159.996094 C 17.757812 162.394531 14.15625 162.394531 14.15625 159.996094 C 14.15625 157.59375 17.757812 157.59375 17.757812 159.996094 "/>
<path style="fill-rule:nonzero;fill:rgb(100%,0%,0%);fill-opacity:1;stroke-width:0.75;stroke-linecap:round;stroke-linejoin:round;stroke:rgb(100%,0%,0%);stroke-opacity:1;stroke-miterlimit:10;" d="M 211.445312 358.746094 C 211.445312 361.148438 207.84375 361.148438 207.84375 358.746094 C 207.84375 356.347656 211.445312 356.347656 211.445312 358.746094 "/>
<path style="fill-rule:nonzero;fill:rgb(100%,0%,0%);fill-opacity:1;stroke-width:0.75;stroke-linecap:round;stroke-linejoin:round;stroke:rgb(100%,0%,0%);stroke-opacity:1;stroke-miterlimit:10;" d="M 361.949219 195.347656 C 361.949219 197.75 358.347656 197.75 358.347656 195.347656 C 358.347656 192.949219 361.949219 192.949219 361.949219 195.347656 "/>
<path style="fill-rule:nonzero;fill:rgb(100%,0%,0%);fill-opacity:1;stroke-width:0.75;stroke-linecap:round;stroke-linejoin:round;stroke:rgb(100%,0%,0%);stroke-opacity:1;stroke-miterlimit:10;" d="M 253.789062 347.609375 C 253.789062 350.007812 250.1875 350.007812 250.1875 347.609375 C 250.1875 345.210938 253.789062 345.210938 253.789062 347.609375 "/>
<path style="fill-rule:nonzero;fill:rgb(100%,0%,0%);fill-opacity:1;stroke-width:0.75;stroke-linecap:round;stroke-linejoin:round;stroke:rgb(100%,0%,0%);stroke-opacity:1;stroke-miterlimit:10;" d="M 73.546875 316.234375 C 73.546875 318.636719 69.945312 318.636719 69.945312 316.234375 C 69.945312 313.835938 73.546875 313.835938 73.546875 316.234375 "/>
<path style="fill-rule:nonzero;fill:rgb(100%,0%,0%);fill-opacity:1;stroke-width:0.75;stroke-linecap:round;stroke-linejoin:round;stroke:rgb(100%,0%,0%);stroke-opacity:1;stroke-miterlimit:10;" d="M 287.1875 329.640625 C 287.1875 332.039062 283.589844 332.039062 283.589844 329.640625 C 283.589844 327.242188 287.1875 327.242188 287.1875 329.640625 "/>
<path style="fill-rule:nonzero;fill:rgb(100%,0%,0%);fill-opacity:1;stroke-width:0.75;stroke-linecap:round;stroke-linejoin:round;stroke:rgb(100%,0%,0%);stroke-opacity:1;stroke-miterlimit:10;" d="M 15.65625 188.8125 C 15.65625 191.210938 12.054688 191.210938 12.054688 188.8125 C 12.054688 186.410156 15.65625 186.410156 15.65625 188.8125 "/>
<path style="fill-rule:nonzero;fill:rgb(100%,0%,0%);fill-opacity:1;stroke-width:0.75;stroke-linecap:round;stroke-linejoin:round;stroke:rgb(100%,0%,0%);stroke-opacity:1;stroke-miterlimit:10;" d="M 99.039062 335.09375 C 99.039062 337.496094 95.4375 337.496094 95.4375 335.09375 C 95.4375 332.695312 99.039062 332.695312 99.039062 335.09375 "/>
<path style="fill-rule:nonzero;fill:rgb(100%,0%,0%);fill-opacity:1;stroke-width:0.75;stroke-linecap:round;stroke-linejoin:round;stroke:rgb(100%,0%,0%);stroke-opacity:1;stroke-miterlimit:10;" d="M 16.109375 199.644531 C 16.109375 202.042969 12.507812 202.042969 12.507812 199.644531 C 12.507812 197.242188 16.109375 197.242188 16.109375 199.644531 "/>
<path style="fill-rule:nonzero;fill:rgb(100%,0%,0%);fill-opacity:1;stroke-width:0.75;stroke-linecap:round;stroke-linejoin:round;stroke:rgb(100%,0%,0%);stroke-opacity:1;stroke-miterlimit:10;" d="M 17.714844 213.679688 C 17.714844 216.082031 14.117188 216.082031 14.117188 213.679688 C 14.117188 211.28125 17.714844 211.28125 17.714844 213.679688 "/>
<path style="fill-rule:nonzero;fill:rgb(100%,0%,0%);fill-opacity:1;stroke-width:0.75;stroke-linecap:round;stroke-linejoin:round;stroke:rgb(100%,0%,0%);stroke-opacity:1;stroke-miterlimit:10;" d="M 89.71875 44.910156 C 89.71875 47.308594 86.121094 47.308594 86.121094 44.910156 C 86.121094 42.511719 89.71875 42.511719 89.71875 44.910156 "/>
<path style="fill-rule:nonzero;fill:rgb(100%,0%,0%);fill-opacity:1;stroke-width:0.75;stroke-linecap:round;stroke-linejoin:round;stroke:rgb(100%,0%,0%);stroke-opacity:1;stroke-miterlimit:10;" d="M 251.902344 348.359375 C 251.902344 350.757812 248.300781 350.757812 248.300781 348.359375 C 248.300781 345.957031 251.902344 345.957031 251.902344 348.359375 "/>
<path style="fill-rule:nonzero;fill:rgb(100%,0%,0%);fill-opacity:1;stroke-width:0.75;stroke-linecap:round;stroke-linejoin:round;stroke:rgb(100%,0%,0%);stroke-opacity:1;stroke-miterlimit:10;" d="M 227.78125 18.132812 C 227.78125 20.535156 224.179688 20.535156 224.179688 18.132812 C 224.179688 15.734375 227.78125 15.734375 227.78125 18.132812 "/>
<path style="fill-rule:nonzero;fill:rgb(100%,0%,0%);fill-opacity:1;stroke-width:0.75;stroke-linecap:round;stroke-linejoin:round;stroke:rgb(100%,0%,0%);stroke-opacity:1;stroke-miterlimit:10;" d="M 35.523438 106.390625 C 35.523438 108.792969 31.921875 108.792969 31.921875 106.390625 C 31.921875 103.992188 35.523438 103.992188 35.523438 106.390625 "/>
<path style="fill-rule:nonzero;fill:rgb(100%,0%,0%);fill-opacity:1;stroke-width:0.75;stroke-linecap:round;stroke-linejoin:round;stroke:rgb(100%,0%,0%);stroke-opacity:1;stroke-miterlimit:10;" d="M 64.378906 66.503906 C 64.378906 68.902344 60.777344 68.902344 60.777344 66.503906 C 60.777344 64.101562 64.378906 64.101562 64.378906 66.503906 "/>
<path style="fill-rule:nonzero;fill:rgb(100%,0%,0%);fill-opacity:1;stroke-width:0.75;stroke-linecap:round;stroke-linejoin:round;stroke:rgb(100%,0%,0%);stroke-opacity:1;stroke-miterlimit:10;" d="M 226.320312 356.128906 C 226.320312 358.53125 222.71875 358.53125 222.71875 356.128906 C 222.71875 353.730469 226.320312 353.730469 226.320312 356.128906 "/>
<path style="fill-rule:nonzero;fill:rgb(100%,0%,0%);fill-opacity:1;stroke-width:0.75;stroke-linecap:round;stroke-linejoin:round;stroke:rgb(100%,0%,0%);stroke-opacity:1;stroke-miterlimit:10;" d="M 74.613281 56.753906 C 74.613281 59.152344 71.011719 59.152344 71.011719 56.753906 C 71.011719 54.351562 74.613281 54.351562 74.613281 56.753906 "/>
<path style="fill-rule:nonzero;fill:rgb(100%,0%,0%);fill-opacity:1;stroke-width:0.75;stroke-linecap:round;stroke-linejoin:round;stroke:rgb(100%,0%,0%);stroke-opacity:1;stroke-miterlimit:10;" d="M 168.933594 359.066406 C 168.933594 361.464844 165.335938 361.464844 165.335938 359.066406 C 165.335938 356.667969 168.933594 356.667969 168.933594 359.066406 "/>
<path style="fill-rule:nonzero;fill:rgb(100%,0%,0%);fill-opacity:1;stroke-width:0.75;stroke-linecap:round;stroke-linejoin:round;stroke:rgb(100%,0%,0%);stroke-opacity:1;stroke-miterlimit:10;" d="M 62.355469 68.632812 C 62.355469 71.03125 58.753906 71.03125 58.753906 68.632812 C 58.753906 66.230469 62.355469 66.230469 62.355469 68.632812 "/>
<path style="fill-rule:nonzero;fill:rgb(100%,0%,0%);fill-opacity:1;stroke-width:0.75;stroke-linecap:round;stroke-linejoin:round;stroke:rgb(100%,0%,0%);stroke-opacity:1;stroke-miterlimit:10;" d="M 150.925781 356.007812 C 150.925781 358.40625 147.324219 358.40625 147.324219 356.007812 C 147.324219 353.609375 150.925781 353.609375 150.925781 356.007812 "/>
<path style="fill-rule:nonzero;fill:rgb(100%,0%,0%);fill-opacity:1;stroke-width:0.75;stroke-linecap:round;stroke-linejoin:round;stroke:rgb(100%,0%,0%);stroke-opacity:1;stroke-miterlimit:10;" d="M 357.476562 146.988281 C 357.476562 149.390625 353.875 149.390625 353.875 146.988281 C 353.875 144.589844 357.476562 144.589844 357.476562 146.988281 "/>
<path style="fill-rule:nonzero;fill:rgb(100%,0%,0%);fill-opacity:1;stroke-width:0.75;stroke-linecap:round;stroke-linejoin:round;stroke:rgb(100%,0%,0%);stroke-opacity:1;stroke-miterlimit:10;" d="M 15.652344 185.398438 C 15.652344 187.796875 12.050781 187.796875 12.050781 185.398438 C 12.050781 183 15.652344 183 15.652344 185.398438 "/>
<path style="fill-rule:nonzero;fill:rgb(100%,0%,0%);fill-opacity:1;stroke-width:0.75;stroke-linecap:round;stroke-linejoin:round;stroke:rgb(100%,0%,0%);stroke-opacity:1;stroke-miterlimit:10;" d="M 158.027344 357.449219 C 158.027344 359.847656 154.429688 359.847656 154.429688 357.449219 C 154.429688 355.046875 158.027344 355.046875 158.027344 357.449219 "/>
<path style="fill-rule:nonzero;fill:rgb(100%,0%,0%);fill-opacity:1;stroke-width:0.75;stroke-linecap:round;stroke-linejoin:round;stroke:rgb(100%,0%,0%);stroke-opacity:1;stroke-miterlimit:10;" d="M 360.574219 210.28125 C 360.574219 212.679688 356.976562 212.679688 356.976562 210.28125 C 356.976562 207.882812 360.574219 207.882812 360.574219 210.28125 "/>
<path style="fill-rule:nonzero;fill:rgb(100%,0%,0%);fill-opacity:1;stroke-width:0.75;stroke-linecap:round;stroke-linejoin:round;stroke:rgb(100%,0%,0%);stroke-opacity:1;stroke-miterlimit:10;" d="M 353.351562 241.480469 C 353.351562 243.878906 349.75 243.878906 349.75 241.480469 C 349.75 239.078125 353.351562 239.078125 353.351562 241.480469 "/>
<path style="fill-rule:nonzero;fill:rgb(100%,0%,0%);fill-opacity:1;stroke-width:0.75;stroke-linecap:round;stroke-linejoin:round;stroke:rgb(100%,0%,0%);stroke-opacity:1;stroke-miterlimit:10;" d="M 139.421875 20.929688 C 139.421875 23.328125 135.820312 23.328125 135.820312 20.929688 C 135.820312 18.527344 139.421875 18.527344 139.421875 20.929688 "/>
<path style="fill-rule:nonzero;fill:rgb(100%,0%,0%);fill-opacity:1;stroke-width:0.75;stroke-linecap:round;stroke-linejoin:round;stroke:rgb(100%,0%,0%);stroke-opacity:1;stroke-miterlimit:10;" d="M 178.75 14.011719 C 178.75 16.410156 175.152344 16.410156 175.152344 14.011719 C 175.152344 11.613281 178.75 11.613281 178.75 14.011719 "/>
<path style="fill-rule:nonzero;fill:rgb(100%,0%,0%);fill-opacity:1;stroke-width:0.75;stroke-linecap:round;stroke-linejoin:round;stroke:rgb(100%,0%,0%);stroke-opacity:1;stroke-miterlimit:10;" d="M 342.757812 266.617188 C 342.757812 269.015625 339.15625 269.015625 339.15625 266.617188 C 339.15625 264.214844 342.757812 264.214844 342.757812 266.617188 "/>
<path style="fill-rule:nonzero;fill:rgb(100%,0%,0%);fill-opacity:1;stroke-width:0.75;stroke-linecap:round;stroke-linejoin:round;stroke:rgb(100%,0%,0%);stroke-opacity:1;stroke-miterlimit:10;" d="M 169.386719 359.117188 C 169.386719 361.519531 165.789062 361.519531 165.789062 359.117188 C 165.789062 356.71875 169.386719 356.71875 169.386719 359.117188 "/>
<path style="fill-rule:nonzero;fill:rgb(100%,0%,0%);fill-opacity:1;stroke-width:0.75;stroke-linecap:round;stroke-linejoin:round;stroke:rgb(100%,0%,0%);stroke-opacity:1;stroke-miterlimit:10;" d="M 177.71875 359.859375 C 177.71875 362.257812 174.117188 362.257812 174.117188 359.859375 C 174.117188 357.460938 177.71875 357.460938 177.71875 359.859375 "/>
<path style="fill-rule:nonzero;fill:rgb(100%,0%,0%);fill-opacity:1;stroke-width:0.75;stroke-linecap:round;stroke-linejoin:round;stroke:rgb(100%,0%,0%);stroke-opacity:1;stroke-miterlimit:10;" d="M 44.652344 282.9375 C 44.652344 285.335938 41.054688 285.335938 41.054688 282.9375 C 41.054688 280.539062 44.652344 280.539062 44.652344 282.9375 "/>
<path style="fill-rule:nonzero;fill:rgb(100%,0%,0%);fill-opacity:1;stroke-width:0.75;stroke-linecap:round;stroke-linejoin:round;stroke:rgb(100%,0%,0%);stroke-opacity:1;stroke-miterlimit:10;" d="M 340.582031 103.253906 C 340.582031 105.652344 336.984375 105.652344 336.984375 103.253906 C 336.984375 100.851562 340.582031 100.851562 340.582031 103.253906 "/>
<path style="fill-rule:nonzero;fill:rgb(100%,0%,0%);fill-opacity:1;stroke-width:0.75;stroke-linecap:round;stroke-linejoin:round;stroke:rgb(100%,0%,0%);stroke-opacity:1;stroke-miterlimit:10;" d="M 243.84375 351.277344 C 243.84375 353.675781 240.246094 353.675781 240.246094 351.277344 C 240.246094 348.875 243.84375 348.875 243.84375 351.277344 "/>
<path style="fill-rule:nonzero;fill:rgb(100%,0%,0%);fill-opacity:1;stroke-width:0.75;stroke-linecap:round;stroke-linejoin:round;stroke:rgb(100%,0%,0%);stroke-opacity:1;stroke-miterlimit:10;" d="M 176.761719 14.140625 C 176.761719 16.539062 173.160156 16.539062 173.160156 14.140625 C 173.160156 11.738281 176.761719 11.738281 176.761719 14.140625 "/>
<path style="fill-rule:nonzero;fill:rgb(100%,0%,0%);fill-opacity:1;stroke-width:0.75;stroke-linecap:round;stroke-linejoin:round;stroke:rgb(100%,0%,0%);stroke-opacity:1;stroke-miterlimit:10;" d="M 153.121094 17.449219 C 153.121094 19.847656 149.519531 19.847656 149.519531 17.449219 C 149.519531 15.046875 153.121094 15.046875 153.121094 17.449219 "/>
<path style="fill-rule:nonzero;fill:rgb(100%,0%,0%);fill-opacity:1;stroke-width:0.75;stroke-linecap:round;stroke-linejoin:round;stroke:rgb(100%,0%,0%);stroke-opacity:1;stroke-miterlimit:10;" d="M 150.207031 355.84375 C 150.207031 358.246094 146.609375 358.246094 146.609375 355.84375 C 146.609375 353.445312 150.207031 353.445312 150.207031 355.84375 "/>
<path style="fill-rule:nonzero;fill:rgb(100%,0%,0%);fill-opacity:1;stroke-width:0.75;stroke-linecap:round;stroke-linejoin:round;stroke:rgb(100%,0%,0%);stroke-opacity:1;stroke-miterlimit:10;" d="M 306.074219 314.585938 C 306.074219 316.984375 302.472656 316.984375 302.472656 314.585938 C 302.472656 312.183594 306.074219 312.183594 306.074219 314.585938 "/>
<path style="fill-rule:nonzero;fill:rgb(100%,0%,0%);fill-opacity:1;stroke-width:0.75;stroke-linecap:round;stroke-linejoin:round;stroke:rgb(100%,0%,0%);stroke-opacity:1;stroke-miterlimit:10;" d="M 136.730469 352.179688 C 136.730469 354.578125 133.132812 354.578125 133.132812 352.179688 C 133.132812 349.78125 136.730469 349.78125 136.730469 352.179688 "/>
<path style="fill-rule:nonzero;fill:rgb(100%,0%,0%);fill-opacity:1;stroke-width:0.75;stroke-linecap:round;stroke-linejoin:round;stroke:rgb(100%,0%,0%);stroke-opacity:1;stroke-miterlimit:10;" d="M 349.261719 121.390625 C 349.261719 123.789062 345.660156 123.789062 345.660156 121.390625 C 345.660156 118.992188 349.261719 118.992188 349.261719 121.390625 "/>
<path style="fill-rule:nonzero;fill:rgb(100%,0%,0%);fill-opacity:1;stroke-width:0.75;stroke-linecap:round;stroke-linejoin:round;stroke:rgb(100%,0%,0%);stroke-opacity:1;stroke-miterlimit:10;" d="M 28.871094 120.578125 C 28.871094 122.976562 25.269531 122.976562 25.269531 120.578125 C 25.269531 118.175781 28.871094 118.175781 28.871094 120.578125 "/>
<path style="fill-rule:nonzero;fill:rgb(100%,0%,0%);fill-opacity:1;stroke-width:0.75;stroke-linecap:round;stroke-linejoin:round;stroke:rgb(100%,0%,0%);stroke-opacity:1;stroke-miterlimit:10;" d="M 104.816406 35.484375 C 104.816406 37.886719 101.214844 37.886719 101.214844 35.484375 C 101.214844 33.085938 104.816406 33.085938 104.816406 35.484375 "/>
<path style="fill-rule:nonzero;fill:rgb(100%,0%,0%);fill-opacity:1;stroke-width:0.75;stroke-linecap:round;stroke-linejoin:round;stroke:rgb(100%,0%,0%);stroke-opacity:1;stroke-miterlimit:10;" d="M 331.703125 285.0625 C 331.703125 287.464844 328.105469 287.464844 328.105469 285.0625 C 328.105469 282.664062 331.703125 282.664062 331.703125 285.0625 "/>
<path style="fill-rule:nonzero;fill:rgb(100%,0%,0%);fill-opacity:1;stroke-width:0.75;stroke-linecap:round;stroke-linejoin:round;stroke:rgb(100%,0%,0%);stroke-opacity:1;stroke-miterlimit:10;" d="M 27.765625 123.308594 C 27.765625 125.707031 24.164062 125.707031 24.164062 123.308594 C 24.164062 120.90625 27.765625 120.90625 27.765625 123.308594 "/>
<path style="fill-rule:nonzero;fill:rgb(100%,0%,0%);fill-opacity:1;stroke-width:0.75;stroke-linecap:round;stroke-linejoin:round;stroke:rgb(100%,0%,0%);stroke-opacity:1;stroke-miterlimit:10;" d="M 58.960938 72.367188 C 58.960938 74.769531 55.359375 74.769531 55.359375 72.367188 C 55.359375 69.96875 58.960938 69.96875 58.960938 72.367188 "/>
<path style="fill:none;stroke-width:0.75;stroke-linecap:round;stroke-linejoin:round;stroke:rgb(0%,0%,0%);stroke-opacity:1;stroke-miterlimit:10;" d="M 13.84375 374 L 360.351562 374 "/>
<path style="fill:none;stroke-width:0.75;stroke-linecap:round;stroke-linejoin:round;stroke:rgb(0%,0%,0%);stroke-opacity:1;stroke-miterlimit:10;" d="M 13.84375 374 L 13.84375 374 "/>
<path style="fill:none;stroke-width:0.75;stroke-linecap:round;stroke-linejoin:round;stroke:rgb(0%,0%,0%);stroke-opacity:1;stroke-miterlimit:10;" d="M 100.472656 374 L 100.472656 374 "/>
<path style="fill:none;stroke-width:0.75;stroke-linecap:round;stroke-linejoin:round;stroke:rgb(0%,0%,0%);stroke-opacity:1;stroke-miterlimit:10;" d="M 187.097656 374 L 187.097656 374 "/>
<path style="fill:none;stroke-width:0.75;stroke-linecap:round;stroke-linejoin:round;stroke:rgb(0%,0%,0%);stroke-opacity:1;stroke-miterlimit:10;" d="M 273.722656 374 L 273.722656 374 "/>
<path style="fill:none;stroke-width:0.75;stroke-linecap:round;stroke-linejoin:round;stroke:rgb(0%,0%,0%);stroke-opacity:1;stroke-miterlimit:10;" d="M 360.351562 374 L 360.351562 374 "/>
<path style="fill:none;stroke-width:0.75;stroke-linecap:round;stroke-linejoin:round;stroke:rgb(0%,0%,0%);stroke-opacity:1;stroke-miterlimit:10;" d="M 0 360.21875 L 0 13.714844 "/>
<path style="fill:none;stroke-width:0.75;stroke-linecap:round;stroke-linejoin:round;stroke:rgb(0%,0%,0%);stroke-opacity:1;stroke-miterlimit:10;" d="M 0 360.21875 L 0 360.21875 "/>
<path style="fill:none;stroke-width:0.75;stroke-linecap:round;stroke-linejoin:round;stroke:rgb(0%,0%,0%);stroke-opacity:1;stroke-miterlimit:10;" d="M 0 273.59375 L 0 273.59375 "/>
<path style="fill:none;stroke-width:0.75;stroke-linecap:round;stroke-linejoin:round;stroke:rgb(0%,0%,0%);stroke-opacity:1;stroke-miterlimit:10;" d="M 0 186.96875 L 0 186.96875 "/>
<path style="fill:none;stroke-width:0.75;stroke-linecap:round;stroke-linejoin:round;stroke:rgb(0%,0%,0%);stroke-opacity:1;stroke-miterlimit:10;" d="M 0 100.339844 L 0 100.339844 "/>
<path style="fill:none;stroke-width:0.75;stroke-linecap:round;stroke-linejoin:round;stroke:rgb(0%,0%,0%);stroke-opacity:1;stroke-miterlimit:10;" d="M 0 13.714844 L 0 13.714844 "/>
<path style="fill:none;stroke-width:0.75;stroke-linecap:round;stroke-linejoin:round;stroke:rgb(0%,0%,0%);stroke-opacity:1;stroke-miterlimit:10;" d="M 0 374 L 374 374 L 374 0 L 0 0 L 0 374 "/>
<path style="fill-rule:nonzero;fill:rgb(100%,75.294118%,79.607843%);fill-opacity:0.4;stroke-width:0.075;stroke-linecap:round;stroke-linejoin:round;stroke:rgb(100%,0%,0%);stroke-opacity:0.4;stroke-miterlimit:10;" d="M 317.039062 186.96875 L 316.78125 178.808594 L 316.011719 170.679688 L 314.734375 162.617188 L 312.957031 154.652344 L 310.679688 146.8125 L 307.914062 139.132812 L 304.671875 131.640625 L 300.964844 124.367188 L 296.808594 117.34375 L 292.222656 110.589844 L 287.21875 104.140625 L 281.820312 98.015625 L 276.046875 92.246094 L 269.925781 86.847656 L 263.476562 81.84375 L 256.722656 77.253906 L 249.695312 73.101562 L 242.421875 69.394531 L 234.933594 66.152344 L 227.25 63.386719 L 219.414062 61.109375 L 211.445312 59.328125 L 203.382812 58.050781 L 195.257812 57.285156 L 187.097656 57.027344 L 178.9375 57.285156 L 170.8125 58.050781 L 162.75 59.328125 L 154.78125 61.109375 L 146.945312 63.386719 L 139.265625 66.152344 L 131.773438 69.394531 L 124.5 73.101562 L 117.472656 77.253906 L 110.722656 81.84375 L 104.269531 86.847656 L 98.148438 92.246094 L 92.375 98.015625 L 86.976562 104.140625 L 81.972656 110.589844 L 77.386719 117.34375 L 73.230469 124.367188 L 69.523438 131.640625 L 66.28125 139.132812 L 63.519531 146.8125 L 61.242188 154.652344 L 59.460938 162.617188 L 58.183594 170.679688 L 57.414062 178.808594 L 57.15625 186.96875 L 57.414062 195.125 L 58.183594 203.253906 L 59.460938 211.316406 L 61.242188 219.28125 L 63.519531 227.121094 L 66.28125 234.800781 L 69.523438 242.292969 L 73.230469 249.566406 L 77.386719 256.59375 L 81.972656 263.34375 L 86.976562 269.792969 L 92.375 275.917969 L 98.148438 281.6875 L 104.269531 287.085938 L 110.722656 292.089844 L 117.472656 296.679688 L 124.5 300.835938 L 131.773438 304.539062 L 139.265625 307.78125 L 146.945312 310.546875 L 154.78125 312.824219 L 162.75 314.605469 L 170.8125 315.882812 L 178.9375 316.652344 L 187.097656 316.90625 L 195.257812 316.652344 L 203.382812 315.882812 L 211.445312 314.605469 L 219.414062 312.824219 L 227.25 310.546875 L 234.933594 307.78125 L 242.421875 304.539062 L 249.695312 300.835938 L 256.722656 296.679688 L 263.476562 292.089844 L 269.925781 287.085938 L 276.046875 281.6875 L 281.820312 275.917969 L 287.21875 269.792969 L 292.222656 263.34375 L 296.808594 256.59375 L 300.964844 249.566406 L 304.671875 242.292969 L 307.914062 234.800781 L 310.679688 227.121094 L 312.957031 219.28125 L 314.734375 211.316406 L 316.011719 203.253906 L 316.78125 195.125 Z M 317.039062 186.96875 "/>
<path style="fill-rule:nonzero;fill:rgb(100%,75.294118%,79.607843%);fill-opacity:0.4;stroke-width:0.075;stroke-linecap:round;stroke-linejoin:round;stroke:rgb(100%,0%,0%);stroke-opacity:0.4;stroke-miterlimit:10;" d="M 282.386719 186.96875 L 282.199219 180.984375 L 281.636719 175.023438 L 280.699219 169.113281 L 279.394531 163.269531 L 277.722656 157.519531 L 275.695312 151.890625 L 273.316406 146.394531 L 270.601562 141.0625 L 267.554688 135.910156 L 264.1875 130.957031 L 260.519531 126.226562 L 256.5625 121.738281 L 252.328125 117.503906 L 247.835938 113.546875 L 243.109375 109.875 L 238.15625 106.511719 L 233.003906 103.464844 L 227.671875 100.746094 L 222.175781 98.371094 L 216.542969 96.339844 L 210.796875 94.671875 L 204.953125 93.367188 L 199.039062 92.429688 L 193.082031 91.867188 L 187.097656 91.679688 L 181.113281 91.867188 L 175.15625 92.429688 L 169.242188 93.367188 L 163.402344 94.671875 L 157.652344 96.339844 L 152.019531 98.371094 L 146.527344 100.746094 L 141.191406 103.464844 L 136.039062 106.511719 L 131.089844 109.875 L 126.359375 113.546875 L 121.867188 117.503906 L 117.636719 121.738281 L 113.675781 126.226562 L 110.007812 130.957031 L 106.640625 135.910156 L 103.59375 141.0625 L 100.878906 146.394531 L 98.5 151.890625 L 96.472656 157.519531 L 94.800781 163.269531 L 93.496094 169.113281 L 92.558594 175.023438 L 91.996094 180.984375 L 91.808594 186.96875 L 91.996094 192.949219 L 92.558594 198.910156 L 93.496094 204.824219 L 94.800781 210.664062 L 96.472656 216.414062 L 98.5 222.046875 L 100.878906 227.539062 L 103.59375 232.875 L 106.640625 238.027344 L 110.007812 242.976562 L 113.675781 247.707031 L 117.636719 252.195312 L 121.867188 256.429688 L 126.359375 260.390625 L 131.089844 264.058594 L 136.039062 267.421875 L 141.191406 270.46875 L 146.527344 273.1875 L 152.019531 275.566406 L 157.652344 277.59375 L 163.402344 279.261719 L 169.242188 280.570312 L 175.15625 281.503906 L 181.113281 282.066406 L 187.097656 282.257812 L 193.082031 282.066406 L 199.039062 281.503906 L 204.953125 280.570312 L 210.796875 279.261719 L 216.542969 277.59375 L 222.175781 275.566406 L 227.671875 273.1875 L 233.003906 270.46875 L 238.15625 267.421875 L 243.109375 264.058594 L 247.835938 260.390625 L 252.328125 256.429688 L 256.5625 252.195312 L 260.519531 247.707031 L 264.1875 242.976562 L 267.554688 238.027344 L 270.601562 232.875 L 273.316406 227.539062 L 275.695312 222.046875 L 277.722656 216.414062 L 279.394531 210.664062 L 280.699219 204.824219 L 281.636719 198.910156 L 282.199219 192.949219 Z M 282.386719 186.96875 "/>
<path style="fill-rule:nonzero;fill:rgb(100%,75.294118%,79.607843%);fill-opacity:0.4;stroke-width:0.075;stroke-linecap:round;stroke-linejoin:round;stroke:rgb(100%,0%,0%);stroke-opacity:0.4;stroke-miterlimit:10;" d="M 351.6875 186.96875 L 351.363281 176.632812 L 350.390625 166.339844 L 348.773438 156.125 L 346.515625 146.035156 L 343.632812 136.105469 L 340.128906 126.378906 L 336.023438 116.886719 L 331.328125 107.675781 L 326.066406 98.773438 L 320.253906 90.222656 L 313.917969 82.054688 L 307.078125 74.296875 L 299.769531 66.984375 L 292.011719 60.148438 L 283.839844 53.8125 L 275.289062 48 L 266.390625 42.734375 L 257.175781 38.042969 L 247.6875 33.933594 L 237.960938 30.433594 L 228.03125 27.546875 L 217.9375 25.292969 L 207.726562 23.675781 L 197.433594 22.703125 L 187.097656 22.375 L 176.761719 22.703125 L 166.46875 23.675781 L 156.257812 25.292969 L 146.164062 27.546875 L 136.238281 30.433594 L 126.507812 33.933594 L 117.019531 38.042969 L 107.804688 42.734375 L 98.90625 48 L 90.355469 53.8125 L 82.183594 60.148438 L 74.429688 66.984375 L 67.117188 74.296875 L 60.277344 82.054688 L 53.941406 90.222656 L 48.128906 98.773438 L 42.867188 107.675781 L 38.171875 116.886719 L 34.066406 126.378906 L 30.5625 136.105469 L 27.679688 146.035156 L 25.421875 156.125 L 23.804688 166.339844 L 22.832031 176.632812 L 22.507812 186.96875 L 22.832031 197.300781 L 23.804688 207.597656 L 25.421875 217.808594 L 27.679688 227.898438 L 30.5625 237.828125 L 34.066406 247.558594 L 38.171875 257.046875 L 42.867188 266.257812 L 48.128906 275.160156 L 53.941406 283.710938 L 60.277344 291.882812 L 67.117188 299.636719 L 74.429688 306.949219 L 82.183594 313.785156 L 90.355469 320.125 L 98.90625 325.933594 L 107.804688 331.199219 L 117.019531 335.894531 L 126.507812 340 L 136.238281 343.503906 L 146.164062 346.386719 L 156.257812 348.640625 L 166.46875 350.261719 L 176.761719 351.234375 L 187.097656 351.558594 L 197.433594 351.234375 L 207.726562 350.261719 L 217.9375 348.640625 L 228.03125 346.386719 L 237.960938 343.503906 L 247.6875 340 L 257.175781 335.894531 L 266.390625 331.199219 L 275.289062 325.933594 L 283.839844 320.125 L 292.011719 313.785156 L 299.769531 306.949219 L 307.078125 299.636719 L 313.917969 291.882812 L 320.253906 283.710938 L 326.066406 275.160156 L 331.328125 266.257812 L 336.023438 257.046875 L 340.128906 247.558594 L 343.632812 237.828125 L 346.515625 227.898438 L 348.773438 217.808594 L 350.390625 207.597656 L 351.363281 197.300781 Z M 351.6875 186.96875 "/>
<path style="fill-rule:nonzero;fill:rgb(100%,75.294118%,79.607843%);fill-opacity:0.4;stroke-width:0.075;stroke-linecap:round;stroke-linejoin:round;stroke:rgb(100%,0%,0%);stroke-opacity:0.4;stroke-miterlimit:10;" d="M 247.738281 186.96875 L 247.617188 183.160156 L 247.257812 179.367188 L 246.664062 175.605469 L 245.832031 171.886719 L 244.769531 168.230469 L 243.476562 164.644531 L 241.964844 161.148438 L 240.234375 157.753906 L 238.296875 154.476562 L 236.15625 151.324219 L 233.820312 148.316406 L 231.300781 145.457031 L 228.609375 142.761719 L 225.75 140.246094 L 222.742188 137.910156 L 219.589844 135.769531 L 216.3125 133.828125 L 212.917969 132.101562 L 209.421875 130.585938 L 205.835938 129.296875 L 202.179688 128.234375 L 198.460938 127.402344 L 194.699219 126.808594 L 190.90625 126.449219 L 187.097656 126.328125 L 183.289062 126.449219 L 179.496094 126.808594 L 175.734375 127.402344 L 172.019531 128.234375 L 168.359375 129.296875 L 164.773438 130.585938 L 161.277344 132.101562 L 157.886719 133.828125 L 154.605469 135.769531 L 151.457031 137.910156 L 148.445312 140.246094 L 145.589844 142.761719 L 142.894531 145.457031 L 140.375 148.316406 L 138.039062 151.324219 L 135.898438 154.476562 L 133.960938 157.753906 L 132.230469 161.148438 L 130.71875 164.644531 L 129.425781 168.230469 L 128.363281 171.886719 L 127.535156 175.605469 L 126.9375 179.367188 L 126.578125 183.160156 L 126.460938 186.96875 L 126.578125 190.773438 L 126.9375 194.566406 L 127.535156 198.328125 L 128.363281 202.046875 L 129.425781 205.707031 L 130.71875 209.289062 L 132.230469 212.785156 L 133.960938 216.179688 L 135.898438 219.457031 L 138.039062 222.609375 L 140.375 225.621094 L 142.894531 228.476562 L 145.589844 231.171875 L 148.445312 233.691406 L 151.457031 236.023438 L 154.605469 238.164062 L 157.886719 240.105469 L 161.277344 241.835938 L 164.773438 243.347656 L 168.359375 244.636719 L 172.019531 245.699219 L 175.734375 246.53125 L 179.496094 247.128906 L 183.289062 247.484375 L 187.097656 247.605469 L 190.90625 247.484375 L 194.699219 247.128906 L 198.460938 246.53125 L 202.179688 245.699219 L 205.835938 244.636719 L 209.421875 243.347656 L 212.917969 241.835938 L 216.3125 240.105469 L 219.589844 238.164062 L 222.742188 236.023438 L 225.75 233.691406 L 228.609375 231.171875 L 231.300781 228.476562 L 233.820312 225.621094 L 236.15625 222.609375 L 238.296875 219.457031 L 240.234375 216.179688 L 241.964844 212.785156 L 243.476562 209.289062 L 244.769531 205.707031 L 245.832031 202.046875 L 246.664062 198.328125 L 247.257812 194.566406 L 247.617188 190.773438 Z M 247.738281 186.96875 "/>
<path style="fill-rule:nonzero;fill:rgb(100%,75.294118%,79.607843%);fill-opacity:0.4;stroke-width:0.075;stroke-linecap:round;stroke-linejoin:round;stroke:rgb(100%,0%,0%);stroke-opacity:0.4;stroke-miterlimit:10;" d="M 230.410156 186.96875 L 230.324219 184.246094 L 230.070312 181.539062 L 229.644531 178.851562 L 229.050781 176.195312 L 228.292969 173.582031 L 227.371094 171.023438 L 226.289062 168.523438 L 225.054688 166.101562 L 223.667969 163.757812 L 222.140625 161.507812 L 220.472656 159.359375 L 218.671875 157.316406 L 216.746094 155.394531 L 214.707031 153.59375 L 212.558594 151.925781 L 210.304688 150.398438 L 207.964844 149.011719 L 205.539062 147.777344 L 203.042969 146.695312 L 200.484375 145.773438 L 197.871094 145.015625 L 195.214844 144.421875 L 192.527344 143.996094 L 189.816406 143.738281 L 187.097656 143.652344 L 184.378906 143.738281 L 181.667969 143.996094 L 178.980469 144.421875 L 176.328125 145.015625 L 173.714844 145.773438 L 171.152344 146.695312 L 168.65625 147.777344 L 166.230469 149.011719 L 163.890625 150.398438 L 161.640625 151.925781 L 159.488281 153.59375 L 157.449219 155.394531 L 155.523438 157.316406 L 153.722656 159.359375 L 152.058594 161.507812 L 150.527344 163.757812 L 149.140625 166.101562 L 147.90625 168.523438 L 146.828125 171.023438 L 145.90625 173.582031 L 145.144531 176.195312 L 144.550781 178.851562 L 144.125 181.539062 L 143.871094 184.246094 L 143.785156 186.96875 L 143.871094 189.6875 L 144.125 192.394531 L 144.550781 195.082031 L 145.144531 197.738281 L 145.90625 200.351562 L 146.828125 202.910156 L 147.90625 205.410156 L 149.140625 207.832031 L 150.527344 210.175781 L 152.058594 212.425781 L 153.722656 214.574219 L 155.523438 216.617188 L 157.449219 218.542969 L 159.488281 220.339844 L 161.640625 222.007812 L 163.890625 223.539062 L 166.230469 224.921875 L 168.65625 226.15625 L 171.152344 227.238281 L 173.714844 228.160156 L 176.328125 228.917969 L 178.980469 229.511719 L 181.667969 229.9375 L 184.378906 230.195312 L 187.097656 230.28125 L 189.816406 230.195312 L 192.527344 229.9375 L 195.214844 229.511719 L 197.871094 228.917969 L 200.484375 228.160156 L 203.042969 227.238281 L 205.539062 226.15625 L 207.964844 224.921875 L 210.304688 223.539062 L 212.558594 222.007812 L 214.707031 220.339844 L 216.746094 218.542969 L 218.671875 216.617188 L 220.472656 214.574219 L 222.140625 212.425781 L 223.667969 210.175781 L 225.054688 207.832031 L 226.289062 205.410156 L 227.371094 202.910156 L 228.292969 200.351562 L 229.050781 197.738281 L 229.644531 195.082031 L 230.070312 192.394531 L 230.324219 189.6875 Z M 230.410156 186.96875 "/>
<path style="fill-rule:nonzero;fill:rgb(100%,75.294118%,79.607843%);fill-opacity:0.4;stroke-width:0.075;stroke-linecap:round;stroke-linejoin:round;stroke:rgb(100%,0%,0%);stroke-opacity:0.4;stroke-miterlimit:10;" d="M 213.085938 186.96875 L 213.035156 185.335938 L 212.882812 183.710938 L 212.625 182.097656 L 212.269531 180.503906 L 211.8125 178.9375 L 211.261719 177.398438 L 210.613281 175.902344 L 209.871094 174.449219 L 209.039062 173.042969 L 208.121094 171.691406 L 207.121094 170.402344 L 206.042969 169.175781 L 204.886719 168.023438 L 203.664062 166.941406 L 202.375 165.941406 L 201.023438 165.023438 L 199.617188 164.195312 L 198.164062 163.453125 L 196.664062 162.804688 L 195.128906 162.25 L 193.5625 161.796875 L 191.96875 161.441406 L 190.355469 161.183594 L 188.730469 161.03125 L 187.097656 160.980469 L 185.464844 161.03125 L 183.839844 161.183594 L 182.226562 161.441406 L 180.636719 161.796875 L 179.066406 162.25 L 177.53125 162.804688 L 176.03125 163.453125 L 174.578125 164.195312 L 173.171875 165.023438 L 171.824219 165.941406 L 170.53125 166.941406 L 169.308594 168.023438 L 168.152344 169.175781 L 167.074219 170.402344 L 166.074219 171.691406 L 165.15625 173.042969 L 164.324219 174.449219 L 163.582031 175.902344 L 162.933594 177.398438 L 162.382812 178.9375 L 161.925781 180.503906 L 161.570312 182.097656 L 161.316406 183.710938 L 161.160156 185.335938 L 161.109375 186.96875 L 161.160156 188.597656 L 161.316406 190.222656 L 161.570312 191.835938 L 161.925781 193.429688 L 162.382812 194.996094 L 162.933594 196.535156 L 163.582031 198.03125 L 164.324219 199.488281 L 165.15625 200.890625 L 166.074219 202.242188 L 167.074219 203.53125 L 168.152344 204.757812 L 169.308594 205.910156 L 170.53125 206.992188 L 171.824219 207.992188 L 173.171875 208.910156 L 174.578125 209.742188 L 176.03125 210.480469 L 177.53125 211.128906 L 179.066406 211.683594 L 180.636719 212.136719 L 182.226562 212.496094 L 183.839844 212.75 L 185.464844 212.902344 L 187.097656 212.957031 L 188.730469 212.902344 L 190.355469 212.75 L 191.96875 212.496094 L 193.5625 212.136719 L 195.128906 211.683594 L 196.664062 211.128906 L 198.164062 210.480469 L 199.617188 209.742188 L 201.023438 208.910156 L 202.375 207.992188 L 203.664062 206.992188 L 204.886719 205.910156 L 206.042969 204.757812 L 207.121094 203.53125 L 208.121094 202.242188 L 209.039062 200.890625 L 209.871094 199.488281 L 210.613281 198.03125 L 211.261719 196.535156 L 211.8125 194.996094 L 212.269531 193.429688 L 212.625 191.835938 L 212.882812 190.222656 L 213.035156 188.597656 Z M 213.085938 186.96875 "/>
</g>
</svg>
