<?xml version="1.0" encoding="UTF-8"?>
<svg xmlns="http://www.w3.org/2000/svg" xmlns:xlink="http://www.w3.org/1999/xlink" width="525pt" height="525pt" viewBox="0 0 525 525" version="1.1">
<g id="surface91">
<rect x="0" y="0" width="525" height="525" style="fill:rgb(100%,100%,100%);fill-opacity:1;stroke:none;"/>
<path style="fill-rule:nonzero;fill:rgb(100%,49.803922%,31.372549%);fill-opacity:1;stroke-width:0.75;stroke-linecap:round;stroke-linejoin:round;stroke:rgb(100%,49.803922%,31.372549%);stroke-opacity:1;stroke-miterlimit:10;" d="M 398.902344 149.664062 C 398.902344 151.582031 396.023438 151.582031 396.023438 149.664062 C 396.023438 147.742188 398.902344 147.742188 398.902344 149.664062 "/>
<path style="fill-rule:nonzero;fill:rgb(100%,49.803922%,31.372549%);fill-opacity:1;stroke-width:0.75;stroke-linecap:round;stroke-linejoin:round;stroke:rgb(100%,49.803922%,31.372549%);stroke-opacity:1;stroke-miterlimit:10;" d="M 166.691406 349.449219 C 166.691406 351.367188 163.808594 351.367188 163.808594 349.449219 C 163.808594 347.527344 166.691406 347.527344 166.691406 349.449219 "/>
<path style="fill-rule:nonzero;fill:rgb(100%,49.803922%,31.372549%);fill-opacity:1;stroke-width:0.75;stroke-linecap:round;stroke-linejoin:round;stroke:rgb(100%,49.803922%,31.372549%);stroke-opacity:1;stroke-miterlimit:10;" d="M 158.121094 340.40625 C 158.121094 342.328125 155.242188 342.328125 155.242188 340.40625 C 155.242188 338.484375 158.121094 338.484375 158.121094 340.40625 "/>
<path style="fill-rule:nonzero;fill:rgb(100%,49.803922%,31.372549%);fill-opacity:1;stroke-width:0.75;stroke-linecap:round;stroke-linejoin:round;stroke:rgb(100%,49.803922%,31.372549%);stroke-opacity:1;stroke-miterlimit:10;" d="M 167.4375 350.167969 C 167.4375 352.085938 164.554688 352.085938 164.554688 350.167969 C 164.554688 348.246094 167.4375 348.246094 167.4375 350.167969 "/>
<path style="fill-rule:nonzero;fill:rgb(100%,49.803922%,31.372549%);fill-opacity:1;stroke-width:0.75;stroke-linecap:round;stroke-linejoin:round;stroke:rgb(100%,49.803922%,31.372549%);stroke-opacity:1;stroke-miterlimit:10;" d="M 381.007812 360.074219 C 381.007812 361.996094 378.128906 361.996094 378.128906 360.074219 C 378.128906 358.15625 381.007812 358.15625 381.007812 360.074219 "/>
<path style="fill-rule:nonzero;fill:rgb(100%,49.803922%,31.372549%);fill-opacity:1;stroke-width:0.75;stroke-linecap:round;stroke-linejoin:round;stroke:rgb(100%,49.803922%,31.372549%);stroke-opacity:1;stroke-miterlimit:10;" d="M 179.773438 360.804688 C 179.773438 362.722656 176.894531 362.722656 176.894531 360.804688 C 176.894531 358.882812 179.773438 358.882812 179.773438 360.804688 "/>
<path style="fill-rule:nonzero;fill:rgb(100%,49.803922%,31.372549%);fill-opacity:1;stroke-width:0.75;stroke-linecap:round;stroke-linejoin:round;stroke:rgb(100%,49.803922%,31.372549%);stroke-opacity:1;stroke-miterlimit:10;" d="M 437.132812 237.785156 C 437.132812 239.707031 434.253906 239.707031 434.253906 237.785156 C 434.253906 235.863281 437.132812 235.863281 437.132812 237.785156 "/>
<path style="fill-rule:nonzero;fill:rgb(100%,49.803922%,31.372549%);fill-opacity:1;stroke-width:0.75;stroke-linecap:round;stroke-linejoin:round;stroke:rgb(100%,49.803922%,31.372549%);stroke-opacity:1;stroke-miterlimit:10;" d="M 297.15625 99.527344 C 297.15625 101.449219 294.277344 101.449219 294.277344 99.527344 C 294.277344 97.609375 297.15625 97.609375 297.15625 99.527344 "/>
<path style="fill-rule:nonzero;fill:rgb(100%,49.803922%,31.372549%);fill-opacity:1;stroke-width:0.75;stroke-linecap:round;stroke-linejoin:round;stroke:rgb(100%,49.803922%,31.372549%);stroke-opacity:1;stroke-miterlimit:10;" d="M 200.683594 374.480469 C 200.683594 376.402344 197.800781 376.402344 197.800781 374.480469 C 197.800781 372.5625 200.683594 372.5625 200.683594 374.480469 "/>
<path style="fill-rule:nonzero;fill:rgb(100%,49.803922%,31.372549%);fill-opacity:1;stroke-width:0.75;stroke-linecap:round;stroke-linejoin:round;stroke:rgb(100%,49.803922%,31.372549%);stroke-opacity:1;stroke-miterlimit:10;" d="M 123.066406 259.839844 C 123.066406 261.761719 120.1875 261.761719 120.1875 259.839844 C 120.1875 257.921875 123.066406 257.921875 123.066406 259.839844 "/>
<path style="fill-rule:nonzero;fill:rgb(100%,49.803922%,31.372549%);fill-opacity:1;stroke-width:0.75;stroke-linecap:round;stroke-linejoin:round;stroke:rgb(100%,49.803922%,31.372549%);stroke-opacity:1;stroke-miterlimit:10;" d="M 225.269531 385.378906 C 225.269531 387.300781 222.386719 387.300781 222.386719 385.378906 C 222.386719 383.460938 225.269531 383.460938 225.269531 385.378906 "/>
<path style="fill-rule:nonzero;fill:rgb(100%,49.803922%,31.372549%);fill-opacity:1;stroke-width:0.75;stroke-linecap:round;stroke-linejoin:round;stroke:rgb(100%,49.803922%,31.372549%);stroke-opacity:1;stroke-miterlimit:10;" d="M 128.683594 287.867188 C 128.683594 289.789062 125.804688 289.789062 125.804688 287.867188 C 125.804688 285.949219 128.683594 285.949219 128.683594 287.867188 "/>
<path style="fill-rule:nonzero;fill:rgb(100%,49.803922%,31.372549%);fill-opacity:1;stroke-width:0.75;stroke-linecap:round;stroke-linejoin:round;stroke:rgb(100%,49.803922%,31.372549%);stroke-opacity:1;stroke-miterlimit:10;" d="M 247.761719 101.757812 C 247.761719 103.679688 244.882812 103.679688 244.882812 101.757812 C 244.882812 99.839844 247.761719 99.839844 247.761719 101.757812 "/>
<path style="fill-rule:nonzero;fill:rgb(100%,49.803922%,31.372549%);fill-opacity:1;stroke-width:0.75;stroke-linecap:round;stroke-linejoin:round;stroke:rgb(100%,49.803922%,31.372549%);stroke-opacity:1;stroke-miterlimit:10;" d="M 419.539062 315.078125 C 419.539062 317 416.65625 317 416.65625 315.078125 C 416.65625 313.160156 419.539062 313.160156 419.539062 315.078125 "/>
<path style="fill-rule:nonzero;fill:rgb(100%,49.803922%,31.372549%);fill-opacity:1;stroke-width:0.75;stroke-linecap:round;stroke-linejoin:round;stroke:rgb(100%,49.803922%,31.372549%);stroke-opacity:1;stroke-miterlimit:10;" d="M 238.542969 103.839844 C 238.542969 105.757812 235.664062 105.757812 235.664062 103.839844 C 235.664062 101.917969 238.542969 101.917969 238.542969 103.839844 "/>
<path style="fill-rule:nonzero;fill:rgb(100%,49.803922%,31.372549%);fill-opacity:1;stroke-width:0.75;stroke-linecap:round;stroke-linejoin:round;stroke:rgb(100%,49.803922%,31.372549%);stroke-opacity:1;stroke-miterlimit:10;" d="M 362.039062 372.871094 C 362.039062 374.792969 359.160156 374.792969 359.160156 372.871094 C 359.160156 370.953125 362.039062 370.953125 362.039062 372.871094 "/>
<path style="fill-rule:nonzero;fill:rgb(100%,49.803922%,31.372549%);fill-opacity:1;stroke-width:0.75;stroke-linecap:round;stroke-linejoin:round;stroke:rgb(100%,49.803922%,31.372549%);stroke-opacity:1;stroke-miterlimit:10;" d="M 244.390625 102.457031 C 244.390625 104.375 241.507812 104.375 241.507812 102.457031 C 241.507812 100.535156 244.390625 100.535156 244.390625 102.457031 "/>
<path style="fill-rule:nonzero;fill:rgb(100%,49.803922%,31.372549%);fill-opacity:1;stroke-width:0.75;stroke-linecap:round;stroke-linejoin:round;stroke:rgb(100%,49.803922%,31.372549%);stroke-opacity:1;stroke-miterlimit:10;" d="M 263.3125 99.464844 C 263.3125 101.386719 260.429688 101.386719 260.429688 99.464844 C 260.429688 97.546875 263.3125 97.546875 263.3125 99.464844 "/>
<path style="fill-rule:nonzero;fill:rgb(100%,49.803922%,31.372549%);fill-opacity:1;stroke-width:0.75;stroke-linecap:round;stroke-linejoin:round;stroke:rgb(100%,49.803922%,31.372549%);stroke-opacity:1;stroke-miterlimit:10;" d="M 340.902344 110.179688 C 340.902344 112.101562 338.023438 112.101562 338.023438 110.179688 C 338.023438 108.261719 340.902344 108.261719 340.902344 110.179688 "/>
<path style="fill-rule:nonzero;fill:rgb(100%,49.803922%,31.372549%);fill-opacity:1;stroke-width:0.75;stroke-linecap:round;stroke-linejoin:round;stroke:rgb(100%,49.803922%,31.372549%);stroke-opacity:1;stroke-miterlimit:10;" d="M 297.476562 99.5625 C 297.476562 101.480469 294.597656 101.480469 294.597656 99.5625 C 294.597656 97.640625 297.476562 97.640625 297.476562 99.5625 "/>
<path style="fill-rule:nonzero;fill:rgb(100%,49.803922%,31.372549%);fill-opacity:1;stroke-width:0.75;stroke-linecap:round;stroke-linejoin:round;stroke:rgb(100%,49.803922%,31.372549%);stroke-opacity:1;stroke-miterlimit:10;" d="M 215.917969 111.410156 C 215.917969 113.332031 213.039062 113.332031 213.039062 111.410156 C 213.039062 109.492188 215.917969 109.492188 215.917969 111.410156 "/>
<path style="fill-rule:nonzero;fill:rgb(100%,49.803922%,31.372549%);fill-opacity:1;stroke-width:0.75;stroke-linecap:round;stroke-linejoin:round;stroke:rgb(100%,49.803922%,31.372549%);stroke-opacity:1;stroke-miterlimit:10;" d="M 228.730469 106.675781 C 228.730469 108.597656 225.851562 108.597656 225.851562 106.675781 C 225.851562 104.757812 228.730469 104.757812 228.730469 106.675781 "/>
<path style="fill-rule:nonzero;fill:rgb(100%,49.803922%,31.372549%);fill-opacity:1;stroke-width:0.75;stroke-linecap:round;stroke-linejoin:round;stroke:rgb(100%,49.803922%,31.372549%);stroke-opacity:1;stroke-miterlimit:10;" d="M 365.105469 122.152344 C 365.105469 124.070312 362.226562 124.070312 362.226562 122.152344 C 362.226562 120.230469 365.105469 120.230469 365.105469 122.152344 "/>
<path style="fill-rule:nonzero;fill:rgb(100%,49.803922%,31.372549%);fill-opacity:1;stroke-width:0.75;stroke-linecap:round;stroke-linejoin:round;stroke:rgb(100%,49.803922%,31.372549%);stroke-opacity:1;stroke-miterlimit:10;" d="M 432.464844 209.8125 C 432.464844 211.734375 429.585938 211.734375 429.585938 209.8125 C 429.585938 207.894531 432.464844 207.894531 432.464844 209.8125 "/>
<path style="fill-rule:nonzero;fill:rgb(100%,49.803922%,31.372549%);fill-opacity:1;stroke-width:0.75;stroke-linecap:round;stroke-linejoin:round;stroke:rgb(100%,49.803922%,31.372549%);stroke-opacity:1;stroke-miterlimit:10;" d="M 310.601562 101.472656 C 310.601562 103.394531 307.722656 103.394531 307.722656 101.472656 C 307.722656 99.554688 310.601562 99.554688 310.601562 101.472656 "/>
<path style="fill-rule:nonzero;fill:rgb(100%,49.803922%,31.372549%);fill-opacity:1;stroke-width:0.75;stroke-linecap:round;stroke-linejoin:round;stroke:rgb(100%,49.803922%,31.372549%);stroke-opacity:1;stroke-miterlimit:10;" d="M 338.449219 383.980469 C 338.449219 385.898438 335.570312 385.898438 335.570312 383.980469 C 335.570312 382.058594 338.449219 382.058594 338.449219 383.980469 "/>
<path style="fill-rule:nonzero;fill:rgb(100%,49.803922%,31.372549%);fill-opacity:1;stroke-width:0.75;stroke-linecap:round;stroke-linejoin:round;stroke:rgb(100%,49.803922%,31.372549%);stroke-opacity:1;stroke-miterlimit:10;" d="M 124.484375 270.394531 C 124.484375 272.316406 121.605469 272.316406 121.605469 270.394531 C 121.605469 268.476562 124.484375 268.476562 124.484375 270.394531 "/>
<path style="fill-rule:nonzero;fill:rgb(100%,49.803922%,31.372549%);fill-opacity:1;stroke-width:0.75;stroke-linecap:round;stroke-linejoin:round;stroke:rgb(100%,49.803922%,31.372549%);stroke-opacity:1;stroke-miterlimit:10;" d="M 415.308594 322.203125 C 415.308594 324.125 412.429688 324.125 412.429688 322.203125 C 412.429688 320.285156 415.308594 320.285156 415.308594 322.203125 "/>
<path style="fill-rule:nonzero;fill:rgb(100%,49.803922%,31.372549%);fill-opacity:1;stroke-width:0.75;stroke-linecap:round;stroke-linejoin:round;stroke:rgb(100%,49.803922%,31.372549%);stroke-opacity:1;stroke-miterlimit:10;" d="M 356.960938 375.667969 C 356.960938 377.585938 354.078125 377.585938 354.078125 375.667969 C 354.078125 373.746094 356.960938 373.746094 356.960938 375.667969 "/>
<path style="fill-rule:nonzero;fill:rgb(100%,49.803922%,31.372549%);fill-opacity:1;stroke-width:0.75;stroke-linecap:round;stroke-linejoin:round;stroke:rgb(100%,49.803922%,31.372549%);stroke-opacity:1;stroke-miterlimit:10;" d="M 430.945312 204.640625 C 430.945312 206.558594 428.066406 206.558594 428.066406 204.640625 C 428.066406 202.71875 430.945312 202.71875 430.945312 204.640625 "/>
<path style="fill-rule:nonzero;fill:rgb(100%,49.803922%,31.372549%);fill-opacity:1;stroke-width:0.75;stroke-linecap:round;stroke-linejoin:round;stroke:rgb(100%,49.803922%,31.372549%);stroke-opacity:1;stroke-miterlimit:10;" d="M 128.390625 206.300781 C 128.390625 208.222656 125.511719 208.222656 125.511719 206.300781 C 125.511719 204.382812 128.390625 204.382812 128.390625 206.300781 "/>
<path style="fill-rule:nonzero;fill:rgb(100%,49.803922%,31.372549%);fill-opacity:1;stroke-width:0.75;stroke-linecap:round;stroke-linejoin:round;stroke:rgb(100%,49.803922%,31.372549%);stroke-opacity:1;stroke-miterlimit:10;" d="M 264.921875 99.3125 C 264.921875 101.234375 262.039062 101.234375 262.039062 99.3125 C 262.039062 97.394531 264.921875 97.394531 264.921875 99.3125 "/>
<path style="fill-rule:nonzero;fill:rgb(100%,49.803922%,31.372549%);fill-opacity:1;stroke-width:0.75;stroke-linecap:round;stroke-linejoin:round;stroke:rgb(100%,49.803922%,31.372549%);stroke-opacity:1;stroke-miterlimit:10;" d="M 226.882812 107.285156 C 226.882812 109.203125 224.003906 109.203125 224.003906 107.285156 C 224.003906 105.363281 226.882812 105.363281 226.882812 107.285156 "/>
<path style="fill-rule:nonzero;fill:rgb(100%,49.803922%,31.372549%);fill-opacity:1;stroke-width:0.75;stroke-linecap:round;stroke-linejoin:round;stroke:rgb(100%,49.803922%,31.372549%);stroke-opacity:1;stroke-miterlimit:10;" d="M 122.601562 253.398438 C 122.601562 255.320312 119.722656 255.320312 119.722656 253.398438 C 119.722656 251.480469 122.601562 251.480469 122.601562 253.398438 "/>
<path style="fill-rule:nonzero;fill:rgb(100%,49.803922%,31.372549%);fill-opacity:1;stroke-width:0.75;stroke-linecap:round;stroke-linejoin:round;stroke:rgb(100%,49.803922%,31.372549%);stroke-opacity:1;stroke-miterlimit:10;" d="M 345.996094 112.292969 C 345.996094 114.210938 343.117188 114.210938 343.117188 112.292969 C 343.117188 110.371094 345.996094 110.371094 345.996094 112.292969 "/>
<path style="fill-rule:nonzero;fill:rgb(100%,49.803922%,31.372549%);fill-opacity:1;stroke-width:0.75;stroke-linecap:round;stroke-linejoin:round;stroke:rgb(100%,49.803922%,31.372549%);stroke-opacity:1;stroke-miterlimit:10;" d="M 289.488281 394.304688 C 289.488281 396.222656 286.609375 396.222656 286.609375 394.304688 C 286.609375 392.382812 289.488281 392.382812 289.488281 394.304688 "/>
<path style="fill-rule:nonzero;fill:rgb(100%,49.803922%,31.372549%);fill-opacity:1;stroke-width:0.75;stroke-linecap:round;stroke-linejoin:round;stroke:rgb(100%,49.803922%,31.372549%);stroke-opacity:1;stroke-miterlimit:10;" d="M 327.414062 105.527344 C 327.414062 107.449219 324.535156 107.449219 324.535156 105.527344 C 324.535156 103.609375 327.414062 103.609375 327.414062 105.527344 "/>
<path style="fill-rule:nonzero;fill:rgb(100%,49.803922%,31.372549%);fill-opacity:1;stroke-width:0.75;stroke-linecap:round;stroke-linejoin:round;stroke:rgb(100%,49.803922%,31.372549%);stroke-opacity:1;stroke-miterlimit:10;" d="M 271.210938 98.867188 C 271.210938 100.785156 268.332031 100.785156 268.332031 98.867188 C 268.332031 96.945312 271.210938 96.945312 271.210938 98.867188 "/>
<path style="fill-rule:nonzero;fill:rgb(100%,49.803922%,31.372549%);fill-opacity:1;stroke-width:0.75;stroke-linecap:round;stroke-linejoin:round;stroke:rgb(100%,49.803922%,31.372549%);stroke-opacity:1;stroke-miterlimit:10;" d="M 437.222656 253.902344 C 437.222656 255.824219 434.34375 255.824219 434.34375 253.902344 C 434.34375 251.984375 437.222656 251.984375 437.222656 253.902344 "/>
<path style="fill-rule:nonzero;fill:rgb(100%,49.803922%,31.372549%);fill-opacity:1;stroke-width:0.75;stroke-linecap:round;stroke-linejoin:round;stroke:rgb(100%,49.803922%,31.372549%);stroke-opacity:1;stroke-miterlimit:10;" d="M 335.457031 385.074219 C 335.457031 386.992188 332.578125 386.992188 332.578125 385.074219 C 332.578125 383.152344 335.457031 383.152344 335.457031 385.074219 "/>
<path style="fill-rule:nonzero;fill:rgb(100%,49.803922%,31.372549%);fill-opacity:1;stroke-width:0.75;stroke-linecap:round;stroke-linejoin:round;stroke:rgb(100%,49.803922%,31.372549%);stroke-opacity:1;stroke-miterlimit:10;" d="M 131.195312 295.269531 C 131.195312 297.191406 128.316406 297.191406 128.316406 295.269531 C 128.316406 293.351562 131.195312 293.351562 131.195312 295.269531 "/>
<path style="fill-rule:nonzero;fill:rgb(100%,49.803922%,31.372549%);fill-opacity:1;stroke-width:0.75;stroke-linecap:round;stroke-linejoin:round;stroke:rgb(100%,49.803922%,31.372549%);stroke-opacity:1;stroke-miterlimit:10;" d="M 184.503906 364.324219 C 184.503906 366.242188 181.621094 366.242188 181.621094 364.324219 C 181.621094 362.402344 184.503906 362.402344 184.503906 364.324219 "/>
<path style="fill-rule:nonzero;fill:rgb(100%,49.803922%,31.372549%);fill-opacity:1;stroke-width:0.75;stroke-linecap:round;stroke-linejoin:round;stroke:rgb(100%,49.803922%,31.372549%);stroke-opacity:1;stroke-miterlimit:10;" d="M 220.273438 109.664062 C 220.273438 111.585938 217.394531 111.585938 217.394531 109.664062 C 217.394531 107.746094 220.273438 107.746094 220.273438 109.664062 "/>
<path style="fill-rule:nonzero;fill:rgb(100%,49.803922%,31.372549%);fill-opacity:1;stroke-width:0.75;stroke-linecap:round;stroke-linejoin:round;stroke:rgb(100%,49.803922%,31.372549%);stroke-opacity:1;stroke-miterlimit:10;" d="M 166.359375 349.125 C 166.359375 351.046875 163.480469 351.046875 163.480469 349.125 C 163.480469 347.207031 166.359375 347.207031 166.359375 349.125 "/>
<path style="fill-rule:nonzero;fill:rgb(100%,49.803922%,31.372549%);fill-opacity:1;stroke-width:0.75;stroke-linecap:round;stroke-linejoin:round;stroke:rgb(100%,49.803922%,31.372549%);stroke-opacity:1;stroke-miterlimit:10;" d="M 204.253906 116.839844 C 204.253906 118.761719 201.375 118.761719 201.375 116.839844 C 201.375 114.917969 204.253906 114.917969 204.253906 116.839844 "/>
<path style="fill-rule:nonzero;fill:rgb(100%,49.803922%,31.372549%);fill-opacity:1;stroke-width:0.75;stroke-linecap:round;stroke-linejoin:round;stroke:rgb(100%,49.803922%,31.372549%);stroke-opacity:1;stroke-miterlimit:10;" d="M 122.449219 248.464844 C 122.449219 250.386719 119.570312 250.386719 119.570312 248.464844 C 119.570312 246.546875 122.449219 246.546875 122.449219 248.464844 "/>
<path style="fill-rule:nonzero;fill:rgb(100%,49.803922%,31.372549%);fill-opacity:1;stroke-width:0.75;stroke-linecap:round;stroke-linejoin:round;stroke:rgb(100%,49.803922%,31.372549%);stroke-opacity:1;stroke-miterlimit:10;" d="M 210.28125 379.320312 C 210.28125 381.242188 207.398438 381.242188 207.398438 379.320312 C 207.398438 377.402344 210.28125 377.402344 210.28125 379.320312 "/>
<path style="fill-rule:nonzero;fill:rgb(100%,49.803922%,31.372549%);fill-opacity:1;stroke-width:0.75;stroke-linecap:round;stroke-linejoin:round;stroke:rgb(100%,49.803922%,31.372549%);stroke-opacity:1;stroke-miterlimit:10;" d="M 123.136719 232.675781 C 123.136719 234.59375 120.257812 234.59375 120.257812 232.675781 C 120.257812 230.753906 123.136719 230.753906 123.136719 232.675781 "/>
<path style="fill-rule:nonzero;fill:rgb(100%,49.803922%,31.372549%);fill-opacity:1;stroke-width:0.75;stroke-linecap:round;stroke-linejoin:round;stroke:rgb(100%,49.803922%,31.372549%);stroke-opacity:1;stroke-miterlimit:10;" d="M 285.929688 98.746094 C 285.929688 100.667969 283.050781 100.667969 283.050781 98.746094 C 283.050781 96.828125 285.929688 96.828125 285.929688 98.746094 "/>
<path style="fill-rule:nonzero;fill:rgb(100%,49.803922%,31.372549%);fill-opacity:1;stroke-width:0.75;stroke-linecap:round;stroke-linejoin:round;stroke:rgb(100%,49.803922%,31.372549%);stroke-opacity:1;stroke-miterlimit:10;" d="M 295.199219 393.878906 C 295.199219 395.800781 292.320312 395.800781 292.320312 393.878906 C 292.320312 391.960938 295.199219 391.960938 295.199219 393.878906 "/>
<path style="fill-rule:nonzero;fill:rgb(100%,49.803922%,31.372549%);fill-opacity:1;stroke-width:0.75;stroke-linecap:round;stroke-linejoin:round;stroke:rgb(100%,49.803922%,31.372549%);stroke-opacity:1;stroke-miterlimit:10;" d="M 420.792969 180.445312 C 420.792969 182.363281 417.914062 182.363281 417.914062 180.445312 C 417.914062 178.523438 420.792969 178.523438 420.792969 180.445312 "/>
<path style="fill-rule:nonzero;fill:rgb(100%,49.803922%,31.372549%);fill-opacity:1;stroke-width:0.75;stroke-linecap:round;stroke-linejoin:round;stroke:rgb(100%,49.803922%,31.372549%);stroke-opacity:1;stroke-miterlimit:10;" d="M 222.238281 108.925781 C 222.238281 110.84375 219.359375 110.84375 219.359375 108.925781 C 219.359375 107.003906 222.238281 107.003906 222.238281 108.925781 "/>
<path style="fill-rule:nonzero;fill:rgb(100%,49.803922%,31.372549%);fill-opacity:1;stroke-width:0.75;stroke-linecap:round;stroke-linejoin:round;stroke:rgb(100%,49.803922%,31.372549%);stroke-opacity:1;stroke-miterlimit:10;" d="M 247.765625 391.460938 C 247.765625 393.378906 244.886719 393.378906 244.886719 391.460938 C 244.886719 389.539062 247.765625 389.539062 247.765625 391.460938 "/>
<path style="fill-rule:nonzero;fill:rgb(100%,49.803922%,31.372549%);fill-opacity:1;stroke-width:0.75;stroke-linecap:round;stroke-linejoin:round;stroke:rgb(100%,49.803922%,31.372549%);stroke-opacity:1;stroke-miterlimit:10;" d="M 122.5 250.835938 C 122.5 252.753906 119.621094 252.753906 119.621094 250.835938 C 119.621094 248.914062 122.5 248.914062 122.5 250.835938 "/>
<path style="fill-rule:nonzero;fill:rgb(100%,49.803922%,31.372549%);fill-opacity:1;stroke-width:0.75;stroke-linecap:round;stroke-linejoin:round;stroke:rgb(100%,49.803922%,31.372549%);stroke-opacity:1;stroke-miterlimit:10;" d="M 370.078125 125.28125 C 370.078125 127.203125 367.195312 127.203125 367.195312 125.28125 C 367.195312 123.363281 370.078125 123.363281 370.078125 125.28125 "/>
<path style="fill-rule:nonzero;fill:rgb(100%,49.803922%,31.372549%);fill-opacity:1;stroke-width:0.75;stroke-linecap:round;stroke-linejoin:round;stroke:rgb(100%,49.803922%,31.372549%);stroke-opacity:1;stroke-miterlimit:10;" d="M 122.484375 250.265625 C 122.484375 252.183594 119.605469 252.183594 119.605469 250.265625 C 119.605469 248.34375 122.484375 248.34375 122.484375 250.265625 "/>
<path style="fill-rule:nonzero;fill:rgb(100%,49.803922%,31.372549%);fill-opacity:1;stroke-width:0.75;stroke-linecap:round;stroke-linejoin:round;stroke:rgb(100%,49.803922%,31.372549%);stroke-opacity:1;stroke-miterlimit:10;" d="M 122.550781 240.996094 C 122.550781 242.914062 119.671875 242.914062 119.671875 240.996094 C 119.671875 239.074219 122.550781 239.074219 122.550781 240.996094 "/>
<path style="fill-rule:nonzero;fill:rgb(100%,49.803922%,31.372549%);fill-opacity:1;stroke-width:0.75;stroke-linecap:round;stroke-linejoin:round;stroke:rgb(100%,49.803922%,31.372549%);stroke-opacity:1;stroke-miterlimit:10;" d="M 281.113281 394.574219 C 281.113281 396.492188 278.234375 396.492188 278.234375 394.574219 C 278.234375 392.652344 281.113281 392.652344 281.113281 394.574219 "/>
<path style="fill-rule:nonzero;fill:rgb(100%,49.803922%,31.372549%);fill-opacity:1;stroke-width:0.75;stroke-linecap:round;stroke-linejoin:round;stroke:rgb(100%,49.803922%,31.372549%);stroke-opacity:1;stroke-miterlimit:10;" d="M 351.730469 114.914062 C 351.730469 116.835938 348.851562 116.835938 348.851562 114.914062 C 348.851562 112.996094 351.730469 112.996094 351.730469 114.914062 "/>
<path style="fill-rule:nonzero;fill:rgb(100%,49.803922%,31.372549%);fill-opacity:1;stroke-width:0.75;stroke-linecap:round;stroke-linejoin:round;stroke:rgb(100%,49.803922%,31.372549%);stroke-opacity:1;stroke-miterlimit:10;" d="M 371.203125 367.191406 C 371.203125 369.109375 368.324219 369.109375 368.324219 367.191406 C 368.324219 365.269531 371.203125 365.269531 371.203125 367.191406 "/>
<path style="fill-rule:nonzero;fill:rgb(100%,49.803922%,31.372549%);fill-opacity:1;stroke-width:0.75;stroke-linecap:round;stroke-linejoin:round;stroke:rgb(100%,49.803922%,31.372549%);stroke-opacity:1;stroke-miterlimit:10;" d="M 383.949219 357.703125 C 383.949219 359.625 381.070312 359.625 381.070312 357.703125 C 381.070312 355.78125 383.949219 355.78125 383.949219 357.703125 "/>
<path style="fill-rule:nonzero;fill:rgb(100%,49.803922%,31.372549%);fill-opacity:1;stroke-width:0.75;stroke-linecap:round;stroke-linejoin:round;stroke:rgb(100%,49.803922%,31.372549%);stroke-opacity:1;stroke-miterlimit:10;" d="M 432 208.140625 C 432 210.058594 429.117188 210.058594 429.117188 208.140625 C 429.117188 206.21875 432 206.21875 432 208.140625 "/>
<path style="fill-rule:nonzero;fill:rgb(100%,49.803922%,31.372549%);fill-opacity:1;stroke-width:0.75;stroke-linecap:round;stroke-linejoin:round;stroke:rgb(100%,49.803922%,31.372549%);stroke-opacity:1;stroke-miterlimit:10;" d="M 215.402344 111.628906 C 215.402344 113.546875 212.523438 113.546875 212.523438 111.628906 C 212.523438 109.707031 215.402344 109.707031 215.402344 111.628906 "/>
<path style="fill-rule:nonzero;fill:rgb(100%,49.803922%,31.372549%);fill-opacity:1;stroke-width:0.75;stroke-linecap:round;stroke-linejoin:round;stroke:rgb(100%,49.803922%,31.372549%);stroke-opacity:1;stroke-miterlimit:10;" d="M 436.824219 233.839844 C 436.824219 235.761719 433.945312 235.761719 433.945312 233.839844 C 433.945312 231.921875 436.824219 231.921875 436.824219 233.839844 "/>
<path style="fill-rule:nonzero;fill:rgb(100%,49.803922%,31.372549%);fill-opacity:1;stroke-width:0.75;stroke-linecap:round;stroke-linejoin:round;stroke:rgb(100%,49.803922%,31.372549%);stroke-opacity:1;stroke-miterlimit:10;" d="M 290.777344 98.992188 C 290.777344 100.910156 287.894531 100.910156 287.894531 98.992188 C 287.894531 97.070312 290.777344 97.070312 290.777344 98.992188 "/>
<path style="fill-rule:nonzero;fill:rgb(100%,49.803922%,31.372549%);fill-opacity:1;stroke-width:0.75;stroke-linecap:round;stroke-linejoin:round;stroke:rgb(100%,49.803922%,31.372549%);stroke-opacity:1;stroke-miterlimit:10;" d="M 237.410156 389.082031 C 237.410156 391.003906 234.527344 391.003906 234.527344 389.082031 C 234.527344 387.164062 237.410156 387.164062 237.410156 389.082031 "/>
<path style="fill-rule:nonzero;fill:rgb(100%,49.803922%,31.372549%);fill-opacity:1;stroke-width:0.75;stroke-linecap:round;stroke-linejoin:round;stroke:rgb(100%,49.803922%,31.372549%);stroke-opacity:1;stroke-miterlimit:10;" d="M 223.707031 108.386719 C 223.707031 110.308594 220.828125 110.308594 220.828125 108.386719 C 220.828125 106.46875 223.707031 106.46875 223.707031 108.386719 "/>
<path style="fill-rule:nonzero;fill:rgb(100%,49.803922%,31.372549%);fill-opacity:1;stroke-width:0.75;stroke-linecap:round;stroke-linejoin:round;stroke:rgb(100%,49.803922%,31.372549%);stroke-opacity:1;stroke-miterlimit:10;" d="M 122.664062 254.550781 C 122.664062 256.472656 119.785156 256.472656 119.785156 254.550781 C 119.785156 252.632812 122.664062 252.632812 122.664062 254.550781 "/>
<path style="fill-rule:nonzero;fill:rgb(100%,49.803922%,31.372549%);fill-opacity:1;stroke-width:0.75;stroke-linecap:round;stroke-linejoin:round;stroke:rgb(100%,49.803922%,31.372549%);stroke-opacity:1;stroke-miterlimit:10;" d="M 429.195312 199.429688 C 429.195312 201.351562 426.3125 201.351562 426.3125 199.429688 C 426.3125 197.511719 429.195312 197.511719 429.195312 199.429688 "/>
<path style="fill-rule:nonzero;fill:rgb(100%,49.803922%,31.372549%);fill-opacity:1;stroke-width:0.75;stroke-linecap:round;stroke-linejoin:round;stroke:rgb(100%,49.803922%,31.372549%);stroke-opacity:1;stroke-miterlimit:10;" d="M 135.222656 305.007812 C 135.222656 306.925781 132.339844 306.925781 132.339844 305.007812 C 132.339844 303.085938 135.222656 303.085938 135.222656 305.007812 "/>
<path style="fill-rule:nonzero;fill:rgb(100%,49.803922%,31.372549%);fill-opacity:1;stroke-width:0.75;stroke-linecap:round;stroke-linejoin:round;stroke:rgb(100%,49.803922%,31.372549%);stroke-opacity:1;stroke-miterlimit:10;" d="M 393.722656 144.316406 C 393.722656 146.238281 390.839844 146.238281 390.839844 144.316406 C 390.839844 142.398438 393.722656 142.398438 393.722656 144.316406 "/>
<path style="fill-rule:nonzero;fill:rgb(100%,49.803922%,31.372549%);fill-opacity:1;stroke-width:0.75;stroke-linecap:round;stroke-linejoin:round;stroke:rgb(100%,49.803922%,31.372549%);stroke-opacity:1;stroke-miterlimit:10;" d="M 403.042969 338.878906 C 403.042969 340.800781 400.160156 340.800781 400.160156 338.878906 C 400.160156 336.960938 403.042969 336.960938 403.042969 338.878906 "/>
<path style="fill-rule:nonzero;fill:rgb(100%,49.803922%,31.372549%);fill-opacity:1;stroke-width:0.75;stroke-linecap:round;stroke-linejoin:round;stroke:rgb(100%,49.803922%,31.372549%);stroke-opacity:1;stroke-miterlimit:10;" d="M 436.75 233.027344 C 436.75 234.949219 433.867188 234.949219 433.867188 233.027344 C 433.867188 231.109375 436.75 231.109375 436.75 233.027344 "/>
<path style="fill-rule:nonzero;fill:rgb(100%,49.803922%,31.372549%);fill-opacity:1;stroke-width:0.75;stroke-linecap:round;stroke-linejoin:round;stroke:rgb(100%,49.803922%,31.372549%);stroke-opacity:1;stroke-miterlimit:10;" d="M 312.464844 391.382812 C 312.464844 393.304688 309.582031 393.304688 309.582031 391.382812 C 309.582031 389.464844 312.464844 389.464844 312.464844 391.382812 "/>
<path style="fill-rule:nonzero;fill:rgb(100%,49.803922%,31.372549%);fill-opacity:1;stroke-width:0.75;stroke-linecap:round;stroke-linejoin:round;stroke:rgb(100%,49.803922%,31.372549%);stroke-opacity:1;stroke-miterlimit:10;" d="M 412.917969 167.351562 C 412.917969 169.273438 410.039062 169.273438 410.039062 167.351562 C 410.039062 165.433594 412.917969 165.433594 412.917969 167.351562 "/>
<path style="fill-rule:nonzero;fill:rgb(100%,49.803922%,31.372549%);fill-opacity:1;stroke-width:0.75;stroke-linecap:round;stroke-linejoin:round;stroke:rgb(100%,49.803922%,31.372549%);stroke-opacity:1;stroke-miterlimit:10;" d="M 123.578125 264.40625 C 123.578125 266.328125 120.699219 266.328125 120.699219 264.40625 C 120.699219 262.484375 123.578125 262.484375 123.578125 264.40625 "/>
<path style="fill-rule:nonzero;fill:rgb(100%,49.803922%,31.372549%);fill-opacity:1;stroke-width:0.75;stroke-linecap:round;stroke-linejoin:round;stroke:rgb(100%,49.803922%,31.372549%);stroke-opacity:1;stroke-miterlimit:10;" d="M 162.273438 148.246094 C 162.273438 150.164062 159.390625 150.164062 159.390625 148.246094 C 159.390625 146.324219 162.273438 146.324219 162.273438 148.246094 "/>
<path style="fill-rule:nonzero;fill:rgb(100%,49.803922%,31.372549%);fill-opacity:1;stroke-width:0.75;stroke-linecap:round;stroke-linejoin:round;stroke:rgb(100%,49.803922%,31.372549%);stroke-opacity:1;stroke-miterlimit:10;" d="M 422.402344 183.5625 C 422.402344 185.480469 419.523438 185.480469 419.523438 183.5625 C 419.523438 181.640625 422.402344 181.640625 422.402344 183.5625 "/>
<path style="fill-rule:nonzero;fill:rgb(100%,49.803922%,31.372549%);fill-opacity:1;stroke-width:0.75;stroke-linecap:round;stroke-linejoin:round;stroke:rgb(100%,49.803922%,31.372549%);stroke-opacity:1;stroke-miterlimit:10;" d="M 212.292969 112.980469 C 212.292969 114.898438 209.414062 114.898438 209.414062 112.980469 C 209.414062 111.058594 212.292969 111.058594 212.292969 112.980469 "/>
<path style="fill-rule:nonzero;fill:rgb(100%,49.803922%,31.372549%);fill-opacity:1;stroke-width:0.75;stroke-linecap:round;stroke-linejoin:round;stroke:rgb(100%,49.803922%,31.372549%);stroke-opacity:1;stroke-miterlimit:10;" d="M 202.753906 375.59375 C 202.753906 377.515625 199.875 377.515625 199.875 375.59375 C 199.875 373.675781 202.753906 373.675781 202.753906 375.59375 "/>
<path style="fill-rule:nonzero;fill:rgb(100%,49.803922%,31.372549%);fill-opacity:1;stroke-width:0.75;stroke-linecap:round;stroke-linejoin:round;stroke:rgb(100%,49.803922%,31.372549%);stroke-opacity:1;stroke-miterlimit:10;" d="M 420.871094 312.621094 C 420.871094 314.542969 417.992188 314.542969 417.992188 312.621094 C 417.992188 310.703125 420.871094 310.703125 420.871094 312.621094 "/>
<path style="fill-rule:nonzero;fill:rgb(100%,49.803922%,31.372549%);fill-opacity:1;stroke-width:0.75;stroke-linecap:round;stroke-linejoin:round;stroke:rgb(100%,49.803922%,31.372549%);stroke-opacity:1;stroke-miterlimit:10;" d="M 124.882812 220.628906 C 124.882812 222.546875 122.003906 222.546875 122.003906 220.628906 C 122.003906 218.707031 124.882812 218.707031 124.882812 220.628906 "/>
<path style="fill-rule:nonzero;fill:rgb(100%,49.803922%,31.372549%);fill-opacity:1;stroke-width:0.75;stroke-linecap:round;stroke-linejoin:round;stroke:rgb(100%,49.803922%,31.372549%);stroke-opacity:1;stroke-miterlimit:10;" d="M 378.304688 131.0625 C 378.304688 132.980469 375.425781 132.980469 375.425781 131.0625 C 375.425781 129.140625 378.304688 129.140625 378.304688 131.0625 "/>
<path style="fill-rule:nonzero;fill:rgb(100%,49.803922%,31.372549%);fill-opacity:1;stroke-width:0.75;stroke-linecap:round;stroke-linejoin:round;stroke:rgb(100%,49.803922%,31.372549%);stroke-opacity:1;stroke-miterlimit:10;" d="M 128.488281 287.238281 C 128.488281 289.15625 125.609375 289.15625 125.609375 287.238281 C 125.609375 285.316406 128.488281 285.316406 128.488281 287.238281 "/>
<path style="fill-rule:nonzero;fill:rgb(100%,49.803922%,31.372549%);fill-opacity:1;stroke-width:0.75;stroke-linecap:round;stroke-linejoin:round;stroke:rgb(100%,49.803922%,31.372549%);stroke-opacity:1;stroke-miterlimit:10;" d="M 332.175781 107.023438 C 332.175781 108.941406 329.296875 108.941406 329.296875 107.023438 C 329.296875 105.101562 332.175781 105.101562 332.175781 107.023438 "/>
<path style="fill-rule:nonzero;fill:rgb(100%,49.803922%,31.372549%);fill-opacity:1;stroke-width:0.75;stroke-linecap:round;stroke-linejoin:round;stroke:rgb(100%,49.803922%,31.372549%);stroke-opacity:1;stroke-miterlimit:10;" d="M 406.503906 334.644531 C 406.503906 336.566406 403.625 336.566406 403.625 334.644531 C 403.625 332.726562 406.503906 332.726562 406.503906 334.644531 "/>
<path style="fill-rule:nonzero;fill:rgb(100%,49.803922%,31.372549%);fill-opacity:1;stroke-width:0.75;stroke-linecap:round;stroke-linejoin:round;stroke:rgb(100%,49.803922%,31.372549%);stroke-opacity:1;stroke-miterlimit:10;" d="M 158.894531 151.933594 C 158.894531 153.851562 156.015625 153.851562 156.015625 151.933594 C 156.015625 150.011719 158.894531 150.011719 158.894531 151.933594 "/>
<path style="fill-rule:nonzero;fill:rgb(100%,49.803922%,31.372549%);fill-opacity:1;stroke-width:0.75;stroke-linecap:round;stroke-linejoin:round;stroke:rgb(100%,49.803922%,31.372549%);stroke-opacity:1;stroke-miterlimit:10;" d="M 221.148438 109.332031 C 221.148438 111.25 218.269531 111.25 218.269531 109.332031 C 218.269531 107.410156 221.148438 107.410156 221.148438 109.332031 "/>
<path style="fill-rule:nonzero;fill:rgb(100%,49.803922%,31.372549%);fill-opacity:1;stroke-width:0.75;stroke-linecap:round;stroke-linejoin:round;stroke:rgb(100%,49.803922%,31.372549%);stroke-opacity:1;stroke-miterlimit:10;" d="M 364.289062 121.660156 C 364.289062 123.582031 361.40625 123.582031 361.40625 121.660156 C 361.40625 119.738281 364.289062 119.738281 364.289062 121.660156 "/>
<path style="fill-rule:nonzero;fill:rgb(100%,49.803922%,31.372549%);fill-opacity:1;stroke-width:0.75;stroke-linecap:round;stroke-linejoin:round;stroke:rgb(100%,49.803922%,31.372549%);stroke-opacity:1;stroke-miterlimit:10;" d="M 405.082031 336.425781 C 405.082031 338.34375 402.199219 338.34375 402.199219 336.425781 C 402.199219 334.503906 405.082031 334.503906 405.082031 336.425781 "/>
<path style="fill-rule:nonzero;fill:rgb(100%,49.803922%,31.372549%);fill-opacity:1;stroke-width:0.75;stroke-linecap:round;stroke-linejoin:round;stroke:rgb(100%,49.803922%,31.372549%);stroke-opacity:1;stroke-miterlimit:10;" d="M 358.902344 118.589844 C 358.902344 120.511719 356.023438 120.511719 356.023438 118.589844 C 356.023438 116.671875 358.902344 116.671875 358.902344 118.589844 "/>
<path style="fill-rule:nonzero;fill:rgb(100%,49.803922%,31.372549%);fill-opacity:1;stroke-width:0.75;stroke-linecap:round;stroke-linejoin:round;stroke:rgb(100%,49.803922%,31.372549%);stroke-opacity:1;stroke-miterlimit:10;" d="M 407.582031 333.261719 C 407.582031 335.183594 404.703125 335.183594 404.703125 333.261719 C 404.703125 331.34375 407.582031 331.34375 407.582031 333.261719 "/>
<path style="fill-rule:nonzero;fill:rgb(100%,49.803922%,31.372549%);fill-opacity:1;stroke-width:0.75;stroke-linecap:round;stroke-linejoin:round;stroke:rgb(100%,49.803922%,31.372549%);stroke-opacity:1;stroke-miterlimit:10;" d="M 384.757812 136.183594 C 384.757812 138.105469 381.875 138.105469 381.875 136.183594 C 381.875 134.265625 384.757812 134.265625 384.757812 136.183594 "/>
<path style="fill-rule:nonzero;fill:rgb(100%,49.803922%,31.372549%);fill-opacity:1;stroke-width:0.75;stroke-linecap:round;stroke-linejoin:round;stroke:rgb(100%,49.803922%,31.372549%);stroke-opacity:1;stroke-miterlimit:10;" d="M 386.5625 137.722656 C 386.5625 139.640625 383.683594 139.640625 383.683594 137.722656 C 383.683594 135.800781 386.5625 135.800781 386.5625 137.722656 "/>
<path style="fill-rule:nonzero;fill:rgb(100%,49.803922%,31.372549%);fill-opacity:1;stroke-width:0.75;stroke-linecap:round;stroke-linejoin:round;stroke:rgb(100%,49.803922%,31.372549%);stroke-opacity:1;stroke-miterlimit:10;" d="M 404.191406 155.707031 C 404.191406 157.625 401.3125 157.625 401.3125 155.707031 C 401.3125 153.785156 404.191406 153.785156 404.191406 155.707031 "/>
<path style="fill-rule:nonzero;fill:rgb(100%,49.803922%,31.372549%);fill-opacity:1;stroke-width:0.75;stroke-linecap:round;stroke-linejoin:round;stroke:rgb(100%,49.803922%,31.372549%);stroke-opacity:1;stroke-miterlimit:10;" d="M 122.851562 257.367188 C 122.851562 259.289062 119.972656 259.289062 119.972656 257.367188 C 119.972656 255.449219 122.851562 255.449219 122.851562 257.367188 "/>
<path style="fill-rule:nonzero;fill:rgb(100%,49.803922%,31.372549%);fill-opacity:1;stroke-width:0.75;stroke-linecap:round;stroke-linejoin:round;stroke:rgb(100%,49.803922%,31.372549%);stroke-opacity:1;stroke-miterlimit:10;" d="M 231.070312 105.9375 C 231.070312 107.859375 228.191406 107.859375 228.191406 105.9375 C 228.191406 104.019531 231.070312 104.019531 231.070312 105.9375 "/>
<path style="fill-rule:nonzero;fill:rgb(100%,49.803922%,31.372549%);fill-opacity:1;stroke-width:0.75;stroke-linecap:round;stroke-linejoin:round;stroke:rgb(100%,49.803922%,31.372549%);stroke-opacity:1;stroke-miterlimit:10;" d="M 435.199219 221.886719 C 435.199219 223.804688 432.320312 223.804688 432.320312 221.886719 C 432.320312 219.964844 435.199219 219.964844 435.199219 221.886719 "/>
<path style="fill-rule:nonzero;fill:rgb(100%,49.803922%,31.372549%);fill-opacity:1;stroke-width:0.75;stroke-linecap:round;stroke-linejoin:round;stroke:rgb(100%,49.803922%,31.372549%);stroke-opacity:1;stroke-miterlimit:10;" d="M 222.273438 108.910156 C 222.273438 110.832031 219.394531 110.832031 219.394531 108.910156 C 219.394531 106.992188 222.273438 106.992188 222.273438 108.910156 "/>
<path style="fill-rule:nonzero;fill:rgb(100%,49.803922%,31.372549%);fill-opacity:1;stroke-width:0.75;stroke-linecap:round;stroke-linejoin:round;stroke:rgb(100%,49.803922%,31.372549%);stroke-opacity:1;stroke-miterlimit:10;" d="M 272.128906 394.394531 C 272.128906 396.316406 269.25 396.316406 269.25 394.394531 C 269.25 392.476562 272.128906 392.476562 272.128906 394.394531 "/>
</g>
</svg>
