<svg xmlns="http://www.w3.org/2000/svg" width="700" height="700" viewBox="0 0 525 525"><path fill="#fff" d="M0 0h525v525H0z"/><path d="M398.902 149.664c0 1.918-2.879 1.918-2.879 0 0-1.922 2.88-1.922 2.88 0M166.691 349.45c0 1.917-2.882 1.917-2.882 0 0-1.923 2.882-1.923 2.882 0M158.121 340.406c0 1.922-2.879 1.922-2.879 0s2.88-1.922 2.88 0" fill="coral" stroke-width=".75" stroke-linecap="round" stroke-linejoin="round" stroke="coral" stroke-miterlimit="10"/><path d="M167.438 350.168c0 1.918-2.883 1.918-2.883 0 0-1.922 2.882-1.922 2.882 0M381.008 360.074c0 1.922-2.88 1.922-2.88 0 0-1.918 2.88-1.918 2.88 0M179.773 360.805c0 1.918-2.878 1.918-2.878 0 0-1.922 2.878-1.922 2.878 0M437.133 237.785c0 1.922-2.88 1.922-2.88 0s2.88-1.922 2.88 0M297.156 99.527c0 1.922-2.879 1.922-2.879 0 0-1.918 2.88-1.918 2.88 0M200.684 374.48c0 1.922-2.883 1.922-2.883 0 0-1.918 2.883-1.918 2.883 0M123.066 259.84c0 1.922-2.879 1.922-2.879 0 0-1.918 2.88-1.918 2.88 0M225.27 385.379c0 1.922-2.883 1.922-2.883 0 0-1.918 2.883-1.918 2.883 0M128.684 287.867c0 1.922-2.88 1.922-2.88 0 0-1.918 2.88-1.918 2.88 0M247.762 101.758c0 1.922-2.88 1.922-2.88 0 0-1.918 2.88-1.918 2.88 0M419.54 315.078c0 1.922-2.884 1.922-2.884 0 0-1.918 2.883-1.918 2.883 0M238.543 103.84c0 1.918-2.879 1.918-2.879 0 0-1.922 2.879-1.922 2.879 0M362.04 372.871c0 1.922-2.88 1.922-2.88 0 0-1.918 2.88-1.918 2.88 0M244.39 102.457c0 1.918-2.882 1.918-2.882 0 0-1.922 2.883-1.922 2.883 0M263.313 99.465c0 1.922-2.883 1.922-2.883 0 0-1.918 2.882-1.918 2.882 0M340.902 110.18c0 1.922-2.879 1.922-2.879 0 0-1.918 2.88-1.918 2.88 0" fill="coral" stroke-width=".75" stroke-linecap="round" stroke-linejoin="round" stroke="coral" stroke-miterlimit="10"/><path d="M297.477 99.563c0 1.917-2.88 1.917-2.88 0 0-1.922 2.88-1.922 2.88 0M215.918 111.41c0 1.922-2.879 1.922-2.879 0 0-1.918 2.879-1.918 2.879 0M228.73 106.676c0 1.922-2.878 1.922-2.878 0 0-1.918 2.878-1.918 2.878 0M365.105 122.152c0 1.918-2.878 1.918-2.878 0 0-1.922 2.878-1.922 2.878 0M432.465 209.813c0 1.921-2.88 1.921-2.88 0 0-1.918 2.88-1.918 2.88 0M310.602 101.473c0 1.922-2.88 1.922-2.88 0 0-1.918 2.88-1.918 2.88 0M338.45 383.98c0 1.918-2.88 1.918-2.88 0 0-1.921 2.88-1.921 2.88 0M124.484 270.395c0 1.921-2.879 1.921-2.879 0 0-1.918 2.88-1.918 2.88 0M415.309 322.203c0 1.922-2.88 1.922-2.88 0 0-1.918 2.88-1.918 2.88 0M356.96 375.668c0 1.918-2.882 1.918-2.882 0 0-1.922 2.883-1.922 2.883 0M430.945 204.64c0 1.919-2.879 1.919-2.879 0 0-1.921 2.88-1.921 2.88 0M128.39 206.3c0 1.923-2.878 1.923-2.878 0 0-1.917 2.879-1.917 2.879 0M264.922 99.313c0 1.921-2.883 1.921-2.883 0 0-1.918 2.883-1.918 2.883 0" fill="coral" stroke-width=".75" stroke-linecap="round" stroke-linejoin="round" stroke="coral" stroke-miterlimit="10"/><path d="M226.883 107.285c0 1.918-2.88 1.918-2.88 0 0-1.922 2.88-1.922 2.88 0M122.602 253.398c0 1.922-2.88 1.922-2.88 0 0-1.918 2.88-1.918 2.88 0M345.996 112.293c0 1.918-2.879 1.918-2.879 0 0-1.922 2.88-1.922 2.88 0M289.488 394.305c0 1.918-2.879 1.918-2.879 0 0-1.922 2.88-1.922 2.88 0M327.414 105.527c0 1.922-2.879 1.922-2.879 0 0-1.918 2.88-1.918 2.88 0M271.21 98.867c0 1.918-2.878 1.918-2.878 0 0-1.922 2.879-1.922 2.879 0M437.223 253.902c0 1.922-2.88 1.922-2.88 0 0-1.918 2.88-1.918 2.88 0M335.457 385.074c0 1.918-2.879 1.918-2.879 0 0-1.922 2.879-1.922 2.879 0M131.195 295.27c0 1.921-2.879 1.921-2.879 0 0-1.918 2.88-1.918 2.88 0M184.504 364.324c0 1.918-2.883 1.918-2.883 0 0-1.922 2.883-1.922 2.883 0M220.273 109.664c0 1.922-2.878 1.922-2.878 0 0-1.918 2.878-1.918 2.878 0M166.36 349.125c0 1.922-2.88 1.922-2.88 0 0-1.918 2.88-1.918 2.88 0M204.254 116.84c0 1.922-2.879 1.922-2.879 0s2.879-1.922 2.879 0M122.45 248.465c0 1.922-2.88 1.922-2.88 0 0-1.918 2.88-1.918 2.88 0M210.281 379.32c0 1.922-2.883 1.922-2.883 0 0-1.918 2.883-1.918 2.883 0M123.137 232.676c0 1.918-2.88 1.918-2.88 0 0-1.922 2.88-1.922 2.88 0M285.93 98.746c0 1.922-2.88 1.922-2.88 0 0-1.918 2.88-1.918 2.88 0M295.2 393.879c0 1.922-2.88 1.922-2.88 0 0-1.918 2.88-1.918 2.88 0M420.793 180.445c0 1.918-2.879 1.918-2.879 0 0-1.922 2.879-1.922 2.879 0" fill="coral" stroke-width=".75" stroke-linecap="round" stroke-linejoin="round" stroke="coral" stroke-miterlimit="10"/><path d="M222.238 108.926c0 1.918-2.879 1.918-2.879 0 0-1.922 2.88-1.922 2.88 0M247.766 391.46c0 1.919-2.88 1.919-2.88 0 0-1.92 2.88-1.92 2.88 0M122.5 250.836c0 1.918-2.879 1.918-2.879 0 0-1.922 2.879-1.922 2.879 0M370.078 125.281c0 1.922-2.883 1.922-2.883 0 0-1.918 2.883-1.918 2.883 0" fill="coral" stroke-width=".75" stroke-linecap="round" stroke-linejoin="round" stroke="coral" stroke-miterlimit="10"/><path d="M122.484 250.266c0 1.918-2.879 1.918-2.879 0 0-1.922 2.88-1.922 2.88 0M122.55 240.996c0 1.918-2.878 1.918-2.878 0 0-1.922 2.879-1.922 2.879 0M281.113 394.574c0 1.918-2.879 1.918-2.879 0 0-1.922 2.88-1.922 2.88 0M351.73 114.914c0 1.922-2.878 1.922-2.878 0 0-1.918 2.878-1.918 2.878 0M371.203 367.191c0 1.918-2.879 1.918-2.879 0 0-1.921 2.88-1.921 2.88 0M383.95 357.703c0 1.922-2.88 1.922-2.88 0s2.88-1.922 2.88 0M432 208.14c0 1.919-2.883 1.919-2.883 0 0-1.921 2.883-1.921 2.883 0M215.402 111.629c0 1.918-2.879 1.918-2.879 0 0-1.922 2.88-1.922 2.88 0M436.824 233.84c0 1.922-2.879 1.922-2.879 0 0-1.918 2.88-1.918 2.88 0M290.777 98.992c0 1.918-2.882 1.918-2.882 0 0-1.922 2.882-1.922 2.882 0M237.41 389.082c0 1.922-2.883 1.922-2.883 0 0-1.918 2.883-1.918 2.883 0M223.707 108.387c0 1.922-2.879 1.922-2.879 0 0-1.918 2.879-1.918 2.879 0M122.664 254.55c0 1.923-2.879 1.923-2.879 0 0-1.917 2.88-1.917 2.88 0M429.195 199.43c0 1.922-2.882 1.922-2.882 0 0-1.918 2.882-1.918 2.882 0M135.223 305.008c0 1.918-2.883 1.918-2.883 0 0-1.922 2.883-1.922 2.883 0M393.723 144.316c0 1.922-2.883 1.922-2.883 0 0-1.918 2.883-1.918 2.883 0M403.043 338.879c0 1.922-2.883 1.922-2.883 0 0-1.918 2.883-1.918 2.883 0" fill="coral" stroke-width=".75" stroke-linecap="round" stroke-linejoin="round" stroke="coral" stroke-miterlimit="10"/><path d="M436.75 233.027c0 1.922-2.883 1.922-2.883 0 0-1.918 2.883-1.918 2.883 0M312.465 391.383c0 1.922-2.883 1.922-2.883 0 0-1.918 2.883-1.918 2.883 0M412.918 167.352c0 1.921-2.879 1.921-2.879 0 0-1.918 2.879-1.918 2.879 0M123.578 264.406c0 1.922-2.879 1.922-2.879 0s2.88-1.922 2.88 0M162.273 148.246c0 1.918-2.882 1.918-2.882 0 0-1.922 2.882-1.922 2.882 0M422.402 183.563c0 1.917-2.879 1.917-2.879 0 0-1.922 2.88-1.922 2.88 0M212.293 112.98c0 1.918-2.879 1.918-2.879 0 0-1.921 2.879-1.921 2.879 0M202.754 375.594c0 1.922-2.879 1.922-2.879 0 0-1.918 2.879-1.918 2.879 0M420.871 312.621c0 1.922-2.879 1.922-2.879 0 0-1.918 2.88-1.918 2.88 0M124.883 220.629c0 1.918-2.88 1.918-2.88 0 0-1.922 2.88-1.922 2.88 0M378.305 131.063c0 1.917-2.88 1.917-2.88 0 0-1.922 2.88-1.922 2.88 0M128.488 287.238c0 1.918-2.879 1.918-2.879 0 0-1.922 2.88-1.922 2.88 0M332.176 107.023c0 1.918-2.88 1.918-2.88 0 0-1.921 2.88-1.921 2.88 0M406.504 334.645c0 1.921-2.879 1.921-2.879 0 0-1.918 2.879-1.918 2.879 0M158.895 151.934c0 1.918-2.88 1.918-2.88 0 0-1.922 2.88-1.922 2.88 0M221.148 109.332c0 1.918-2.878 1.918-2.878 0 0-1.922 2.878-1.922 2.878 0M364.29 121.66c0 1.922-2.884 1.922-2.884 0s2.883-1.922 2.883 0" fill="coral" stroke-width=".75" stroke-linecap="round" stroke-linejoin="round" stroke="coral" stroke-miterlimit="10"/><path d="M405.082 336.426c0 1.918-2.883 1.918-2.883 0 0-1.922 2.883-1.922 2.883 0M358.902 118.59c0 1.922-2.879 1.922-2.879 0 0-1.918 2.88-1.918 2.88 0M407.582 333.262c0 1.922-2.879 1.922-2.879 0 0-1.918 2.879-1.918 2.879 0M384.758 136.184c0 1.921-2.883 1.921-2.883 0 0-1.918 2.883-1.918 2.883 0" fill="coral" stroke-width=".75" stroke-linecap="round" stroke-linejoin="round" stroke="coral" stroke-miterlimit="10"/><path d="M386.563 137.723c0 1.918-2.88 1.918-2.88 0 0-1.922 2.88-1.922 2.88 0M404.191 155.707c0 1.918-2.878 1.918-2.878 0 0-1.922 2.878-1.922 2.878 0M122.852 257.367c0 1.922-2.88 1.922-2.88 0 0-1.918 2.88-1.918 2.88 0M231.07 105.938c0 1.921-2.879 1.921-2.879 0 0-1.918 2.88-1.918 2.88 0M435.2 221.887c0 1.918-2.88 1.918-2.88 0 0-1.922 2.88-1.922 2.88 0M222.273 108.91c0 1.922-2.878 1.922-2.878 0 0-1.918 2.878-1.918 2.878 0M272.129 394.395c0 1.921-2.879 1.921-2.879 0 0-1.918 2.879-1.918 2.879 0" fill="coral" stroke-width=".75" stroke-linecap="round" stroke-linejoin="round" stroke="coral" stroke-miterlimit="10"/></svg>