<svg xmlns="http://www.w3.org/2000/svg" xmlns:xlink="http://www.w3.org/1999/xlink" width="600" height="400" viewBox="0 0 450 300"><defs><symbol overflow="visible" id="b"><path d="M3.25-8.39c1.082 0 1.867.449 2.36 1.343.374.688.562 1.637.562 2.844 0 1.137-.172 2.078-.516 2.828C5.164-.301 4.36.235 3.234.235c-1 0-1.75-.438-2.25-1.313C.578-1.816.375-2.801.375-4.031c0-.946.125-1.766.375-2.453.457-1.27 1.29-1.907 2.5-1.907zM3.234-.735c.551 0 .989-.239 1.313-.72.32-.487.484-1.394.484-2.718 0-.945-.12-1.726-.36-2.344-.23-.613-.683-.921-1.359-.921-.624 0-1.085.292-1.374.875-.282.585-.422 1.445-.422 2.578 0 .855.093 1.543.28 2.062.282.793.759 1.188 1.438 1.188zm0 0"/></symbol><symbol overflow="visible" id="c"><path d="M1.031-1.281H2.25V0H1.031zm0 0"/></symbol><symbol overflow="visible" id="d"><path d="M.375 0c.04-.719.191-1.344.453-1.875.258-.54.766-1.031 1.516-1.469L3.469-4c.5-.29.851-.54 1.062-.75.32-.32.485-.691.485-1.11 0-.488-.153-.874-.454-1.156-.292-.289-.68-.437-1.156-.437-.73 0-1.23.273-1.5.812-.156.305-.242.711-.25 1.22H.578c.008-.727.145-1.321.406-1.782.457-.813 1.266-1.219 2.422-1.219.957 0 1.656.262 2.094.781.445.524.672 1.102.672 1.735 0 .668-.234 1.242-.703 1.718-.274.282-.762.622-1.469 1.016l-.813.438a5.12 5.12 0 00-.89.609c-.399.336-.649.71-.75 1.125H6.14v1zm0 0"/></symbol><symbol overflow="visible" id="e"><path d="M3.969-2.969V-6.78L1.28-2.97zM3.984 0v-2.047H.313v-1.031l3.843-5.344h.89v5.453h1.235v.922H5.047V0zm0 0"/></symbol><symbol overflow="visible" id="f"><path d="M3.516-8.422c.937 0 1.586.246 1.953.735.375.48.562.98.562 1.5H4.984c-.062-.333-.164-.594-.296-.782C4.425-7.32 4.038-7.5 3.53-7.5c-.594 0-1.07.277-1.422.828-.343.543-.53 1.32-.562 2.328.238-.351.539-.617.906-.797a2.61 2.61 0 011.125-.234c.707 0 1.32.227 1.844.672.52.45.781 1.121.781 2.016 0 .761-.25 1.437-.75 2.03-.492.587-1.195.876-2.11.876-.792 0-1.476-.297-2.046-.89-.563-.602-.844-1.61-.844-3.016 0-1.04.125-1.926.375-2.657.488-1.383 1.383-2.078 2.688-2.078zM3.437-.719c.551 0 .961-.187 1.235-.562.281-.375.422-.817.422-1.328a2.21 2.21 0 00-.375-1.22c-.242-.382-.688-.577-1.344-.577-.45 0-.844.152-1.188.453-.343.293-.515.742-.515 1.344 0 .53.156.98.469 1.343.312.368.742.547 1.296.547zm0 0"/></symbol><symbol overflow="visible" id="g"><path d="M3.266-4.875c.468 0 .832-.129 1.093-.39.258-.258.391-.567.391-.923 0-.312-.125-.597-.375-.859-.25-.27-.633-.406-1.14-.406-.512 0-.883.137-1.11.406-.23.262-.344.563-.344.906 0 .399.145.711.438.938.3.219.648.328 1.047.328zm.062 4.156c.488 0 .895-.129 1.219-.39.32-.27.484-.664.484-1.188 0-.539-.168-.953-.5-1.234-.336-.281-.761-.422-1.281-.422-.5 0-.914.148-1.234.437-.313.282-.47.68-.47 1.188 0 .437.145.82.438 1.14.29.313.739.47 1.344.47zm-1.5-3.75c-.293-.125-.523-.27-.687-.437C.836-5.22.687-5.625.687-6.125c0-.625.223-1.16.672-1.61.457-.456 1.098-.687 1.922-.687.813 0 1.442.215 1.89.64.458.43.688.923.688 1.485 0 .524-.132.95-.39 1.281-.149.18-.375.356-.688.532.344.156.614.34.813.546.375.399.562.907.562 1.532 0 .742-.25 1.367-.75 1.875-.492.511-1.187.765-2.093.765-.825 0-1.516-.218-2.079-.656C.672-.867.391-1.516.391-2.359c0-.489.117-.914.359-1.282.238-.363.598-.64 1.078-.828zm0 0"/></symbol><symbol overflow="visible" id="h"><path d="M.5-3.89h2.938v1.093H.5zm0 0"/></symbol><symbol overflow="visible" id="i"><path d="M1.156-5.938v-.812c.758-.07 1.285-.195 1.578-.375.301-.176.532-.586.688-1.234h.828V0H3.125v-5.938zm0 0"/></symbol><symbol overflow="visible" id="j"><path d="M1.563-10.844c.019-.656.132-1.133.343-1.437.364-.54 1.07-.813 2.125-.813.102 0 .207.008.313.016.101 0 .222.008.36.015v1.438c-.169-.008-.29-.016-.36-.016H4.14c-.48 0-.766.125-.86.375-.094.243-.14.871-.14 1.891h1.562v1.25H3.125V0H1.562v-8.125H.25v-1.25h1.313zm0 0"/></symbol><symbol overflow="visible" id="k"><path d="M5.328-13.125c-.918 1.793-1.516 3.11-1.797 3.953-.418 1.281-.625 2.762-.625 4.438 0 1.699.239 3.25.719 4.656.29.875.867 2.125 1.734 3.75H4.297c-.867-1.336-1.402-2.188-1.61-2.563-.199-.367-.417-.867-.656-1.5a11.647 11.647 0 01-.687-2.78c-.063-.5-.094-.985-.094-1.454 0-1.727.27-3.27.813-4.625.343-.863 1.066-2.156 2.171-3.875zm0 0"/></symbol><symbol overflow="visible" id="l"><path d="M.266-9.406h2.046L4.47-6.094l2.187-3.312 1.938.031-3.172 4.547L8.734 0h-2.03L4.374-3.531 2.094 0h-2l3.312-4.828zm0 0"/></symbol><symbol overflow="visible" id="m"><path d="M.625 3.672C1.551 1.859 2.148.535 2.422-.297c.414-1.258.625-2.738.625-4.437 0-1.688-.242-3.235-.719-4.641-.293-.863-.871-2.113-1.734-3.75h1.062c.907 1.45 1.453 2.34 1.64 2.672.196.336.407.797.626 1.39.281.731.476 1.454.594 2.172.125.72.187 1.407.187 2.063 0 1.742-.277 3.289-.828 4.64-.344.875-1.063 2.16-2.156 3.86zm0 0"/></symbol><symbol overflow="visible" id="n"><path d="M5.5-12.906l3.094 7.578H7.156l-2.328-5.813L2.5-5.328H1.062l3.079-7.578zm0 0"/></symbol><symbol overflow="visible" id="o"><path d="M1.484-12.047h1.594v2.64h1.5v1.282h-1.5v6.14c0 .337.11.56.328.673.125.062.332.093.625.093h.235c.093-.008.195-.02.312-.031V0c-.18.05-.367.086-.562.11a4.15 4.15 0 01-.641.046c-.742 0-1.242-.187-1.5-.562-.262-.383-.39-.88-.39-1.485v-6.234H.202v-1.281h1.281zm0 0"/></symbol><symbol overflow="visible" id="p"><path d="M1.203-6.234v-.844c.8-.082 1.36-.211 1.672-.39.313-.188.547-.618.703-1.298h.875V0H3.281v-6.234zm0 0"/></symbol><symbol overflow="visible" id="r"><path d="M1.188-9.64h1.28v2.109h1.204V-6.5H2.469v4.922c0 .262.086.433.265.516.094.054.254.078.485.078h.203c.07 0 .156-.004.25-.016v1c-.149.04-.305.07-.469.094a4.04 4.04 0 01-.5.031c-.594 0-.996-.148-1.203-.453-.21-.3-.313-.695-.313-1.188V-6.5H.157v-1.031h1.03zm0 0"/></symbol><symbol overflow="visible" id="v"><path d="M3.89-10.078c1.313 0 2.255.539 2.829 1.61.457.835.687 1.976.687 3.421 0 1.367-.21 2.496-.625 3.39C6.195-.362 5.234.282 3.891.282c-1.211 0-2.11-.523-2.704-1.578-.492-.875-.734-2.05-.734-3.531 0-1.145.145-2.129.438-2.953.55-1.532 1.55-2.297 3-2.297zm0 9.203c.657 0 1.176-.29 1.563-.875.383-.582.578-1.664.578-3.25 0-1.145-.14-2.086-.422-2.828-.28-.738-.828-1.11-1.64-1.11-.742 0-1.281.356-1.625 1.063-.344.7-.516 1.73-.516 3.094 0 1.023.11 1.843.328 2.468.332.961.91 1.438 1.735 1.438zm0 0"/></symbol><symbol overflow="visible" id="w"><path d="M1.234-1.531h1.47V0h-1.47zm0 0"/></symbol><symbol overflow="visible" id="x"><path d="M3.75.281c-1.2 0-2.07-.328-2.61-.984C.61-1.36.345-2.156.345-3.093h1.328c.05.648.172 1.12.36 1.421.331.531.925.797 1.78.797.665 0 1.196-.176 1.594-.531.407-.364.61-.828.61-1.39 0-.688-.215-1.165-.641-1.438-.418-.282-1.008-.422-1.766-.422h-.515v-1.11l.328.032h.297c.469 0 .851-.07 1.156-.22.54-.269.813-.737.813-1.405 0-.508-.184-.899-.547-1.172a1.986 1.986 0 00-1.235-.406c-.844 0-1.43.28-1.75.843-.18.313-.281.758-.312 1.328H.594c0-.75.148-1.39.453-1.921.52-.938 1.426-1.407 2.719-1.407 1.03 0 1.828.23 2.39.688.563.46.844 1.12.844 1.984 0 .625-.168 1.133-.5 1.516-.21.242-.477.43-.797.562.531.149.942.43 1.234.844.301.406.454.914.454 1.516 0 .96-.32 1.746-.954 2.359-.636.605-1.53.906-2.687.906zm0 0"/></symbol><symbol overflow="visible" id="s"><path d="M.969-4.984v-.688c.633-.062 1.078-.164 1.328-.312.258-.145.453-.489.578-1.032h.688V0h-.938v-4.984zm0 0"/></symbol><symbol overflow="visible" id="t"><path d="M7.297-1.969H.625v-.968h6.672zm0-1.89H.625v-.985h6.672zm0 0"/></symbol><clipPath id="a"><path d="M55 17h368v254.2H55zm0 0"/></clipPath><clipPath id="q"><path d="M43.2 176h392.398v2H43.199zm0 0"/></clipPath><clipPath id="y"><path d="M55 17h368v254.2H55zm0 0"/></clipPath></defs><path fill="#fff" d="M0 0h450v300H0z"/><g clip-path="url(#a)"><path d="M57.734 269.348h2.543l.368-.004h2.542l.364-.004h1.82l.363-.004h1.82l.364-.004h1.453l.363-.004h1.094l.363-.004h1.09l.364-.004h.726l.363-.004h.73l.364-.003h.727l.363-.004h.727l.363-.004h.363l.367-.004h.727l.363-.004h.363l.364-.004h.363l.363-.004h.364l.367-.004h.363l.727-.008h.363l.363-.004h.363l.727-.007h.367l.727-.008h.363l1.453-.016h.363l.364-.004.367-.004 2.906-.03.367-.005.364-.004.363-.007 1.09-.012.363-.008.727-.008.363-.008.367-.004.363-.007.364-.004.726-.016.363-.004 1.09-.023.367-.008.364-.004.363-.012 1.816-.039.364-.011.367-.008.726-.024.364-.008 2.18-.07.367-.015.363-.012 2.18-.094.363-.02.367-.015 1.453-.078.727-.047.363-.02.363-.027.364-.023.367-.028 1.09-.082 1.09-.094.726-.07.367-.039.364-.035.363-.043.363-.04.363-.042 1.09-.14.363-.051.368-.055.363-.055.727-.117.363-.066.363-.063.727-.14.363-.075.363-.078.367-.082.364-.082.726-.18.727-.195.363-.105.363-.11.364-.113.367-.117.363-.121.363-.13.364-.132.363-.14.363-.145.364-.153.363-.16.363-.164.363-.172.368-.175.363-.188.363-.195.363-.2.364-.21.363-.22.363-.23.363-.234.364-.246.367-.258.363-.266.364-.277.363-.289.363-.3.363-.313.364-.32.363-.337.363-.351.367-.36.364-.378.363-.387.363-.406.364-.418.363-.438.363-.449.363-.469.364-.484.363-.5.367-.52.363-.535.364-.558.363-.575.363-.593.364-.614.363-.636.363-.657.363-.68.368-.699.363-.722.363-.746.363-.77.364-.793.363-.816.363-.844.364-.867.363-.895.363-.918.367-.949.364-.972.363-1 .363-1.032.363-1.058.364-1.086.363-1.117.363-1.149.364-1.176.367-1.207.363-1.238.363-1.27.364-1.3.363-1.328.363-1.368.363-1.394.364-1.43.363-1.457.367-1.496.363-1.523.364-1.563.363-1.59.363-1.625.364-1.66.363-1.691.363-1.723.363-1.758.364-1.793.367-1.82.363-1.86.363-1.886.364-1.922.363-1.95.363-1.984.364-2.015.363-2.047.363-2.074.367-2.106.364-2.137.363-2.164.363-2.191.363-2.223.364-2.246.363-2.273.363-2.297.364-2.324.363-2.348.367-2.371.363-2.39.364-2.415.363-2.433.363-2.45.363-2.472.364-2.485.363-2.503.363-2.516.367-2.527.364-2.543.363-2.551.363-2.563.364-2.566.363-2.574.726-5.164.364-2.586.367-2.586.726-5.164.364-2.578.363-2.57.363-2.563.364-2.555.363-2.543.363-2.531.363-2.516.368-2.5.363-2.484.363-2.465.363-2.441.364-2.418.363-2.395.363-2.371.364-2.34.363-2.312.367-2.278.363-2.246.364-2.215.363-2.175.363-2.137.363-2.102.364-2.058.363-2.016.363-1.969.364-1.93.367-1.878.363-1.832.363-1.782.364-1.73.363-1.68.363-1.625.363-1.574.364-1.516.363-1.46.367-1.399.363-1.344.364-1.285.363-1.222.363-1.165.364-1.097.363-1.04.363-.976.363-.91.368-.848.363-.78.363-.72.363-.652.364-.59.363-.52.363-.456.364-.391.363-.324.363-.262.367-.195.364-.13.363-.066h.363l.363.063.364.129.363.187.363.25.364.313.367.375.363.433.363.493.364.547.363.609.363.66.363.719.364.77.363.824.363.875.368.921.363.977.363 1.02.363 1.066.364 1.11.363 1.152.363 1.195.363 1.234.364 1.274.367 1.312.363 1.344.364 1.379.363 1.41.363 1.438.363 1.468.364 1.496.363 1.524.363 1.543.367 1.566.364 1.586.363 1.602.363 1.62.364 1.638.363 1.648.363 1.66.363 1.672.364 1.676.363 1.687.367 1.688 1.09 5.086.727 3.383.363 1.687.363 1.68.363 1.675.368 1.665.363 1.656.363 1.644.363 1.633.364 1.617.363 1.602.363 1.586.364 1.57.363 1.55.367 1.532.363 1.512.364 1.488.363 1.469.363 1.445.363 1.422.364 1.395.363 1.367.363 1.344.364 1.316.367 1.29.363 1.26.363 1.235.364 1.2.363 1.175.363 1.14.363 1.114.364 1.082.363 1.05.367 1.02.363.989.364.953.363.926.363.89.364.86.363.828.363.793.363.765.364.73.367.7.363.664.363.637.364.605.363.57.363.54.364.511.363.48.363.45.367.418.364.39.363.36.363.332.363.3.364.278.363.246.363.219.364.191.367.168.363.141.363.113.364.094.363.063.363.042.363.02.364-.004.363-.027.363-.047.367-.07.364-.086.363-.11.363-.133.364-.144.363-.168.363-.184.363-.203.364-.219.367-.234.363-.25.363-.262.364-.28.363-.294.363-.308.364-.317.363-.336.363-.344.363-.355.368-.363.363-.38.363-.386.363-.394.364-.407.363-.414.363-.418.364-.43.363-.437.367-.441.363-.446.727-.914.363-.464.363-.47.364-.472.363-.476.363-.48.368-.481.363-.485.726-.976 1.453-1.97.364-.495.363-.492.367-.493.727-.984.363-.488.363-.492 1.09-1.454.363-.48.368-.477.363-.476.726-.938.364-.464.363-.461.363-.457.364-.454.726-.89.367-.438.364-.433.363-.43.363-.426.363-.418.364-.414.363-.406.363-.402.364-.395.367-.39.363-.383.363-.38.727-.734.363-.355.363-.352.364-.343.363-.336.367-.332.364-.325.363-.312.363-.309.363-.3.364-.293.363-.29.363-.277.363-.27.364-.261.367-.258.363-.246.364-.238.363-.23.363-.223.363-.215.364-.207.363-.2.363-.187.367-.184.364-.171.363-.165.363-.156.364-.148.363-.14.363-.13.363-.12.364-.114.363-.106.367-.097.363-.086.364-.078.363-.07.363-.063.364-.05.363-.044.363-.035.363-.027.368-.016.363-.008h.363l.363.012.364.016.363.027.363.039.364.043.363.055.367.062.363.07.364.082.363.086.363.102.363.105.364.114.363.125.363.132.364.141.367.152.363.16.363.169.364.175.363.184.363.195.363.2.364.21.363.22.367.23.363.234.364.246.363.25.363.262.364.27.363.277.363.285.363.293.364.3.367.313.363.317.363.328.364.332.363.34.363.351.364.356.363.367.363.37.367.38.364.39.363.395.363.402.363.41.364.414.363.426.363.43.364.441.367.446.363.453.363.457.364.469.363.472.363.48.363.485.364.492.363.5.363.508.367.512.364.52.363.523.363.531.364.535.363.543.363.547.363.555.364.562.367.567.363.57.363.578.364.582.363.586.363.594.364.597.363.602.363.61.363.613.368.617.363.62.363.63.727 1.265.363.641.727 1.297.363.652.367.657.363.66.727 1.336.363.672.363.675.364.68.363.684.363.687.368.691.363.692.363.695.363.7.727 1.406.363.707.727 1.422.363.714.367.72.363.718.364.723.363.726.363.723 1.09 2.191.363.735.368.734.363.734.726 1.477 1.454 2.969.726 1.492.367.746 1.09 2.238.727 1.5.363.746.727 1.5.367.746 1.09 2.25.363.746.363.75 1.09 2.239.367.746.727 1.492 1.09 2.227.363.738.363.742.363.738.364.735.367.734.727 1.469.726 1.46.727 1.454.726 1.445.367.723.364.715.363.718.363.715.727 1.422.726 1.414.364.703.367.7.363.699.363.695.727 1.383.727 1.375.363.684.363.68.363.675.368.672.363.672.726 1.336.727 1.32.363.656.364.653.363.648.367.648.727 1.282.363.636.726 1.266.727 1.25.727 1.234.367.614.363.61.363.605.364.601.363.598.363.594.727 1.18.363.581.367.582.727 1.149.726 1.133.727 1.117.363.554.363.547.368.547.363.543.726 1.07.364.532.726 1.047.364.52.726 1.023.367.503.364.504.363.5.726.985.727.968.727.954.367.468.363.47.727.921.726.906.363.446.727.882.363.434.367.43.364.43.363.421.727.836.726.82.363.403.364.398.367.399.363.39.727.774.726.758.727.742.363.363.367.363.364.36.363.355.726.695.364.344.363.34.363.336.364.332.363.328.367.328.363.32.727.633.363.313.727.61.363.3.363.297.368.297.726.578.727.562.363.278.363.273.727.54.363.265.367.258.727.515.726.5.364.246.363.243.363.238.363.234.368.235.363.23.726.453 1.09.656.727.422.367.207.363.207 1.09.598 1.09.574.727.367.367.184.363.176.363.18.727.343.726.336.364.164.363.16.367.16.727.313.363.152.727.297 1.09.434.363.137.367.136.363.137.727.266.726.257.364.125.726.243.367.12.727.235.727.227 1.09.328.363.105.367.102.726.203 1.09.293.727.187.726.18.368.086 1.09.258.363.082.363.078.363.082.364.078.363.074.367.079.363.074.364.07.363.074.726.14" fill="none" stroke-width="3.75" stroke-linecap="round" stroke-linejoin="round" stroke="#000" stroke-miterlimit="10"/></g><path d="M43.2 269.36V23.91M43.2 269.36H36M43.2 207.996H36M43.2 146.637H36M43.2 85.273H36M43.2 23.91H36" fill="none" stroke-width=".75" stroke-linecap="round" stroke-linejoin="round" stroke="#000" stroke-miterlimit="10"/><use xlink:href="#b" x="5.445" y="273.664"/><use xlink:href="#c" x="12.119" y="273.664"/><use xlink:href="#b" x="15.453" y="273.664"/><use xlink:href="#b" x="22.127" y="273.664"/><use xlink:href="#b" x="5.445" y="212.301"/><use xlink:href="#c" x="12.119" y="212.301"/><use xlink:href="#b" x="15.453" y="212.301"/><use xlink:href="#d" x="22.127" y="212.301"/><use xlink:href="#b" x="5.445" y="150.941"/><use xlink:href="#c" x="12.119" y="150.941"/><use xlink:href="#b" x="15.453" y="150.941"/><use xlink:href="#e" x="22.127" y="150.941"/><use xlink:href="#b" x="5.445" y="89.578"/><use xlink:href="#c" x="12.119" y="89.578"/><use xlink:href="#b" x="15.453" y="89.578"/><use xlink:href="#f" x="22.127" y="89.578"/><use xlink:href="#b" x="5.445" y="28.215"/><use xlink:href="#c" x="12.119" y="28.215"/><use xlink:href="#b" x="15.453" y="28.215"/><use xlink:href="#g" x="22.127" y="28.215"/><path d="M57.734 271.2h363.332M57.734 271.2v7.198M118.29 271.2v7.198M178.844 271.2v7.198M239.398 271.2v7.198M299.957 271.2v7.198M360.512 271.2v7.198M421.066 271.2v7.198" fill="none" stroke-width=".75" stroke-linecap="round" stroke-linejoin="round" stroke="#000" stroke-miterlimit="10"/><use xlink:href="#h" x="49.063" y="297.121"/><use xlink:href="#i" x="53.059" y="297.121"/><use xlink:href="#g" x="59.732" y="297.121"/><use xlink:href="#h" x="109.617" y="297.121"/><use xlink:href="#i" x="113.613" y="297.121"/><use xlink:href="#d" x="120.287" y="297.121"/><use xlink:href="#h" x="173.508" y="297.121"/><use xlink:href="#f" x="177.504" y="297.121"/><use xlink:href="#b" x="236.063" y="297.121"/><use xlink:href="#f" x="296.621" y="297.121"/><g><use xlink:href="#i" x="353.84" y="297.121"/><use xlink:href="#d" x="360.514" y="297.121"/></g><g><use xlink:href="#i" x="414.395" y="297.121"/><use xlink:href="#g" x="421.068" y="297.121"/></g><g><use xlink:href="#j" x="397.98" y="250.895"/></g><g><use xlink:href="#k" x="402.98" y="250.895"/></g><g><use xlink:href="#l" x="408.973" y="250.895"/></g><g><use xlink:href="#m" x="417.973" y="250.895"/></g><g><use xlink:href="#j" x="224.902" y="263.164"/></g><g><use xlink:href="#n" x="223.18" y="254.109"/></g><g><use xlink:href="#k" x="231.625" y="263.164"/></g><g><use xlink:href="#o" x="237.621" y="263.164"/></g><g><use xlink:href="#p" x="242.621" y="266.457"/></g><g><use xlink:href="#m" x="249.625" y="263.164"/></g><g clip-path="url(#q)"><path d="M43.2 177.316h392.402" fill="none" stroke-width=".75" stroke-linecap="round" stroke-linejoin="round" stroke="#000" stroke-dasharray=".75,2.25" stroke-miterlimit="10"/></g><g><use xlink:href="#r" x="62.945" y="174.602"/></g><g><use xlink:href="#s" x="66.949" y="177.238"/></g><g><use xlink:href="#t" x="75.887" y="174.602"/></g><g><use xlink:href="#u" x="87.125" y="174.602"/><use xlink:href="#v" x="91.128" y="174.602"/></g><g><use xlink:href="#w" x="99.141" y="174.602"/><use xlink:href="#u" x="103.143" y="174.602"/><use xlink:href="#v" x="107.146" y="174.602"/><use xlink:href="#x" x="115.158" y="174.602"/></g><path d="M161.023 176.277l.364-2.246.363-2.273.363-2.297.364-2.324.363-2.348.367-2.371.363-2.39.364-2.415.363-2.433.363-2.45.363-2.472.364-2.485.363-2.503.363-2.516.367-2.527.364-2.543.363-2.551.363-2.563.364-2.566.363-2.574.726-5.164.364-2.586.367-2.586.726-5.164.364-2.578.363-2.57.363-2.563.364-2.555.363-2.543.363-2.531.363-2.516.368-2.5.363-2.484.363-2.465.363-2.441.364-2.418.363-2.395.363-2.371.364-2.34.363-2.312.367-2.278.363-2.246.364-2.215.363-2.175.363-2.137.363-2.102.364-2.058.363-2.016.363-1.969.364-1.93.367-1.878.363-1.832.363-1.782.364-1.73.363-1.68.363-1.625.363-1.574.364-1.516.363-1.46.367-1.399.363-1.344.364-1.285.363-1.222.363-1.165.364-1.097.363-1.04.363-.976.363-.91.368-.848.363-.78.363-.72.363-.652.364-.59.363-.52.363-.456.364-.391.363-.324.363-.262.367-.195.364-.13.363-.066h.363l.363.063.364.129.363.187.363.25.364.313.367.375.363.433.363.493.364.547.363.609.363.66.363.719.364.77.363.824.363.875.368.921.363.977.363 1.02.363 1.066.364 1.11.363 1.152.363 1.195.363 1.234.364 1.274.367 1.312.363 1.344.364 1.379.363 1.41.363 1.438.363 1.468.364 1.496.363 1.524.363 1.543.367 1.566.364 1.586.363 1.602.363 1.62.364 1.638.363 1.648.363 1.66.363 1.672.364 1.676.363 1.687.367 1.688 1.09 5.086.727 3.383.363 1.687.363 1.68.363 1.675.368 1.665.363 1.656.363 1.644.363 1.633.364 1.617.363 1.602.363 1.586.364 1.57.363 1.55.367 1.532.363 1.512.364 1.488.363 1.469.363 1.445.363 1.422.364 1.395.363 1.367.363 1.344.364 1.316.367 1.29.363 1.26.363 1.235.364 1.2.363 1.175.363 1.14.363 1.114.364 1.082.363 1.05.367 1.02.363.989.364.953.363.926.363.89.364.86.363.828.363.793.363.765.364.73.367.7.363.664.363.637.364.605.363.57.363.54.364.511.363.48.363.45.367.418.364.39.363.36.363.332.363.3.364.278.363.246.363.219.364.191.367.168.363.141.363.113.364.094.363.063.363.042.363.02.364-.004.363-.027.363-.047.367-.07.364-.086.363-.11.363-.133.364-.144.363-.168.363-.184.363-.203.364-.219.367-.234.363-.25.363-.262.364-.28.363-.294.363-.308.364-.317.363-.336.363-.344.363-.355.368-.363.363-.38.363-.386.363-.394.364-.407.363-.414.363-.418.364-.43.363-.437.367-.441.363-.446.727-.914.363-.464.363-.47.364-.472.363-.476.363-.48.368-.481.363-.485.726-.976 1.453-1.97.364-.495.363-.492.367-.493.727-.984.363-.488.363-.492 1.09-1.454.363-.48.368-.477.363-.476.726-.938.364-.464.363-.461.363-.457.364-.454.726-.89.367-.438.364-.433.363-.43.363-.426.363-.418.364-.414.363-.406.363-.402.364-.395.367-.39.363-.383.363-.38.727-.734.363-.355.363-.352.364-.343.363-.336.367-.332.364-.325.363-.312.363-.309.363-.3.364-.293.363-.29.363-.277.363-.27.364-.261.367-.258.363-.246.364-.238.363-.23.363-.223.363-.215.364-.207.363-.2.363-.187.367-.184.364-.171.363-.165.363-.156.364-.148.363-.14.363-.13.363-.12.364-.114.363-.106.367-.097.363-.086.364-.078.363-.07.363-.063.364-.05.363-.044.363-.035.363-.027.368-.016.363-.008h.363l.363.012.364.016.363.027.363.039.364.043.363.055.367.062.363.07.364.082.363.086.363.102.363.105.364.114.363.125.363.132.364.141.367.152.363.16.363.169.364.175.363.184.363.195.363.2.364.21.363.22.367.23.363.234.364.246.363.25.363.262.364.27.363.277.363.285.363.293.364.3.367.313.363.317.363.328.364.332.363.34.363.351.364.356.363.367.363.37.367.38.364.39.363.395.363.402.363.41.364.414.363.426.363.43.364.441.367.446.363.453.363.457.364.469.363.472.363.48.363.485.364.492.363.5.363.508.367.512.364.52.363.523.363.531.364.535.363.543.363.547.363.555.364.562.367.567.363.57.363.578.364.582.363.586.363.594.364.597.363.602.363.61.363.613.368.617.363.62.363.63.727 1.265.363.641.727 1.297.363.652.367.657.363.66.727 1.336.363.672.363.675.364.68.363.684.363.687.368.691.363.692.363.695.363.7.727 1.406.363.707.727 1.422.363.714.367.72.363.718.364.723.363.726.363.723 1.09 2.191.363.735.368.734.363.734.726 1.477 1.454 2.969.726 1.492.367.746 1.09 2.238.727 1.5.363.746.727 1.5.367.746 1.09 2.25.363.746.363.75 1.09 2.239.367.746.727 1.492 1.09 2.227.363.738v93.414H161.023zm0 0" fill="#1e90ff" fill-opacity=".502" stroke-width=".007" stroke-linecap="round" stroke-linejoin="round" stroke="#000" stroke-miterlimit="10"/><g clip-path="url(#y)"><path d="M57.734 269.348h2.543l.368-.004h2.542l.364-.004h1.82l.363-.004h1.82l.364-.004h1.453l.363-.004h1.094l.363-.004h1.09l.364-.004h.726l.363-.004h.73l.364-.003h.727l.363-.004h.727l.363-.004h.363l.367-.004h.727l.363-.004h.363l.364-.004h.363l.363-.004h.364l.367-.004h.363l.727-.008h.363l.363-.004h.363l.727-.007h.367l.727-.008h.363l1.453-.016h.363l.364-.004.367-.004 2.906-.03.367-.005.364-.004.363-.007 1.09-.012.363-.008.727-.008.363-.008.367-.004.363-.007.364-.004.726-.016.363-.004 1.09-.023.367-.008.364-.004.363-.012 1.816-.039.364-.011.367-.008.726-.024.364-.008 2.18-.07.367-.015.363-.012 2.18-.094.363-.02.367-.015 1.453-.078.727-.047.363-.02.363-.027.364-.023.367-.028 1.09-.082 1.09-.094.726-.07.367-.039.364-.035.363-.043.363-.04.363-.042 1.09-.14.363-.051.368-.055.363-.055.727-.117.363-.066.363-.063.727-.14.363-.075.363-.078.367-.082.364-.082.726-.18.727-.195.363-.105.363-.11.364-.113.367-.117.363-.121.363-.13.364-.132.363-.14.363-.145.364-.153.363-.16.363-.164.363-.172.368-.175.363-.188.363-.195.363-.2.364-.21.363-.22.363-.23.363-.234.364-.246.367-.258.363-.266.364-.277.363-.289.363-.3.363-.313.364-.32.363-.337.363-.351.367-.36.364-.378.363-.387.363-.406.364-.418.363-.438.363-.449.363-.469.364-.484.363-.5.367-.52.363-.535.364-.558.363-.575.363-.593.364-.614.363-.636.363-.657.363-.68.368-.699.363-.722.363-.746.363-.77.364-.793.363-.816.363-.844.364-.867.363-.895.363-.918.367-.949.364-.972.363-1 .363-1.032.363-1.058.364-1.086.363-1.117.363-1.149.364-1.176.367-1.207.363-1.238.363-1.27.364-1.3.363-1.328.363-1.368.363-1.394.364-1.43.363-1.457.367-1.496.363-1.523.364-1.563.363-1.59.363-1.625.364-1.66.363-1.691.363-1.723.363-1.758.364-1.793.367-1.82.363-1.86.363-1.886.364-1.922.363-1.95.363-1.984.364-2.015.363-2.047.363-2.074.367-2.106.364-2.137.363-2.164.363-2.191.363-2.223.364-2.246.363-2.273.363-2.297.364-2.324.363-2.348.367-2.371.363-2.39.364-2.415.363-2.433.363-2.45.363-2.472.364-2.485.363-2.503.363-2.516.367-2.527.364-2.543.363-2.551.363-2.563.364-2.566.363-2.574.726-5.164.364-2.586.367-2.586.726-5.164.364-2.578.363-2.57.363-2.563.364-2.555.363-2.543.363-2.531.363-2.516.368-2.5.363-2.484.363-2.465.363-2.441.364-2.418.363-2.395.363-2.371.364-2.34.363-2.312.367-2.278.363-2.246.364-2.215.363-2.175.363-2.137.363-2.102.364-2.058.363-2.016.363-1.969.364-1.93.367-1.878.363-1.832.363-1.782.364-1.73.363-1.68.363-1.625.363-1.574.364-1.516.363-1.46.367-1.399.363-1.344.364-1.285.363-1.222.363-1.165.364-1.097.363-1.04.363-.976.363-.91.368-.848.363-.78.363-.72.363-.652.364-.59.363-.52.363-.456.364-.391.363-.324.363-.262.367-.195.364-.13.363-.066h.363l.363.063.364.129.363.187.363.25.364.313.367.375.363.433.363.493.364.547.363.609.363.66.363.719.364.77.363.824.363.875.368.921.363.977.363 1.02.363 1.066.364 1.11.363 1.152.363 1.195.363 1.234.364 1.274.367 1.312.363 1.344.364 1.379.363 1.41.363 1.438.363 1.468.364 1.496.363 1.524.363 1.543.367 1.566.364 1.586.363 1.602.363 1.62.364 1.638.363 1.648.363 1.66.363 1.672.364 1.676.363 1.687.367 1.688 1.09 5.086.727 3.383.363 1.687.363 1.68.363 1.675.368 1.665.363 1.656.363 1.644.363 1.633.364 1.617.363 1.602.363 1.586.364 1.57.363 1.55.367 1.532.363 1.512.364 1.488.363 1.469.363 1.445.363 1.422.364 1.395.363 1.367.363 1.344.364 1.316.367 1.29.363 1.26.363 1.235.364 1.2.363 1.175.363 1.14.363 1.114.364 1.082.363 1.05.367 1.02.363.989.364.953.363.926.363.89.364.86.363.828.363.793.363.765.364.73.367.7.363.664.363.637.364.605.363.57.363.54.364.511.363.48.363.45.367.418.364.39.363.36.363.332.363.3.364.278.363.246.363.219.364.191.367.168.363.141.363.113.364.094.363.063.363.042.363.02.364-.004.363-.027.363-.047.367-.07.364-.086.363-.11.363-.133.364-.144.363-.168.363-.184.363-.203.364-.219.367-.234.363-.25.363-.262.364-.28.363-.294.363-.308.364-.317.363-.336.363-.344.363-.355.368-.363.363-.38.363-.386.363-.394.364-.407.363-.414.363-.418.364-.43.363-.437.367-.441.363-.446.727-.914.363-.464.363-.47.364-.472.363-.476.363-.48.368-.481.363-.485.726-.976 1.453-1.97.364-.495.363-.492.367-.493.727-.984.363-.488.363-.492 1.09-1.454.363-.48.368-.477.363-.476.726-.938.364-.464.363-.461.363-.457.364-.454.726-.89.367-.438.364-.433.363-.43.363-.426.363-.418.364-.414.363-.406.363-.402.364-.395.367-.39.363-.383.363-.38.727-.734.363-.355.363-.352.364-.343.363-.336.367-.332.364-.325.363-.312.363-.309.363-.3.364-.293.363-.29.363-.277.363-.27.364-.261.367-.258.363-.246.364-.238.363-.23.363-.223.363-.215.364-.207.363-.2.363-.187.367-.184.364-.171.363-.165.363-.156.364-.148.363-.14.363-.13.363-.12.364-.114.363-.106.367-.097.363-.086.364-.078.363-.07.363-.063.364-.05.363-.044.363-.035.363-.027.368-.016.363-.008h.363l.363.012.364.016.363.027.363.039.364.043.363.055.367.062.363.07.364.082.363.086.363.102.363.105.364.114.363.125.363.132.364.141.367.152.363.16.363.169.364.175.363.184.363.195.363.2.364.21.363.22.367.23.363.234.364.246.363.25.363.262.364.27.363.277.363.285.363.293.364.3.367.313.363.317.363.328.364.332.363.34.363.351.364.356.363.367.363.37.367.38.364.39.363.395.363.402.363.41.364.414.363.426.363.43.364.441.367.446.363.453.363.457.364.469.363.472.363.48.363.485.364.492.363.5.363.508.367.512.364.52.363.523.363.531.364.535.363.543.363.547.363.555.364.562.367.567.363.57.363.578.364.582.363.586.363.594.364.597.363.602.363.61.363.613.368.617.363.62.363.63.727 1.265.363.641.727 1.297.363.652.367.657.363.66.727 1.336.363.672.363.675.364.68.363.684.363.687.368.691.363.692.363.695.363.7.727 1.406.363.707.727 1.422.363.714.367.72.363.718.364.723.363.726.363.723 1.09 2.191.363.735.368.734.363.734.726 1.477 1.454 2.969.726 1.492.367.746 1.09 2.238.727 1.5.363.746.727 1.5.367.746 1.09 2.25.363.746.363.75 1.09 2.239.367.746.727 1.492 1.09 2.227.363.738.363.742.363.738.364.735.367.734.727 1.469.726 1.46.727 1.454.726 1.445.367.723.364.715.363.718.363.715.727 1.422.726 1.414.364.703.367.7.363.699.363.695.727 1.383.727 1.375.363.684.363.68.363.675.368.672.363.672.726 1.336.727 1.32.363.656.364.653.363.648.367.648.727 1.282.363.636.726 1.266.727 1.25.727 1.234.367.614.363.61.363.605.364.601.363.598.363.594.727 1.18.363.581.367.582.727 1.149.726 1.133.727 1.117.363.554.363.547.368.547.363.543.726 1.07.364.532.726 1.047.364.52.726 1.023.367.503.364.504.363.5.726.985.727.968.727.954.367.468.363.47.727.921.726.906.363.446.727.882.363.434.367.43.364.43.363.421.727.836.726.82.363.403.364.398.367.399.363.39.727.774.726.758.727.742.363.363.367.363.364.36.363.355.726.695.364.344.363.34.363.336.364.332.363.328.367.328.363.32.727.633.363.313.727.61.363.3.363.297.368.297.726.578.727.562.363.278.363.273.727.54.363.265.367.258.727.515.726.5.364.246.363.243.363.238.363.234.368.235.363.23.726.453 1.09.656.727.422.367.207.363.207 1.09.598 1.09.574.727.367.367.184.363.176.363.18.727.343.726.336.364.164.363.16.367.16.727.313.363.152.727.297 1.09.434.363.137.367.136.363.137.727.266.726.257.364.125.726.243.367.12.727.235.727.227 1.09.328.363.105.367.102.726.203 1.09.293.727.187.726.18.368.086 1.09.258.363.082.363.078.363.082.364.078.363.074.367.079.363.074.364.07.363.074.726.14" fill="none" stroke-width="3.75" stroke-linecap="round" stroke-linejoin="round" stroke="#000" stroke-miterlimit="10"/></g></svg>