<?xml version="1.0" encoding="UTF-8"?>
<svg xmlns="http://www.w3.org/2000/svg" xmlns:xlink="http://www.w3.org/1999/xlink" width="374pt" height="374pt" viewBox="0 0 374 374" version="1.1">
<g id="surface41">
<rect x="0" y="0" width="374" height="374" style="fill:rgb(100%,100%,100%);fill-opacity:1;stroke:none;"/>
<path style="fill-rule:nonzero;fill:rgb(100%,0%,0%);fill-opacity:1;stroke-width:0.75;stroke-linecap:round;stroke-linejoin:round;stroke:rgb(100%,0%,0%);stroke-opacity:1;stroke-miterlimit:10;" d="M 360.367188 158.847656 C 360.367188 161.25 356.769531 161.25 356.769531 158.847656 C 356.769531 156.449219 360.367188 156.449219 360.367188 158.847656 "/>
<path style="fill-rule:nonzero;fill:rgb(100%,0%,0%);fill-opacity:1;stroke-width:0.75;stroke-linecap:round;stroke-linejoin:round;stroke:rgb(100%,0%,0%);stroke-opacity:1;stroke-miterlimit:10;" d="M 309.730469 126.15625 C 309.730469 128.554688 306.132812 128.554688 306.132812 126.15625 C 306.132812 123.753906 309.730469 123.753906 309.730469 126.15625 "/>
<path style="fill-rule:nonzero;fill:rgb(100%,0%,0%);fill-opacity:1;stroke-width:0.75;stroke-linecap:round;stroke-linejoin:round;stroke:rgb(100%,0%,0%);stroke-opacity:1;stroke-miterlimit:10;" d="M 319.207031 77.351562 C 319.207031 79.75 315.609375 79.75 315.609375 77.351562 C 315.609375 74.949219 319.207031 74.949219 319.207031 77.351562 "/>
<path style="fill-rule:nonzero;fill:rgb(100%,0%,0%);fill-opacity:1;stroke-width:0.75;stroke-linecap:round;stroke-linejoin:round;stroke:rgb(100%,0%,0%);stroke-opacity:1;stroke-miterlimit:10;" d="M 302.363281 24.359375 C 302.363281 26.761719 298.765625 26.761719 298.765625 24.359375 C 298.765625 21.960938 302.363281 21.960938 302.363281 24.359375 "/>
<path style="fill-rule:nonzero;fill:rgb(100%,0%,0%);fill-opacity:1;stroke-width:0.75;stroke-linecap:round;stroke-linejoin:round;stroke:rgb(100%,0%,0%);stroke-opacity:1;stroke-miterlimit:10;" d="M 244.054688 42.136719 C 244.054688 44.535156 240.453125 44.535156 240.453125 42.136719 C 240.453125 39.734375 244.054688 39.734375 244.054688 42.136719 "/>
<path style="fill-rule:nonzero;fill:rgb(100%,0%,0%);fill-opacity:1;stroke-width:0.75;stroke-linecap:round;stroke-linejoin:round;stroke:rgb(100%,0%,0%);stroke-opacity:1;stroke-miterlimit:10;" d="M 203.035156 20.503906 C 203.035156 22.90625 199.433594 22.90625 199.433594 20.503906 C 199.433594 18.105469 203.035156 18.105469 203.035156 20.503906 "/>
<path style="fill-rule:nonzero;fill:rgb(100%,0%,0%);fill-opacity:1;stroke-width:0.75;stroke-linecap:round;stroke-linejoin:round;stroke:rgb(100%,0%,0%);stroke-opacity:1;stroke-miterlimit:10;" d="M 150.894531 13.851562 C 150.894531 16.25 147.296875 16.25 147.296875 13.851562 C 147.296875 11.453125 150.894531 11.453125 150.894531 13.851562 "/>
<path style="fill-rule:nonzero;fill:rgb(100%,0%,0%);fill-opacity:1;stroke-width:0.75;stroke-linecap:round;stroke-linejoin:round;stroke:rgb(100%,0%,0%);stroke-opacity:1;stroke-miterlimit:10;" d="M 116.15625 52.023438 C 116.15625 54.421875 112.558594 54.421875 112.558594 52.023438 C 112.558594 49.625 116.15625 49.625 116.15625 52.023438 "/>
<path style="fill-rule:nonzero;fill:rgb(100%,0%,0%);fill-opacity:1;stroke-width:0.75;stroke-linecap:round;stroke-linejoin:round;stroke:rgb(100%,0%,0%);stroke-opacity:1;stroke-miterlimit:10;" d="M 102.976562 98.496094 C 102.976562 100.898438 99.378906 100.898438 99.378906 98.496094 C 99.378906 96.097656 102.976562 96.097656 102.976562 98.496094 "/>
<path style="fill-rule:nonzero;fill:rgb(100%,0%,0%);fill-opacity:1;stroke-width:0.75;stroke-linecap:round;stroke-linejoin:round;stroke:rgb(100%,0%,0%);stroke-opacity:1;stroke-miterlimit:10;" d="M 124.796875 143.878906 C 124.796875 146.28125 121.195312 146.28125 121.195312 143.878906 C 121.195312 141.480469 124.796875 141.480469 124.796875 143.878906 "/>
<path style="fill-rule:nonzero;fill:rgb(100%,0%,0%);fill-opacity:1;stroke-width:0.75;stroke-linecap:round;stroke-linejoin:round;stroke:rgb(100%,0%,0%);stroke-opacity:1;stroke-miterlimit:10;" d="M 17.230469 191.765625 C 17.230469 194.167969 13.632812 194.167969 13.632812 191.765625 C 13.632812 189.367188 17.230469 189.367188 17.230469 191.765625 "/>
<path style="fill-rule:nonzero;fill:rgb(100%,0%,0%);fill-opacity:1;stroke-width:0.75;stroke-linecap:round;stroke-linejoin:round;stroke:rgb(100%,0%,0%);stroke-opacity:1;stroke-miterlimit:10;" d="M 110.234375 215.273438 C 110.234375 217.671875 106.632812 217.671875 106.632812 215.273438 C 106.632812 212.875 110.234375 212.875 110.234375 215.273438 "/>
<path style="fill-rule:nonzero;fill:rgb(100%,0%,0%);fill-opacity:1;stroke-width:0.75;stroke-linecap:round;stroke-linejoin:round;stroke:rgb(100%,0%,0%);stroke-opacity:1;stroke-miterlimit:10;" d="M 121.984375 259.34375 C 121.984375 261.746094 118.386719 261.746094 118.386719 259.34375 C 118.386719 256.945312 121.984375 256.945312 121.984375 259.34375 "/>
<path style="fill-rule:nonzero;fill:rgb(100%,0%,0%);fill-opacity:1;stroke-width:0.75;stroke-linecap:round;stroke-linejoin:round;stroke:rgb(100%,0%,0%);stroke-opacity:1;stroke-miterlimit:10;" d="M 142.390625 323.242188 C 142.390625 325.640625 138.789062 325.640625 138.789062 323.242188 C 138.789062 320.839844 142.390625 320.839844 142.390625 323.242188 "/>
<path style="fill-rule:nonzero;fill:rgb(100%,0%,0%);fill-opacity:1;stroke-width:0.75;stroke-linecap:round;stroke-linejoin:round;stroke:rgb(100%,0%,0%);stroke-opacity:1;stroke-miterlimit:10;" d="M 200.988281 321.910156 C 200.988281 324.3125 197.386719 324.3125 197.386719 321.910156 C 197.386719 319.511719 200.988281 319.511719 200.988281 321.910156 "/>
<path style="fill-rule:nonzero;fill:rgb(100%,0%,0%);fill-opacity:1;stroke-width:0.75;stroke-linecap:round;stroke-linejoin:round;stroke:rgb(100%,0%,0%);stroke-opacity:1;stroke-miterlimit:10;" d="M 265.472656 360.148438 C 265.472656 362.546875 261.875 362.546875 261.875 360.148438 C 261.875 357.75 265.472656 357.75 265.472656 360.148438 "/>
<path style="fill-rule:nonzero;fill:rgb(100%,0%,0%);fill-opacity:1;stroke-width:0.75;stroke-linecap:round;stroke-linejoin:round;stroke:rgb(100%,0%,0%);stroke-opacity:1;stroke-miterlimit:10;" d="M 318.507812 318.046875 C 318.507812 320.445312 314.90625 320.445312 314.90625 318.046875 C 314.90625 315.648438 318.507812 315.648438 318.507812 318.046875 "/>
<path style="fill-rule:nonzero;fill:rgb(100%,0%,0%);fill-opacity:1;stroke-width:0.75;stroke-linecap:round;stroke-linejoin:round;stroke:rgb(100%,0%,0%);stroke-opacity:1;stroke-miterlimit:10;" d="M 292.171875 219.304688 C 292.171875 221.703125 288.570312 221.703125 288.570312 219.304688 C 288.570312 216.90625 292.171875 216.90625 292.171875 219.304688 "/>
<path style="fill-rule:nonzero;fill:rgb(100%,0%,0%);fill-opacity:1;stroke-width:0.75;stroke-linecap:round;stroke-linejoin:round;stroke:rgb(100%,0%,0%);stroke-opacity:1;stroke-miterlimit:10;" d="M 359.140625 208.503906 C 359.140625 210.90625 355.542969 210.90625 355.542969 208.503906 C 355.542969 206.105469 359.140625 206.105469 359.140625 208.503906 "/>
<path style="fill-rule:nonzero;fill:rgb(100%,0%,0%);fill-opacity:1;stroke-width:0.75;stroke-linecap:round;stroke-linejoin:round;stroke:rgb(100%,0%,0%);stroke-opacity:1;stroke-miterlimit:10;" d="M 340.277344 158.847656 C 340.277344 161.25 336.679688 161.25 336.679688 158.847656 C 336.679688 156.449219 340.277344 156.449219 340.277344 158.847656 "/>
<path style="fill:none;stroke-width:0.75;stroke-linecap:round;stroke-linejoin:round;stroke:rgb(0%,0%,0%);stroke-opacity:1;stroke-miterlimit:10;" d="M 6.933594 374 L 359.671875 374 "/>
<path style="fill:none;stroke-width:0.75;stroke-linecap:round;stroke-linejoin:round;stroke:rgb(0%,0%,0%);stroke-opacity:1;stroke-miterlimit:10;" d="M 6.933594 374 L 6.933594 374 "/>
<path style="fill:none;stroke-width:0.75;stroke-linecap:round;stroke-linejoin:round;stroke:rgb(0%,0%,0%);stroke-opacity:1;stroke-miterlimit:10;" d="M 65.722656 374 L 65.722656 374 "/>
<path style="fill:none;stroke-width:0.75;stroke-linecap:round;stroke-linejoin:round;stroke:rgb(0%,0%,0%);stroke-opacity:1;stroke-miterlimit:10;" d="M 124.515625 374 L 124.515625 374 "/>
<path style="fill:none;stroke-width:0.75;stroke-linecap:round;stroke-linejoin:round;stroke:rgb(0%,0%,0%);stroke-opacity:1;stroke-miterlimit:10;" d="M 183.304688 374 L 183.304688 374 "/>
<path style="fill:none;stroke-width:0.75;stroke-linecap:round;stroke-linejoin:round;stroke:rgb(0%,0%,0%);stroke-opacity:1;stroke-miterlimit:10;" d="M 242.09375 374 L 242.09375 374 "/>
<path style="fill:none;stroke-width:0.75;stroke-linecap:round;stroke-linejoin:round;stroke:rgb(0%,0%,0%);stroke-opacity:1;stroke-miterlimit:10;" d="M 300.882812 374 L 300.882812 374 "/>
<path style="fill:none;stroke-width:0.75;stroke-linecap:round;stroke-linejoin:round;stroke:rgb(0%,0%,0%);stroke-opacity:1;stroke-miterlimit:10;" d="M 359.671875 374 L 359.671875 374 "/>
<path style="fill:none;stroke-width:0.75;stroke-linecap:round;stroke-linejoin:round;stroke:rgb(0%,0%,0%);stroke-opacity:1;stroke-miterlimit:10;" d="M 0 364.613281 L 0 11.875 "/>
<path style="fill:none;stroke-width:0.75;stroke-linecap:round;stroke-linejoin:round;stroke:rgb(0%,0%,0%);stroke-opacity:1;stroke-miterlimit:10;" d="M 0 364.613281 L 0 364.613281 "/>
<path style="fill:none;stroke-width:0.75;stroke-linecap:round;stroke-linejoin:round;stroke:rgb(0%,0%,0%);stroke-opacity:1;stroke-miterlimit:10;" d="M 0 305.824219 L 0 305.824219 "/>
<path style="fill:none;stroke-width:0.75;stroke-linecap:round;stroke-linejoin:round;stroke:rgb(0%,0%,0%);stroke-opacity:1;stroke-miterlimit:10;" d="M 0 247.03125 L 0 247.03125 "/>
<path style="fill:none;stroke-width:0.75;stroke-linecap:round;stroke-linejoin:round;stroke:rgb(0%,0%,0%);stroke-opacity:1;stroke-miterlimit:10;" d="M 0 188.242188 L 0 188.242188 "/>
<path style="fill:none;stroke-width:0.75;stroke-linecap:round;stroke-linejoin:round;stroke:rgb(0%,0%,0%);stroke-opacity:1;stroke-miterlimit:10;" d="M 0 129.453125 L 0 129.453125 "/>
<path style="fill:none;stroke-width:0.75;stroke-linecap:round;stroke-linejoin:round;stroke:rgb(0%,0%,0%);stroke-opacity:1;stroke-miterlimit:10;" d="M 0 70.664062 L 0 70.664062 "/>
<path style="fill:none;stroke-width:0.75;stroke-linecap:round;stroke-linejoin:round;stroke:rgb(0%,0%,0%);stroke-opacity:1;stroke-miterlimit:10;" d="M 0 11.875 L 0 11.875 "/>
<path style="fill:none;stroke-width:0.75;stroke-linecap:round;stroke-linejoin:round;stroke:rgb(0%,0%,0%);stroke-opacity:1;stroke-miterlimit:10;" d="M 0 374 L 374 374 L 374 0 L 0 0 L 0 374 "/>
<path style="fill-rule:nonzero;fill:rgb(100%,75.294118%,79.607843%);fill-opacity:0.4;stroke-width:0.075;stroke-linecap:round;stroke-linejoin:round;stroke:rgb(100%,0%,0%);stroke-opacity:0.4;stroke-miterlimit:10;" d="M 374 117.566406 L 372.195312 116.914062 L 369.535156 116.140625 L 366.832031 115.539062 L 364.09375 115.105469 L 361.335938 114.84375 L 358.570312 114.757812 L 355.800781 114.84375 L 353.042969 115.105469 L 350.308594 115.539062 L 347.605469 116.140625 L 344.945312 116.914062 L 342.335938 117.851562 L 339.796875 118.953125 L 337.328125 120.210938 L 334.941406 121.621094 L 332.652344 123.175781 L 330.464844 124.875 L 328.386719 126.707031 L 326.425781 128.664062 L 324.59375 130.742188 L 322.898438 132.933594 L 321.339844 135.222656 L 319.929688 137.605469 L 318.671875 140.074219 L 317.574219 142.617188 L 316.636719 145.222656 L 315.863281 147.882812 L 315.257812 150.585938 L 314.824219 153.324219 L 314.5625 156.082031 L 314.476562 158.847656 L 314.5625 161.617188 L 314.824219 164.375 L 315.257812 167.109375 L 315.863281 169.8125 L 316.636719 172.472656 L 317.574219 175.082031 L 318.671875 177.621094 L 319.929688 180.089844 L 321.339844 182.472656 L 322.898438 184.765625 L 324.59375 186.953125 L 326.425781 189.03125 L 328.386719 190.992188 L 330.464844 192.824219 L 332.652344 194.519531 L 334.941406 196.078125 L 337.328125 197.488281 L 339.796875 198.746094 L 342.335938 199.84375 L 344.945312 200.78125 L 347.605469 201.554688 L 350.308594 202.160156 L 353.042969 202.59375 L 355.800781 202.855469 L 358.570312 202.941406 L 361.335938 202.855469 L 364.09375 202.59375 L 366.832031 202.160156 L 369.535156 201.554688 L 372.195312 200.78125 L 374 200.132812 Z M 374 117.566406 "/>
<path style="fill-rule:nonzero;fill:rgb(100%,75.294118%,79.607843%);fill-opacity:0.4;stroke-width:0.075;stroke-linecap:round;stroke-linejoin:round;stroke:rgb(100%,0%,0%);stroke-opacity:0.4;stroke-miterlimit:10;" d="M 352.023438 126.15625 L 351.9375 123.386719 L 351.675781 120.628906 L 351.242188 117.894531 L 350.636719 115.191406 L 349.863281 112.53125 L 348.925781 109.925781 L 347.828125 107.382812 L 346.570312 104.914062 L 345.160156 102.53125 L 343.601562 100.238281 L 341.90625 98.050781 L 340.074219 95.972656 L 338.113281 94.011719 L 336.035156 92.183594 L 333.847656 90.484375 L 331.558594 88.925781 L 329.171875 87.515625 L 326.703125 86.257812 L 324.164062 85.160156 L 321.554688 84.222656 L 318.894531 83.449219 L 316.191406 82.84375 L 313.457031 82.410156 L 310.699219 82.148438 L 307.929688 82.0625 L 305.164062 82.148438 L 302.40625 82.410156 L 299.667969 82.84375 L 296.964844 83.449219 L 294.304688 84.222656 L 291.699219 85.160156 L 289.15625 86.257812 L 286.691406 87.515625 L 284.304688 88.925781 L 282.015625 90.484375 L 279.824219 92.183594 L 277.746094 94.011719 L 275.789062 95.972656 L 273.957031 98.050781 L 272.261719 100.238281 L 270.703125 102.53125 L 269.292969 104.914062 L 268.035156 107.382812 L 266.933594 109.925781 L 265.996094 112.53125 L 265.222656 115.191406 L 264.621094 117.894531 L 264.1875 120.628906 L 263.925781 123.386719 L 263.839844 126.15625 L 263.925781 128.925781 L 264.1875 131.679688 L 264.621094 134.417969 L 265.222656 137.121094 L 265.996094 139.78125 L 266.933594 142.386719 L 268.035156 144.929688 L 269.292969 147.398438 L 270.703125 149.78125 L 272.261719 152.070312 L 273.957031 154.261719 L 275.789062 156.339844 L 277.746094 158.296875 L 279.824219 160.128906 L 282.015625 161.828125 L 284.304688 163.382812 L 286.691406 164.792969 L 289.15625 166.050781 L 291.699219 167.152344 L 294.304688 168.089844 L 296.964844 168.863281 L 299.667969 169.464844 L 302.40625 169.898438 L 305.164062 170.160156 L 307.929688 170.246094 L 310.699219 170.160156 L 313.457031 169.898438 L 316.191406 169.464844 L 318.894531 168.863281 L 321.554688 168.089844 L 324.164062 167.152344 L 326.703125 166.050781 L 329.171875 164.792969 L 331.558594 163.382812 L 333.847656 161.828125 L 336.035156 160.128906 L 338.113281 158.296875 L 340.074219 156.339844 L 341.90625 154.261719 L 343.601562 152.070312 L 345.160156 149.78125 L 346.570312 147.398438 L 347.828125 144.929688 L 348.925781 142.386719 L 349.863281 139.78125 L 350.636719 137.121094 L 351.242188 134.417969 L 351.675781 131.679688 L 351.9375 128.925781 Z M 352.023438 126.15625 "/>
<path style="fill-rule:nonzero;fill:rgb(100%,75.294118%,79.607843%);fill-opacity:0.4;stroke-width:0.075;stroke-linecap:round;stroke-linejoin:round;stroke:rgb(100%,0%,0%);stroke-opacity:0.4;stroke-miterlimit:10;" d="M 361.5 77.351562 L 361.414062 74.582031 L 361.152344 71.824219 L 360.71875 69.085938 L 360.113281 66.382812 L 359.34375 63.722656 L 358.402344 61.117188 L 357.304688 58.574219 L 356.046875 56.109375 L 354.636719 53.722656 L 353.078125 51.433594 L 351.382812 49.246094 L 349.550781 47.167969 L 347.589844 45.207031 L 345.511719 43.375 L 343.324219 41.679688 L 341.035156 40.121094 L 338.648438 38.710938 L 336.179688 37.453125 L 333.640625 36.355469 L 331.035156 35.414062 L 328.375 34.644531 L 325.671875 34.039062 L 322.933594 33.605469 L 320.175781 33.34375 L 317.40625 33.257812 L 314.640625 33.34375 L 311.882812 33.605469 L 309.144531 34.039062 L 306.441406 34.644531 L 303.78125 35.414062 L 301.175781 36.355469 L 298.632812 37.453125 L 296.167969 38.710938 L 293.78125 40.121094 L 291.492188 41.679688 L 289.304688 43.375 L 287.226562 45.207031 L 285.265625 47.167969 L 283.433594 49.246094 L 281.738281 51.433594 L 280.179688 53.722656 L 278.769531 56.109375 L 277.511719 58.574219 L 276.414062 61.117188 L 275.472656 63.722656 L 274.703125 66.382812 L 274.097656 69.085938 L 273.664062 71.824219 L 273.402344 74.582031 L 273.316406 77.351562 L 273.402344 80.117188 L 273.664062 82.875 L 274.097656 85.613281 L 274.703125 88.316406 L 275.472656 90.976562 L 276.414062 93.582031 L 277.511719 96.125 L 278.769531 98.589844 L 280.179688 100.976562 L 281.738281 103.265625 L 283.433594 105.453125 L 285.265625 107.53125 L 287.226562 109.492188 L 289.304688 111.324219 L 291.492188 113.019531 L 293.78125 114.578125 L 296.167969 115.988281 L 298.632812 117.246094 L 301.175781 118.34375 L 303.78125 119.285156 L 306.441406 120.054688 L 309.144531 120.660156 L 311.882812 121.09375 L 314.640625 121.355469 L 317.40625 121.441406 L 320.175781 121.355469 L 322.933594 121.09375 L 325.671875 120.660156 L 328.375 120.054688 L 331.035156 119.285156 L 333.640625 118.34375 L 336.179688 117.246094 L 338.648438 115.988281 L 341.035156 114.578125 L 343.324219 113.019531 L 345.511719 111.324219 L 347.589844 109.492188 L 349.550781 107.53125 L 351.382812 105.453125 L 353.078125 103.265625 L 354.636719 100.976562 L 356.046875 98.589844 L 357.304688 96.125 L 358.402344 93.582031 L 359.34375 90.976562 L 360.113281 88.316406 L 360.71875 85.613281 L 361.152344 82.875 L 361.414062 80.117188 Z M 361.5 77.351562 "/>
<path style="fill-rule:nonzero;fill:rgb(100%,75.294118%,79.607843%);fill-opacity:0.4;stroke-width:0.075;stroke-linecap:round;stroke-linejoin:round;stroke:rgb(100%,0%,0%);stroke-opacity:0.4;stroke-miterlimit:10;" d="M 344.65625 24.359375 L 344.570312 21.589844 L 344.308594 18.832031 L 343.875 16.097656 L 343.269531 13.394531 L 342.5 10.734375 L 341.558594 8.128906 L 340.460938 5.585938 L 339.203125 3.117188 L 337.792969 0.734375 L 337.292969 0 L 263.835938 0 L 263.335938 0.734375 L 261.925781 3.117188 L 260.667969 5.585938 L 259.566406 8.128906 L 258.628906 10.734375 L 257.855469 13.394531 L 257.253906 16.097656 L 256.820312 18.832031 L 256.558594 21.589844 L 256.472656 24.359375 L 256.558594 27.128906 L 256.820312 29.886719 L 257.253906 32.621094 L 257.855469 35.324219 L 258.628906 37.984375 L 259.566406 40.589844 L 260.667969 43.132812 L 261.925781 45.601562 L 263.335938 47.984375 L 264.894531 50.277344 L 266.589844 52.464844 L 268.421875 54.542969 L 270.382812 56.5 L 272.457031 58.332031 L 274.648438 60.03125 L 276.9375 61.589844 L 279.324219 63 L 281.789062 64.253906 L 284.332031 65.355469 L 286.9375 66.292969 L 289.597656 67.066406 L 292.300781 67.671875 L 295.039062 68.105469 L 297.796875 68.363281 L 300.5625 68.453125 L 303.332031 68.363281 L 306.089844 68.105469 L 308.824219 67.671875 L 311.527344 67.066406 L 314.1875 66.292969 L 316.796875 65.355469 L 319.335938 64.253906 L 321.804688 63 L 324.191406 61.589844 L 326.480469 60.03125 L 328.667969 58.332031 L 330.746094 56.5 L 332.707031 54.542969 L 334.539062 52.464844 L 336.234375 50.277344 L 337.792969 47.984375 L 339.203125 45.601562 L 340.460938 43.132812 L 341.558594 40.589844 L 342.5 37.984375 L 343.269531 35.324219 L 343.875 32.621094 L 344.308594 29.886719 L 344.570312 27.128906 Z M 344.65625 24.359375 "/>
<path style="fill-rule:nonzero;fill:rgb(100%,75.294118%,79.607843%);fill-opacity:0.4;stroke-width:0.075;stroke-linecap:round;stroke-linejoin:round;stroke:rgb(100%,0%,0%);stroke-opacity:0.4;stroke-miterlimit:10;" d="M 286.347656 42.136719 L 286.257812 39.367188 L 286 36.609375 L 285.566406 33.871094 L 284.960938 31.167969 L 284.1875 28.511719 L 283.25 25.902344 L 282.148438 23.363281 L 280.890625 20.894531 L 279.480469 18.507812 L 277.925781 16.21875 L 276.226562 14.03125 L 274.394531 11.953125 L 272.4375 9.992188 L 270.359375 8.160156 L 268.171875 6.464844 L 265.878906 4.90625 L 263.496094 3.496094 L 261.027344 2.238281 L 258.484375 1.140625 L 255.878906 0.199219 L 255.1875 0 L 229.320312 0 L 228.628906 0.199219 L 226.023438 1.140625 L 223.480469 2.238281 L 221.011719 3.496094 L 218.628906 4.90625 L 216.335938 6.464844 L 214.148438 8.160156 L 212.070312 9.992188 L 210.113281 11.953125 L 208.28125 14.03125 L 206.582031 16.21875 L 205.027344 18.507812 L 203.617188 20.894531 L 202.359375 23.363281 L 201.257812 25.902344 L 200.320312 28.511719 L 199.546875 31.167969 L 198.941406 33.871094 L 198.507812 36.609375 L 198.25 39.367188 L 198.160156 42.136719 L 198.25 44.902344 L 198.507812 47.660156 L 198.941406 50.398438 L 199.546875 53.101562 L 200.320312 55.761719 L 201.257812 58.367188 L 202.359375 60.910156 L 203.617188 63.375 L 205.027344 65.761719 L 206.582031 68.050781 L 208.28125 70.242188 L 210.113281 72.316406 L 212.070312 74.277344 L 214.148438 76.109375 L 216.335938 77.804688 L 218.628906 79.363281 L 221.011719 80.773438 L 223.480469 82.03125 L 226.023438 83.128906 L 228.628906 84.070312 L 231.289062 84.84375 L 233.992188 85.445312 L 236.726562 85.878906 L 239.484375 86.140625 L 242.253906 86.226562 L 245.023438 86.140625 L 247.78125 85.878906 L 250.515625 85.445312 L 253.21875 84.84375 L 255.878906 84.070312 L 258.484375 83.128906 L 261.027344 82.03125 L 263.496094 80.773438 L 265.878906 79.363281 L 268.171875 77.804688 L 270.359375 76.109375 L 272.4375 74.277344 L 274.394531 72.316406 L 276.226562 70.242188 L 277.925781 68.050781 L 279.480469 65.761719 L 280.890625 63.375 L 282.148438 60.910156 L 283.25 58.367188 L 284.1875 55.761719 L 284.960938 53.101562 L 285.566406 50.398438 L 286 47.660156 L 286.257812 44.902344 Z M 286.347656 42.136719 "/>
<path style="fill-rule:nonzero;fill:rgb(100%,75.294118%,79.607843%);fill-opacity:0.4;stroke-width:0.075;stroke-linecap:round;stroke-linejoin:round;stroke:rgb(100%,0%,0%);stroke-opacity:0.4;stroke-miterlimit:10;" d="M 245.328125 20.503906 L 245.238281 17.734375 L 244.980469 14.976562 L 244.546875 12.242188 L 243.941406 9.539062 L 243.167969 6.878906 L 242.230469 4.273438 L 241.128906 1.730469 L 240.25 0 L 162.21875 0 L 161.339844 1.730469 L 160.238281 4.273438 L 159.300781 6.878906 L 158.527344 9.539062 L 157.921875 12.242188 L 157.488281 14.976562 L 157.230469 17.734375 L 157.140625 20.503906 L 157.230469 23.273438 L 157.488281 26.03125 L 157.921875 28.765625 L 158.527344 31.46875 L 159.300781 34.128906 L 160.238281 36.734375 L 161.339844 39.277344 L 162.597656 41.746094 L 164.007812 44.128906 L 165.5625 46.421875 L 167.261719 48.609375 L 169.09375 50.6875 L 171.050781 52.644531 L 173.128906 54.476562 L 175.316406 56.175781 L 177.609375 57.734375 L 179.992188 59.140625 L 182.460938 60.398438 L 185.003906 61.5 L 187.609375 62.4375 L 190.269531 63.210938 L 192.972656 63.816406 L 195.707031 64.25 L 198.464844 64.507812 L 201.234375 64.597656 L 204.003906 64.507812 L 206.761719 64.25 L 209.496094 63.816406 L 212.199219 63.210938 L 214.859375 62.4375 L 217.464844 61.5 L 220.007812 60.398438 L 222.476562 59.140625 L 224.859375 57.734375 L 227.152344 56.175781 L 229.339844 54.476562 L 231.417969 52.644531 L 233.375 50.6875 L 235.207031 48.609375 L 236.90625 46.421875 L 238.460938 44.128906 L 239.871094 41.746094 L 241.128906 39.277344 L 242.230469 36.734375 L 243.167969 34.128906 L 243.941406 31.46875 L 244.546875 28.765625 L 244.980469 26.03125 L 245.238281 23.273438 Z M 245.328125 20.503906 "/>
<path style="fill-rule:nonzero;fill:rgb(100%,75.294118%,79.607843%);fill-opacity:0.4;stroke-width:0.075;stroke-linecap:round;stroke-linejoin:round;stroke:rgb(100%,0%,0%);stroke-opacity:0.4;stroke-miterlimit:10;" d="M 193.1875 13.851562 L 193.101562 11.082031 L 192.839844 8.324219 L 192.40625 5.589844 L 191.804688 2.886719 L 191.03125 0.226562 L 190.949219 0 L 107.242188 0 L 107.164062 0.226562 L 106.390625 2.886719 L 105.785156 5.589844 L 105.351562 8.324219 L 105.089844 11.082031 L 105.003906 13.851562 L 105.089844 16.621094 L 105.351562 19.378906 L 105.785156 22.113281 L 106.390625 24.816406 L 107.164062 27.476562 L 108.101562 30.082031 L 109.199219 32.625 L 110.457031 35.09375 L 111.867188 37.476562 L 113.425781 39.769531 L 115.121094 41.957031 L 116.953125 44.035156 L 118.914062 45.992188 L 120.992188 47.824219 L 123.179688 49.523438 L 125.472656 51.078125 L 127.855469 52.488281 L 130.324219 53.746094 L 132.863281 54.847656 L 135.472656 55.785156 L 138.132812 56.558594 L 140.835938 57.164062 L 143.570312 57.597656 L 146.328125 57.855469 L 149.097656 57.945312 L 151.863281 57.855469 L 154.621094 57.597656 L 157.359375 57.164062 L 160.0625 56.558594 L 162.722656 55.785156 L 165.328125 54.847656 L 167.871094 53.746094 L 170.339844 52.488281 L 172.722656 51.078125 L 175.011719 49.523438 L 177.203125 47.824219 L 179.28125 45.992188 L 181.238281 44.035156 L 183.070312 41.957031 L 184.769531 39.769531 L 186.324219 37.476562 L 187.734375 35.09375 L 188.992188 32.625 L 190.09375 30.082031 L 191.03125 27.476562 L 191.804688 24.816406 L 192.40625 22.113281 L 192.839844 19.378906 L 193.101562 16.621094 Z M 193.1875 13.851562 "/>
<path style="fill-rule:nonzero;fill:rgb(100%,75.294118%,79.607843%);fill-opacity:0.4;stroke-width:0.075;stroke-linecap:round;stroke-linejoin:round;stroke:rgb(100%,0%,0%);stroke-opacity:0.4;stroke-miterlimit:10;" d="M 158.449219 52.023438 L 158.363281 49.253906 L 158.101562 46.496094 L 157.667969 43.761719 L 157.066406 41.058594 L 156.292969 38.398438 L 155.355469 35.792969 L 154.253906 33.25 L 152.996094 30.78125 L 151.585938 28.398438 L 150.027344 26.105469 L 148.332031 23.917969 L 146.5 21.839844 L 144.542969 19.882812 L 142.464844 18.050781 L 140.273438 16.351562 L 137.984375 14.792969 L 135.597656 13.386719 L 133.132812 12.128906 L 130.589844 11.027344 L 127.984375 10.089844 L 125.324219 9.316406 L 122.621094 8.710938 L 119.882812 8.277344 L 117.125 8.019531 L 114.359375 7.929688 L 111.589844 8.019531 L 108.832031 8.277344 L 106.097656 8.710938 L 103.394531 9.316406 L 100.734375 10.089844 L 98.125 11.027344 L 95.585938 12.128906 L 93.117188 13.386719 L 90.730469 14.792969 L 88.441406 16.351562 L 86.253906 18.050781 L 84.175781 19.882812 L 82.214844 21.839844 L 80.382812 23.917969 L 78.6875 26.105469 L 77.128906 28.398438 L 75.71875 30.78125 L 74.460938 33.25 L 73.363281 35.792969 L 72.425781 38.398438 L 71.652344 41.058594 L 71.046875 43.761719 L 70.613281 46.496094 L 70.351562 49.253906 L 70.265625 52.023438 L 70.351562 54.792969 L 70.613281 57.550781 L 71.046875 60.285156 L 71.652344 62.988281 L 72.425781 65.648438 L 73.363281 68.253906 L 74.460938 70.796875 L 75.71875 73.265625 L 77.128906 75.648438 L 78.6875 77.941406 L 80.382812 80.128906 L 82.214844 82.207031 L 84.175781 84.164062 L 86.253906 85.996094 L 88.441406 87.695312 L 90.730469 89.25 L 93.117188 90.660156 L 95.585938 91.917969 L 98.125 93.019531 L 100.734375 93.957031 L 103.394531 94.730469 L 106.097656 95.335938 L 108.832031 95.765625 L 111.589844 96.027344 L 114.359375 96.113281 L 117.125 96.027344 L 119.882812 95.765625 L 122.621094 95.335938 L 125.324219 94.730469 L 127.984375 93.957031 L 130.589844 93.019531 L 133.132812 91.917969 L 135.597656 90.660156 L 137.984375 89.25 L 140.273438 87.695312 L 142.464844 85.996094 L 144.542969 84.164062 L 146.5 82.207031 L 148.332031 80.128906 L 150.027344 77.941406 L 151.585938 75.648438 L 152.996094 73.265625 L 154.253906 70.796875 L 155.355469 68.253906 L 156.292969 65.648438 L 157.066406 62.988281 L 157.667969 60.285156 L 158.101562 57.550781 L 158.363281 54.792969 Z M 158.449219 52.023438 "/>
<path style="fill-rule:nonzero;fill:rgb(100%,75.294118%,79.607843%);fill-opacity:0.4;stroke-width:0.075;stroke-linecap:round;stroke-linejoin:round;stroke:rgb(100%,0%,0%);stroke-opacity:0.4;stroke-miterlimit:10;" d="M 145.269531 98.496094 L 145.183594 95.726562 L 144.921875 92.972656 L 144.488281 90.234375 L 143.882812 87.53125 L 143.113281 84.871094 L 142.171875 82.265625 L 141.074219 79.722656 L 139.816406 77.253906 L 138.40625 74.871094 L 136.847656 72.582031 L 135.152344 70.390625 L 133.320312 68.3125 L 131.359375 66.355469 L 129.28125 64.523438 L 127.09375 62.824219 L 124.804688 61.269531 L 122.417969 59.859375 L 119.949219 58.601562 L 117.410156 57.5 L 114.804688 56.5625 L 112.144531 55.789062 L 109.441406 55.1875 L 106.703125 54.753906 L 103.945312 54.492188 L 101.175781 54.40625 L 98.410156 54.492188 L 95.652344 54.753906 L 92.914062 55.1875 L 90.210938 55.789062 L 87.550781 56.5625 L 84.945312 57.5 L 82.402344 58.601562 L 79.9375 59.859375 L 77.550781 61.269531 L 75.261719 62.824219 L 73.070312 64.523438 L 70.996094 66.355469 L 69.035156 68.3125 L 67.203125 70.390625 L 65.507812 72.582031 L 63.949219 74.871094 L 62.539062 77.253906 L 61.28125 79.722656 L 60.183594 82.265625 L 59.242188 84.871094 L 58.472656 87.53125 L 57.867188 90.234375 L 57.433594 92.972656 L 57.171875 95.726562 L 57.085938 98.496094 L 57.171875 101.265625 L 57.433594 104.023438 L 57.867188 106.757812 L 58.472656 109.460938 L 59.242188 112.121094 L 60.183594 114.726562 L 61.28125 117.269531 L 62.539062 119.738281 L 63.949219 122.121094 L 65.507812 124.414062 L 67.203125 126.601562 L 69.035156 128.679688 L 70.996094 130.640625 L 73.070312 132.46875 L 75.261719 134.167969 L 77.550781 135.726562 L 79.9375 137.136719 L 82.402344 138.394531 L 84.945312 139.492188 L 87.550781 140.429688 L 90.210938 141.203125 L 92.914062 141.808594 L 95.652344 142.242188 L 98.410156 142.503906 L 101.175781 142.589844 L 103.945312 142.503906 L 106.703125 142.242188 L 109.441406 141.808594 L 112.144531 141.203125 L 114.804688 140.429688 L 117.410156 139.492188 L 119.949219 138.394531 L 122.417969 137.136719 L 124.804688 135.726562 L 127.09375 134.167969 L 129.28125 132.46875 L 131.359375 130.640625 L 133.320312 128.679688 L 135.152344 126.601562 L 136.847656 124.414062 L 138.40625 122.121094 L 139.816406 119.738281 L 141.074219 117.269531 L 142.171875 114.726562 L 143.113281 112.121094 L 143.882812 109.460938 L 144.488281 106.757812 L 144.921875 104.023438 L 145.183594 101.265625 Z M 145.269531 98.496094 "/>
<path style="fill-rule:nonzero;fill:rgb(100%,75.294118%,79.607843%);fill-opacity:0.4;stroke-width:0.075;stroke-linecap:round;stroke-linejoin:round;stroke:rgb(100%,0%,0%);stroke-opacity:0.4;stroke-miterlimit:10;" d="M 167.085938 143.878906 L 167 141.113281 L 166.738281 138.355469 L 166.304688 135.617188 L 165.703125 132.914062 L 164.929688 130.253906 L 163.992188 127.648438 L 162.890625 125.105469 L 161.632812 122.636719 L 160.222656 120.253906 L 158.667969 117.964844 L 156.96875 115.773438 L 155.136719 113.695312 L 153.179688 111.738281 L 151.101562 109.90625 L 148.910156 108.207031 L 146.621094 106.652344 L 144.238281 105.242188 L 141.769531 103.984375 L 139.226562 102.882812 L 136.621094 101.945312 L 133.960938 101.171875 L 131.257812 100.570312 L 128.519531 100.136719 L 125.761719 99.875 L 122.996094 99.789062 L 120.226562 99.875 L 117.46875 100.136719 L 114.734375 100.570312 L 112.03125 101.171875 L 109.371094 101.945312 L 106.765625 102.882812 L 104.222656 103.984375 L 101.753906 105.242188 L 99.371094 106.652344 L 97.078125 108.207031 L 94.890625 109.90625 L 92.8125 111.738281 L 90.851562 113.695312 L 89.023438 115.773438 L 87.324219 117.964844 L 85.765625 120.253906 L 84.355469 122.636719 L 83.097656 125.105469 L 82 127.648438 L 81.0625 130.253906 L 80.289062 132.914062 L 79.683594 135.617188 L 79.25 138.355469 L 78.988281 141.113281 L 78.902344 143.878906 L 78.988281 146.648438 L 79.25 149.40625 L 79.683594 152.140625 L 80.289062 154.84375 L 81.0625 157.503906 L 82 160.113281 L 83.097656 162.652344 L 84.355469 165.121094 L 85.765625 167.503906 L 87.324219 169.796875 L 89.023438 171.984375 L 90.851562 174.0625 L 92.8125 176.023438 L 94.890625 177.855469 L 97.078125 179.550781 L 99.371094 181.109375 L 101.753906 182.519531 L 104.222656 183.777344 L 106.765625 184.875 L 109.371094 185.8125 L 112.03125 186.585938 L 114.734375 187.191406 L 117.46875 187.625 L 120.226562 187.886719 L 122.996094 187.972656 L 125.761719 187.886719 L 128.519531 187.625 L 131.257812 187.191406 L 133.960938 186.585938 L 136.621094 185.8125 L 139.226562 184.875 L 141.769531 183.777344 L 144.238281 182.519531 L 146.621094 181.109375 L 148.910156 179.550781 L 151.101562 177.855469 L 153.179688 176.023438 L 155.136719 174.0625 L 156.96875 171.984375 L 158.667969 169.796875 L 160.222656 167.503906 L 161.632812 165.121094 L 162.890625 162.652344 L 163.992188 160.113281 L 164.929688 157.503906 L 165.703125 154.84375 L 166.304688 152.140625 L 166.738281 149.40625 L 167 146.648438 Z M 167.085938 143.878906 "/>
<path style="fill-rule:nonzero;fill:rgb(100%,75.294118%,79.607843%);fill-opacity:0.4;stroke-width:0.075;stroke-linecap:round;stroke-linejoin:round;stroke:rgb(100%,0%,0%);stroke-opacity:0.4;stroke-miterlimit:10;" d="M 59.523438 191.765625 L 59.4375 189 L 59.175781 186.242188 L 58.742188 183.503906 L 58.136719 180.800781 L 57.363281 178.140625 L 56.425781 175.535156 L 55.328125 172.992188 L 54.070312 170.523438 L 52.660156 168.140625 L 51.101562 165.851562 L 49.40625 163.660156 L 47.574219 161.582031 L 45.613281 159.625 L 43.535156 157.792969 L 41.347656 156.09375 L 39.058594 154.539062 L 36.671875 153.128906 L 34.203125 151.871094 L 31.664062 150.769531 L 29.054688 149.832031 L 26.394531 149.058594 L 23.691406 148.457031 L 20.957031 148.023438 L 18.199219 147.761719 L 15.429688 147.675781 L 12.664062 147.761719 L 9.90625 148.023438 L 7.167969 148.457031 L 4.464844 149.058594 L 1.804688 149.832031 L 0 150.484375 L 0 233.050781 L 1.804688 233.699219 L 4.464844 234.472656 L 7.167969 235.078125 L 9.90625 235.511719 L 12.664062 235.773438 L 15.429688 235.859375 L 18.199219 235.773438 L 20.957031 235.511719 L 23.691406 235.078125 L 26.394531 234.472656 L 29.054688 233.699219 L 31.664062 232.761719 L 34.203125 231.664062 L 36.671875 230.40625 L 39.058594 228.996094 L 41.347656 227.4375 L 43.535156 225.742188 L 45.613281 223.910156 L 47.574219 221.949219 L 49.40625 219.871094 L 51.101562 217.683594 L 52.660156 215.394531 L 54.070312 213.007812 L 55.328125 210.539062 L 56.425781 208 L 57.363281 205.390625 L 58.136719 202.730469 L 58.742188 200.027344 L 59.175781 197.292969 L 59.4375 194.535156 Z M 59.523438 191.765625 "/>
<path style="fill-rule:nonzero;fill:rgb(100%,75.294118%,79.607843%);fill-opacity:0.4;stroke-width:0.075;stroke-linecap:round;stroke-linejoin:round;stroke:rgb(100%,0%,0%);stroke-opacity:0.4;stroke-miterlimit:10;" d="M 152.527344 215.273438 L 152.4375 212.503906 L 152.179688 209.746094 L 151.746094 207.011719 L 151.140625 204.308594 L 150.367188 201.648438 L 149.429688 199.042969 L 148.328125 196.5 L 147.070312 194.03125 L 145.664062 191.648438 L 144.105469 189.355469 L 142.40625 187.167969 L 140.574219 185.089844 L 138.617188 183.132812 L 136.539062 181.300781 L 134.351562 179.601562 L 132.058594 178.046875 L 129.675781 176.636719 L 127.207031 175.378906 L 124.664062 174.277344 L 122.058594 173.339844 L 119.398438 172.566406 L 116.695312 171.960938 L 113.960938 171.527344 L 111.203125 171.269531 L 108.433594 171.179688 L 105.664062 171.269531 L 102.90625 171.527344 L 100.171875 171.960938 L 97.46875 172.566406 L 94.808594 173.339844 L 92.203125 174.277344 L 89.660156 175.378906 L 87.191406 176.636719 L 84.808594 178.046875 L 82.515625 179.601562 L 80.328125 181.300781 L 78.25 183.132812 L 76.292969 185.089844 L 74.460938 187.167969 L 72.761719 189.355469 L 71.207031 191.648438 L 69.796875 194.03125 L 68.539062 196.5 L 67.4375 199.042969 L 66.5 201.648438 L 65.726562 204.308594 L 65.121094 207.011719 L 64.691406 209.746094 L 64.429688 212.503906 L 64.34375 215.273438 L 64.429688 218.042969 L 64.691406 220.800781 L 65.121094 223.535156 L 65.726562 226.238281 L 66.5 228.898438 L 67.4375 231.503906 L 68.539062 234.046875 L 69.796875 236.515625 L 71.207031 238.898438 L 72.761719 241.191406 L 74.460938 243.378906 L 76.292969 245.457031 L 78.25 247.414062 L 80.328125 249.246094 L 82.515625 250.945312 L 84.808594 252.5 L 87.191406 253.910156 L 89.660156 255.167969 L 92.203125 256.269531 L 94.808594 257.207031 L 97.46875 257.980469 L 100.171875 258.585938 L 102.90625 259.019531 L 105.664062 259.277344 L 108.433594 259.367188 L 111.203125 259.277344 L 113.960938 259.019531 L 116.695312 258.585938 L 119.398438 257.980469 L 122.058594 257.207031 L 124.664062 256.269531 L 127.207031 255.167969 L 129.675781 253.910156 L 132.058594 252.5 L 134.351562 250.945312 L 136.539062 249.246094 L 138.617188 247.414062 L 140.574219 245.457031 L 142.40625 243.378906 L 144.105469 241.191406 L 145.664062 238.898438 L 147.070312 236.515625 L 148.328125 234.046875 L 149.429688 231.503906 L 150.367188 228.898438 L 151.140625 226.238281 L 151.746094 223.535156 L 152.179688 220.800781 L 152.4375 218.042969 Z M 152.527344 215.273438 "/>
<path style="fill-rule:nonzero;fill:rgb(100%,75.294118%,79.607843%);fill-opacity:0.4;stroke-width:0.075;stroke-linecap:round;stroke-linejoin:round;stroke:rgb(100%,0%,0%);stroke-opacity:0.4;stroke-miterlimit:10;" d="M 164.277344 259.34375 L 164.191406 256.574219 L 163.929688 253.816406 L 163.496094 251.082031 L 162.890625 248.378906 L 162.121094 245.71875 L 161.179688 243.113281 L 160.082031 240.570312 L 158.824219 238.101562 L 157.414062 235.71875 L 155.855469 233.425781 L 154.160156 231.238281 L 152.328125 229.160156 L 150.367188 227.203125 L 148.289062 225.371094 L 146.101562 223.671875 L 143.8125 222.117188 L 141.425781 220.707031 L 138.960938 219.449219 L 136.417969 218.347656 L 133.8125 217.410156 L 131.152344 216.636719 L 128.449219 216.03125 L 125.710938 215.601562 L 122.953125 215.339844 L 120.183594 215.253906 L 117.417969 215.339844 L 114.660156 215.601562 L 111.921875 216.03125 L 109.21875 216.636719 L 106.558594 217.410156 L 103.953125 218.347656 L 101.410156 219.449219 L 98.945312 220.707031 L 96.558594 222.117188 L 94.269531 223.671875 L 92.082031 225.371094 L 90.003906 227.203125 L 88.042969 229.160156 L 86.210938 231.238281 L 84.515625 233.425781 L 82.957031 235.71875 L 81.546875 238.101562 L 80.289062 240.570312 L 79.191406 243.113281 L 78.25 245.71875 L 77.480469 248.378906 L 76.875 251.082031 L 76.441406 253.816406 L 76.179688 256.574219 L 76.09375 259.34375 L 76.179688 262.113281 L 76.441406 264.871094 L 76.875 267.605469 L 77.480469 270.308594 L 78.25 272.96875 L 79.191406 275.574219 L 80.289062 278.117188 L 81.546875 280.585938 L 82.957031 282.96875 L 84.515625 285.261719 L 86.210938 287.449219 L 88.042969 289.527344 L 90.003906 291.484375 L 92.082031 293.316406 L 94.269531 295.015625 L 96.558594 296.574219 L 98.945312 297.980469 L 101.410156 299.238281 L 103.953125 300.339844 L 106.558594 301.277344 L 109.21875 302.050781 L 111.921875 302.65625 L 114.660156 303.089844 L 117.417969 303.347656 L 120.183594 303.4375 L 122.953125 303.347656 L 125.710938 303.089844 L 128.449219 302.65625 L 131.152344 302.050781 L 133.8125 301.277344 L 136.417969 300.339844 L 138.960938 299.238281 L 141.425781 297.980469 L 143.8125 296.574219 L 146.101562 295.015625 L 148.289062 293.316406 L 150.367188 291.484375 L 152.328125 289.527344 L 154.160156 287.449219 L 155.855469 285.261719 L 157.414062 282.96875 L 158.824219 280.585938 L 160.082031 278.117188 L 161.179688 275.574219 L 162.121094 272.96875 L 162.890625 270.308594 L 163.496094 267.605469 L 163.929688 264.871094 L 164.191406 262.113281 Z M 164.277344 259.34375 "/>
<path style="fill-rule:nonzero;fill:rgb(100%,75.294118%,79.607843%);fill-opacity:0.4;stroke-width:0.075;stroke-linecap:round;stroke-linejoin:round;stroke:rgb(100%,0%,0%);stroke-opacity:0.4;stroke-miterlimit:10;" d="M 184.679688 323.242188 L 184.59375 320.472656 L 184.332031 317.714844 L 183.898438 314.980469 L 183.296875 312.277344 L 182.523438 309.617188 L 181.585938 307.007812 L 180.484375 304.46875 L 179.226562 302 L 177.816406 299.613281 L 176.261719 297.324219 L 174.5625 295.136719 L 172.730469 293.058594 L 170.773438 291.097656 L 168.695312 289.265625 L 166.503906 287.570312 L 164.214844 286.011719 L 161.832031 284.601562 L 159.363281 283.34375 L 156.820312 282.246094 L 154.214844 281.308594 L 151.554688 280.535156 L 148.851562 279.929688 L 146.113281 279.496094 L 143.359375 279.234375 L 140.589844 279.148438 L 137.820312 279.234375 L 135.0625 279.496094 L 132.328125 279.929688 L 129.625 280.535156 L 126.964844 281.308594 L 124.359375 282.246094 L 121.816406 283.34375 L 119.347656 284.601562 L 116.964844 286.011719 L 114.671875 287.570312 L 112.484375 289.265625 L 110.40625 291.097656 L 108.445312 293.058594 L 106.617188 295.136719 L 104.917969 297.324219 L 103.359375 299.613281 L 101.949219 302 L 100.691406 304.46875 L 99.59375 307.007812 L 98.65625 309.617188 L 97.882812 312.277344 L 97.277344 314.980469 L 96.84375 317.714844 L 96.582031 320.472656 L 96.496094 323.242188 L 96.582031 326.007812 L 96.84375 328.765625 L 97.277344 331.503906 L 97.882812 334.207031 L 98.65625 336.867188 L 99.59375 339.472656 L 100.691406 342.015625 L 101.949219 344.484375 L 103.359375 346.867188 L 104.917969 349.15625 L 106.617188 351.347656 L 108.445312 353.425781 L 110.40625 355.382812 L 112.484375 357.214844 L 114.671875 358.914062 L 116.964844 360.46875 L 119.347656 361.878906 L 121.816406 363.136719 L 124.359375 364.238281 L 126.964844 365.175781 L 129.625 365.949219 L 132.328125 366.550781 L 135.0625 366.984375 L 137.820312 367.246094 L 140.589844 367.332031 L 143.359375 367.246094 L 146.113281 366.984375 L 148.851562 366.550781 L 151.554688 365.949219 L 154.214844 365.175781 L 156.820312 364.238281 L 159.363281 363.136719 L 161.832031 361.878906 L 164.214844 360.46875 L 166.503906 358.914062 L 168.695312 357.214844 L 170.773438 355.382812 L 172.730469 353.425781 L 174.5625 351.347656 L 176.261719 349.15625 L 177.816406 346.867188 L 179.226562 344.484375 L 180.484375 342.015625 L 181.585938 339.472656 L 182.523438 336.867188 L 183.296875 334.207031 L 183.898438 331.503906 L 184.332031 328.765625 L 184.59375 326.007812 Z M 184.679688 323.242188 "/>
<path style="fill-rule:nonzero;fill:rgb(100%,75.294118%,79.607843%);fill-opacity:0.4;stroke-width:0.075;stroke-linecap:round;stroke-linejoin:round;stroke:rgb(100%,0%,0%);stroke-opacity:0.4;stroke-miterlimit:10;" d="M 243.277344 321.910156 L 243.191406 319.140625 L 242.929688 316.382812 L 242.496094 313.648438 L 241.894531 310.945312 L 241.121094 308.285156 L 240.183594 305.679688 L 239.082031 303.136719 L 237.824219 300.667969 L 236.414062 298.285156 L 234.859375 295.992188 L 233.160156 293.804688 L 231.328125 291.726562 L 229.371094 289.769531 L 227.292969 287.9375 L 225.101562 286.238281 L 222.8125 284.683594 L 220.429688 283.273438 L 217.960938 282.015625 L 215.417969 280.914062 L 212.8125 279.976562 L 210.152344 279.203125 L 207.449219 278.597656 L 204.710938 278.167969 L 201.953125 277.90625 L 199.1875 277.820312 L 196.417969 277.90625 L 193.660156 278.167969 L 190.925781 278.597656 L 188.222656 279.203125 L 185.5625 279.976562 L 182.953125 280.914062 L 180.414062 282.015625 L 177.945312 283.273438 L 175.5625 284.683594 L 173.269531 286.238281 L 171.082031 287.9375 L 169.003906 289.769531 L 167.042969 291.726562 L 165.210938 293.804688 L 163.515625 295.992188 L 161.957031 298.285156 L 160.546875 300.667969 L 159.289062 303.136719 L 158.191406 305.679688 L 157.253906 308.285156 L 156.480469 310.945312 L 155.875 313.648438 L 155.441406 316.382812 L 155.179688 319.140625 L 155.09375 321.910156 L 155.179688 324.679688 L 155.441406 327.4375 L 155.875 330.171875 L 156.480469 332.875 L 157.253906 335.535156 L 158.191406 338.140625 L 159.289062 340.683594 L 160.546875 343.152344 L 161.957031 345.535156 L 163.515625 347.828125 L 165.210938 350.015625 L 167.042969 352.09375 L 169.003906 354.050781 L 171.082031 355.882812 L 173.269531 357.582031 L 175.5625 359.140625 L 177.945312 360.546875 L 180.414062 361.804688 L 182.953125 362.90625 L 185.5625 363.84375 L 188.222656 364.617188 L 190.925781 365.222656 L 193.660156 365.65625 L 196.417969 365.914062 L 199.1875 366.003906 L 201.953125 365.914062 L 204.710938 365.65625 L 207.449219 365.222656 L 210.152344 364.617188 L 212.8125 363.84375 L 215.417969 362.90625 L 217.960938 361.804688 L 220.429688 360.546875 L 222.8125 359.140625 L 225.101562 357.582031 L 227.292969 355.882812 L 229.371094 354.050781 L 231.328125 352.09375 L 233.160156 350.015625 L 234.859375 347.828125 L 236.414062 345.535156 L 237.824219 343.152344 L 239.082031 340.683594 L 240.183594 338.140625 L 241.121094 335.535156 L 241.894531 332.875 L 242.496094 330.171875 L 242.929688 327.4375 L 243.191406 324.679688 Z M 243.277344 321.910156 "/>
<path style="fill-rule:nonzero;fill:rgb(100%,75.294118%,79.607843%);fill-opacity:0.4;stroke-width:0.075;stroke-linecap:round;stroke-linejoin:round;stroke:rgb(100%,0%,0%);stroke-opacity:0.4;stroke-miterlimit:10;" d="M 307.765625 360.148438 L 307.679688 357.378906 L 307.417969 354.621094 L 306.984375 351.886719 L 306.378906 349.183594 L 305.609375 346.523438 L 304.667969 343.917969 L 303.570312 341.375 L 302.3125 338.90625 L 300.902344 336.523438 L 299.34375 334.230469 L 297.648438 332.042969 L 295.816406 329.964844 L 293.855469 328.007812 L 291.78125 326.175781 L 289.589844 324.476562 L 287.300781 322.921875 L 284.914062 321.511719 L 282.449219 320.253906 L 279.90625 319.152344 L 277.300781 318.214844 L 274.640625 317.441406 L 271.9375 316.835938 L 269.199219 316.402344 L 266.441406 316.144531 L 263.675781 316.054688 L 260.90625 316.144531 L 258.148438 316.402344 L 255.410156 316.835938 L 252.707031 317.441406 L 250.046875 318.214844 L 247.441406 319.152344 L 244.902344 320.253906 L 242.433594 321.511719 L 240.046875 322.921875 L 237.757812 324.476562 L 235.570312 326.175781 L 233.492188 328.007812 L 231.53125 329.964844 L 229.699219 332.042969 L 228.003906 334.230469 L 226.445312 336.523438 L 225.035156 338.90625 L 223.777344 341.375 L 222.679688 343.917969 L 221.738281 346.523438 L 220.96875 349.183594 L 220.363281 351.886719 L 219.929688 354.621094 L 219.667969 357.378906 L 219.582031 360.148438 L 219.667969 362.917969 L 219.929688 365.675781 L 220.363281 368.410156 L 220.96875 371.113281 L 221.738281 373.773438 L 221.820312 374 L 305.527344 374 L 305.609375 373.773438 L 306.378906 371.113281 L 306.984375 368.410156 L 307.417969 365.675781 L 307.679688 362.917969 Z M 307.765625 360.148438 "/>
<path style="fill-rule:nonzero;fill:rgb(100%,75.294118%,79.607843%);fill-opacity:0.4;stroke-width:0.075;stroke-linecap:round;stroke-linejoin:round;stroke:rgb(100%,0%,0%);stroke-opacity:0.4;stroke-miterlimit:10;" d="M 360.800781 318.046875 L 360.710938 315.277344 L 360.453125 312.519531 L 360.019531 309.785156 L 359.414062 307.082031 L 358.640625 304.421875 L 357.703125 301.816406 L 356.601562 299.273438 L 355.34375 296.804688 L 353.933594 294.421875 L 352.378906 292.128906 L 350.679688 289.941406 L 348.847656 287.863281 L 346.890625 285.90625 L 344.8125 284.074219 L 342.625 282.375 L 340.332031 280.820312 L 337.949219 279.410156 L 335.480469 278.152344 L 332.9375 277.050781 L 330.332031 276.113281 L 327.671875 275.339844 L 324.96875 274.734375 L 322.234375 274.300781 L 319.476562 274.042969 L 316.707031 273.953125 L 313.9375 274.042969 L 311.179688 274.300781 L 308.445312 274.734375 L 305.742188 275.339844 L 303.082031 276.113281 L 300.476562 277.050781 L 297.933594 278.152344 L 295.464844 279.410156 L 293.082031 280.820312 L 290.789062 282.375 L 288.601562 284.074219 L 286.523438 285.90625 L 284.566406 287.863281 L 282.734375 289.941406 L 281.035156 292.128906 L 279.480469 294.421875 L 278.070312 296.804688 L 276.8125 299.273438 L 275.710938 301.816406 L 274.773438 304.421875 L 274 307.082031 L 273.394531 309.785156 L 272.960938 312.519531 L 272.703125 315.277344 L 272.613281 318.046875 L 272.703125 320.816406 L 272.960938 323.574219 L 273.394531 326.308594 L 274 329.011719 L 274.773438 331.671875 L 275.710938 334.277344 L 276.8125 336.820312 L 278.070312 339.289062 L 279.480469 341.671875 L 281.035156 343.964844 L 282.734375 346.152344 L 284.566406 348.230469 L 286.523438 350.1875 L 288.601562 352.019531 L 290.789062 353.71875 L 293.082031 355.273438 L 295.464844 356.683594 L 297.933594 357.941406 L 300.476562 359.042969 L 303.082031 359.980469 L 305.742188 360.753906 L 308.445312 361.359375 L 311.179688 361.792969 L 313.9375 362.050781 L 316.707031 362.140625 L 319.476562 362.050781 L 322.234375 361.792969 L 324.96875 361.359375 L 327.671875 360.753906 L 330.332031 359.980469 L 332.9375 359.042969 L 335.480469 357.941406 L 337.949219 356.683594 L 340.332031 355.273438 L 342.625 353.71875 L 344.8125 352.019531 L 346.890625 350.1875 L 348.847656 348.230469 L 350.679688 346.152344 L 352.378906 343.964844 L 353.933594 341.671875 L 355.34375 339.289062 L 356.601562 336.820312 L 357.703125 334.277344 L 358.640625 331.671875 L 359.414062 329.011719 L 360.019531 326.308594 L 360.453125 323.574219 L 360.710938 320.816406 Z M 360.800781 318.046875 "/>
<path style="fill-rule:nonzero;fill:rgb(100%,75.294118%,79.607843%);fill-opacity:0.4;stroke-width:0.075;stroke-linecap:round;stroke-linejoin:round;stroke:rgb(100%,0%,0%);stroke-opacity:0.4;stroke-miterlimit:10;" d="M 334.464844 219.304688 L 334.375 216.535156 L 334.117188 213.777344 L 333.683594 211.042969 L 333.078125 208.339844 L 332.304688 205.679688 L 331.367188 203.074219 L 330.265625 200.53125 L 329.011719 198.0625 L 327.601562 195.679688 L 326.042969 193.386719 L 324.34375 191.199219 L 322.511719 189.121094 L 320.554688 187.164062 L 318.476562 185.332031 L 316.289062 183.632812 L 313.996094 182.078125 L 311.613281 180.667969 L 309.144531 179.410156 L 306.601562 178.308594 L 303.996094 177.371094 L 301.335938 176.597656 L 298.632812 175.992188 L 295.898438 175.558594 L 293.140625 175.300781 L 290.371094 175.210938 L 287.601562 175.300781 L 284.84375 175.558594 L 282.109375 175.992188 L 279.40625 176.597656 L 276.746094 177.371094 L 274.140625 178.308594 L 271.597656 179.410156 L 269.128906 180.667969 L 266.746094 182.078125 L 264.457031 183.632812 L 262.265625 185.332031 L 260.1875 187.164062 L 258.230469 189.121094 L 256.398438 191.199219 L 254.699219 193.386719 L 253.144531 195.679688 L 251.734375 198.0625 L 250.476562 200.53125 L 249.375 203.074219 L 248.4375 205.679688 L 247.664062 208.339844 L 247.0625 211.042969 L 246.628906 213.777344 L 246.367188 216.535156 L 246.28125 219.304688 L 246.367188 222.074219 L 246.628906 224.832031 L 247.0625 227.566406 L 247.664062 230.269531 L 248.4375 232.929688 L 249.375 235.535156 L 250.476562 238.078125 L 251.734375 240.546875 L 253.144531 242.929688 L 254.699219 245.222656 L 256.398438 247.410156 L 258.230469 249.488281 L 260.1875 251.445312 L 262.265625 253.277344 L 264.457031 254.976562 L 266.746094 256.53125 L 269.128906 257.941406 L 271.597656 259.199219 L 274.140625 260.300781 L 276.746094 261.238281 L 279.40625 262.011719 L 282.109375 262.617188 L 284.84375 263.050781 L 287.601562 263.308594 L 290.371094 263.398438 L 293.140625 263.308594 L 295.898438 263.050781 L 298.632812 262.617188 L 301.335938 262.011719 L 303.996094 261.238281 L 306.601562 260.300781 L 309.144531 259.199219 L 311.613281 257.941406 L 313.996094 256.53125 L 316.289062 254.976562 L 318.476562 253.277344 L 320.554688 251.445312 L 322.511719 249.488281 L 324.34375 247.410156 L 326.042969 245.222656 L 327.601562 242.929688 L 329.011719 240.546875 L 330.265625 238.078125 L 331.367188 235.535156 L 332.304688 232.929688 L 333.078125 230.269531 L 333.683594 227.566406 L 334.117188 224.832031 L 334.375 222.074219 Z M 334.464844 219.304688 "/>
<path style="fill-rule:nonzero;fill:rgb(100%,75.294118%,79.607843%);fill-opacity:0.4;stroke-width:0.075;stroke-linecap:round;stroke-linejoin:round;stroke:rgb(100%,0%,0%);stroke-opacity:0.4;stroke-miterlimit:10;" d="M 374 167.695312 L 373.574219 167.507812 L 370.96875 166.570312 L 368.308594 165.796875 L 365.605469 165.195312 L 362.867188 164.761719 L 360.109375 164.5 L 357.34375 164.414062 L 354.574219 164.5 L 351.816406 164.761719 L 349.078125 165.195312 L 346.375 165.796875 L 343.714844 166.570312 L 341.109375 167.507812 L 338.570312 168.609375 L 336.101562 169.867188 L 333.714844 171.277344 L 331.425781 172.832031 L 329.238281 174.53125 L 327.160156 176.363281 L 325.199219 178.320312 L 323.367188 180.398438 L 321.671875 182.589844 L 320.113281 184.878906 L 318.703125 187.261719 L 317.445312 189.730469 L 316.347656 192.273438 L 315.40625 194.878906 L 314.636719 197.539062 L 314.03125 200.242188 L 313.597656 202.980469 L 313.335938 205.738281 L 313.25 208.503906 L 313.335938 211.273438 L 313.597656 214.03125 L 314.03125 216.765625 L 314.636719 219.46875 L 315.40625 222.128906 L 316.347656 224.738281 L 317.445312 227.277344 L 318.703125 229.746094 L 320.113281 232.132812 L 321.671875 234.421875 L 323.367188 236.609375 L 325.199219 238.6875 L 327.160156 240.648438 L 329.238281 242.480469 L 331.425781 244.175781 L 333.714844 245.734375 L 336.101562 247.144531 L 338.570312 248.402344 L 341.109375 249.5 L 343.714844 250.4375 L 346.375 251.210938 L 349.078125 251.816406 L 351.816406 252.25 L 354.574219 252.511719 L 357.34375 252.597656 L 360.109375 252.511719 L 362.867188 252.25 L 365.605469 251.816406 L 368.308594 251.210938 L 370.96875 250.4375 L 373.574219 249.5 L 374 249.316406 Z M 374 167.695312 "/>
<path style="fill-rule:nonzero;fill:rgb(100%,75.294118%,79.607843%);fill-opacity:0.4;stroke-width:0.075;stroke-linecap:round;stroke-linejoin:round;stroke:rgb(100%,0%,0%);stroke-opacity:0.4;stroke-miterlimit:10;" d="M 374 132.738281 L 372.453125 130.742188 L 370.621094 128.664062 L 368.660156 126.707031 L 366.585938 124.875 L 364.394531 123.175781 L 362.105469 121.621094 L 359.71875 120.210938 L 357.253906 118.953125 L 354.710938 117.851562 L 352.105469 116.914062 L 349.445312 116.140625 L 346.742188 115.539062 L 344.003906 115.105469 L 341.246094 114.84375 L 338.480469 114.757812 L 335.710938 114.84375 L 332.953125 115.105469 L 330.214844 115.539062 L 327.511719 116.140625 L 324.851562 116.914062 L 322.246094 117.851562 L 319.707031 118.953125 L 317.238281 120.210938 L 314.851562 121.621094 L 312.5625 123.175781 L 310.375 124.875 L 308.296875 126.707031 L 306.335938 128.664062 L 304.503906 130.742188 L 302.808594 132.933594 L 301.25 135.222656 L 299.839844 137.605469 L 298.582031 140.074219 L 297.484375 142.617188 L 296.542969 145.222656 L 295.773438 147.882812 L 295.167969 150.585938 L 294.734375 153.324219 L 294.472656 156.082031 L 294.386719 158.847656 L 294.472656 161.617188 L 294.734375 164.375 L 295.167969 167.109375 L 295.773438 169.8125 L 296.542969 172.472656 L 297.484375 175.082031 L 298.582031 177.621094 L 299.839844 180.089844 L 301.25 182.472656 L 302.808594 184.765625 L 304.503906 186.953125 L 306.335938 189.03125 L 308.296875 190.992188 L 310.375 192.824219 L 312.5625 194.519531 L 314.851562 196.078125 L 317.238281 197.488281 L 319.707031 198.746094 L 322.246094 199.84375 L 324.851562 200.78125 L 327.511719 201.554688 L 330.214844 202.160156 L 332.953125 202.59375 L 335.710938 202.855469 L 338.480469 202.941406 L 341.246094 202.855469 L 344.003906 202.59375 L 346.742188 202.160156 L 349.445312 201.554688 L 352.105469 200.78125 L 354.710938 199.84375 L 357.253906 198.746094 L 359.71875 197.488281 L 362.105469 196.078125 L 364.394531 194.519531 L 366.585938 192.824219 L 368.660156 190.992188 L 370.621094 189.03125 L 372.453125 186.953125 L 374 184.957031 Z M 374 132.738281 "/>
<path style="fill-rule:nonzero;fill:rgb(100%,0%,0%);fill-opacity:1;stroke-width:0.75;stroke-linecap:round;stroke-linejoin:round;stroke:rgb(100%,0%,0%);stroke-opacity:1;stroke-miterlimit:10;" d="M 360.367188 158.847656 C 360.367188 161.25 356.769531 161.25 356.769531 158.847656 C 356.769531 156.449219 360.367188 156.449219 360.367188 158.847656 "/>
<path style="fill-rule:nonzero;fill:rgb(100%,0%,0%);fill-opacity:1;stroke-width:0.75;stroke-linecap:round;stroke-linejoin:round;stroke:rgb(100%,0%,0%);stroke-opacity:1;stroke-miterlimit:10;" d="M 309.730469 126.15625 C 309.730469 128.554688 306.132812 128.554688 306.132812 126.15625 C 306.132812 123.753906 309.730469 123.753906 309.730469 126.15625 "/>
<path style="fill-rule:nonzero;fill:rgb(100%,0%,0%);fill-opacity:1;stroke-width:0.75;stroke-linecap:round;stroke-linejoin:round;stroke:rgb(100%,0%,0%);stroke-opacity:1;stroke-miterlimit:10;" d="M 319.207031 77.351562 C 319.207031 79.75 315.609375 79.75 315.609375 77.351562 C 315.609375 74.949219 319.207031 74.949219 319.207031 77.351562 "/>
<path style="fill-rule:nonzero;fill:rgb(100%,0%,0%);fill-opacity:1;stroke-width:0.75;stroke-linecap:round;stroke-linejoin:round;stroke:rgb(100%,0%,0%);stroke-opacity:1;stroke-miterlimit:10;" d="M 302.363281 24.359375 C 302.363281 26.761719 298.765625 26.761719 298.765625 24.359375 C 298.765625 21.960938 302.363281 21.960938 302.363281 24.359375 "/>
<path style="fill-rule:nonzero;fill:rgb(100%,0%,0%);fill-opacity:1;stroke-width:0.75;stroke-linecap:round;stroke-linejoin:round;stroke:rgb(100%,0%,0%);stroke-opacity:1;stroke-miterlimit:10;" d="M 244.054688 42.136719 C 244.054688 44.535156 240.453125 44.535156 240.453125 42.136719 C 240.453125 39.734375 244.054688 39.734375 244.054688 42.136719 "/>
<path style="fill-rule:nonzero;fill:rgb(100%,0%,0%);fill-opacity:1;stroke-width:0.75;stroke-linecap:round;stroke-linejoin:round;stroke:rgb(100%,0%,0%);stroke-opacity:1;stroke-miterlimit:10;" d="M 203.035156 20.503906 C 203.035156 22.90625 199.433594 22.90625 199.433594 20.503906 C 199.433594 18.105469 203.035156 18.105469 203.035156 20.503906 "/>
<path style="fill-rule:nonzero;fill:rgb(100%,0%,0%);fill-opacity:1;stroke-width:0.75;stroke-linecap:round;stroke-linejoin:round;stroke:rgb(100%,0%,0%);stroke-opacity:1;stroke-miterlimit:10;" d="M 150.894531 13.851562 C 150.894531 16.25 147.296875 16.25 147.296875 13.851562 C 147.296875 11.453125 150.894531 11.453125 150.894531 13.851562 "/>
<path style="fill-rule:nonzero;fill:rgb(100%,0%,0%);fill-opacity:1;stroke-width:0.75;stroke-linecap:round;stroke-linejoin:round;stroke:rgb(100%,0%,0%);stroke-opacity:1;stroke-miterlimit:10;" d="M 116.15625 52.023438 C 116.15625 54.421875 112.558594 54.421875 112.558594 52.023438 C 112.558594 49.625 116.15625 49.625 116.15625 52.023438 "/>
<path style="fill-rule:nonzero;fill:rgb(100%,0%,0%);fill-opacity:1;stroke-width:0.75;stroke-linecap:round;stroke-linejoin:round;stroke:rgb(100%,0%,0%);stroke-opacity:1;stroke-miterlimit:10;" d="M 102.976562 98.496094 C 102.976562 100.898438 99.378906 100.898438 99.378906 98.496094 C 99.378906 96.097656 102.976562 96.097656 102.976562 98.496094 "/>
<path style="fill-rule:nonzero;fill:rgb(100%,0%,0%);fill-opacity:1;stroke-width:0.75;stroke-linecap:round;stroke-linejoin:round;stroke:rgb(100%,0%,0%);stroke-opacity:1;stroke-miterlimit:10;" d="M 124.796875 143.878906 C 124.796875 146.28125 121.195312 146.28125 121.195312 143.878906 C 121.195312 141.480469 124.796875 141.480469 124.796875 143.878906 "/>
<path style="fill-rule:nonzero;fill:rgb(100%,0%,0%);fill-opacity:1;stroke-width:0.75;stroke-linecap:round;stroke-linejoin:round;stroke:rgb(100%,0%,0%);stroke-opacity:1;stroke-miterlimit:10;" d="M 17.230469 191.765625 C 17.230469 194.167969 13.632812 194.167969 13.632812 191.765625 C 13.632812 189.367188 17.230469 189.367188 17.230469 191.765625 "/>
<path style="fill-rule:nonzero;fill:rgb(100%,0%,0%);fill-opacity:1;stroke-width:0.75;stroke-linecap:round;stroke-linejoin:round;stroke:rgb(100%,0%,0%);stroke-opacity:1;stroke-miterlimit:10;" d="M 110.234375 215.273438 C 110.234375 217.671875 106.632812 217.671875 106.632812 215.273438 C 106.632812 212.875 110.234375 212.875 110.234375 215.273438 "/>
<path style="fill-rule:nonzero;fill:rgb(100%,0%,0%);fill-opacity:1;stroke-width:0.75;stroke-linecap:round;stroke-linejoin:round;stroke:rgb(100%,0%,0%);stroke-opacity:1;stroke-miterlimit:10;" d="M 121.984375 259.34375 C 121.984375 261.746094 118.386719 261.746094 118.386719 259.34375 C 118.386719 256.945312 121.984375 256.945312 121.984375 259.34375 "/>
<path style="fill-rule:nonzero;fill:rgb(100%,0%,0%);fill-opacity:1;stroke-width:0.75;stroke-linecap:round;stroke-linejoin:round;stroke:rgb(100%,0%,0%);stroke-opacity:1;stroke-miterlimit:10;" d="M 142.390625 323.242188 C 142.390625 325.640625 138.789062 325.640625 138.789062 323.242188 C 138.789062 320.839844 142.390625 320.839844 142.390625 323.242188 "/>
<path style="fill-rule:nonzero;fill:rgb(100%,0%,0%);fill-opacity:1;stroke-width:0.75;stroke-linecap:round;stroke-linejoin:round;stroke:rgb(100%,0%,0%);stroke-opacity:1;stroke-miterlimit:10;" d="M 200.988281 321.910156 C 200.988281 324.3125 197.386719 324.3125 197.386719 321.910156 C 197.386719 319.511719 200.988281 319.511719 200.988281 321.910156 "/>
<path style="fill-rule:nonzero;fill:rgb(100%,0%,0%);fill-opacity:1;stroke-width:0.75;stroke-linecap:round;stroke-linejoin:round;stroke:rgb(100%,0%,0%);stroke-opacity:1;stroke-miterlimit:10;" d="M 265.472656 360.148438 C 265.472656 362.546875 261.875 362.546875 261.875 360.148438 C 261.875 357.75 265.472656 357.75 265.472656 360.148438 "/>
<path style="fill-rule:nonzero;fill:rgb(100%,0%,0%);fill-opacity:1;stroke-width:0.75;stroke-linecap:round;stroke-linejoin:round;stroke:rgb(100%,0%,0%);stroke-opacity:1;stroke-miterlimit:10;" d="M 318.507812 318.046875 C 318.507812 320.445312 314.90625 320.445312 314.90625 318.046875 C 314.90625 315.648438 318.507812 315.648438 318.507812 318.046875 "/>
<path style="fill-rule:nonzero;fill:rgb(100%,0%,0%);fill-opacity:1;stroke-width:0.75;stroke-linecap:round;stroke-linejoin:round;stroke:rgb(100%,0%,0%);stroke-opacity:1;stroke-miterlimit:10;" d="M 292.171875 219.304688 C 292.171875 221.703125 288.570312 221.703125 288.570312 219.304688 C 288.570312 216.90625 292.171875 216.90625 292.171875 219.304688 "/>
<path style="fill-rule:nonzero;fill:rgb(100%,0%,0%);fill-opacity:1;stroke-width:0.75;stroke-linecap:round;stroke-linejoin:round;stroke:rgb(100%,0%,0%);stroke-opacity:1;stroke-miterlimit:10;" d="M 359.140625 208.503906 C 359.140625 210.90625 355.542969 210.90625 355.542969 208.503906 C 355.542969 206.105469 359.140625 206.105469 359.140625 208.503906 "/>
<path style="fill-rule:nonzero;fill:rgb(100%,0%,0%);fill-opacity:1;stroke-width:0.75;stroke-linecap:round;stroke-linejoin:round;stroke:rgb(100%,0%,0%);stroke-opacity:1;stroke-miterlimit:10;" d="M 340.277344 158.847656 C 340.277344 161.25 336.679688 161.25 336.679688 158.847656 C 336.679688 156.449219 340.277344 156.449219 340.277344 158.847656 "/>
</g>
</svg>
