<svg xmlns="http://www.w3.org/2000/svg" width="374pt" height="374pt" viewBox="0 0 374 374"><path fill="#fff" d="M0 0h374v374H0z"/><path d="M360.367 158.848c0 2.402-3.597 2.402-3.597 0 0-2.399 3.597-2.399 3.597 0M309.73 126.156c0 2.399-3.597 2.399-3.597 0 0-2.402 3.597-2.402 3.597 0M319.207 77.352c0 2.398-3.598 2.398-3.598 0 0-2.403 3.598-2.403 3.598 0M302.363 24.36c0 2.402-3.597 2.402-3.597 0 0-2.4 3.597-2.4 3.597 0M244.055 42.137c0 2.398-3.602 2.398-3.602 0 0-2.403 3.602-2.403 3.602 0M203.035 20.504c0 2.402-3.601 2.402-3.601 0 0-2.399 3.601-2.399 3.601 0M150.895 13.852c0 2.398-3.598 2.398-3.598 0 0-2.399 3.598-2.399 3.598 0M116.156 52.023c0 2.399-3.597 2.399-3.597 0 0-2.398 3.597-2.398 3.597 0M102.977 98.496c0 2.402-3.598 2.402-3.598 0 0-2.398 3.598-2.398 3.598 0M124.797 143.879c0 2.402-3.602 2.402-3.602 0 0-2.399 3.602-2.399 3.602 0M17.23 191.766c0 2.402-3.597 2.402-3.597 0 0-2.399 3.597-2.399 3.597 0M110.234 215.273c0 2.399-3.601 2.399-3.601 0 0-2.398 3.601-2.398 3.601 0M121.984 259.344c0 2.402-3.597 2.402-3.597 0 0-2.399 3.597-2.399 3.597 0M142.39 323.242c0 2.399-3.6 2.399-3.6 0 0-2.402 3.6-2.402 3.6 0M200.988 321.91c0 2.402-3.601 2.402-3.601 0 0-2.398 3.601-2.398 3.601 0M265.473 360.148c0 2.399-3.598 2.399-3.598 0 0-2.398 3.598-2.398 3.598 0M318.508 318.047c0 2.398-3.602 2.398-3.602 0 0-2.399 3.602-2.399 3.602 0M292.172 219.305c0 2.398-3.602 2.398-3.602 0 0-2.399 3.602-2.399 3.602 0M359.14 208.504c0 2.402-3.597 2.402-3.597 0 0-2.399 3.598-2.399 3.598 0M340.277 158.848c0 2.402-3.597 2.402-3.597 0 0-2.399 3.597-2.399 3.597 0" fill="red" stroke-width=".75" stroke-linecap="round" stroke-linejoin="round" stroke="red" stroke-miterlimit="10"/><path d="M6.934 374h352.738M6.934 374h0M65.723 374h0M124.516 374h0M183.305 374h0M242.094 374h0M300.883 374h0M359.672 374h0M0 364.613V11.875M0 364.613h0M0 305.824h0M0 247.031h0M0 188.242h0M0 129.453h0M0 70.664h0M0 11.875h0M0 374h374V0H0v374" fill="none" stroke-width=".75" stroke-linecap="round" stroke-linejoin="round" stroke="#000" stroke-miterlimit="10"/><path d="M374 117.566l-1.805-.652-2.66-.773-2.703-.602-2.738-.434-2.758-.261-2.766-.086-2.77.086-2.757.261-2.734.434-2.704.602-2.66.773-2.61.938-2.538 1.101-2.469 1.258-2.387 1.41-2.289 1.555-2.187 1.699-2.078 1.832-1.961 1.957-1.832 2.078-1.696 2.192-1.558 2.289-1.41 2.382-1.258 2.47-1.098 2.542-.937 2.606-.774 2.66-.605 2.703-.434 2.738-.262 2.758-.085 2.766.086 2.77.261 2.757.434 2.734.605 2.703.774 2.66.937 2.61 1.098 2.54 1.258 2.468 1.41 2.383 1.558 2.293 1.696 2.187 1.832 2.078 1.96 1.961 2.079 1.832 2.187 1.696 2.29 1.558 2.386 1.41 2.469 1.258 2.539 1.098 2.61.937 2.66.774 2.703.605 2.734.434 2.758.261 2.77.086 2.765-.086 2.758-.261 2.738-.434 2.703-.605 2.66-.774 1.805-.648zm0 0" fill="pink" fill-opacity=".4" stroke-width=".075" stroke-linecap="round" stroke-linejoin="round" stroke="red" stroke-opacity=".4" stroke-miterlimit="10"/><path d="M352.023 126.156l-.086-2.77-.261-2.757-.434-2.734-.605-2.704-.774-2.66-.937-2.605-1.098-2.543-1.258-2.469-1.41-2.383-1.558-2.293-1.696-2.187-1.832-2.078-1.96-1.961-2.079-1.828-2.187-1.7-2.29-1.558-2.386-1.41-2.469-1.258-2.539-1.098-2.61-.937-2.66-.774-2.703-.605-2.734-.434-2.758-.262-2.77-.085-2.765.085-2.758.262-2.738.434-2.703.605-2.66.774-2.606.937-2.543 1.098-2.465 1.258-2.386 1.41-2.29 1.558-2.19 1.7-2.079 1.828-1.957 1.96-1.832 2.079-1.695 2.187-1.559 2.293-1.41 2.383-1.258 2.469-1.101 2.543-.938 2.605-.773 2.66-.602 2.704-.433 2.734-.262 2.758-.086 2.77.086 2.769.262 2.754.433 2.738.602 2.703.773 2.66.938 2.606 1.101 2.543 1.258 2.468 1.41 2.383 1.559 2.29 1.695 2.19 1.832 2.079 1.957 1.957 2.078 1.832 2.192 1.7 2.289 1.554 2.386 1.41 2.465 1.258 2.543 1.101 2.606.938 2.66.773 2.703.602 2.738.433 2.758.262 2.766.086 2.77-.086 2.757-.262 2.734-.433 2.704-.602 2.66-.773 2.61-.938 2.538-1.101 2.469-1.258 2.387-1.41 2.289-1.555 2.187-1.7 2.078-1.831 1.961-1.957 1.832-2.078 1.696-2.192 1.558-2.289 1.41-2.383 1.258-2.468 1.098-2.543.937-2.606.774-2.66.605-2.703.434-2.738.262-2.754zm0 0" fill="pink" fill-opacity=".4" stroke-width=".075" stroke-linecap="round" stroke-linejoin="round" stroke="red" stroke-opacity=".4" stroke-miterlimit="10"/><path d="M361.5 77.352l-.086-2.77-.262-2.758-.433-2.738-.606-2.703-.77-2.66-.94-2.606-1.098-2.543-1.258-2.465-1.41-2.386-1.559-2.29-1.695-2.187-1.832-2.078-1.961-1.961-2.078-1.832-2.188-1.695-2.289-1.559-2.387-1.41-2.468-1.258-2.54-1.098-2.605-.94-2.66-.77-2.703-.606-2.738-.434-2.758-.261-2.77-.086-2.765.086-2.758.261-2.738.434-2.704.606-2.66.77-2.605.94-2.543 1.098-2.465 1.258-2.387 1.41-2.289 1.559-2.187 1.695-2.078 1.832-1.961 1.961-1.832 2.078-1.696 2.188-1.558 2.289-1.41 2.386-1.258 2.465-1.098 2.543-.941 2.606-.77 2.66-.605 2.703-.434 2.738-.262 2.758-.086 2.77.086 2.765.262 2.758.434 2.738.605 2.703.77 2.66.941 2.606 1.098 2.543 1.258 2.465 1.41 2.387 1.558 2.289 1.696 2.187 1.832 2.078 1.96 1.961 2.079 1.832 2.187 1.696 2.29 1.558 2.386 1.41 2.465 1.258 2.543 1.098 2.605.941 2.66.77 2.704.605 2.738.434 2.758.261 2.765.086 2.77-.086 2.758-.261 2.738-.434 2.703-.605 2.66-.77 2.606-.941 2.539-1.098 2.468-1.258 2.387-1.41 2.29-1.558 2.187-1.696 2.078-1.832 1.96-1.96 1.833-2.079 1.695-2.187 1.559-2.29 1.41-2.386 1.258-2.465 1.097-2.543.942-2.605.77-2.66.605-2.704.433-2.738.262-2.758zm0 0" fill="pink" fill-opacity=".4" stroke-width=".075" stroke-linecap="round" stroke-linejoin="round" stroke="red" stroke-opacity=".4" stroke-miterlimit="10"/><path d="M344.656 24.36l-.086-2.77-.261-2.758-.434-2.734-.605-2.703-.77-2.66-.941-2.606-1.098-2.543-1.258-2.469-1.41-2.383-.5-.734h-73.457l-.5.734-1.41 2.383-1.258 2.469-1.102 2.543-.937 2.605-.774 2.66-.601 2.704-.434 2.734-.261 2.758-.086 2.77.086 2.769.261 2.758.434 2.734.601 2.703.774 2.66.937 2.606 1.102 2.543 1.258 2.469 1.41 2.382 1.559 2.293 1.695 2.188 1.832 2.078 1.96 1.957 2.075 1.832 2.191 1.7 2.29 1.558 2.386 1.41 2.465 1.254 2.543 1.101 2.606.938 2.66.773 2.703.606 2.738.433 2.758.258 2.765.09 2.77-.09 2.758-.258 2.734-.433 2.703-.606 2.66-.773 2.61-.938 2.539-1.101L321.805 63l2.386-1.41 2.29-1.559 2.187-1.699 2.078-1.832 1.961-1.957 1.832-2.078 1.695-2.188 1.559-2.293 1.41-2.382 1.258-2.47 1.098-2.542.941-2.606.77-2.66.605-2.703.434-2.734.261-2.758zm0 0" fill="pink" fill-opacity=".4" stroke-width=".075" stroke-linecap="round" stroke-linejoin="round" stroke="red" stroke-opacity=".4" stroke-miterlimit="10"/><path d="M286.348 42.137l-.09-2.77L286 36.61l-.434-2.738-.605-2.703-.774-2.656-.937-2.61-1.102-2.539-1.257-2.468-1.41-2.387-1.555-2.29-1.7-2.187-1.831-2.078-1.957-1.96-2.079-1.833-2.187-1.695-2.293-1.559-2.383-1.41-2.469-1.258-2.543-1.097-2.605-.942-.691-.199H229.32l-.691.2-2.606.94-2.543 1.098-2.468 1.258-2.383 1.41-2.293 1.559-2.188 1.695-2.078 1.832-1.957 1.961-1.832 2.078-1.699 2.188-1.555 2.289-1.41 2.387-1.258 2.468-1.101 2.54-.938 2.609-.773 2.656-.606 2.703-.433 2.738-.258 2.758-.09 2.77.09 2.765.258 2.758.433 2.738.606 2.704.773 2.66.938 2.605 1.101 2.543 1.258 2.465 1.41 2.387 1.555 2.289 1.7 2.191 1.831 2.074 1.957 1.961 2.078 1.832 2.188 1.696 2.293 1.558 2.383 1.41 2.468 1.258 2.543 1.098 2.606.941 2.66.774 2.703.601 2.735.434 2.757.262 2.77.086 2.77-.086 2.757-.262 2.735-.434 2.703-.601 2.66-.774 2.605-.941 2.543-1.098 2.47-1.258 2.382-1.41 2.293-1.558 2.187-1.696 2.079-1.832 1.957-1.96 1.832-2.075 1.699-2.191 1.554-2.29 1.41-2.386 1.258-2.465 1.102-2.543.938-2.605.773-2.66.605-2.704.434-2.738.258-2.758zm0 0" fill="pink" fill-opacity=".4" stroke-width=".075" stroke-linecap="round" stroke-linejoin="round" stroke="red" stroke-opacity=".4" stroke-miterlimit="10"/><path d="M245.328 20.504l-.09-2.77-.258-2.757-.433-2.735-.606-2.703-.773-2.66-.938-2.606-1.101-2.543L240.25 0h-78.031l-.88 1.73-1.1 2.543-.938 2.606-.774 2.66-.605 2.703-.434 2.735-.258 2.757-.09 2.77.09 2.77.258 2.757.434 2.735.605 2.703.774 2.66.937 2.605 1.102 2.543 1.258 2.47 1.41 2.382 1.554 2.293 1.7 2.187 1.832 2.078 1.957 1.958 2.078 1.832 2.187 1.699 2.293 1.558 2.383 1.407 2.469 1.257 2.543 1.102 2.605.938 2.66.773 2.704.605 2.734.434 2.758.258 2.77.09 2.769-.09 2.758-.258 2.734-.434 2.703-.605 2.66-.773 2.606-.938 2.543-1.102 2.469-1.257 2.382-1.407 2.293-1.558 2.188-1.7 2.078-1.831 1.957-1.958 1.832-2.078 1.7-2.187 1.554-2.293 1.41-2.383 1.258-2.469 1.101-2.543.938-2.605.773-2.66.606-2.703.433-2.735.258-2.758zm0 0" fill="pink" fill-opacity=".4" stroke-width=".075" stroke-linecap="round" stroke-linejoin="round" stroke="red" stroke-opacity=".4" stroke-miterlimit="10"/><path d="M193.188 13.852l-.086-2.77-.262-2.758-.434-2.734-.601-2.703-.774-2.66L190.95 0h-83.707l-.078.227-.773 2.66-.606 2.703-.433 2.734-.262 2.758-.086 2.77.086 2.77.262 2.757.433 2.734.606 2.703.773 2.66.938 2.606 1.097 2.543 1.258 2.469 1.41 2.383 1.559 2.293 1.695 2.187 1.832 2.078 1.961 1.957 2.078 1.832 2.188 1.7 2.293 1.554 2.382 1.41 2.47 1.258 2.538 1.102 2.61.937 2.66.774 2.703.605 2.734.434 2.758.257 2.77.09 2.765-.09 2.758-.257 2.738-.434 2.703-.605 2.66-.774 2.606-.937 2.543-1.102 2.469-1.258 2.383-1.41 2.289-1.555 2.191-1.699 2.078-1.832 1.957-1.957 1.832-2.078 1.7-2.187 1.554-2.293 1.41-2.383 1.258-2.469 1.102-2.543.937-2.605.774-2.66.601-2.704.434-2.734.262-2.758zm0 0" fill="pink" fill-opacity=".4" stroke-width=".075" stroke-linecap="round" stroke-linejoin="round" stroke="red" stroke-opacity=".4" stroke-miterlimit="10"/><path d="M158.45 52.023l-.087-2.77-.261-2.757-.434-2.734-.602-2.703-.773-2.66-.938-2.606-1.101-2.543-1.258-2.469-1.41-2.383-1.559-2.293-1.695-2.187-1.832-2.078-1.957-1.957-2.078-1.832-2.192-1.7-2.289-1.558-2.386-1.406-2.465-1.258-2.543-1.102-2.606-.937-2.66-.774-2.703-.605-2.738-.434-2.758-.257-2.766-.09-2.77.09-2.757.257-2.734.434-2.703.605-2.66.774-2.61.937-2.54 1.102-2.468 1.258-2.387 1.406-2.289 1.559-2.187 1.699-2.078 1.832-1.961 1.957-1.832 2.078-1.695 2.187-1.56 2.293-1.41 2.383-1.257 2.469-1.098 2.543-.937 2.605-.774 2.66-.605 2.704-.434 2.734-.261 2.758-.086 2.77.086 2.769.261 2.758.434 2.734.605 2.703.774 2.66.937 2.606 1.098 2.543 1.258 2.469 1.41 2.382 1.558 2.293 1.696 2.188 1.832 2.078 1.96 1.957 2.079 1.832 2.187 1.7 2.29 1.554 2.386 1.41 2.469 1.258 2.539 1.102 2.61.937 2.66.773 2.703.606 2.734.43 2.758.261 2.77.086 2.765-.086 2.758-.261 2.738-.43 2.703-.606 2.66-.773 2.606-.937 2.543-1.102 2.465-1.258 2.386-1.41 2.29-1.555 2.19-1.699 2.079-1.832 1.957-1.957 1.832-2.078 1.695-2.188 1.559-2.293 1.41-2.382 1.258-2.47 1.101-2.542.938-2.606.773-2.66.602-2.703.434-2.734.261-2.758zm0 0" fill="pink" fill-opacity=".4" stroke-width=".075" stroke-linecap="round" stroke-linejoin="round" stroke="red" stroke-opacity=".4" stroke-miterlimit="10"/><path d="M145.27 98.496l-.086-2.77-.262-2.753-.434-2.739-.605-2.703-.77-2.66-.941-2.605-1.098-2.543-1.258-2.47-1.41-2.382-1.558-2.289-1.696-2.191-1.832-2.079-1.96-1.957-2.079-1.832-2.187-1.699-2.29-1.554-2.386-1.41-2.469-1.258-2.539-1.102-2.605-.938-2.66-.773-2.704-.602-2.738-.433-2.758-.262-2.77-.086-2.765.086-2.758.262-2.738.434-2.703.601-2.66.773-2.606.938-2.543 1.102-2.465 1.257-2.386 1.41-2.29 1.555-2.19 1.7-2.075 1.831-1.96 1.957-1.833 2.079-1.695 2.191-1.559 2.29-1.41 2.382-1.258 2.469-1.097 2.543-.942 2.605-.77 2.66-.605 2.703-.433 2.739-.262 2.754-.086 2.77.086 2.769.262 2.757.433 2.735.606 2.703.77 2.66.94 2.606 1.098 2.543 1.258 2.468 1.41 2.383 1.559 2.293 1.695 2.188 1.832 2.078 1.961 1.96 2.074 1.829 2.192 1.699 2.289 1.559 2.386 1.41 2.465 1.258 2.543 1.097 2.606.938 2.66.773 2.703.606 2.738.433 2.758.262 2.766.086 2.77-.086 2.757-.262 2.738-.433 2.704-.606 2.66-.773 2.605-.938 2.54-1.097 2.468-1.258 2.387-1.41 2.289-1.559 2.187-1.7 2.078-1.827 1.961-1.961 1.832-2.078 1.696-2.188 1.558-2.293 1.41-2.383 1.258-2.468 1.098-2.543.941-2.606.77-2.66.605-2.703.434-2.735.262-2.757zm0 0" fill="pink" fill-opacity=".4" stroke-width=".075" stroke-linecap="round" stroke-linejoin="round" stroke="red" stroke-opacity=".4" stroke-miterlimit="10"/><path d="M167.086 143.879l-.086-2.766-.262-2.758-.433-2.738-.602-2.703-.773-2.66-.938-2.606-1.101-2.543-1.258-2.468-1.41-2.383-1.555-2.29-1.7-2.19-1.831-2.079-1.957-1.957-2.078-1.832-2.192-1.699-2.289-1.555-2.383-1.41-2.468-1.258-2.543-1.101-2.606-.938-2.66-.773-2.703-.602-2.738-.433-2.758-.262-2.766-.086-2.77.086-2.757.262-2.735.433-2.703.602-2.66.773-2.605.938-2.543 1.101-2.47 1.258-2.382 1.41-2.293 1.555-2.187 1.7-2.079 1.831-1.96 1.957-1.829 2.078-1.699 2.192-1.558 2.289-1.41 2.383-1.258 2.468L82 127.648l-.938 2.606-.773 2.66-.605 2.703-.434 2.738-.262 2.758-.086 2.766.086 2.77.262 2.757.434 2.735.605 2.703.773 2.66.938 2.61 1.098 2.538 1.257 2.47 1.41 2.382 1.56 2.293 1.698 2.187 1.829 2.078 1.96 1.961 2.079 1.832 2.187 1.696 2.293 1.558 2.383 1.41 2.469 1.258 2.543 1.098 2.605.938 2.66.773 2.703.605 2.735.434 2.758.262 2.77.086 2.765-.086 2.758-.262 2.738-.434 2.703-.605 2.66-.774 2.606-.937 2.543-1.098 2.468-1.257 2.383-1.41 2.29-1.56 2.19-1.695 2.079-1.832 1.957-1.96 1.832-2.079 1.699-2.187 1.555-2.293 1.41-2.383 1.258-2.469 1.101-2.539.938-2.61.773-2.66.602-2.702.433-2.735.262-2.758zm0 0M59.523 191.766L59.437 189l-.261-2.758-.434-2.738-.605-2.703-.774-2.66-.937-2.606-1.098-2.543-1.258-2.469-1.41-2.382-1.558-2.29-1.696-2.19-1.832-2.079-1.96-1.957-2.079-1.832-2.187-1.7-2.29-1.554-2.386-1.41-2.469-1.258-2.539-1.101-2.61-.938-2.66-.773-2.703-.602-2.734-.434-2.758-.261-2.77-.086-2.765.086-2.758.261-2.738.434-2.703.602-2.66.773-1.805.652v82.567l1.805.648 2.66.774 2.703.605 2.738.434 2.758.261 2.766.086 2.77-.086 2.757-.261 2.734-.434 2.704-.605 2.66-.774 2.61-.937 2.538-1.098 2.469-1.258 2.387-1.41 2.289-1.559 2.187-1.695 2.078-1.832 1.961-1.96 1.832-2.079 1.696-2.187 1.558-2.29 1.41-2.386 1.258-2.469L56.426 208l.937-2.61.774-2.66.605-2.703.434-2.734.261-2.758zm0 0" fill="pink" fill-opacity=".4" stroke-width=".075" stroke-linecap="round" stroke-linejoin="round" stroke="red" stroke-opacity=".4" stroke-miterlimit="10"/><path d="M152.527 215.273l-.09-2.77-.257-2.757-.434-2.734-.605-2.703-.774-2.66-.937-2.606-1.102-2.543-1.258-2.469-1.406-2.383-1.559-2.293-1.699-2.187-1.832-2.078-1.957-1.957-2.078-1.832-2.187-1.7-2.293-1.554-2.383-1.41-2.469-1.258-2.543-1.102-2.605-.937-2.66-.774-2.704-.605-2.734-.434-2.758-.257-2.77-.09-2.769.09-2.758.257-2.734.434-2.703.605-2.66.774-2.606.937-2.543 1.102-2.469 1.258-2.382 1.41-2.293 1.555-2.188 1.699-2.078 1.832-1.957 1.957-1.832 2.078-1.7 2.187-1.554 2.293-1.41 2.383-1.258 2.469-1.102 2.543-.937 2.605-.773 2.66-.606 2.704-.43 2.734-.261 2.758-.086 2.77.086 2.769.261 2.758.43 2.734.606 2.703.773 2.66.938 2.606 1.101 2.543 1.258 2.469 1.41 2.382 1.555 2.293 1.699 2.188 1.832 2.078 1.957 1.957 2.078 1.832 2.188 1.7 2.293 1.554 2.382 1.41 2.47 1.258 2.542 1.102 2.606.937 2.66.773 2.703.606 2.734.434 2.758.257 2.77.09 2.77-.09 2.757-.257 2.734-.434 2.703-.606 2.66-.773 2.606-.937 2.543-1.102 2.469-1.258 2.383-1.41 2.293-1.555 2.187-1.699 2.078-1.832 1.957-1.957 1.832-2.078 1.7-2.188 1.558-2.293 1.406-2.382 1.258-2.47 1.102-2.542.937-2.606.774-2.66.605-2.703.434-2.734.257-2.758zm0 0" fill="pink" fill-opacity=".4" stroke-width=".075" stroke-linecap="round" stroke-linejoin="round" stroke="red" stroke-opacity=".4" stroke-miterlimit="10"/><path d="M164.277 259.344l-.086-2.77-.261-2.758-.434-2.734-.605-2.703-.77-2.66-.941-2.606-1.098-2.543-1.258-2.468-1.41-2.383-1.559-2.293-1.695-2.188-1.832-2.078-1.96-1.957-2.079-1.832-2.187-1.7-2.29-1.554-2.386-1.41-2.465-1.258-2.543-1.101-2.606-.938-2.66-.773-2.703-.606-2.738-.43-2.758-.261-2.77-.086-2.765.086-2.758.262-2.738.43-2.703.605-2.66.773-2.606.938-2.543 1.101-2.465 1.258-2.386 1.41-2.29 1.555-2.187 1.7-2.078 1.831-1.961 1.957-1.832 2.078-1.695 2.188-1.559 2.293-1.41 2.383-1.258 2.468-1.098 2.543-.941 2.606-.77 2.66-.605 2.703-.434 2.734-.261 2.758-.086 2.77.086 2.77.261 2.757.434 2.734.605 2.704.77 2.66.941 2.605 1.098 2.543 1.258 2.469 1.41 2.383 1.559 2.293 1.695 2.187 1.832 2.078 1.96 1.957 2.079 1.832 2.188 1.7 2.289 1.558 2.386 1.406 2.465 1.258 2.543 1.102 2.606.937 2.66.774 2.703.605 2.738.434 2.758.258 2.766.09 2.77-.09 2.757-.258 2.738-.434 2.703-.605 2.66-.774 2.606-.937 2.543-1.102 2.465-1.258 2.387-1.406 2.289-1.558 2.187-1.7 2.078-1.832 1.961-1.957 1.832-2.078 1.695-2.187 1.56-2.293 1.41-2.383 1.257-2.469 1.098-2.543.941-2.605.77-2.66.605-2.704.434-2.734.261-2.758zm0 0" fill="pink" fill-opacity=".4" stroke-width=".075" stroke-linecap="round" stroke-linejoin="round" stroke="red" stroke-opacity=".4" stroke-miterlimit="10"/><path d="M184.68 323.242l-.086-2.77-.262-2.757-.434-2.735-.601-2.703-.774-2.66-.937-2.61-1.102-2.538-1.257-2.469-1.41-2.387-1.555-2.289-1.7-2.187-1.832-2.078-1.957-1.961-2.078-1.832-2.191-1.696-2.29-1.558-2.382-1.41-2.469-1.258-2.543-1.098-2.605-.937-2.66-.774-2.703-.605-2.739-.434-2.754-.262-2.77-.086-2.769.086-2.757.262-2.735.434-2.703.605-2.66.774-2.606.937-2.543 1.098-2.468 1.258-2.383 1.41-2.293 1.558-2.188 1.696-2.078 1.832-1.96 1.96-1.829 2.079-1.699 2.187-1.559 2.29-1.41 2.386-1.258 2.469-1.097 2.539-.938 2.61-.773 2.66-.606 2.702-.433 2.735-.262 2.758-.086 2.77.086 2.765.262 2.758.433 2.738.606 2.703.773 2.66.938 2.606 1.097 2.543 1.258 2.468 1.41 2.383 1.559 2.29 1.7 2.19 1.827 2.079 1.961 1.957 2.078 1.832 2.188 1.7 2.293 1.554 2.383 1.41 2.468 1.258 2.543 1.101 2.606.938 2.66.773 2.703.602 2.734.433 2.758.262 2.77.086 2.77-.086 2.753-.262 2.739-.433 2.703-.602 2.66-.773 2.605-.938 2.543-1.101 2.469-1.258 2.383-1.41 2.289-1.555 2.191-1.7 2.078-1.831 1.957-1.957 1.833-2.078 1.699-2.192 1.554-2.289 1.41-2.383 1.258-2.468 1.102-2.543.937-2.606.774-2.66.601-2.703.434-2.738.262-2.758zm0 0" fill="pink" fill-opacity=".4" stroke-width=".075" stroke-linecap="round" stroke-linejoin="round" stroke="red" stroke-opacity=".4" stroke-miterlimit="10"/><path d="M243.277 321.91l-.086-2.77-.261-2.757-.434-2.735-.601-2.703-.774-2.66-.937-2.605-1.102-2.543-1.258-2.469-1.41-2.383-1.555-2.293-1.699-2.187-1.832-2.078-1.957-1.957-2.078-1.832-2.191-1.7-2.29-1.554-2.382-1.41-2.47-1.258-2.542-1.102-2.606-.937-2.66-.774-2.703-.605-2.738-.43-2.758-.262-2.766-.086-2.769.086-2.758.262-2.734.43-2.703.605-2.66.774-2.61.937-2.539 1.102-2.469 1.257-2.382 1.41-2.293 1.555-2.188 1.7-2.078 1.832-1.961 1.957-1.832 2.078-1.695 2.187-1.559 2.293-1.41 2.383-1.258 2.469-1.098 2.543-.937 2.605-.774 2.66-.605 2.703-.434 2.735-.261 2.758-.086 2.77.086 2.769.261 2.757.434 2.735.605 2.703.774 2.66.937 2.606 1.098 2.543 1.258 2.468 1.41 2.383 1.559 2.293 1.695 2.188 1.832 2.078 1.96 1.957 2.079 1.832 2.188 1.699 2.292 1.559 2.383 1.406 2.47 1.258 2.538 1.101 2.61.938 2.66.773 2.703.606 2.734.433 2.758.258 2.77.09 2.765-.09 2.758-.258 2.738-.433 2.703-.606 2.66-.773 2.606-.938 2.543-1.101 2.469-1.258 2.382-1.406 2.29-1.559 2.191-1.7 2.078-1.831 1.957-1.957 1.832-2.078 1.7-2.188 1.554-2.293 1.41-2.383 1.258-2.468 1.102-2.543.937-2.606.774-2.66.601-2.703.434-2.735.261-2.757zm0 0" fill="pink" fill-opacity=".4" stroke-width=".075" stroke-linecap="round" stroke-linejoin="round" stroke="red" stroke-opacity=".4" stroke-miterlimit="10"/><path d="M307.766 360.148l-.086-2.77-.262-2.757-.434-2.734-.605-2.703-.77-2.66-.941-2.606-1.098-2.543-1.257-2.469-1.41-2.383-1.56-2.293-1.695-2.187-1.832-2.078-1.96-1.957-2.075-1.832-2.191-1.7-2.29-1.554-2.386-1.41-2.465-1.258-2.543-1.102-2.605-.937-2.66-.774-2.704-.605-2.738-.434-2.758-.257-2.765-.09-2.77.09-2.758.257-2.738.434-2.703.605-2.66.774-2.606.937-2.539 1.102-2.468 1.258-2.387 1.41-2.29 1.555-2.187 1.699-2.078 1.832-1.96 1.957-1.833 2.078-1.695 2.187-1.559 2.293-1.41 2.383-1.258 2.469-1.097 2.543-.942 2.605-.77 2.66-.605 2.704-.433 2.734-.262 2.758-.086 2.77.086 2.769.262 2.758.433 2.734.606 2.703.77 2.66.081.227h83.707l.082-.227.77-2.66.605-2.703.434-2.734.262-2.758zm0 0" fill="pink" fill-opacity=".4" stroke-width=".075" stroke-linecap="round" stroke-linejoin="round" stroke="red" stroke-opacity=".4" stroke-miterlimit="10"/><path d="M360.8 318.047l-.09-2.77-.257-2.757-.433-2.735-.606-2.703-.773-2.66-.938-2.606-1.101-2.543-1.258-2.468-1.41-2.383-1.555-2.293-1.7-2.188-1.831-2.078-1.957-1.957-2.079-1.832-2.187-1.699-2.293-1.555-2.383-1.41-2.469-1.258-2.543-1.101-2.605-.938-2.66-.773-2.703-.606-2.735-.433-2.757-.258-2.77-.09-2.77.09-2.757.258-2.735.433-2.703.606-2.66.773-2.605.938-2.543 1.101-2.47 1.258-2.382 1.41-2.293 1.555-2.187 1.7-2.079 1.831-1.957 1.957-1.832 2.078-1.699 2.188-1.555 2.293-1.41 2.383-1.257 2.468-1.102 2.543-.938 2.606-.773 2.66-.605 2.703-.434 2.735-.258 2.757-.09 2.77.09 2.77.258 2.757.434 2.735.605 2.703.773 2.66.938 2.605 1.101 2.543 1.258 2.47 1.41 2.382 1.555 2.293 1.7 2.187 1.831 2.078 1.957 1.957 2.079 1.833 2.187 1.699 2.293 1.554 2.383 1.41 2.469 1.258 2.543 1.102 2.605.937 2.66.774 2.703.605 2.735.434 2.757.258 2.77.09 2.77-.09 2.757-.258 2.735-.434 2.703-.605 2.66-.774 2.606-.937 2.542-1.102 2.47-1.257 2.382-1.41 2.293-1.555 2.188-1.7 2.078-1.832 1.957-1.957 1.832-2.078 1.699-2.187 1.555-2.293 1.41-2.383 1.258-2.469 1.101-2.543.938-2.605.773-2.66.606-2.703.433-2.735.258-2.758zm0 0M334.465 219.305l-.09-2.77-.258-2.758-.433-2.734-.606-2.703-.773-2.66-.938-2.606-1.101-2.543-1.254-2.469-1.41-2.382-1.559-2.293-1.7-2.188-1.831-2.078-1.957-1.957-2.078-1.832-2.188-1.7-2.293-1.554-2.383-1.41-2.468-1.258-2.543-1.101-2.606-.938-2.66-.773-2.703-.606-2.735-.433-2.757-.258-2.77-.09-2.77.09-2.757.258-2.735.433-2.703.606-2.66.773-2.605.938-2.543 1.101-2.47 1.258-2.382 1.41-2.289 1.555-2.191 1.699-2.079 1.832-1.957 1.957-1.832 2.078-1.699 2.188-1.554 2.293-1.41 2.382-1.258 2.47-1.102 2.542-.938 2.606-.773 2.66-.601 2.703-.434 2.734-.262 2.758-.086 2.77.086 2.77.262 2.757.434 2.734.601 2.704.774 2.66.937 2.605 1.102 2.543 1.257 2.469 1.41 2.383 1.555 2.293 1.7 2.187 1.831 2.078 1.957 1.957 2.079 1.832 2.191 1.7 2.29 1.554 2.382 1.41 2.469 1.258 2.543 1.102 2.605.937 2.66.774 2.703.605 2.735.434 2.758.258 2.77.09 2.769-.09 2.757-.258 2.735-.434 2.703-.605 2.66-.774 2.606-.937 2.543-1.102 2.468-1.258 2.383-1.41 2.293-1.554 2.188-1.7 2.078-1.832 1.957-1.957 1.832-2.078 1.699-2.187 1.559-2.293 1.41-2.383 1.254-2.469 1.101-2.543.938-2.605.773-2.66.606-2.704.433-2.734.258-2.758zm0 0" fill="pink" fill-opacity=".4" stroke-width=".075" stroke-linecap="round" stroke-linejoin="round" stroke="red" stroke-opacity=".4" stroke-miterlimit="10"/><path d="M374 167.695l-.426-.187-2.605-.938-2.66-.773-2.704-.602-2.738-.433-2.758-.262-2.765-.086-2.77.086-2.758.262-2.738.433-2.703.602-2.66.773-2.606.938-2.539 1.101-2.468 1.258-2.387 1.41-2.29 1.555-2.187 1.7-2.078 1.831-1.96 1.957-1.833 2.078-1.695 2.192-1.559 2.289-1.41 2.383-1.258 2.468-1.097 2.543-.942 2.606-.77 2.66-.605 2.703-.433 2.738-.262 2.758-.086 2.766.086 2.77.262 2.757.433 2.735.606 2.703.77 2.66.94 2.61 1.098 2.538 1.258 2.47 1.41 2.386 1.559 2.289 1.695 2.187 1.832 2.078 1.961 1.961 2.078 1.832 2.188 1.696 2.289 1.558 2.387 1.41 2.468 1.258 2.54 1.098 2.605.938 2.66.773 2.703.605 2.738.434 2.758.262 2.77.086 2.765-.086 2.758-.262 2.738-.434 2.704-.605 2.66-.774 2.605-.937.426-.184zm0 0" fill="pink" fill-opacity=".4" stroke-width=".075" stroke-linecap="round" stroke-linejoin="round" stroke="red" stroke-opacity=".4" stroke-miterlimit="10"/><path d="M374 132.738l-1.547-1.996-1.832-2.078-1.96-1.957-2.075-1.832-2.191-1.7-2.29-1.554-2.386-1.41-2.465-1.258-2.543-1.101-2.606-.938-2.66-.773-2.703-.602-2.738-.434-2.758-.261-2.766-.086-2.77.086-2.757.261-2.738.434-2.703.602-2.66.773-2.606.938-2.539 1.101-2.469 1.258-2.386 1.41-2.29 1.555-2.187 1.699-2.078 1.832-1.961 1.957-1.832 2.078-1.695 2.192-1.559 2.289-1.41 2.382-1.258 2.47-1.098 2.542-.941 2.606-.77 2.66-.605 2.703-.434 2.738-.261 2.758-.086 2.766.086 2.77.261 2.757.434 2.734.605 2.703.77 2.66.941 2.61 1.098 2.54 1.258 2.468 1.41 2.383 1.559 2.293 1.695 2.187 1.832 2.078 1.96 1.961 2.079 1.832 2.188 1.696 2.289 1.558 2.386 1.41 2.469 1.258 2.54 1.098 2.605.937 2.66.774 2.703.605 2.738.434 2.758.261 2.77.086 2.765-.086 2.758-.261 2.738-.434 2.703-.605 2.66-.774 2.606-.937 2.543-1.098 2.465-1.258 2.386-1.41 2.29-1.558 2.19-1.696 2.075-1.832 1.961-1.96 1.832-2.079 1.547-1.996zm0 0" fill="pink" fill-opacity=".4" stroke-width=".075" stroke-linecap="round" stroke-linejoin="round" stroke="red" stroke-opacity=".4" stroke-miterlimit="10"/><path d="M358.57 158.848l-50.64-32.692M358.57 158.848l-1.226 49.656M358.57 158.848h-20.09M307.93 126.156l9.476-48.804M307.93 126.156l30.55 32.692M317.406 77.352l-16.844-52.993M317.406 77.352l-75.152-35.215M317.406 77.352l21.074 81.496M300.563 24.36l-58.31 17.777M242.254 42.137l-41.02-21.633M201.234 20.504l-52.136-6.652M149.098 13.852l-34.739 38.171M114.36 52.023l-13.184 46.473M101.176 98.496l21.82 45.383M122.996 143.879l-14.562 71.394M108.434 215.273l11.75 44.07M120.184 259.344l20.406 63.898M140.59 323.242l58.597-1.332M199.188 321.91l64.488 38.238M263.676 360.148l53.031-42.101M290.371 219.305l66.973-10.801M290.371 219.305l48.11-60.457M357.344 208.504l-18.864-49.656" fill="none" stroke-width=".375" stroke-linecap="round" stroke-linejoin="round" stroke="#000" stroke-miterlimit="10"/><path d="M360.367 158.848c0 2.402-3.597 2.402-3.597 0 0-2.399 3.597-2.399 3.597 0M309.73 126.156c0 2.399-3.597 2.399-3.597 0 0-2.402 3.597-2.402 3.597 0M319.207 77.352c0 2.398-3.598 2.398-3.598 0 0-2.403 3.598-2.403 3.598 0M302.363 24.36c0 2.402-3.597 2.402-3.597 0 0-2.4 3.597-2.4 3.597 0M244.055 42.137c0 2.398-3.602 2.398-3.602 0 0-2.403 3.602-2.403 3.602 0M203.035 20.504c0 2.402-3.601 2.402-3.601 0 0-2.399 3.601-2.399 3.601 0M150.895 13.852c0 2.398-3.598 2.398-3.598 0 0-2.399 3.598-2.399 3.598 0M116.156 52.023c0 2.399-3.597 2.399-3.597 0 0-2.398 3.597-2.398 3.597 0M102.977 98.496c0 2.402-3.598 2.402-3.598 0 0-2.398 3.598-2.398 3.598 0M124.797 143.879c0 2.402-3.602 2.402-3.602 0 0-2.399 3.602-2.399 3.602 0M17.23 191.766c0 2.402-3.597 2.402-3.597 0 0-2.399 3.597-2.399 3.597 0M110.234 215.273c0 2.399-3.601 2.399-3.601 0 0-2.398 3.601-2.398 3.601 0M121.984 259.344c0 2.402-3.597 2.402-3.597 0 0-2.399 3.597-2.399 3.597 0M142.39 323.242c0 2.399-3.6 2.399-3.6 0 0-2.402 3.6-2.402 3.6 0M200.988 321.91c0 2.402-3.601 2.402-3.601 0 0-2.398 3.601-2.398 3.601 0M265.473 360.148c0 2.399-3.598 2.399-3.598 0 0-2.398 3.598-2.398 3.598 0M318.508 318.047c0 2.398-3.602 2.398-3.602 0 0-2.399 3.602-2.399 3.602 0M292.172 219.305c0 2.398-3.602 2.398-3.602 0 0-2.399 3.602-2.399 3.602 0M359.14 208.504c0 2.402-3.597 2.402-3.597 0 0-2.399 3.598-2.399 3.598 0M340.277 158.848c0 2.402-3.597 2.402-3.597 0 0-2.399 3.597-2.399 3.597 0" fill="red" stroke-width=".75" stroke-linecap="round" stroke-linejoin="round" stroke="red" stroke-miterlimit="10"/></svg>