<svg xmlns="http://www.w3.org/2000/svg" width="374pt" height="374pt" viewBox="0 0 374 374"><path fill="#fff" d="M0 0h374v374H0z"/><path d="M360.367 158.848c0 2.402-3.597 2.402-3.597 0 0-2.399 3.597-2.399 3.597 0M309.73 126.156c0 2.399-3.597 2.399-3.597 0 0-2.402 3.597-2.402 3.597 0M319.207 77.352c0 2.398-3.598 2.398-3.598 0 0-2.403 3.598-2.403 3.598 0M302.363 24.36c0 2.402-3.597 2.402-3.597 0 0-2.4 3.597-2.4 3.597 0M244.055 42.137c0 2.398-3.602 2.398-3.602 0 0-2.403 3.602-2.403 3.602 0M203.035 20.504c0 2.402-3.601 2.402-3.601 0 0-2.399 3.601-2.399 3.601 0M150.895 13.852c0 2.398-3.598 2.398-3.598 0 0-2.399 3.598-2.399 3.598 0M116.156 52.023c0 2.399-3.597 2.399-3.597 0 0-2.398 3.597-2.398 3.597 0M102.977 98.496c0 2.402-3.598 2.402-3.598 0 0-2.398 3.598-2.398 3.598 0M124.797 143.879c0 2.402-3.602 2.402-3.602 0 0-2.399 3.602-2.399 3.602 0M17.23 191.766c0 2.402-3.597 2.402-3.597 0 0-2.399 3.597-2.399 3.597 0M110.234 215.273c0 2.399-3.601 2.399-3.601 0 0-2.398 3.601-2.398 3.601 0M121.984 259.344c0 2.402-3.597 2.402-3.597 0 0-2.399 3.597-2.399 3.597 0M142.39 323.242c0 2.399-3.6 2.399-3.6 0 0-2.402 3.6-2.402 3.6 0M200.988 321.91c0 2.402-3.601 2.402-3.601 0 0-2.398 3.601-2.398 3.601 0M265.473 360.148c0 2.399-3.598 2.399-3.598 0 0-2.398 3.598-2.398 3.598 0M318.508 318.047c0 2.398-3.602 2.398-3.602 0 0-2.399 3.602-2.399 3.602 0M292.172 219.305c0 2.398-3.602 2.398-3.602 0 0-2.399 3.602-2.399 3.602 0M359.14 208.504c0 2.402-3.597 2.402-3.597 0 0-2.399 3.598-2.399 3.598 0M340.277 158.848c0 2.402-3.597 2.402-3.597 0 0-2.399 3.597-2.399 3.597 0" fill="red" stroke-width=".75" stroke-linecap="round" stroke-linejoin="round" stroke="red" stroke-miterlimit="10"/><path d="M6.934 374h352.738M6.934 374h0M65.723 374h0M124.516 374h0M183.305 374h0M242.094 374h0M300.883 374h0M359.672 374h0M0 364.613V11.875M0 364.613h0M0 305.824h0M0 247.031h0M0 188.242h0M0 129.453h0M0 70.664h0M0 11.875h0M0 374h374V0H0v374" fill="none" stroke-width=".75" stroke-linecap="round" stroke-linejoin="round" stroke="#000" stroke-miterlimit="10"/><path d="M358.57 158.848l-50.64-32.692M358.57 158.848l-41.164-81.496M358.57 158.848l-68.199 60.457M358.57 158.848l-1.226 49.656M358.57 158.848h-20.09M307.93 126.156l9.476-48.804M307.93 126.156L300.562 24.36M307.93 126.156l-65.676-84.02M307.93 126.156l-17.559 93.149M307.93 126.156l49.414 82.348M307.93 126.156l30.55 32.692M317.406 77.352l-16.844-52.993M317.406 77.352l-75.152-35.215M317.406 77.352l21.074 81.496M300.563 24.36l-58.31 17.777M300.563 24.36l-99.329-3.856M242.254 42.137l-41.02-21.633M242.254 42.137l-93.156-28.285M201.234 20.504l-52.136-6.652M201.234 20.504l-86.875 31.52M149.098 13.852l-34.739 38.171M149.098 13.852l-47.922 84.644M114.36 52.023l-13.184 46.473M114.36 52.023l8.636 91.856M101.176 98.496l21.82 45.383M101.176 98.496l7.258 116.777M122.996 143.879l-14.562 71.394M122.996 143.879l-2.812 115.465M15.43 191.766l93.004 23.507M108.434 215.273l11.75 44.07M108.434 215.273l32.156 107.97M120.184 259.344l20.406 63.898M120.184 259.344l79.004 62.566M140.59 323.242l58.597-1.332M199.188 321.91l64.488 38.238M263.676 360.148l53.031-42.101M316.707 318.047l-26.336-98.742M316.707 318.047l40.637-109.543M290.371 219.305l66.973-10.801M290.371 219.305l48.11-60.457M357.344 208.504l-18.864-49.656" fill="none" stroke-width=".375" stroke-linecap="round" stroke-linejoin="round" stroke="#000" stroke-miterlimit="10"/><path d="M359.07 158.848c0 .668-1 .668-1 0 0-.664 1-.664 1 0M308.43 126.156c0 .664-1 .664-1 0 0-.668 1-.668 1 0M317.906 77.352c0 .664-1 .664-1 0 0-.668 1-.668 1 0M301.063 24.36c0 .667-1 .667-1 0 0-.669 1-.669 1 0M242.754 42.137c0 .664-1 .664-1 0 0-.668 1-.668 1 0M201.734 20.504c0 .668-1 .668-1 0s1-.668 1 0M149.598 13.852c0 .668-1 .668-1 0s1-.668 1 0M114.86 52.023c0 .668-1 .668-1 0s1-.668 1 0M101.676 98.496c0 .668-1 .668-1 0 0-.664 1-.664 1 0M123.496 143.879c0 .668-1 .668-1 0 0-.664 1-.664 1 0M15.93 191.766c0 .668-1 .668-1 0 0-.664 1-.664 1 0M108.934 215.273c0 .668-1 .668-1 0s1-.668 1 0M120.684 259.344c0 .668-1 .668-1 0s1-.668 1 0M141.09 323.242c0 .664-1 .664-1 0 0-.668 1-.668 1 0M199.688 321.91c0 .668-1 .668-1 0s1-.668 1 0M264.176 360.148c0 .668-1 .668-1 0s1-.668 1 0M317.207 318.047c0 .668-1 .668-1 0s1-.668 1 0M290.871 219.305c0 .668-1 .668-1 0s1-.668 1 0M357.844 208.504c0 .668-1 .668-1 0 0-.664 1-.664 1 0M338.98 158.848c0 .668-1 .668-1 0 0-.664 1-.664 1 0" fill="red" stroke-width=".75" stroke-linecap="round" stroke-linejoin="round" stroke="red" stroke-miterlimit="10"/><path d="M358.57 158.848l-50.64-32.692M358.57 158.848l-41.164-81.496M358.57 158.848l-68.199 60.457M358.57 158.848l-1.226 49.656M358.57 158.848h-20.09M307.93 126.156l9.476-48.804M307.93 126.156L300.562 24.36M307.93 126.156l-65.676-84.02M307.93 126.156l-17.559 93.149M307.93 126.156l49.414 82.348M307.93 126.156l30.55 32.692M317.406 77.352l-16.844-52.993M317.406 77.352l-75.152-35.215M317.406 77.352l21.074 81.496M300.563 24.36l-58.31 17.777M300.563 24.36l-99.329-3.856M242.254 42.137l-41.02-21.633M242.254 42.137l-93.156-28.285M201.234 20.504l-52.136-6.652M201.234 20.504l-86.875 31.52M149.098 13.852l-34.739 38.171M149.098 13.852l-47.922 84.644M114.36 52.023l-13.184 46.473M114.36 52.023l8.636 91.856M101.176 98.496l21.82 45.383M101.176 98.496l7.258 116.777M122.996 143.879l-14.562 71.394M122.996 143.879l-2.812 115.465M15.43 191.766l93.004 23.507M108.434 215.273l11.75 44.07M108.434 215.273l32.156 107.97M120.184 259.344l20.406 63.898M120.184 259.344l79.004 62.566M140.59 323.242l58.597-1.332M199.188 321.91l64.488 38.238M263.676 360.148l53.031-42.101M316.707 318.047l-26.336-98.742M316.707 318.047l40.637-109.543M290.371 219.305l66.973-10.801M290.371 219.305l48.11-60.457M357.344 208.504l-18.864-49.656" fill="none" stroke-width=".375" stroke-linecap="round" stroke-linejoin="round" stroke="#000" stroke-miterlimit="10"/><path d="M359.07 158.848c0 .668-1 .668-1 0 0-.664 1-.664 1 0M308.43 126.156c0 .664-1 .664-1 0 0-.668 1-.668 1 0M317.906 77.352c0 .664-1 .664-1 0 0-.668 1-.668 1 0M301.063 24.36c0 .667-1 .667-1 0 0-.669 1-.669 1 0M242.754 42.137c0 .664-1 .664-1 0 0-.668 1-.668 1 0M201.734 20.504c0 .668-1 .668-1 0s1-.668 1 0M149.598 13.852c0 .668-1 .668-1 0s1-.668 1 0M114.86 52.023c0 .668-1 .668-1 0s1-.668 1 0M101.676 98.496c0 .668-1 .668-1 0 0-.664 1-.664 1 0M123.496 143.879c0 .668-1 .668-1 0 0-.664 1-.664 1 0M15.93 191.766c0 .668-1 .668-1 0 0-.664 1-.664 1 0M108.934 215.273c0 .668-1 .668-1 0s1-.668 1 0M120.684 259.344c0 .668-1 .668-1 0s1-.668 1 0M141.09 323.242c0 .664-1 .664-1 0 0-.668 1-.668 1 0M199.688 321.91c0 .668-1 .668-1 0s1-.668 1 0M264.176 360.148c0 .668-1 .668-1 0s1-.668 1 0M317.207 318.047c0 .668-1 .668-1 0s1-.668 1 0M290.871 219.305c0 .668-1 .668-1 0s1-.668 1 0M357.844 208.504c0 .668-1 .668-1 0 0-.664 1-.664 1 0M338.98 158.848c0 .668-1 .668-1 0 0-.664 1-.664 1 0" fill="red" stroke-width=".75" stroke-linecap="round" stroke-linejoin="round" stroke="red" stroke-miterlimit="10"/><path d="M360.367 158.848c0 2.402-3.597 2.402-3.597 0 0-2.399 3.597-2.399 3.597 0M309.73 126.156c0 2.399-3.597 2.399-3.597 0 0-2.402 3.597-2.402 3.597 0M319.207 77.352c0 2.398-3.598 2.398-3.598 0 0-2.403 3.598-2.403 3.598 0M302.363 24.36c0 2.402-3.597 2.402-3.597 0 0-2.4 3.597-2.4 3.597 0M244.055 42.137c0 2.398-3.602 2.398-3.602 0 0-2.403 3.602-2.403 3.602 0M203.035 20.504c0 2.402-3.601 2.402-3.601 0 0-2.399 3.601-2.399 3.601 0M150.895 13.852c0 2.398-3.598 2.398-3.598 0 0-2.399 3.598-2.399 3.598 0M116.156 52.023c0 2.399-3.597 2.399-3.597 0 0-2.398 3.597-2.398 3.597 0M102.977 98.496c0 2.402-3.598 2.402-3.598 0 0-2.398 3.598-2.398 3.598 0M124.797 143.879c0 2.402-3.602 2.402-3.602 0 0-2.399 3.602-2.399 3.602 0M17.23 191.766c0 2.402-3.597 2.402-3.597 0 0-2.399 3.597-2.399 3.597 0M110.234 215.273c0 2.399-3.601 2.399-3.601 0 0-2.398 3.601-2.398 3.601 0M121.984 259.344c0 2.402-3.597 2.402-3.597 0 0-2.399 3.597-2.399 3.597 0M142.39 323.242c0 2.399-3.6 2.399-3.6 0 0-2.402 3.6-2.402 3.6 0M200.988 321.91c0 2.402-3.601 2.402-3.601 0 0-2.398 3.601-2.398 3.601 0M265.473 360.148c0 2.399-3.598 2.399-3.598 0 0-2.398 3.598-2.398 3.598 0M318.508 318.047c0 2.398-3.602 2.398-3.602 0 0-2.399 3.602-2.399 3.602 0M292.172 219.305c0 2.398-3.602 2.398-3.602 0 0-2.399 3.602-2.399 3.602 0M359.14 208.504c0 2.402-3.597 2.402-3.597 0 0-2.399 3.598-2.399 3.598 0M340.277 158.848c0 2.402-3.597 2.402-3.597 0 0-2.399 3.597-2.399 3.597 0" fill="red" stroke-width=".75" stroke-linecap="round" stroke-linejoin="round" stroke="red" stroke-miterlimit="10"/><path d="M358.57 158.848l-50.64-32.692M358.57 158.848l-41.164-81.496M358.57 158.848l-68.199 60.457M358.57 158.848l-1.226 49.656M358.57 158.848h-20.09M307.93 126.156l9.476-48.804M307.93 126.156L300.562 24.36M307.93 126.156l-65.676-84.02M307.93 126.156l-17.559 93.149M307.93 126.156l49.414 82.348M307.93 126.156l30.55 32.692M317.406 77.352l-16.844-52.993M317.406 77.352l-75.152-35.215M317.406 77.352l21.074 81.496M300.563 24.36l-58.31 17.777M300.563 24.36l-99.329-3.856M242.254 42.137l-41.02-21.633M242.254 42.137l-93.156-28.285M201.234 20.504l-52.136-6.652M201.234 20.504l-86.875 31.52M149.098 13.852l-34.739 38.171M149.098 13.852l-47.922 84.644M114.36 52.023l-13.184 46.473M114.36 52.023l8.636 91.856M101.176 98.496l21.82 45.383M101.176 98.496l7.258 116.777M122.996 143.879l-14.562 71.394M122.996 143.879l-2.812 115.465M15.43 191.766l93.004 23.507M108.434 215.273l11.75 44.07M108.434 215.273l32.156 107.97M120.184 259.344l20.406 63.898M120.184 259.344l79.004 62.566M140.59 323.242l58.597-1.332M199.188 321.91l64.488 38.238M263.676 360.148l53.031-42.101M316.707 318.047l-26.336-98.742M316.707 318.047l40.637-109.543M290.371 219.305l66.973-10.801M290.371 219.305l48.11-60.457M357.344 208.504l-18.864-49.656" fill="none" stroke-width=".375" stroke-linecap="round" stroke-linejoin="round" stroke="#000" stroke-miterlimit="10"/><path d="M360.367 158.848c0 2.402-3.597 2.402-3.597 0 0-2.399 3.597-2.399 3.597 0M309.73 126.156c0 2.399-3.597 2.399-3.597 0 0-2.402 3.597-2.402 3.597 0M319.207 77.352c0 2.398-3.598 2.398-3.598 0 0-2.403 3.598-2.403 3.598 0M302.363 24.36c0 2.402-3.597 2.402-3.597 0 0-2.4 3.597-2.4 3.597 0M244.055 42.137c0 2.398-3.602 2.398-3.602 0 0-2.403 3.602-2.403 3.602 0M203.035 20.504c0 2.402-3.601 2.402-3.601 0 0-2.399 3.601-2.399 3.601 0M150.895 13.852c0 2.398-3.598 2.398-3.598 0 0-2.399 3.598-2.399 3.598 0M116.156 52.023c0 2.399-3.597 2.399-3.597 0 0-2.398 3.597-2.398 3.597 0M102.977 98.496c0 2.402-3.598 2.402-3.598 0 0-2.398 3.598-2.398 3.598 0M124.797 143.879c0 2.402-3.602 2.402-3.602 0 0-2.399 3.602-2.399 3.602 0M17.23 191.766c0 2.402-3.597 2.402-3.597 0 0-2.399 3.597-2.399 3.597 0M110.234 215.273c0 2.399-3.601 2.399-3.601 0 0-2.398 3.601-2.398 3.601 0M121.984 259.344c0 2.402-3.597 2.402-3.597 0 0-2.399 3.597-2.399 3.597 0M142.39 323.242c0 2.399-3.6 2.399-3.6 0 0-2.402 3.6-2.402 3.6 0M200.988 321.91c0 2.402-3.601 2.402-3.601 0 0-2.398 3.601-2.398 3.601 0M265.473 360.148c0 2.399-3.598 2.399-3.598 0 0-2.398 3.598-2.398 3.598 0M318.508 318.047c0 2.398-3.602 2.398-3.602 0 0-2.399 3.602-2.399 3.602 0M292.172 219.305c0 2.398-3.602 2.398-3.602 0 0-2.399 3.602-2.399 3.602 0M359.14 208.504c0 2.402-3.597 2.402-3.597 0 0-2.399 3.598-2.399 3.598 0M340.277 158.848c0 2.402-3.597 2.402-3.597 0 0-2.399 3.597-2.399 3.597 0" fill="red" stroke-width=".75" stroke-linecap="round" stroke-linejoin="round" stroke="red" stroke-miterlimit="10"/></svg>