<svg xmlns="http://www.w3.org/2000/svg" width="374pt" height="374pt" viewBox="0 0 374 374"><path fill="#fff" d="M0 0h374v374H0z"/><path d="M360.367 158.848c0 2.402-3.597 2.402-3.597 0 0-2.399 3.597-2.399 3.597 0M309.73 126.156c0 2.399-3.597 2.399-3.597 0 0-2.402 3.597-2.402 3.597 0M319.207 77.352c0 2.398-3.598 2.398-3.598 0 0-2.403 3.598-2.403 3.598 0M302.363 24.36c0 2.402-3.597 2.402-3.597 0 0-2.4 3.597-2.4 3.597 0M244.055 42.137c0 2.398-3.602 2.398-3.602 0 0-2.403 3.602-2.403 3.602 0M203.035 20.504c0 2.402-3.601 2.402-3.601 0 0-2.399 3.601-2.399 3.601 0M150.895 13.852c0 2.398-3.598 2.398-3.598 0 0-2.399 3.598-2.399 3.598 0M116.156 52.023c0 2.399-3.597 2.399-3.597 0 0-2.398 3.597-2.398 3.597 0M102.977 98.496c0 2.402-3.598 2.402-3.598 0 0-2.398 3.598-2.398 3.598 0M124.797 143.879c0 2.402-3.602 2.402-3.602 0 0-2.399 3.602-2.399 3.602 0M17.23 191.766c0 2.402-3.597 2.402-3.597 0 0-2.399 3.597-2.399 3.597 0M110.234 215.273c0 2.399-3.601 2.399-3.601 0 0-2.398 3.601-2.398 3.601 0M121.984 259.344c0 2.402-3.597 2.402-3.597 0 0-2.399 3.597-2.399 3.597 0M142.39 323.242c0 2.399-3.6 2.399-3.6 0 0-2.402 3.6-2.402 3.6 0M200.988 321.91c0 2.402-3.601 2.402-3.601 0 0-2.398 3.601-2.398 3.601 0M265.473 360.148c0 2.399-3.598 2.399-3.598 0 0-2.398 3.598-2.398 3.598 0M318.508 318.047c0 2.398-3.602 2.398-3.602 0 0-2.399 3.602-2.399 3.602 0M292.172 219.305c0 2.398-3.602 2.398-3.602 0 0-2.399 3.602-2.399 3.602 0M359.14 208.504c0 2.402-3.597 2.402-3.597 0 0-2.399 3.598-2.399 3.598 0M340.277 158.848c0 2.402-3.597 2.402-3.597 0 0-2.399 3.597-2.399 3.597 0" fill="red" stroke-width=".75" stroke-linecap="round" stroke-linejoin="round" stroke="red" stroke-miterlimit="10"/><path d="M6.934 374h352.738M6.934 374h0M65.723 374h0M124.516 374h0M183.305 374h0M242.094 374h0M300.883 374h0M359.672 374h0M0 364.613V11.875M0 364.613h0M0 305.824h0M0 247.031h0M0 188.242h0M0 129.453h0M0 70.664h0M0 11.875h0M0 374h374V0H0v374" fill="none" stroke-width=".75" stroke-linecap="round" stroke-linejoin="round" stroke="#000" stroke-miterlimit="10"/><path d="M358.57 158.848l-50.64-32.692M358.57 158.848l-41.164-81.496M358.57 158.848L300.563 24.359M358.57 158.848L242.254 42.137M358.57 158.848L201.234 20.504M358.57 158.848L199.188 321.91M358.57 158.848l-94.894 201.3M358.57 158.848l-41.863 159.199M358.57 158.848l-68.199 60.457M358.57 158.848l-1.226 49.656M358.57 158.848h-20.09M307.93 126.156l9.476-48.804M307.93 126.156L300.562 24.36M307.93 126.156l-65.676-84.02M307.93 126.156L201.234 20.504M307.93 126.156L149.098 13.852M307.93 126.156L114.36 52.023M307.93 126.156l-206.754-27.66M307.93 126.156L122.996 143.88M307.93 126.156l-199.496 89.117M307.93 126.156L120.184 259.344M307.93 126.156L199.187 321.91M307.93 126.156l8.777 191.89M307.93 126.156l-17.559 93.149M307.93 126.156l49.414 82.348M307.93 126.156l30.55 32.692M317.406 77.352l-16.844-52.993M317.406 77.352l-75.152-35.215M317.406 77.352L201.234 20.504M317.406 77.352l-168.308-63.5M317.406 77.352L114.36 52.023M317.406 77.352l-216.23 21.144M317.406 77.352l-194.41 66.527M317.406 77.352l-27.035 141.953M317.406 77.352l39.938 131.152M317.406 77.352l21.074 81.496M300.563 24.36l-58.31 17.777M300.563 24.36l-99.329-3.856M300.563 24.36L149.097 13.851M300.563 24.36L114.358 52.022M300.563 24.36L101.175 98.495M300.563 24.36L122.995 143.878M300.563 24.36L290.37 219.304M300.563 24.36l56.78 184.144M300.563 24.36l37.917 134.488M242.254 42.137l-41.02-21.633M242.254 42.137l-93.156-28.285M242.254 42.137l-127.895 9.886M242.254 42.137l-141.078 56.36M242.254 42.137L122.996 143.879M242.254 42.137l-133.82 173.136M242.254 42.137l48.117 177.168M242.254 42.137l115.09 166.367M242.254 42.137l96.226 116.71M201.234 20.504l-52.136-6.652M201.234 20.504l-86.875 31.52M201.234 20.504L101.176 98.496M201.234 20.504l-78.238 123.375M201.234 20.504l-92.8 194.77M201.234 20.504l89.137 198.8M201.234 20.504L338.48 158.848M149.098 13.852l-34.739 38.171M149.098 13.852l-47.922 84.644M149.098 13.852l-26.102 130.027M149.098 13.852L15.43 191.766M149.098 13.852l-40.664 201.421M114.36 52.023l-13.184 46.473M114.36 52.023l8.636 91.856M114.36 52.023L15.43 191.766M114.36 52.023l-5.926 163.25M114.36 52.023l5.824 207.32M101.176 98.496l21.82 45.383M101.176 98.496l-85.746 93.27M101.176 98.496l7.258 116.777M101.176 98.496l19.008 160.848M101.176 98.496l39.414 224.746M101.176 98.496L290.37 219.305M122.996 143.879L15.43 191.766M122.996 143.879l-14.562 71.394M122.996 143.879l-2.812 115.465M122.996 143.879l17.594 179.363M122.996 143.879l76.192 178.031M122.996 143.879l167.375 75.426M122.996 143.879l215.484 14.969M15.43 191.766l93.004 23.507M15.43 191.766l104.754 67.578M15.43 191.766l125.16 131.476M15.43 191.766L199.187 321.91M108.434 215.273l11.75 44.07M108.434 215.273l32.156 107.97M108.434 215.273l90.754 106.637M108.434 215.273l155.242 144.875M108.434 215.273l208.273 102.774M108.434 215.273l181.937 4.032M120.184 259.344l20.406 63.898M120.184 259.344l79.004 62.566M120.184 259.344l143.492 100.804M120.184 259.344l196.523 58.703M120.184 259.344l170.187-40.04M140.59 323.242l58.597-1.332M140.59 323.242l123.086 36.906M140.59 323.242l176.117-5.195M140.59 323.242L290.37 219.305M199.188 321.91l64.488 38.238M199.188 321.91l117.519-3.863M199.188 321.91l91.183-102.605M199.188 321.91l158.156-113.406M199.188 321.91L338.48 158.848M263.676 360.148l53.031-42.101M263.676 360.148l26.695-140.843M263.676 360.148l93.668-151.644M263.676 360.148l74.804-201.3M316.707 318.047l-26.336-98.742M316.707 318.047l40.637-109.543M316.707 318.047l21.773-159.2M290.371 219.305l66.973-10.801M290.371 219.305l48.11-60.457M357.344 208.504l-18.864-49.656" fill="none" stroke-width=".375" stroke-linecap="round" stroke-linejoin="round" stroke="#000" stroke-miterlimit="10"/><path d="M360.367 158.848c0 2.402-3.597 2.402-3.597 0 0-2.399 3.597-2.399 3.597 0M309.73 126.156c0 2.399-3.597 2.399-3.597 0 0-2.402 3.597-2.402 3.597 0M319.207 77.352c0 2.398-3.598 2.398-3.598 0 0-2.403 3.598-2.403 3.598 0M302.363 24.36c0 2.402-3.597 2.402-3.597 0 0-2.4 3.597-2.4 3.597 0M244.055 42.137c0 2.398-3.602 2.398-3.602 0 0-2.403 3.602-2.403 3.602 0M203.035 20.504c0 2.402-3.601 2.402-3.601 0 0-2.399 3.601-2.399 3.601 0M150.895 13.852c0 2.398-3.598 2.398-3.598 0 0-2.399 3.598-2.399 3.598 0M116.156 52.023c0 2.399-3.597 2.399-3.597 0 0-2.398 3.597-2.398 3.597 0M102.977 98.496c0 2.402-3.598 2.402-3.598 0 0-2.398 3.598-2.398 3.598 0M124.797 143.879c0 2.402-3.602 2.402-3.602 0 0-2.399 3.602-2.399 3.602 0M17.23 191.766c0 2.402-3.597 2.402-3.597 0 0-2.399 3.597-2.399 3.597 0M110.234 215.273c0 2.399-3.601 2.399-3.601 0 0-2.398 3.601-2.398 3.601 0M121.984 259.344c0 2.402-3.597 2.402-3.597 0 0-2.399 3.597-2.399 3.597 0M142.39 323.242c0 2.399-3.6 2.399-3.6 0 0-2.402 3.6-2.402 3.6 0M200.988 321.91c0 2.402-3.601 2.402-3.601 0 0-2.398 3.601-2.398 3.601 0M265.473 360.148c0 2.399-3.598 2.399-3.598 0 0-2.398 3.598-2.398 3.598 0M318.508 318.047c0 2.398-3.602 2.398-3.602 0 0-2.399 3.602-2.399 3.602 0M292.172 219.305c0 2.398-3.602 2.398-3.602 0 0-2.399 3.602-2.399 3.602 0M359.14 208.504c0 2.402-3.597 2.402-3.597 0 0-2.399 3.598-2.399 3.598 0M340.277 158.848c0 2.402-3.597 2.402-3.597 0 0-2.399 3.597-2.399 3.597 0" fill="red" stroke-width=".75" stroke-linecap="round" stroke-linejoin="round" stroke="red" stroke-miterlimit="10"/></svg>