<svg xmlns="http://www.w3.org/2000/svg" width="374pt" height="374pt" viewBox="0 0 374 374"><path fill="#fff" d="M0 0h374v374H0z"/><path d="M361.566 199.89c0 2.4-3.601 2.4-3.601 0 0-2.402 3.601-2.402 3.601 0M49.898 83.969c0 2.402-3.597 2.402-3.597 0 0-2.399 3.597-2.399 3.597 0M318.172 72.633c0 2.398-3.602 2.398-3.602 0 0-2.399 3.602-2.399 3.602 0M345.605 114.273c0 2.399-3.597 2.399-3.597 0 0-2.402 3.597-2.402 3.597 0M195.469 14.633c0 2.402-3.602 2.402-3.602 0 0-2.399 3.602-2.399 3.602 0M233.883 355.14c0 2.4-3.598 2.4-3.598 0 0-2.398 3.598-2.398 3.598 0M95.734 41.52c0 2.398-3.597 2.398-3.597 0 0-2.403 3.597-2.403 3.597 0M359.32 218.09c0 2.398-3.597 2.398-3.597 0 0-2.399 3.597-2.399 3.597 0M276.09 38.164c0 2.398-3.602 2.398-3.602 0s3.602-2.398 3.602 0M21.031 143.773c0 2.399-3.597 2.399-3.597 0 0-2.398 3.597-2.398 3.597 0M270.488 35.031c0 2.399-3.597 2.399-3.597 0 0-2.402 3.597-2.402 3.597 0M208.79 15.672c0 2.402-3.599 2.402-3.599 0 0-2.399 3.598-2.399 3.598 0M213.422 359.367c0 2.399-3.602 2.399-3.602 0 0-2.402 3.602-2.402 3.602 0M331.215 89.23c0 2.403-3.602 2.403-3.602 0 0-2.398 3.602-2.398 3.602 0M22.703 137.844c0 2.402-3.601 2.402-3.601 0 0-2.399 3.601-2.399 3.601 0M338.016 99.875c0 2.398-3.602 2.398-3.602 0 0-2.402 3.602-2.402 3.602 0M27.781 252.3c0 2.4-3.601 2.4-3.601 0 0-2.402 3.601-2.402 3.601 0M361.727 178.348c0 2.398-3.602 2.398-3.602 0 0-2.403 3.602-2.403 3.602 0" fill="red" stroke-width=".75" stroke-linecap="round" stroke-linejoin="round" stroke="red" stroke-miterlimit="10"/><path d="M361.29 203.332c0 2.402-3.599 2.402-3.599 0 0-2.398 3.598-2.398 3.598 0M118.25 29.45c0 2.398-3.602 2.398-3.602 0 0-2.403 3.602-2.403 3.602 0M77.723 320.984c0 2.403-3.602 2.403-3.602 0 0-2.398 3.602-2.398 3.602 0M140.074 21.45c0 2.402-3.597 2.402-3.597 0 0-2.4 3.597-2.4 3.597 0M361.95 191.41c0 2.403-3.602 2.403-3.602 0 0-2.398 3.601-2.398 3.601 0M332.637 284.32c0 2.403-3.602 2.403-3.602 0 0-2.398 3.602-2.398 3.602 0" fill="red" stroke-width=".75" stroke-linecap="round" stroke-linejoin="round" stroke="red" stroke-miterlimit="10"/><path d="M361.55 200.074c0 2.403-3.597 2.403-3.597 0 0-2.398 3.598-2.398 3.598 0M347.45 118.344c0 2.398-3.598 2.398-3.598 0 0-2.403 3.597-2.403 3.597 0M67.688 311.938c0 2.402-3.602 2.402-3.602 0 0-2.399 3.602-2.399 3.602 0M15.652 177.457c0 2.398-3.601 2.398-3.601 0 0-2.402 3.601-2.402 3.601 0M359.121 219.203c0 2.399-3.601 2.399-3.601 0 0-2.402 3.601-2.402 3.601 0M76.332 55.828c0 2.402-3.602 2.402-3.602 0 0-2.398 3.602-2.398 3.602 0" fill="red" stroke-width=".75" stroke-linecap="round" stroke-linejoin="round" stroke="red" stroke-miterlimit="10"/><path d="M13.543 374h346.64M13.543 374h0M100.203 374h0M186.863 374h0M273.523 374h0M360.184 374h0M0 361.145V14.5M0 361.145h0M0 274.484h0M0 187.82h0M0 101.16h0M0 14.5h0M0 374h374V0H0v374" fill="none" stroke-width=".75" stroke-linecap="round" stroke-linejoin="round" stroke="#000" stroke-miterlimit="10"/></svg>