<?xml version="1.0" encoding="UTF-8"?>
<svg xmlns="http://www.w3.org/2000/svg" xmlns:xlink="http://www.w3.org/1999/xlink" width="374pt" height="374pt" viewBox="0 0 374 374" version="1.1">
<g id="surface6">
<rect x="0" y="0" width="374" height="374" style="fill:rgb(100%,100%,100%);fill-opacity:1;stroke:none;"/>
<path style="fill-rule:nonzero;fill:rgb(100%,0%,0%);fill-opacity:1;stroke-width:0.75;stroke-linecap:round;stroke-linejoin:round;stroke:rgb(100%,0%,0%);stroke-opacity:1;stroke-miterlimit:10;" d="M 361.566406 199.890625 C 361.566406 202.289062 357.964844 202.289062 357.964844 199.890625 C 357.964844 197.488281 361.566406 197.488281 361.566406 199.890625 "/>
<path style="fill-rule:nonzero;fill:rgb(100%,0%,0%);fill-opacity:1;stroke-width:0.75;stroke-linecap:round;stroke-linejoin:round;stroke:rgb(100%,0%,0%);stroke-opacity:1;stroke-miterlimit:10;" d="M 49.898438 83.96875 C 49.898438 86.371094 46.300781 86.371094 46.300781 83.96875 C 46.300781 81.570312 49.898438 81.570312 49.898438 83.96875 "/>
<path style="fill-rule:nonzero;fill:rgb(100%,0%,0%);fill-opacity:1;stroke-width:0.75;stroke-linecap:round;stroke-linejoin:round;stroke:rgb(100%,0%,0%);stroke-opacity:1;stroke-miterlimit:10;" d="M 318.171875 72.632812 C 318.171875 75.03125 314.570312 75.03125 314.570312 72.632812 C 314.570312 70.234375 318.171875 70.234375 318.171875 72.632812 "/>
<path style="fill-rule:nonzero;fill:rgb(100%,0%,0%);fill-opacity:1;stroke-width:0.75;stroke-linecap:round;stroke-linejoin:round;stroke:rgb(100%,0%,0%);stroke-opacity:1;stroke-miterlimit:10;" d="M 345.605469 114.273438 C 345.605469 116.671875 342.007812 116.671875 342.007812 114.273438 C 342.007812 111.871094 345.605469 111.871094 345.605469 114.273438 "/>
<path style="fill-rule:nonzero;fill:rgb(100%,0%,0%);fill-opacity:1;stroke-width:0.75;stroke-linecap:round;stroke-linejoin:round;stroke:rgb(100%,0%,0%);stroke-opacity:1;stroke-miterlimit:10;" d="M 195.46875 14.632812 C 195.46875 17.035156 191.867188 17.035156 191.867188 14.632812 C 191.867188 12.234375 195.46875 12.234375 195.46875 14.632812 "/>
<path style="fill-rule:nonzero;fill:rgb(100%,0%,0%);fill-opacity:1;stroke-width:0.75;stroke-linecap:round;stroke-linejoin:round;stroke:rgb(100%,0%,0%);stroke-opacity:1;stroke-miterlimit:10;" d="M 233.882812 355.140625 C 233.882812 357.539062 230.285156 357.539062 230.285156 355.140625 C 230.285156 352.742188 233.882812 352.742188 233.882812 355.140625 "/>
<path style="fill-rule:nonzero;fill:rgb(100%,0%,0%);fill-opacity:1;stroke-width:0.75;stroke-linecap:round;stroke-linejoin:round;stroke:rgb(100%,0%,0%);stroke-opacity:1;stroke-miterlimit:10;" d="M 95.734375 41.519531 C 95.734375 43.917969 92.136719 43.917969 92.136719 41.519531 C 92.136719 39.117188 95.734375 39.117188 95.734375 41.519531 "/>
<path style="fill-rule:nonzero;fill:rgb(100%,0%,0%);fill-opacity:1;stroke-width:0.75;stroke-linecap:round;stroke-linejoin:round;stroke:rgb(100%,0%,0%);stroke-opacity:1;stroke-miterlimit:10;" d="M 359.320312 218.089844 C 359.320312 220.488281 355.722656 220.488281 355.722656 218.089844 C 355.722656 215.691406 359.320312 215.691406 359.320312 218.089844 "/>
<path style="fill-rule:nonzero;fill:rgb(100%,0%,0%);fill-opacity:1;stroke-width:0.75;stroke-linecap:round;stroke-linejoin:round;stroke:rgb(100%,0%,0%);stroke-opacity:1;stroke-miterlimit:10;" d="M 276.089844 38.164062 C 276.089844 40.5625 272.488281 40.5625 272.488281 38.164062 C 272.488281 35.765625 276.089844 35.765625 276.089844 38.164062 "/>
<path style="fill-rule:nonzero;fill:rgb(100%,0%,0%);fill-opacity:1;stroke-width:0.75;stroke-linecap:round;stroke-linejoin:round;stroke:rgb(100%,0%,0%);stroke-opacity:1;stroke-miterlimit:10;" d="M 21.03125 143.773438 C 21.03125 146.171875 17.433594 146.171875 17.433594 143.773438 C 17.433594 141.375 21.03125 141.375 21.03125 143.773438 "/>
<path style="fill-rule:nonzero;fill:rgb(100%,0%,0%);fill-opacity:1;stroke-width:0.75;stroke-linecap:round;stroke-linejoin:round;stroke:rgb(100%,0%,0%);stroke-opacity:1;stroke-miterlimit:10;" d="M 270.488281 35.03125 C 270.488281 37.429688 266.890625 37.429688 266.890625 35.03125 C 266.890625 32.628906 270.488281 32.628906 270.488281 35.03125 "/>
<path style="fill-rule:nonzero;fill:rgb(100%,0%,0%);fill-opacity:1;stroke-width:0.75;stroke-linecap:round;stroke-linejoin:round;stroke:rgb(100%,0%,0%);stroke-opacity:1;stroke-miterlimit:10;" d="M 208.789062 15.671875 C 208.789062 18.074219 205.191406 18.074219 205.191406 15.671875 C 205.191406 13.273438 208.789062 13.273438 208.789062 15.671875 "/>
<path style="fill-rule:nonzero;fill:rgb(100%,0%,0%);fill-opacity:1;stroke-width:0.75;stroke-linecap:round;stroke-linejoin:round;stroke:rgb(100%,0%,0%);stroke-opacity:1;stroke-miterlimit:10;" d="M 213.421875 359.367188 C 213.421875 361.765625 209.820312 361.765625 209.820312 359.367188 C 209.820312 356.964844 213.421875 356.964844 213.421875 359.367188 "/>
<path style="fill-rule:nonzero;fill:rgb(100%,0%,0%);fill-opacity:1;stroke-width:0.75;stroke-linecap:round;stroke-linejoin:round;stroke:rgb(100%,0%,0%);stroke-opacity:1;stroke-miterlimit:10;" d="M 331.214844 89.230469 C 331.214844 91.632812 327.613281 91.632812 327.613281 89.230469 C 327.613281 86.832031 331.214844 86.832031 331.214844 89.230469 "/>
<path style="fill-rule:nonzero;fill:rgb(100%,0%,0%);fill-opacity:1;stroke-width:0.75;stroke-linecap:round;stroke-linejoin:round;stroke:rgb(100%,0%,0%);stroke-opacity:1;stroke-miterlimit:10;" d="M 22.703125 137.84375 C 22.703125 140.246094 19.101562 140.246094 19.101562 137.84375 C 19.101562 135.445312 22.703125 135.445312 22.703125 137.84375 "/>
<path style="fill-rule:nonzero;fill:rgb(100%,0%,0%);fill-opacity:1;stroke-width:0.75;stroke-linecap:round;stroke-linejoin:round;stroke:rgb(100%,0%,0%);stroke-opacity:1;stroke-miterlimit:10;" d="M 338.015625 99.875 C 338.015625 102.273438 334.414062 102.273438 334.414062 99.875 C 334.414062 97.472656 338.015625 97.472656 338.015625 99.875 "/>
<path style="fill-rule:nonzero;fill:rgb(100%,0%,0%);fill-opacity:1;stroke-width:0.75;stroke-linecap:round;stroke-linejoin:round;stroke:rgb(100%,0%,0%);stroke-opacity:1;stroke-miterlimit:10;" d="M 27.78125 252.300781 C 27.78125 254.699219 24.179688 254.699219 24.179688 252.300781 C 24.179688 249.898438 27.78125 249.898438 27.78125 252.300781 "/>
<path style="fill-rule:nonzero;fill:rgb(100%,0%,0%);fill-opacity:1;stroke-width:0.75;stroke-linecap:round;stroke-linejoin:round;stroke:rgb(100%,0%,0%);stroke-opacity:1;stroke-miterlimit:10;" d="M 361.726562 178.347656 C 361.726562 180.746094 358.125 180.746094 358.125 178.347656 C 358.125 175.945312 361.726562 175.945312 361.726562 178.347656 "/>
<path style="fill-rule:nonzero;fill:rgb(100%,0%,0%);fill-opacity:1;stroke-width:0.75;stroke-linecap:round;stroke-linejoin:round;stroke:rgb(100%,0%,0%);stroke-opacity:1;stroke-miterlimit:10;" d="M 361.289062 203.332031 C 361.289062 205.734375 357.691406 205.734375 357.691406 203.332031 C 357.691406 200.933594 361.289062 200.933594 361.289062 203.332031 "/>
<path style="fill-rule:nonzero;fill:rgb(100%,0%,0%);fill-opacity:1;stroke-width:0.75;stroke-linecap:round;stroke-linejoin:round;stroke:rgb(100%,0%,0%);stroke-opacity:1;stroke-miterlimit:10;" d="M 118.25 29.449219 C 118.25 31.847656 114.648438 31.847656 114.648438 29.449219 C 114.648438 27.046875 118.25 27.046875 118.25 29.449219 "/>
<path style="fill-rule:nonzero;fill:rgb(100%,0%,0%);fill-opacity:1;stroke-width:0.75;stroke-linecap:round;stroke-linejoin:round;stroke:rgb(100%,0%,0%);stroke-opacity:1;stroke-miterlimit:10;" d="M 77.722656 320.984375 C 77.722656 323.386719 74.121094 323.386719 74.121094 320.984375 C 74.121094 318.585938 77.722656 318.585938 77.722656 320.984375 "/>
<path style="fill-rule:nonzero;fill:rgb(100%,0%,0%);fill-opacity:1;stroke-width:0.75;stroke-linecap:round;stroke-linejoin:round;stroke:rgb(100%,0%,0%);stroke-opacity:1;stroke-miterlimit:10;" d="M 140.074219 21.449219 C 140.074219 23.851562 136.476562 23.851562 136.476562 21.449219 C 136.476562 19.050781 140.074219 19.050781 140.074219 21.449219 "/>
<path style="fill-rule:nonzero;fill:rgb(100%,0%,0%);fill-opacity:1;stroke-width:0.75;stroke-linecap:round;stroke-linejoin:round;stroke:rgb(100%,0%,0%);stroke-opacity:1;stroke-miterlimit:10;" d="M 361.949219 191.410156 C 361.949219 193.8125 358.347656 193.8125 358.347656 191.410156 C 358.347656 189.011719 361.949219 189.011719 361.949219 191.410156 "/>
<path style="fill-rule:nonzero;fill:rgb(100%,0%,0%);fill-opacity:1;stroke-width:0.75;stroke-linecap:round;stroke-linejoin:round;stroke:rgb(100%,0%,0%);stroke-opacity:1;stroke-miterlimit:10;" d="M 332.636719 284.320312 C 332.636719 286.722656 329.035156 286.722656 329.035156 284.320312 C 329.035156 281.921875 332.636719 281.921875 332.636719 284.320312 "/>
<path style="fill-rule:nonzero;fill:rgb(100%,0%,0%);fill-opacity:1;stroke-width:0.75;stroke-linecap:round;stroke-linejoin:round;stroke:rgb(100%,0%,0%);stroke-opacity:1;stroke-miterlimit:10;" d="M 361.550781 200.074219 C 361.550781 202.476562 357.953125 202.476562 357.953125 200.074219 C 357.953125 197.675781 361.550781 197.675781 361.550781 200.074219 "/>
<path style="fill-rule:nonzero;fill:rgb(100%,0%,0%);fill-opacity:1;stroke-width:0.75;stroke-linecap:round;stroke-linejoin:round;stroke:rgb(100%,0%,0%);stroke-opacity:1;stroke-miterlimit:10;" d="M 347.449219 118.34375 C 347.449219 120.742188 343.851562 120.742188 343.851562 118.34375 C 343.851562 115.941406 347.449219 115.941406 347.449219 118.34375 "/>
<path style="fill-rule:nonzero;fill:rgb(100%,0%,0%);fill-opacity:1;stroke-width:0.75;stroke-linecap:round;stroke-linejoin:round;stroke:rgb(100%,0%,0%);stroke-opacity:1;stroke-miterlimit:10;" d="M 67.6875 311.9375 C 67.6875 314.339844 64.085938 314.339844 64.085938 311.9375 C 64.085938 309.539062 67.6875 309.539062 67.6875 311.9375 "/>
<path style="fill-rule:nonzero;fill:rgb(100%,0%,0%);fill-opacity:1;stroke-width:0.75;stroke-linecap:round;stroke-linejoin:round;stroke:rgb(100%,0%,0%);stroke-opacity:1;stroke-miterlimit:10;" d="M 15.652344 177.457031 C 15.652344 179.855469 12.050781 179.855469 12.050781 177.457031 C 12.050781 175.054688 15.652344 175.054688 15.652344 177.457031 "/>
<path style="fill-rule:nonzero;fill:rgb(100%,0%,0%);fill-opacity:1;stroke-width:0.75;stroke-linecap:round;stroke-linejoin:round;stroke:rgb(100%,0%,0%);stroke-opacity:1;stroke-miterlimit:10;" d="M 359.121094 219.203125 C 359.121094 221.601562 355.519531 221.601562 355.519531 219.203125 C 355.519531 216.800781 359.121094 216.800781 359.121094 219.203125 "/>
<path style="fill-rule:nonzero;fill:rgb(100%,0%,0%);fill-opacity:1;stroke-width:0.75;stroke-linecap:round;stroke-linejoin:round;stroke:rgb(100%,0%,0%);stroke-opacity:1;stroke-miterlimit:10;" d="M 76.332031 55.828125 C 76.332031 58.230469 72.730469 58.230469 72.730469 55.828125 C 72.730469 53.429688 76.332031 53.429688 76.332031 55.828125 "/>
<path style="fill:none;stroke-width:0.75;stroke-linecap:round;stroke-linejoin:round;stroke:rgb(0%,0%,0%);stroke-opacity:1;stroke-miterlimit:10;" d="M 13.542969 374 L 360.183594 374 "/>
<path style="fill:none;stroke-width:0.75;stroke-linecap:round;stroke-linejoin:round;stroke:rgb(0%,0%,0%);stroke-opacity:1;stroke-miterlimit:10;" d="M 13.542969 374 L 13.542969 374 "/>
<path style="fill:none;stroke-width:0.75;stroke-linecap:round;stroke-linejoin:round;stroke:rgb(0%,0%,0%);stroke-opacity:1;stroke-miterlimit:10;" d="M 100.203125 374 L 100.203125 374 "/>
<path style="fill:none;stroke-width:0.75;stroke-linecap:round;stroke-linejoin:round;stroke:rgb(0%,0%,0%);stroke-opacity:1;stroke-miterlimit:10;" d="M 186.863281 374 L 186.863281 374 "/>
<path style="fill:none;stroke-width:0.75;stroke-linecap:round;stroke-linejoin:round;stroke:rgb(0%,0%,0%);stroke-opacity:1;stroke-miterlimit:10;" d="M 273.523438 374 L 273.523438 374 "/>
<path style="fill:none;stroke-width:0.75;stroke-linecap:round;stroke-linejoin:round;stroke:rgb(0%,0%,0%);stroke-opacity:1;stroke-miterlimit:10;" d="M 360.183594 374 L 360.183594 374 "/>
<path style="fill:none;stroke-width:0.75;stroke-linecap:round;stroke-linejoin:round;stroke:rgb(0%,0%,0%);stroke-opacity:1;stroke-miterlimit:10;" d="M 0 361.144531 L 0 14.5 "/>
<path style="fill:none;stroke-width:0.75;stroke-linecap:round;stroke-linejoin:round;stroke:rgb(0%,0%,0%);stroke-opacity:1;stroke-miterlimit:10;" d="M 0 361.144531 L 0 361.144531 "/>
<path style="fill:none;stroke-width:0.75;stroke-linecap:round;stroke-linejoin:round;stroke:rgb(0%,0%,0%);stroke-opacity:1;stroke-miterlimit:10;" d="M 0 274.484375 L 0 274.484375 "/>
<path style="fill:none;stroke-width:0.75;stroke-linecap:round;stroke-linejoin:round;stroke:rgb(0%,0%,0%);stroke-opacity:1;stroke-miterlimit:10;" d="M 0 187.820312 L 0 187.820312 "/>
<path style="fill:none;stroke-width:0.75;stroke-linecap:round;stroke-linejoin:round;stroke:rgb(0%,0%,0%);stroke-opacity:1;stroke-miterlimit:10;" d="M 0 101.160156 L 0 101.160156 "/>
<path style="fill:none;stroke-width:0.75;stroke-linecap:round;stroke-linejoin:round;stroke:rgb(0%,0%,0%);stroke-opacity:1;stroke-miterlimit:10;" d="M 0 14.5 L 0 14.5 "/>
<path style="fill:none;stroke-width:0.75;stroke-linecap:round;stroke-linejoin:round;stroke:rgb(0%,0%,0%);stroke-opacity:1;stroke-miterlimit:10;" d="M 0 374 L 374 374 L 374 0 L 0 0 L 0 374 "/>
</g>
</svg>
