<svg xmlns="http://www.w3.org/2000/svg" width="600" height="600" viewBox="0 0 450 450"><path fill="#fff" d="M0 0h450v450H0z"/><path d="M365.352 234.672c0 2.398-3.602 2.398-3.602 0 0-2.402 3.602-2.402 3.602 0M115.605 141.781c0 2.399-3.601 2.399-3.601 0 0-2.402 3.601-2.402 3.601 0M330.578 132.695c0 2.399-3.601 2.399-3.601 0 0-2.398 3.601-2.398 3.601 0M352.563 166.063c0 2.398-3.598 2.398-3.598 0 0-2.399 3.598-2.399 3.598 0M232.254 86.219c0 2.398-3.602 2.398-3.602 0 0-2.403 3.602-2.403 3.602 0M263.035 359.078c0 2.399-3.598 2.399-3.598 0 0-2.398 3.598-2.398 3.598 0M152.332 107.762c0 2.398-3.598 2.398-3.598 0 0-2.399 3.598-2.399 3.598 0M363.555 249.254c0 2.402-3.602 2.402-3.602 0 0-2.399 3.602-2.399 3.602 0M296.855 105.074c0 2.399-3.597 2.399-3.597 0 0-2.398 3.597-2.398 3.597 0M92.473 189.703c0 2.399-3.602 2.399-3.602 0 0-2.402 3.602-2.402 3.602 0M292.371 102.563c0 2.402-3.601 2.402-3.601 0 0-2.399 3.601-2.399 3.601 0M242.93 87.05c0 2.4-3.602 2.4-3.602 0 0-2.398 3.602-2.398 3.602 0M246.64 362.465c0 2.398-3.6 2.398-3.6 0 0-2.399 3.6-2.399 3.6 0M341.031 145.996c0 2.399-3.601 2.399-3.601 0 0-2.398 3.601-2.398 3.601 0M93.809 184.953c0 2.399-3.598 2.399-3.598 0 0-2.402 3.598-2.402 3.598 0M346.48 154.523c0 2.403-3.601 2.403-3.601 0 0-2.398 3.601-2.398 3.601 0M97.879 276.668c0 2.398-3.598 2.398-3.598 0s3.598-2.398 3.598 0M365.48 217.406c0 2.403-3.597 2.403-3.597 0 0-2.398 3.597-2.398 3.597 0" fill="red" stroke-width=".75" stroke-linecap="round" stroke-linejoin="round" stroke="red" stroke-miterlimit="10"/><path d="M365.133 237.43c0 2.402-3.602 2.402-3.602 0 0-2.399 3.602-2.399 3.602 0M170.375 98.09c0 2.398-3.602 2.398-3.602 0 0-2.399 3.602-2.399 3.602 0M137.898 331.707c0 2.402-3.597 2.402-3.597 0 0-2.398 3.597-2.398 3.597 0M187.863 91.68c0 2.402-3.597 2.402-3.597 0 0-2.399 3.597-2.399 3.597 0M365.66 227.875c0 2.402-3.601 2.402-3.601 0 0-2.398 3.601-2.398 3.601 0M342.172 302.328c0 2.399-3.602 2.399-3.602 0 0-2.398 3.602-2.398 3.602 0" fill="red" stroke-width=".75" stroke-linecap="round" stroke-linejoin="round" stroke="red" stroke-miterlimit="10"/><path d="M365.34 234.82c0 2.399-3.598 2.399-3.598 0 0-2.402 3.598-2.402 3.598 0M354.043 169.324c0 2.399-3.602 2.399-3.602 0 0-2.398 3.602-2.398 3.602 0M129.855 324.46c0 2.4-3.597 2.4-3.597 0 0-2.401 3.597-2.401 3.597 0M88.16 216.691c0 2.403-3.601 2.403-3.601 0 0-2.398 3.601-2.398 3.601 0M363.395 250.148c0 2.399-3.602 2.399-3.602 0 0-2.402 3.602-2.402 3.602 0M136.785 119.23c0 2.399-3.601 2.399-3.601 0 0-2.402 3.601-2.402 3.601 0M167.66 350.668c0 2.398-3.601 2.398-3.601 0s3.601-2.398 3.601 0M214.844 86.625c0 2.402-3.602 2.402-3.602 0 0-2.398 3.602-2.398 3.602 0M281.387 97.29c0 2.397-3.602 2.397-3.602 0 0-2.403 3.602-2.403 3.602 0" fill="red" stroke-width=".75" stroke-linecap="round" stroke-linejoin="round" stroke="red" stroke-miterlimit="10"/><path d="M281.844 97.484c0 2.399-3.598 2.399-3.598 0 0-2.398 3.598-2.398 3.598 0M125.977 129.477c0 2.402-3.602 2.402-3.602 0 0-2.399 3.602-2.399 3.602 0M306.32 338.871c0 2.399-3.597 2.399-3.597 0 0-2.402 3.597-2.402 3.597 0M87.922 223.32c0 2.403-3.602 2.403-3.602 0 0-2.398 3.602-2.398 3.602 0M261.836 359.398c0 2.399-3.602 2.399-3.602 0 0-2.402 3.602-2.402 3.602 0M300.086 342.98c0 2.399-3.602 2.399-3.602 0 0-2.398 3.602-2.398 3.602 0M92.973 187.848c0 2.402-3.602 2.402-3.602 0 0-2.399 3.602-2.399 3.602 0M269.285 357.23c0 2.403-3.601 2.403-3.601 0 0-2.398 3.601-2.398 3.601 0" fill="red" stroke-width=".75" stroke-linecap="round" stroke-linejoin="round" stroke="red" stroke-miterlimit="10"/><path d="M124.402 131.168c0 2.398-3.601 2.398-3.601 0 0-2.402 3.601-2.402 3.601 0M235.262 363.633c0 2.398-3.602 2.398-3.602 0 0-2.403 3.602-2.403 3.602 0M98.727 171.266c0 2.402-3.602 2.402-3.602 0 0-2.399 3.602-2.399 3.602 0M341.29 303.629c0 2.402-3.603 2.402-3.603 0 0-2.399 3.602-2.399 3.602 0M168.031 99.156c0 2.403-3.601 2.403-3.601 0 0-2.398 3.601-2.398 3.601 0M347.414 156.133c0 2.402-3.601 2.402-3.601 0 0-2.399 3.601-2.399 3.601 0M282.988 352.016c0 2.398-3.597 2.398-3.597 0 0-2.403 3.597-2.403 3.597 0M338.375 307.707c0 2.402-3.598 2.402-3.598 0 0-2.398 3.598-2.398 3.598 0M362.621 254.023c0 2.399-3.598 2.399-3.598 0 0-2.402 3.598-2.402 3.598 0M250.68 194.996c0 2.402-3.602 2.402-3.602 0 0-2.398 3.602-2.398 3.602 0" fill="red" stroke-width=".75" stroke-linecap="round" stroke-linejoin="round" stroke="red" stroke-miterlimit="10"/><path d="M0 450h450V0H0v450" fill="none" stroke-width=".75" stroke-linecap="round" stroke-linejoin="round" stroke="#000" stroke-miterlimit="10"/><path d="M250.68 194.996c0 2.402-3.602 2.402-3.602 0 0-2.398 3.602-2.398 3.602 0" fill="#0f0" stroke-width=".75" stroke-linecap="round" stroke-linejoin="round" stroke="#0f0" stroke-miterlimit="10"/></svg>