<svg xmlns="http://www.w3.org/2000/svg" width="600" height="600" viewBox="0 0 450 450"><path fill="#fff" d="M0 0h450v450H0z"/><path d="M365.352 234.672c0 2.398-3.602 2.398-3.602 0 0-2.402 3.602-2.402 3.602 0M115.605 141.781c0 2.399-3.601 2.399-3.601 0 0-2.402 3.601-2.402 3.601 0M330.578 132.695c0 2.399-3.601 2.399-3.601 0 0-2.398 3.601-2.398 3.601 0M352.563 166.063c0 2.398-3.598 2.398-3.598 0 0-2.399 3.598-2.399 3.598 0M232.254 86.219c0 2.398-3.602 2.398-3.602 0 0-2.403 3.602-2.403 3.602 0M263.035 359.078c0 2.399-3.598 2.399-3.598 0 0-2.398 3.598-2.398 3.598 0M152.332 107.762c0 2.398-3.598 2.398-3.598 0 0-2.399 3.598-2.399 3.598 0M363.555 249.254c0 2.402-3.602 2.402-3.602 0 0-2.399 3.602-2.399 3.602 0M296.855 105.074c0 2.399-3.597 2.399-3.597 0 0-2.398 3.597-2.398 3.597 0M92.473 189.703c0 2.399-3.602 2.399-3.602 0 0-2.402 3.602-2.402 3.602 0M292.371 102.563c0 2.402-3.601 2.402-3.601 0 0-2.399 3.601-2.399 3.601 0M242.93 87.05c0 2.4-3.602 2.4-3.602 0 0-2.398 3.602-2.398 3.602 0M246.64 362.465c0 2.398-3.6 2.398-3.6 0 0-2.399 3.6-2.399 3.6 0M341.031 145.996c0 2.399-3.601 2.399-3.601 0 0-2.398 3.601-2.398 3.601 0M93.809 184.953c0 2.399-3.598 2.399-3.598 0 0-2.402 3.598-2.402 3.598 0M346.48 154.523c0 2.403-3.601 2.403-3.601 0 0-2.398 3.601-2.398 3.601 0M97.879 276.668c0 2.398-3.598 2.398-3.598 0s3.598-2.398 3.598 0M365.48 217.406c0 2.403-3.597 2.403-3.597 0 0-2.398 3.597-2.398 3.597 0" fill="red" stroke-width=".75" stroke-linecap="round" stroke-linejoin="round" stroke="red" stroke-miterlimit="10"/><path d="M365.133 237.43c0 2.402-3.602 2.402-3.602 0 0-2.399 3.602-2.399 3.602 0M170.375 98.09c0 2.398-3.602 2.398-3.602 0 0-2.399 3.602-2.399 3.602 0M137.898 331.707c0 2.402-3.597 2.402-3.597 0 0-2.398 3.597-2.398 3.597 0M187.863 91.68c0 2.402-3.597 2.402-3.597 0 0-2.399 3.597-2.399 3.597 0M365.66 227.875c0 2.402-3.601 2.402-3.601 0 0-2.398 3.601-2.398 3.601 0M342.172 302.328c0 2.399-3.602 2.399-3.602 0 0-2.398 3.602-2.398 3.602 0" fill="red" stroke-width=".75" stroke-linecap="round" stroke-linejoin="round" stroke="red" stroke-miterlimit="10"/><path d="M365.34 234.82c0 2.399-3.598 2.399-3.598 0 0-2.402 3.598-2.402 3.598 0M354.043 169.324c0 2.399-3.602 2.399-3.602 0 0-2.398 3.602-2.398 3.602 0M129.855 324.46c0 2.4-3.597 2.4-3.597 0 0-2.401 3.597-2.401 3.597 0M88.16 216.691c0 2.403-3.601 2.403-3.601 0 0-2.398 3.601-2.398 3.601 0M363.395 250.148c0 2.399-3.602 2.399-3.602 0 0-2.402 3.602-2.402 3.602 0M136.785 119.23c0 2.399-3.601 2.399-3.601 0 0-2.402 3.601-2.402 3.601 0M167.66 350.668c0 2.398-3.601 2.398-3.601 0s3.601-2.398 3.601 0M214.844 86.625c0 2.402-3.602 2.402-3.602 0 0-2.398 3.602-2.398 3.602 0M281.387 97.29c0 2.397-3.602 2.397-3.602 0 0-2.403 3.602-2.403 3.602 0" fill="red" stroke-width=".75" stroke-linecap="round" stroke-linejoin="round" stroke="red" stroke-miterlimit="10"/><path d="M281.844 97.484c0 2.399-3.598 2.399-3.598 0 0-2.398 3.598-2.398 3.598 0M125.977 129.477c0 2.402-3.602 2.402-3.602 0 0-2.399 3.602-2.399 3.602 0M306.32 338.871c0 2.399-3.597 2.399-3.597 0 0-2.402 3.597-2.402 3.597 0M87.922 223.32c0 2.403-3.602 2.403-3.602 0 0-2.398 3.602-2.398 3.602 0M261.836 359.398c0 2.399-3.602 2.399-3.602 0 0-2.402 3.602-2.402 3.602 0M300.086 342.98c0 2.399-3.602 2.399-3.602 0 0-2.398 3.602-2.398 3.602 0M92.973 187.848c0 2.402-3.602 2.402-3.602 0 0-2.399 3.602-2.399 3.602 0M269.285 357.23c0 2.403-3.601 2.403-3.601 0 0-2.398 3.601-2.398 3.601 0" fill="red" stroke-width=".75" stroke-linecap="round" stroke-linejoin="round" stroke="red" stroke-miterlimit="10"/><path d="M124.402 131.168c0 2.398-3.601 2.398-3.601 0 0-2.402 3.601-2.402 3.601 0M235.262 363.633c0 2.398-3.602 2.398-3.602 0 0-2.403 3.602-2.403 3.602 0M98.727 171.266c0 2.402-3.602 2.402-3.602 0 0-2.399 3.602-2.399 3.602 0M341.29 303.629c0 2.402-3.603 2.402-3.603 0 0-2.399 3.602-2.399 3.602 0M168.031 99.156c0 2.403-3.601 2.403-3.601 0 0-2.398 3.601-2.398 3.601 0M347.414 156.133c0 2.402-3.601 2.402-3.601 0 0-2.399 3.601-2.399 3.601 0M282.988 352.016c0 2.398-3.597 2.398-3.597 0 0-2.403 3.597-2.403 3.597 0M338.375 307.707c0 2.402-3.598 2.402-3.598 0 0-2.398 3.598-2.398 3.598 0M362.621 254.023c0 2.399-3.598 2.399-3.598 0 0-2.402 3.598-2.402 3.598 0M250.68 194.996c0 2.402-3.602 2.402-3.602 0 0-2.398 3.602-2.398 3.602 0" fill="red" stroke-width=".75" stroke-linecap="round" stroke-linejoin="round" stroke="red" stroke-miterlimit="10"/><path d="M0 450h450V0H0v450" fill="none" stroke-width=".75" stroke-linecap="round" stroke-linejoin="round" stroke="#000" stroke-miterlimit="10"/><path d="M250.68 194.996c0 2.402-3.602 2.402-3.602 0 0-2.398 3.602-2.398 3.602 0" fill="#0f0" stroke-width=".75" stroke-linecap="round" stroke-linejoin="round" stroke="#0f0" stroke-miterlimit="10"/><path d="M414.941 234.672l-.101-3.227-.305-3.215-.504-3.187-.703-3.152-.902-3.102-1.094-3.035-1.281-2.965-1.465-2.875-1.645-2.777-1.816-2.672-1.977-2.55-2.136-2.423-2.282-2.281-2.421-2.137-2.551-1.976-2.672-1.817-2.777-1.644-2.875-1.465-2.965-1.281-3.035-1.094-3.102-.902-3.152-.704-3.188-.504-3.215-.304-3.226-.102-3.227.102-3.215.304-3.187.504-3.149.704-3.101.902-3.04 1.094-2.96 1.28-2.875 1.466-2.781 1.644-2.668 1.817-2.551 1.976-2.422 2.137-2.285 2.281-2.133 2.422-1.98 2.55-1.813 2.673-1.644 2.777-1.465 2.875-1.282 2.965-1.093 3.035-.903 3.102-.703 3.152-.508 3.187-.3 3.215-.102 3.227.102 3.226.3 3.215.508 3.188.703 3.148.903 3.102 1.093 3.039 1.282 2.96 1.465 2.876 1.644 2.781 1.813 2.668 1.98 2.55 2.133 2.423 2.285 2.285 2.422 2.133 2.55 1.98 2.669 1.813 2.78 1.644 2.876 1.465 2.96 1.281 3.04 1.094 3.101.902 3.149.703 3.187.508 3.215.301 3.227.102 3.226-.102 3.215-.3 3.188-.509 3.152-.703 3.102-.902 3.035-1.094 2.965-1.281 2.875-1.465 2.777-1.644 2.672-1.813 2.55-1.98 2.422-2.133 2.282-2.285 2.136-2.422 1.977-2.551 1.816-2.668 1.645-2.781 1.465-2.875 1.281-2.961 1.094-3.04.902-3.1.703-3.15.504-3.187.305-3.215zm0 0M165.191 141.781l-.101-3.226-.3-3.215-.509-3.192-.703-3.148-.898-3.102-1.094-3.035-1.285-2.965-1.465-2.875-1.645-2.777-1.812-2.672-1.98-2.55-2.133-2.422-2.286-2.282-2.417-2.136-2.551-1.977-2.672-1.816-2.778-1.645-2.878-1.465L132.723 94l-3.04-1.094-3.097-.902-3.152-.703-3.188-.504-3.215-.305-3.226-.101-3.227.101-3.215.305-3.187.504-3.153.703-3.097.902L94.886 94l-2.96 1.281-2.88 1.465-2.776 1.645-2.672 1.816-2.551 1.977-2.422 2.136-2.281 2.282-2.137 2.421-1.977 2.551-1.816 2.672-1.64 2.777-1.47 2.875-1.28 2.965-1.094 3.035L64.03 129l-.707 3.148-.504 3.192-.304 3.215-.102 3.226.102 3.227.304 3.21.504 3.192.707 3.149.899 3.101 1.093 3.035 1.282 2.965 1.468 2.875 1.641 2.781 1.816 2.668 1.977 2.551 2.137 2.422 2.281 2.285 2.422 2.133 2.55 1.98 2.673 1.813 2.777 1.644 2.879 1.465 2.96 1.282 3.04 1.093 3.097.903 3.153.703 3.187.504 3.215.304 3.227.102 3.226-.102 3.215-.304 3.188-.504 3.152-.703 3.098-.903 3.039-1.093 2.96-1.282 2.88-1.464 2.777-1.645 2.672-1.813 2.55-1.98 2.418-2.133 2.286-2.285 2.132-2.422 1.98-2.55 1.813-2.669 1.645-2.78 1.465-2.876 1.285-2.965 1.094-3.035.898-3.101.703-3.149.508-3.191.3-3.211zm0 0M380.168 132.695l-.102-3.226-.304-3.215-.504-3.188-.703-3.152-.903-3.098-1.093-3.039-1.282-2.96-1.464-2.88-1.645-2.777-1.816-2.672-1.977-2.55-2.137-2.422-2.281-2.282-2.422-2.136-2.55-1.977-2.673-1.816-2.777-1.64-2.875-1.47-2.965-1.28-3.035-1.095-3.101-.898-3.153-.707-3.187-.504-3.215-.305-3.227-.101-3.226.101-3.215.305-3.188.504-3.148.707-3.102.898-3.039 1.094-2.96 1.281-2.876 1.47-2.78 1.64-2.669 1.816-2.55 1.977-2.422 2.136-2.286 2.282-2.132 2.421-1.98 2.551-1.813 2.672-1.645 2.778-1.465 2.878-1.281 2.961-1.094 3.04-.902 3.097-.703 3.152-.508 3.188-.3 3.215-.102 3.226.101 3.227.301 3.215.508 3.187.703 3.153.902 3.097 1.094 3.04 1.281 2.96 1.465 2.88 1.645 2.776 1.812 2.672 1.98 2.551 2.133 2.422 2.286 2.281 2.421 2.137 2.551 1.977 2.668 1.816 2.781 1.64 2.875 1.465 2.961 1.286 3.04 1.093 3.101.899 3.148.707 3.188.504 3.215.304 3.226.102 3.227-.102 3.215-.304 3.187-.504 3.153-.707 3.101-.899 3.035-1.093 2.965-1.286 2.875-1.464 2.777-1.641 2.672-1.816 2.551-1.977 2.422-2.137 2.281-2.281 2.137-2.422 1.977-2.55 1.816-2.673 1.644-2.777 1.465-2.879 1.282-2.96 1.093-3.04.903-3.097.703-3.153.504-3.187.304-3.215zm0 0" fill="pink" fill-opacity=".4" stroke-width=".075" stroke-linecap="round" stroke-linejoin="round" stroke="red" stroke-opacity=".4" stroke-miterlimit="10"/><path d="M402.152 166.063l-.101-3.227-.305-3.215-.504-3.187-.703-3.153-.902-3.097-1.094-3.04-1.281-2.96-1.465-2.88-1.645-2.777-1.812-2.672-1.98-2.55-2.137-2.422-2.282-2.281-2.421-2.137-2.551-1.977-2.668-1.816-2.781-1.64-2.875-1.47-2.965-1.28-3.035-1.094-3.102-.899-3.148-.707-3.192-.504-3.21-.305-3.231-.101-3.227.101-3.21.305-3.192.504-3.149.707-3.101.898-3.035 1.094-2.965 1.281-2.875 1.47-2.781 1.64-2.668 1.816-2.551 1.977-2.422 2.137-2.281 2.28-2.137 2.423-1.98 2.55-1.813 2.672-1.645 2.778-1.464 2.879-1.282 2.96-1.093 3.04-.903 3.097-.703 3.153-.504 3.187-.304 3.215-.102 3.226.102 3.227.304 3.215.504 3.187.703 3.153.903 3.097 1.093 3.04 1.282 2.96 1.464 2.88 1.645 2.777 1.813 2.672 1.98 2.55 2.137 2.422 2.28 2.281 2.423 2.137 2.55 1.977 2.669 1.816 2.78 1.64 2.876 1.47 2.965 1.28 3.035 1.095 3.101.898 3.149.707 3.191.504 3.211.305 3.227.101 3.23-.101 3.211-.305 3.192-.504 3.148-.707 3.102-.899 3.035-1.093 2.965-1.281 2.875-1.47 2.78-1.64 2.669-1.816 2.55-1.977 2.422-2.137 2.282-2.28 2.136-2.423 1.98-2.55 1.813-2.672 1.645-2.778 1.465-2.879 1.281-2.96 1.094-3.04.902-3.097.703-3.153.504-3.187.305-3.215zm0 0M281.844 86.219l-.102-3.227-.305-3.215-.503-3.187-.707-3.153-.899-3.097-1.094-3.04-1.28-2.964-1.47-2.875-1.64-2.777-1.817-2.672-1.976-2.551-2.137-2.422-2.281-2.281-2.422-2.137-2.55-1.976-2.673-1.817-2.777-1.64-2.879-1.47-2.96-1.28-3.04-1.094-3.098-.899-3.152-.707-3.187-.504-3.215-.304-3.227-.102-3.226.102-3.215.304-3.188.504-3.152.707-3.098.899-3.039 1.093-2.96 1.282-2.88 1.468-2.777 1.641-2.672 1.817-2.55 1.976-2.423 2.137-2.28 2.281-2.134 2.422-1.98 2.55-1.816 2.673-1.641 2.777-1.465 2.875-1.285 2.965-1.094 3.039-.898 3.097-.703 3.153-.508 3.187-.305 3.215-.101 3.227.101 3.226.305 3.215.508 3.188.703 3.152.898 3.098 1.094 3.039 1.285 2.96 1.465 2.88 1.64 2.777 1.817 2.672 1.98 2.55 2.133 2.419 2.281 2.285 2.422 2.132 2.551 1.981 2.672 1.812 2.777 1.645 2.88 1.465 2.96 1.285 3.04 1.094 3.097.898 3.152.703 3.188.508 3.215.3 3.226.102 3.227-.101 3.215-.3 3.187-.509 3.152-.703 3.098-.898 3.04-1.094 2.96-1.285 2.879-1.465 2.777-1.645 2.672-1.812 2.55-1.98 2.423-2.133 2.281-2.285 2.137-2.418 1.976-2.551 1.817-2.672 1.64-2.777 1.47-2.88 1.28-2.96 1.094-3.04.899-3.097.707-3.152.503-3.188.305-3.215zm0 0M312.625 359.078l-.102-3.226-.304-3.215-.504-3.188-.703-3.152-.903-3.098-1.093-3.039-1.282-2.96-1.464-2.88-1.645-2.777-1.813-2.672-1.98-2.55-2.133-2.423-2.285-2.28-2.422-2.134-2.55-1.98-2.669-1.817-2.78-1.64-2.876-1.465-2.965-1.285-3.035-1.094-3.101-.898-3.149-.703-3.191-.508-3.211-.305-3.227-.098-3.226.098-3.215.305-3.188.508-3.152.703-3.102.898-3.035 1.094-2.965 1.285-2.875 1.465-2.777 1.64-2.672 1.817-2.55 1.98-2.422 2.133-2.282 2.281-2.136 2.422-1.977 2.551-1.816 2.672-1.645 2.777-1.465 2.88-1.281 2.96-1.094 3.04-.902 3.097-.703 3.152-.504 3.188-.305 3.215-.101 3.226.101 3.227.305 3.215.504 3.187.703 3.152.902 3.098 1.094 3.04 1.281 2.96 1.465 2.879 1.645 2.777 1.816 2.672 1.977 2.55 2.136 2.423 2.282 2.281 2.421 2.137 2.551 1.976 2.672 1.817 2.777 1.64 2.875 1.47 2.965 1.28 3.035 1.094 3.102.899 3.152.707 3.188.503 3.215.305 3.226.102 3.227-.102 3.21-.305 3.192-.503 3.149-.707 3.101-.899 3.035-1.094 2.965-1.28 2.875-1.47 2.781-1.64 2.668-1.817 2.551-1.976 2.422-2.137 2.285-2.281 2.133-2.422 1.98-2.55 1.813-2.673 1.645-2.777 1.464-2.879 1.282-2.96 1.093-3.04.903-3.098.703-3.152.504-3.187.304-3.215zm0 0" fill="pink" fill-opacity=".4" stroke-width=".075" stroke-linecap="round" stroke-linejoin="round" stroke="red" stroke-opacity=".4" stroke-miterlimit="10"/><path d="M201.922 107.762l-.102-3.227-.304-3.215-.504-3.187-.703-3.153-.903-3.097-1.094-3.04-1.28-2.96-1.466-2.88-1.644-2.776-1.813-2.672-1.98-2.551-2.133-2.422-2.285-2.281-2.422-2.137-2.55-1.977-2.669-1.816-2.78-1.64-2.876-1.47-2.96-1.28-3.04-1.094-3.101-.899-3.149-.707-3.191-.504-3.211-.304-3.227-.102-3.226.102-3.215.304-3.188.504-3.152.707-3.102.899-3.035 1.093-2.965 1.282-2.875 1.468L123 64.371l-2.672 1.817-2.55 1.976-2.423 2.137-2.28 2.281-2.138 2.422-1.976 2.55-1.816 2.673-1.645 2.777-1.465 2.879-1.281 2.96-1.094 3.04-.902 3.097-.703 3.153-.504 3.187-.305 3.215-.101 3.227.101 3.226.305 3.215.504 3.188.703 3.152.902 3.098 1.094 3.039 1.281 2.96 1.465 2.88 1.645 2.777 1.816 2.672 1.977 2.55 2.136 2.422 2.281 2.282 2.422 2.132 2.551 1.98 2.672 1.817 2.777 1.641 2.875 1.465 2.965 1.285 3.035 1.094 3.102.898 3.152.703 3.188.508 3.215.305 3.226.097 3.227-.097 3.21-.305 3.192-.508 3.149-.703 3.101-.898 3.04-1.094 2.96-1.285 2.875-1.465 2.781-1.64 2.668-1.817 2.551-1.98 2.422-2.133 2.285-2.282 2.133-2.421 1.98-2.551 1.813-2.672 1.644-2.777 1.465-2.88 1.281-2.96 1.094-3.04.903-3.097.703-3.152.504-3.188.304-3.215zm0 0M413.145 249.254l-.102-3.227-.305-3.214-.504-3.188-.707-3.148-.898-3.102-1.094-3.04-1.281-2.96-1.469-2.875-1.64-2.781-1.817-2.668-1.976-2.551-2.137-2.422-2.281-2.285-2.422-2.133-2.551-1.98-2.672-1.813-2.777-1.644-2.875-1.465-2.965-1.281-3.04-1.094-3.097-.903-3.152-.703-3.188-.507-3.215-.301-3.226-.102-3.227.102-3.214.3-3.188.508-3.148.703-3.102.903-3.04 1.094-2.96 1.28-2.879 1.466-2.777 1.644-2.668 1.813-2.551 1.98-2.422 2.133-2.285 2.285-2.133 2.422-1.98 2.55-1.813 2.669-1.644 2.781-1.465 2.875-1.285 2.96-1.094 3.04-.899 3.102-.703 3.148-.507 3.188-.301 3.214-.102 3.227.102 3.226.3 3.215.508 3.188.703 3.152.899 3.102 1.094 3.035 1.285 2.965 1.465 2.875 1.644 2.777 1.813 2.672 1.98 2.55 2.133 2.423 2.285 2.28 2.422 2.138 2.55 1.976 2.669 1.817 2.777 1.644 2.879 1.465 2.96 1.281 3.04 1.094 3.102.902 3.148.703 3.188.504 3.214.305 3.227.102 3.226-.102 3.215-.305 3.188-.504 3.152-.703 3.098-.902 3.039-1.094 2.965-1.281 2.875-1.465 2.777-1.644 2.672-1.817 2.55-1.976 2.423-2.137 2.28-2.281 2.138-2.422 1.976-2.551 1.817-2.672 1.64-2.777 1.469-2.875 1.281-2.965 1.094-3.035.898-3.102.707-3.152.504-3.188.305-3.215zm0 0M346.445 105.074l-.101-3.226-.305-3.215-.504-3.188-.703-3.152-.902-3.098-1.094-3.039-1.281-2.96-1.465-2.88-1.645-2.777-1.812-2.672-1.98-2.55-2.137-2.422-2.282-2.282-2.421-2.136-2.551-1.977-2.668-1.816-2.781-1.641-2.875-1.469-2.965-1.281-3.036-1.094-3.101-.898-3.149-.707-3.19-.504-3.212-.305-3.23-.101-3.227.101-3.21.305-3.192.504-3.149.707-3.101.898-3.035 1.094-2.965 1.281-2.875 1.469-2.781 1.64-2.668 1.817-2.551 1.977-2.422 2.136-2.285 2.282-2.133 2.421-1.98 2.551-1.813 2.672-1.645 2.777-1.464 2.88-1.282 2.96-1.093 3.04-.903 3.097-.703 3.152-.504 3.188-.304 3.215-.102 3.226.102 3.227.304 3.215.504 3.187.703 3.152.903 3.098 1.093 3.04 1.282 2.96 1.464 2.879 1.645 2.777 1.812 2.672 1.98 2.551 2.134 2.422 2.285 2.281 2.422 2.137 2.55 1.976 2.669 1.817 2.78 1.64 2.876 1.465 2.965 1.285 3.035 1.094 3.101.899 3.149.707 3.191.504 3.211.304 3.227.102 3.23-.102 3.211-.304 3.192-.504 3.148-.707 3.101-.899 3.036-1.094 2.964-1.285 2.875-1.465 2.782-1.64 2.668-1.817 2.55-1.976 2.422-2.137 2.282-2.281 2.136-2.422 1.98-2.55 1.813-2.673 1.645-2.777 1.465-2.879 1.28-2.96 1.095-3.04.902-3.098.703-3.152.504-3.187.305-3.215zm0 0" fill="pink" fill-opacity=".4" stroke-width=".075" stroke-linecap="round" stroke-linejoin="round" stroke="red" stroke-opacity=".4" stroke-miterlimit="10"/><path d="M142.059 189.703l-.102-3.226-.3-3.215-.509-3.188-.703-3.152-.898-3.098-1.094-3.039-1.285-2.96-1.465-2.88-1.644-2.777-1.813-2.672-1.98-2.55-2.133-2.423-2.285-2.28-2.422-2.138-2.551-1.976-2.668-1.816-2.777-1.641-2.88-1.469-2.96-1.281-3.04-1.094-3.1-.898-3.15-.707-3.187-.504-3.215-.305-3.226-.101-3.227.101-3.215.305-3.187.504-3.152.707-3.098.898-3.04 1.094-2.964 1.281-2.875 1.469-2.777 1.64-2.672 1.817-2.55 1.976-2.423 2.137-2.281 2.281-2.137 2.422-1.976 2.551-1.817 2.672-1.64 2.777-1.47 2.88-1.28 2.96-1.094 3.04-.899 3.097-.707 3.152-.504 3.188-.304 3.215-.102 3.226.102 3.227.304 3.215.504 3.187.707 3.152.899 3.098 1.094 3.04 1.28 2.96 1.47 2.879 1.64 2.777 1.817 2.672 1.976 2.55 2.137 2.419 2.281 2.285 2.422 2.133 2.55 1.98 2.673 1.813 2.777 1.644 2.875 1.465 2.965 1.285 3.039 1.094 3.098.899 3.152.703 3.187.507 3.215.301 3.227.102 3.226-.102 3.215-.3 3.188-.508 3.148-.703 3.102-.899 3.039-1.094 2.96-1.285 2.88-1.465 2.777-1.644 2.668-1.813 2.55-1.98 2.423-2.133 2.285-2.285 2.133-2.418 1.98-2.55 1.813-2.673 1.644-2.777 1.465-2.879 1.285-2.96 1.094-3.04.898-3.098.703-3.152.508-3.187.301-3.215zm0 0M341.957 102.563l-.102-3.227-.3-3.215-.508-3.187-.703-3.149-.903-3.101-1.09-3.04-1.285-2.96-1.464-2.88-1.645-2.777-1.812-2.668-1.98-2.55-2.134-2.422-2.285-2.285-2.422-2.133-2.55-1.98-2.669-1.813-2.777-1.645-2.879-1.465-2.96-1.285-3.04-1.093-3.101-.899-3.149-.703-3.187-.508-3.215-.3-3.227-.102-3.226.101-3.215.301-3.188.508-3.152.703-3.101.898-3.036 1.094-2.964 1.285-2.875 1.465-2.778 1.645-2.672 1.812-2.55 1.98-2.422 2.134-2.282 2.285-2.136 2.422-1.977 2.55-1.816 2.668-1.645 2.778-1.465 2.879-1.28 2.96-1.095 3.04-.898 3.101-.707 3.149-.504 3.187-.305 3.215-.101 3.227.101 3.226.305 3.215.504 3.187.707 3.153.898 3.097 1.094 3.04 1.281 2.964 1.465 2.875 1.645 2.778 1.816 2.672 1.977 2.55 2.136 2.422 2.282 2.281 2.422 2.137 2.55 1.977 2.672 1.816 2.777 1.64 2.875 1.47 2.965 1.28 3.036 1.095 3.101.898 3.152.707 3.188.504 3.215.305 3.226.101 3.227-.101 3.215-.305 3.187-.504 3.149-.707 3.101-.899 3.04-1.093 2.96-1.281 2.88-1.47 2.776-1.64 2.668-1.816 2.551-1.977 2.422-2.137 2.285-2.28 2.133-2.423 1.98-2.55 1.813-2.672 1.645-2.778 1.464-2.875 1.286-2.965 1.09-3.039.902-3.097.703-3.153.508-3.187.3-3.215zm0 0" fill="pink" fill-opacity=".4" stroke-width=".075" stroke-linecap="round" stroke-linejoin="round" stroke="red" stroke-opacity=".4" stroke-miterlimit="10"/><path d="M292.516 87.05l-.102-3.226-.3-3.215-.509-3.187-.703-3.152-.902-3.098-1.094-3.04-1.281-2.96-1.465-2.879-1.644-2.777-1.813-2.672-1.98-2.551-2.133-2.422-2.285-2.281-2.422-2.137-2.551-1.976-2.668-1.817-2.781-1.64-2.875-1.47-2.961-1.28-3.04-1.094-3.1-.899-3.15-.707-3.187-.504-3.215-.304-3.226-.102-3.227.102-3.214.304-3.188.504-3.152.707-3.102.899-3.035 1.094-2.965 1.28-2.875 1.47-2.777 1.64-2.672 1.817-2.55 1.976-2.423 2.137-2.281 2.281-2.137 2.422-1.976 2.55-1.817 2.673-1.644 2.777-1.465 2.879-1.281 2.96-1.094 3.04-.902 3.098-.704 3.152-.503 3.187-.305 3.215-.102 3.227.102 3.226.305 3.215.503 3.188.704 3.152.902 3.098 1.094 3.039 1.28 2.96 1.466 2.88 1.644 2.777 1.817 2.672 1.976 2.55 2.137 2.422 2.281 2.282 2.422 2.136 2.55 1.977 2.673 1.816 2.777 1.641 2.875 1.465 2.965 1.285 3.035 1.094 3.102.898 3.152.707 3.188.504 3.214.305 3.227.101 3.226-.101 3.215-.305 3.188-.504 3.148-.707 3.102-.898 3.039-1.094 2.96-1.285 2.876-1.465 2.781-1.64 2.668-1.817 2.55-1.977 2.423-2.136 2.285-2.282 2.133-2.421 1.98-2.551 1.813-2.672 1.644-2.777 1.465-2.88 1.281-2.96 1.094-3.04.902-3.097.703-3.152.508-3.188.301-3.215zm0 0M296.227 362.465l-.102-3.227-.3-3.215-.509-3.187-.703-3.152-.902-3.098-1.09-3.04-1.285-2.96-1.465-2.879-1.644-2.777-1.813-2.672-1.98-2.551-2.133-2.422-2.285-2.281-2.422-2.137-2.551-1.976-2.668-1.817-2.777-1.64-2.88-1.47-2.96-1.28-3.04-1.094-3.1-.899-3.15-.707-3.187-.504-3.215-.304-3.226-.102-3.227.102-3.215.304-3.187.504-3.152.707-3.098.899-3.04 1.094-2.964 1.28-2.875 1.47-2.777 1.64-2.672 1.817-2.551 1.976-2.422 2.137-2.281 2.281-2.137 2.422-1.976 2.55-1.817 2.673-1.64 2.777-1.47 2.879-1.28 2.96-1.094 3.04-.899 3.098-.707 3.152-.504 3.187-.304 3.215-.102 3.227.102 3.226.304 3.215.504 3.188.707 3.152.899 3.098 1.094 3.039 1.28 2.96 1.47 2.88 1.64 2.777 1.817 2.672 1.976 2.55 2.137 2.423 2.281 2.28 2.422 2.134 2.55 1.98 2.673 1.816 2.777 1.641 2.875 1.465 2.965 1.285 3.039 1.094 3.098.898 3.152.703 3.187.508 3.215.305 3.227.101 3.226-.101 3.215-.305 3.188-.508 3.148-.703 3.102-.898 3.039-1.094 2.96-1.285 2.88-1.465 2.777-1.64 2.668-1.817 2.55-1.98 2.423-2.133 2.285-2.281 2.133-2.422 1.98-2.551 1.813-2.672 1.644-2.777 1.465-2.88 1.285-2.96 1.09-3.04.902-3.097.703-3.152.508-3.188.301-3.215zm0 0M390.617 145.996l-.101-3.226-.301-3.215-.508-3.188-.703-3.152-.899-3.098-1.093-3.039-1.285-2.96-1.465-2.88-1.645-2.777-1.812-2.672-1.98-2.55-2.134-2.423-2.285-2.28-2.418-2.138-2.55-1.976-2.672-1.817-2.778-1.64-2.879-1.469-2.96-1.281-3.04-1.094-3.097-.898-3.153-.707-3.187-.504-3.215-.305-3.227-.102-3.226.102-3.215.305-3.187.504-3.153.707-3.097.898-3.04 1.094-2.96 1.281-2.88 1.469-2.777 1.64-2.672 1.817-2.55 1.976-2.422 2.137-2.281 2.281-2.137 2.422-1.977 2.551-1.816 2.672-1.64 2.777-1.47 2.88-1.28 2.96-1.095 3.04-.898 3.097-.707 3.152-.504 3.188-.305 3.215-.101 3.226.101 3.227.305 3.214.504 3.188.707 3.152.898 3.098 1.094 3.04 1.281 2.96 1.47 2.879 1.64 2.777 1.816 2.672 1.977 2.55 2.137 2.423 2.28 2.281 2.423 2.137 2.55 1.976 2.672 1.817 2.778 1.64 2.879 1.465 2.96 1.285 3.04 1.094 3.097.899 3.153.707 3.187.503 3.215.305 3.226.102 3.227-.102 3.215-.305 3.187-.503 3.153-.707 3.097-.899 3.04-1.094 2.96-1.285 2.88-1.465 2.777-1.64 2.671-1.817 2.551-1.976 2.418-2.137 2.285-2.281 2.133-2.422 1.98-2.55 1.813-2.673 1.645-2.777 1.465-2.879 1.285-2.96 1.093-3.04.899-3.098.703-3.152.508-3.188.3-3.214zm0 0M143.398 184.953l-.101-3.226-.305-3.215-.504-3.188-.703-3.152-.902-3.098-1.094-3.039-1.281-2.965-1.465-2.875-1.645-2.777-1.812-2.672-1.98-2.55-2.133-2.423-2.286-2.28-2.421-2.138-2.551-1.976-2.668-1.816-2.781-1.645-2.875-1.465-2.965-1.281-3.035-1.094-3.102-.898-3.148-.707-3.192-.504-3.21-.305-3.227-.101-3.227.101-3.215.305-3.191.504-3.149.707-3.101.898-3.035 1.094-2.965 1.281-2.875 1.465-2.781 1.644-2.668 1.817-2.551 1.976-2.422 2.137-2.281 2.281-2.137 2.422-1.977 2.551-1.816 2.672-1.644 2.777-1.465 2.875-1.282 2.965-1.093 3.04-.903 3.097-.703 3.152-.504 3.188-.304 3.215-.102 3.226.102 3.227.304 3.215.504 3.187.703 3.148.903 3.102 1.093 3.04 1.282 2.96 1.465 2.879 1.644 2.777 1.816 2.668 1.977 2.551 2.137 2.422 2.281 2.285 2.422 2.133 2.55 1.98 2.669 1.813 2.78 1.644 2.876 1.465 2.965 1.285 3.035 1.09 3.101.903 3.149.703 3.191.507 3.215.301 3.227.102 3.226-.102 3.211-.3 3.192-.508 3.148-.703 3.102-.903 3.035-1.09 2.965-1.285 2.875-1.465 2.78-1.644 2.669-1.813 2.55-1.98 2.422-2.133 2.286-2.285 2.132-2.422 1.98-2.55 1.813-2.669 1.645-2.777 1.465-2.879 1.281-2.96 1.094-3.04.902-3.102.703-3.148.504-3.187.305-3.215zm0 0" fill="pink" fill-opacity=".4" stroke-width=".075" stroke-linecap="round" stroke-linejoin="round" stroke="red" stroke-opacity=".4" stroke-miterlimit="10"/><path d="M396.07 154.523l-.101-3.226-.305-3.211-.504-3.191-.707-3.149-.898-3.101-1.094-3.04-1.281-2.96-1.47-2.875-1.64-2.782-1.816-2.668-1.977-2.55-2.136-2.422-2.282-2.285-2.421-2.133-2.551-1.98-2.672-1.813-2.777-1.645-2.875-1.465-2.965-1.28-3.04-1.095-3.097-.902-3.152-.703-3.188-.504-3.215-.305-3.226-.101-3.227.101-3.215.305-3.187.504-3.153.703-3.097.902-3.04 1.094-2.96 1.281-2.88 1.465-2.776 1.645-2.668 1.812-2.555 1.98-2.418 2.133-2.285 2.286-2.133 2.422-1.98 2.55-1.813 2.668-1.645 2.782-1.464 2.875-1.286 2.96-1.093 3.04-.899 3.101-.703 3.149-.508 3.19-.3 3.212-.102 3.226.102 3.227.3 3.215.508 3.187.703 3.153.899 3.101 1.093 3.035 1.286 2.965 1.464 2.875 1.645 2.778 1.812 2.671 1.98 2.551 2.134 2.422 2.285 2.281 2.418 2.137 2.555 1.977 2.668 1.816 2.777 1.645 2.879 1.464 2.96 1.282 3.04 1.093 3.097.903 3.153.703 3.187.504 3.215.304 3.227.102 3.226-.101 3.215-.305 3.188-.504 3.152-.703 3.098-.903 3.039-1.093 2.964-1.282 2.875-1.464 2.778-1.645 2.672-1.816 2.55-1.977 2.422-2.137 2.282-2.28 2.136-2.423 1.977-2.55 1.816-2.672 1.64-2.778 1.47-2.875 1.28-2.965 1.095-3.035.898-3.101.707-3.153.504-3.187.305-3.215zm0 0M147.469 276.668l-.102-3.227-.304-3.214-.504-3.188-.704-3.152-.902-3.098-1.094-3.039-1.28-2.96-1.466-2.88-1.644-2.777-1.817-2.672-1.976-2.55-2.137-2.423-2.281-2.281-2.422-2.133-2.55-1.98-2.673-1.817-2.777-1.64-2.875-1.465-2.965-1.285-3.035-1.094-3.102-.898-3.152-.704-3.187-.507-3.215-.305-3.227-.098-3.226.098-3.211.305-3.192.507-3.148.704-3.102.898-3.039 1.094-2.96 1.285-2.876 1.465-2.781 1.64-2.668 1.817-2.55 1.98-2.423 2.133-2.285 2.281-2.133 2.422-1.98 2.55-1.813 2.673-1.644 2.777-1.465 2.88-1.281 2.96-1.094 3.04-.902 3.097-.703 3.152-.504 3.188-.305 3.214-.102 3.227.102 3.227.305 3.214.504 3.188.703 3.152.902 3.098 1.094 3.039 1.281 2.96 1.465 2.88 1.644 2.777 1.813 2.672 1.98 2.55 2.133 2.423 2.285 2.28 2.422 2.138 2.551 1.976 2.668 1.817 2.781 1.64 2.875 1.469 2.961 1.281 3.04 1.094 3.1.898 3.15.707 3.19.504 3.212.305 3.226.102 3.227-.102 3.215-.305 3.187-.504 3.152-.707 3.102-.898 3.035-1.094 2.965-1.281 2.875-1.469 2.777-1.64 2.672-1.817 2.55-1.976 2.423-2.137 2.281-2.281 2.137-2.422 1.976-2.551 1.817-2.672 1.644-2.777 1.465-2.88 1.281-2.96 1.094-3.04.902-3.097.704-3.152.504-3.188.304-3.214zm0 0" fill="pink" fill-opacity=".4" stroke-width=".075" stroke-linecap="round" stroke-linejoin="round" stroke="red" stroke-opacity=".4" stroke-miterlimit="10"/><path d="M415.07 217.406l-.101-3.226-.305-3.211-.504-3.192-.703-3.148-.902-3.102-1.094-3.039-1.281-2.96-1.465-2.876-1.645-2.78-1.816-2.669-1.977-2.55-2.136-2.423-2.282-2.285-2.421-2.132-2.551-1.981-2.672-1.812-2.777-1.645-2.875-1.465-2.965-1.281-3.036-1.094-3.101-.902-3.152-.703-3.188-.504-3.215-.305-3.226-.101-3.227.101-3.21.305-3.192.504-3.149.703-3.101.902-3.035 1.094-2.965 1.281-2.875 1.465-2.781 1.645-2.668 1.812-2.551 1.98-2.422 2.133-2.285 2.285-2.133 2.422-1.98 2.551-1.813 2.668-1.645 2.781-1.464 2.875-1.282 2.961-1.093 3.04-.903 3.1-.703 3.15-.504 3.19-.304 3.212-.102 3.226.102 3.227.304 3.215.504 3.187.703 3.153.903 3.101 1.093 3.035 1.282 2.965 1.464 2.875 1.645 2.777 1.812 2.672 1.98 2.551 2.134 2.422 2.285 2.281 2.422 2.137 2.55 1.976 2.669 1.817 2.78 1.644 2.876 1.465 2.965 1.281 3.035 1.094 3.101.903 3.149.703 3.191.504 3.211.304 3.227.102 3.226-.102 3.215-.304 3.188-.504 3.152-.703 3.101-.903 3.036-1.094 2.964-1.28 2.875-1.466 2.778-1.644 2.672-1.817 2.55-1.976 2.422-2.137 2.282-2.281 2.136-2.422 1.977-2.55 1.816-2.673 1.645-2.777 1.465-2.875 1.28-2.965 1.095-3.035.902-3.101.703-3.153.504-3.187.305-3.215zm0 0" fill="pink" fill-opacity=".4" stroke-width=".075" stroke-linecap="round" stroke-linejoin="round" stroke="red" stroke-opacity=".4" stroke-miterlimit="10"/><path d="M414.719 237.43l-.102-3.227-.3-3.215-.508-3.187-.704-3.153-.898-3.097-1.094-3.04-1.285-2.96-1.465-2.88-1.644-2.776-1.813-2.672-1.98-2.551-2.133-2.418-2.285-2.285-2.418-2.133-2.55-1.98-2.673-1.817-2.777-1.64-2.88-1.465-2.96-1.286-3.04-1.093-3.097-.899-3.152-.703-3.188-.508-3.214-.3-3.227-.102-3.227.102-3.214.3-3.188.508-3.152.703-3.098.899-3.039 1.093-2.96 1.286-2.88 1.464-2.777 1.641-2.672 1.816-2.55 1.98-2.423 2.134-2.28 2.285-2.138 2.418-1.976 2.55-1.817 2.673-1.64 2.777-1.469 2.879-1.281 2.96-1.094 3.04-.898 3.097-.707 3.153-.504 3.187-.305 3.215-.102 3.227.102 3.226.305 3.215.504 3.188.707 3.152.898 3.098 1.094 3.039 1.281 2.96 1.469 2.88 1.64 2.777 1.817 2.672 1.976 2.55 2.137 2.422 2.281 2.282 2.422 2.136 2.551 1.977 2.672 1.816 2.777 1.64 2.88 1.47 2.96 1.28 3.04 1.095 3.097.898 3.152.707 3.188.504 3.214.305 3.227.101 3.227-.101 3.214-.305 3.188-.504 3.152-.707 3.098-.898 3.039-1.094 2.96-1.281 2.88-1.47 2.777-1.64 2.672-1.816 2.55-1.977 2.419-2.136 2.285-2.282 2.133-2.421 1.98-2.551 1.813-2.672 1.644-2.777 1.465-2.88 1.285-2.96 1.094-3.04.898-3.097.704-3.152.507-3.188.301-3.215zm0 0M219.965 98.09l-.102-3.227-.304-3.215-.508-3.187-.703-3.152-.899-3.098-1.094-3.04-1.285-2.96-1.465-2.879-1.64-2.777-1.817-2.672-1.98-2.551-2.133-2.422-2.281-2.281-2.422-2.137-2.55-1.976-2.673-1.817-2.777-1.64-2.879-1.47-2.96-1.28-3.04-1.094-3.098-.899-3.152-.707-3.187-.504-3.215-.304-3.227-.102-3.226.102-3.215.304-3.188.504-3.152.707-3.098.899-3.039 1.094-2.96 1.28-2.88 1.47-2.777 1.64-2.672 1.817-2.55 1.976-2.422 2.137-2.282 2.281-2.136 2.422-1.977 2.55-1.816 2.673-1.641 2.777-1.469 2.879-1.281 2.96-1.094 3.04-.898 3.098-.707 3.152-.504 3.187-.305 3.215-.101 3.227.101 3.226.305 3.215.504 3.188.707 3.152.898 3.098 1.094 3.039 1.281 2.96 1.469 2.88 1.64 2.777 1.817 2.672 1.977 2.55 2.136 2.423 2.282 2.28 2.421 2.134 2.551 1.98 2.672 1.816 2.777 1.641 2.88 1.465 2.96 1.285 3.04 1.094 3.097.898 3.152.703 3.188.508 3.215.305 3.226.101 3.227-.101 3.215-.305 3.187-.508 3.152-.703 3.098-.898 3.04-1.094 2.96-1.285 2.879-1.465 2.777-1.64 2.672-1.817 2.551-1.98 2.422-2.133 2.281-2.281 2.133-2.422 1.98-2.551 1.817-2.672 1.64-2.777 1.465-2.88 1.285-2.96 1.094-3.04.899-3.097.703-3.152.508-3.188.304-3.215zm0 0M187.488 331.707l-.101-3.227-.305-3.21-.504-3.192-.703-3.148-.902-3.102-1.094-3.035-1.281-2.965-1.465-2.875-1.645-2.781-1.816-2.668-1.977-2.55-2.136-2.423-2.282-2.285-2.422-2.133-2.55-1.98-2.672-1.813-2.778-1.644-2.875-1.465-2.964-1.281-3.036-1.094-3.101-.902-3.152-.704-3.188-.503-3.215-.305-3.226-.102-3.227.102-3.215.305-3.187.503-3.149.704-3.101.902-3.04 1.094-2.96 1.28-2.875 1.466-2.781 1.644-2.668 1.813-2.551 1.98-2.422 2.133-2.285 2.285-2.133 2.422-1.98 2.55-1.813 2.669-1.645 2.781-1.464 2.875-1.282 2.965-1.093 3.035-.903 3.102-.703 3.148-.508 3.192-.3 3.21-.102 3.227.102 3.227.3 3.214.508 3.188.703 3.152.903 3.102 1.093 3.035 1.282 2.965 1.464 2.875 1.645 2.777 1.812 2.672 1.98 2.55 2.134 2.423 2.285 2.281 2.422 2.137 2.55 1.976 2.668 1.817 2.782 1.644 2.875 1.465 2.96 1.281 3.04 1.094 3.101.902 3.149.704 3.187.503 3.215.305 3.227.102 3.226-.102 3.215-.305 3.188-.503 3.152-.704 3.101-.902 3.036-1.094 2.964-1.281 2.875-1.465 2.778-1.644 2.672-1.817 2.55-1.976 2.422-2.137 2.282-2.281 2.136-2.422 1.977-2.55 1.816-2.673 1.645-2.777 1.465-2.875 1.28-2.965 1.095-3.035.902-3.102.703-3.152.504-3.188.305-3.214zm0 0" fill="pink" fill-opacity=".4" stroke-width=".075" stroke-linecap="round" stroke-linejoin="round" stroke="red" stroke-opacity=".4" stroke-miterlimit="10"/><path d="M237.453 91.68l-.101-3.227-.305-3.215-.504-3.187-.703-3.149-.903-3.101-1.093-3.04-1.281-2.96-1.465-2.88-1.645-2.776-1.812-2.668-1.98-2.551-2.138-2.422-2.28-2.285-2.423-2.133-2.55-1.98-2.668-1.813-2.782-1.645-2.875-1.464-2.965-1.286-3.035-1.093-3.101-.899-3.149-.703-3.191-.508-3.215-.3-3.226-.102-3.227.102-3.211.3-3.191.508-3.149.703-3.101.899-3.036 1.093-2.964 1.286-2.875 1.464-2.782 1.645-2.668 1.812-2.55 1.98-2.422 2.134-2.285 2.285-2.133 2.422-1.98 2.55-1.813 2.669-1.645 2.777-1.465 2.879-1.28 2.96-1.095 3.04-.902 3.101-.703 3.149-.504 3.187-.305 3.215-.101 3.227.101 3.226.305 3.215.504 3.188.703 3.152.902 3.098 1.094 3.039 1.281 2.965 1.465 2.874 1.645 2.778 1.812 2.672 1.98 2.55 2.134 2.422 2.285 2.282 2.422 2.136 2.55 1.977 2.668 1.816 2.782 1.64 2.875 1.47 2.964 1.28 3.036 1.095 3.101.898 3.149.707 3.191.504 3.21.305 3.227.101 3.227-.101 3.215-.305 3.191-.504 3.149-.707 3.101-.898 3.035-1.094 2.965-1.281 2.875-1.47 2.782-1.64 2.668-1.816 2.55-1.977 2.422-2.136 2.281-2.282 2.137-2.421 1.98-2.551 1.813-2.672 1.645-2.778 1.464-2.874 1.282-2.965 1.094-3.04.902-3.097.703-3.152.504-3.188.305-3.215zm0 0M415.246 227.875l-.098-3.227-.304-3.21-.508-3.192-.703-3.148-.899-3.102-1.093-3.039-1.286-2.96-1.464-2.876-1.641-2.781-1.816-2.668-1.98-2.55-2.134-2.423-2.28-2.285-2.423-2.133-2.55-1.98-2.672-1.813-2.778-1.644-2.879-1.465-2.96-1.281-3.04-1.094-3.097-.902-3.153-.704-3.187-.503-3.215-.305-3.227-.102-3.226.102-3.215.305-3.188.503-3.152.704-3.098.902-3.039 1.094-2.96 1.28-2.88 1.466-2.777 1.644-2.672 1.813-2.55 1.98-2.422 2.133-2.282 2.285-2.136 2.422-1.977 2.55-1.816 2.669-1.64 2.781-1.47 2.875-1.28 2.961-1.095 3.04-.898 3.1-.707 3.15-.504 3.19-.305 3.211-.101 3.227.101 3.227.305 3.214.504 3.188.707 3.152.898 3.102 1.094 3.035 1.281 2.965 1.47 2.875 1.64 2.777 1.816 2.672 1.977 2.55 2.136 2.423 2.282 2.28 2.422 2.138 2.55 1.976 2.672 1.817 2.778 1.644 2.878 1.465 2.961 1.281 3.04 1.094 3.097.902 3.152.703 3.188.504 3.215.305 3.226.102 3.227-.102 3.215-.305 3.187-.504 3.153-.703 3.097-.902 3.04-1.094 2.96-1.281 2.88-1.465 2.777-1.644 2.671-1.817 2.551-1.976 2.422-2.137 2.281-2.281 2.133-2.422 1.98-2.551 1.817-2.672 1.64-2.777 1.465-2.875 1.286-2.965 1.093-3.035.899-3.102.703-3.152.508-3.188.304-3.214zm0 0" fill="pink" fill-opacity=".4" stroke-width=".075" stroke-linecap="round" stroke-linejoin="round" stroke="red" stroke-opacity=".4" stroke-miterlimit="10"/><path d="M391.762 302.328l-.102-3.226-.305-3.215-.507-3.188-.703-3.152-.899-3.098-1.094-3.039-1.285-2.96-1.465-2.88-1.64-2.777-1.817-2.672-1.98-2.55-2.133-2.423-2.281-2.28-2.422-2.134-2.55-1.98-2.673-1.817-2.777-1.64-2.879-1.465-2.96-1.285-3.04-1.094-3.098-.898-3.152-.703-3.188-.508-3.214-.305-3.227-.098-3.226.098-3.215.305-3.188.508-3.152.703-3.098.898-3.039 1.094-2.96 1.285-2.88 1.465-2.777 1.64-2.672 1.817-2.55 1.98-2.423 2.133-2.28 2.281-2.138 2.422-1.976 2.551-1.817 2.672-1.64 2.777-1.469 2.88-1.281 2.96-1.094 3.04-.898 3.097-.707 3.152-.504 3.188-.305 3.215-.102 3.226.102 3.227.305 3.215.504 3.187.707 3.152.898 3.098 1.094 3.04 1.281 2.96 1.469 2.879 1.64 2.777 1.817 2.672 1.976 2.55 2.137 2.423 2.281 2.281 2.422 2.137 2.551 1.976 2.672 1.817 2.777 1.64 2.88 1.47 2.96 1.28 3.04 1.094 3.097.899 3.152.707 3.188.503 3.215.305 3.226.102 3.227-.102 3.214-.305 3.188-.503 3.152-.707 3.098-.899 3.04-1.094 2.96-1.28 2.879-1.47 2.777-1.64 2.672-1.817 2.55-1.976 2.423-2.137 2.281-2.281 2.133-2.422 1.98-2.55 1.817-2.673 1.64-2.777 1.465-2.879 1.285-2.96 1.094-3.04.899-3.098.703-3.152.507-3.187.305-3.215zm0 0" fill="pink" fill-opacity=".4" stroke-width=".075" stroke-linecap="round" stroke-linejoin="round" stroke="red" stroke-opacity=".4" stroke-miterlimit="10"/><path d="M414.93 234.82l-.102-3.226-.305-3.215-.503-3.191-.704-3.149-.902-3.101-1.094-3.036-1.28-2.964-1.466-2.875-1.644-2.778-1.813-2.672-1.98-2.55-2.133-2.422-2.285-2.282-2.422-2.136-2.55-1.977-2.669-1.816-2.781-1.645-2.875-1.465-2.965-1.28-3.035-1.095-3.102-.902-3.148-.703-3.192-.504-3.21-.305-3.227-.101-3.227.101-3.214.305-3.192.504-3.148.703-3.102.902-3.035 1.094-2.965 1.281-2.875 1.465-2.781 1.645-2.668 1.816-2.55 1.977-2.423 2.136-2.281 2.282-2.137 2.422-1.976 2.55-1.817 2.672-1.644 2.778-1.465 2.875-1.281 2.964-1.094 3.036-.902 3.101-.704 3.149-.503 3.19-.305 3.216-.102 3.226.102 3.227.305 3.21.503 3.192.704 3.149.902 3.101 1.094 3.035 1.281 2.965 1.465 2.875 1.644 2.781 1.817 2.668 1.976 2.551 2.137 2.422 2.281 2.285 2.422 2.133 2.55 1.98 2.669 1.813 2.781 1.645 2.875 1.464 2.965 1.282 3.035 1.093 3.102.903 3.148.703 3.192.504 3.214.304 3.227.102 3.227-.102 3.21-.304 3.192-.504 3.148-.703 3.102-.903 3.035-1.093 2.965-1.282 2.875-1.464 2.781-1.645 2.668-1.812 2.55-1.98 2.423-2.134 2.285-2.285 2.133-2.422 1.98-2.55 1.813-2.669 1.644-2.78 1.465-2.876 1.281-2.965 1.094-3.035.902-3.101.704-3.149.503-3.191.305-3.211zm0 0" fill="pink" fill-opacity=".4" stroke-width=".075" stroke-linecap="round" stroke-linejoin="round" stroke="red" stroke-opacity=".4" stroke-miterlimit="10"/><path d="M403.629 169.324l-.102-3.226-.3-3.215-.508-3.188-.703-3.152-.903-3.098-1.093-3.039-1.282-2.96-1.465-2.88-1.644-2.777-1.813-2.672-1.98-2.55-2.133-2.422-2.285-2.282-2.422-2.136-2.55-1.977-2.669-1.816-2.78-1.641-2.876-1.469-2.96-1.281-3.04-1.094-3.101-.898-3.149-.707-3.187-.504-3.215-.305-3.227-.101-3.226.101-3.215.305-3.188.504-3.152.707-3.102.898-3.035 1.094-2.965 1.281-2.875 1.469-2.777 1.64-2.672 1.817-2.55 1.977-2.423 2.136-2.28 2.282-2.137 2.421-1.977 2.551-1.816 2.672-1.645 2.777-1.465 2.88-1.281 2.96-1.094 3.04-.902 3.097-.703 3.152-.504 3.188-.305 3.215-.101 3.226.101 3.227.305 3.215.504 3.187.703 3.152.902 3.098 1.094 3.04 1.281 2.96 1.465 2.879 1.645 2.777 1.816 2.672 1.977 2.551 2.136 2.422 2.281 2.281 2.422 2.133 2.551 1.98 2.672 1.817 2.777 1.64 2.875 1.465 2.965 1.285 3.035 1.094 3.102.899 3.152.703 3.188.508 3.215.304 3.226.098 3.227-.098 3.215-.304 3.187-.508 3.149-.703 3.101-.899 3.04-1.094 2.96-1.285 2.875-1.465 2.781-1.64 2.668-1.817 2.551-1.98 2.422-2.133 2.285-2.281 2.133-2.422 1.98-2.55 1.813-2.673 1.644-2.777 1.465-2.879 1.282-2.96 1.093-3.04.903-3.098.703-3.152.508-3.187.3-3.215zm0 0M179.445 324.46l-.101-3.226-.305-3.214-.504-3.192-.703-3.148-.902-3.102-1.094-3.035-1.281-2.965-1.465-2.875-1.645-2.781-1.812-2.668-1.98-2.55-2.133-2.423-2.286-2.281-2.422-2.137-2.55-1.98-2.668-1.813-2.781-1.644-2.875-1.465-2.965-1.281-3.036-1.094-3.101-.902-3.149-.704-3.19-.503-3.212-.305-3.226-.102-3.23.102-3.212.305-3.191.503-3.149.704-3.101.902-3.035 1.094-2.965 1.28-2.875 1.466-2.781 1.644-2.668 1.813-2.551 1.98L92.879 287l-2.281 2.281-2.137 2.422-1.98 2.55-1.813 2.669-1.645 2.781-1.464 2.875-1.282 2.965-1.093 3.035-.903 3.102-.703 3.148-.504 3.192-.304 3.214-.102 3.227.102 3.226.304 3.211.504 3.192.703 3.148.903 3.102 1.093 3.035 1.282 2.965 1.464 2.875 1.645 2.781 1.812 2.668 1.98 2.55 2.138 2.423 2.28 2.285 2.423 2.133 2.55 1.98 2.669 1.813 2.78 1.644 2.876 1.465 2.965 1.281 3.035 1.094 3.101.902 3.149.704 3.191.503 3.211.305 3.23.102 3.227-.102 3.211-.305 3.191-.503 3.149-.704 3.101-.902 3.036-1.094 2.964-1.281 2.875-1.465 2.782-1.644 2.668-1.813 2.55-1.98 2.422-2.133 2.286-2.285 2.132-2.422 1.98-2.55 1.813-2.669 1.645-2.781 1.465-2.875 1.28-2.965 1.095-3.035.902-3.102.703-3.148.504-3.192.305-3.21zm0 0M137.75 216.691l-.102-3.226-.304-3.211-.504-3.191-.707-3.149-.899-3.101-1.093-3.04-1.282-2.96-1.468-2.875-1.641-2.782-1.816-2.668-1.977-2.55-2.137-2.422-2.28-2.286-2.423-2.132-2.55-1.98-2.672-1.813-2.778-1.645-2.879-1.465-2.96-1.28-3.04-1.095-3.097-.902-3.153-.703-3.187-.504-3.215-.305-3.227-.101-3.226.101-3.215.305-3.188.504-3.152.703-3.098.902-3.039 1.094-2.96 1.281-2.88 1.465-2.777 1.645-2.672 1.812-2.55 1.98-2.418 2.133-2.286 2.286-2.132 2.422-1.98 2.55-1.817 2.668-1.64 2.781-1.466 2.875-1.285 2.961-1.094 3.04-.898 3.101-.703 3.149-.508 3.19-.3 3.212-.102 3.226.101 3.227.301 3.215.508 3.187.703 3.153.898 3.101 1.094 3.035 1.285 2.965 1.465 2.875 1.64 2.778 1.817 2.671 1.98 2.551 2.133 2.422 2.286 2.281 2.418 2.137 2.55 1.977 2.672 1.816 2.778 1.645 2.878 1.464 2.961 1.282 3.04 1.093 3.097.903 3.152.703 3.188.504 3.215.304 3.226.102 3.227-.102 3.215-.304 3.187-.504 3.153-.703 3.097-.903 3.04-1.093 2.96-1.282 2.88-1.464 2.777-1.645 2.671-1.816 2.551-1.977 2.422-2.137 2.281-2.28 2.137-2.423 1.977-2.55 1.816-2.672 1.64-2.778 1.47-2.875 1.28-2.965 1.094-3.035.899-3.101.707-3.153.504-3.187.304-3.215zm0 0" fill="pink" fill-opacity=".4" stroke-width=".075" stroke-linecap="round" stroke-linejoin="round" stroke="red" stroke-opacity=".4" stroke-miterlimit="10"/><path d="M412.98 250.148l-.097-3.23-.305-3.211-.508-3.191-.703-3.149-.898-3.101-1.094-3.036-1.285-2.964-1.465-2.875-1.64-2.782-1.817-2.668-1.98-2.55-2.133-2.422-2.282-2.281-2.421-2.137-2.551-1.98-2.672-1.813-2.777-1.645-2.88-1.465-2.96-1.28-3.04-1.095-3.097-.902-3.152-.703-3.188-.504-3.215-.305-3.226-.101-3.227.101-3.215.305-3.187.504-3.152.703-3.098.902-3.04 1.094-2.96 1.281-2.88 1.465-2.776 1.645-2.672 1.812-2.551 1.98-2.422 2.137-2.281 2.282-2.137 2.422-1.976 2.55-1.817 2.668-1.64 2.782-1.47 2.875-1.28 2.964-1.094 3.036-.899 3.101-.707 3.149-.504 3.191-.304 3.211-.102 3.23.102 3.227.304 3.21.504 3.192.707 3.149.899 3.101 1.094 3.036 1.28 2.964 1.47 2.875 1.64 2.782 1.817 2.668 1.976 2.55 2.137 2.422 2.281 2.281 2.422 2.137 2.55 1.98 2.673 1.813 2.777 1.645 2.879 1.465 2.96 1.28 3.04 1.095 3.098.902 3.152.703 3.187.504 3.215.305 3.227.101 3.226-.101 3.215-.305 3.188-.504 3.152-.703 3.098-.902 3.039-1.094 2.96-1.281 2.88-1.465 2.777-1.645 2.672-1.812 2.55-1.98 2.422-2.138 2.282-2.28 2.132-2.423 1.981-2.55 1.816-2.668 1.641-2.782 1.465-2.875 1.285-2.964 1.094-3.036.898-3.101.703-3.149.508-3.191.305-3.211zm0 0M186.375 119.23l-.102-3.226-.304-3.215-.504-3.187-.707-3.153-.899-3.097-1.093-3.04-1.286-2.96-1.464-2.88-1.641-2.777-1.816-2.672-1.977-2.55-2.137-2.422-2.28-2.281-2.423-2.137-2.55-1.977-2.672-1.816-2.778-1.64-2.879-1.47-2.96-1.28-3.04-1.095-3.097-.898-3.153-.707-3.187-.504-3.215-.305-3.227-.101-3.226.101-3.215.305-3.188.504-3.152.707-3.098.898-3.039 1.094-2.96 1.281-2.88 1.47-2.777 1.64-2.672 1.816-2.55 1.977-2.422 2.137-2.282 2.28-2.136 2.423-1.977 2.55-1.816 2.672-1.64 2.778-1.47 2.879-1.28 2.96-1.095 3.04-.898 3.097-.707 3.153-.504 3.187-.305 3.215-.101 3.226.101 3.227.305 3.215.504 3.187.707 3.153.898 3.097 1.094 3.04 1.281 2.96 1.47 2.88 1.64 2.777 1.816 2.672 1.977 2.55 2.136 2.418 2.282 2.285 2.422 2.133 2.55 1.98 2.672 1.813 2.778 1.645 2.878 1.465 2.961 1.285 3.04 1.093 3.097.899 3.152.703 3.188.508 3.215.3 3.226.102 3.227-.101 3.215-.301 3.187-.508 3.153-.703 3.097-.899 3.04-1.093 2.96-1.285 2.88-1.465 2.777-1.645 2.671-1.812 2.551-1.98 2.422-2.134 2.281-2.285 2.137-2.418 1.977-2.55 1.816-2.672 1.64-2.778 1.465-2.879 1.286-2.96 1.093-3.04.899-3.097.707-3.153.504-3.187.304-3.215zm0 0M217.246 350.668l-.101-3.227-.301-3.214-.508-3.188-.703-3.152-.899-3.098-1.093-3.039-1.286-2.96-1.464-2.88-1.645-2.777-1.812-2.672-1.98-2.55-2.134-2.423-2.285-2.281-2.418-2.137-2.55-1.976-2.672-1.817-2.778-1.64-2.879-1.465-2.96-1.285-3.04-1.094-3.097-.898-3.153-.707-3.187-.504-3.215-.305-3.227-.102-3.226.102-3.215.305-3.188.503-3.152.708-3.098.898-3.039 1.094-2.964 1.285-2.875 1.465-2.778 1.64-2.672 1.817-2.55 1.976-2.422 2.137-2.282 2.281-2.136 2.422-1.977 2.55-1.816 2.673-1.64 2.777-1.47 2.88-1.28 2.96-1.095 3.04-.898 3.097-.707 3.152-.504 3.188-.305 3.214-.101 3.227.101 3.227.305 3.214.504 3.188.707 3.152.898 3.098 1.094 3.039 1.281 2.96 1.47 2.88 1.64 2.777 1.816 2.672 1.977 2.55 2.136 2.423 2.282 2.28 2.422 2.138 2.55 1.976 2.672 1.817 2.778 1.64 2.875 1.469 2.964 1.281 3.04 1.094 3.097.898 3.152.707 3.188.504 3.215.305 3.226.102 3.227-.102 3.215-.305 3.187-.504 3.153-.707 3.097-.898 3.04-1.094 2.96-1.281 2.88-1.469 2.777-1.64 2.671-1.817 2.551-1.976 2.418-2.137 2.285-2.281 2.133-2.422 1.98-2.551 1.813-2.672 1.645-2.777 1.464-2.88 1.286-2.96 1.093-3.04.899-3.097.703-3.152.508-3.188.3-3.214zm0 0" fill="pink" fill-opacity=".4" stroke-width=".075" stroke-linecap="round" stroke-linejoin="round" stroke="red" stroke-opacity=".4" stroke-miterlimit="10"/><path d="M264.43 86.625l-.102-3.227-.3-3.21-.508-3.192-.704-3.148-.902-3.102-1.094-3.035-1.28-2.965-1.466-2.875-1.644-2.781-1.813-2.668-1.98-2.55-2.133-2.423-2.285-2.285-2.422-2.133-2.55-1.98-2.669-1.813-2.781-1.644-2.875-1.465-2.961-1.281-3.04-1.094-3.1-.902-3.15-.704-3.187-.503-3.214-.305-3.227-.102-3.227.102-3.214.305-3.188.503-3.152.704-3.102.902-3.035 1.094-2.965 1.28-2.875 1.466-2.777 1.644-2.672 1.813-2.55 1.98-2.423 2.133-2.281 2.285-2.137 2.422-1.976 2.55-1.817 2.669-1.644 2.781-1.465 2.875-1.281 2.965-1.094 3.035-.902 3.102-.703 3.148-.504 3.192-.305 3.21-.102 3.227.102 3.23.305 3.211.504 3.192.703 3.148.902 3.102 1.094 3.035 1.281 2.965 1.465 2.875 1.644 2.781 1.817 2.668 1.976 2.55 2.137 2.423 2.281 2.28 2.422 2.138 2.55 1.98 2.673 1.813 2.777 1.644 2.875 1.465 2.965 1.281 3.035 1.094 3.102.902 3.152.703 3.188.504 3.214.305 3.227.102 3.227-.102 3.214-.305 3.188-.504 3.148-.703 3.102-.902 3.039-1.094 2.96-1.281 2.876-1.465 2.781-1.644 2.668-1.813 2.55-1.98 2.423-2.137 2.285-2.281 2.133-2.422 1.98-2.551 1.813-2.668 1.644-2.781 1.465-2.875 1.281-2.965 1.094-3.035.902-3.102.704-3.148.507-3.192.301-3.21zm0 0" fill="pink" fill-opacity=".4" stroke-width=".075" stroke-linecap="round" stroke-linejoin="round" stroke="red" stroke-opacity=".4" stroke-miterlimit="10"/><path d="M330.977 97.29l-.102-3.228-.305-3.214-.504-3.188-.707-3.152-.898-3.102-1.094-3.035-1.281-2.965-1.465-2.875-1.644-2.777-1.817-2.672-1.976-2.55-2.137-2.423-2.281-2.28-2.422-2.138-2.551-1.976-2.672-1.817-2.777-1.644-2.875-1.465-2.965-1.281-3.035-1.094-3.102-.902-3.152-.703-3.188-.504-3.214-.305-3.227-.102-3.227.102-3.214.305-3.188.504-3.148.703-3.102.902-3.039 1.094-2.961 1.281-2.879 1.465-2.777 1.644-2.668 1.817-2.551 1.976-2.422 2.137-2.285 2.281-2.133 2.422-1.98 2.551-1.813 2.672-1.644 2.777-1.465 2.875-1.281 2.965-1.094 3.035-.903 3.102-.703 3.152-.507 3.188-.301 3.215-.102 3.226.102 3.227.3 3.214.508 3.188.703 3.148.903 3.102 1.094 3.039 1.28 2.961 1.466 2.875 1.644 2.781 1.813 2.668 1.98 2.551 2.133 2.422 2.285 2.285 2.422 2.133 2.55 1.98 2.669 1.813 2.777 1.644 2.879 1.465 2.961 1.281 3.039 1.094 3.102.903 3.148.703 3.188.507 3.214.301 3.227.102 3.226-.102 3.215-.3 3.188-.508 3.152-.703 3.102-.903 3.035-1.094 2.965-1.28 2.875-1.466 2.777-1.644 2.672-1.813 2.55-1.98 2.423-2.133 2.28-2.285 2.138-2.422 1.976-2.55 1.817-2.669 1.644-2.781 1.465-2.875 1.281-2.961 1.094-3.039.898-3.102.707-3.148.504-3.188.305-3.214zm0 0" fill="pink" fill-opacity=".4" stroke-width=".075" stroke-linecap="round" stroke-linejoin="round" stroke="red" stroke-opacity=".4" stroke-miterlimit="10"/><path d="M331.434 97.484l-.102-3.226-.305-3.215-.504-3.188-.703-3.152-.902-3.098-1.094-3.039-1.281-2.96-1.465-2.88-1.644-2.777-1.813-2.672-1.98-2.55-2.137-2.422-2.281-2.282-2.422-2.132-2.551-1.98-2.668-1.817-2.781-1.64-2.875-1.466-2.965-1.285-3.035-1.094-3.102-.898-3.148-.707-3.192-.504-3.214-.305-3.227-.101-3.227.101-3.21.305-3.192.504-3.148.707-3.102.898-3.035 1.094-2.965 1.285-2.875 1.465-2.781 1.64-2.668 1.817-2.55 1.98-2.423 2.133-2.285 2.282-2.133 2.422-1.98 2.55-1.813 2.672-1.644 2.778-1.465 2.878-1.281 2.961-1.094 3.04-.902 3.097-.704 3.152-.504 3.188-.304 3.215-.102 3.226.102 3.227.304 3.215.504 3.187.704 3.153.902 3.097 1.094 3.04 1.28 2.96 1.466 2.88 1.644 2.777 1.813 2.671 1.98 2.551 2.133 2.422 2.285 2.281 2.422 2.137 2.55 1.977 2.669 1.816 2.781 1.64 2.875 1.47 2.965 1.28 3.035 1.094 3.102.899 3.148.707 3.191.504 3.211.304 3.227.102 3.227-.102 3.214-.304 3.192-.504 3.148-.707 3.102-.899 3.035-1.093 2.965-1.282 2.875-1.468 2.781-1.641 2.668-1.816 2.55-1.977 2.423-2.137 2.28-2.28 2.138-2.423 1.98-2.55 1.813-2.672 1.644-2.778 1.465-2.879 1.281-2.96 1.094-3.04.902-3.097.703-3.153.504-3.187.305-3.215zm0 0M175.563 129.477l-.098-3.227-.305-3.215-.508-3.187-.703-3.149-.898-3.101-1.094-3.04-1.285-2.96-1.465-2.875-1.64-2.782-1.817-2.668-1.98-2.55-2.133-2.422-2.282-2.285-2.421-2.133-2.551-1.98-2.672-1.813-2.777-1.645-2.88-1.465-2.96-1.28-3.04-1.095-3.097-.902-3.152-.703-3.188-.508-3.215-.3-3.226-.102-3.227.101-3.215.301-3.187.508-3.152.703-3.098.902-3.04 1.094-2.96 1.281-2.879 1.465-2.777 1.645-2.672 1.812-2.551 1.98-2.422 2.134-2.281 2.285-2.137 2.422-1.976 2.55-1.817 2.668-1.64 2.782-1.47 2.875-1.28 2.96-1.094 3.04-.899 3.101-.707 3.149-.504 3.187-.304 3.215-.102 3.227.102 3.226.304 3.215.504 3.187.707 3.153.899 3.101 1.094 3.036 1.28 2.964 1.47 2.875 1.64 2.778 1.817 2.672 1.976 2.55 2.137 2.422 2.281 2.281 2.422 2.137 2.55 1.977 2.673 1.816 2.777 1.645 2.879 1.465 2.96 1.28 3.04 1.095 3.098.902 3.152.703 3.187.504 3.215.305 3.227.101 3.226-.101 3.215-.305 3.188-.504 3.152-.703 3.098-.902 3.039-1.094 2.96-1.281 2.88-1.465 2.777-1.645 2.672-1.816 2.55-1.977 2.422-2.137 2.282-2.28 2.133-2.423 1.98-2.55 1.816-2.672 1.641-2.778 1.465-2.875 1.285-2.964 1.094-3.036.898-3.101.703-3.153.508-3.187.305-3.215zm0 0M355.91 338.871l-.101-3.226-.305-3.215-.504-3.188-.703-3.152-.902-3.102-1.094-3.035-1.281-2.965-1.465-2.875-1.645-2.777-1.812-2.672-1.98-2.55-2.134-2.423-2.285-2.28-2.422-2.138-2.55-1.976-2.668-1.817-2.782-1.644-2.875-1.465-2.964-1.281-3.036-1.094-3.101-.902-3.149-.703-3.191-.504-3.211-.305-3.227-.102-3.226.102-3.215.305-3.187.504-3.153.703-3.101.902-3.036 1.094-2.964 1.281-2.875 1.465-2.778 1.644-2.672 1.817-2.55 1.976-2.422 2.137-2.281 2.281-2.137 2.422-1.977 2.551-1.816 2.672-1.645 2.777-1.465 2.875-1.28 2.965-1.095 3.035-.902 3.102-.703 3.152-.504 3.188-.305 3.215-.101 3.226.101 3.227.305 3.214.504 3.188.703 3.148.902 3.102 1.094 3.04 1.281 2.96 1.465 2.875 1.645 2.781 1.816 2.668 1.977 2.551 2.137 2.422 2.28 2.285 2.423 2.133 2.55 1.98 2.672 1.813 2.778 1.644 2.875 1.465 2.964 1.281 3.036 1.094 3.101.903 3.153.703 3.187.507 3.215.301 3.226.102 3.227-.102 3.21-.3 3.192-.508 3.149-.703 3.101-.903 3.036-1.094 2.964-1.28 2.875-1.466 2.782-1.644 2.668-1.813 2.55-1.98 2.422-2.133 2.285-2.285 2.133-2.422 1.98-2.55 1.813-2.669 1.645-2.781 1.465-2.875 1.28-2.96 1.095-3.04.902-3.102.703-3.148.504-3.188.305-3.214zm0 0" fill="pink" fill-opacity=".4" stroke-width=".075" stroke-linecap="round" stroke-linejoin="round" stroke="red" stroke-opacity=".4" stroke-miterlimit="10"/><path d="M137.512 223.32l-.102-3.226-.305-3.215-.503-3.188-.707-3.148-.899-3.102-1.094-3.039-1.28-2.96-1.47-2.88-1.64-2.777-1.817-2.668-1.976-2.55-2.137-2.422-2.281-2.286-2.422-2.132-2.55-1.98-2.673-1.813-2.777-1.645-2.879-1.465-2.96-1.285-3.04-1.09-3.098-.902-3.152-.703-3.188-.508-3.214-.3-3.227-.102-3.226.101-3.215.3-3.188.509-3.152.703-3.098.902-3.039 1.09-2.96 1.285-2.88 1.465-2.777 1.645-2.672 1.812-2.55 1.98-2.423 2.133-2.28 2.286-2.134 2.421-1.98 2.551-1.817 2.668-1.64 2.778-1.465 2.878-1.285 2.961-1.094 3.04-.898 3.101-.703 3.148-.508 3.188-.305 3.215-.102 3.226.102 3.227.305 3.215.508 3.187.703 3.153.898 3.101 1.094 3.035 1.285 2.965 1.465 2.875 1.64 2.777 1.817 2.672 1.98 2.551 2.133 2.422 2.281 2.281 2.422 2.137 2.551 1.977 2.672 1.816 2.777 1.644 2.88 1.465 2.96 1.282 3.04 1.093 3.097.899 3.152.707 3.188.504 3.215.304 3.226.102 3.227-.102 3.215-.304 3.187-.504 3.152-.707 3.098-.899 3.04-1.093 2.96-1.282 2.879-1.465 2.777-1.644 2.672-1.816 2.55-1.977 2.423-2.137 2.281-2.281 2.137-2.422 1.976-2.55 1.817-2.673 1.64-2.777 1.47-2.875 1.28-2.965 1.094-3.035.899-3.101.707-3.153.503-3.187.305-3.215zm0 0M311.426 359.398l-.102-3.226-.304-3.215-.508-3.187-.703-3.153-.899-3.101-1.094-3.036-1.285-2.964-1.465-2.875-1.64-2.778-1.817-2.672-1.98-2.55-2.133-2.422-2.281-2.281-2.422-2.137-2.55-1.977-2.673-1.816-2.777-1.645-2.879-1.465-2.96-1.28-3.04-1.095-3.098-.902-3.152-.703-3.187-.504-3.215-.305-3.227-.101-3.226.101-3.215.305-3.188.504-3.152.703-3.098.902-3.039 1.094-2.96 1.281-2.88 1.465-2.777 1.645-2.672 1.816-2.55 1.977-2.423 2.137-2.28 2.28-2.137 2.423-1.977 2.55-1.816 2.672-1.641 2.778-1.469 2.875-1.281 2.964-1.094 3.036-.898 3.101-.707 3.153-.504 3.187-.305 3.215-.101 3.226.101 3.227.305 3.215.504 3.187.707 3.149.898 3.101 1.094 3.04 1.281 2.96 1.469 2.875 1.64 2.782 1.817 2.668 1.976 2.55 2.137 2.422 2.281 2.285 2.422 2.133 2.551 1.98 2.672 1.813 2.777 1.645 2.88 1.465 2.96 1.28 3.04 1.095 3.097.902 3.152.703 3.188.508 3.215.3 3.226.102 3.227-.101 3.215-.301 3.187-.508 3.152-.703 3.098-.902 3.04-1.094 2.96-1.281 2.879-1.465 2.777-1.645 2.672-1.812 2.551-1.98 2.422-2.134 2.281-2.285 2.133-2.422 1.98-2.55 1.817-2.668 1.64-2.782 1.465-2.875 1.285-2.96 1.094-3.04.899-3.101.703-3.149.508-3.187.304-3.215zm0 0" fill="pink" fill-opacity=".4" stroke-width=".075" stroke-linecap="round" stroke-linejoin="round" stroke="red" stroke-opacity=".4" stroke-miterlimit="10"/><path d="M349.676 342.98l-.102-3.226-.304-3.215-.504-3.187-.707-3.153-.899-3.097-1.094-3.04-1.285-2.96-1.465-2.88-1.64-2.777-1.817-2.672-1.976-2.55-2.137-2.422-2.281-2.281-2.422-2.137-2.55-1.977-2.673-1.816-2.777-1.64-2.879-1.466-2.96-1.285-3.04-1.094-3.098-.898-3.152-.707-3.187-.504-3.215-.305-3.227-.101-3.226.101-3.215.305-3.188.504-3.152.707-3.098.898-3.039 1.094-2.96 1.285-2.88 1.465-2.777 1.64-2.672 1.817-2.55 1.977-2.423 2.137-2.28 2.28-2.137 2.423-1.977 2.55-1.816 2.672-1.641 2.778-1.469 2.879-1.281 2.96-1.094 3.04-.898 3.097-.707 3.153-.504 3.187-.305 3.215-.101 3.226.101 3.227.305 3.215.504 3.187.707 3.153.898 3.097 1.094 3.04 1.281 2.96 1.469 2.88 1.64 2.777 1.817 2.671 1.976 2.551 2.137 2.422 2.281 2.281 2.422 2.137 2.551 1.977 2.672 1.816 2.777 1.64 2.88 1.47 2.96 1.28 3.04 1.094 3.097.899 3.152.707 3.188.504 3.215.305 3.226.101 3.227-.101 3.215-.305 3.187-.504 3.152-.707 3.098-.899 3.04-1.093 2.96-1.282 2.879-1.468 2.777-1.64 2.672-1.817 2.551-1.977 2.422-2.137 2.281-2.28 2.137-2.423 1.976-2.55 1.817-2.672 1.64-2.778 1.465-2.879 1.285-2.96 1.094-3.04.899-3.097.707-3.153.504-3.187.304-3.215zm0 0M142.563 187.848l-.102-3.227-.305-3.21-.504-3.192-.707-3.149-.898-3.101-1.094-3.035-1.281-2.965-1.469-2.875-1.64-2.781-1.817-2.668-1.976-2.551-2.137-2.422-2.281-2.285-2.422-2.133-2.551-1.98-2.672-1.813-2.777-1.645-2.88-1.464-2.96-1.282-3.04-1.093-3.097-.903-3.152-.703-3.188-.504-3.215-.304-3.226-.102-3.227.101-3.215.305-3.187.504-3.152.703-3.098.903-3.04 1.093-2.96 1.282-2.879 1.464-2.777 1.645-2.672 1.812-2.55 1.98-2.423 2.134-2.281 2.285-2.137 2.422-1.976 2.55-1.817 2.668-1.64 2.782-1.465 2.875-1.285 2.965-1.094 3.035-.899 3.101-.707 3.149-.504 3.191-.304 3.211-.102 3.227.102 3.226.304 3.215.504 3.191.707 3.149.899 3.101 1.094 3.036 1.285 2.964 1.465 2.875 1.64 2.782 1.817 2.668 1.976 2.55 2.137 2.422 2.281 2.282 2.422 2.136 2.55 1.98 2.673 1.813 2.777 1.645 2.879 1.465 2.96 1.28 3.04 1.095 3.098.902 3.152.703 3.187.504 3.215.305 3.227.101 3.226-.101 3.215-.305 3.188-.504 3.152-.703 3.098-.902 3.039-1.094 2.96-1.281 2.88-1.465 2.777-1.645 2.672-1.812 2.55-1.98 2.423-2.137 2.28-2.282 2.138-2.422 1.976-2.55 1.816-2.668 1.641-2.782 1.469-2.875 1.281-2.964 1.094-3.036.898-3.101.707-3.149.504-3.19.305-3.216zm0 0" fill="pink" fill-opacity=".4" stroke-width=".075" stroke-linecap="round" stroke-linejoin="round" stroke="red" stroke-opacity=".4" stroke-miterlimit="10"/><path d="M318.871 357.23l-.101-3.226-.301-3.211-.508-3.191-.703-3.149-.899-3.101-1.093-3.04-1.286-2.96-1.464-2.875-1.645-2.782-1.812-2.668-1.98-2.55-2.134-2.422-2.285-2.285-2.418-2.133-2.555-1.98-2.667-1.813-2.778-1.645-2.879-1.465-2.96-1.28-3.04-1.095-3.101-.902-3.149-.703-3.187-.504-3.215-.305-3.227-.101-3.226.101-3.215.305-3.188.504-3.152.703-3.098.902-3.039 1.094-2.964 1.281-2.875 1.465-2.778 1.645-2.672 1.812-2.55 1.98-2.422 2.134-2.282 2.285-2.136 2.422-1.977 2.55-1.816 2.668-1.64 2.782-1.47 2.875-1.28 2.96-1.095 3.04-.898 3.101-.707 3.149-.504 3.191-.305 3.21-.101 3.227.101 3.227.305 3.215.504 3.187.707 3.153.898 3.101 1.094 3.035 1.281 2.965 1.47 2.875 1.64 2.778 1.816 2.671 1.977 2.551 2.136 2.422 2.282 2.281 2.422 2.137 2.55 1.977 2.672 1.816 2.778 1.645 2.875 1.464 2.964 1.282 3.04 1.093 3.097.903 3.152.703 3.188.504 3.215.305 3.226.101 3.227-.101 3.215-.305 3.187-.504 3.149-.703 3.101-.903 3.04-1.093 2.96-1.282 2.88-1.464 2.777-1.645 2.668-1.816 2.554-1.977 2.418-2.137 2.285-2.28 2.133-2.423 1.98-2.55 1.813-2.672 1.645-2.778 1.464-2.875 1.286-2.965 1.093-3.035.899-3.101.703-3.153.508-3.187.3-3.215zm0 0M173.988 131.168l-.101-3.227-.301-3.214-.508-3.188-.703-3.152-.898-3.102-1.094-3.035-1.285-2.965-1.465-2.875-1.64-2.777-1.817-2.672-1.98-2.55-2.133-2.423-2.282-2.281-2.422-2.137-2.55-1.976-2.672-1.817-2.778-1.644-2.879-1.465-2.96-1.281-3.04-1.094-3.097-.898-3.153-.707-3.187-.504-3.215-.305-3.226-.102-3.227.102-3.215.305-3.187.504-3.153.707-3.097.898-3.04 1.094-2.96 1.281-2.88 1.465-2.777 1.644-2.671 1.817-2.551 1.976-2.422 2.137-2.281 2.281-2.137 2.422-1.977 2.55-1.816 2.673-1.64 2.777-1.47 2.875-1.28 2.965-1.094 3.035-.899 3.102-.707 3.152-.504 3.188-.305 3.214-.101 3.227.102 3.227.304 3.214.504 3.188.707 3.148.899 3.102 1.093 3.039 1.282 2.96 1.468 2.88 1.64 2.777 1.817 2.668 1.977 2.55 2.137 2.423 2.28 2.285 2.423 2.133 2.55 1.98 2.672 1.813 2.778 1.644 2.879 1.465 2.96 1.285 3.04 1.09 3.097.902 3.153.704 3.187.507 3.215.301 3.227.102 3.226-.102 3.215-.3 3.187-.508 3.153-.704 3.097-.902 3.04-1.09 2.96-1.285 2.88-1.465 2.777-1.644 2.672-1.813 2.55-1.98 2.422-2.133 2.281-2.285 2.133-2.422 1.98-2.55 1.817-2.669 1.64-2.777 1.466-2.88 1.285-2.96 1.094-3.04.898-3.1.703-3.15.508-3.187.3-3.214zm0 0" fill="pink" fill-opacity=".4" stroke-width=".075" stroke-linecap="round" stroke-linejoin="round" stroke="red" stroke-opacity=".4" stroke-miterlimit="10"/><path d="M284.848 363.633l-.098-3.23-.305-3.212-.507-3.191-.704-3.148-.898-3.102-1.094-3.035-1.285-2.965-1.465-2.875-1.64-2.781-1.817-2.668-1.98-2.551-2.133-2.422-2.281-2.281-2.422-2.137-2.551-1.98-2.672-1.813-2.777-1.644-2.88-1.465-2.96-1.281-3.04-1.094-3.097-.903-3.152-.703-3.188-.504-3.214-.304-3.227-.102-3.227.102-3.214.304-3.188.504-3.152.703-3.098.903-3.039 1.094-2.961 1.28-2.879 1.466-2.777 1.644-2.672 1.813-2.55 1.98-2.423 2.137-2.281 2.281-2.137 2.422-1.976 2.55-1.817 2.669-1.64 2.781-1.47 2.875-1.28 2.965-1.094 3.035-.899 3.102-.707 3.148-.503 3.191-.305 3.211-.102 3.23.102 3.227.305 3.211.503 3.192.708 3.148.898 3.102 1.094 3.035 1.28 2.965 1.47 2.875 1.64 2.781 1.817 2.668 1.976 2.55L196 398.81l2.281 2.285 2.422 2.133 2.55 1.98 2.673 1.813 2.777 1.644 2.879 1.465 2.961 1.281 3.039 1.094 3.098.902 3.152.703 3.188.504 3.214.305 3.227.102 3.226-.102 3.215-.305 3.188-.504 3.152-.703 3.098-.902 3.039-1.094 2.96-1.281 2.88-1.465 2.777-1.644 2.672-1.813 2.55-1.98 2.423-2.133 2.28-2.285 2.134-2.422 1.98-2.551 1.817-2.668 1.64-2.781 1.465-2.875 1.285-2.965 1.094-3.035.898-3.102.704-3.148.507-3.192.305-3.21zm0 0M148.316 171.266l-.101-3.227-.305-3.215-.504-3.187-.707-3.153-.898-3.097-1.094-3.04-1.281-2.96-1.465-2.88-1.645-2.777-1.816-2.671-1.977-2.551-2.136-2.418-2.282-2.285-2.421-2.133-2.551-1.98-2.672-1.813-2.777-1.645-2.875-1.464-2.965-1.286-3.035-1.093-3.102-.899-3.152-.703-3.188-.508-3.215-.3-3.226-.102-3.227.101-3.215.301-3.187.508-3.149.703-3.101.899-3.04 1.093-2.96 1.286-2.879 1.464-2.777 1.645-2.668 1.812-2.551 1.98-2.422 2.134-2.285 2.285-2.133 2.418-1.98 2.55-1.813 2.672-1.644 2.778-1.465 2.879-1.285 2.96-1.09 3.04-.903 3.097-.703 3.153-.508 3.187-.3 3.215-.102 3.227.102 3.226.3 3.215.508 3.188.703 3.152.903 3.098 1.09 3.039 1.285 2.96 1.465 2.88 1.644 2.777 1.813 2.672 1.98 2.55 2.133 2.422 2.285 2.282 2.422 2.136 2.55 1.977 2.669 1.816 2.777 1.64 2.879 1.47 2.96 1.28 3.04 1.095 3.101.898 3.149.707 3.187.504 3.215.305 3.227.101 3.226-.101 3.215-.305 3.188-.504 3.152-.707 3.102-.898 3.035-1.094 2.965-1.281 2.875-1.47 2.777-1.64 2.672-1.816 2.55-1.977 2.422-2.136 2.282-2.282 2.136-2.422 1.977-2.55 1.816-2.672 1.645-2.778 1.465-2.878 1.281-2.961 1.094-3.04.898-3.097.707-3.152.504-3.188.305-3.215zm0 0M390.875 303.629l-.102-3.227-.3-3.21-.508-3.192-.703-3.148-.903-3.102-1.093-3.035-1.282-2.965-1.464-2.875-1.645-2.781-1.813-2.668-1.98-2.551-2.133-2.422-2.285-2.281-2.422-2.137-2.55-1.98-2.669-1.813-2.78-1.644-2.876-1.465-2.96-1.281-3.04-1.094-3.101-.903-3.149-.703-3.187-.504-3.215-.304-3.227-.102-3.226.102-3.215.304-3.188.504-3.152.703-3.102.903-3.035 1.094-2.965 1.28-2.875 1.466-2.777 1.644-2.672 1.813-2.55 1.98-2.422 2.137-2.282 2.281-2.136 2.422-1.977 2.55-1.816 2.669-1.645 2.781-1.465 2.875-1.281 2.965-1.094 3.035-.902 3.102-.703 3.148-.504 3.191-.305 3.211-.101 3.227.101 3.23.305 3.211.504 3.192.703 3.148.902 3.102 1.094 3.035 1.281 2.965 1.465 2.875 1.645 2.781 1.816 2.668 1.977 2.55 2.136 2.423 2.282 2.28 2.421 2.138 2.551 1.98 2.672 1.813 2.777 1.644 2.875 1.465 2.965 1.281 3.035 1.094 3.102.902 3.152.703 3.188.504 3.215.305 3.226.102 3.227-.102 3.215-.305 3.187-.504 3.149-.703 3.101-.902 3.04-1.094 2.96-1.281 2.875-1.465 2.781-1.644 2.668-1.813 2.551-1.98 2.422-2.137 2.285-2.281 2.133-2.422 1.98-2.551 1.813-2.668 1.645-2.781 1.464-2.875 1.282-2.965 1.093-3.035.903-3.102.703-3.148.508-3.192.3-3.21zm0 0" fill="pink" fill-opacity=".4" stroke-width=".075" stroke-linecap="round" stroke-linejoin="round" stroke="red" stroke-opacity=".4" stroke-miterlimit="10"/><path d="M217.621 99.156l-.101-3.226-.305-3.215-.504-3.188-.703-3.148-.903-3.102-1.093-3.039-1.282-2.96-1.464-2.876-1.645-2.78-1.816-2.669-1.977-2.55-2.137-2.423-2.28-2.285-2.423-2.133-2.55-1.98-2.672-1.812-2.778-1.645-2.875-1.465-2.965-1.281-3.035-1.094-3.101-.902-3.153-.703-3.187-.508-3.215-.3-3.227-.102-3.226.101-3.215.3-3.187.509-3.149.703-3.101.902-3.04 1.094-2.96 1.281-2.875 1.465-2.782 1.645-2.668 1.812-2.55 1.98-2.422 2.133-2.285 2.285-2.133 2.422-1.98 2.551-1.813 2.668-1.645 2.781-1.465 2.875-1.28 2.961-1.095 3.04-.902 3.1-.703 3.15-.508 3.187-.3 3.215-.102 3.226.101 3.227.301 3.215.508 3.187.703 3.153.902 3.101 1.094 3.035 1.281 2.965 1.465 2.875 1.645 2.777 1.812 2.672 1.98 2.551 2.134 2.422 2.285 2.281 2.422 2.137 2.55 1.976 2.668 1.817 2.782 1.644 2.875 1.465 2.96 1.281 3.04 1.094 3.101.903 3.149.703 3.187.504 3.215.304 3.226.102 3.227-.102 3.215-.304 3.187-.504 3.153-.703 3.101-.903 3.035-1.094 2.965-1.28 2.875-1.466 2.778-1.644 2.672-1.817 2.55-1.976 2.422-2.137 2.281-2.281 2.137-2.422 1.977-2.55 1.816-2.673 1.645-2.777 1.464-2.875 1.282-2.965 1.093-3.035.903-3.102.703-3.152.504-3.187.305-3.215zm0 0M397.004 156.133l-.102-3.227-.304-3.215-.504-3.187-.707-3.149-.899-3.101-1.093-3.04-1.282-2.96-1.468-2.875-1.641-2.781-1.817-2.668-1.976-2.551-2.137-2.422-2.281-2.285-2.422-2.133-2.55-1.98-2.673-1.813-2.777-1.644-2.879-1.465-2.96-1.282-3.04-1.093-3.097-.903-3.153-.703-3.187-.508-3.215-.3-3.227-.102-3.226.102-3.215.3-3.188.508-3.152.703-3.098.903-3.039 1.093-2.96 1.282-2.88 1.465-2.777 1.644-2.672 1.813-2.55 1.98-2.422 2.133-2.282 2.285-2.136 2.422-1.977 2.55-1.816 2.669-1.641 2.78-1.465 2.876-1.285 2.96-1.094 3.04-.898 3.101-.707 3.149-.504 3.187-.305 3.215-.101 3.227.101 3.226.305 3.215.504 3.188.707 3.152.898 3.102 1.094 3.035 1.285 2.965 1.465 2.875 1.64 2.777 1.817 2.672 1.977 2.55 2.136 2.423 2.282 2.28 2.421 2.137 2.551 1.977 2.672 1.816 2.777 1.645 2.88 1.465 2.96 1.281 3.04 1.094 3.097.902 3.152.703 3.188.504 3.215.305 3.226.101 3.227-.101 3.215-.305 3.187-.504 3.153-.703 3.097-.902 3.04-1.094 2.96-1.281 2.88-1.465 2.776-1.645 2.672-1.816 2.551-1.977 2.422-2.136 2.281-2.281 2.137-2.422 1.976-2.551 1.817-2.672 1.64-2.777 1.47-2.875 1.28-2.965 1.094-3.035.899-3.102.707-3.152.504-3.188.304-3.215zm0 0M332.578 352.016l-.101-3.227-.305-3.215-.504-3.187-.703-3.153-.902-3.097-1.094-3.04-1.281-2.964-1.465-2.875-1.645-2.778-1.812-2.671-1.98-2.551-2.134-2.422-2.285-2.281-2.422-2.137-2.55-1.977-2.668-1.816-2.782-1.64-2.875-1.47-2.96-1.28-3.04-1.094-3.101-.899-3.149-.707-3.191-.504-3.211-.304-3.227-.102-3.226.102-3.215.304-3.188.504-3.152.707-3.101.899-3.036 1.093-2.964 1.282-2.875 1.468-2.778 1.641-2.672 1.816-2.55 1.977-2.422 2.137-2.282 2.28-2.136 2.423-1.977 2.55-1.816 2.672-1.645 2.778-1.465 2.875-1.28 2.965-1.095 3.039-.902 3.097-.703 3.153-.504 3.187-.305 3.215-.101 3.227.101 3.226.305 3.215.504 3.188.703 3.148.902 3.102 1.094 3.039 1.281 2.96 1.465 2.88 1.645 2.777 1.816 2.668 1.977 2.554 2.136 2.418 2.282 2.286 2.422 2.132 2.55 1.98 2.672 1.813 2.778 1.645 2.875 1.465 2.964 1.285 3.036 1.094 3.101.898 3.152.703 3.188.508 3.215.3 3.226.102 3.227-.101 3.21-.301 3.192-.508 3.149-.703 3.101-.898 3.04-1.094 2.96-1.285 2.875-1.465 2.782-1.645 2.668-1.812 2.55-1.98 2.422-2.133 2.285-2.286 2.133-2.418 1.98-2.554 1.813-2.668 1.645-2.778 1.464-2.878 1.282-2.961 1.094-3.04.902-3.101.703-3.148.504-3.188.305-3.215zm0 0" fill="pink" fill-opacity=".4" stroke-width=".075" stroke-linecap="round" stroke-linejoin="round" stroke="red" stroke-opacity=".4" stroke-miterlimit="10"/><path d="M387.965 307.707l-.102-3.227-.304-3.21-.504-3.192-.703-3.148-.903-3.102-1.094-3.035-1.28-2.965-1.466-2.875-1.644-2.781-1.813-2.668-1.98-2.55-2.133-2.423-2.285-2.285-2.422-2.133-2.55-1.98-2.669-1.813-2.781-1.644-2.875-1.465-2.96-1.281-3.04-1.094-3.102-.902-3.148-.704-3.191-.503-3.211-.305-3.227-.102-3.226.102-3.215.305-3.188.503-3.152.704-3.102.902-3.035 1.094-2.965 1.28-2.875 1.466-2.777 1.644-2.672 1.813-2.55 1.98-2.423 2.133-2.28 2.285-2.138 2.422-1.976 2.55-1.817 2.669-1.644 2.781-1.465 2.875-1.281 2.965-1.094 3.035-.902 3.102-.703 3.148-.504 3.192-.305 3.21-.101 3.227.101 3.23.305 3.211.504 3.192.703 3.148.902 3.102 1.094 3.035 1.281 2.965 1.465 2.875 1.644 2.781 1.817 2.668 1.976 2.55 2.137 2.423 2.281 2.281 2.422 2.137 2.551 1.98 2.672 1.813 2.777 1.644 2.875 1.465 2.965 1.281 3.035 1.094 3.102.902 3.152.704 3.188.503 3.215.305 3.226.102 3.227-.102 3.21-.305 3.192-.503 3.148-.704 3.102-.902 3.04-1.094 2.96-1.281 2.875-1.465 2.781-1.644 2.668-1.813 2.551-1.98 2.422-2.137 2.285-2.281 2.133-2.422 1.98-2.55 1.813-2.669 1.644-2.781 1.465-2.875 1.281-2.965 1.094-3.035.903-3.102.703-3.148.504-3.192.304-3.21zm0 0" fill="pink" fill-opacity=".4" stroke-width=".075" stroke-linecap="round" stroke-linejoin="round" stroke="red" stroke-opacity=".4" stroke-miterlimit="10"/><path d="M412.21 254.023l-.1-3.226-.305-3.215-.504-3.187-.703-3.153-.903-3.101-1.093-3.036-1.282-2.964-1.465-2.875-1.644-2.778-1.813-2.672-1.98-2.55-2.133-2.422-2.285-2.281-2.422-2.137-2.55-1.977-2.669-1.816-2.78-1.645-2.876-1.465-2.96-1.28-3.04-1.095-3.101-.902-3.149-.703-3.191-.504-3.211-.305-3.227-.101-3.226.101-3.215.305-3.188.504-3.152.703-3.102.902-3.035 1.094-2.965 1.281-2.875 1.465-2.777 1.645-2.672 1.816-2.55 1.977-2.422 2.137-2.282 2.28-2.136 2.423-1.977 2.55-1.816 2.672-1.645 2.778-1.465 2.875-1.281 2.964-1.094 3.036-.902 3.101-.703 3.153-.504 3.187-.305 3.215-.101 3.226.101 3.227.305 3.21.504 3.192.703 3.149.902 3.101 1.094 3.04 1.281 2.96 1.465 2.875 1.645 2.782 1.816 2.668 1.977 2.55 2.136 2.422 2.282 2.285 2.421 2.133 2.551 1.98 2.672 1.813 2.777 1.645 2.875 1.465 2.965 1.28 3.035 1.095 3.102.902 3.152.703 3.188.504 3.215.305 3.226.101 3.227-.101 3.21-.305 3.192-.504 3.149-.703 3.101-.902 3.04-1.094 2.96-1.281 2.875-1.465 2.781-1.645 2.668-1.812 2.551-1.98 2.422-2.134 2.285-2.285 2.133-2.422 1.98-2.55 1.813-2.668 1.644-2.782 1.465-2.875 1.282-2.96 1.093-3.04.903-3.101.703-3.149.504-3.191.304-3.211zm0 0M300.266 194.996l-.102-3.226-.3-3.215-.509-3.188-.703-3.152-.902-3.098-1.094-3.039-1.281-2.96-1.465-2.88-1.644-2.777-1.813-2.668-1.98-2.555-2.133-2.418-2.285-2.285-2.422-2.133-2.551-1.98-2.668-1.813-2.781-1.644-2.875-1.465-2.961-1.285-3.04-1.094-3.1-.898-3.15-.703-3.187-.508-3.215-.301-3.226-.102-3.227.102-3.214.3-3.188.509-3.152.703-3.102.898-3.035 1.094-2.965 1.285-2.875 1.465-2.777 1.644-2.672 1.813-2.55 1.98-2.423 2.133-2.281 2.285-2.137 2.418-1.976 2.555-1.817 2.668-1.644 2.777-1.465 2.88-1.281 2.96-1.094 3.04-.902 3.097-.704 3.152-.503 3.188-.305 3.215-.102 3.226.102 3.227.305 3.214.503 3.188.704 3.152.902 3.098 1.094 3.04 1.28 2.964 1.466 2.875 1.644 2.777 1.817 2.672 1.976 2.55 2.137 2.423 2.281 2.281 2.422 2.137 2.55 1.976 2.673 1.817 2.777 1.64 2.875 1.47 2.965 1.28 3.035 1.094 3.102.899 3.152.707 3.188.503 3.214.305 3.227.102 3.226-.102 3.215-.305 3.188-.503 3.148-.707 3.102-.899 3.039-1.094 2.96-1.28 2.876-1.47 2.781-1.64 2.668-1.817 2.55-1.976 2.423-2.137 2.285-2.281 2.133-2.422 1.98-2.55 1.813-2.673 1.644-2.777 1.465-2.875 1.281-2.965 1.094-3.039.902-3.098.703-3.152.508-3.188.301-3.214zm0 0" fill="pink" fill-opacity=".4" stroke-width=".075" stroke-linecap="round" stroke-linejoin="round" stroke="red" stroke-opacity=".4" stroke-miterlimit="10"/><path d="M363.55 234.672l-12.788-68.61M363.55 234.672l-1.796 14.582M363.55 234.672l-24.32-88.676M363.55 234.672l-18.87-80.149M363.55 234.672l.13-17.266M363.55 234.672l-.218 2.758M363.55 234.672l.31-6.797M363.55 234.672l-23.179 67.656M363.55 234.672l-.007.148M363.55 234.672l-11.308-65.348M363.55 234.672l-1.956 15.476M363.55 234.672l-24.062 68.957M363.55 234.672l-17.937-78.54M363.55 234.672l-26.972 73.035M363.55 234.672l-2.726 19.351M113.805 141.781l36.73-34.02M113.805 141.781l-23.133 47.922M113.805 141.781l-21.793 43.172M113.805 141.781l54.77-43.691M113.805 141.781l72.257-50.101M113.805 141.781l-27.446 74.91M113.805 141.781l21.18-22.55M113.805 141.781l10.37-12.304M113.805 141.781l-27.684 81.54M113.805 141.781l-22.633 46.067M113.805 141.781l8.797-10.613M113.805 141.781l-16.88 29.485M113.805 141.781l52.425-42.625M328.777 132.695l21.985 33.368M328.777 132.695l-33.722-27.62M328.777 132.695l-38.207-30.132M328.777 132.695L241.13 87.051M328.777 132.695l10.453 13.301M328.777 132.695l15.903 21.828M328.777 132.695l34.903 84.711M328.777 132.695l35.082 95.18M328.777 132.695l23.465 36.63M328.777 132.695L279.586 97.29M328.777 132.695l-48.734-35.21M328.777 132.695l16.836 23.438M328.777 132.695l-79.898 62.301M350.762 166.063l10.992 83.19M350.762 166.063l-55.707-60.989M350.762 166.063l-60.192-63.5M350.762 166.063l-11.532-20.067M350.762 166.063l-6.082-11.54M350.762 166.063l12.918 51.343M350.762 166.063l12.57 71.367M350.762 166.063l13.097 61.812M350.762 166.063l12.781 68.757M350.762 166.063l1.48 3.261M350.762 166.063l10.832 84.085M350.762 166.063l-71.176-68.774M350.762 166.063l-70.719-68.579M350.762 166.063l-5.149-9.93M350.762 166.063l10.062 87.96M230.453 86.219l-79.918 21.543M230.453 86.219l64.602 18.855M230.453 86.219l60.117 16.344M230.453 86.219l10.676.832M230.453 86.219l-61.879 11.87M230.453 86.219l-44.39 5.46M230.453 86.219l-95.469 33.011M230.453 86.219l-17.41.406M230.453 86.219l49.133 11.07M230.453 86.219l49.59 11.265M230.453 86.219L166.23 99.156M261.238 359.078l-16.398 3.387M261.238 359.078l79.133-56.75M261.238 359.078l-95.379-8.41M261.238 359.078l43.285-20.207M261.238 359.078l-1.203.32M261.238 359.078l37.047-16.098M261.238 359.078l6.246-1.848M261.238 359.078l-27.777 4.555M261.238 359.078l78.25-55.45M261.238 359.078l19.953-7.062M261.238 359.078l75.34-51.371M150.535 107.762l-59.863 81.941M150.535 107.762L241.13 87.05M150.535 107.762l-58.523 77.191M150.535 107.762l18.04-9.672M150.535 107.762l35.528-16.082M150.535 107.762l-15.55 11.468M150.535 107.762l62.508-21.137M150.535 107.762l-26.36 21.715M150.535 107.762l-59.363 80.086M150.535 107.762l-27.933 23.406M150.535 107.762l-53.61 63.504M150.535 107.762l15.695-8.606M361.754 249.254l-17.074-94.73M361.754 249.254l1.926-31.848M361.754 249.254l1.578-11.824M361.754 249.254l2.105-21.379M361.754 249.254l-21.383 53.074M361.754 249.254l1.789-14.434M361.754 249.254l-9.512-79.93M361.754 249.254l-.16.894M361.754 249.254l-22.266 54.375M361.754 249.254l-16.14-93.121M361.754 249.254l-25.176 58.453M361.754 249.254l-.93 4.77M295.055 105.074l-4.485-2.511M295.055 105.074l-53.926-18.023M295.055 105.074l44.175 40.922M295.055 105.074l49.625 49.45M295.055 105.074l57.187 64.25M295.055 105.074l-82.012-18.449M295.055 105.074l-15.47-7.785M295.055 105.074l-15.012-7.59M295.055 105.074l50.558 51.059M295.055 105.074l-46.176 89.922M90.672 189.703l1.34-4.75M90.672 189.703l5.406 86.965M90.672 189.703l-4.313 26.988M90.672 189.703l44.312-70.473M90.672 189.703l33.504-60.226M90.672 189.703l-4.55 33.617M90.672 189.703l.5-1.855M90.672 189.703l31.93-58.535M90.672 189.703l6.254-18.437M290.57 102.563L241.13 87.05M290.57 102.563l48.66 43.433M290.57 102.563l54.11 51.96M290.57 102.563l61.672 66.761M290.57 102.563l-77.527-15.938M290.57 102.563l-10.984-5.274M290.57 102.563l-10.527-5.079M290.57 102.563l55.043 53.57M290.57 102.563l-41.691 92.433M241.129 87.05l-72.555 11.04M241.129 87.05l-55.066 4.63M241.129 87.05l-28.086-.425M241.129 87.05l38.457 10.24M241.129 87.05l38.914 10.434M241.129 87.05L166.23 99.157M244.84 362.465l-78.98-11.797M244.84 362.465l59.683-23.594M244.84 362.465l15.195-3.067M244.84 362.465l53.445-19.485M244.84 362.465l22.644-5.235M244.84 362.465l-11.38 1.168M244.84 362.465l36.351-10.45M339.23 145.996l5.45 8.527M339.23 145.996l24.45 71.41M339.23 145.996l24.102 91.434M339.23 145.996l24.63 81.879M339.23 145.996l24.313 88.824M339.23 145.996l13.012 23.328M339.23 145.996L279.586 97.29M339.23 145.996l-59.187-48.512M339.23 145.996l6.383 10.137M92.012 184.953l4.066 91.715M92.012 184.953l-5.653 31.738M92.012 184.953l42.972-65.723M92.012 184.953l32.164-55.476M92.012 184.953l-5.89 38.367M92.012 184.953l-.84 2.895M92.012 184.953l30.59-53.785M92.012 184.953l4.914-13.687M344.68 154.523l19 62.883M344.68 154.523l18.652 82.907M344.68 154.523l19.18 73.352M344.68 154.523l18.863 80.297M344.68 154.523l7.562 14.801M344.68 154.523l16.914 95.625M344.68 154.523L279.586 97.29M344.68 154.523l-64.637-57.039M344.68 154.523l.933 1.61M344.68 154.523l16.144 99.5M96.078 276.668l40.02 55.039M96.078 276.668l31.98 47.793M96.078 276.668l-9.719-59.977M96.078 276.668l69.781 74M96.078 276.668l-9.957-53.348M96.078 276.668l-4.906-88.82M363.68 217.406l-.348 20.024M363.68 217.406l.18 10.469M363.68 217.406l-23.309 84.922M363.68 217.406l-.137 17.414M363.68 217.406l-11.438-48.082M363.68 217.406l-2.086 32.742M363.68 217.406l-24.192 86.223M363.68 217.406l-18.067-61.273M363.68 217.406l-27.102 90.301M363.68 217.406l-2.856 36.617M363.332 237.43l.527-9.555M363.332 237.43l-22.96 64.898M363.332 237.43l.211-2.61M363.332 237.43l-11.09-68.106M363.332 237.43l-1.738 12.718M363.332 237.43l-23.844 66.199M363.332 237.43l-17.719-81.297M363.332 237.43l-26.754 70.277M363.332 237.43l-2.508 16.593M168.574 98.09l17.488-6.41M168.574 98.09l-33.59 21.14M168.574 98.09l44.469-11.465M168.574 98.09l-44.398 31.387M168.574 98.09l-45.972 33.078M168.574 98.09l-71.648 73.176M168.574 98.09l-2.344 1.066M136.098 331.707l-8.04-7.246M136.098 331.707l29.761 18.961M136.098 331.707l97.363 31.926M186.063 91.68l-51.079 27.55M186.063 91.68l26.98-5.055M186.063 91.68l93.523 5.61M186.063 91.68l93.98 5.804M186.063 91.68l-61.887 37.797M186.063 91.68l-63.461 39.488M186.063 91.68l-19.833 7.476M363.86 227.875l-23.489 74.453M363.86 227.875l-.317 6.945M363.86 227.875l-11.618-58.55M363.86 227.875l-2.266 22.273M363.86 227.875l-24.372 75.754M363.86 227.875l-18.247-71.742M363.86 227.875l-27.282 79.832M363.86 227.875l-3.036 26.148M340.371 302.328l23.172-67.508M340.371 302.328l21.223-52.18M340.371 302.328l-35.848 36.543M340.371 302.328l-80.336 57.07M340.371 302.328l-42.086 40.652M340.371 302.328l-72.887 54.902M340.371 302.328l-.883 1.3M340.371 302.328l-59.18 49.688M340.371 302.328l-3.793 5.379M340.371 302.328l20.453-48.305M363.543 234.82l-11.3-65.496M363.543 234.82l-1.95 15.328M363.543 234.82l-24.055 68.809M363.543 234.82l-17.93-78.687M363.543 234.82l-26.965 72.887M363.543 234.82l-2.719 19.203M352.242 169.324l9.352 80.824M352.242 169.324L279.586 97.29M352.242 169.324l-72.199-71.84M352.242 169.324l-6.629-13.191M352.242 169.324l8.582 84.7M128.059 324.46l37.8 26.208M86.36 216.691l37.816-87.214M86.36 216.691l-.239 6.63M86.36 216.691l4.812-28.843M86.36 216.691l36.242-85.523M86.36 216.691l10.566-45.425M361.594 250.148l-22.106 53.48M361.594 250.148l-15.98-94.015M361.594 250.148l-25.016 57.559M361.594 250.148l-.77 3.875M134.984 119.23l78.059-32.605M134.984 119.23l-10.808 10.247M134.984 119.23l-43.812 68.618M134.984 119.23l-12.382 11.938M134.984 119.23l-38.058 52.036M134.984 119.23l31.246-20.074M165.86 350.668l94.175 8.73M165.86 350.668l101.624 6.562M165.86 350.668l67.6 12.965M213.043 86.625l66.543 10.664M213.043 86.625l67 10.86M213.043 86.625l-88.867 42.852M213.043 86.625l-90.441 44.543M213.043 86.625L166.23 99.156M279.586 97.29l.457.194M279.586 97.29l66.027 58.843M279.586 97.29l-30.707 97.706M280.043 97.484l65.57 58.649M280.043 97.484l-31.164 97.512M124.176 129.477L86.12 223.32M124.176 129.477l-33.004 58.37M124.176 129.477l-1.574 1.691M124.176 129.477l-27.25 41.789M124.176 129.477l42.054-30.32M304.523 338.871l-44.488 20.527M304.523 338.871l-6.238 4.11M304.523 338.871l-37.039 18.36M304.523 338.871l-71.062 24.762M304.523 338.871l34.965-35.242M304.523 338.871l-23.332 13.145M304.523 338.871l32.055-31.164M304.523 338.871l56.301-84.848M86.121 223.32l5.05-35.472M86.121 223.32l36.48-92.152M86.121 223.32l10.805-52.054M260.035 359.398l38.25-16.418M260.035 359.398l7.45-2.168M260.035 359.398l-26.574 4.235M260.035 359.398l79.453-55.77M260.035 359.398l21.156-7.382M260.035 359.398l76.543-51.691M298.285 342.98l-30.8 14.25M298.285 342.98l-64.824 20.653M298.285 342.98l41.203-39.351M298.285 342.98l-17.094 9.036M298.285 342.98l38.293-35.273M91.172 187.848l31.43-56.68M91.172 187.848l5.754-16.582M267.484 357.23l-34.023 6.403M267.484 357.23l72.004-53.601M267.484 357.23l13.707-5.214M267.484 357.23l69.094-49.523M122.602 131.168l-25.676 40.098M122.602 131.168l43.628-32.012M233.46 363.633l47.731-11.617M96.926 171.266l69.304-72.11M339.488 303.629l-58.297 48.387M339.488 303.629l-2.91 4.078M339.488 303.629l21.336-49.606M345.613 156.133l15.211 97.89M281.191 352.016l55.387-44.309M336.578 307.707l24.246-53.684" fill="none" stroke-width=".375" stroke-linecap="round" stroke-linejoin="round" stroke="#000" stroke-miterlimit="10"/><path d="M365.352 234.672c0 2.398-3.602 2.398-3.602 0 0-2.402 3.602-2.402 3.602 0M115.605 141.781c0 2.399-3.601 2.399-3.601 0 0-2.402 3.601-2.402 3.601 0M330.578 132.695c0 2.399-3.601 2.399-3.601 0 0-2.398 3.601-2.398 3.601 0M352.563 166.063c0 2.398-3.598 2.398-3.598 0 0-2.399 3.598-2.399 3.598 0M232.254 86.219c0 2.398-3.602 2.398-3.602 0 0-2.403 3.602-2.403 3.602 0M263.035 359.078c0 2.399-3.598 2.399-3.598 0 0-2.398 3.598-2.398 3.598 0M152.332 107.762c0 2.398-3.598 2.398-3.598 0 0-2.399 3.598-2.399 3.598 0M363.555 249.254c0 2.402-3.602 2.402-3.602 0 0-2.399 3.602-2.399 3.602 0M296.855 105.074c0 2.399-3.597 2.399-3.597 0 0-2.398 3.597-2.398 3.597 0M92.473 189.703c0 2.399-3.602 2.399-3.602 0 0-2.402 3.602-2.402 3.602 0M292.371 102.563c0 2.402-3.601 2.402-3.601 0 0-2.399 3.601-2.399 3.601 0M242.93 87.05c0 2.4-3.602 2.4-3.602 0 0-2.398 3.602-2.398 3.602 0M246.64 362.465c0 2.398-3.6 2.398-3.6 0 0-2.399 3.6-2.399 3.6 0M341.031 145.996c0 2.399-3.601 2.399-3.601 0 0-2.398 3.601-2.398 3.601 0M93.809 184.953c0 2.399-3.598 2.399-3.598 0 0-2.402 3.598-2.402 3.598 0M346.48 154.523c0 2.403-3.601 2.403-3.601 0 0-2.398 3.601-2.398 3.601 0M97.879 276.668c0 2.398-3.598 2.398-3.598 0s3.598-2.398 3.598 0M365.48 217.406c0 2.403-3.597 2.403-3.597 0 0-2.398 3.597-2.398 3.597 0" fill="red" stroke-width=".75" stroke-linecap="round" stroke-linejoin="round" stroke="red" stroke-miterlimit="10"/><path d="M365.133 237.43c0 2.402-3.602 2.402-3.602 0 0-2.399 3.602-2.399 3.602 0M170.375 98.09c0 2.398-3.602 2.398-3.602 0 0-2.399 3.602-2.399 3.602 0M137.898 331.707c0 2.402-3.597 2.402-3.597 0 0-2.398 3.597-2.398 3.597 0M187.863 91.68c0 2.402-3.597 2.402-3.597 0 0-2.399 3.597-2.399 3.597 0M365.66 227.875c0 2.402-3.601 2.402-3.601 0 0-2.398 3.601-2.398 3.601 0M342.172 302.328c0 2.399-3.602 2.399-3.602 0 0-2.398 3.602-2.398 3.602 0" fill="red" stroke-width=".75" stroke-linecap="round" stroke-linejoin="round" stroke="red" stroke-miterlimit="10"/><path d="M365.34 234.82c0 2.399-3.598 2.399-3.598 0 0-2.402 3.598-2.402 3.598 0M354.043 169.324c0 2.399-3.602 2.399-3.602 0 0-2.398 3.602-2.398 3.602 0M129.855 324.46c0 2.4-3.597 2.4-3.597 0 0-2.401 3.597-2.401 3.597 0M88.16 216.691c0 2.403-3.601 2.403-3.601 0 0-2.398 3.601-2.398 3.601 0M363.395 250.148c0 2.399-3.602 2.399-3.602 0 0-2.402 3.602-2.402 3.602 0M136.785 119.23c0 2.399-3.601 2.399-3.601 0 0-2.402 3.601-2.402 3.601 0M167.66 350.668c0 2.398-3.601 2.398-3.601 0s3.601-2.398 3.601 0M214.844 86.625c0 2.402-3.602 2.402-3.602 0 0-2.398 3.602-2.398 3.602 0M281.387 97.29c0 2.397-3.602 2.397-3.602 0 0-2.403 3.602-2.403 3.602 0" fill="red" stroke-width=".75" stroke-linecap="round" stroke-linejoin="round" stroke="red" stroke-miterlimit="10"/><path d="M281.844 97.484c0 2.399-3.598 2.399-3.598 0 0-2.398 3.598-2.398 3.598 0M125.977 129.477c0 2.402-3.602 2.402-3.602 0 0-2.399 3.602-2.399 3.602 0M306.32 338.871c0 2.399-3.597 2.399-3.597 0 0-2.402 3.597-2.402 3.597 0M87.922 223.32c0 2.403-3.602 2.403-3.602 0 0-2.398 3.602-2.398 3.602 0M261.836 359.398c0 2.399-3.602 2.399-3.602 0 0-2.402 3.602-2.402 3.602 0M300.086 342.98c0 2.399-3.602 2.399-3.602 0 0-2.398 3.602-2.398 3.602 0M92.973 187.848c0 2.402-3.602 2.402-3.602 0 0-2.399 3.602-2.399 3.602 0M269.285 357.23c0 2.403-3.601 2.403-3.601 0 0-2.398 3.601-2.398 3.601 0" fill="red" stroke-width=".75" stroke-linecap="round" stroke-linejoin="round" stroke="red" stroke-miterlimit="10"/><path d="M124.402 131.168c0 2.398-3.601 2.398-3.601 0 0-2.402 3.601-2.402 3.601 0M235.262 363.633c0 2.398-3.602 2.398-3.602 0 0-2.403 3.602-2.403 3.602 0M98.727 171.266c0 2.402-3.602 2.402-3.602 0 0-2.399 3.602-2.399 3.602 0M341.29 303.629c0 2.402-3.603 2.402-3.603 0 0-2.399 3.602-2.399 3.602 0M168.031 99.156c0 2.403-3.601 2.403-3.601 0 0-2.398 3.601-2.398 3.601 0M347.414 156.133c0 2.402-3.601 2.402-3.601 0 0-2.399 3.601-2.399 3.601 0M282.988 352.016c0 2.398-3.597 2.398-3.597 0 0-2.403 3.597-2.403 3.597 0M338.375 307.707c0 2.402-3.598 2.402-3.598 0 0-2.398 3.598-2.398 3.598 0M362.621 254.023c0 2.399-3.598 2.399-3.598 0 0-2.402 3.598-2.402 3.598 0M250.68 194.996c0 2.402-3.602 2.402-3.602 0 0-2.398 3.602-2.398 3.602 0" fill="red" stroke-width=".75" stroke-linecap="round" stroke-linejoin="round" stroke="red" stroke-miterlimit="10"/><path d="M250.68 194.996c0 2.402-3.602 2.402-3.602 0 0-2.398 3.602-2.398 3.602 0" fill="#0f0" stroke-width=".75" stroke-linecap="round" stroke-linejoin="round" stroke="#0f0" stroke-miterlimit="10"/></svg>