<svg baseProfile="full" xmlns="http://www.w3.org/2000/svg" width="800" height="800"><defs><radialGradient cx="-.1" cy=".1" r="1.2" fx="-.3" fy=".6" id="b" gradientUnits="userSpaceOnUse"><stop offset="0" stop-color="#b6bbce"/><stop offset=".1" stop-color="#8a94ba"/><stop offset=".3" stop-color="#5f6c99"/><stop offset="1" stop-color="#22326b"/></radialGradient><radialGradient cx=".1" cy="-.1" r="1.2" fx=".3" fy="-.6" id="a" gradientUnits="userSpaceOnUse"><stop offset="0" stop-color="#b6bbce"/><stop offset=".1" stop-color="#8a94ba"/><stop offset=".3" stop-color="#5f6c99"/><stop offset="1" stop-color="#22326b"/></radialGradient></defs><g fill="#334070"><g opacity=".2" fill="url(#a)" transform="matrix(400 0 0 -400 400 400)"><path d="M.006-.6C.06-.6.107-.621.131-.655a.078.078 0 00-.004-.101.17.17 0 00-.134-.05c-.053.001-.102.023-.126.057a.078.078 0 00.008.102c.028.032.078.05.131.049zm.001.013a.19.19 0 01-.145-.054.086.086 0 01-.008-.112c.026-.037.08-.062.139-.064.06-.002.116.02.147.056.03.034.031.076.005.112-.027.036-.08.06-.138.062z"/><path d="M.013-.471A.35.35 0 00.244-.56c.053-.05.07-.116.047-.176C.267-.797.205-.848.12-.874a.418.418 0 00-.266.008c-.08.03-.135.085-.15.147-.017.062.008.126.066.174.06.05.15.076.242.074zm0 .013A.388.388 0 01-.24-.535c-.062-.05-.087-.118-.07-.183.016-.065.075-.122.158-.154a.439.439 0 01.28-.008c.087.027.153.08.177.145.024.064.006.132-.049.185a.368.368 0 01-.243.092z"/><path d="M.018-.334a.524.524 0 00.344-.128c.078-.075.104-.17.07-.26C.4-.813.307-.889.183-.927a.626.626 0 00-.396.01c-.12.046-.203.127-.226.22-.023.09.014.184.1.254.089.073.221.113.358.109zm0 .014A.57.57 0 01-.35-.432C-.44-.505-.478-.6-.454-.694c.024-.096.11-.18.233-.226a.646.646 0 01.409-.012c.128.04.223.118.259.213.034.092.007.19-.073.267a.54.54 0 01-.355.132z"/><path d="M.024-.191a.688.688 0 00.448-.165C.574-.452.608-.574.566-.69.522-.808.4-.906.238-.956a.826.826 0 00-.517.014c-.157.058-.266.163-.296.284-.029.117.019.236.13.326a.726.726 0 00.469.14zm0 .014A.743.743 0 01-.454-.32C-.57-.412-.617-.534-.588-.653c.03-.124.142-.23.303-.29a.846.846 0 01.529-.015c.167.051.29.152.334.274.043.117.008.241-.095.339a.704.704 0 01-.459.168z"/><path d="M-.28-.96a.637.637 0 00-.374.257.337.337 0 00-.001.36c.07.117.205.21.376.26.178.052.38.052.558 0a.635.635 0 00.376-.26.337.337 0 00-.001-.36.637.637 0 00-.32-.24.603.603 0 01.344.27.341.341 0 01-.02.354.662.662 0 01-.384.253 1.043 1.043 0 01-.548 0A.662.662 0 01-.657-.32a.341.341 0 01-.021-.354.603.603 0 01.345-.27A.995.995 0 01-.28-.96z"/><path d="M-.628-.779c-.129.104-.194.237-.184.371.011.135.098.263.244.358.152.098.356.153.568.153.212 0 .416-.055.568-.153C.714-.145.8-.273.812-.408c.01-.134-.055-.267-.184-.37A.995.995 0 01.65-.76c.123.106.184.238.17.372-.016.134-.105.26-.253.354A1.08 1.08 0 010 .117a1.08 1.08 0 01-.568-.15c-.148-.093-.237-.22-.252-.354-.015-.134.045-.266.17-.372a.995.995 0 01.022-.02z"/><path d="M-.816-.577a.399.399 0 00-.027.444c.084.148.257.268.48.332.231.066.495.066.726 0C.586.135.759.015.843-.133a.399.399 0 00-.012-.423c.094.14.1.3.015.442C.759.033.585.151.362.214c-.23.065-.493.065-.724 0-.223-.063-.397-.18-.484-.328a.4.4 0 01.03-.463z"/><path d="M-.932-.363a.412.412 0 00.074.417c.106.134.286.239.507.294.225.056.477.056.702 0C.571.293.752.188.858.054A.412.412 0 00.94-.34c.05.14.022.286-.082.414C.75.205.57.308.35.363a1.497 1.497 0 01-.7 0C-.57.307-.75.204-.858.072a.414.414 0 01-.074-.436z"/><path d="M-.99-.14c-.023.164.063.328.239.453.19.134.465.211.755.21.287 0 .56-.077.747-.21.176-.126.262-.29.239-.454a.974.974 0 01.003.022c.02.165-.07.327-.248.45-.19.131-.463.206-.749.206C-.287.536-.557.46-.744.33c-.18-.123-.269-.285-.249-.45L-.99-.14z"/><path d="M-.997.081c.012.15.118.29.297.395.187.11.44.172.703.172C.264.647.515.585.7.476.88.371.985.23.997.081a.988.988 0 01-.002.022C.979.25.872.39.695.492a1.42 1.42 0 01-.698.167C-.262.66-.51.6-.694.492-.872.389-.98.25-.994.103A.988.988 0 01-.998.081z"/><path d="M-.955.297c.04.126.152.24.319.324.176.088.402.137.636.137C.234.758.46.71.637.621.803.537.916.423.955.297a1.07 1.07 0 01-.007.021C.907.441.794.553.628.635A1.449 1.449 0 010 .768c-.23 0-.453-.047-.628-.133C-.794.553-.907.44-.948.318A1.07 1.07 0 01-.955.297z"/><path d="M-.866.5c.078.135.254.246.486.306.241.062.52.062.76 0C.613.746.789.636.867.5a1 1 0 01-.011.02C.775.65.6.757.373.815a1.57 1.57 0 01-.746 0C-.6.758-.775.65-.855.519A1.02 1.02 0 01-.866.5z"/><path d="M-.73.683c.09.097.245.173.432.213.192.04.405.04.597 0C.486.855.639.78.73.682a.837.837 0 01-.44.22 1.463 1.463 0 01-.58 0 .837.837 0 01-.44-.22z"/><path d="M-.539.842c.133.085.331.134.54.134a1.034 1.034 0 00.515-.12C.386.936.196.98-.002.98A1.033 1.033 0 01-.539.842zM-.236.972z"/><path d="M-.041-1c.013 0 .03.185.044.488C.02-.194.03.203.03.52.032.818.025 1 .012 1H.03C.04 1 .047.814.045.51a27.63 27.63 0 00-.027-1.03C.004-.817-.012-1-.024-1H-.04z"/><path d="M-.172-.985c.043-.008.098.077.152.239.063.185.12.454.158.738a4.1 4.1 0 01.04.741C.168.898.138.991.096.995A.974.974 0 00.113.994C.156.989.185.892.194.722.204.527.19.252.15-.031a4.175 4.175 0 00-.157-.725C-.06-.912-.112-.995-.154-.988a.978.978 0 00-.018.003z"/><path d="M-.305-.952c.075-.024.172.047.27.2.11.168.21.42.28.694.067.271.097.538.081.737C.312.859.26.969.183.983A.94.94 0 00.2.98C.277.964.327.856.341.676.357.476.326.206.257-.068a2.449 2.449 0 00-.277-.69c-.098-.15-.193-.222-.267-.2a1.084 1.084 0 00-.018.006z"/><path d="M-.444-.896c.101-.05.236-.005.376.127.154.143.3.377.403.643.102.263.15.532.134.74C.454.805.385.93.277.96A.974.974 0 00.296.955C.402.922.469.797.483.605.498.397.448.126.346-.137a1.798 1.798 0 00-.398-.635c-.14-.132-.273-.18-.374-.132a1.017 1.017 0 00-.018.009z"/><path d="M-.587-.81c.117-.085.284-.075.464.026.194.109.385.315.524.565.137.248.21.515.202.736C.594.723.515.87.38.925A.96.96 0 00.4.916C.53.86.608.711.615.506.623.284.548.016.409-.232.27-.478.084-.68-.107-.79c-.179-.102-.345-.113-.462-.032a1.036 1.036 0 00-.018.012z"/><path d="M-.73-.683c.118-.127.306-.166.52-.107.225.062.457.227.635.452.18.226.287.49.296.723C.73.605.65.78.498.867l.02-.012C.665.766.742.592.732.373.722.139.612-.124.432-.35.256-.572.026-.735-.197-.8c-.21-.058-.397-.023-.517.1a.956.956 0 00-.016.016z"/><path d="M-.865-.503A.542.542 0 01-.47-.76a.99.99 0 01.585.105c.202.1.384.255.514.44a.99.99 0 01.195.561A.542.542 0 01.65.76.545.545 0 00.833.33a1 1 0 00-.198-.557 1.384 1.384 0 00-.51-.436 1 1 0 00-.58-.109.545.545 0 00-.41.27z"/><path d="M-.965-.264a.606.606 0 01.337-.388.97.97 0 01.61-.056c.224.046.44.158.607.314a.97.97 0 01.306.53.606.606 0 01-.106.478A.61.61 0 00.9.117a.98.98 0 00-.307-.523A1.29 1.29 0 00-.01-.718a.98.98 0 00-.604.05.61.61 0 00-.35.404z"/><path d="M-1 .019a.645.645 0 01.22-.493.962.962 0 01.58-.233c.231-.017.47.035.675.146.2.11.353.27.431.452a.645.645 0 01.009.513.648.648 0 00-.01-.535.97.97 0 00-.431-.443 1.242 1.242 0 00-.668-.144.97.97 0 00-.577.225A.648.648 0 00-1 .019z"/><path d="M-.953.303a.653.653 0 01.07-.54.96.96 0 01.49-.39c.219-.083.464-.1.692-.05a.96.96 0 01.541.316.653.653 0 01.15.496.656.656 0 00-.156-.516.969.969 0 00-.54-.308A1.232 1.232 0 00-.39-.64a.97.97 0 00-.49.382.656.656 0 00-.074.561z"/><path d="M-.84.541A.63.63 0 01-.91.017.965.965 0 01-.54-.481c.186-.136.416-.22.646-.235a.965.965 0 01.602.144.63.63 0 01.281.418.633.633 0 00-.292-.435.974.974 0 00-.598-.138 1.26 1.26 0 00-.64.233.974.974 0 00-.37.49.633.633 0 00.071.545z"/><path d="M-.701.713A.577.577 0 01-.865.246a.979.979 0 01.247-.55c.148-.172.347-.308.562-.382a.979.979 0 01.602-.028.577.577 0 01.364.3.58.58 0 00-.377-.314.987.987 0 00-.598.033 1.33 1.33 0 00-.558.38.987.987 0 00-.25.544A.58.58 0 00-.7.713z"/><path d="M-.563.827A.504.504 0 01-.773.43a1.011 1.011 0 01.15-.563c.112-.192.275-.362.462-.483.184-.118.38-.18.555-.176a.504.504 0 01.391.173C.671-.764.48-.827.255-.793.019-.757-.23-.617-.43-.41c-.198.208-.327.463-.352.7-.024.226.048.415.198.523l.02.014z"/><path d="M-.438.899C-.58.83-.663.669-.665.457c-.001-.228.089-.496.247-.735.159-.238.371-.425.582-.512.197-.08.375-.067.495.038a1.031 1.031 0 00-.017-.014C.522-.868.344-.878.148-.796c-.21.088-.419.274-.577.511-.157.237-.247.503-.247.73 0 .212.078.372.219.444l.02.01z"/><path d="M-.327.945C-.45.903-.524.768-.537.57-.551.355-.491.085-.37-.173c.12-.258.289-.478.463-.605.16-.117.311-.146.422-.08a.916.916 0 00-.018-.01C.387-.93.236-.9.077-.782c-.173.128-.34.347-.46.603s-.18.525-.168.74c.012.198.085.333.205.377l.019.007z"/><path d="M-.229.973C-.322.952-.382.837-.399.653A2.04 2.04 0 01-.29-.093c.085-.27.21-.514.341-.67.12-.142.235-.201.324-.166a1.074 1.074 0 00-.018-.006C.268-.969.153-.908.034-.766c-.13.158-.254.4-.339.67a2.06 2.06 0 00-.108.742c.015.184.074.3.166.323l.018.004z"/><path d="M-.139.99c-.06-.008-.1-.108-.114-.28a3.03 3.03 0 01.061-.747c.054-.279.134-.54.22-.716.076-.155.15-.233.21-.218A.994.994 0 00.22-.975C.162-.99.088-.91.012-.755a3.071 3.071 0 00-.218.715 3.07 3.07 0 00-.062.746c.013.172.052.272.111.282A.992.992 0 00-.139.99z"/><path d="M-.053.999C-.09.997-.11.815-.106.519-.102.196-.07-.21-.022-.529.02-.822.07-1 .106-.994A.956.956 0 00.09-.996C.053-1 .005-.823-.037-.53-.084-.21-.116.195-.121.517c-.005.296.014.478.05.48L-.053 1z"/></g><g fill="url(#b)" transform="matrix(400 0 0 -400 400 400)"><path d="M.28-.96zM.628-.779A1.017 1.017 0 000-.975a1.017 1.017 0 00-.65.216.905.905 0 01.4-.186c.163-.034.337-.034.5 0a.905.905 0 01.378.166z"/><path d="M.816-.577C.721-.712.551-.817.34-.874a1.355 1.355 0 00-.68 0c-.211.056-.381.162-.476.297a.999.999 0 00-.015.02c.093-.138.266-.249.481-.307.224-.06.476-.06.7 0 .215.058.388.169.48.308a.999.999 0 00-.014-.021z"/><path d="M.932-.363c-.068-.174-.254-.32-.509-.4a1.47 1.47 0 00-.846 0c-.255.08-.441.226-.509.4A1.014 1.014 0 00-.94-.34c.047-.13.162-.248.327-.334.173-.09.39-.139.613-.139.224 0 .44.05.613.14.165.085.28.202.327.333a1.014 1.014 0 00-.008-.022z"/><path d="M.99-.14C.969-.29.86-.428.685-.53A1.382 1.382 0 000-.7c-.255 0-.5.06-.685.169-.176.103-.284.24-.305.39a.974.974 0 00-.003.021c.018-.15.125-.29.3-.394.187-.11.435-.172.693-.172.258 0 .506.062.692.172.176.104.283.245.301.394A.974.974 0 00.99-.14z"/><path d="M.997.081C1.01-.077.917-.23.738-.348A1.378 1.378 0 000-.543c-.281 0-.55.071-.738.195-.179.117-.272.271-.259.43l.002.021c-.016-.158.075-.314.253-.432.19-.125.459-.197.742-.197s.553.072.742.197c.178.118.27.274.253.432L.997.081z"/><path d="M.955.297C.994.173.958.044.855-.067c-.11-.119-.292-.21-.51-.258a1.644 1.644 0 00-.69 0c-.218.048-.4.14-.51.258-.103.111-.139.24-.1.364a.981.981 0 00.007.021C-.99.194-.957.066-.855-.046c.11-.12.29-.211.508-.26.223-.05.47-.05.694 0 .218.049.399.14.508.26.102.112.135.24.093.364A1.07 1.07 0 00.955.297z"/><path d="M.866.5A.306.306 0 00.835.14C.74.021.567-.075.349-.126a1.587 1.587 0 00-.698 0c-.218.051-.392.147-.486.267a.306.306 0 00-.02.378A.301.301 0 01-.83.162c.092-.12.265-.216.483-.267.222-.052.474-.052.696 0 .218.05.39.147.483.267A.301.301 0 01.866.5z"/><path d="M.73.683C.828.58.845.458.778.347.708.23.548.133.34.081a1.465 1.465 0 00-.68 0C-.55.133-.708.23-.778.347c-.067.111-.05.232.048.336l.016.018C-.814.598-.834.478-.77.367-.703.25-.546.154-.339.102a1.45 1.45 0 01.678 0C.546.154.703.25.77.367.835.478.814.598.714.701L.73.683z"/><path d="M.539.842C.669.76.723.65.685.543.645.433.51.337.32.285a1.275 1.275 0 00-.638 0C-.51.337-.645.432-.685.543c-.038.106.016.216.146.3l.023.014C-.626.79-.686.705-.683.617-.68.525-.61.437-.488.372-.359.303-.183.265 0 .265s.36.038.488.107C.61.437.68.525.683.617.686.705.626.79.516.857A.999.999 0 00.539.842z"/><path d="M.236.972C.386.935.495.867.534.785.572.705.541.62.448.555A.8.8 0 000 .437a.801.801 0 00-.448.118c-.093.066-.124.15-.086.23.04.082.149.15.298.187a.999.999 0 00.052.01C-.341.955-.462.889-.511.808-.557.729-.533.644-.444.577-.345.5-.178.454 0 .454s.345.046.444.121c.09.068.113.153.067.231C.46.888.34.954.184.983L.236.972z"/><path d="M.016.991A.552.552 0 00.313.91C.377.864.398.806.37.752.341.696.264.65.159.626a.73.73 0 00-.347.007c-.1.029-.169.078-.189.134-.018.055.011.112.083.155a.6.6 0 00.31.07zm0-.002A.573.573 0 01-.282.923C-.349.882-.377.828-.359.775c.019-.053.085-.1.18-.127A.697.697 0 01.15.64c.1.023.174.067.202.12C.38.813.36.868.298.91A.527.527 0 01.015.99z"/><path d="M.008.95C.081.95.145.928.178.897.208.866.207.83.172.801A.286.286 0 00-.007.753C-.081.754-.147.776-.18.81c-.03.03-.026.066.01.094A.29.29 0 00.008.95zm0-.006A.263.263 0 01-.154.902C-.186.876-.19.844-.163.816c.03-.03.09-.049.157-.05A.26.26 0 01.156.81c.031.026.033.058.005.086C.131.924.073.943.008.944z"/><path d="M.012 1C-.001 1-.017.828-.031.543-.048.213-.059-.211-.06-.541c0-.285.006-.458.019-.458h.017c-.011 0-.017.172-.016.458.002.33.013.754.03 1.084C.002.828.017 1 .03 1H.012z"/><path d="M.096.995C.054 1 0 .918-.051.765a4.124 4.124 0 01-.16-.737 4.124 4.124 0 01-.041-.752c.01-.161.039-.254.08-.261a.95.95 0 01.018-.003c-.041.006-.07.098-.079.26-.012.193.004.468.042.754.039.286.097.555.16.738.052.153.103.234.144.23a.974.974 0 01-.017.001z"/><path d="M.183.983C.109.997.015.923-.08.776A2.444 2.444 0 01-.354.09a2.445 2.445 0 01-.084-.735c.014-.174.06-.283.133-.306a.995.995 0 01.018-.006c-.072.022-.12.13-.133.304a2.46 2.46 0 00.084.739c.069.271.17.522.277.69.094.147.186.22.26.205a.94.94 0 01-.018.003z"/><path d="M.277.96C.175.99.045.935-.088.804A1.826 1.826 0 01-.47.183a1.826 1.826 0 01-.136-.716c.01-.187.067-.316.162-.363l.018-.009c-.096.046-.155.175-.165.363-.01.206.04.465.138.718.098.253.236.478.382.623.134.132.265.188.367.156a.974.974 0 01-.02.006z"/><path d="M.38.925C.259.975.099.945-.067.838A1.521 1.521 0 01-.544.303a1.521 1.521 0 01-.205-.685c-.003-.197.055-.35.162-.428l.018-.012c-.11.076-.17.228-.167.427.003.212.077.46.206.69.128.231.301.425.48.539C.117.94.278.97.4.916a.96.96 0 01-.02.009z"/><path d="M.498.867C.365.944.186.947-.006.874A1.349 1.349 0 01-.564.447a1.349 1.349 0 01-.289-.64c-.026-.203.017-.377.122-.49a.956.956 0 01.016-.016c-.109.11-.154.285-.129.49.027.215.131.447.29.648.16.2.363.355.566.43.193.072.373.067.506-.014a.977.977 0 01-.02.012z"/><path d="M.63.776C.5.883.314.926.107.896A1.248 1.248 0 01-.515.604 1.248 1.248 0 01-.902.035c-.061-.2-.048-.391.037-.538a.97.97 0 01.013-.021c-.09.146-.106.338-.046.54.062.21.202.416.39.578.19.161.414.267.63.295C.333.917.52.871.65.76L.63.777z"/><path d="M.772.635a.734.734 0 01-.499.248 1.188 1.188 0 01-.66-.135A1.188 1.188 0 01-.88.286.734.734 0 01-.957-.29.725.725 0 00-.88.268c.105.192.282.36.497.47.216.112.455.16.672.135A.725.725 0 00.772.635z"/><path d="M.903.43a.77.77 0 01-.424.374C.28.883.045.9-.184.85A1.158 1.158 0 01-.769.534a.77.77 0 01-.23-.545.761.761 0 00.223.527c.15.159.361.274.594.324.233.05.473.033.675-.05a.761.761 0 00.41-.36z"/><path d="M.986.164a.777.777 0 01-.302.479c-.17.131-.39.213-.621.23a1.152 1.152 0 01-.648-.14.776.776 0 01-.377-.458c.052.179.18.336.365.444.188.11.422.16.659.144C.299.846.522.762.694.626A.769.769 0 00.986.164z"/><path d="M.992-.126a.755.755 0 01-.157.54 1.17 1.17 0 01-.541.393 1.17 1.17 0 01-.667.046.755.755 0 01-.483-.336c.095.157.26.272.468.325C-.176.895.065.88.29.797A1.17 1.17 0 00.84.395a.747.747 0 00.153-.521z"/><path d="M.92-.39A.706.706 0 01.9.159C.818.358.662.543.463.679c-.2.135-.429.213-.645.217A.706.706 0 01-.72.694.698.698 0 00-.2.888C.02.885.253.808.455.669.658.531.816.343.9.14a.698.698 0 00.022-.53z"/><path d="M.8-.6c.098.13.128.314.085.517C.841.128.721.345.55.525c-.172.18-.383.31-.591.363-.201.052-.386.03-.52-.061a.997.997 0 01-.02-.014c.133.096.319.12.522.069C.151.829.366.698.54.516S.835.113.878-.1C.92-.305.888-.49.785-.619l.015.02z"/><path d="M.66-.752c.108.095.16.259.146.46a1.424 1.424 0 01-.244.665 1.423 1.423 0 01-.52.484c-.179.09-.35.105-.48.042a1 1 0 01-.02-.01c.13.067.301.054.483-.037.192-.095.38-.27.524-.487.144-.217.233-.458.246-.673C.808-.51.754-.673.642-.766l.017.014z"/><path d="M.515-.857c.103.062.162.202.166.395A1.65 1.65 0 01.513.24a1.65 1.65 0 01-.43.58c-.15.12-.297.164-.41.125a1.028 1.028 0 01-.02-.007c.114.042.26-.002.412-.122C.228.685.385.475.498.232.61-.01.672-.265.667-.474.662-.667.602-.808.497-.868a.916.916 0 01.018.01z"/><path d="M.374-.928c.085.035.138.153.15.334C.539-.392.5-.13.417.132a2.075 2.075 0 01-.33.656c-.113.14-.226.206-.315.185A1.053 1.053 0 01-.247.97c.088.022.2-.043.314-.183C.195.628.315.39.4.126.482-.137.522-.4.508-.604.495-.783.44-.901.356-.933l.018.006z"/><path d="M.238-.971c.057.014.096.114.108.281.015.196-.007.467-.06.745a3.036 3.036 0 01-.22.714c-.073.15-.146.23-.205.221L-.157.988c.058.009.13-.07.204-.22C.132.591.212.331.266.051.32-.229.342-.5.328-.696.315-.863.278-.963.22-.976a.994.994 0 01.018.005z"/><path d="M.106-.994c.036.003.056.178.053.463C.155-.2.12.222.072.55.03.83-.018 1-.053.999L-.071.997C-.036 1 .01.831.052.548.1.221.134-.202.139-.533.142-.82.124-.993.089-.996a1 1 0 01.017.002z"/></g></g></svg>