<svg xmlns="http://www.w3.org/2000/svg" xmlns:xlink="http://www.w3.org/1999/xlink" width="700" height="700" viewBox="0 0 525 525"><defs><symbol overflow="visible" id="a"><path d="M-6.25-.672l.11-1.375 2.327-1.25-2.109-1.625.14-1.281 2.86 2.36L.453-5.798.36-4.453l-2.484 1.375L.109-1.406 0-.063-3.016-2.53zm0 0"/></symbol><symbol overflow="visible" id="b"><path d="M4.688-6.281h1.171a366.11 366.11 0 00-.984 2.765A151.46 151.46 0 013.906-.89C3.301.711 2.875 1.691 2.625 2.047c-.25.351-.684.531-1.297.531-.148 0-.262-.012-.344-.031a3.486 3.486 0 01-.296-.063v-.953c.187.051.32.082.406.094.082.008.156.016.218.016.188 0 .329-.032.422-.094a.837.837 0 00.235-.234c.02-.032.086-.196.203-.485.125-.293.21-.508.265-.64L.126-6.282h1.188L3-1.171zM3-6.421zm0 0"/></symbol><symbol overflow="visible" id="c"><path d="M.484-.75l4.579-3.594-3.375-.734.203-.938 4.75 1.032-.172.843L1.906-.547l3.735.813-.204.921L.313.063zm3.829-4.89zm0 0"/></symbol></defs><path fill="#fff" d="M0 0h525v525H0z"/><path d="M165.578 232.004L107.465 91.219M107.465 91.219L64.187 408.457M64.188 408.457l86.078 25.324M150.266 433.781l15.312-201.777M359.422 232.004l15.312 201.777M374.734 433.781l86.079-25.324M460.813 408.457L417.534 91.219M417.535 91.219l-58.113 140.785M165.578 232.004h193.844M417.535 91.219h-310.07M150.266 433.781h224.468" fill="none" stroke-width=".75" stroke-linecap="round" stroke-linejoin="round" stroke="#000" stroke-miterlimit="10"/><use xlink:href="#a" x="152.809" y="332.066"/><path d="M159.531 251.953l-12.664 159.512M146.184 404.297l.683 7.168 1.809-6.969" fill="none" stroke-width=".75" stroke-linecap="round" stroke-linejoin="round" stroke="#000" stroke-miterlimit="10"/><use xlink:href="#b" x="259.5" y="452.723"/><path d="M173.406 441.16h178.188M344.504 442.41l7.09-1.25-7.09-1.254" fill="none" stroke-width=".75" stroke-linecap="round" stroke-linejoin="round" stroke="#000" stroke-miterlimit="10"/><use xlink:href="#c" x="96.145" y="446.211"/><path d="M128.348 437.645l-43.5-9.45M92.04 428.477l-7.192-.282 6.66 2.727" fill="none" stroke-width=".75" stroke-linecap="round" stroke-linejoin="round" stroke="#000" stroke-miterlimit="10"/><path d="M64.188 408.457h396.625" fill="none" stroke-width=".75" stroke-linecap="round" stroke-linejoin="round" stroke="#000" stroke-dasharray=".75,2.25" stroke-miterlimit="10"/><path d="M165.578 232.004L107.465 91.219 64.187 408.457l86.079 25.324zm0 0" fill="#fff"/><path d="M165.578 232.004L107.465 91.219 64.187 408.457l86.079 25.324 15.312-201.777" fill="none" stroke-width=".75" stroke-linecap="round" stroke-linejoin="round" stroke="#000" stroke-miterlimit="10"/><path d="M359.422 232.004l15.312 201.777 86.079-25.324-43.278-317.238zm0 0" fill="#fff"/><path d="M359.422 232.004l15.312 201.777 86.079-25.324-43.278-317.238-58.113 140.785" fill="none" stroke-width=".75" stroke-linecap="round" stroke-linejoin="round" stroke="#000" stroke-miterlimit="10"/><path d="M165.578 232.004h193.844l58.113-140.785h-310.07zm0 0" fill="#fff"/><path d="M165.578 232.004h193.844l58.113-140.785h-310.07l58.113 140.785" fill="none" stroke-width=".75" stroke-linecap="round" stroke-linejoin="round" stroke="#000" stroke-miterlimit="10"/><path d="M165.578 232.004L150.266 433.78h224.468l-15.312-201.777zm0 0" fill="#fff"/><path d="M165.578 232.004L150.266 433.78h224.468l-15.312-201.777H165.578" fill="none" stroke-width=".75" stroke-linecap="round" stroke-linejoin="round" stroke="#000" stroke-miterlimit="10"/><path d="M104.04 116.332l60.21 133.172M96.633 170.629l64.82 115.742M88.5 230.25l69.992 95.152M79.523 296.02l75.829 70.77M69.578 368.941l82.438 41.813M136.613 429.762l18.95-222.024M119.156 424.629l24.067-246.781M96.078 417.84l31.59-277.68M369.438 207.738H155.563M381.777 177.848H143.223M397.332 140.16H127.668M138.41 91.219l46.512 140.785M200.453 91.219l23.258 140.785M262.5 91.219v140.785M324.547 91.219l-23.258 140.785M386.59 91.219l-46.512 140.785M420.96 116.332l-60.21 133.172M428.367 170.629l-64.82 115.742M436.5 230.25l-69.992 95.152M445.477 296.02l-75.829 70.77M455.422 368.941l-82.438 41.813M388.387 429.762l-18.95-222.024M405.844 424.629l-24.067-246.781M428.922 417.84l-31.59-277.68M360.75 249.504h-196.5M363.547 286.371H161.453M366.508 325.402H158.492M369.648 366.79H155.352M372.984 410.754H152.016M172.668 433.781l12.254-201.777M217.582 433.781l6.129-201.777M262.5 433.781V232.004M307.418 433.781l-6.129-201.777M352.332 433.781l-12.254-201.777" fill="none" stroke-width=".75" stroke-linecap="round" stroke-linejoin="round" stroke="#bebebe" stroke-miterlimit="10"/><path d="M269.645 177.348h1v1h-1zm0 0" fill="#666"/><path d="M269.645 177.348h1v1h-1zm0 0M254.355 177.348h1v1h-1zm0 0" fill="#666"/><path d="M254.355 177.348h1v1h-1zm0 0M269.855 168.906h1v1h-1zm0 0M269.406 185.96h1v1h-1zm0 0M254.145 168.906h1v1h-1zm0 0M254.594 185.96h1v1h-1zm0 0M270.023 160.79h1v1h-1zm0 0M269.137 194.613h1v1h-1zm0 0M253.977 160.79h1v1h-1zm0 0M254.863 194.613h1v1h-1zm0 0M284.844 179.035h1v1h-1zm0 0" fill="#666"/><path d="M284.844 179.035h1v1h-1zm0 0M239.156 179.035h1v1h-1zm0 0" fill="#666"/><path d="M239.156 179.035h1v1h-1zm0 0M285.469 170.625h1v1h-1zm0 0M284.121 187.605h1v1h-1zm0 0M238.531 170.625h1v1h-1zm0 0M239.879 187.605h1v1h-1zm0 0M270.148 153.168h1v1h-1zm0 0M268.848 203.195h1v1h-1zm0 0M253.852 153.168h1v1h-1zm0 0M255.152 203.195h1v1h-1zm0 0M285.977 162.535h1v1h-1zm0 0M283.316 196.207h1v1h-1zm0 0M238.023 162.535h1v1h-1zm0 0M240.684 196.207h1v1h-1zm0 0M286.348 154.93h1v1h-1zm0 0M282.453 204.734h1v1h-1zm0 0M237.652 154.93h1v1h-1zm0 0M241.547 204.734h1v1h-1zm0 0M299.758 182.395h1v1h-1zm0 0" fill="#666"/><path d="M299.758 182.395h1v1h-1zm0 0M224.242 182.395h1v1h-1zm0 0" fill="#666"/><path d="M224.242 182.395h1v1h-1zm0 0M270.219 146.25h1v1h-1zm0 0M268.54 211.617h1v1h-1zm0 0M253.781 146.25h1v1h-1zm0 0M255.46 211.617h1v1h-1zm0 0M300.797 174.055h1v1h-1zm0 0M298.563 190.879h1v1h-1zm0 0M223.203 174.055h1v1h-1zm0 0M225.438 190.879h1v1h-1zm0 0M301.637 166.012h1v1h-1zm0 0M297.23 199.387h1v1h-1zm0 0M222.363 166.012h1v1h-1zm0 0M226.77 199.387h1v1h-1zm0 0M286.559 148.016h1v1h-1zm0 0M237.441 148.016h1v1h-1zm0 0M281.535 213.098h1v1h-1zm0 0M242.465 213.098h1v1h-1zm0 0M302.25 158.441h1v1h-1zm0 0M295.797 207.805h1v1h-1zm0 0M221.75 158.441h1v1h-1zm0 0M228.203 207.805h1v1h-1zm0 0M270.23 140.242h1v1h-1zm0 0M268.223 219.8h1v1h-1zm0 0M253.77 140.242h1v1h-1zm0 0M255.777 219.8h1v1h-1zm0 0M286.59 142.004h1v1h-1zm0 0M280.582 221.219h1v1h-1zm0 0M237.41 142.004h1v1h-1zm0 0M243.418 221.219h1v1h-1zm0 0M314.203 187.395h1v1h-1zm0 0" fill="#666"/><path d="M314.203 187.395h1v1h-1zm0 0M209.797 187.395h1v1h-1zm0 0" fill="#666"/><path d="M209.797 187.395h1v1h-1zm0 0M302.598 151.535h1v1h-1zm0 0M294.277 216.05h1v1h-1zm0 0M221.402 151.535h1v1h-1zm0 0M229.723 216.05h1v1h-1zm0 0M315.64 179.16h1v1h-1zm0 0M312.543 195.758h1v1h-1zm0 0M208.36 179.16h1v1h-1zm0 0M211.457 195.758h1v1h-1zm0 0M316.809 171.195h1v1h-1zm0 0M310.695 204.117h1v1h-1zm0 0M207.191 171.195h1v1h-1zm0 0M213.305 204.117h1v1h-1zm0 0M270.176 135.379h1v1h-1zm0 0M267.895 227.688h1v1h-1zm0 0M253.824 135.379h1v1h-1zm0 0M256.105 227.688h1v1h-1zm0 0M317.66 163.672h1v1h-1zm0 0M308.703 212.375h1v1h-1zm0 0M206.34 163.672h1v1h-1zm0 0M215.297 212.375h1v1h-1zm0 0M302.652 145.512h1v1h-1zm0 0M292.7 224.047h1v1h-1zm0 0M221.348 145.512h1v1h-1zm0 0M231.3 224.047h1v1h-1zm0 0M286.426 137.121h1v1h-1zm0 0M279.605 229.04h1v1h-1zm0 0M237.574 137.121h1v1h-1zm0 0M244.395 229.04h1v1h-1zm0 0M318.148 156.781h1v1h-1zm0 0M306.602 220.441h1v1h-1zm0 0M205.852 156.781h1v1h-1zm0 0M217.398 220.441h1v1h-1zm0 0M270.047 131.883h1v1h-1zm0 0M267.563 235.219h1v1h-1zm0 0M253.953 131.883h1v1h-1zm0 0M256.438 235.219h1v1h-1zm0 0M302.379 140.59h1v1h-1zm0 0M291.078 231.73h1v1h-1zm0 0M221.621 140.59h1v1h-1zm0 0M232.922 231.73h1v1h-1zm0 0M327.988 194h1v1h-1zm0 0" fill="#666"/><path d="M327.988 194h1v1h-1zm0 0M196.012 194h1v1h-1zm0 0" fill="#666"/><path d="M196.012 194h1v1h-1zm0 0M329.816 185.902h1v1h-1zm0 0M325.875 202.195h1v1h-1zm0 0M194.184 185.902h1v1h-1zm0 0M198.125 202.195h1v1h-1zm0 0M286.047 133.594h1v1h-1zm0 0M278.61 236.5h1v1h-1zm0 0M237.953 133.594h1v1h-1zm0 0M245.39 236.5h1v1h-1zm0 0M318.223 150.738h1v1h-1zm0 0M304.41 228.25h1v1h-1zm0 0M205.777 150.738h1v1h-1zm0 0M219.59 228.25h1v1h-1zm0 0M192.7 178.04h1v1h-1zm0 0M200.469 210.36h1v1h-1zm0 0M331.3 178.04h1v1h-1zm0 0M323.531 210.36h1v1h-1zm0 0M332.387 170.582h1v1h-1zm0 0M321.004 218.398h1v1h-1zm0 0M191.613 170.582h1v1h-1zm0 0M202.996 218.398h1v1h-1zm0 0M301.754 137h1v1h-1zm0 0M289.434 239.059h1v1h-1zm0 0M222.246 137h1v1h-1zm0 0M234.566 239.059h1v1h-1zm0 0M269.848 129.969h1v1h-1zm0 0M254.152 129.969h1v1h-1zm0 0M267.227 242.352h1v1h-1zm0 0M256.773 242.352h1v1h-1zm0 0M317.84 145.762h1v1h-1zm0 0M302.168 235.734h1v1h-1zm0 0M206.16 145.762h1v1h-1zm0 0M221.832 235.734h1v1h-1zm0 0M333.004 163.715h1v1h-1zm0 0M318.332 226.23h1v1h-1zm0 0M190.996 163.715h1v1h-1zm0 0M205.668 226.23h1v1h-1zm0 0M285.45 131.633h1v1h-1zm0 0M277.605 243.563h1v1h-1zm0 0M238.55 131.633h1v1h-1zm0 0M246.395 243.563h1v1h-1zm0 0M333.098 157.64h1v1h-1zm0 0M315.559 233.785h1v1h-1zm0 0M190.902 157.64h1v1h-1zm0 0M208.441 233.785h1v1h-1zm0 0M300.766 134.95h1v1h-1zm0 0M287.773 245.977h1v1h-1zm0 0M223.234 134.95h1v1h-1zm0 0M236.227 245.977h1v1h-1zm0 0M207.027 142.074h1v1h-1zm0 0M224.113 242.855h1v1h-1zm0 0M316.973 142.074h1v1h-1zm0 0M299.887 242.855h1v1h-1zm0 0M340.926 202.148h1v1h-1zm0 0" fill="#666"/><path d="M340.926 202.148h1v1h-1zm0 0M183.074 202.148h1v1h-1zm0 0" fill="#666"/><path d="M183.074 202.148h1v1h-1zm0 0M269.574 129.813h1v1h-1zm0 0M254.426 129.813h1v1h-1zm0 0M266.89 249.043h1v1h-1zm0 0M257.11 249.043h1v1h-1zm0 0M180.871 194.223h1v1h-1zm0 0M185.617 210.129h1v1h-1zm0 0M343.129 194.223h1v1h-1zm0 0M338.383 210.129h1v1h-1zm0 0M344.918 186.488h1v1h-1zm0 0M335.563 218.05h1v1h-1zm0 0M179.082 186.488h1v1h-1zm0 0M188.438 218.05h1v1h-1zm0 0M284.633 131.418h1v1h-1zm0 0M239.367 131.418h1v1h-1zm0 0M276.605 250.184h1v1h-1zm0 0M247.395 250.184h1v1h-1zm0 0M332.613 152.59h1v1h-1zm0 0M312.71 241.012h1v1h-1zm0 0M191.387 152.59h1v1h-1zm0 0M211.29 241.012h1v1h-1zm0 0M346.223 179.11h1v1h-1zm0 0M332.523 225.82h1v1h-1zm0 0M177.777 179.11h1v1h-1zm0 0M191.477 225.82h1v1h-1zm0 0M315.602 139.887h1v1h-1zm0 0M297.59 249.566h1v1h-1zm0 0M208.398 139.887h1v1h-1zm0 0M226.41 249.566h1v1h-1zm0 0M299.41 134.617h1v1h-1zm0 0M286.117 252.457h1v1h-1zm0 0M224.59 134.617h1v1h-1zm0 0M237.883 252.457h1v1h-1zm0 0M346.965 172.27h1v1h-1zm0 0M177.035 172.27h1v1h-1zm0 0M194.688 233.36h1v1h-1zm0 0M329.313 233.36h1v1h-1zm0 0M269.23 131.543h1v1h-1zm0 0M254.77 131.543h1v1h-1zm0 0M266.559 255.258h1v1h-1zm0 0M257.441 255.258h1v1h-1zm0 0M331.512 148.773h1v1h-1zm0 0M309.82 247.855h1v1h-1zm0 0M192.488 148.773h1v1h-1zm0 0M214.18 247.855h1v1h-1zm0 0M347.078 166.168h1v1h-1zm0 0M325.98 240.602h1v1h-1zm0 0M176.922 166.168h1v1h-1zm0 0M198.02 240.602h1v1h-1zm0 0M283.602 133.078h1v1h-1zm0 0M275.613 256.328h1v1h-1zm0 0M240.398 133.078h1v1h-1zm0 0M248.387 256.328h1v1h-1zm0 0M313.719 139.383h1v1h-1zm0 0M210.281 139.383h1v1h-1zm0 0M295.297 255.828h1v1h-1zm0 0M228.703 255.828h1v1h-1zm0 0M226.297 136.137h1v1h-1zm0 0M297.703 136.137h1v1h-1zm0 0M284.477 258.453h1v1h-1zm0 0M239.523 258.453h1v1h-1zm0 0M329.762 146.41h1v1h-1zm0 0M306.91 254.285h1v1h-1zm0 0M194.238 146.41h1v1h-1zm0 0M217.09 254.285h1v1h-1zm0 0M346.496 161.02h1v1h-1zm0 0M322.559 247.496h1v1h-1zm0 0M177.504 161.02h1v1h-1zm0 0M201.441 247.496h1v1h-1zm0 0M171.172 211.758h1v1h-1zm0 0" fill="#666"/><path d="M171.172 211.758h1v1h-1zm0 0M352.828 211.758h1v1h-1zm0 0" fill="#666"/><path d="M352.828 211.758h1v1h-1zm0 0M168.621 204.04h1v1h-1zm0 0M174.121 219.488h1v1h-1zm0 0M355.379 204.04h1v1h-1zm0 0M349.879 219.488h1v1h-1zm0 0M357.457 196.465h1v1h-1zm0 0M346.613 227.121h1v1h-1zm0 0M166.543 196.465h1v1h-1zm0 0M177.387 227.121h1v1h-1zm0 0M268.82 135.215h1v1h-1zm0 0M266.23 260.96h1v1h-1zm0 0M255.18 135.215h1v1h-1zm0 0M257.77 260.96h1v1h-1zm0 0M165.027 189.184h1v1h-1zm0 0M180.91 234.566h1v1h-1zm0 0M358.973 189.184h1v1h-1zm0 0M343.09 234.566h1v1h-1zm0 0M282.379 136.668h1v1h-1zm0 0M241.621 136.668h1v1h-1zm0 0M249.367 261.957h1v1h-1zm0 0M274.633 261.957h1v1h-1zm0 0M345.168 157.047h1v1h-1zm0 0M319.09 254.004h1v1h-1zm0 0M178.832 157.047h1v1h-1zm0 0M204.91 254.004h1v1h-1zm0 0M311.348 140.688h1v1h-1zm0 0M293.023 261.61h1v1h-1zm0 0M212.652 140.688h1v1h-1zm0 0M230.977 261.61h1v1h-1zm0 0M327.371 145.672h1v1h-1zm0 0M196.629 145.672h1v1h-1zm0 0M219.992 260.266h1v1h-1zm0 0M304.008 260.266h1v1h-1zm0 0M164.164 182.375h1v1h-1zm0 0M184.625 241.75h1v1h-1zm0 0M359.836 182.375h1v1h-1zm0 0M339.375 241.75h1v1h-1zm0 0M228.324 139.559h1v1h-1zm0 0M295.676 139.559h1v1h-1zm0 0M282.855 263.938h1v1h-1zm0 0M241.145 263.938h1v1h-1zm0 0M164.031 176.234h1v1h-1zm0 0M188.48 248.621h1v1h-1zm0 0M359.969 176.234h1v1h-1zm0 0M335.52 248.621h1v1h-1zm0 0M180.938 154.453h1v1h-1zm0 0M343.063 154.453h1v1h-1zm0 0M315.602 260.09h1v1h-1zm0 0M208.398 260.09h1v1h-1zm0 0M268.36 140.797h1v1h-1zm0 0M265.91 266.113h1v1h-1zm0 0M255.64 140.797h1v1h-1zm0 0M258.09 266.113h1v1h-1zm0 0M280.992 142.156h1v1h-1zm0 0M243.008 142.156h1v1h-1zm0 0M273.676 267.04h1v1h-1zm0 0M250.324 267.04h1v1h-1zm0 0M324.363 146.691h1v1h-1zm0 0M301.129 265.762h1v1h-1zm0 0M199.637 146.691h1v1h-1zm0 0M222.871 265.762h1v1h-1zm0 0M215.46 143.863h1v1h-1zm0 0M308.54 143.863h1v1h-1zm0 0M290.781 266.883h1v1h-1zm0 0M233.219 266.883h1v1h-1zm0 0M164.71 170.973h1v1h-1zm0 0M192.434 255.125h1v1h-1zm0 0M359.29 170.973h1v1h-1zm0 0M331.566 255.125h1v1h-1zm0 0M293.379 144.863h1v1h-1zm0 0M281.273 268.875h1v1h-1zm0 0M230.621 144.863h1v1h-1zm0 0M242.727 268.875h1v1h-1zm0 0M340.184 153.426h1v1h-1zm0 0M312.121 265.715h1v1h-1zm0 0M183.816 153.426h1v1h-1zm0 0M211.879 265.715h1v1h-1zm0 0M363.508 222.738h1v1h-1zm0 0" fill="#666"/><path d="M363.508 222.738h1v1h-1zm0 0M160.492 222.738h1v1h-1zm0 0" fill="#666"/><path d="M160.492 222.738h1v1h-1zm0 0M166.254 166.813h1v1h-1zm0 0M196.438 261.23h1v1h-1zm0 0M357.746 166.813h1v1h-1zm0 0M327.563 261.23h1v1h-1zm0 0M157.613 215.262h1v1h-1zm0 0M163.813 230.172h1v1h-1zm0 0M366.387 215.262h1v1h-1zm0 0M360.188 230.172h1v1h-1zm0 0M368.73 207.867h1v1h-1zm0 0M356.504 237.465h1v1h-1zm0 0M155.27 207.867h1v1h-1zm0 0M167.496 237.465h1v1h-1zm0 0M267.855 148.164h1v1h-1zm0 0M265.598 270.68h1v1h-1zm0 0M256.145 148.164h1v1h-1zm0 0M258.402 270.68h1v1h-1zm0 0M320.793 149.54h1v1h-1zm0 0M298.297 270.746h1v1h-1zm0 0M203.207 149.54h1v1h-1zm0 0M225.703 270.746h1v1h-1zm0 0M370.438 200.7h1v1h-1zm0 0M352.543 244.535h1v1h-1zm0 0M153.563 200.7h1v1h-1zm0 0M171.457 244.535h1v1h-1zm0 0M305.355 148.89h1v1h-1zm0 0M288.594 271.605h1v1h-1zm0 0M218.645 148.89h1v1h-1zm0 0M235.406 271.605h1v1h-1zm0 0M279.484 149.426h1v1h-1zm0 0M272.746 271.535h1v1h-1zm0 0M244.516 149.426h1v1h-1zm0 0M251.254 271.535h1v1h-1zm0 0M187.438 154.094h1v1h-1zm0 0M215.324 270.86h1v1h-1zm0 0M336.563 154.094h1v1h-1zm0 0M308.676 270.86h1v1h-1zm0 0M168.695 163.95h1v1h-1zm0 0M200.465 266.902h1v1h-1zm0 0M355.305 163.95h1v1h-1zm0 0M323.535 266.902h1v1h-1zm0 0M371.414 193.93h1v1h-1zm0 0M348.363 251.316h1v1h-1zm0 0M152.586 193.93h1v1h-1zm0 0M175.637 251.316h1v1h-1zm0 0M290.879 151.934h1v1h-1zm0 0M279.738 273.23h1v1h-1zm0 0M233.121 151.934h1v1h-1zm0 0M244.262 273.23h1v1h-1zm0 0M152.438 187.75h1v1h-1zm0 0M179.973 257.754h1v1h-1zm0 0M371.563 187.75h1v1h-1zm0 0M344.027 257.754h1v1h-1zm0 0M316.754 154.2h1v1h-1zm0 0M295.527 275.191h1v1h-1zm0 0M207.246 154.2h1v1h-1zm0 0M228.473 275.191h1v1h-1zm0 0M172.035 162.574h1v1h-1zm0 0M351.965 162.574h1v1h-1zm0 0M319.52 272.113h1v1h-1zm0 0M204.48 272.113h1v1h-1zm0 0M267.324 157.113h1v1h-1zm0 0M265.3 274.617h1v1h-1zm0 0M256.676 157.113h1v1h-1zm0 0M258.7 274.617h1v1h-1zm0 0M153.2 182.36h1v1h-1zm0 0M184.41 263.809h1v1h-1zm0 0M370.8 182.36h1v1h-1zm0 0M339.59 263.809h1v1h-1zm0 0M301.89 155.66h1v1h-1zm0 0M222.11 155.66h1v1h-1zm0 0M237.531 275.75h1v1h-1zm0 0M286.469 275.75h1v1h-1zm0 0M332.27 156.531h1v1h-1zm0 0M305.285 275.492h1v1h-1zm0 0M191.73 156.531h1v1h-1zm0 0M218.715 275.492h1v1h-1zm0 0M277.895 158.266h1v1h-1zm0 0M271.852 275.402h1v1h-1zm0 0M246.105 158.266h1v1h-1zm0 0M252.148 275.402h1v1h-1zm0 0M154.941 177.977h1v1h-1zm0 0M188.906 269.45h1v1h-1zm0 0M369.059 177.977h1v1h-1zm0 0M335.094 269.45h1v1h-1zm0 0M288.254 160.563h1v1h-1zm0 0M278.258 276.965h1v1h-1zm0 0M235.746 160.563h1v1h-1zm0 0M245.742 276.965h1v1h-1zm0 0M347.77 162.82h1v1h-1zm0 0M315.547 276.836h1v1h-1zm0 0M176.23 162.82h1v1h-1zm0 0M208.453 276.836h1v1h-1zm0 0M312.36 160.57h1v1h-1zm0 0M211.64 160.57h1v1h-1zm0 0M231.156 279.059h1v1h-1zm0 0M292.844 279.059h1v1h-1zm0 0M327.414 160.734h1v1h-1zm0 0M301.973 279.586h1v1h-1zm0 0M196.586 160.734h1v1h-1zm0 0M222.027 279.586h1v1h-1zm0 0M151.21 234.969h1v1h-1zm0 0" fill="#666"/><path d="M151.21 234.969h1v1h-1zm0 0M372.79 234.969h1v1h-1zm0 0" fill="#666"/><path d="M372.79 234.969h1v1h-1zm0 0M366.305 174.8h1v1h-1zm0 0M330.578 274.645h1v1h-1zm0 0M157.695 174.8h1v1h-1zm0 0M193.422 274.645h1v1h-1zm0 0M148.04 227.77h1v1h-1zm0 0M154.871 242.07h1v1h-1zm0 0M375.96 227.77h1v1h-1zm0 0M369.129 242.07h1v1h-1zm0 0M266.781 167.348h1v1h-1zm0 0M265.016 277.887h1v1h-1zm0 0M257.219 167.348h1v1h-1zm0 0M258.984 277.887h1v1h-1zm0 0M298.254 163.977h1v1h-1zm0 0M284.426 279.277h1v1h-1zm0 0M225.746 163.977h1v1h-1zm0 0M239.574 279.277h1v1h-1zm0 0M378.547 220.582h1v1h-1zm0 0M365.078 248.977h1v1h-1zm0 0M145.453 220.582h1v1h-1zm0 0M158.922 248.977h1v1h-1zm0 0M276.281 168.395h1v1h-1zm0 0M271 278.605h1v1h-1zm0 0M247.719 168.395h1v1h-1zm0 0M253 278.605h1v1h-1zm0 0M143.57 213.547h1v1h-1zm0 0M163.285 255.621h1v1h-1zm0 0M380.43 213.547h1v1h-1zm0 0M360.715 255.621h1v1h-1zm0 0M181.203 164.77h1v1h-1zm0 0M212.363 281.055h1v1h-1zm0 0M342.797 164.77h1v1h-1zm0 0M311.637 281.055h1v1h-1zm0 0M381.508 206.824h1v1h-1zm0 0M356.121 261.941h1v1h-1zm0 0M142.492 206.824h1v1h-1zm0 0M167.879 261.941h1v1h-1zm0 0M285.586 170.477h1v1h-1zm0 0M276.852 280.031h1v1h-1zm0 0M238.414 170.477h1v1h-1zm0 0M247.148 280.031h1v1h-1zm0 0M161.46 173.023h1v1h-1zm0 0M362.54 173.023h1v1h-1zm0 0M326.078 279.375h1v1h-1zm0 0M197.922 279.375h1v1h-1zm0 0M216.25 168.469h1v1h-1zm0 0M307.75 168.469h1v1h-1zm0 0M290.262 282.316h1v1h-1zm0 0M233.738 282.316h1v1h-1zm0 0M322.14 166.61h1v1h-1zm0 0M298.762 283.113h1v1h-1zm0 0M201.86 166.61h1v1h-1zm0 0M225.238 283.113h1v1h-1zm0 0M142.328 200.598h1v1h-1zm0 0M381.672 200.598h1v1h-1zm0 0M351.363 267.89h1v1h-1zm0 0M172.637 267.89h1v1h-1zm0 0M294.559 173.566h1v1h-1zm0 0M282.48 282.152h1v1h-1zm0 0M229.441 173.566h1v1h-1zm0 0M241.52 282.152h1v1h-1zm0 0M266.25 178.531h1v1h-1zm0 0M264.746 280.438h1v1h-1zm0 0M257.75 178.531h1v1h-1zm0 0M259.254 280.438h1v1h-1zm0 0M186.82 168.426h1v1h-1zm0 0M216.176 284.734h1v1h-1zm0 0M337.18 168.426h1v1h-1zm0 0M307.824 284.734h1v1h-1zm0 0M380.828 195.063h1v1h-1zm0 0M346.492 273.438h1v1h-1zm0 0M143.172 195.063h1v1h-1zm0 0M177.508 273.438h1v1h-1zm0 0M357.809 172.781h1v1h-1zm0 0M321.629 283.621h1v1h-1zm0 0M166.191 172.781h1v1h-1zm0 0M202.371 283.621h1v1h-1zm0 0M274.695 179.469h1v1h-1zm0 0M270.195 281.094h1v1h-1zm0 0M249.305 179.469h1v1h-1zm0 0M253.805 281.094h1v1h-1zm0 0M241.043 181.336h1v1h-1zm0 0M248.477 282.395h1v1h-1zm0 0M282.957 181.336h1v1h-1zm0 0M275.523 282.395h1v1h-1zm0 0M145.094 190.426h1v1h-1zm0 0M182.441 278.555h1v1h-1zm0 0M378.906 190.426h1v1h-1zm0 0M341.559 278.555h1v1h-1zm0 0M316.61 173.988h1v1h-1zm0 0M295.676 286.04h1v1h-1zm0 0M207.39 173.988h1v1h-1zm0 0M228.324 286.04h1v1h-1zm0 0M303.07 177.629h1v1h-1zm0 0M287.805 284.934h1v1h-1zm0 0M220.93 177.629h1v1h-1zm0 0M236.195 284.934h1v1h-1zm0 0M352.21 174.164h1v1h-1zm0 0M317.258 287.36h1v1h-1zm0 0M171.79 174.164h1v1h-1zm0 0M206.742 287.36h1v1h-1zm0 0M192.918 173.71h1v1h-1zm0 0M219.867 287.86h1v1h-1zm0 0M331.082 173.71h1v1h-1zm0 0M304.133 287.86h1v1h-1zm0 0M290.922 184.105h1v1h-1zm0 0M280.648 284.328h1v1h-1zm0 0M233.078 184.105h1v1h-1zm0 0M243.352 284.328h1v1h-1zm0 0M148.133 186.898h1v1h-1zm0 0M375.867 186.898h1v1h-1zm0 0M336.613 283.219h1v1h-1zm0 0M187.387 283.219h1v1h-1zm0 0M265.742 190.29h1v1h-1zm0 0M264.496 282.219h1v1h-1zm0 0M258.258 190.29h1v1h-1zm0 0M259.504 282.219h1v1h-1zm0 0M273.176 191.121h1v1h-1zm0 0M269.453 282.816h1v1h-1zm0 0M250.824 191.121h1v1h-1zm0 0M254.547 282.816h1v1h-1zm0 0M371.719 184.66h1v1h-1zm0 0M331.688 287.414h1v1h-1zm0 0M152.281 184.66h1v1h-1zm0 0M192.313 287.414h1v1h-1zm0 0M280.45 192.781h1v1h-1zm0 0M274.297 284.004h1v1h-1zm0 0M243.55 192.781h1v1h-1zm0 0M249.703 284.004h1v1h-1zm0 0M213 182.621h1v1h-1zm0 0M231.262 288.34h1v1h-1zm0 0M311 182.621h1v1h-1zm0 0M292.738 288.34h1v1h-1zm0 0M345.895 177.188h1v1h-1zm0 0M312.992 290.57h1v1h-1zm0 0M178.105 177.188h1v1h-1zm0 0M211.008 290.57h1v1h-1zm0 0M298.473 187.746h1v1h-1zm0 0M285.492 286.863h1v1h-1zm0 0M225.527 187.746h1v1h-1zm0 0M238.508 286.863h1v1h-1zm0 0M143.508 248.309h1v1h-1zm0 0" fill="#666"/><path d="M143.508 248.309h1v1h-1zm0 0M380.492 248.309h1v1h-1zm0 0" fill="#666"/><path d="M380.492 248.309h1v1h-1zm0 0M140.078 241.418h1v1h-1zm0 0M147.46 255.04h1v1h-1zm0 0M383.922 241.418h1v1h-1zm0 0M376.54 255.04h1v1h-1zm0 0M324.695 180.473h1v1h-1zm0 0M300.582 290.398h1v1h-1zm0 0M199.305 180.473h1v1h-1zm0 0M223.418 290.398h1v1h-1zm0 0M137.285 234.469h1v1h-1zm0 0M151.836 261.52h1v1h-1zm0 0M386.715 234.469h1v1h-1zm0 0M372.164 261.52h1v1h-1zm0 0M135.242 227.582h1v1h-1zm0 0M156.54 267.688h1v1h-1zm0 0M388.758 227.582h1v1h-1zm0 0M367.46 267.688h1v1h-1zm0 0M287.453 195.242h1v1h-1zm0 0M278.953 285.762h1v1h-1zm0 0M236.547 195.242h1v1h-1zm0 0M245.047 285.762h1v1h-1zm0 0M265.273 202.246h1v1h-1zm0 0M264.27 283.176h1v1h-1zm0 0M258.727 202.246h1v1h-1zm0 0M259.73 283.176h1v1h-1zm0 0M366.512 183.863h1v1h-1zm0 0M157.488 183.863h1v1h-1zm0 0M197.18 291.121h1v1h-1zm0 0M326.82 291.121h1v1h-1zm0 0M389.922 220.91h1v1h-1zm0 0M362.508 273.496h1v1h-1zm0 0M134.078 220.91h1v1h-1zm0 0M161.492 273.496h1v1h-1zm0 0M271.777 202.98h1v1h-1zm0 0M268.777 283.719h1v1h-1zm0 0M252.223 202.98h1v1h-1zm0 0M255.223 283.719h1v1h-1zm0 0M184.953 181.793h1v1h-1zm0 0M215.133 293.234h1v1h-1zm0 0M339.047 181.793h1v1h-1zm0 0M308.867 293.234h1v1h-1zm0 0M133.902 214.633h1v1h-1zm0 0M166.617 278.906h1v1h-1zm0 0M390.098 214.633h1v1h-1zm0 0M357.383 278.906h1v1h-1zm0 0M305.492 192.21h1v1h-1zm0 0M289.98 289.969h1v1h-1zm0 0M218.508 192.21h1v1h-1zm0 0M234.02 289.969h1v1h-1zm0 0M245.867 204.445h1v1h-1zm0 0M278.133 204.445h1v1h-1zm0 0M273.184 284.8h1v1h-1zm0 0M250.816 284.8h1v1h-1zm0 0M294.09 198.473h1v1h-1zm0 0M229.91 198.473h1v1h-1zm0 0M240.645 288.07h1v1h-1zm0 0M283.355 288.07h1v1h-1zm0 0M318.227 188.477h1v1h-1zm0 0M297.21 292.32h1v1h-1zm0 0M205.773 188.477h1v1h-1zm0 0M226.79 292.32h1v1h-1zm0 0M163.648 184.605h1v1h-1zm0 0M360.352 184.605h1v1h-1zm0 0M322.043 294.324h1v1h-1zm0 0M201.957 294.324h1v1h-1zm0 0M134.813 208.938h1v1h-1zm0 0M171.855 283.895h1v1h-1zm0 0M389.188 208.938h1v1h-1zm0 0M352.145 283.895h1v1h-1zm0 0M284.254 206.613h1v1h-1zm0 0M277.414 286.402h1v1h-1zm0 0M239.746 206.613h1v1h-1zm0 0M246.586 286.402h1v1h-1zm0 0M264.855 214.047h1v1h-1zm0 0" fill="#666"/><path d="M264.07 283.254h1v1h-1zm0 0M259.145 214.047h1v1h-1zm0 0M259.93 283.254h1v1h-1zm0 0M387.105 204.023h1v1h-1zm0 0M346.844 288.434h1v1h-1zm0 0M136.895 204.023h1v1h-1zm0 0M177.156 288.434h1v1h-1zm0 0M192.121 187.844h1v1h-1zm0 0M331.879 187.844h1v1h-1zm0 0M304.906 295.328h1v1h-1zm0 0M219.094 295.328h1v1h-1zm0 0M270.52 214.695h1v1h-1zm0 0M268.184 283.75h1v1h-1zm0 0M253.48 214.695h1v1h-1zm0 0M255.816 283.75h1v1h-1zm0 0M353.41 186.918h1v1h-1zm0 0M170.59 186.918h1v1h-1zm0 0M206.61 297.012h1v1h-1zm0 0M317.39 297.012h1v1h-1zm0 0M223.75 202.434h1v1h-1zm0 0M300.25 202.434h1v1h-1zm0 0M287.426 290.895h1v1h-1zm0 0M236.574 290.895h1v1h-1zm0 0M276.059 215.984h1v1h-1zm0 0M272.2 284.734h1v1h-1zm0 0M247.941 215.984h1v1h-1zm0 0M251.8 284.734h1v1h-1zm0 0M311.879 197.45h1v1h-1zm0 0M294.04 293.598h1v1h-1zm0 0M212.121 197.45h1v1h-1zm0 0M229.96 293.598h1v1h-1zm0 0M140.18 200.102h1v1h-1zm0 0M182.469 292.512h1v1h-1zm0 0M383.82 200.102h1v1h-1zm0 0M341.531 292.512h1v1h-1zm0 0M290.043 209.465h1v1h-1zm0 0M233.957 209.465h1v1h-1zm0 0M242.586 288.5h1v1h-1zm0 0M281.414 288.5h1v1h-1zm0 0M281.39 217.895h1v1h-1zm0 0M276.059 286.195h1v1h-1zm0 0M242.61 217.895h1v1h-1zm0 0M247.941 286.195h1v1h-1zm0 0M324.629 195.125h1v1h-1zm0 0M199.371 195.125h1v1h-1zm0 0M222.86 296.828h1v1h-1zm0 0M301.14 296.828h1v1h-1zm0 0M264.492 225.395h1v1h-1zm0 0" fill="#666"/><path d="M263.902 282.387h1v1h-1zm0 0M259.508 225.395h1v1h-1zm0 0M260.098 282.387h1v1h-1zm0 0M379.336 197.352h1v1h-1zm0 0M336.246 296.117h1v1h-1zm0 0M144.664 197.352h1v1h-1zm0 0M187.754 296.117h1v1h-1zm0 0M269.438 225.965h1v1h-1zm0 0M267.676 282.844h1v1h-1zm0 0M254.563 225.965h1v1h-1zm0 0M256.324 282.844h1v1h-1zm0 0M345.895 190.758h1v1h-1zm0 0M312.887 299.164h1v1h-1zm0 0M178.105 190.758h1v1h-1zm0 0M211.113 299.164h1v1h-1zm0 0M295.414 212.957h1v1h-1zm0 0M285.113 291.066h1v1h-1zm0 0M228.586 212.957h1v1h-1zm0 0M238.887 291.066h1v1h-1zm0 0M274.27 227.098h1v1h-1zm0 0M271.363 283.746h1v1h-1zm0 0M249.73 227.098h1v1h-1zm0 0M252.637 283.746h1v1h-1zm0 0M218.156 207.074h1v1h-1zm0 0M305.844 207.074h1v1h-1zm0 0M291.11 294.191h1v1h-1zm0 0M232.89 294.191h1v1h-1zm0 0M286.426 220.398h1v1h-1zm0 0M279.7 288.11h1v1h-1zm0 0M237.574 220.398h1v1h-1zm0 0M244.3 288.11h1v1h-1zm0 0M150.29 195.941h1v1h-1zm0 0M192.969 299.234h1v1h-1zm0 0M373.71 195.941h1v1h-1zm0 0M331.031 299.234h1v1h-1zm0 0M264.191 236.023h1v1h-1zm0 0M263.77 280.52h1v1h-1zm0 0M259.809 236.023h1v1h-1zm0 0M260.23 280.52h1v1h-1zm0 0M278.918 228.777h1v1h-1zm0 0M274.906 285.086h1v1h-1zm0 0M245.082 228.777h1v1h-1zm0 0M249.094 285.086h1v1h-1zm0 0M206.473 203.387h1v1h-1zm0 0M317.527 203.387h1v1h-1zm0 0M297.61 297.7h1v1h-1zm0 0M226.39 297.7h1v1h-1zm0 0M338.04 196.004h1v1h-1zm0 0M308.566 300.766h1v1h-1zm0 0M185.96 196.004h1v1h-1zm0 0M215.434 300.766h1v1h-1zm0 0M268.54 236.531h1v1h-1zm0 0M267.277 280.941h1v1h-1zm0 0M255.46 236.531h1v1h-1zm0 0M256.723 280.941h1v1h-1zm0 0M367.07 195.969h1v1h-1zm0 0M325.914 301.855h1v1h-1zm0 0M156.93 195.969h1v1h-1zm0 0M198.086 301.855h1v1h-1zm0 0M272.79 237.535h1v1h-1zm0 0M270.703 281.781h1v1h-1zm0 0M251.21 237.535h1v1h-1zm0 0M253.297 281.781h1v1h-1zm0 0M291.094 223.465h1v1h-1zm0 0M283.07 290.45h1v1h-1zm0 0M232.906 223.465h1v1h-1zm0 0M240.93 290.45h1v1h-1zm0 0M300.281 217.043h1v1h-1zm0 0M288.453 294.066h1v1h-1zm0 0M223.719 217.043h1v1h-1zm0 0M235.547 294.066h1v1h-1zm0 0M137.547 262.602h1v1h-1zm0 0" fill="#666"/><path d="M137.547 262.602h1v1h-1zm0 0M386.453 262.602h1v1h-1zm0 0" fill="#666"/><path d="M386.453 262.602h1v1h-1zm0 0M283.309 230.98h1v1h-1zm0 0M278.25 286.84h1v1h-1zm0 0M240.691 230.98h1v1h-1zm0 0M245.75 286.84h1v1h-1zm0 0M390.098 256.047h1v1h-1zm0 0M382.258 268.918h1v1h-1zm0 0M133.902 256.047h1v1h-1zm0 0M141.742 268.918h1v1h-1zm0 0M263.953 245.746h1v1h-1zm0 0M263.672 277.586h1v1h-1zm0 0M260.047 245.746h1v1h-1zm0 0M260.328 277.586h1v1h-1zm0 0M130.934 249.355h1v1h-1zm0 0M146.383 274.93h1v1h-1zm0 0M393.066 249.355h1v1h-1zm0 0M377.617 274.93h1v1h-1zm0 0M267.836 246.2h1v1h-1zm0 0M266.992 277.988h1v1h-1zm0 0M256.164 246.2h1v1h-1zm0 0M257.008 277.988h1v1h-1zm0 0M128.762 242.633h1v1h-1zm0 0M151.367 280.578h1v1h-1zm0 0M395.238 242.633h1v1h-1zm0 0M372.633 280.578h1v1h-1zm0 0M276.875 239.023h1v1h-1zm0 0M273.992 283.023h1v1h-1zm0 0M247.125 239.023h1v1h-1zm0 0M250.008 283.023h1v1h-1zm0 0M330.105 202.48h1v1h-1zm0 0M304.469 301.79h1v1h-1zm0 0M193.895 202.48h1v1h-1zm0 0M219.531 301.79h1v1h-1zm0 0M310.781 212.332h1v1h-1zm0 0M213.219 212.332h1v1h-1zm0 0M229.66 297.918h1v1h-1zm0 0M294.34 297.918h1v1h-1zm0 0M164.41 197.492h1v1h-1zm0 0M203.066 303.969h1v1h-1zm0 0M359.59 197.492h1v1h-1zm0 0M320.934 303.969h1v1h-1zm0 0M396.477 236.023h1v1h-1zm0 0M367.39 285.832h1v1h-1zm0 0M127.523 236.023h1v1h-1zm0 0M156.61 285.832h1v1h-1zm0 0M271.625 247.102h1v1h-1zm0 0M270.234 278.777h1v1h-1zm0 0M252.375 247.102h1v1h-1zm0 0M253.766 278.777h1v1h-1zm0 0M263.781 254.422h1v1h-1zm0 0M263.621 273.543h1v1h-1zm0 0M260.219 254.422h1v1h-1zm0 0M260.379 273.543h1v1h-1zm0 0M127.336 229.691h1v1h-1zm0 0M162.031 290.656h1v1h-1zm0 0M396.664 229.691h1v1h-1zm0 0M361.969 290.656h1v1h-1zm0 0M267.32 254.84h1v1h-1zm0 0M266.84 273.926h1v1h-1zm0 0M256.68 254.84h1v1h-1zm0 0M257.16 273.926h1v1h-1zm0 0M287.375 233.68h1v1h-1zm0 0M281.34 288.988h1v1h-1zm0 0M236.625 233.68h1v1h-1zm0 0M242.66 288.988h1v1h-1zm0 0M280.73 240.977h1v1h-1zm0 0M277.098 284.652h1v1h-1zm0 0M243.27 240.977h1v1h-1zm0 0M246.902 284.652h1v1h-1zm0 0M263.672 261.969h1v1h-1zm0 0M263.621 268.344h1v1h-1zm0 0M260.328 261.969h1v1h-1zm0 0M260.379 268.344h1v1h-1zm0 0M295.32 227.05h1v1h-1zm0 0M286.11 293.18h1v1h-1zm0 0M228.68 227.05h1v1h-1zm0 0M237.89 293.18h1v1h-1zm0 0M275.266 248.441h1v1h-1zm0 0M273.348 279.95h1v1h-1zm0 0M248.734 248.441h1v1h-1zm0 0M250.652 279.95h1v1h-1zm0 0M395.695 223.82h1v1h-1zm0 0M356.43 295.031h1v1h-1zm0 0M128.305 223.82h1v1h-1zm0 0M167.57 295.031h1v1h-1zm0 0M266.992 262.363h1v1h-1zm0 0M266.836 268.727h1v1h-1zm0 0M257.008 262.363h1v1h-1zm0 0M257.164 268.727h1v1h-1zm0 0M270.777 255.668h1v1h-1zm0 0M269.984 274.691h1v1h-1zm0 0M253.223 255.668h1v1h-1zm0 0M254.016 274.691h1v1h-1zm0 0M172.5 200.484h1v1h-1zm0 0M351.5 200.484h1v1h-1zm0 0M316.121 305.563h1v1h-1zm0 0M207.879 305.563h1v1h-1zm0 0M201.66 209.945h1v1h-1zm0 0M223.379 302.215h1v1h-1zm0 0M322.34 209.945h1v1h-1zm0 0M300.621 302.215h1v1h-1zm0 0M270.23 263.145h1v1h-1zm0 0M269.977 269.488h1v1h-1zm0 0M253.77 263.145h1v1h-1zm0 0M254.023 269.488h1v1h-1zm0 0M219.43 221.668h1v1h-1zm0 0M304.57 221.668h1v1h-1zm0 0M291.383 297.453h1v1h-1zm0 0M232.617 297.453h1v1h-1zm0 0M393.484 218.605h1v1h-1zm0 0M350.836 298.95h1v1h-1zm0 0M130.516 218.605h1v1h-1zm0 0M173.164 298.95h1v1h-1zm0 0M274.094 256.898h1v1h-1zm0 0M273.004 275.828h1v1h-1zm0 0M249.906 256.898h1v1h-1zm0 0M250.996 275.828h1v1h-1zm0 0M278.703 250.195h1v1h-1zm0 0M276.285 281.488h1v1h-1zm0 0M245.297 250.195h1v1h-1zm0 0M247.715 281.488h1v1h-1zm0 0M284.297 243.367h1v1h-1zm0 0M279.969 286.64h1v1h-1zm0 0M239.703 243.367h1v1h-1zm0 0M244.031 286.64h1v1h-1zm0 0M273.344 264.3h1v1h-1zm0 0M272.992 270.617h1v1h-1zm0 0M250.656 264.3h1v1h-1zm0 0M251.008 270.617h1v1h-1zm0 0M389.992 214.25h1v1h-1zm0 0M345.23 302.395h1v1h-1zm0 0M134.008 214.25h1v1h-1zm0 0M178.77 302.395h1v1h-1zm0 0M291.047 236.832h1v1h-1zm0 0M284.129 291.492h1v1h-1zm0 0M232.953 236.832h1v1h-1zm0 0M239.871 291.492h1v1h-1zm0 0M343.063 204.855h1v1h-1zm0 0M311.508 306.625h1v1h-1zm0 0M180.938 204.855h1v1h-1zm0 0M212.492 306.625h1v1h-1zm0 0M277.227 258.508h1v1h-1zm0 0M275.848 277.313h1v1h-1zm0 0M246.773 258.508h1v1h-1zm0 0M248.152 277.313h1v1h-1zm0 0M314.973 218.133h1v1h-1zm0 0M209.027 218.133h1v1h-1zm0 0M226.934 302.02h1v1h-1zm0 0M297.066 302.02h1v1h-1zm0 0M138.773 210.945h1v1h-1zm0 0M184.336 305.363h1v1h-1zm0 0M385.227 210.945h1v1h-1zm0 0M339.664 305.363h1v1h-1zm0 0M299.035 231.105h1v1h-1zm0 0M288.773 296.262h1v1h-1zm0 0M224.965 231.105h1v1h-1zm0 0M235.227 296.262h1v1h-1zm0 0M276.281 265.82h1v1h-1zm0 0M275.832 272.094h1v1h-1zm0 0M247.719 265.82h1v1h-1zm0 0M248.168 272.094h1v1h-1zm0 0M281.879 252.34h1v1h-1zm0 0M278.996 283.367h1v1h-1zm0 0M242.121 252.34h1v1h-1zm0 0M245.004 283.367h1v1h-1zm0 0M287.516 246.156h1v1h-1zm0 0M282.555 288.965h1v1h-1zm0 0M236.484 246.156h1v1h-1zm0 0M241.445 288.965h1v1h-1zm0 0M334.547 210.441h1v1h-1zm0 0M307.129 307.137h1v1h-1zm0 0M189.453 210.441h1v1h-1zm0 0M216.871 307.137h1v1h-1zm0 0M379.258 208.86h1v1h-1zm0 0M334.172 307.848h1v1h-1zm0 0M144.742 208.86h1v1h-1zm0 0M189.828 307.848h1v1h-1zm0 0M280.121 260.473h1v1h-1zm0 0M278.477 279.129h1v1h-1zm0 0M243.879 260.473h1v1h-1zm0 0M245.523 279.129h1v1h-1zm0 0M308.203 226.762h1v1h-1zm0 0M293.852 301.176h1v1h-1zm0 0M215.797 226.762h1v1h-1zm0 0M230.148 301.176h1v1h-1zm0 0M278.992 267.676h1v1h-1zm0 0M278.46 273.898h1v1h-1zm0 0M245.008 267.676h1v1h-1zm0 0M245.54 273.898h1v1h-1zm0 0M294.273 240.39h1v1h-1zm0 0M286.57 294.316h1v1h-1zm0 0M229.727 240.39h1v1h-1zm0 0M237.43 294.316h1v1h-1zm0 0M284.746 254.844h1v1h-1zm0 0M281.441 285.559h1v1h-1zm0 0M239.254 254.844h1v1h-1zm0 0M242.559 285.559h1v1h-1zm0 0M372.219 208.113h1v1h-1zm0 0M328.79 309.84h1v1h-1zm0 0M151.781 208.113h1v1h-1zm0 0M195.21 309.84h1v1h-1zm0 0M197.77 217.035h1v1h-1zm0 0M220.973 307.078h1v1h-1zm0 0M326.23 217.035h1v1h-1zm0 0M303.027 307.078h1v1h-1zm0 0M282.73 262.77h1v1h-1zm0 0M280.848 281.246h1v1h-1zm0 0M241.27 262.77h1v1h-1zm0 0M243.152 281.246h1v1h-1zm0 0M290.34 249.305h1v1h-1zm0 0" fill="#666"/><path d="M284.82 291.582h1v1h-1zm0 0M233.66 249.305h1v1h-1zm0 0M239.18 291.582h1v1h-1zm0 0M302.176 235.57h1v1h-1zm0 0M291.016 299.652h1v1h-1zm0 0M221.824 235.57h1v1h-1zm0 0M232.984 299.652h1v1h-1zm0 0M159.7 208.777h1v1h-1zm0 0M200.441 311.34h1v1h-1zm0 0M364.3 208.777h1v1h-1zm0 0M323.559 311.34h1v1h-1zm0 0M281.438 269.84h1v1h-1zm0 0M280.828 276.008h1v1h-1zm0 0M242.563 269.84h1v1h-1zm0 0M243.172 276.008h1v1h-1zm0 0M318.352 224.395h1v1h-1zm0 0M299.242 306.434h1v1h-1zm0 0M205.648 224.395h1v1h-1zm0 0M224.758 306.434h1v1h-1zm0 0M287.258 257.672h1v1h-1zm0 0M283.582 288.027h1v1h-1zm0 0M236.742 257.672h1v1h-1zm0 0M240.418 288.027h1v1h-1zm0 0M355.75 210.852h1v1h-1zm0 0M318.504 312.34h1v1h-1zm0 0M168.25 210.852h1v1h-1zm0 0M205.496 312.34h1v1h-1zm0 0M227.008 244.309h1v1h-1zm0 0M296.992 244.309h1v1h-1zm0 0M288.621 297.422h1v1h-1zm0 0M235.379 297.422h1v1h-1zm0 0M285.012 265.36h1v1h-1zm0 0M282.922 283.633h1v1h-1zm0 0M238.988 265.36h1v1h-1zm0 0M241.078 283.633h1v1h-1zm0 0M240.426 272.281h1v1h-1zm0 0M241.102 278.383h1v1h-1zm0 0M283.574 272.281h1v1h-1zm0 0M282.898 278.383h1v1h-1zm0 0M311.117 232.258h1v1h-1zm0 0M295.813 305.18h1v1h-1zm0 0M212.883 232.258h1v1h-1zm0 0M228.188 305.18h1v1h-1zm0 0M346.844 214.27h1v1h-1zm0 0M313.668 312.824h1v1h-1zm0 0M177.156 214.27h1v1h-1zm0 0M210.332 312.824h1v1h-1zm0 0M292.719 252.766h1v1h-1zm0 0M286.719 294.46h1v1h-1zm0 0M231.281 252.766h1v1h-1zm0 0M237.281 294.46h1v1h-1zm0 0M337.875 218.898h1v1h-1zm0 0M186.125 218.898h1v1h-1zm0 0M214.922 312.785h1v1h-1zm0 0M309.078 312.785h1v1h-1zm0 0M304.684 240.379h1v1h-1zm0 0M292.797 303.293h1v1h-1zm0 0M219.316 240.379h1v1h-1zm0 0M231.203 303.293h1v1h-1zm0 0M289.367 260.773h1v1h-1zm0 0" fill="#666"/><path d="M285.379 290.742h1v1h-1zm0 0M234.633 260.773h1v1h-1zm0 0M238.621 290.742h1v1h-1zm0 0M390.527 277.648h1v1h-1zm0 0" fill="#666"/><path d="M390.527 277.648h1v1h-1zm0 0M133.473 277.648h1v1h-1zm0 0" fill="#666"/><path d="M133.473 277.648h1v1h-1zm0 0M286.93 268.207h1v1h-1zm0 0M284.66 286.254h1v1h-1zm0 0M237.07 268.207h1v1h-1zm0 0M239.34 286.254h1v1h-1zm0 0M129.664 271.465h1v1h-1zm0 0M137.855 283.523h1v1h-1zm0 0M394.336 271.465h1v1h-1zm0 0M386.145 283.523h1v1h-1zm0 0M126.563 265.05h1v1h-1zm0 0M142.695 289.027h1v1h-1zm0 0M397.438 265.05h1v1h-1zm0 0M381.305 289.027h1v1h-1zm0 0M124.293 258.512h1v1h-1zm0 0M147.895 294.125h1v1h-1zm0 0M399.707 258.512h1v1h-1zm0 0M376.105 294.125h1v1h-1zm0 0M285.371 274.965h1v1h-1zm0 0M284.633 280.992h1v1h-1zm0 0M238.629 274.965h1v1h-1zm0 0M239.367 280.992h1v1h-1zm0 0M329.125 224.555h1v1h-1zm0 0M304.785 312.215h1v1h-1zm0 0M194.875 224.555h1v1h-1zm0 0M219.215 312.215h1v1h-1zm0 0M224.84 248.523h1v1h-1zm0 0M299.16 248.523h1v1h-1zm0 0M290.246 300.758h1v1h-1zm0 0M233.754 300.758h1v1h-1zm0 0M122.992 251.969h1v1h-1zm0 0M153.352 298.777h1v1h-1zm0 0M401.008 251.969h1v1h-1zm0 0M370.648 298.777h1v1h-1zm0 0M122.797 245.582h1v1h-1zm0 0M158.996 302.977h1v1h-1zm0 0M401.203 245.582h1v1h-1zm0 0M365.004 302.977h1v1h-1zm0 0M400.188 239.52h1v1h-1zm0 0M359.25 306.703h1v1h-1zm0 0M123.813 239.52h1v1h-1zm0 0M164.75 306.703h1v1h-1zm0 0M229.39 256.488h1v1h-1zm0 0M235.773 297.55h1v1h-1zm0 0M294.61 256.488h1v1h-1zm0 0M288.227 297.55h1v1h-1zm0 0M320.848 231.027h1v1h-1zm0 0M300.82 311.09h1v1h-1zm0 0M203.152 231.027h1v1h-1zm0 0M223.18 311.09h1v1h-1zm0 0M397.875 233.977h1v1h-1zm0 0M353.441 309.953h1v1h-1zm0 0M126.125 233.977h1v1h-1zm0 0M170.559 309.953h1v1h-1zm0 0M394.223 229.156h1v1h-1zm0 0M347.629 312.723h1v1h-1zm0 0M129.777 229.156h1v1h-1zm0 0M176.371 312.723h1v1h-1zm0 0M291.043 264.11h1v1h-1zm0 0M286.797 293.656h1v1h-1zm0 0M232.957 264.11h1v1h-1zm0 0M237.203 293.656h1v1h-1zm0 0M313.258 238.07h1v1h-1zm0 0M210.742 238.07h1v1h-1zm0 0M226.762 309.402h1v1h-1zm0 0M297.238 309.402h1v1h-1zm0 0M134.758 225.254h1v1h-1zm0 0M182.14 315.016h1v1h-1zm0 0M389.242 225.254h1v1h-1zm0 0M341.86 315.016h1v1h-1zm0 0M288.45 271.262h1v1h-1zm0 0M286.035 289.07h1v1h-1zm0 0M235.55 271.262h1v1h-1zm0 0M237.965 289.07h1v1h-1zm0 0M286.793 277.844h1v1h-1zm0 0M286.008 283.793h1v1h-1zm0 0M237.207 277.844h1v1h-1zm0 0M237.992 283.793h1v1h-1zm0 0M383.016 222.445h1v1h-1zm0 0M336.176 316.832h1v1h-1zm0 0M140.984 222.445h1v1h-1zm0 0M187.824 316.832h1v1h-1zm0 0M306.52 245.457h1v1h-1zm0 0M294.086 307.137h1v1h-1zm0 0M217.48 245.457h1v1h-1zm0 0M229.914 307.137h1v1h-1zm0 0M375.676 220.867h1v1h-1zm0 0M330.61 318.164h1v1h-1zm0 0M148.324 220.867h1v1h-1zm0 0M193.39 318.164h1v1h-1zm0 0M300.738 252.973h1v1h-1zm0 0M291.422 304.273h1v1h-1zm0 0M223.262 252.973h1v1h-1zm0 0M232.578 304.273h1v1h-1zm0 0M156.566 220.613h1v1h-1zm0 0M198.797 319.016h1v1h-1zm0 0M367.434 220.613h1v1h-1zm0 0M325.203 319.016h1v1h-1zm0 0M165.457 221.71h1v1h-1zm0 0M204.012 319.387h1v1h-1zm0 0M358.543 221.71h1v1h-1zm0 0M319.988 319.387h1v1h-1zm0 0M295.977 260.414h1v1h-1zm0 0" fill="#666"/><path d="M289.313 300.805h1v1h-1zm0 0M228.023 260.414h1v1h-1zm0 0M234.688 300.805h1v1h-1zm0 0M349.3 224.113h1v1h-1zm0 0M315 319.27h1v1h-1zm0 0M174.7 224.113h1v1h-1zm0 0M209 319.27h1v1h-1zm0 0M292.254 267.629h1v1h-1zm0 0M287.82 296.727h1v1h-1zm0 0M231.746 267.629h1v1h-1zm0 0M236.18 296.727h1v1h-1zm0 0M289.547 274.48h1v1h-1zm0 0M287.023 292.031h1v1h-1zm0 0M234.453 274.48h1v1h-1zm0 0M236.977 292.031h1v1h-1zm0 0M236.188 280.875h1v1h-1zm0 0M237.004 286.738h1v1h-1zm0 0M287.813 280.875h1v1h-1zm0 0M286.996 286.738h1v1h-1zm0 0M340.008 227.727h1v1h-1zm0 0M310.273 318.656h1v1h-1zm0 0M183.992 227.727h1v1h-1zm0 0M213.727 318.656h1v1h-1zm0 0M193.047 232.395h1v1h-1zm0 0M218.148 317.543h1v1h-1zm0 0M330.953 232.395h1v1h-1zm0 0M305.852 317.543h1v1h-1zm0 0M201.594 237.926h1v1h-1zm0 0M222.223 315.922h1v1h-1zm0 0M322.406 237.926h1v1h-1zm0 0M301.777 315.922h1v1h-1zm0 0M209.422 244.11h1v1h-1zm0 0M225.906 313.781h1v1h-1zm0 0M314.578 244.11h1v1h-1zm0 0M298.094 313.781h1v1h-1zm0 0M307.637 250.73h1v1h-1zm0 0M294.855 311.113h1v1h-1zm0 0M216.363 250.73h1v1h-1zm0 0M229.145 311.113h1v1h-1zm0 0M301.691 257.582h1v1h-1zm0 0M292.121 307.914h1v1h-1zm0 0M222.309 257.582h1v1h-1zm0 0M231.879 307.914h1v1h-1zm0 0M296.797 264.48h1v1h-1zm0 0M289.953 304.176h1v1h-1zm0 0M227.203 264.48h1v1h-1zm0 0M234.047 304.176h1v1h-1zm0 0M292.973 271.266h1v1h-1zm0 0" fill="#666"/><path d="M288.426 299.898h1v1h-1zm0 0M231.027 271.266h1v1h-1zm0 0M235.574 299.898h1v1h-1zm0 0M290.195 277.809h1v1h-1zm0 0M287.61 295.098h1v1h-1zm0 0M233.805 277.809h1v1h-1zm0 0M236.39 295.098h1v1h-1zm0 0M288.418 284.012h1v1h-1zm0 0M287.582 289.79h1v1h-1zm0 0M235.582 284.012h1v1h-1zm0 0M236.418 289.79h1v1h-1zm0 0M288.59 287.2h1v1h-1zm0 0M287.746 292.895h1v1h-1zm0 0M235.41 287.2h1v1h-1zm0 0M236.254 292.895h1v1h-1zm0 0M290.383 281.2h1v1h-1zm0 0M287.773 298.215h1v1h-1zm0 0M233.617 281.2h1v1h-1zm0 0M236.227 298.215h1v1h-1zm0 0M230.813 274.973h1v1h-1zm0 0M235.402 303.129h1v1h-1zm0 0M293.188 274.973h1v1h-1zm0 0M288.598 303.129h1v1h-1zm0 0M297.05 268.625h1v1h-1zm0 0M290.14 307.602h1v1h-1zm0 0M226.95 268.625h1v1h-1zm0 0M233.86 307.602h1v1h-1zm0 0M302 262.29h1v1h-1zm0 0M292.328 311.617h1v1h-1zm0 0M222 262.29h1v1h-1zm0 0M231.672 311.617h1v1h-1zm0 0M308.016 256.113h1v1h-1zm0 0M295.09 315.164h1v1h-1zm0 0M215.984 256.113h1v1h-1zm0 0M228.91 315.164h1v1h-1zm0 0M315.047 250.285h1v1h-1zm0 0M298.36 318.238h1v1h-1zm0 0M208.953 250.285h1v1h-1zm0 0M225.64 318.238h1v1h-1zm0 0M322.988 244.992h1v1h-1zm0 0M302.086 320.844h1v1h-1zm0 0M201.012 244.992h1v1h-1zm0 0M221.914 320.844h1v1h-1zm0 0M331.676 240.43h1v1h-1zm0 0M306.21 322.98h1v1h-1zm0 0M192.324 240.43h1v1h-1zm0 0M217.79 322.98h1v1h-1zm0 0M340.887 236.793h1v1h-1zm0 0M310.688 324.648h1v1h-1zm0 0M183.113 236.793h1v1h-1zm0 0M213.313 324.648h1v1h-1zm0 0M350.36 234.238h1v1h-1zm0 0M315.477 325.855h1v1h-1zm0 0M173.64 234.238h1v1h-1zm0 0M208.523 325.855h1v1h-1zm0 0M164.203 232.895h1v1h-1zm0 0M203.465 326.598h1v1h-1zm0 0M359.797 232.895h1v1h-1zm0 0M320.535 326.598h1v1h-1zm0 0M155.11 232.828h1v1h-1zm0 0M198.168 326.879h1v1h-1zm0 0M368.89 232.828h1v1h-1zm0 0M325.832 326.879h1v1h-1zm0 0M377.332 234.05h1v1h-1zm0 0M331.324 326.695h1v1h-1zm0 0M146.668 234.05h1v1h-1zm0 0M192.676 326.695h1v1h-1zm0 0M384.86 236.504h1v1h-1zm0 0M336.984 326.05h1v1h-1zm0 0M139.14 236.504h1v1h-1zm0 0M187.016 326.05h1v1h-1zm0 0M391.258 240.078h1v1h-1zm0 0M342.773 324.934h1v1h-1zm0 0M132.742 240.078h1v1h-1zm0 0M181.227 324.934h1v1h-1zm0 0M396.379 244.613h1v1h-1zm0 0M348.652 323.348h1v1h-1zm0 0M127.621 244.613h1v1h-1zm0 0M175.348 323.348h1v1h-1zm0 0M400.137 249.93h1v1h-1zm0 0M354.586 321.277h1v1h-1zm0 0M123.863 249.93h1v1h-1zm0 0M169.414 321.277h1v1h-1zm0 0M121.484 255.816h1v1h-1zm0 0M163.48 318.723h1v1h-1zm0 0M402.516 255.816h1v1h-1zm0 0M360.52 318.723h1v1h-1zm0 0M120.438 262.074h1v1h-1zm0 0M157.594 315.68h1v1h-1zm0 0M403.563 262.074h1v1h-1zm0 0M366.406 315.68h1v1h-1zm0 0M403.36 268.523h1v1h-1zm0 0M372.18 312.145h1v1h-1zm0 0M120.64 268.523h1v1h-1zm0 0M151.82 312.145h1v1h-1zm0 0M121.977 274.988h1v1h-1zm0 0M146.227 308.121h1v1h-1zm0 0M402.023 274.988h1v1h-1zm0 0M377.773 308.121h1v1h-1zm0 0M399.688 281.336h1v1h-1zm0 0M383.105 303.613h1v1h-1zm0 0M124.313 281.336h1v1h-1zm0 0M140.895 303.613h1v1h-1zm0 0M396.492 287.45h1v1h-1zm0 0M388.074 298.645h1v1h-1zm0 0M127.508 287.45h1v1h-1zm0 0M135.926 298.645h1v1h-1zm0 0" fill="#666"/><path d="M288.328 290.395h1v1h-1zm0 0M287.488 295.996h1v1h-1zm0 0M235.672 290.395h1v1h-1zm0 0M236.512 295.996h1v1h-1zm0 0M392.578 293.242h1v1h-1zm0 0" fill="#666"/><path d="M392.578 293.242h1v1h-1zm0 0M131.422 293.242h1v1h-1zm0 0" fill="#666"/><path d="M131.422 293.242h1v1h-1zm0 0M290.105 284.594h1v1h-1zm0 0M287.516 301.336h1v1h-1zm0 0M233.895 284.594h1v1h-1zm0 0M236.484 301.336h1v1h-1zm0 0M292.89 278.684h1v1h-1zm0 0M288.332 306.36h1v1h-1zm0 0M231.11 278.684h1v1h-1zm0 0M235.668 306.36h1v1h-1zm0 0M296.73 272.777h1v1h-1zm0 0M289.863 311.031h1v1h-1zm0 0M227.27 272.777h1v1h-1zm0 0M234.137 311.031h1v1h-1zm0 0M222.352 267.008h1v1h-1zm0 0M231.965 315.324h1v1h-1zm0 0M301.648 267.008h1v1h-1zm0 0M292.035 315.324h1v1h-1zm0 0M307.637 261.52h1v1h-1zm0 0M294.777 319.223h1v1h-1zm0 0M216.363 261.52h1v1h-1zm0 0M229.223 319.223h1v1h-1zm0 0M314.645 256.492h1v1h-1zm0 0M298.031 322.71h1v1h-1zm0 0M209.355 256.492h1v1h-1zm0 0M225.969 322.71h1v1h-1zm0 0M287.625 293.535h1v1h-1zm0 0M286.809 299.05h1v1h-1zm0 0M236.375 293.535h1v1h-1zm0 0M237.191 299.05h1v1h-1zm0 0M289.363 287.934h1v1h-1zm0 0M286.836 304.406h1v1h-1zm0 0M234.637 287.934h1v1h-1zm0 0M237.164 304.406h1v1h-1zm0 0M322.57 252.105h1v1h-1zm0 0M301.734 325.785h1v1h-1zm0 0M201.43 252.105h1v1h-1zm0 0M222.266 325.785h1v1h-1zm0 0M292.082 282.34h1v1h-1zm0 0M287.633 309.543h1v1h-1zm0 0M231.918 282.34h1v1h-1zm0 0M236.367 309.543h1v1h-1zm0 0M192.75 248.535h1v1h-1zm0 0M218.16 328.441h1v1h-1zm0 0M331.25 248.535h1v1h-1zm0 0M305.84 328.441h1v1h-1zm0 0M295.832 276.871h1v1h-1zm0 0M289.129 314.41h1v1h-1zm0 0M228.168 276.871h1v1h-1zm0 0M234.871 314.41h1v1h-1zm0 0M340.473 245.95h1v1h-1zm0 0M310.3 330.672h1v1h-1zm0 0M183.527 245.95h1v1h-1zm0 0M213.7 330.672h1v1h-1zm0 0M300.64 271.66h1v1h-1zm0 0M291.246 318.977h1v1h-1zm0 0M223.36 271.66h1v1h-1zm0 0M232.754 318.977h1v1h-1zm0 0M286.5 296.574h1v1h-1zm0 0M285.715 302.004h1v1h-1zm0 0M237.5 296.574h1v1h-1zm0 0M238.285 302.004h1v1h-1zm0 0M349.973 244.484h1v1h-1zm0 0M315.074 332.477h1v1h-1zm0 0M174.027 244.484h1v1h-1zm0 0M208.926 332.477h1v1h-1zm0 0M235.836 291.164h1v1h-1zm0 0M238.258 307.375h1v1h-1zm0 0M288.164 291.164h1v1h-1zm0 0M285.742 307.375h1v1h-1zm0 0M306.5 266.86h1v1h-1zm0 0M293.926 323.223h1v1h-1zm0 0M217.5 266.86h1v1h-1zm0 0M230.074 323.223h1v1h-1zm0 0M290.77 285.879h1v1h-1zm0 0M286.504 312.617h1v1h-1zm0 0M233.23 285.879h1v1h-1zm0 0M237.496 312.617h1v1h-1zm0 0M359.45 244.23h1v1h-1zm0 0M320.121 333.855h1v1h-1zm0 0M164.55 244.23h1v1h-1zm0 0M203.879 333.855h1v1h-1zm0 0M313.367 262.633h1v1h-1zm0 0M297.102 327.117h1v1h-1zm0 0M210.633 262.633h1v1h-1zm0 0M226.898 327.117h1v1h-1zm0 0M294.367 280.836h1v1h-1zm0 0M287.938 317.676h1v1h-1zm0 0M229.633 280.836h1v1h-1zm0 0M236.063 317.676h1v1h-1zm0 0M368.598 245.227h1v1h-1zm0 0M325.41 334.797h1v1h-1zm0 0M155.402 245.227h1v1h-1zm0 0M198.59 334.797h1v1h-1zm0 0M284.96 299.457h1v1h-1zm0 0M284.223 304.805h1v1h-1zm0 0M239.04 299.457h1v1h-1zm0 0M239.777 304.805h1v1h-1zm0 0M202.86 259.148h1v1h-1zm0 0M223.277 330.66h1v1h-1zm0 0M321.14 259.148h1v1h-1zm0 0M300.723 330.66h1v1h-1zm0 0M377.105 247.453h1v1h-1zm0 0M330.902 335.3h1v1h-1zm0 0M146.895 247.453h1v1h-1zm0 0M193.098 335.3h1v1h-1zm0 0M234.031 322.512h1v1h-1zm0 0M298.98 276.172h1v1h-1zm0 0M289.969 322.512h1v1h-1zm0 0M225.02 276.172h1v1h-1zm0 0M286.523 294.23h1v1h-1zm0 0M284.25 310.191h1v1h-1zm0 0M237.477 294.23h1v1h-1zm0 0M239.75 310.191h1v1h-1zm0 0M139.297 250.816h1v1h-1zm0 0M187.438 335.355h1v1h-1zm0 0M384.703 250.816h1v1h-1zm0 0M336.563 335.355h1v1h-1zm0 0M288.973 289.238h1v1h-1zm0 0M284.965 315.535h1v1h-1zm0 0M235.027 289.238h1v1h-1zm0 0M239.035 315.535h1v1h-1zm0 0M329.668 256.57h1v1h-1zm0 0M304.738 333.828h1v1h-1zm0 0M194.332 256.57h1v1h-1zm0 0M219.262 333.828h1v1h-1zm0 0M292.535 327.094h1v1h-1zm0 0M219.387 272.04h1v1h-1zm0 0M231.465 327.094h1v1h-1zm0 0M304.613 272.04h1v1h-1zm0 0M391.168 255.188h1v1h-1zm0 0M342.363 334.957h1v1h-1zm0 0M132.832 255.188h1v1h-1zm0 0M181.637 334.957h1v1h-1zm0 0M231.645 284.602h1v1h-1zm0 0M237.688 320.777h1v1h-1zm0 0M292.355 284.602h1v1h-1zm0 0M286.313 320.777h1v1h-1zm0 0M283.031 302.137h1v1h-1zm0 0M282.355 307.41h1v1h-1zm0 0M240.969 302.137h1v1h-1zm0 0M241.645 307.41h1v1h-1zm0 0M127.652 260.387h1v1h-1zm0 0M175.742 334.09h1v1h-1zm0 0M396.348 260.387h1v1h-1zm0 0M348.258 334.09h1v1h-1zm0 0M284.469 297.082h1v1h-1zm0 0M282.379 312.809h1v1h-1zm0 0M239.531 297.082h1v1h-1zm0 0M241.621 312.809h1v1h-1zm0 0M185.258 255.043h1v1h-1zm0 0M214.895 336.621h1v1h-1zm0 0M338.742 255.043h1v1h-1zm0 0M309.105 336.621h1v1h-1zm0 0M295.586 331.39h1v1h-1zm0 0M212.781 268.594h1v1h-1zm0 0M228.414 331.39h1v1h-1zm0 0M311.219 268.594h1v1h-1zm0 0M123.852 266.215h1v1h-1zm0 0M169.79 332.746h1v1h-1zm0 0M400.148 266.215h1v1h-1zm0 0M354.21 332.746h1v1h-1zm0 0M296.7 280.465h1v1h-1zm0 0M288.219 325.867h1v1h-1zm0 0M227.3 280.465h1v1h-1zm0 0M235.781 325.867h1v1h-1zm0 0M286.719 292.363h1v1h-1zm0 0M283.04 318.246h1v1h-1zm0 0M237.281 292.363h1v1h-1zm0 0M240.96 318.246h1v1h-1zm0 0M402.563 272.46h1v1h-1zm0 0M360.176 330.91h1v1h-1zm0 0M121.438 272.46h1v1h-1zm0 0M163.824 330.91h1v1h-1zm0 0M280.75 304.563h1v1h-1zm0 0M280.145 309.766h1v1h-1zm0 0M243.25 304.563h1v1h-1zm0 0M243.855 309.766h1v1h-1zm0 0M348.105 254.676h1v1h-1zm0 0M313.785 339.027h1v1h-1zm0 0M175.895 254.676h1v1h-1zm0 0M210.215 339.027h1v1h-1zm0 0M120.379 278.926h1v1h-1zm0 0M157.902 328.574h1v1h-1zm0 0M403.621 278.926h1v1h-1zm0 0M366.098 328.574h1v1h-1zm0 0M282.031 299.664h1v1h-1zm0 0M280.168 315.176h1v1h-1zm0 0M241.969 299.664h1v1h-1zm0 0M243.832 315.176h1v1h-1zm0 0" fill="#666"/><path d="M289.824 288.105h1v1h-1zm0 0M284.273 323.66h1v1h-1zm0 0M234.176 288.105h1v1h-1zm0 0M239.727 323.66h1v1h-1zm0 0M318.707 266h1v1h-1zm0 0M299.063 335.383h1v1h-1zm0 0M205.293 266h1v1h-1zm0 0M224.938 335.383h1v1h-1zm0 0M120.582 285.434h1v1h-1zm0 0M152.086 325.723h1v1h-1zm0 0M403.418 285.434h1v1h-1zm0 0M371.914 325.723h1v1h-1zm0 0M302 276.969h1v1h-1zm0 0M290.633 330.77h1v1h-1zm0 0M222 276.969h1v1h-1zm0 0M233.367 330.77h1v1h-1zm0 0M121.938 291.82h1v1h-1zm0 0M146.45 322.352h1v1h-1zm0 0M402.063 291.82h1v1h-1zm0 0M377.55 322.352h1v1h-1zm0 0M124.305 297.96h1v1h-1zm0 0M141.07 318.46h1v1h-1zm0 0M399.695 297.96h1v1h-1zm0 0M382.93 318.46h1v1h-1zm0 0M284.04 295.195h1v1h-1zm0 0M280.754 320.703h1v1h-1zm0 0M239.96 295.195h1v1h-1zm0 0M243.246 320.703h1v1h-1zm0 0M127.54 303.758h1v1h-1zm0 0M136.05 314.05h1v1h-1zm0 0M396.46 303.758h1v1h-1zm0 0M387.95 314.05h1v1h-1zm0 0M131.5 309.137h1v1h-1zm0 0" fill="#666"/><path d="M131.5 309.137h1v1h-1zm0 0M392.5 309.137h1v1h-1zm0 0" fill="#666"/><path d="M392.5 309.137h1v1h-1zm0 0M166.535 255.531h1v1h-1zm0 0M205.266 341.035h1v1h-1zm0 0M357.465 255.531h1v1h-1zm0 0M318.734 341.035h1v1h-1zm0 0M278.145 306.691h1v1h-1zm0 0M277.625 311.836h1v1h-1zm0 0M245.855 306.691h1v1h-1zm0 0M246.375 311.836h1v1h-1zm0 0M293.82 284.457h1v1h-1zm0 0M286.027 328.988h1v1h-1zm0 0M230.18 284.457h1v1h-1zm0 0M237.973 328.988h1v1h-1zm0 0M279.25 301.934h1v1h-1zm0 0M277.64 317.258h1v1h-1zm0 0M244.75 301.934h1v1h-1zm0 0M246.36 317.258h1v1h-1zm0 0M197.07 264.402h1v1h-1zm0 0M221.078 339.059h1v1h-1zm0 0M326.93 264.402h1v1h-1zm0 0M302.922 339.059h1v1h-1zm0 0M308.227 274.277h1v1h-1zm0 0M293.5 335.45h1v1h-1zm0 0M215.773 274.277h1v1h-1zm0 0M230.5 335.45h1v1h-1zm0 0M286.816 291.285h1v1h-1zm0 0M281.855 326.27h1v1h-1zm0 0M237.184 291.285h1v1h-1zm0 0M242.145 326.27h1v1h-1zm0 0M157.488 257.61h1v1h-1zm0 0M200.074 342.64h1v1h-1zm0 0M366.512 257.61h1v1h-1zm0 0M323.926 342.64h1v1h-1zm0 0M275.266 308.492h1v1h-1zm0 0M274.836 313.586h1v1h-1zm0 0M248.734 308.492h1v1h-1zm0 0M249.164 313.586h1v1h-1zm0 0M280.984 297.684h1v1h-1zm0 0M278.148 322.86h1v1h-1zm0 0M243.016 297.684h1v1h-1zm0 0M245.852 322.86h1v1h-1zm0 0M276.172 303.852h1v1h-1zm0 0M274.852 319.016h1v1h-1zm0 0M247.828 303.852h1v1h-1zm0 0M249.148 319.016h1v1h-1zm0 0M298.7 281.566h1v1h-1zm0 0M288.246 334.188h1v1h-1zm0 0M225.3 281.566h1v1h-1zm0 0M235.754 334.188h1v1h-1zm0 0M272.152 309.926h1v1h-1zm0 0M271.824 314.98h1v1h-1zm0 0M251.848 309.926h1v1h-1zm0 0M252.176 314.98h1v1h-1zm0 0M335.7 263.922h1v1h-1zm0 0M307.121 342.398h1v1h-1zm0 0M188.3 263.922h1v1h-1zm0 0M216.879 342.398h1v1h-1zm0 0M329.324 343.832h1v1h-1zm0 0M149.059 260.855h1v1h-1zm0 0M194.676 343.832h1v1h-1zm0 0M374.941 260.855h1v1h-1zm0 0M290.39 288.082h1v1h-1zm0 0M283.422 331.816h1v1h-1zm0 0M233.61 288.082h1v1h-1zm0 0M240.578 331.816h1v1h-1zm0 0M277.602 299.785h1v1h-1zm0 0M275.266 324.684h1v1h-1zm0 0M246.398 299.785h1v1h-1zm0 0M248.734 324.684h1v1h-1zm0 0M283.383 294.082h1v1h-1zm0 0M279.102 328.563h1v1h-1zm0 0M240.617 294.082h1v1h-1zm0 0M244.898 328.563h1v1h-1zm0 0M272.852 305.379h1v1h-1zm0 0M271.836 320.414h1v1h-1zm0 0M251.148 305.379h1v1h-1zm0 0M252.164 320.414h1v1h-1zm0 0M315.293 272.54h1v1h-1zm0 0M296.773 339.875h1v1h-1zm0 0M208.707 272.54h1v1h-1zm0 0M227.227 339.875h1v1h-1zm0 0M268.867 310.973h1v1h-1zm0 0M268.648 315.992h1v1h-1zm0 0M255.133 310.973h1v1h-1zm0 0M255.352 315.992h1v1h-1zm0 0M265.465 311.605h1v1h-1zm0 0M265.352 316.61h1v1h-1zm0 0M258.535 311.605h1v1h-1zm0 0M258.648 316.61h1v1h-1zm0 0M268.652 321.434h1v1h-1zm0 0M254.66 306.488h1v1h-1zm0 0M255.348 321.434h1v1h-1zm0 0M269.34 306.488h1v1h-1zm0 0M262 311.816h1v1h-1zm0 0M262 316.816h1v1h-1zm0 0" fill="#666"/><path d="M262 311.816h1v1h-1zm0 0M262 316.816h1v1h-1zm0 0M141.523 265.152h1v1h-1zm0 0M189.105 344.594h1v1h-1zm0 0M382.477 265.152h1v1h-1zm0 0M334.895 344.594h1v1h-1zm0 0M273.945 301.46h1v1h-1zm0 0M272.156 326.133h1v1h-1zm0 0M250.055 301.46h1v1h-1zm0 0M251.844 326.133h1v1h-1zm0 0M265.703 307.164h1v1h-1zm0 0M265.355 322.055h1v1h-1zm0 0M258.297 307.164h1v1h-1zm0 0M258.645 322.055h1v1h-1zm0 0M304.434 279.582h1v1h-1zm0 0M290.879 339.223h1v1h-1zm0 0M219.566 279.582h1v1h-1zm0 0M233.121 339.223h1v1h-1zm0 0M179.238 264.645h1v1h-1zm0 0M212.379 345.39h1v1h-1zm0 0M344.762 264.645h1v1h-1zm0 0M311.621 345.39h1v1h-1zm0 0M262 307.39h1v1h-1zm0 0M262 322.262h1v1h-1zm0 0" fill="#666"/><path d="M262 307.39h1v1h-1zm0 0M262 322.262h1v1h-1zm0 0M279.574 296.441h1v1h-1zm0 0M276.05 330.5h1v1h-1zm0 0M244.426 296.441h1v1h-1zm0 0M247.95 330.5h1v1h-1zm0 0M286.465 291.273h1v1h-1zm0 0M280.453 334.3h1v1h-1zm0 0M237.535 291.273h1v1h-1zm0 0M243.547 334.3h1v1h-1zm0 0M238.594 337.29h1v1h-1zm0 0M294.758 285.738h1v1h-1zm0 0M285.406 337.29h1v1h-1zm0 0M229.242 285.738h1v1h-1zm0 0M270.082 302.684h1v1h-1zm0 0M268.871 327.191h1v1h-1zm0 0M253.918 302.684h1v1h-1zm0 0M255.129 327.191h1v1h-1zm0 0M323.07 271.887h1v1h-1zm0 0M300.406 344.031h1v1h-1zm0 0M200.93 271.887h1v1h-1zm0 0M223.594 344.031h1v1h-1zm0 0M388.898 270.336h1v1h-1zm0 0M340.602 344.914h1v1h-1zm0 0M135.102 270.336h1v1h-1zm0 0M183.398 344.914h1v1h-1zm0 0M266.078 303.426h1v1h-1zm0 0M265.465 327.832h1v1h-1zm0 0M257.922 303.426h1v1h-1zm0 0M258.535 327.832h1v1h-1zm0 0M262 328.047h1v1h-1zm0 0" fill="#666"/><path d="M262 328.047h1v1h-1zm0 0M262 303.672h1v1h-1zm0 0" fill="#666"/><path d="M262 303.672h1v1h-1zm0 0M275.457 298.328h1v1h-1zm0 0M272.758 332.047h1v1h-1zm0 0M248.543 298.328h1v1h-1zm0 0M251.242 332.047h1v1h-1zm0 0M353.832 266.598h1v1h-1zm0 0M316.39 348.02h1v1h-1zm0 0M170.168 266.598h1v1h-1zm0 0M207.61 348.02h1v1h-1zm0 0M346.414 344.777h1v1h-1zm0 0M129.953 276.215h1v1h-1zm0 0M177.586 344.777h1v1h-1zm0 0M394.047 276.215h1v1h-1zm0 0M282.113 293.973h1v1h-1zm0 0M277.16 336.402h1v1h-1zm0 0M241.887 293.973h1v1h-1zm0 0M246.84 336.402h1v1h-1zm0 0M230.113 344.059h1v1h-1zm0 0M310.953 278.648h1v1h-1zm0 0M293.887 344.059h1v1h-1zm0 0M213.047 278.648h1v1h-1zm0 0M271.105 299.7h1v1h-1zm0 0M269.277 333.168h1v1h-1zm0 0M252.895 299.7h1v1h-1zm0 0M254.723 333.168h1v1h-1zm0 0M290.242 289.418h1v1h-1zm0 0M282.164 340.016h1v1h-1zm0 0M233.758 289.418h1v1h-1zm0 0M241.836 340.016h1v1h-1zm0 0M266.594 300.531h1v1h-1zm0 0M265.672 333.852h1v1h-1zm0 0M257.406 300.531h1v1h-1zm0 0M258.328 333.852h1v1h-1zm0 0M236.238 342.648h1v1h-1zm0 0M299.895 284.402h1v1h-1zm0 0M287.762 342.648h1v1h-1zm0 0M224.105 284.402h1v1h-1zm0 0M304.363 347.898h1v1h-1zm0 0M192.633 272.422h1v1h-1zm0 0M219.637 347.898h1v1h-1zm0 0M331.367 272.422h1v1h-1zm0 0M262 300.813h1v1h-1zm0 0M262 334.082h1v1h-1zm0 0" fill="#666"/><path d="M262 300.813h1v1h-1zm0 0M262 334.082h1v1h-1zm0 0M397.832 282.566h1v1h-1zm0 0M352.29 344.168h1v1h-1zm0 0M126.168 282.566h1v1h-1zm0 0M171.71 344.168h1v1h-1zm0 0M277.406 296.125h1v1h-1zm0 0M273.61 338.074h1v1h-1zm0 0M246.594 296.125h1v1h-1zm0 0M250.39 338.074h1v1h-1zm0 0M161.383 269.754h1v1h-1zm0 0M202.605 350.277h1v1h-1zm0 0M362.617 269.754h1v1h-1zm0 0M321.395 350.277h1v1h-1zm0 0M123.766 289.18h1v1h-1zm0 0M165.82 343.063h1v1h-1zm0 0M400.234 289.18h1v1h-1zm0 0M358.18 343.063h1v1h-1zm0 0M272.426 297.695h1v1h-1zm0 0M269.852 339.293h1v1h-1zm0 0M251.574 297.695h1v1h-1zm0 0M254.148 339.293h1v1h-1zm0 0M278.57 342.32h1v1h-1zm0 0M238.777 292.527h1v1h-1zm0 0M245.43 342.32h1v1h-1zm0 0M285.223 292.527h1v1h-1zm0 0M318.133 278.887h1v1h-1zm0 0M297.23 348.668h1v1h-1zm0 0M205.867 278.887h1v1h-1zm0 0M226.77 348.668h1v1h-1zm0 0M122.71 295.86h1v1h-1zm0 0M159.965 341.441h1v1h-1zm0 0M401.29 295.86h1v1h-1zm0 0M364.035 341.441h1v1h-1zm0 0M267.262 298.648h1v1h-1zm0 0M265.96 340.031h1v1h-1zm0 0M256.738 298.648h1v1h-1zm0 0M258.04 340.031h1v1h-1zm0 0M262 340.281h1v1h-1zm0 0" fill="#666"/><path d="M262 340.281h1v1h-1zm0 0M262 298.969h1v1h-1zm0 0" fill="#666"/><path d="M262 298.969h1v1h-1zm0 0M339.96 274.2h1v1h-1zm0 0M308.605 351.453h1v1h-1zm0 0M184.04 274.2h1v1h-1zm0 0M215.395 351.453h1v1h-1zm0 0M294.684 288.656h1v1h-1zm0 0M284.195 345.664h1v1h-1zm0 0M229.316 288.656h1v1h-1zm0 0M239.805 345.664h1v1h-1zm0 0M290.453 347.855h1v1h-1zm0 0M218.258 284.21h1v1h-1zm0 0M233.547 347.855h1v1h-1zm0 0M305.742 284.21h1v1h-1zm0 0M197.398 352.145h1v1h-1zm0 0M370.813 274.02h1v1h-1zm0 0M326.602 352.145h1v1h-1zm0 0M153.188 274.02h1v1h-1zm0 0M122.914 302.422h1v1h-1zm0 0M154.207 339.29h1v1h-1zm0 0M401.086 302.422h1v1h-1zm0 0M369.793 339.29h1v1h-1zm0 0M279.793 295.012h1v1h-1zm0 0M274.688 344.156h1v1h-1zm0 0M244.207 295.012h1v1h-1zm0 0M249.313 344.156h1v1h-1zm0 0M399.734 308.727h1v1h-1zm0 0M375.383 336.586h1v1h-1zm0 0M124.266 308.727h1v1h-1zm0 0M148.617 336.586h1v1h-1zm0 0M126.621 314.656h1v1h-1zm0 0M143.285 333.32h1v1h-1zm0 0M397.379 314.656h1v1h-1zm0 0M380.715 333.32h1v1h-1zm0 0M129.836 320.125h1v1h-1zm0 0M138.3 329.484h1v1h-1zm0 0M394.164 320.125h1v1h-1zm0 0M385.7 329.484h1v1h-1zm0 0M133.777 325.078h1v1h-1zm0 0" fill="#666"/><path d="M133.777 325.078h1v1h-1zm0 0M390.223 325.078h1v1h-1zm0 0" fill="#666"/><path d="M390.223 325.078h1v1h-1zm0 0M274.043 296.82h1v1h-1zm0 0M270.586 345.496h1v1h-1zm0 0M249.957 296.82h1v1h-1zm0 0M253.414 345.496h1v1h-1zm0 0M325.805 280.383h1v1h-1zm0 0M300.875 353.027h1v1h-1zm0 0M198.195 280.383h1v1h-1zm0 0M223.125 353.027h1v1h-1zm0 0M288.887 292.254h1v1h-1zm0 0M280.242 348.207h1v1h-1zm0 0M235.113 292.254h1v1h-1zm0 0M243.758 348.207h1v1h-1zm0 0M378.152 279.25h1v1h-1zm0 0M331.98 353.605h1v1h-1zm0 0M145.848 279.25h1v1h-1zm0 0M192.02 353.605h1v1h-1zm0 0M175.426 277.227h1v1h-1zm0 0M210.895 354.684h1v1h-1zm0 0M348.574 277.227h1v1h-1zm0 0M313.105 354.684h1v1h-1zm0 0M266.332 346.309h1v1h-1zm0 0M257.668 346.309h1v1h-1zm0 0M268.078 297.922h1v1h-1zm0 0M255.922 297.922h1v1h-1zm0 0M262 298.29h1v1h-1zm0 0M262 346.582h1v1h-1zm0 0" fill="#666"/><path d="M262 298.29h1v1h-1zm0 0M262 346.582h1v1h-1zm0 0M299.746 289.117h1v1h-1zm0 0M286.52 351.195h1v1h-1zm0 0M224.254 289.117h1v1h-1zm0 0M237.48 351.195h1v1h-1zm0 0M293.445 352.879h1v1h-1zm0 0M211.813 285.27h1v1h-1zm0 0M230.555 352.879h1v1h-1zm0 0M312.188 285.27h1v1h-1zm0 0M282.605 295.129h1v1h-1zm0 0M275.973 350.242h1v1h-1zm0 0M241.395 295.129h1v1h-1zm0 0M248.027 350.242h1v1h-1zm0 0M139.586 285.258h1v1h-1zm0 0M186.5 354.637h1v1h-1zm0 0M384.414 285.258h1v1h-1zm0 0M337.5 354.637h1v1h-1zm0 0M356.93 281.434h1v1h-1zm0 0M317.832 357.57h1v1h-1zm0 0M167.07 281.434h1v1h-1zm0 0M206.168 357.57h1v1h-1zm0 0M333.762 283.164h1v1h-1zm0 0M304.785 357.113h1v1h-1zm0 0M190.238 283.164h1v1h-1zm0 0M219.215 357.113h1v1h-1zm0 0M275.95 297.227h1v1h-1zm0 0M271.453 351.719h1v1h-1zm0 0M248.05 297.227h1v1h-1zm0 0M252.547 351.719h1v1h-1zm0 0M293.063 293.277h1v1h-1zm0 0M282.156 354.02h1v1h-1zm0 0M230.938 293.277h1v1h-1zm0 0M241.844 354.02h1v1h-1zm0 0M343.125 355.227h1v1h-1zm0 0M134.563 291.813h1v1h-1zm0 0M180.875 355.227h1v1h-1zm0 0M389.438 291.813h1v1h-1zm0 0M269.04 298.504h1v1h-1zm0 0M266.77 352.617h1v1h-1zm0 0M254.96 298.504h1v1h-1zm0 0M257.23 352.617h1v1h-1zm0 0" fill="#666"/><path d="M262 298.93h1v1h-1zm0 0M262 352.922h1v1h-1zm0 0" fill="#666"/><path d="M262 298.93h1v1h-1zm0 0M262 352.922h1v1h-1zm0 0M319.086 287.648h1v1h-1zm0 0M296.707 357.688h1v1h-1zm0 0M204.914 287.648h1v1h-1zm0 0M227.293 357.688h1v1h-1zm0 0M218.668 290.91h1v1h-1zm0 0M234.895 356.586h1v1h-1zm0 0M305.332 290.91h1v1h-1zm0 0M289.105 356.586h1v1h-1zm0 0M130.863 298.695h1v1h-1zm0 0M175.188 355.34h1v1h-1zm0 0M393.137 298.695h1v1h-1zm0 0M348.813 355.34h1v1h-1zm0 0M285.816 296.605h1v1h-1zm0 0M277.441 356.277h1v1h-1zm0 0M238.184 296.605h1v1h-1zm0 0M246.559 356.277h1v1h-1zm0 0M159.262 286.703h1v1h-1zm0 0M201.242 360.09h1v1h-1zm0 0M364.738 286.703h1v1h-1zm0 0M322.758 360.09h1v1h-1zm0 0M341.75 287.21h1v1h-1zm0 0M308.934 360.906h1v1h-1zm0 0M182.25 287.21h1v1h-1zm0 0M215.066 360.906h1v1h-1zm0 0M278.125 299.031h1v1h-1zm0 0M272.45 357.918h1v1h-1zm0 0M245.875 299.031h1v1h-1zm0 0M251.55 357.918h1v1h-1zm0 0M128.52 305.68h1v1h-1zm0 0M169.473 354.96h1v1h-1zm0 0M395.48 305.68h1v1h-1zm0 0M354.527 354.96h1v1h-1zm0 0M284.29 359.719h1v1h-1zm0 0M226.324 295.695h1v1h-1zm0 0M239.71 359.719h1v1h-1zm0 0M297.676 295.695h1v1h-1zm0 0M326.246 291.363h1v1h-1zm0 0M300.21 362.262h1v1h-1zm0 0M197.754 291.363h1v1h-1zm0 0M223.79 362.262h1v1h-1zm0 0M267.27 358.918h1v1h-1zm0 0M253.86 300.508h1v1h-1zm0 0M256.73 358.918h1v1h-1zm0 0M270.14 300.508h1v1h-1zm0 0M371.738 292.855h1v1h-1zm0 0M327.848 362.223h1v1h-1zm0 0M152.262 292.855h1v1h-1zm0 0M196.152 362.223h1v1h-1zm0 0M291.926 361.793h1v1h-1zm0 0M212.684 294.082h1v1h-1zm0 0M232.074 361.793h1v1h-1zm0 0M311.316 294.082h1v1h-1zm0 0M262 301.004h1v1h-1zm0 0M262 359.25h1v1h-1zm0 0" fill="#666"/><path d="M262 301.004h1v1h-1zm0 0M262 359.25h1v1h-1zm0 0M360.21 354.059h1v1h-1zm0 0M127.484 312.57h1v1h-1zm0 0M163.79 354.059h1v1h-1zm0 0M396.516 312.57h1v1h-1zm0 0M349.512 292.43h1v1h-1zm0 0M313.293 364.383h1v1h-1zm0 0M174.488 292.43h1v1h-1zm0 0M210.707 364.383h1v1h-1zm0 0M127.688 319.191h1v1h-1zm0 0M158.195 352.605h1v1h-1zm0 0M396.313 319.191h1v1h-1zm0 0M365.805 352.605h1v1h-1zm0 0M289.363 299.523h1v1h-1zm0 0M279.074 362.223h1v1h-1zm0 0M234.637 299.523h1v1h-1zm0 0M244.926 362.223h1v1h-1zm0 0M129.004 325.406h1v1h-1zm0 0M152.758 350.57h1v1h-1zm0 0M394.996 325.406h1v1h-1zm0 0M371.242 350.57h1v1h-1zm0 0M377.719 299.664h1v1h-1zm0 0M333.074 363.95h1v1h-1zm0 0M146.281 299.664h1v1h-1zm0 0M190.926 363.95h1v1h-1zm0 0M131.305 331.121h1v1h-1zm0 0M147.563 347.934h1v1h-1zm0 0M392.695 331.121h1v1h-1zm0 0M376.438 347.934h1v1h-1zm0 0M280.531 302.316h1v1h-1zm0 0M273.555 364.047h1v1h-1zm0 0M243.469 302.316h1v1h-1zm0 0M250.445 364.047h1v1h-1zm0 0M302.625 299.54h1v1h-1zm0 0M286.613 365.27h1v1h-1zm0 0M221.375 299.54h1v1h-1zm0 0M237.387 365.27h1v1h-1zm0 0M333.45 296.355h1v1h-1zm0 0M303.93 366.57h1v1h-1zm0 0M190.55 296.355h1v1h-1zm0 0M220.07 366.57h1v1h-1zm0 0M134.45 336.258h1v1h-1zm0 0M142.707 344.676h1v1h-1zm0 0M389.55 336.258h1v1h-1zm0 0M381.293 344.676h1v1h-1zm0 0M138.293 340.785h1v1h-1zm0 0" fill="#666"/><path d="M138.293 340.785h1v1h-1zm0 0M385.707 340.785h1v1h-1zm0 0" fill="#666"/><path d="M385.707 340.785h1v1h-1zm0 0M229.043 366.797h1v1h-1zm0 0M317.535 298.625h1v1h-1zm0 0M294.957 366.797h1v1h-1zm0 0M206.465 298.625h1v1h-1zm0 0M271.355 304.02h1v1h-1zm0 0M267.832 365.156h1v1h-1zm0 0M252.645 304.02h1v1h-1zm0 0M256.168 365.156h1v1h-1zm0 0M356.773 298.656h1v1h-1zm0 0M317.84 367.52h1v1h-1zm0 0M167.227 298.656h1v1h-1zm0 0M206.16 367.52h1v1h-1zm0 0M262 304.59h1v1h-1zm0 0M262 365.527h1v1h-1zm0 0" fill="#666"/><path d="M262 304.59h1v1h-1zm0 0M262 365.527h1v1h-1zm0 0M382.52 306.895h1v1h-1zm0 0M338.406 365.238h1v1h-1zm0 0M141.48 306.895h1v1h-1zm0 0M185.594 365.238h1v1h-1zm0 0M293.168 303.914h1v1h-1zm0 0M280.86 368.047h1v1h-1zm0 0M230.832 303.914h1v1h-1zm0 0M243.14 368.047h1v1h-1zm0 0M340.453 302.508h1v1h-1zm0 0M307.844 370.59h1v1h-1zm0 0M183.547 302.508h1v1h-1zm0 0M216.156 370.59h1v1h-1zm0 0M137.941 314.3h1v1h-1zm0 0M180.191 366.063h1v1h-1zm0 0M386.059 314.3h1v1h-1zm0 0M343.809 366.063h1v1h-1zm0 0M363.293 305.688h1v1h-1zm0 0M322.547 370.293h1v1h-1zm0 0M160.707 305.688h1v1h-1zm0 0M201.453 370.293h1v1h-1zm0 0M216.227 304.797h1v1h-1zm0 0M234.887 370.64h1v1h-1zm0 0M307.773 304.797h1v1h-1zm0 0M289.113 370.64h1v1h-1zm0 0M283.117 307.11h1v1h-1zm0 0M274.766 370.07h1v1h-1zm0 0M240.883 307.11h1v1h-1zm0 0M249.234 370.07h1v1h-1zm0 0M323.8 304.469h1v1h-1zm0 0M298.176 371.566h1v1h-1zm0 0M200.2 304.469h1v1h-1zm0 0M225.824 371.566h1v1h-1zm0 0M272.66 309.055h1v1h-1zm0 0M268.441 371.3h1v1h-1zm0 0M251.34 309.055h1v1h-1zm0 0M255.559 371.3h1v1h-1zm0 0M135.695 321.648h1v1h-1zm0 0M174.766 366.395h1v1h-1zm0 0M388.305 321.648h1v1h-1zm0 0M349.234 366.395h1v1h-1zm0 0M262 371.71h1v1h-1zm0 0" fill="#666"/><path d="M262 371.71h1v1h-1zm0 0M262 309.707h1v1h-1zm0 0" fill="#666"/><path d="M262 309.707h1v1h-1zm0 0M297.133 309.75h1v1h-1zm0 0M282.777 373.71h1v1h-1zm0 0M226.867 309.75h1v1h-1zm0 0M241.223 373.71h1v1h-1zm0 0M368.867 313.273h1v1h-1zm0 0M327.383 372.676h1v1h-1zm0 0M155.133 313.273h1v1h-1zm0 0M196.617 372.676h1v1h-1zm0 0M347.016 309.633h1v1h-1zm0 0M311.926 374.297h1v1h-1zm0 0M176.984 309.633h1v1h-1zm0 0M212.074 374.297h1v1h-1zm0 0M134.707 328.746h1v1h-1zm0 0M169.36 366.191h1v1h-1zm0 0M389.293 328.746h1v1h-1zm0 0M354.64 366.191h1v1h-1zm0 0M232.23 375.797h1v1h-1zm0 0M312.965 311.371h1v1h-1zm0 0M291.77 375.797h1v1h-1zm0 0M211.035 311.371h1v1h-1zm0 0M329.898 311.46h1v1h-1zm0 0M301.566 376.07h1v1h-1zm0 0M194.102 311.46h1v1h-1zm0 0M222.434 376.07h1v1h-1zm0 0M389.102 335.418h1v1h-1zm0 0M359.969 365.418h1v1h-1zm0 0M134.898 335.418h1v1h-1zm0 0M164.031 365.418h1v1h-1zm0 0M285.813 313.367h1v1h-1zm0 0M276.066 375.95h1v1h-1zm0 0M238.188 313.367h1v1h-1zm0 0M247.934 375.95h1v1h-1zm0 0M136.16 341.547h1v1h-1zm0 0M158.852 364.043h1v1h-1zm0 0M387.84 341.547h1v1h-1zm0 0M365.148 364.043h1v1h-1zm0 0M373.352 321.152h1v1h-1zm0 0M332.32 374.633h1v1h-1zm0 0M150.648 321.152h1v1h-1zm0 0M191.68 374.633h1v1h-1zm0 0M274.023 315.57h1v1h-1zm0 0M269.098 377.309h1v1h-1zm0 0M249.977 315.57h1v1h-1zm0 0M254.902 377.309h1v1h-1zm0 0M262 316.313h1v1h-1zm0 0M262 377.766h1v1h-1zm0 0" fill="#666"/><path d="M262 316.313h1v1h-1zm0 0M262 377.766h1v1h-1zm0 0M138.363 347.043h1v1h-1zm0 0M153.898 362.027h1v1h-1zm0 0M385.637 347.043h1v1h-1zm0 0M370.102 362.027h1v1h-1zm0 0M171.082 317.484h1v1h-1zm0 0M207.844 377.656h1v1h-1zm0 0M352.918 317.484h1v1h-1zm0 0M316.156 377.656h1v1h-1zm0 0M382.629 351.855h1v1h-1zm0 0M374.738 359.34h1v1h-1zm0 0M141.371 351.855h1v1h-1zm0 0M149.262 359.34h1v1h-1zm0 0M145.047 355.953h1v1h-1zm0 0" fill="#666"/><path d="M145.047 355.953h1v1h-1zm0 0M378.953 355.953h1v1h-1zm0 0" fill="#666"/><path d="M378.953 355.953h1v1h-1zm0 0M301.133 316.91h1v1h-1zm0 0M284.82 379.184h1v1h-1zm0 0M222.867 316.91h1v1h-1zm0 0M239.18 379.184h1v1h-1zm0 0M376.652 329.059h1v1h-1zm0 0M337.328 376.133h1v1h-1zm0 0M147.348 329.059h1v1h-1zm0 0M186.672 376.133h1v1h-1zm0 0M305.105 380.281h1v1h-1zm0 0M188.379 319.39h1v1h-1zm0 0M218.895 380.281h1v1h-1zm0 0M335.621 319.39h1v1h-1zm0 0M294.566 380.715h1v1h-1zm0 0M205.98 319.09h1v1h-1zm0 0M229.434 380.715h1v1h-1zm0 0M318.02 319.09h1v1h-1zm0 0M277.453 381.652h1v1h-1zm0 0M246.547 381.652h1v1h-1zm0 0M288.531 320.965h1v1h-1zm0 0M235.469 320.965h1v1h-1zm0 0M203.492 380.64h1v1h-1zm0 0M357.969 325.797h1v1h-1zm0 0M320.508 380.64h1v1h-1zm0 0M166.031 325.797h1v1h-1zm0 0M378.754 336.762h1v1h-1zm0 0M342.363 377.137h1v1h-1zm0 0M145.246 336.762h1v1h-1zm0 0M181.637 377.137h1v1h-1zm0 0M275.398 323.434h1v1h-1zm0 0M269.797 383.152h1v1h-1zm0 0M248.602 323.434h1v1h-1zm0 0M254.203 383.152h1v1h-1zm0 0M262 383.656h1v1h-1zm0 0" fill="#666"/><path d="M262 383.656h1v1h-1zm0 0M262 324.262h1v1h-1zm0 0" fill="#666"/><path d="M262 324.262h1v1h-1zm0 0M305.031 325.215h1v1h-1zm0 0M286.969 384.43h1v1h-1zm0 0M218.969 325.215h1v1h-1zm0 0M237.031 384.43h1v1h-1zm0 0M340.77 327.988h1v1h-1zm0 0M308.773 384.168h1v1h-1zm0 0M183.23 327.988h1v1h-1zm0 0M215.227 384.168h1v1h-1zm0 0M347.383 377.602h1v1h-1zm0 0M144.324 344.055h1v1h-1zm0 0M176.617 377.602h1v1h-1zm0 0M379.676 344.055h1v1h-1zm0 0M322.77 327.71h1v1h-1zm0 0M297.492 385.36h1v1h-1zm0 0M201.23 327.71h1v1h-1zm0 0M226.508 385.36h1v1h-1zm0 0M362.031 334.281h1v1h-1zm0 0M324.953 383.215h1v1h-1zm0 0M161.969 334.281h1v1h-1zm0 0M199.047 383.215h1v1h-1zm0 0M379.5 350.781h1v1h-1zm0 0M352.336 377.484h1v1h-1zm0 0M144.5 350.781h1v1h-1zm0 0M171.664 377.484h1v1h-1zm0 0M291.184 329.7h1v1h-1zm0 0M278.91 387.14h1v1h-1zm0 0M232.816 329.7h1v1h-1zm0 0M245.09 387.14h1v1h-1zm0 0M378.32 356.824h1v1h-1zm0 0M357.152 376.742h1v1h-1zm0 0M145.68 356.824h1v1h-1zm0 0M166.848 376.742h1v1h-1zm0 0M276.742 332.434h1v1h-1zm0 0M270.535 388.793h1v1h-1zm0 0M247.258 332.434h1v1h-1zm0 0M253.465 388.793h1v1h-1zm0 0M158.969 342.66h1v1h-1zm0 0M194.54 385.34h1v1h-1zm0 0M365.031 342.66h1v1h-1zm0 0M329.46 385.34h1v1h-1zm0 0M312.55 387.691h1v1h-1zm0 0M178.82 336.953h1v1h-1zm0 0M211.45 387.691h1v1h-1zm0 0M345.18 336.953h1v1h-1zm0 0M262 389.344h1v1h-1zm0 0" fill="#666"/><path d="M262 389.344h1v1h-1zm0 0M262 333.355h1v1h-1zm0 0" fill="#666"/><path d="M262 333.355h1v1h-1zm0 0M308.7 334.402h1v1h-1zm0 0M289.219 389.422h1v1h-1zm0 0M215.3 334.402h1v1h-1zm0 0M234.781 389.422h1v1h-1zm0 0M147.738 362.11h1v1h-1zm0 0M162.234 375.324h1v1h-1zm0 0M376.262 362.11h1v1h-1zm0 0M361.766 375.324h1v1h-1zm0 0M373.45 366.598h1v1h-1zm0 0M366.09 373.184h1v1h-1zm0 0M150.55 366.598h1v1h-1zm0 0M157.91 373.184h1v1h-1zm0 0M327.047 336.95h1v1h-1zm0 0M300.523 389.691h1v1h-1zm0 0M196.953 336.95h1v1h-1zm0 0M223.477 389.691h1v1h-1zm0 0M370.02 370.285h1v1h-1zm0 0" fill="#666"/><path d="M370.02 370.285h1v1h-1zm0 0M153.98 370.285h1v1h-1zm0 0" fill="#666"/><path d="M153.98 370.285h1v1h-1zm0 0M157.066 350.691h1v1h-1zm0 0M189.996 386.973h1v1h-1zm0 0M366.934 350.691h1v1h-1zm0 0M334.004 386.973h1v1h-1zm0 0M293.676 339.305h1v1h-1zm0 0M280.438 392.387h1v1h-1zm0 0M230.324 339.305h1v1h-1zm0 0M243.563 392.387h1v1h-1zm0 0M348.73 345.984h1v1h-1zm0 0M316.41 390.82h1v1h-1zm0 0M175.27 345.984h1v1h-1zm0 0M207.59 390.82h1v1h-1zm0 0M278.004 342.293h1v1h-1zm0 0M271.305 394.191h1v1h-1zm0 0M245.996 342.293h1v1h-1zm0 0M252.695 394.191h1v1h-1zm0 0M156.227 358.172h1v1h-1zm0 0M185.465 388.063h1v1h-1zm0 0M367.773 358.172h1v1h-1zm0 0M338.535 388.063h1v1h-1zm0 0M312.004 344.164h1v1h-1zm0 0M291.55 394.117h1v1h-1zm0 0M211.996 344.164h1v1h-1zm0 0M232.45 394.117h1v1h-1zm0 0M262 343.297h1v1h-1zm0 0M262 394.797h1v1h-1zm0 0" fill="#666"/><path d="M262 343.297h1v1h-1zm0 0M262 394.797h1v1h-1zm0 0M303.645 393.68h1v1h-1zm0 0M193.285 346.484h1v1h-1zm0 0M220.355 393.68h1v1h-1zm0 0M330.715 346.484h1v1h-1zm0 0M351.355 354.793h1v1h-1zm0 0M320.332 393.504h1v1h-1zm0 0M172.645 354.793h1v1h-1zm0 0M203.668 393.504h1v1h-1zm0 0M367.613 364.941h1v1h-1zm0 0M343.004 388.555h1v1h-1zm0 0M156.387 364.941h1v1h-1zm0 0M180.996 388.555h1v1h-1zm0 0M295.926 349.45h1v1h-1zm0 0M282.02 397.348h1v1h-1zm0 0M228.074 349.45h1v1h-1zm0 0M241.98 397.348h1v1h-1zm0 0M157.46 370.902h1v1h-1zm0 0M176.637 388.402h1v1h-1zm0 0M366.54 370.902h1v1h-1zm0 0M347.363 388.402h1v1h-1zm0 0M333.672 355.992h1v1h-1zm0 0M306.84 397.281h1v1h-1zm0 0M190.328 355.992h1v1h-1zm0 0M217.16 397.281h1v1h-1zm0 0M314.836 354.16h1v1h-1zm0 0M293.953 398.48h1v1h-1zm0 0M209.164 354.16h1v1h-1zm0 0M230.047 398.48h1v1h-1zm0 0M272.105 399.316h1v1h-1zm0 0M244.855 352.676h1v1h-1zm0 0M251.895 399.316h1v1h-1zm0 0M279.145 352.676h1v1h-1zm0 0M364.672 375.988h1v1h-1zm0 0M351.535 387.54h1v1h-1zm0 0M159.328 375.988h1v1h-1zm0 0M172.465 387.54h1v1h-1zm0 0M353.02 363.121h1v1h-1zm0 0M324.281 395.7h1v1h-1zm0 0M170.98 363.121h1v1h-1zm0 0M199.719 395.7h1v1h-1zm0 0M262 353.758h1v1h-1zm0 0M262 399.977h1v1h-1zm0 0" fill="#666"/><path d="M262 353.758h1v1h-1zm0 0M262 399.977h1v1h-1zm0 0M161.875 380.176h1v1h-1zm0 0M168.55 385.918h1v1h-1zm0 0M362.125 380.176h1v1h-1zm0 0M355.45 385.918h1v1h-1zm0 0M359.012 383.477h1v1h-1zm0 0" fill="#666"/><path d="M359.012 383.477h1v1h-1zm0 0M164.988 383.477h1v1h-1zm0 0" fill="#666"/><path d="M164.988 383.477h1v1h-1zm0 0M297.86 359.785h1v1h-1zm0 0M283.652 401.984h1v1h-1zm0 0M226.14 359.785h1v1h-1zm0 0M240.348 401.984h1v1h-1zm0 0M353.754 370.766h1v1h-1zm0 0M328.227 397.348h1v1h-1zm0 0M170.246 370.766h1v1h-1zm0 0M195.773 397.348h1v1h-1zm0 0M188.148 365.168h1v1h-1zm0 0M213.91 400.445h1v1h-1zm0 0M335.852 365.168h1v1h-1zm0 0M310.09 400.445h1v1h-1zm0 0M317.125 364.05h1v1h-1zm0 0M296.414 402.46h1v1h-1zm0 0M206.875 364.05h1v1h-1zm0 0M227.586 402.46h1v1h-1zm0 0M280.121 363.223h1v1h-1zm0 0M272.93 404.121h1v1h-1zm0 0M243.879 363.223h1v1h-1zm0 0M251.07 404.121h1v1h-1zm0 0M191.879 398.39h1v1h-1zm0 0M353.613 377.582h1v1h-1zm0 0M332.121 398.39h1v1h-1zm0 0M170.387 377.582h1v1h-1zm0 0M262 364.375h1v1h-1zm0 0M262 404.836h1v1h-1zm0 0" fill="#666"/><path d="M262 364.375h1v1h-1zm0 0M262 404.836h1v1h-1zm0 0M186.758 373.754h1v1h-1zm0 0M210.637 403.125h1v1h-1zm0 0M337.242 373.754h1v1h-1zm0 0M313.363 403.125h1v1h-1zm0 0M352.676 383.465h1v1h-1zm0 0M335.922 398.77h1v1h-1zm0 0M171.324 383.465h1v1h-1zm0 0M188.078 398.77h1v1h-1zm0 0M299.418 369.965h1v1h-1zm0 0M285.324 406.25h1v1h-1zm0 0M224.582 369.965h1v1h-1zm0 0M238.676 406.25h1v1h-1zm0 0M205.188 373.531h1v1h-1zm0 0M225.082 406.016h1v1h-1zm0 0M318.813 373.531h1v1h-1zm0 0M298.918 406.016h1v1h-1zm0 0M351.04 388.367h1v1h-1zm0 0M339.563 398.41h1v1h-1zm0 0M172.96 388.367h1v1h-1zm0 0M184.438 398.41h1v1h-1zm0 0M175.188 392.281h1v1h-1zm0 0M181.02 397.254h1v1h-1zm0 0M348.813 392.281h1v1h-1zm0 0M342.98 397.254h1v1h-1zm0 0M250.223 408.555h1v1h-1zm0 0M280.91 373.574h1v1h-1zm0 0M273.777 408.555h1v1h-1zm0 0M243.09 373.574h1v1h-1zm0 0M346.094 395.23h1v1h-1zm0 0" fill="#666"/><path d="M346.094 395.23h1v1h-1zm0 0M177.906 395.23h1v1h-1zm0 0" fill="#666"/><path d="M177.906 395.23h1v1h-1zm0 0M337.852 381.547h1v1h-1zm0 0M316.633 405.254h1v1h-1zm0 0M186.148 381.547h1v1h-1zm0 0M207.367 405.254h1v1h-1zm0 0M262 409.332h1v1h-1zm0 0" fill="#666"/><path d="M262 409.332h1v1h-1zm0 0M262 374.79h1v1h-1zm0 0" fill="#666"/><path d="M262 374.79h1v1h-1zm0 0M300.566 379.664h1v1h-1zm0 0M287.023 410.09h1v1h-1zm0 0M223.434 379.664h1v1h-1zm0 0M236.977 410.09h1v1h-1zm0 0M301.441 409.086h1v1h-1zm0 0M222.559 409.086h1v1h-1zm0 0M319.887 382.328h1v1h-1zm0 0M204.113 382.328h1v1h-1zm0 0M337.734 388.395h1v1h-1zm0 0M319.867 406.773h1v1h-1zm0 0M186.266 388.395h1v1h-1zm0 0M204.133 406.773h1v1h-1zm0 0M281.496 383.414h1v1h-1zm0 0M274.637 412.57h1v1h-1zm0 0M242.504 383.414h1v1h-1zm0 0M249.363 412.57h1v1h-1zm0 0M187.047 394.207h1v1h-1zm0 0M200.98 407.61h1v1h-1zm0 0M336.953 394.207h1v1h-1zm0 0M323.02 407.61h1v1h-1zm0 0M262 384.676h1v1h-1zm0 0M262 413.402h1v1h-1zm0 0" fill="#666"/><path d="M262 384.676h1v1h-1zm0 0M262 413.402h1v1h-1zm0 0M303.96 411.605h1v1h-1zm0 0M203.64 390.234h1v1h-1zm0 0M220.04 411.605h1v1h-1zm0 0M320.36 390.234h1v1h-1zm0 0M301.3 388.617h1v1h-1zm0 0M288.738 413.445h1v1h-1zm0 0M222.7 388.617h1v1h-1zm0 0M235.262 413.445h1v1h-1zm0 0M188.406 398.953h1v1h-1zm0 0M197.953 407.691h1v1h-1zm0 0M335.594 398.953h1v1h-1zm0 0M326.047 407.691h1v1h-1zm0 0M333.738 402.629h1v1h-1zm0 0M328.887 406.934h1v1h-1zm0 0M190.262 402.629h1v1h-1zm0 0M195.113 406.934h1v1h-1zm0 0M331.473 405.273h1v1h-1zm0 0" fill="#666"/><path d="M331.473 405.273h1v1h-1zm0 0M192.527 405.273h1v1h-1zm0 0" fill="#666"/><path d="M192.527 405.273h1v1h-1zm0 0M320.27 397.11h1v1h-1zm0 0M306.457 413.512h1v1h-1zm0 0M203.73 397.11h1v1h-1zm0 0M217.543 413.512h1v1h-1zm0 0M281.867 392.46h1v1h-1zm0 0M275.504 416.105h1v1h-1zm0 0M242.133 392.46h1v1h-1zm0 0M248.496 416.105h1v1h-1zm0 0M262 393.754h1v1h-1zm0 0M262 416.996h1v1h-1zm0 0" fill="#666"/><path d="M262 393.754h1v1h-1zm0 0M262 416.996h1v1h-1zm0 0M301.621 396.613h1v1h-1zm0 0M290.453 416.254h1v1h-1zm0 0M222.379 396.613h1v1h-1zm0 0M233.547 416.254h1v1h-1zm0 0M319.664 402.871h1v1h-1zm0 0M308.89 414.719h1v1h-1zm0 0M204.336 402.871h1v1h-1zm0 0M215.11 414.719h1v1h-1zm0 0M282.031 400.512h1v1h-1zm0 0M276.371 419.09h1v1h-1zm0 0M241.969 400.512h1v1h-1zm0 0M247.629 419.09h1v1h-1zm0 0M318.61 407.484h1v1h-1zm0 0M311.23 415.156h1v1h-1zm0 0M205.39 407.484h1v1h-1zm0 0M212.77 415.156h1v1h-1zm0 0M301.559 403.508h1v1h-1zm0 0M292.152 418.441h1v1h-1zm0 0M222.441 403.508h1v1h-1zm0 0M231.848 418.441h1v1h-1zm0 0M262 401.82h1v1h-1zm0 0M262 420.043h1v1h-1zm0 0" fill="#666"/><path d="M262 401.82h1v1h-1zm0 0M262 420.043h1v1h-1zm0 0M317.176 410.965h1v1h-1zm0 0M313.422 414.73h1v1h-1zm0 0M206.824 410.965h1v1h-1zm0 0M210.578 414.73h1v1h-1zm0 0M315.426 413.36h1v1h-1zm0 0" fill="#666"/><path d="M315.426 413.36h1v1h-1zm0 0M208.574 413.36h1v1h-1zm0 0" fill="#666"/><path d="M208.574 413.36h1v1h-1zm0 0M301.148 409.227h1v1h-1zm0 0M293.809 419.926h1v1h-1zm0 0M222.852 409.227h1v1h-1zm0 0M230.191 419.926h1v1h-1zm0 0M281.996 407.418h1v1h-1zm0 0M277.23 421.45h1v1h-1zm0 0M242.004 407.418h1v1h-1zm0 0M246.77 421.45h1v1h-1zm0 0M262 408.734h1v1h-1zm0 0M262 422.46h1v1h-1zm0 0" fill="#666"/><path d="M262 408.734h1v1h-1zm0 0M262 422.46h1v1h-1zm0 0M223.57 413.746h1v1h-1zm0 0M228.602 420.625h1v1h-1zm0 0M300.43 413.746h1v1h-1zm0 0M295.398 420.625h1v1h-1zm0 0M281.79 413.113h1v1h-1zm0 0M278.07 423.105h1v1h-1zm0 0M242.21 413.113h1v1h-1zm0 0M245.93 423.105h1v1h-1zm0 0M299.453 417.082h1v1h-1zm0 0M296.895 420.441h1v1h-1zm0 0M224.547 417.082h1v1h-1zm0 0M227.105 420.441h1v1h-1zm0 0M298.258 419.29h1v1h-1zm0 0" fill="#666"/><path d="M298.258 419.29h1v1h-1zm0 0M225.742 419.29h1v1h-1zm0 0" fill="#666"/><path d="M225.742 419.29h1v1h-1zm0 0M262 414.418h1v1h-1zm0 0M262 424.172h1v1h-1zm0 0" fill="#666"/><path d="M262 414.418h1v1h-1zm0 0M262 424.172h1v1h-1zm0 0M281.426 417.57h1v1h-1zm0 0M278.875 423.96h1v1h-1zm0 0M242.574 417.57h1v1h-1zm0 0M245.125 423.96h1v1h-1zm0 0M262 418.855h1v1h-1zm0 0" fill="#666"/><path d="M262 425.086h1v1h-1zm0 0M262 418.855h1v1h-1zm0 0" fill="#666"/><path d="M262 425.086h1v1h-1zm0 0M280.93 420.816h1v1h-1zm0 0M279.633 423.93h1v1h-1zm0 0M243.07 420.816h1v1h-1zm0 0M244.367 423.93h1v1h-1zm0 0M280.324 422.91h1v1h-1zm0 0" fill="#666"/><path d="M280.324 422.91h1v1h-1zm0 0M243.676 422.91h1v1h-1zm0 0" fill="#666"/><path d="M243.676 422.91h1v1h-1zm0 0M262 422.074h1v1h-1zm0 0M262 425.102h1v1h-1zm0 0" fill="#666"/><path d="M262 422.074h1v1h-1zm0 0M262 425.102h1v1h-1zm0 0" fill="#666"/><path d="M262 424.129h1v1h-1zm0 0" fill="#666"/><path d="M262 424.129h1v1h-1zm0 0" fill="#666"/><path d="M262 424.129h1v1h-1zm0 0" fill="#666"/><path d="M262 424.129h1v1h-1zm0 0" fill="#666"/></svg>