<?xml version="1.0" encoding="UTF-8"?>
<svg xmlns="http://www.w3.org/2000/svg" xmlns:xlink="http://www.w3.org/1999/xlink" width="525pt" height="525pt" viewBox="0 0 525 525" version="1.1">
<g id="surface41">
<rect x="0" y="0" width="525" height="525" style="fill:rgb(100%,100%,100%);fill-opacity:1;stroke:none;"/>
<path style="fill-rule:nonzero;fill:rgb(100%,49.803922%,31.372549%);fill-opacity:1;stroke-width:0.75;stroke-linecap:round;stroke-linejoin:round;stroke:rgb(100%,49.803922%,31.372549%);stroke-opacity:1;stroke-miterlimit:10;" d="M 417.847656 145.808594 C 417.847656 147.726562 414.964844 147.726562 414.964844 145.808594 C 414.964844 143.886719 417.847656 143.886719 417.847656 145.808594 "/>
<path style="fill-rule:nonzero;fill:rgb(100%,49.803922%,31.372549%);fill-opacity:1;stroke-width:0.75;stroke-linecap:round;stroke-linejoin:round;stroke:rgb(100%,49.803922%,31.372549%);stroke-opacity:1;stroke-miterlimit:10;" d="M 165.234375 337.027344 C 165.234375 338.949219 162.351562 338.949219 162.351562 337.027344 C 162.351562 335.109375 165.234375 335.109375 165.234375 337.027344 "/>
<path style="fill-rule:nonzero;fill:rgb(100%,49.803922%,31.372549%);fill-opacity:1;stroke-width:0.75;stroke-linecap:round;stroke-linejoin:round;stroke:rgb(100%,49.803922%,31.372549%);stroke-opacity:1;stroke-miterlimit:10;" d="M 71.167969 386.609375 C 71.167969 388.527344 68.285156 388.527344 68.285156 386.609375 C 68.285156 384.6875 71.167969 384.6875 71.167969 386.609375 "/>
<path style="fill-rule:nonzero;fill:rgb(100%,49.803922%,31.372549%);fill-opacity:1;stroke-width:0.75;stroke-linecap:round;stroke-linejoin:round;stroke:rgb(100%,49.803922%,31.372549%);stroke-opacity:1;stroke-miterlimit:10;" d="M 172.382812 435.121094 C 172.382812 437.039062 169.503906 437.039062 169.503906 435.121094 C 169.503906 433.199219 172.382812 433.199219 172.382812 435.121094 "/>
<path style="fill-rule:nonzero;fill:rgb(100%,49.803922%,31.372549%);fill-opacity:1;stroke-width:0.75;stroke-linecap:round;stroke-linejoin:round;stroke:rgb(100%,49.803922%,31.372549%);stroke-opacity:1;stroke-miterlimit:10;" d="M 386.496094 414.484375 C 386.496094 416.402344 383.613281 416.402344 383.613281 414.484375 C 383.613281 412.5625 386.496094 412.5625 386.496094 414.484375 "/>
<path style="fill-rule:nonzero;fill:rgb(100%,49.803922%,31.372549%);fill-opacity:1;stroke-width:0.75;stroke-linecap:round;stroke-linejoin:round;stroke:rgb(100%,49.803922%,31.372549%);stroke-opacity:1;stroke-miterlimit:10;" d="M 151.023438 422.144531 C 151.023438 424.0625 148.144531 424.0625 148.144531 422.144531 C 148.144531 420.222656 151.023438 420.222656 151.023438 422.144531 "/>
<path style="fill-rule:nonzero;fill:rgb(100%,49.803922%,31.372549%);fill-opacity:1;stroke-width:0.75;stroke-linecap:round;stroke-linejoin:round;stroke:rgb(100%,49.803922%,31.372549%);stroke-opacity:1;stroke-miterlimit:10;" d="M 490.289062 250.472656 C 490.289062 252.394531 487.410156 252.394531 487.410156 250.472656 C 487.410156 248.554688 490.289062 248.554688 490.289062 250.472656 "/>
<path style="fill-rule:nonzero;fill:rgb(100%,49.803922%,31.372549%);fill-opacity:1;stroke-width:0.75;stroke-linecap:round;stroke-linejoin:round;stroke:rgb(100%,49.803922%,31.372549%);stroke-opacity:1;stroke-miterlimit:10;" d="M 345.054688 139.730469 C 345.054688 141.652344 342.171875 141.652344 342.171875 139.730469 C 342.171875 137.8125 345.054688 137.8125 345.054688 139.730469 "/>
<path style="fill-rule:nonzero;fill:rgb(100%,49.803922%,31.372549%);fill-opacity:1;stroke-width:0.75;stroke-linecap:round;stroke-linejoin:round;stroke:rgb(100%,49.803922%,31.372549%);stroke-opacity:1;stroke-miterlimit:10;" d="M 139.378906 392.703125 C 139.378906 394.625 136.5 394.625 136.5 392.703125 C 136.5 390.785156 139.378906 390.785156 139.378906 392.703125 "/>
<path style="fill-rule:nonzero;fill:rgb(100%,49.803922%,31.372549%);fill-opacity:1;stroke-width:0.75;stroke-linecap:round;stroke-linejoin:round;stroke:rgb(100%,49.803922%,31.372549%);stroke-opacity:1;stroke-miterlimit:10;" d="M 130.335938 330.128906 C 130.335938 332.046875 127.457031 332.046875 127.457031 330.128906 C 127.457031 328.207031 130.335938 328.207031 130.335938 330.128906 "/>
<path style="fill-rule:nonzero;fill:rgb(100%,49.803922%,31.372549%);fill-opacity:1;stroke-width:0.75;stroke-linecap:round;stroke-linejoin:round;stroke:rgb(100%,49.803922%,31.372549%);stroke-opacity:1;stroke-miterlimit:10;" d="M 186.152344 365.730469 C 186.152344 367.648438 183.273438 367.648438 183.273438 365.730469 C 183.273438 363.808594 186.152344 363.808594 186.152344 365.730469 "/>
<path style="fill-rule:nonzero;fill:rgb(100%,49.803922%,31.372549%);fill-opacity:1;stroke-width:0.75;stroke-linecap:round;stroke-linejoin:round;stroke:rgb(100%,49.803922%,31.372549%);stroke-opacity:1;stroke-miterlimit:10;" d="M 104.515625 266.25 C 104.515625 268.167969 101.636719 268.167969 101.636719 266.25 C 101.636719 264.328125 104.515625 264.328125 104.515625 266.25 "/>
<path style="fill-rule:nonzero;fill:rgb(100%,49.803922%,31.372549%);fill-opacity:1;stroke-width:0.75;stroke-linecap:round;stroke-linejoin:round;stroke:rgb(100%,49.803922%,31.372549%);stroke-opacity:1;stroke-miterlimit:10;" d="M 252.433594 124.523438 C 252.433594 126.445312 249.550781 126.445312 249.550781 124.523438 C 249.550781 122.605469 252.433594 122.605469 252.433594 124.523438 "/>
<path style="fill-rule:nonzero;fill:rgb(100%,49.803922%,31.372549%);fill-opacity:1;stroke-width:0.75;stroke-linecap:round;stroke-linejoin:round;stroke:rgb(100%,49.803922%,31.372549%);stroke-opacity:1;stroke-miterlimit:10;" d="M 434.664062 345.082031 C 434.664062 347.003906 431.785156 347.003906 431.785156 345.082031 C 431.785156 343.160156 434.664062 343.160156 434.664062 345.082031 "/>
<path style="fill-rule:nonzero;fill:rgb(100%,49.803922%,31.372549%);fill-opacity:1;stroke-width:0.75;stroke-linecap:round;stroke-linejoin:round;stroke:rgb(100%,49.803922%,31.372549%);stroke-opacity:1;stroke-miterlimit:10;" d="M 170.800781 124.132812 C 170.800781 126.054688 167.921875 126.054688 167.921875 124.132812 C 167.921875 122.214844 170.800781 122.214844 170.800781 124.132812 "/>
<path style="fill-rule:nonzero;fill:rgb(100%,49.803922%,31.372549%);fill-opacity:1;stroke-width:0.75;stroke-linecap:round;stroke-linejoin:round;stroke:rgb(100%,49.803922%,31.372549%);stroke-opacity:1;stroke-miterlimit:10;" d="M 345.988281 459.976562 C 345.988281 461.894531 343.109375 461.894531 343.109375 459.976562 C 343.109375 458.054688 345.988281 458.054688 345.988281 459.976562 "/>
<path style="fill-rule:nonzero;fill:rgb(100%,49.803922%,31.372549%);fill-opacity:1;stroke-width:0.75;stroke-linecap:round;stroke-linejoin:round;stroke:rgb(100%,49.803922%,31.372549%);stroke-opacity:1;stroke-miterlimit:10;" d="M 287.367188 206.324219 C 287.367188 208.242188 284.488281 208.242188 284.488281 206.324219 C 284.488281 204.402344 287.367188 204.402344 287.367188 206.324219 "/>
<path style="fill-rule:nonzero;fill:rgb(100%,49.803922%,31.372549%);fill-opacity:1;stroke-width:0.75;stroke-linecap:round;stroke-linejoin:round;stroke:rgb(100%,49.803922%,31.372549%);stroke-opacity:1;stroke-miterlimit:10;" d="M 258.800781 106.410156 C 258.800781 108.328125 255.917969 108.328125 255.917969 106.410156 C 255.917969 104.488281 258.800781 104.488281 258.800781 106.410156 "/>
<path style="fill-rule:nonzero;fill:rgb(100%,49.803922%,31.372549%);fill-opacity:1;stroke-width:0.75;stroke-linecap:round;stroke-linejoin:round;stroke:rgb(100%,49.803922%,31.372549%);stroke-opacity:1;stroke-miterlimit:10;" d="M 309.9375 118.910156 C 309.9375 120.832031 307.058594 120.832031 307.058594 118.910156 C 307.058594 116.992188 309.9375 116.992188 309.9375 118.910156 "/>
<path style="fill-rule:nonzero;fill:rgb(100%,49.803922%,31.372549%);fill-opacity:1;stroke-width:0.75;stroke-linecap:round;stroke-linejoin:round;stroke:rgb(100%,49.803922%,31.372549%);stroke-opacity:1;stroke-miterlimit:10;" d="M 267.234375 45.46875 C 267.234375 47.386719 264.355469 47.386719 264.355469 45.46875 C 264.355469 43.546875 267.234375 43.546875 267.234375 45.46875 "/>
<path style="fill-rule:nonzero;fill:rgb(100%,49.803922%,31.372549%);fill-opacity:1;stroke-width:0.75;stroke-linecap:round;stroke-linejoin:round;stroke:rgb(100%,49.803922%,31.372549%);stroke-opacity:1;stroke-miterlimit:10;" d="M 237.402344 192.109375 C 237.402344 194.027344 234.523438 194.027344 234.523438 192.109375 C 234.523438 190.1875 237.402344 190.1875 237.402344 192.109375 "/>
<path style="fill-rule:nonzero;fill:rgb(100%,49.803922%,31.372549%);fill-opacity:1;stroke-width:0.75;stroke-linecap:round;stroke-linejoin:round;stroke:rgb(100%,49.803922%,31.372549%);stroke-opacity:1;stroke-miterlimit:10;" d="M 225.894531 137.917969 C 225.894531 139.835938 223.015625 139.835938 223.015625 137.917969 C 223.015625 135.996094 225.894531 135.996094 225.894531 137.917969 "/>
<path style="fill-rule:nonzero;fill:rgb(100%,49.803922%,31.372549%);fill-opacity:1;stroke-width:0.75;stroke-linecap:round;stroke-linejoin:round;stroke:rgb(100%,49.803922%,31.372549%);stroke-opacity:1;stroke-miterlimit:10;" d="M 335.160156 99.019531 C 335.160156 100.9375 332.28125 100.9375 332.28125 99.019531 C 332.28125 97.097656 335.160156 97.097656 335.160156 99.019531 "/>
<path style="fill-rule:nonzero;fill:rgb(100%,49.803922%,31.372549%);fill-opacity:1;stroke-width:0.75;stroke-linecap:round;stroke-linejoin:round;stroke:rgb(100%,49.803922%,31.372549%);stroke-opacity:1;stroke-miterlimit:10;" d="M 444.691406 218.199219 C 444.691406 220.117188 441.8125 220.117188 441.8125 218.199219 C 441.8125 216.277344 444.691406 216.277344 444.691406 218.199219 "/>
<path style="fill-rule:nonzero;fill:rgb(100%,49.803922%,31.372549%);fill-opacity:1;stroke-width:0.75;stroke-linecap:round;stroke-linejoin:round;stroke:rgb(100%,49.803922%,31.372549%);stroke-opacity:1;stroke-miterlimit:10;" d="M 327.992188 103.3125 C 327.992188 105.230469 325.113281 105.230469 325.113281 103.3125 C 325.113281 101.390625 327.992188 101.390625 327.992188 103.3125 "/>
<path style="fill-rule:nonzero;fill:rgb(100%,49.803922%,31.372549%);fill-opacity:1;stroke-width:0.75;stroke-linecap:round;stroke-linejoin:round;stroke:rgb(100%,49.803922%,31.372549%);stroke-opacity:1;stroke-miterlimit:10;" d="M 400.824219 451.140625 C 400.824219 453.0625 397.945312 453.0625 397.945312 451.140625 C 397.945312 449.222656 400.824219 449.222656 400.824219 451.140625 "/>
<path style="fill-rule:nonzero;fill:rgb(100%,49.803922%,31.372549%);fill-opacity:1;stroke-width:0.75;stroke-linecap:round;stroke-linejoin:round;stroke:rgb(100%,49.803922%,31.372549%);stroke-opacity:1;stroke-miterlimit:10;" d="M 62.621094 292.136719 C 62.621094 294.058594 59.742188 294.058594 59.742188 292.136719 C 59.742188 290.21875 62.621094 290.21875 62.621094 292.136719 "/>
<path style="fill-rule:nonzero;fill:rgb(100%,49.803922%,31.372549%);fill-opacity:1;stroke-width:0.75;stroke-linecap:round;stroke-linejoin:round;stroke:rgb(100%,49.803922%,31.372549%);stroke-opacity:1;stroke-miterlimit:10;" d="M 411.078125 366.933594 C 411.078125 368.855469 408.199219 368.855469 408.199219 366.933594 C 408.199219 365.015625 411.078125 365.015625 411.078125 366.933594 "/>
<path style="fill-rule:nonzero;fill:rgb(100%,49.803922%,31.372549%);fill-opacity:1;stroke-width:0.75;stroke-linecap:round;stroke-linejoin:round;stroke:rgb(100%,49.803922%,31.372549%);stroke-opacity:1;stroke-miterlimit:10;" d="M 395.234375 414.816406 C 395.234375 416.734375 392.351562 416.734375 392.351562 414.816406 C 392.351562 412.894531 395.234375 412.894531 395.234375 414.816406 "/>
<path style="fill-rule:nonzero;fill:rgb(100%,49.803922%,31.372549%);fill-opacity:1;stroke-width:0.75;stroke-linecap:round;stroke-linejoin:round;stroke:rgb(100%,49.803922%,31.372549%);stroke-opacity:1;stroke-miterlimit:10;" d="M 425.925781 246.019531 C 425.925781 247.941406 423.046875 247.941406 423.046875 246.019531 C 423.046875 244.101562 425.925781 244.101562 425.925781 246.019531 "/>
<path style="fill-rule:nonzero;fill:rgb(100%,49.803922%,31.372549%);fill-opacity:1;stroke-width:0.75;stroke-linecap:round;stroke-linejoin:round;stroke:rgb(100%,49.803922%,31.372549%);stroke-opacity:1;stroke-miterlimit:10;" d="M 152.804688 183.230469 C 152.804688 185.152344 149.925781 185.152344 149.925781 183.230469 C 149.925781 181.3125 152.804688 181.3125 152.804688 183.230469 "/>
<path style="fill-rule:nonzero;fill:rgb(100%,49.803922%,31.372549%);fill-opacity:1;stroke-width:0.75;stroke-linecap:round;stroke-linejoin:round;stroke:rgb(100%,49.803922%,31.372549%);stroke-opacity:1;stroke-miterlimit:10;" d="M 292.496094 66.507812 C 292.496094 68.429688 289.613281 68.429688 289.613281 66.507812 C 289.613281 64.589844 292.496094 64.589844 292.496094 66.507812 "/>
<path style="fill-rule:nonzero;fill:rgb(100%,49.803922%,31.372549%);fill-opacity:1;stroke-width:0.75;stroke-linecap:round;stroke-linejoin:round;stroke:rgb(100%,49.803922%,31.372549%);stroke-opacity:1;stroke-miterlimit:10;" d="M 150.382812 65.421875 C 150.382812 67.339844 147.503906 67.339844 147.503906 65.421875 C 147.503906 63.5 150.382812 63.5 150.382812 65.421875 "/>
<path style="fill-rule:nonzero;fill:rgb(100%,49.803922%,31.372549%);fill-opacity:1;stroke-width:0.75;stroke-linecap:round;stroke-linejoin:round;stroke:rgb(100%,49.803922%,31.372549%);stroke-opacity:1;stroke-miterlimit:10;" d="M 108.289062 293.648438 C 108.289062 295.566406 105.410156 295.566406 105.410156 293.648438 C 105.410156 291.726562 108.289062 291.726562 108.289062 293.648438 "/>
<path style="fill-rule:nonzero;fill:rgb(100%,49.803922%,31.372549%);fill-opacity:1;stroke-width:0.75;stroke-linecap:round;stroke-linejoin:round;stroke:rgb(100%,49.803922%,31.372549%);stroke-opacity:1;stroke-miterlimit:10;" d="M 294.359375 131.191406 C 294.359375 133.109375 291.480469 133.109375 291.480469 131.191406 C 291.480469 129.269531 294.359375 129.269531 294.359375 131.191406 "/>
<path style="fill-rule:nonzero;fill:rgb(100%,49.803922%,31.372549%);fill-opacity:1;stroke-width:0.75;stroke-linecap:round;stroke-linejoin:round;stroke:rgb(100%,49.803922%,31.372549%);stroke-opacity:1;stroke-miterlimit:10;" d="M 228.554688 452.953125 C 228.554688 454.875 225.675781 454.875 225.675781 452.953125 C 225.675781 451.035156 228.554688 451.035156 228.554688 452.953125 "/>
<path style="fill-rule:nonzero;fill:rgb(100%,49.803922%,31.372549%);fill-opacity:1;stroke-width:0.75;stroke-linecap:round;stroke-linejoin:round;stroke:rgb(100%,49.803922%,31.372549%);stroke-opacity:1;stroke-miterlimit:10;" d="M 327.808594 62.058594 C 327.808594 63.980469 324.929688 63.980469 324.929688 62.058594 C 324.929688 60.140625 327.808594 60.140625 327.808594 62.058594 "/>
<path style="fill-rule:nonzero;fill:rgb(100%,49.803922%,31.372549%);fill-opacity:1;stroke-width:0.75;stroke-linecap:round;stroke-linejoin:round;stroke:rgb(100%,49.803922%,31.372549%);stroke-opacity:1;stroke-miterlimit:10;" d="M 263.515625 115.785156 C 263.515625 117.703125 260.636719 117.703125 260.636719 115.785156 C 260.636719 113.863281 263.515625 113.863281 263.515625 115.785156 "/>
<path style="fill-rule:nonzero;fill:rgb(100%,49.803922%,31.372549%);fill-opacity:1;stroke-width:0.75;stroke-linecap:round;stroke-linejoin:round;stroke:rgb(100%,49.803922%,31.372549%);stroke-opacity:1;stroke-miterlimit:10;" d="M 448.664062 277.203125 C 448.664062 279.121094 445.78125 279.121094 445.78125 277.203125 C 445.78125 275.28125 448.664062 275.28125 448.664062 277.203125 "/>
<path style="fill-rule:nonzero;fill:rgb(100%,49.803922%,31.372549%);fill-opacity:1;stroke-width:0.75;stroke-linecap:round;stroke-linejoin:round;stroke:rgb(100%,49.803922%,31.372549%);stroke-opacity:1;stroke-miterlimit:10;" d="M 380.644531 415.695312 C 380.644531 417.617188 377.765625 417.617188 377.765625 415.695312 C 377.765625 413.777344 380.644531 413.777344 380.644531 415.695312 "/>
<path style="fill-rule:nonzero;fill:rgb(100%,49.803922%,31.372549%);fill-opacity:1;stroke-width:0.75;stroke-linecap:round;stroke-linejoin:round;stroke:rgb(100%,49.803922%,31.372549%);stroke-opacity:1;stroke-miterlimit:10;" d="M 113.324219 302.894531 C 113.324219 304.816406 110.441406 304.816406 110.441406 302.894531 C 110.441406 300.976562 113.324219 300.976562 113.324219 302.894531 "/>
<path style="fill-rule:nonzero;fill:rgb(100%,49.803922%,31.372549%);fill-opacity:1;stroke-width:0.75;stroke-linecap:round;stroke-linejoin:round;stroke:rgb(100%,49.803922%,31.372549%);stroke-opacity:1;stroke-miterlimit:10;" d="M 138.378906 415.902344 C 138.378906 417.824219 135.5 417.824219 135.5 415.902344 C 135.5 413.980469 138.378906 413.980469 138.378906 415.902344 "/>
<path style="fill-rule:nonzero;fill:rgb(100%,49.803922%,31.372549%);fill-opacity:1;stroke-width:0.75;stroke-linecap:round;stroke-linejoin:round;stroke:rgb(100%,49.803922%,31.372549%);stroke-opacity:1;stroke-miterlimit:10;" d="M 208.003906 31.171875 C 208.003906 33.09375 205.125 33.09375 205.125 31.171875 C 205.125 29.253906 208.003906 29.253906 208.003906 31.171875 "/>
<path style="fill-rule:nonzero;fill:rgb(100%,49.803922%,31.372549%);fill-opacity:1;stroke-width:0.75;stroke-linecap:round;stroke-linejoin:round;stroke:rgb(100%,49.803922%,31.372549%);stroke-opacity:1;stroke-miterlimit:10;" d="M 123.601562 422.8125 C 123.601562 424.730469 120.71875 424.730469 120.71875 422.8125 C 120.71875 420.890625 123.601562 420.890625 123.601562 422.8125 "/>
<path style="fill-rule:nonzero;fill:rgb(100%,49.803922%,31.372549%);fill-opacity:1;stroke-width:0.75;stroke-linecap:round;stroke-linejoin:round;stroke:rgb(100%,49.803922%,31.372549%);stroke-opacity:1;stroke-miterlimit:10;" d="M 182.949219 177.441406 C 182.949219 179.359375 180.070312 179.359375 180.070312 177.441406 C 180.070312 175.519531 182.949219 175.519531 182.949219 177.441406 "/>
<path style="fill-rule:nonzero;fill:rgb(100%,49.803922%,31.372549%);fill-opacity:1;stroke-width:0.75;stroke-linecap:round;stroke-linejoin:round;stroke:rgb(100%,49.803922%,31.372549%);stroke-opacity:1;stroke-miterlimit:10;" d="M 50.5625 273.054688 C 50.5625 274.976562 47.683594 274.976562 47.683594 273.054688 C 47.683594 271.136719 50.5625 271.136719 50.5625 273.054688 "/>
<path style="fill-rule:nonzero;fill:rgb(100%,49.803922%,31.372549%);fill-opacity:1;stroke-width:0.75;stroke-linecap:round;stroke-linejoin:round;stroke:rgb(100%,49.803922%,31.372549%);stroke-opacity:1;stroke-miterlimit:10;" d="M 188.0625 358.414062 C 188.0625 360.335938 185.183594 360.335938 185.183594 358.414062 C 185.183594 356.492188 188.0625 356.492188 188.0625 358.414062 "/>
<path style="fill-rule:nonzero;fill:rgb(100%,49.803922%,31.372549%);fill-opacity:1;stroke-width:0.75;stroke-linecap:round;stroke-linejoin:round;stroke:rgb(100%,49.803922%,31.372549%);stroke-opacity:1;stroke-miterlimit:10;" d="M 97.144531 254.75 C 97.144531 256.671875 94.261719 256.671875 94.261719 254.75 C 94.261719 252.832031 97.144531 252.832031 97.144531 254.75 "/>
<path style="fill-rule:nonzero;fill:rgb(100%,49.803922%,31.372549%);fill-opacity:1;stroke-width:0.75;stroke-linecap:round;stroke-linejoin:round;stroke:rgb(100%,49.803922%,31.372549%);stroke-opacity:1;stroke-miterlimit:10;" d="M 252.453125 100.65625 C 252.453125 102.578125 249.574219 102.578125 249.574219 100.65625 C 249.574219 98.738281 252.453125 98.738281 252.453125 100.65625 "/>
<path style="fill-rule:nonzero;fill:rgb(100%,49.803922%,31.372549%);fill-opacity:1;stroke-width:0.75;stroke-linecap:round;stroke-linejoin:round;stroke:rgb(100%,49.803922%,31.372549%);stroke-opacity:1;stroke-miterlimit:10;" d="M 290.175781 408.042969 C 290.175781 409.964844 287.292969 409.964844 287.292969 408.042969 C 287.292969 406.125 290.175781 406.125 290.175781 408.042969 "/>
<path style="fill-rule:nonzero;fill:rgb(100%,49.803922%,31.372549%);fill-opacity:1;stroke-width:0.75;stroke-linecap:round;stroke-linejoin:round;stroke:rgb(100%,49.803922%,31.372549%);stroke-opacity:1;stroke-miterlimit:10;" d="M 407.460938 201.023438 C 407.460938 202.945312 404.578125 202.945312 404.578125 201.023438 C 404.578125 199.105469 407.460938 199.105469 407.460938 201.023438 "/>
<path style="fill-rule:nonzero;fill:rgb(100%,49.803922%,31.372549%);fill-opacity:1;stroke-width:0.75;stroke-linecap:round;stroke-linejoin:round;stroke:rgb(100%,49.803922%,31.372549%);stroke-opacity:1;stroke-miterlimit:10;" d="M 182.277344 112.429688 C 182.277344 114.347656 179.394531 114.347656 179.394531 112.429688 C 179.394531 110.507812 182.277344 110.507812 182.277344 112.429688 "/>
<path style="fill-rule:nonzero;fill:rgb(100%,49.803922%,31.372549%);fill-opacity:1;stroke-width:0.75;stroke-linecap:round;stroke-linejoin:round;stroke:rgb(100%,49.803922%,31.372549%);stroke-opacity:1;stroke-miterlimit:10;" d="M 227.34375 392.65625 C 227.34375 394.574219 224.464844 394.574219 224.464844 392.65625 C 224.464844 390.734375 227.34375 390.734375 227.34375 392.65625 "/>
<path style="fill-rule:nonzero;fill:rgb(100%,49.803922%,31.372549%);fill-opacity:1;stroke-width:0.75;stroke-linecap:round;stroke-linejoin:round;stroke:rgb(100%,49.803922%,31.372549%);stroke-opacity:1;stroke-miterlimit:10;" d="M 110.625 273.859375 C 110.625 275.78125 107.746094 275.78125 107.746094 273.859375 C 107.746094 271.941406 110.625 271.941406 110.625 273.859375 "/>
<path style="fill-rule:nonzero;fill:rgb(100%,49.803922%,31.372549%);fill-opacity:1;stroke-width:0.75;stroke-linecap:round;stroke-linejoin:round;stroke:rgb(100%,49.803922%,31.372549%);stroke-opacity:1;stroke-miterlimit:10;" d="M 366.132812 162.332031 C 366.132812 164.25 363.253906 164.25 363.253906 162.332031 C 363.253906 160.410156 366.132812 160.410156 366.132812 162.332031 "/>
<path style="fill-rule:nonzero;fill:rgb(100%,49.803922%,31.372549%);fill-opacity:1;stroke-width:0.75;stroke-linecap:round;stroke-linejoin:round;stroke:rgb(100%,49.803922%,31.372549%);stroke-opacity:1;stroke-miterlimit:10;" d="M 99.617188 262.1875 C 99.617188 264.105469 96.738281 264.105469 96.738281 262.1875 C 96.738281 260.265625 99.617188 260.265625 99.617188 262.1875 "/>
<path style="fill-rule:nonzero;fill:rgb(100%,49.803922%,31.372549%);fill-opacity:1;stroke-width:0.75;stroke-linecap:round;stroke-linejoin:round;stroke:rgb(100%,49.803922%,31.372549%);stroke-opacity:1;stroke-miterlimit:10;" d="M 128.222656 306.089844 C 128.222656 308.007812 125.34375 308.007812 125.34375 306.089844 C 125.34375 304.167969 128.222656 304.167969 128.222656 306.089844 "/>
<path style="fill-rule:nonzero;fill:rgb(100%,49.803922%,31.372549%);fill-opacity:1;stroke-width:0.75;stroke-linecap:round;stroke-linejoin:round;stroke:rgb(100%,49.803922%,31.372549%);stroke-opacity:1;stroke-miterlimit:10;" d="M 262.234375 493.828125 C 262.234375 495.746094 259.351562 495.746094 259.351562 493.828125 C 259.351562 491.90625 262.234375 491.90625 262.234375 493.828125 "/>
<path style="fill-rule:nonzero;fill:rgb(100%,49.803922%,31.372549%);fill-opacity:1;stroke-width:0.75;stroke-linecap:round;stroke-linejoin:round;stroke:rgb(100%,49.803922%,31.372549%);stroke-opacity:1;stroke-miterlimit:10;" d="M 349.035156 127.519531 C 349.035156 129.4375 346.15625 129.4375 346.15625 127.519531 C 346.15625 125.597656 349.035156 125.597656 349.035156 127.519531 "/>
<path style="fill-rule:nonzero;fill:rgb(100%,49.803922%,31.372549%);fill-opacity:1;stroke-width:0.75;stroke-linecap:round;stroke-linejoin:round;stroke:rgb(100%,49.803922%,31.372549%);stroke-opacity:1;stroke-miterlimit:10;" d="M 393.648438 449.664062 C 393.648438 451.585938 390.765625 451.585938 390.765625 449.664062 C 390.765625 447.746094 393.648438 447.746094 393.648438 449.664062 "/>
<path style="fill-rule:nonzero;fill:rgb(100%,49.803922%,31.372549%);fill-opacity:1;stroke-width:0.75;stroke-linecap:round;stroke-linejoin:round;stroke:rgb(100%,49.803922%,31.372549%);stroke-opacity:1;stroke-miterlimit:10;" d="M 343.332031 377.320312 C 343.332031 379.238281 340.453125 379.238281 340.453125 377.320312 C 340.453125 375.398438 343.332031 375.398438 343.332031 377.320312 "/>
<path style="fill-rule:nonzero;fill:rgb(100%,49.803922%,31.372549%);fill-opacity:1;stroke-width:0.75;stroke-linecap:round;stroke-linejoin:round;stroke:rgb(100%,49.803922%,31.372549%);stroke-opacity:1;stroke-miterlimit:10;" d="M 463.84375 234.214844 C 463.84375 236.136719 460.960938 236.136719 460.960938 234.214844 C 460.960938 232.296875 463.84375 232.296875 463.84375 234.214844 "/>
<path style="fill-rule:nonzero;fill:rgb(100%,49.803922%,31.372549%);fill-opacity:1;stroke-width:0.75;stroke-linecap:round;stroke-linejoin:round;stroke:rgb(100%,49.803922%,31.372549%);stroke-opacity:1;stroke-miterlimit:10;" d="M 178.511719 147.351562 C 178.511719 149.273438 175.628906 149.273438 175.628906 147.351562 C 175.628906 145.433594 178.511719 145.433594 178.511719 147.351562 "/>
<path style="fill-rule:nonzero;fill:rgb(100%,49.803922%,31.372549%);fill-opacity:1;stroke-width:0.75;stroke-linecap:round;stroke-linejoin:round;stroke:rgb(100%,49.803922%,31.372549%);stroke-opacity:1;stroke-miterlimit:10;" d="M 407.742188 198.585938 C 407.742188 200.507812 404.863281 200.507812 404.863281 198.585938 C 404.863281 196.664062 407.742188 196.664062 407.742188 198.585938 "/>
<path style="fill-rule:nonzero;fill:rgb(100%,49.803922%,31.372549%);fill-opacity:1;stroke-width:0.75;stroke-linecap:round;stroke-linejoin:round;stroke:rgb(100%,49.803922%,31.372549%);stroke-opacity:1;stroke-miterlimit:10;" d="M 218.914062 108.976562 C 218.914062 110.898438 216.03125 110.898438 216.03125 108.976562 C 216.03125 107.058594 218.914062 107.058594 218.914062 108.976562 "/>
<path style="fill-rule:nonzero;fill:rgb(100%,49.803922%,31.372549%);fill-opacity:1;stroke-width:0.75;stroke-linecap:round;stroke-linejoin:round;stroke:rgb(100%,49.803922%,31.372549%);stroke-opacity:1;stroke-miterlimit:10;" d="M 196.894531 382.152344 C 196.894531 384.070312 194.015625 384.070312 194.015625 382.152344 C 194.015625 380.230469 196.894531 380.230469 196.894531 382.152344 "/>
<path style="fill-rule:nonzero;fill:rgb(100%,49.803922%,31.372549%);fill-opacity:1;stroke-width:0.75;stroke-linecap:round;stroke-linejoin:round;stroke:rgb(100%,49.803922%,31.372549%);stroke-opacity:1;stroke-miterlimit:10;" d="M 164.675781 119.769531 C 164.675781 121.691406 161.796875 121.691406 161.796875 119.769531 C 161.796875 117.851562 164.675781 117.851562 164.675781 119.769531 "/>
<path style="fill-rule:nonzero;fill:rgb(100%,49.803922%,31.372549%);fill-opacity:1;stroke-width:0.75;stroke-linecap:round;stroke-linejoin:round;stroke:rgb(100%,49.803922%,31.372549%);stroke-opacity:1;stroke-miterlimit:10;" d="M 49.691406 293.566406 C 49.691406 295.488281 46.8125 295.488281 46.8125 293.566406 C 46.8125 291.648438 49.691406 291.648438 49.691406 293.566406 "/>
<path style="fill-rule:nonzero;fill:rgb(100%,49.803922%,31.372549%);fill-opacity:1;stroke-width:0.75;stroke-linecap:round;stroke-linejoin:round;stroke:rgb(100%,49.803922%,31.372549%);stroke-opacity:1;stroke-miterlimit:10;" d="M 500.328125 205.277344 C 500.328125 207.195312 497.449219 207.195312 497.449219 205.277344 C 497.449219 203.355469 500.328125 203.355469 500.328125 205.277344 "/>
<path style="fill-rule:nonzero;fill:rgb(100%,49.803922%,31.372549%);fill-opacity:1;stroke-width:0.75;stroke-linecap:round;stroke-linejoin:round;stroke:rgb(100%,49.803922%,31.372549%);stroke-opacity:1;stroke-miterlimit:10;" d="M 62.710938 301.070312 C 62.710938 302.992188 59.828125 302.992188 59.828125 301.070312 C 59.828125 299.152344 62.710938 299.152344 62.710938 301.070312 "/>
<path style="fill-rule:nonzero;fill:rgb(100%,49.803922%,31.372549%);fill-opacity:1;stroke-width:0.75;stroke-linecap:round;stroke-linejoin:round;stroke:rgb(100%,49.803922%,31.372549%);stroke-opacity:1;stroke-miterlimit:10;" d="M 437.007812 57.332031 C 437.007812 59.25 434.128906 59.25 434.128906 57.332031 C 434.128906 55.410156 437.007812 55.410156 437.007812 57.332031 "/>
<path style="fill-rule:nonzero;fill:rgb(100%,49.803922%,31.372549%);fill-opacity:1;stroke-width:0.75;stroke-linecap:round;stroke-linejoin:round;stroke:rgb(100%,49.803922%,31.372549%);stroke-opacity:1;stroke-miterlimit:10;" d="M 431.027344 415.117188 C 431.027344 417.039062 428.148438 417.039062 428.148438 415.117188 C 428.148438 413.195312 431.027344 413.195312 431.027344 415.117188 "/>
<path style="fill-rule:nonzero;fill:rgb(100%,49.803922%,31.372549%);fill-opacity:1;stroke-width:0.75;stroke-linecap:round;stroke-linejoin:round;stroke:rgb(100%,49.803922%,31.372549%);stroke-opacity:1;stroke-miterlimit:10;" d="M 416.929688 263.800781 C 416.929688 265.71875 414.046875 265.71875 414.046875 263.800781 C 414.046875 261.878906 416.929688 261.878906 416.929688 263.800781 "/>
<path style="fill-rule:nonzero;fill:rgb(100%,49.803922%,31.372549%);fill-opacity:1;stroke-width:0.75;stroke-linecap:round;stroke-linejoin:round;stroke:rgb(100%,49.803922%,31.372549%);stroke-opacity:1;stroke-miterlimit:10;" d="M 285.878906 397.355469 C 285.878906 399.277344 283 399.277344 283 397.355469 C 283 395.4375 285.878906 395.4375 285.878906 397.355469 "/>
<path style="fill-rule:nonzero;fill:rgb(100%,49.803922%,31.372549%);fill-opacity:1;stroke-width:0.75;stroke-linecap:round;stroke-linejoin:round;stroke:rgb(100%,49.803922%,31.372549%);stroke-opacity:1;stroke-miterlimit:10;" d="M 407.257812 170.035156 C 407.257812 171.953125 404.375 171.953125 404.375 170.035156 C 404.375 168.113281 407.257812 168.113281 407.257812 170.035156 "/>
<path style="fill-rule:nonzero;fill:rgb(100%,49.803922%,31.372549%);fill-opacity:1;stroke-width:0.75;stroke-linecap:round;stroke-linejoin:round;stroke:rgb(100%,49.803922%,31.372549%);stroke-opacity:1;stroke-miterlimit:10;" d="M 100.847656 299.554688 C 100.847656 301.476562 97.96875 301.476562 97.96875 299.554688 C 97.96875 297.636719 100.847656 297.636719 100.847656 299.554688 "/>
<path style="fill-rule:nonzero;fill:rgb(100%,49.803922%,31.372549%);fill-opacity:1;stroke-width:0.75;stroke-linecap:round;stroke-linejoin:round;stroke:rgb(100%,49.803922%,31.372549%);stroke-opacity:1;stroke-miterlimit:10;" d="M 125.039062 208.554688 C 125.039062 210.476562 122.160156 210.476562 122.160156 208.554688 C 122.160156 206.636719 125.039062 206.636719 125.039062 208.554688 "/>
<path style="fill-rule:nonzero;fill:rgb(100%,49.803922%,31.372549%);fill-opacity:1;stroke-width:0.75;stroke-linecap:round;stroke-linejoin:round;stroke:rgb(100%,49.803922%,31.372549%);stroke-opacity:1;stroke-miterlimit:10;" d="M 463.3125 211.140625 C 463.3125 213.0625 460.433594 213.0625 460.433594 211.140625 C 460.433594 209.222656 463.3125 209.222656 463.3125 211.140625 "/>
<path style="fill-rule:nonzero;fill:rgb(100%,49.803922%,31.372549%);fill-opacity:1;stroke-width:0.75;stroke-linecap:round;stroke-linejoin:round;stroke:rgb(100%,49.803922%,31.372549%);stroke-opacity:1;stroke-miterlimit:10;" d="M 183.851562 127.589844 C 183.851562 129.511719 180.972656 129.511719 180.972656 127.589844 C 180.972656 125.671875 183.851562 125.671875 183.851562 127.589844 "/>
<path style="fill-rule:nonzero;fill:rgb(100%,49.803922%,31.372549%);fill-opacity:1;stroke-width:0.75;stroke-linecap:round;stroke-linejoin:round;stroke:rgb(100%,49.803922%,31.372549%);stroke-opacity:1;stroke-miterlimit:10;" d="M 104.460938 421.890625 C 104.460938 423.808594 101.578125 423.808594 101.578125 421.890625 C 101.578125 419.96875 104.460938 419.96875 104.460938 421.890625 "/>
<path style="fill-rule:nonzero;fill:rgb(100%,49.803922%,31.372549%);fill-opacity:1;stroke-width:0.75;stroke-linecap:round;stroke-linejoin:round;stroke:rgb(100%,49.803922%,31.372549%);stroke-opacity:1;stroke-miterlimit:10;" d="M 427.78125 288.390625 C 427.78125 290.3125 424.902344 290.3125 424.902344 288.390625 C 424.902344 286.472656 427.78125 286.472656 427.78125 288.390625 "/>
<path style="fill-rule:nonzero;fill:rgb(100%,49.803922%,31.372549%);fill-opacity:1;stroke-width:0.75;stroke-linecap:round;stroke-linejoin:round;stroke:rgb(100%,49.803922%,31.372549%);stroke-opacity:1;stroke-miterlimit:10;" d="M 27.550781 259.921875 C 27.550781 261.839844 24.671875 261.839844 24.671875 259.921875 C 24.671875 258 27.550781 258 27.550781 259.921875 "/>
<path style="fill-rule:nonzero;fill:rgb(100%,49.803922%,31.372549%);fill-opacity:1;stroke-width:0.75;stroke-linecap:round;stroke-linejoin:round;stroke:rgb(100%,49.803922%,31.372549%);stroke-opacity:1;stroke-miterlimit:10;" d="M 417.324219 199.054688 C 417.324219 200.976562 414.445312 200.976562 414.445312 199.054688 C 414.445312 197.136719 417.324219 197.136719 417.324219 199.054688 "/>
<path style="fill-rule:nonzero;fill:rgb(100%,49.803922%,31.372549%);fill-opacity:1;stroke-width:0.75;stroke-linecap:round;stroke-linejoin:round;stroke:rgb(100%,49.803922%,31.372549%);stroke-opacity:1;stroke-miterlimit:10;" d="M 72.074219 300.433594 C 72.074219 302.355469 69.195312 302.355469 69.195312 300.433594 C 69.195312 298.515625 72.074219 298.515625 72.074219 300.433594 "/>
<path style="fill-rule:nonzero;fill:rgb(100%,49.803922%,31.372549%);fill-opacity:1;stroke-width:0.75;stroke-linecap:round;stroke-linejoin:round;stroke:rgb(100%,49.803922%,31.372549%);stroke-opacity:1;stroke-miterlimit:10;" d="M 289.800781 118.164062 C 289.800781 120.085938 286.921875 120.085938 286.921875 118.164062 C 286.921875 116.246094 289.800781 116.246094 289.800781 118.164062 "/>
<path style="fill-rule:nonzero;fill:rgb(100%,49.803922%,31.372549%);fill-opacity:1;stroke-width:0.75;stroke-linecap:round;stroke-linejoin:round;stroke:rgb(100%,49.803922%,31.372549%);stroke-opacity:1;stroke-miterlimit:10;" d="M 393.339844 379.902344 C 393.339844 381.820312 390.460938 381.820312 390.460938 379.902344 C 390.460938 377.980469 393.339844 377.980469 393.339844 379.902344 "/>
<path style="fill-rule:nonzero;fill:rgb(100%,49.803922%,31.372549%);fill-opacity:1;stroke-width:0.75;stroke-linecap:round;stroke-linejoin:round;stroke:rgb(100%,49.803922%,31.372549%);stroke-opacity:1;stroke-miterlimit:10;" d="M 155.386719 141.769531 C 155.386719 143.6875 152.507812 143.6875 152.507812 141.769531 C 152.507812 139.847656 155.386719 139.847656 155.386719 141.769531 "/>
<path style="fill-rule:nonzero;fill:rgb(100%,49.803922%,31.372549%);fill-opacity:1;stroke-width:0.75;stroke-linecap:round;stroke-linejoin:round;stroke:rgb(100%,49.803922%,31.372549%);stroke-opacity:1;stroke-miterlimit:10;" d="M 134.375 223.109375 C 134.375 225.03125 131.496094 225.03125 131.496094 223.109375 C 131.496094 221.1875 134.375 221.1875 134.375 223.109375 "/>
<path style="fill-rule:nonzero;fill:rgb(100%,49.803922%,31.372549%);fill-opacity:1;stroke-width:0.75;stroke-linecap:round;stroke-linejoin:round;stroke:rgb(100%,49.803922%,31.372549%);stroke-opacity:1;stroke-miterlimit:10;" d="M 376.375 150.953125 C 376.375 152.871094 373.492188 152.871094 373.492188 150.953125 C 373.492188 149.03125 376.375 149.03125 376.375 150.953125 "/>
<path style="fill-rule:nonzero;fill:rgb(100%,49.803922%,31.372549%);fill-opacity:1;stroke-width:0.75;stroke-linecap:round;stroke-linejoin:round;stroke:rgb(100%,49.803922%,31.372549%);stroke-opacity:1;stroke-miterlimit:10;" d="M 377.785156 380.058594 C 377.785156 381.976562 374.902344 381.976562 374.902344 380.058594 C 374.902344 378.136719 377.785156 378.136719 377.785156 380.058594 "/>
<path style="fill-rule:nonzero;fill:rgb(100%,49.803922%,31.372549%);fill-opacity:1;stroke-width:0.75;stroke-linecap:round;stroke-linejoin:round;stroke:rgb(100%,49.803922%,31.372549%);stroke-opacity:1;stroke-miterlimit:10;" d="M 360.65625 105.035156 C 360.65625 106.957031 357.777344 106.957031 357.777344 105.035156 C 357.777344 103.117188 360.65625 103.117188 360.65625 105.035156 "/>
<path style="fill-rule:nonzero;fill:rgb(100%,49.803922%,31.372549%);fill-opacity:1;stroke-width:0.75;stroke-linecap:round;stroke-linejoin:round;stroke:rgb(100%,49.803922%,31.372549%);stroke-opacity:1;stroke-miterlimit:10;" d="M 441.082031 380.40625 C 441.082031 382.324219 438.203125 382.324219 438.203125 380.40625 C 438.203125 378.484375 441.082031 378.484375 441.082031 380.40625 "/>
<path style="fill-rule:nonzero;fill:rgb(100%,49.803922%,31.372549%);fill-opacity:1;stroke-width:0.75;stroke-linecap:round;stroke-linejoin:round;stroke:rgb(100%,49.803922%,31.372549%);stroke-opacity:1;stroke-miterlimit:10;" d="M 411.167969 183.964844 C 411.167969 185.886719 408.289062 185.886719 408.289062 183.964844 C 408.289062 182.046875 411.167969 182.046875 411.167969 183.964844 "/>
<path style="fill-rule:nonzero;fill:rgb(100%,49.803922%,31.372549%);fill-opacity:1;stroke-width:0.75;stroke-linecap:round;stroke-linejoin:round;stroke:rgb(100%,49.803922%,31.372549%);stroke-opacity:1;stroke-miterlimit:10;" d="M 447.390625 135.269531 C 447.390625 137.191406 444.511719 137.191406 444.511719 135.269531 C 444.511719 133.351562 447.390625 133.351562 447.390625 135.269531 "/>
<path style="fill-rule:nonzero;fill:rgb(100%,49.803922%,31.372549%);fill-opacity:1;stroke-width:0.75;stroke-linecap:round;stroke-linejoin:round;stroke:rgb(100%,49.803922%,31.372549%);stroke-opacity:1;stroke-miterlimit:10;" d="M 417.097656 168.609375 C 417.097656 170.53125 414.214844 170.53125 414.214844 168.609375 C 414.214844 166.691406 417.097656 166.691406 417.097656 168.609375 "/>
<path style="fill-rule:nonzero;fill:rgb(100%,49.803922%,31.372549%);fill-opacity:1;stroke-width:0.75;stroke-linecap:round;stroke-linejoin:round;stroke:rgb(100%,49.803922%,31.372549%);stroke-opacity:1;stroke-miterlimit:10;" d="M 67.382812 280.660156 C 67.382812 282.582031 64.5 282.582031 64.5 280.660156 C 64.5 278.742188 67.382812 278.742188 67.382812 280.660156 "/>
<path style="fill-rule:nonzero;fill:rgb(100%,49.803922%,31.372549%);fill-opacity:1;stroke-width:0.75;stroke-linecap:round;stroke-linejoin:round;stroke:rgb(100%,49.803922%,31.372549%);stroke-opacity:1;stroke-miterlimit:10;" d="M 294.734375 70.492188 C 294.734375 72.410156 291.855469 72.410156 291.855469 70.492188 C 291.855469 68.570312 294.734375 68.570312 294.734375 70.492188 "/>
<path style="fill-rule:nonzero;fill:rgb(100%,49.803922%,31.372549%);fill-opacity:1;stroke-width:0.75;stroke-linecap:round;stroke-linejoin:round;stroke:rgb(100%,49.803922%,31.372549%);stroke-opacity:1;stroke-miterlimit:10;" d="M 436.460938 264.289062 C 436.460938 266.207031 433.582031 266.207031 433.582031 264.289062 C 433.582031 262.367188 436.460938 262.367188 436.460938 264.289062 "/>
<path style="fill-rule:nonzero;fill:rgb(100%,49.803922%,31.372549%);fill-opacity:1;stroke-width:0.75;stroke-linecap:round;stroke-linejoin:round;stroke:rgb(100%,49.803922%,31.372549%);stroke-opacity:1;stroke-miterlimit:10;" d="M 235.464844 161.945312 C 235.464844 163.867188 232.582031 163.867188 232.582031 161.945312 C 232.582031 160.027344 235.464844 160.027344 235.464844 161.945312 "/>
<path style="fill-rule:nonzero;fill:rgb(100%,49.803922%,31.372549%);fill-opacity:1;stroke-width:0.75;stroke-linecap:round;stroke-linejoin:round;stroke:rgb(100%,49.803922%,31.372549%);stroke-opacity:1;stroke-miterlimit:10;" d="M 296.570312 487.097656 C 296.570312 489.019531 293.6875 489.019531 293.6875 487.097656 C 293.6875 485.179688 296.570312 485.179688 296.570312 487.097656 "/>
<path style="fill:none;stroke-width:0.75;stroke-linecap:round;stroke-linejoin:round;stroke:rgb(0%,0%,0%);stroke-opacity:1;stroke-miterlimit:10;" d="M 7.199219 517.800781 L 517.800781 517.800781 L 517.800781 7.199219 L 7.199219 7.199219 L 7.199219 517.800781 "/>
</g>
</svg>
