<?xml version="1.0" encoding="UTF-8"?>
<svg xmlns="http://www.w3.org/2000/svg" xmlns:xlink="http://www.w3.org/1999/xlink" width="374pt" height="374pt" viewBox="0 0 374 374" version="1.1">
<g id="surface21">
<rect x="0" y="0" width="374" height="374" style="fill:rgb(100%,100%,100%);fill-opacity:1;stroke:none;"/>
<path style="fill-rule:nonzero;fill:rgb(100%,0%,0%);fill-opacity:1;stroke-width:0.75;stroke-linecap:round;stroke-linejoin:round;stroke:rgb(100%,0%,0%);stroke-opacity:1;stroke-miterlimit:10;" d="M 361.566406 199.117188 C 361.566406 201.515625 357.964844 201.515625 357.964844 199.117188 C 357.964844 196.714844 361.566406 196.714844 361.566406 199.117188 "/>
<path style="fill-rule:nonzero;fill:rgb(100%,0%,0%);fill-opacity:1;stroke-width:0.75;stroke-linecap:round;stroke-linejoin:round;stroke:rgb(100%,0%,0%);stroke-opacity:1;stroke-miterlimit:10;" d="M 50.167969 83.296875 C 50.167969 85.695312 46.566406 85.695312 46.566406 83.296875 C 46.566406 80.894531 50.167969 80.894531 50.167969 83.296875 "/>
<path style="fill-rule:nonzero;fill:rgb(100%,0%,0%);fill-opacity:1;stroke-width:0.75;stroke-linecap:round;stroke-linejoin:round;stroke:rgb(100%,0%,0%);stroke-opacity:1;stroke-miterlimit:10;" d="M 318.207031 71.96875 C 318.207031 74.367188 314.609375 74.367188 314.609375 71.96875 C 314.609375 69.566406 318.207031 69.566406 318.207031 71.96875 "/>
<path style="fill-rule:nonzero;fill:rgb(100%,0%,0%);fill-opacity:1;stroke-width:0.75;stroke-linecap:round;stroke-linejoin:round;stroke:rgb(100%,0%,0%);stroke-opacity:1;stroke-miterlimit:10;" d="M 345.621094 113.570312 C 345.621094 115.972656 342.019531 115.972656 342.019531 113.570312 C 342.019531 111.171875 345.621094 111.171875 345.621094 113.570312 "/>
<path style="fill-rule:nonzero;fill:rgb(100%,0%,0%);fill-opacity:1;stroke-width:0.75;stroke-linecap:round;stroke-linejoin:round;stroke:rgb(100%,0%,0%);stroke-opacity:1;stroke-miterlimit:10;" d="M 195.613281 14.019531 C 195.613281 16.417969 192.011719 16.417969 192.011719 14.019531 C 192.011719 11.617188 195.613281 11.617188 195.613281 14.019531 "/>
<path style="fill-rule:nonzero;fill:rgb(100%,0%,0%);fill-opacity:1;stroke-width:0.75;stroke-linecap:round;stroke-linejoin:round;stroke:rgb(100%,0%,0%);stroke-opacity:1;stroke-miterlimit:10;" d="M 233.992188 354.234375 C 233.992188 356.632812 230.394531 356.632812 230.394531 354.234375 C 230.394531 351.832031 233.992188 351.832031 233.992188 354.234375 "/>
<path style="fill-rule:nonzero;fill:rgb(100%,0%,0%);fill-opacity:1;stroke-width:0.75;stroke-linecap:round;stroke-linejoin:round;stroke:rgb(100%,0%,0%);stroke-opacity:1;stroke-miterlimit:10;" d="M 95.964844 40.878906 C 95.964844 43.28125 92.363281 43.28125 92.363281 40.878906 C 92.363281 38.480469 95.964844 38.480469 95.964844 40.878906 "/>
<path style="fill-rule:nonzero;fill:rgb(100%,0%,0%);fill-opacity:1;stroke-width:0.75;stroke-linecap:round;stroke-linejoin:round;stroke:rgb(100%,0%,0%);stroke-opacity:1;stroke-miterlimit:10;" d="M 359.324219 217.300781 C 359.324219 219.699219 355.722656 219.699219 355.722656 217.300781 C 355.722656 214.898438 359.324219 214.898438 359.324219 217.300781 "/>
<path style="fill-rule:nonzero;fill:rgb(100%,0%,0%);fill-opacity:1;stroke-width:0.75;stroke-linecap:round;stroke-linejoin:round;stroke:rgb(100%,0%,0%);stroke-opacity:1;stroke-miterlimit:10;" d="M 276.160156 37.527344 C 276.160156 39.929688 272.5625 39.929688 272.5625 37.527344 C 272.5625 35.128906 276.160156 35.128906 276.160156 37.527344 "/>
<path style="fill-rule:nonzero;fill:rgb(100%,0%,0%);fill-opacity:1;stroke-width:0.75;stroke-linecap:round;stroke-linejoin:round;stroke:rgb(100%,0%,0%);stroke-opacity:1;stroke-miterlimit:10;" d="M 21.324219 143.046875 C 21.324219 145.449219 17.726562 145.449219 17.726562 143.046875 C 17.726562 140.648438 21.324219 140.648438 21.324219 143.046875 "/>
<path style="fill-rule:nonzero;fill:rgb(100%,0%,0%);fill-opacity:1;stroke-width:0.75;stroke-linecap:round;stroke-linejoin:round;stroke:rgb(100%,0%,0%);stroke-opacity:1;stroke-miterlimit:10;" d="M 270.566406 34.398438 C 270.566406 36.796875 266.96875 36.796875 266.96875 34.398438 C 266.96875 32 270.566406 32 270.566406 34.398438 "/>
<path style="fill-rule:nonzero;fill:rgb(100%,0%,0%);fill-opacity:1;stroke-width:0.75;stroke-linecap:round;stroke-linejoin:round;stroke:rgb(100%,0%,0%);stroke-opacity:1;stroke-miterlimit:10;" d="M 208.921875 15.054688 C 208.921875 17.457031 205.320312 17.457031 205.320312 15.054688 C 205.320312 12.65625 208.921875 12.65625 208.921875 15.054688 "/>
<path style="fill-rule:nonzero;fill:rgb(100%,0%,0%);fill-opacity:1;stroke-width:0.75;stroke-linecap:round;stroke-linejoin:round;stroke:rgb(100%,0%,0%);stroke-opacity:1;stroke-miterlimit:10;" d="M 213.546875 358.457031 C 213.546875 360.855469 209.949219 360.855469 209.949219 358.457031 C 209.949219 356.054688 213.546875 356.054688 213.546875 358.457031 "/>
<path style="fill-rule:nonzero;fill:rgb(100%,0%,0%);fill-opacity:1;stroke-width:0.75;stroke-linecap:round;stroke-linejoin:round;stroke:rgb(100%,0%,0%);stroke-opacity:1;stroke-miterlimit:10;" d="M 331.238281 88.550781 C 331.238281 90.953125 327.640625 90.953125 327.640625 88.550781 C 327.640625 86.152344 331.238281 86.152344 331.238281 88.550781 "/>
<path style="fill-rule:nonzero;fill:rgb(100%,0%,0%);fill-opacity:1;stroke-width:0.75;stroke-linecap:round;stroke-linejoin:round;stroke:rgb(100%,0%,0%);stroke-opacity:1;stroke-miterlimit:10;" d="M 22.996094 137.125 C 22.996094 139.523438 19.394531 139.523438 19.394531 137.125 C 19.394531 134.726562 22.996094 134.726562 22.996094 137.125 "/>
<path style="fill-rule:nonzero;fill:rgb(100%,0%,0%);fill-opacity:1;stroke-width:0.75;stroke-linecap:round;stroke-linejoin:round;stroke:rgb(100%,0%,0%);stroke-opacity:1;stroke-miterlimit:10;" d="M 338.035156 99.1875 C 338.035156 101.585938 334.433594 101.585938 334.433594 99.1875 C 334.433594 96.785156 338.035156 96.785156 338.035156 99.1875 "/>
<path style="fill-rule:nonzero;fill:rgb(100%,0%,0%);fill-opacity:1;stroke-width:0.75;stroke-linecap:round;stroke-linejoin:round;stroke:rgb(100%,0%,0%);stroke-opacity:1;stroke-miterlimit:10;" d="M 28.066406 251.480469 C 28.066406 253.878906 24.46875 253.878906 24.46875 251.480469 C 24.46875 249.082031 28.066406 249.082031 28.066406 251.480469 "/>
<path style="fill-rule:nonzero;fill:rgb(100%,0%,0%);fill-opacity:1;stroke-width:0.75;stroke-linecap:round;stroke-linejoin:round;stroke:rgb(100%,0%,0%);stroke-opacity:1;stroke-miterlimit:10;" d="M 361.726562 177.589844 C 361.726562 179.992188 358.125 179.992188 358.125 177.589844 C 358.125 175.191406 361.726562 175.191406 361.726562 177.589844 "/>
<path style="fill-rule:nonzero;fill:rgb(100%,0%,0%);fill-opacity:1;stroke-width:0.75;stroke-linecap:round;stroke-linejoin:round;stroke:rgb(100%,0%,0%);stroke-opacity:1;stroke-miterlimit:10;" d="M 361.289062 202.554688 C 361.289062 204.957031 357.691406 204.957031 357.691406 202.554688 C 357.691406 200.15625 361.289062 200.15625 361.289062 202.554688 "/>
<path style="fill-rule:nonzero;fill:rgb(100%,0%,0%);fill-opacity:1;stroke-width:0.75;stroke-linecap:round;stroke-linejoin:round;stroke:rgb(100%,0%,0%);stroke-opacity:1;stroke-miterlimit:10;" d="M 118.457031 28.820312 C 118.457031 31.21875 114.859375 31.21875 114.859375 28.820312 C 114.859375 26.421875 118.457031 26.421875 118.457031 28.820312 "/>
<path style="fill-rule:nonzero;fill:rgb(100%,0%,0%);fill-opacity:1;stroke-width:0.75;stroke-linecap:round;stroke-linejoin:round;stroke:rgb(100%,0%,0%);stroke-opacity:1;stroke-miterlimit:10;" d="M 77.964844 320.105469 C 77.964844 322.507812 74.367188 322.507812 74.367188 320.105469 C 74.367188 317.707031 77.964844 317.707031 77.964844 320.105469 "/>
<path style="fill-rule:nonzero;fill:rgb(100%,0%,0%);fill-opacity:1;stroke-width:0.75;stroke-linecap:round;stroke-linejoin:round;stroke:rgb(100%,0%,0%);stroke-opacity:1;stroke-miterlimit:10;" d="M 140.265625 20.828125 C 140.265625 23.230469 136.664062 23.230469 136.664062 20.828125 C 136.664062 18.429688 140.265625 18.429688 140.265625 20.828125 "/>
<path style="fill-rule:nonzero;fill:rgb(100%,0%,0%);fill-opacity:1;stroke-width:0.75;stroke-linecap:round;stroke-linejoin:round;stroke:rgb(100%,0%,0%);stroke-opacity:1;stroke-miterlimit:10;" d="M 361.949219 190.644531 C 361.949219 193.042969 358.347656 193.042969 358.347656 190.644531 C 358.347656 188.246094 361.949219 188.246094 361.949219 190.644531 "/>
<path style="fill-rule:nonzero;fill:rgb(100%,0%,0%);fill-opacity:1;stroke-width:0.75;stroke-linecap:round;stroke-linejoin:round;stroke:rgb(100%,0%,0%);stroke-opacity:1;stroke-miterlimit:10;" d="M 332.660156 283.476562 C 332.660156 285.875 329.0625 285.875 329.0625 283.476562 C 329.0625 281.074219 332.660156 281.074219 332.660156 283.476562 "/>
<path style="fill-rule:nonzero;fill:rgb(100%,0%,0%);fill-opacity:1;stroke-width:0.75;stroke-linecap:round;stroke-linejoin:round;stroke:rgb(100%,0%,0%);stroke-opacity:1;stroke-miterlimit:10;" d="M 361.550781 199.300781 C 361.550781 201.699219 357.953125 201.699219 357.953125 199.300781 C 357.953125 196.902344 361.550781 196.902344 361.550781 199.300781 "/>
<path style="fill-rule:nonzero;fill:rgb(100%,0%,0%);fill-opacity:1;stroke-width:0.75;stroke-linecap:round;stroke-linejoin:round;stroke:rgb(100%,0%,0%);stroke-opacity:1;stroke-miterlimit:10;" d="M 347.460938 117.636719 C 347.460938 120.039062 343.863281 120.039062 343.863281 117.636719 C 343.863281 115.238281 347.460938 115.238281 347.460938 117.636719 "/>
<path style="fill-rule:nonzero;fill:rgb(100%,0%,0%);fill-opacity:1;stroke-width:0.75;stroke-linecap:round;stroke-linejoin:round;stroke:rgb(100%,0%,0%);stroke-opacity:1;stroke-miterlimit:10;" d="M 67.9375 311.070312 C 67.9375 313.46875 64.339844 313.46875 64.339844 311.070312 C 64.339844 308.667969 67.9375 308.667969 67.9375 311.070312 "/>
<path style="fill-rule:nonzero;fill:rgb(100%,0%,0%);fill-opacity:1;stroke-width:0.75;stroke-linecap:round;stroke-linejoin:round;stroke:rgb(100%,0%,0%);stroke-opacity:1;stroke-miterlimit:10;" d="M 15.949219 176.699219 C 15.949219 179.101562 12.347656 179.101562 12.347656 176.699219 C 12.347656 174.300781 15.949219 174.300781 15.949219 176.699219 "/>
<path style="fill-rule:nonzero;fill:rgb(100%,0%,0%);fill-opacity:1;stroke-width:0.75;stroke-linecap:round;stroke-linejoin:round;stroke:rgb(100%,0%,0%);stroke-opacity:1;stroke-miterlimit:10;" d="M 359.125 218.410156 C 359.125 220.8125 355.523438 220.8125 355.523438 218.410156 C 355.523438 216.011719 359.125 216.011719 359.125 218.410156 "/>
<path style="fill-rule:nonzero;fill:rgb(100%,0%,0%);fill-opacity:1;stroke-width:0.75;stroke-linecap:round;stroke-linejoin:round;stroke:rgb(100%,0%,0%);stroke-opacity:1;stroke-miterlimit:10;" d="M 76.578125 55.179688 C 76.578125 57.578125 72.976562 57.578125 72.976562 55.179688 C 72.976562 52.777344 76.578125 52.777344 76.578125 55.179688 "/>
<path style="fill-rule:nonzero;fill:rgb(100%,0%,0%);fill-opacity:1;stroke-width:0.75;stroke-linecap:round;stroke-linejoin:round;stroke:rgb(100%,0%,0%);stroke-opacity:1;stroke-miterlimit:10;" d="M 115.074219 343.746094 C 115.074219 346.148438 111.472656 346.148438 111.472656 343.746094 C 111.472656 341.347656 115.074219 341.347656 115.074219 343.746094 "/>
<path style="fill-rule:nonzero;fill:rgb(100%,0%,0%);fill-opacity:1;stroke-width:0.75;stroke-linecap:round;stroke-linejoin:round;stroke:rgb(100%,0%,0%);stroke-opacity:1;stroke-miterlimit:10;" d="M 173.902344 14.527344 C 173.902344 16.929688 170.300781 16.929688 170.300781 14.527344 C 170.300781 12.128906 173.902344 12.128906 173.902344 14.527344 "/>
<path style="fill-rule:nonzero;fill:rgb(100%,0%,0%);fill-opacity:1;stroke-width:0.75;stroke-linecap:round;stroke-linejoin:round;stroke:rgb(100%,0%,0%);stroke-opacity:1;stroke-miterlimit:10;" d="M 256.875 27.820312 C 256.875 30.21875 253.273438 30.21875 253.273438 27.820312 C 253.273438 25.421875 256.875 25.421875 256.875 27.820312 "/>
<path style="fill-rule:nonzero;fill:rgb(100%,0%,0%);fill-opacity:1;stroke-width:0.75;stroke-linecap:round;stroke-linejoin:round;stroke:rgb(100%,0%,0%);stroke-opacity:1;stroke-miterlimit:10;" d="M 257.445312 28.066406 C 257.445312 30.464844 253.84375 30.464844 253.84375 28.066406 C 253.84375 25.664062 257.445312 25.664062 257.445312 28.066406 "/>
<path style="fill-rule:nonzero;fill:rgb(100%,0%,0%);fill-opacity:1;stroke-width:0.75;stroke-linecap:round;stroke-linejoin:round;stroke:rgb(100%,0%,0%);stroke-opacity:1;stroke-miterlimit:10;" d="M 63.097656 67.957031 C 63.097656 70.355469 59.5 70.355469 59.5 67.957031 C 59.5 65.554688 63.097656 65.554688 63.097656 67.957031 "/>
<path style="fill-rule:nonzero;fill:rgb(100%,0%,0%);fill-opacity:1;stroke-width:0.75;stroke-linecap:round;stroke-linejoin:round;stroke:rgb(100%,0%,0%);stroke-opacity:1;stroke-miterlimit:10;" d="M 287.964844 329.035156 C 287.964844 331.4375 284.363281 331.4375 284.363281 329.035156 C 284.363281 326.636719 287.964844 326.636719 287.964844 329.035156 "/>
<path style="fill-rule:nonzero;fill:rgb(100%,0%,0%);fill-opacity:1;stroke-width:0.75;stroke-linecap:round;stroke-linejoin:round;stroke:rgb(100%,0%,0%);stroke-opacity:1;stroke-miterlimit:10;" d="M 15.652344 184.964844 C 15.652344 187.363281 12.050781 187.363281 12.050781 184.964844 C 12.050781 182.566406 15.652344 182.566406 15.652344 184.964844 "/>
<path style="fill-rule:nonzero;fill:rgb(100%,0%,0%);fill-opacity:1;stroke-width:0.75;stroke-linecap:round;stroke-linejoin:round;stroke:rgb(100%,0%,0%);stroke-opacity:1;stroke-miterlimit:10;" d="M 232.496094 354.632812 C 232.496094 357.03125 228.894531 357.03125 228.894531 354.632812 C 228.894531 352.230469 232.496094 352.230469 232.496094 354.632812 "/>
<path style="fill-rule:nonzero;fill:rgb(100%,0%,0%);fill-opacity:1;stroke-width:0.75;stroke-linecap:round;stroke-linejoin:round;stroke:rgb(100%,0%,0%);stroke-opacity:1;stroke-miterlimit:10;" d="M 280.1875 334.160156 C 280.1875 336.5625 276.585938 336.5625 276.585938 334.160156 C 276.585938 331.761719 280.1875 331.761719 280.1875 334.160156 "/>
<path style="fill-rule:nonzero;fill:rgb(100%,0%,0%);fill-opacity:1;stroke-width:0.75;stroke-linecap:round;stroke-linejoin:round;stroke:rgb(100%,0%,0%);stroke-opacity:1;stroke-miterlimit:10;" d="M 21.949219 140.738281 C 21.949219 143.136719 18.347656 143.136719 18.347656 140.738281 C 18.347656 138.335938 21.949219 138.335938 21.949219 140.738281 "/>
<path style="fill-rule:nonzero;fill:rgb(100%,0%,0%);fill-opacity:1;stroke-width:0.75;stroke-linecap:round;stroke-linejoin:round;stroke:rgb(100%,0%,0%);stroke-opacity:1;stroke-miterlimit:10;" d="M 241.78125 351.929688 C 241.78125 354.332031 238.183594 354.332031 238.183594 351.929688 C 238.183594 349.53125 241.78125 349.53125 241.78125 351.929688 "/>
<path style="fill-rule:nonzero;fill:rgb(100%,0%,0%);fill-opacity:1;stroke-width:0.75;stroke-linecap:round;stroke-linejoin:round;stroke:rgb(100%,0%,0%);stroke-opacity:1;stroke-miterlimit:10;" d="M 61.136719 70.0625 C 61.136719 72.464844 57.535156 72.464844 57.535156 70.0625 C 57.535156 67.664062 61.136719 67.664062 61.136719 70.0625 "/>
<path style="fill-rule:nonzero;fill:rgb(100%,0%,0%);fill-opacity:1;stroke-width:0.75;stroke-linecap:round;stroke-linejoin:round;stroke:rgb(100%,0%,0%);stroke-opacity:1;stroke-miterlimit:10;" d="M 199.363281 359.910156 C 199.363281 362.308594 195.761719 362.308594 195.761719 359.910156 C 195.761719 357.507812 199.363281 357.507812 199.363281 359.910156 "/>
<path style="fill-rule:nonzero;fill:rgb(100%,0%,0%);fill-opacity:1;stroke-width:0.75;stroke-linecap:round;stroke-linejoin:round;stroke:rgb(100%,0%,0%);stroke-opacity:1;stroke-miterlimit:10;" d="M 29.125 120.058594 C 29.125 122.460938 25.523438 122.460938 25.523438 120.058594 C 25.523438 117.660156 29.125 117.660156 29.125 120.058594 "/>
<path style="fill-rule:nonzero;fill:rgb(100%,0%,0%);fill-opacity:1;stroke-width:0.75;stroke-linecap:round;stroke-linejoin:round;stroke:rgb(100%,0%,0%);stroke-opacity:1;stroke-miterlimit:10;" d="M 331.558594 285.097656 C 331.558594 287.5 327.960938 287.5 327.960938 285.097656 C 327.960938 282.699219 331.558594 282.699219 331.558594 285.097656 "/>
<path style="fill-rule:nonzero;fill:rgb(100%,0%,0%);fill-opacity:1;stroke-width:0.75;stroke-linecap:round;stroke-linejoin:round;stroke:rgb(100%,0%,0%);stroke-opacity:1;stroke-miterlimit:10;" d="M 115.535156 30.152344 C 115.535156 32.550781 111.9375 32.550781 111.9375 30.152344 C 111.9375 27.75 115.535156 27.75 115.535156 30.152344 "/>
<path style="fill-rule:nonzero;fill:rgb(100%,0%,0%);fill-opacity:1;stroke-width:0.75;stroke-linecap:round;stroke-linejoin:round;stroke:rgb(100%,0%,0%);stroke-opacity:1;stroke-miterlimit:10;" d="M 339.199219 101.191406 C 339.199219 103.59375 335.597656 103.59375 335.597656 101.191406 C 335.597656 98.792969 339.199219 98.792969 339.199219 101.191406 "/>
<path style="fill-rule:nonzero;fill:rgb(100%,0%,0%);fill-opacity:1;stroke-width:0.75;stroke-linecap:round;stroke-linejoin:round;stroke:rgb(100%,0%,0%);stroke-opacity:1;stroke-miterlimit:10;" d="M 258.871094 345.425781 C 258.871094 347.824219 255.273438 347.824219 255.273438 345.425781 C 255.273438 343.027344 258.871094 343.027344 258.871094 345.425781 "/>
<path style="fill-rule:nonzero;fill:rgb(100%,0%,0%);fill-opacity:1;stroke-width:0.75;stroke-linecap:round;stroke-linejoin:round;stroke:rgb(100%,0%,0%);stroke-opacity:1;stroke-miterlimit:10;" d="M 327.929688 290.183594 C 327.929688 292.582031 324.332031 292.582031 324.332031 290.183594 C 324.332031 287.785156 327.929688 287.785156 327.929688 290.183594 "/>
<path style="fill-rule:nonzero;fill:rgb(100%,0%,0%);fill-opacity:1;stroke-width:0.75;stroke-linecap:round;stroke-linejoin:round;stroke:rgb(100%,0%,0%);stroke-opacity:1;stroke-miterlimit:10;" d="M 358.164062 223.242188 C 358.164062 225.644531 354.5625 225.644531 354.5625 223.242188 C 354.5625 220.84375 358.164062 220.84375 358.164062 223.242188 "/>
<path style="fill-rule:nonzero;fill:rgb(100%,0%,0%);fill-opacity:1;stroke-width:0.75;stroke-linecap:round;stroke-linejoin:round;stroke:rgb(100%,0%,0%);stroke-opacity:1;stroke-miterlimit:10;" d="M 33.570312 263.800781 C 33.570312 266.199219 29.972656 266.199219 29.972656 263.800781 C 29.972656 261.398438 33.570312 261.398438 33.570312 263.800781 "/>
<path style="fill-rule:nonzero;fill:rgb(100%,0%,0%);fill-opacity:1;stroke-width:0.75;stroke-linecap:round;stroke-linejoin:round;stroke:rgb(100%,0%,0%);stroke-opacity:1;stroke-miterlimit:10;" d="M 156.449219 357.179688 C 156.449219 359.578125 152.847656 359.578125 152.847656 357.179688 C 152.847656 354.78125 156.449219 354.78125 156.449219 357.179688 "/>
<path style="fill-rule:nonzero;fill:rgb(100%,0%,0%);fill-opacity:1;stroke-width:0.75;stroke-linecap:round;stroke-linejoin:round;stroke:rgb(100%,0%,0%);stroke-opacity:1;stroke-miterlimit:10;" d="M 214.890625 358.257812 C 214.890625 360.65625 211.289062 360.65625 211.289062 358.257812 C 211.289062 355.855469 214.890625 355.855469 214.890625 358.257812 "/>
<path style="fill-rule:nonzero;fill:rgb(100%,0%,0%);fill-opacity:1;stroke-width:0.75;stroke-linecap:round;stroke-linejoin:round;stroke:rgb(100%,0%,0%);stroke-opacity:1;stroke-miterlimit:10;" d="M 68.503906 311.617188 C 68.503906 314.015625 64.902344 314.015625 64.902344 311.617188 C 64.902344 309.214844 68.503906 309.214844 68.503906 311.617188 "/>
<path style="fill-rule:nonzero;fill:rgb(100%,0%,0%);fill-opacity:1;stroke-width:0.75;stroke-linecap:round;stroke-linejoin:round;stroke:rgb(100%,0%,0%);stroke-opacity:1;stroke-miterlimit:10;" d="M 159.5625 357.742188 C 159.5625 360.144531 155.964844 360.144531 155.964844 357.742188 C 155.964844 355.34375 159.5625 355.34375 159.5625 357.742188 "/>
<path style="fill-rule:nonzero;fill:rgb(100%,0%,0%);fill-opacity:1;stroke-width:0.75;stroke-linecap:round;stroke-linejoin:round;stroke:rgb(100%,0%,0%);stroke-opacity:1;stroke-miterlimit:10;" d="M 57.605469 74.039062 C 57.605469 76.4375 54.003906 76.4375 54.003906 74.039062 C 54.003906 71.640625 57.605469 71.640625 57.605469 74.039062 "/>
<path style="fill-rule:nonzero;fill:rgb(100%,0%,0%);fill-opacity:1;stroke-width:0.75;stroke-linecap:round;stroke-linejoin:round;stroke:rgb(100%,0%,0%);stroke-opacity:1;stroke-miterlimit:10;" d="M 279.023438 39.238281 C 279.023438 41.640625 275.425781 41.640625 275.425781 39.238281 C 275.425781 36.839844 279.023438 36.839844 279.023438 39.238281 "/>
<path style="fill-rule:nonzero;fill:rgb(100%,0%,0%);fill-opacity:1;stroke-width:0.75;stroke-linecap:round;stroke-linejoin:round;stroke:rgb(100%,0%,0%);stroke-opacity:1;stroke-miterlimit:10;" d="M 255.355469 27.179688 C 255.355469 29.582031 251.753906 29.582031 251.753906 27.179688 C 251.753906 24.78125 255.355469 24.78125 255.355469 27.179688 "/>
<path style="fill-rule:nonzero;fill:rgb(100%,0%,0%);fill-opacity:1;stroke-width:0.75;stroke-linecap:round;stroke-linejoin:round;stroke:rgb(100%,0%,0%);stroke-opacity:1;stroke-miterlimit:10;" d="M 54.519531 77.722656 C 54.519531 80.125 50.917969 80.125 50.917969 77.722656 C 50.917969 75.324219 54.519531 75.324219 54.519531 77.722656 "/>
<path style="fill-rule:nonzero;fill:rgb(100%,0%,0%);fill-opacity:1;stroke-width:0.75;stroke-linecap:round;stroke-linejoin:round;stroke:rgb(100%,0%,0%);stroke-opacity:1;stroke-miterlimit:10;" d="M 162.902344 15.835938 C 162.902344 18.234375 159.304688 18.234375 159.304688 15.835938 C 159.304688 13.433594 162.902344 13.433594 162.902344 15.835938 "/>
<path style="fill-rule:nonzero;fill:rgb(100%,0%,0%);fill-opacity:1;stroke-width:0.75;stroke-linecap:round;stroke-linejoin:round;stroke:rgb(100%,0%,0%);stroke-opacity:1;stroke-miterlimit:10;" d="M 250.617188 25.289062 C 250.617188 27.6875 247.015625 27.6875 247.015625 25.289062 C 247.015625 22.890625 250.617188 22.890625 250.617188 25.289062 "/>
<path style="fill-rule:nonzero;fill:rgb(100%,0%,0%);fill-opacity:1;stroke-width:0.75;stroke-linecap:round;stroke-linejoin:round;stroke:rgb(100%,0%,0%);stroke-opacity:1;stroke-miterlimit:10;" d="M 15.707031 191.835938 C 15.707031 194.234375 12.105469 194.234375 12.105469 191.835938 C 12.105469 189.4375 15.707031 189.4375 15.707031 191.835938 "/>
<path style="fill-rule:nonzero;fill:rgb(100%,0%,0%);fill-opacity:1;stroke-width:0.75;stroke-linecap:round;stroke-linejoin:round;stroke:rgb(100%,0%,0%);stroke-opacity:1;stroke-miterlimit:10;" d="M 203.851562 359.578125 C 203.851562 361.976562 200.253906 361.976562 200.253906 359.578125 C 200.253906 357.175781 203.851562 357.175781 203.851562 359.578125 "/>
<path style="fill-rule:nonzero;fill:rgb(100%,0%,0%);fill-opacity:1;stroke-width:0.75;stroke-linecap:round;stroke-linejoin:round;stroke:rgb(100%,0%,0%);stroke-opacity:1;stroke-miterlimit:10;" d="M 128.792969 349.496094 C 128.792969 351.898438 125.191406 351.898438 125.191406 349.496094 C 125.191406 347.097656 128.792969 347.097656 128.792969 349.496094 "/>
<path style="fill-rule:nonzero;fill:rgb(100%,0%,0%);fill-opacity:1;stroke-width:0.75;stroke-linecap:round;stroke-linejoin:round;stroke:rgb(100%,0%,0%);stroke-opacity:1;stroke-miterlimit:10;" d="M 22.230469 234.382812 C 22.230469 236.78125 18.632812 236.78125 18.632812 234.382812 C 18.632812 231.984375 22.230469 231.984375 22.230469 234.382812 "/>
<path style="fill-rule:nonzero;fill:rgb(100%,0%,0%);fill-opacity:1;stroke-width:0.75;stroke-linecap:round;stroke-linejoin:round;stroke:rgb(100%,0%,0%);stroke-opacity:1;stroke-miterlimit:10;" d="M 95.183594 332.738281 C 95.183594 335.136719 91.585938 335.136719 91.585938 332.738281 C 91.585938 330.339844 95.183594 330.339844 95.183594 332.738281 "/>
<path style="fill-rule:nonzero;fill:rgb(100%,0%,0%);fill-opacity:1;stroke-width:0.75;stroke-linecap:round;stroke-linejoin:round;stroke:rgb(100%,0%,0%);stroke-opacity:1;stroke-miterlimit:10;" d="M 18.972656 153.25 C 18.972656 155.652344 15.371094 155.652344 15.371094 153.25 C 15.371094 150.851562 18.972656 150.851562 18.972656 153.25 "/>
<path style="fill-rule:nonzero;fill:rgb(100%,0%,0%);fill-opacity:1;stroke-width:0.75;stroke-linecap:round;stroke-linejoin:round;stroke:rgb(100%,0%,0%);stroke-opacity:1;stroke-miterlimit:10;" d="M 16.769531 167.304688 C 16.769531 169.703125 13.167969 169.703125 13.167969 167.304688 C 13.167969 164.902344 16.769531 164.902344 16.769531 167.304688 "/>
<path style="fill-rule:nonzero;fill:rgb(100%,0%,0%);fill-opacity:1;stroke-width:0.75;stroke-linecap:round;stroke-linejoin:round;stroke:rgb(100%,0%,0%);stroke-opacity:1;stroke-miterlimit:10;" d="M 98.734375 39.15625 C 98.734375 41.554688 95.136719 41.554688 95.136719 39.15625 C 95.136719 36.757812 98.734375 36.757812 98.734375 39.15625 "/>
<path style="fill-rule:nonzero;fill:rgb(100%,0%,0%);fill-opacity:1;stroke-width:0.75;stroke-linecap:round;stroke-linejoin:round;stroke:rgb(100%,0%,0%);stroke-opacity:1;stroke-miterlimit:10;" d="M 34.75 107.980469 C 34.75 110.378906 31.148438 110.378906 31.148438 107.980469 C 31.148438 105.582031 34.75 105.582031 34.75 107.980469 "/>
<path style="fill-rule:nonzero;fill:rgb(100%,0%,0%);fill-opacity:1;stroke-width:0.75;stroke-linecap:round;stroke-linejoin:round;stroke:rgb(100%,0%,0%);stroke-opacity:1;stroke-miterlimit:10;" d="M 148.898438 18.546875 C 148.898438 20.949219 145.300781 20.949219 145.300781 18.546875 C 145.300781 16.148438 148.898438 16.148438 148.898438 18.546875 "/>
<path style="fill-rule:nonzero;fill:rgb(100%,0%,0%);fill-opacity:1;stroke-width:0.75;stroke-linecap:round;stroke-linejoin:round;stroke:rgb(100%,0%,0%);stroke-opacity:1;stroke-miterlimit:10;" d="M 49.476562 289.894531 C 49.476562 292.292969 45.878906 292.292969 45.878906 289.894531 C 45.878906 287.492188 49.476562 287.492188 49.476562 289.894531 "/>
<path style="fill-rule:nonzero;fill:rgb(100%,0%,0%);fill-opacity:1;stroke-width:0.75;stroke-linecap:round;stroke-linejoin:round;stroke:rgb(100%,0%,0%);stroke-opacity:1;stroke-miterlimit:10;" d="M 282.285156 332.839844 C 282.285156 335.238281 278.683594 335.238281 278.683594 332.839844 C 278.683594 330.4375 282.285156 330.4375 282.285156 332.839844 "/>
<path style="fill-rule:nonzero;fill:rgb(100%,0%,0%);fill-opacity:1;stroke-width:0.75;stroke-linecap:round;stroke-linejoin:round;stroke:rgb(100%,0%,0%);stroke-opacity:1;stroke-miterlimit:10;" d="M 63.199219 306.265625 C 63.199219 308.664062 59.601562 308.664062 59.601562 306.265625 C 59.601562 303.867188 63.199219 303.867188 63.199219 306.265625 "/>
<path style="fill-rule:nonzero;fill:rgb(100%,0%,0%);fill-opacity:1;stroke-width:0.75;stroke-linecap:round;stroke-linejoin:round;stroke:rgb(100%,0%,0%);stroke-opacity:1;stroke-miterlimit:10;" d="M 303.699219 57.480469 C 303.699219 59.882812 300.097656 59.882812 300.097656 57.480469 C 300.097656 55.082031 303.699219 55.082031 303.699219 57.480469 "/>
<path style="fill-rule:nonzero;fill:rgb(100%,0%,0%);fill-opacity:1;stroke-width:0.75;stroke-linecap:round;stroke-linejoin:round;stroke:rgb(100%,0%,0%);stroke-opacity:1;stroke-miterlimit:10;" d="M 31.082031 258.542969 C 31.082031 260.941406 27.480469 260.941406 27.480469 258.542969 C 27.480469 256.140625 31.082031 256.140625 31.082031 258.542969 "/>
<path style="fill-rule:nonzero;fill:rgb(100%,0%,0%);fill-opacity:1;stroke-width:0.75;stroke-linecap:round;stroke-linejoin:round;stroke:rgb(100%,0%,0%);stroke-opacity:1;stroke-miterlimit:10;" d="M 26.464844 126.789062 C 26.464844 129.191406 22.863281 129.191406 22.863281 126.789062 C 22.863281 124.390625 26.464844 124.390625 26.464844 126.789062 "/>
<path style="fill-rule:nonzero;fill:rgb(100%,0%,0%);fill-opacity:1;stroke-width:0.75;stroke-linecap:round;stroke-linejoin:round;stroke:rgb(100%,0%,0%);stroke-opacity:1;stroke-miterlimit:10;" d="M 28.625 121.265625 C 28.625 123.664062 25.023438 123.664062 25.023438 121.265625 C 25.023438 118.867188 28.625 118.867188 28.625 121.265625 "/>
<path style="fill-rule:nonzero;fill:rgb(100%,0%,0%);fill-opacity:1;stroke-width:0.75;stroke-linecap:round;stroke-linejoin:round;stroke:rgb(100%,0%,0%);stroke-opacity:1;stroke-miterlimit:10;" d="M 65.300781 308.441406 C 65.300781 310.839844 61.699219 310.839844 61.699219 308.441406 C 61.699219 306.042969 65.300781 306.042969 65.300781 308.441406 "/>
<path style="fill-rule:nonzero;fill:rgb(100%,0%,0%);fill-opacity:1;stroke-width:0.75;stroke-linecap:round;stroke-linejoin:round;stroke:rgb(100%,0%,0%);stroke-opacity:1;stroke-miterlimit:10;" d="M 346.710938 258.167969 C 346.710938 260.570312 343.109375 260.570312 343.109375 258.167969 C 343.109375 255.769531 346.710938 255.769531 346.710938 258.167969 "/>
<path style="fill-rule:nonzero;fill:rgb(100%,0%,0%);fill-opacity:1;stroke-width:0.75;stroke-linecap:round;stroke-linejoin:round;stroke:rgb(100%,0%,0%);stroke-opacity:1;stroke-miterlimit:10;" d="M 321.191406 298.703125 C 321.191406 301.101562 317.59375 301.101562 317.59375 298.703125 C 317.59375 296.300781 321.191406 296.300781 321.191406 298.703125 "/>
<path style="fill-rule:nonzero;fill:rgb(100%,0%,0%);fill-opacity:1;stroke-width:0.75;stroke-linecap:round;stroke-linejoin:round;stroke:rgb(100%,0%,0%);stroke-opacity:1;stroke-miterlimit:10;" d="M 313.957031 306.753906 C 313.957031 309.15625 310.359375 309.15625 310.359375 306.753906 C 310.359375 304.355469 313.957031 304.355469 313.957031 306.753906 "/>
<path style="fill-rule:nonzero;fill:rgb(100%,0%,0%);fill-opacity:1;stroke-width:0.75;stroke-linecap:round;stroke-linejoin:round;stroke:rgb(100%,0%,0%);stroke-opacity:1;stroke-miterlimit:10;" d="M 197.320312 14.09375 C 197.320312 16.496094 193.722656 16.496094 193.722656 14.09375 C 193.722656 11.695312 197.320312 11.695312 197.320312 14.09375 "/>
<path style="fill-rule:nonzero;fill:rgb(100%,0%,0%);fill-opacity:1;stroke-width:0.75;stroke-linecap:round;stroke-linejoin:round;stroke:rgb(100%,0%,0%);stroke-opacity:1;stroke-miterlimit:10;" d="M 179.519531 359.980469 C 179.519531 362.382812 175.917969 362.382812 175.917969 359.980469 C 175.917969 357.582031 179.519531 357.582031 179.519531 359.980469 "/>
<path style="fill-rule:nonzero;fill:rgb(100%,0%,0%);fill-opacity:1;stroke-width:0.75;stroke-linecap:round;stroke-linejoin:round;stroke:rgb(100%,0%,0%);stroke-opacity:1;stroke-miterlimit:10;" d="M 57.019531 74.71875 C 57.019531 77.121094 53.421875 77.121094 53.421875 74.71875 C 53.421875 72.320312 57.019531 72.320312 57.019531 74.71875 "/>
<path style="fill-rule:nonzero;fill:rgb(100%,0%,0%);fill-opacity:1;stroke-width:0.75;stroke-linecap:round;stroke-linejoin:round;stroke:rgb(100%,0%,0%);stroke-opacity:1;stroke-miterlimit:10;" d="M 341.109375 104.632812 C 341.109375 107.03125 337.511719 107.03125 337.511719 104.632812 C 337.511719 102.234375 341.109375 102.234375 341.109375 104.632812 "/>
<path style="fill-rule:nonzero;fill:rgb(100%,0%,0%);fill-opacity:1;stroke-width:0.75;stroke-linecap:round;stroke-linejoin:round;stroke:rgb(100%,0%,0%);stroke-opacity:1;stroke-miterlimit:10;" d="M 332.140625 89.867188 C 332.140625 92.269531 328.539062 92.269531 328.539062 89.867188 C 328.539062 87.46875 332.140625 87.46875 332.140625 89.867188 "/>
<path style="fill-rule:nonzero;fill:rgb(100%,0%,0%);fill-opacity:1;stroke-width:0.75;stroke-linecap:round;stroke-linejoin:round;stroke:rgb(100%,0%,0%);stroke-opacity:1;stroke-miterlimit:10;" d="M 202.011719 359.726562 C 202.011719 362.128906 198.410156 362.128906 198.410156 359.726562 C 198.410156 357.328125 202.011719 357.328125 202.011719 359.726562 "/>
<path style="fill-rule:nonzero;fill:rgb(100%,0%,0%);fill-opacity:1;stroke-width:0.75;stroke-linecap:round;stroke-linejoin:round;stroke:rgb(100%,0%,0%);stroke-opacity:1;stroke-miterlimit:10;" d="M 88.886719 45.625 C 88.886719 48.023438 85.285156 48.023438 85.285156 45.625 C 85.285156 43.222656 88.886719 43.222656 88.886719 45.625 "/>
<path style="fill-rule:nonzero;fill:rgb(100%,0%,0%);fill-opacity:1;stroke-width:0.75;stroke-linecap:round;stroke-linejoin:round;stroke:rgb(100%,0%,0%);stroke-opacity:1;stroke-miterlimit:10;" d="M 38.785156 100.566406 C 38.785156 102.964844 35.1875 102.964844 35.1875 100.566406 C 35.1875 98.164062 38.785156 98.164062 38.785156 100.566406 "/>
<path style="fill-rule:nonzero;fill:rgb(100%,0%,0%);fill-opacity:1;stroke-width:0.75;stroke-linecap:round;stroke-linejoin:round;stroke:rgb(100%,0%,0%);stroke-opacity:1;stroke-miterlimit:10;" d="M 92.363281 43.230469 C 92.363281 45.632812 88.761719 45.632812 88.761719 43.230469 C 88.761719 40.832031 92.363281 40.832031 92.363281 43.230469 "/>
<path style="fill-rule:nonzero;fill:rgb(100%,0%,0%);fill-opacity:1;stroke-width:0.75;stroke-linecap:round;stroke-linejoin:round;stroke:rgb(100%,0%,0%);stroke-opacity:1;stroke-miterlimit:10;" d="M 361.742188 177.910156 C 361.742188 180.3125 358.144531 180.3125 358.144531 177.910156 C 358.144531 175.511719 361.742188 175.511719 361.742188 177.910156 "/>
<path style="fill-rule:nonzero;fill:rgb(100%,0%,0%);fill-opacity:1;stroke-width:0.75;stroke-linecap:round;stroke-linejoin:round;stroke:rgb(100%,0%,0%);stroke-opacity:1;stroke-miterlimit:10;" d="M 335.9375 278.398438 C 335.9375 280.796875 332.339844 280.796875 332.339844 278.398438 C 332.339844 275.996094 335.9375 275.996094 335.9375 278.398438 "/>
<path style="fill-rule:nonzero;fill:rgb(100%,0%,0%);fill-opacity:1;stroke-width:0.75;stroke-linecap:round;stroke-linejoin:round;stroke:rgb(100%,0%,0%);stroke-opacity:1;stroke-miterlimit:10;" d="M 260.367188 29.359375 C 260.367188 31.757812 256.765625 31.757812 256.765625 29.359375 C 256.765625 26.960938 260.367188 26.960938 260.367188 29.359375 "/>
<path style="fill-rule:nonzero;fill:rgb(100%,0%,0%);fill-opacity:1;stroke-width:0.75;stroke-linecap:round;stroke-linejoin:round;stroke:rgb(100%,0%,0%);stroke-opacity:1;stroke-miterlimit:10;" d="M 159.363281 357.707031 C 159.363281 360.109375 155.765625 360.109375 155.765625 357.707031 C 155.765625 355.308594 159.363281 355.308594 159.363281 357.707031 "/>
<path style="fill-rule:nonzero;fill:rgb(100%,0%,0%);fill-opacity:1;stroke-width:0.75;stroke-linecap:round;stroke-linejoin:round;stroke:rgb(100%,0%,0%);stroke-opacity:1;stroke-miterlimit:10;" d="M 33.042969 262.71875 C 33.042969 265.117188 29.441406 265.117188 29.441406 262.71875 C 29.441406 260.320312 33.042969 260.320312 33.042969 262.71875 "/>
<path style="fill-rule:nonzero;fill:rgb(100%,0%,0%);fill-opacity:1;stroke-width:0.75;stroke-linecap:round;stroke-linejoin:round;stroke:rgb(100%,0%,0%);stroke-opacity:1;stroke-miterlimit:10;" d="M 21.089844 230.164062 C 21.089844 232.5625 17.488281 232.5625 17.488281 230.164062 C 17.488281 227.761719 21.089844 227.761719 21.089844 230.164062 "/>
<path style="fill-rule:nonzero;fill:rgb(100%,0%,0%);fill-opacity:1;stroke-width:0.75;stroke-linecap:round;stroke-linejoin:round;stroke:rgb(100%,0%,0%);stroke-opacity:1;stroke-miterlimit:10;" d="M 82.71875 50.1875 C 82.71875 52.589844 79.117188 52.589844 79.117188 50.1875 C 79.117188 47.789062 82.71875 47.789062 82.71875 50.1875 "/>
<path style="fill-rule:nonzero;fill:rgb(100%,0%,0%);fill-opacity:1;stroke-width:0.75;stroke-linecap:round;stroke-linejoin:round;stroke:rgb(100%,0%,0%);stroke-opacity:1;stroke-miterlimit:10;" d="M 266.550781 341.800781 C 266.550781 344.203125 262.949219 344.203125 262.949219 341.800781 C 262.949219 339.402344 266.550781 339.402344 266.550781 341.800781 "/>
<path style="fill-rule:nonzero;fill:rgb(100%,0%,0%);fill-opacity:1;stroke-width:0.75;stroke-linecap:round;stroke-linejoin:round;stroke:rgb(100%,0%,0%);stroke-opacity:1;stroke-miterlimit:10;" d="M 256.449219 27.640625 C 256.449219 30.039062 252.851562 30.039062 252.851562 27.640625 C 252.851562 25.242188 256.449219 25.242188 256.449219 27.640625 "/>
<path style="fill:none;stroke-width:0.75;stroke-linecap:round;stroke-linejoin:round;stroke:rgb(0%,0%,0%);stroke-opacity:1;stroke-miterlimit:10;" d="M 13.839844 374 L 360.183594 374 "/>
<path style="fill:none;stroke-width:0.75;stroke-linecap:round;stroke-linejoin:round;stroke:rgb(0%,0%,0%);stroke-opacity:1;stroke-miterlimit:10;" d="M 13.839844 374 L 13.839844 374 "/>
<path style="fill:none;stroke-width:0.75;stroke-linecap:round;stroke-linejoin:round;stroke:rgb(0%,0%,0%);stroke-opacity:1;stroke-miterlimit:10;" d="M 100.425781 374 L 100.425781 374 "/>
<path style="fill:none;stroke-width:0.75;stroke-linecap:round;stroke-linejoin:round;stroke:rgb(0%,0%,0%);stroke-opacity:1;stroke-miterlimit:10;" d="M 187.011719 374 L 187.011719 374 "/>
<path style="fill:none;stroke-width:0.75;stroke-linecap:round;stroke-linejoin:round;stroke:rgb(0%,0%,0%);stroke-opacity:1;stroke-miterlimit:10;" d="M 273.597656 374 L 273.597656 374 "/>
<path style="fill:none;stroke-width:0.75;stroke-linecap:round;stroke-linejoin:round;stroke:rgb(0%,0%,0%);stroke-opacity:1;stroke-miterlimit:10;" d="M 360.183594 374 L 360.183594 374 "/>
<path style="fill:none;stroke-width:0.75;stroke-linecap:round;stroke-linejoin:round;stroke:rgb(0%,0%,0%);stroke-opacity:1;stroke-miterlimit:10;" d="M 0 360.230469 L 0 13.886719 "/>
<path style="fill:none;stroke-width:0.75;stroke-linecap:round;stroke-linejoin:round;stroke:rgb(0%,0%,0%);stroke-opacity:1;stroke-miterlimit:10;" d="M 0 360.230469 L 0 360.230469 "/>
<path style="fill:none;stroke-width:0.75;stroke-linecap:round;stroke-linejoin:round;stroke:rgb(0%,0%,0%);stroke-opacity:1;stroke-miterlimit:10;" d="M 0 273.644531 L 0 273.644531 "/>
<path style="fill:none;stroke-width:0.75;stroke-linecap:round;stroke-linejoin:round;stroke:rgb(0%,0%,0%);stroke-opacity:1;stroke-miterlimit:10;" d="M 0 187.058594 L 0 187.058594 "/>
<path style="fill:none;stroke-width:0.75;stroke-linecap:round;stroke-linejoin:round;stroke:rgb(0%,0%,0%);stroke-opacity:1;stroke-miterlimit:10;" d="M 0 100.472656 L 0 100.472656 "/>
<path style="fill:none;stroke-width:0.75;stroke-linecap:round;stroke-linejoin:round;stroke:rgb(0%,0%,0%);stroke-opacity:1;stroke-miterlimit:10;" d="M 0 13.886719 L 0 13.886719 "/>
<path style="fill:none;stroke-width:0.75;stroke-linecap:round;stroke-linejoin:round;stroke:rgb(0%,0%,0%);stroke-opacity:1;stroke-miterlimit:10;" d="M 0 374 L 374 374 L 374 0 L 0 0 L 0 374 "/>
<path style="fill:none;stroke-width:0.375;stroke-linecap:round;stroke-linejoin:round;stroke:rgb(0%,0%,0%);stroke-opacity:1;stroke-miterlimit:10;" d="M 360.183594 187.058594 L 359.84375 176.183594 L 358.820312 165.355469 L 357.117188 154.609375 L 354.746094 143.992188 L 351.710938 133.542969 L 348.023438 123.308594 L 343.703125 113.324219 L 338.765625 103.632812 L 333.226562 94.265625 L 327.113281 85.269531 L 320.445312 76.671875 L 313.25 68.511719 L 305.558594 60.820312 L 297.398438 53.625 L 288.800781 46.957031 L 279.804688 40.84375 L 270.4375 35.304688 L 260.746094 30.367188 L 250.761719 26.046875 L 240.527344 22.359375 L 230.078125 19.324219 L 219.460938 16.953125 L 208.714844 15.25 L 197.886719 14.226562 L 187.011719 13.886719 L 176.136719 14.226562 L 165.308594 15.25 L 154.5625 16.953125 L 143.945312 19.324219 L 133.5 22.359375 L 123.261719 26.046875 L 113.277344 30.367188 L 103.585938 35.304688 L 94.222656 40.84375 L 85.222656 46.957031 L 76.628906 53.625 L 68.46875 60.820312 L 60.773438 68.511719 L 53.582031 76.671875 L 46.914062 85.269531 L 40.796875 94.265625 L 35.257812 103.632812 L 30.320312 113.324219 L 26 123.308594 L 22.316406 133.542969 L 19.28125 143.992188 L 16.90625 154.609375 L 15.203125 165.355469 L 14.179688 176.183594 L 13.839844 187.058594 L 14.179688 197.933594 L 15.203125 208.761719 L 16.90625 219.507812 L 19.28125 230.125 L 22.316406 240.570312 L 26 250.808594 L 30.320312 260.792969 L 35.257812 270.484375 L 40.796875 279.847656 L 46.914062 288.847656 L 53.582031 297.441406 L 60.773438 305.601562 L 68.46875 313.296875 L 76.628906 320.488281 L 85.222656 327.15625 L 94.222656 333.273438 L 103.585938 338.8125 L 113.277344 343.75 L 123.261719 348.070312 L 133.5 351.753906 L 143.945312 354.789062 L 154.5625 357.164062 L 165.308594 358.867188 L 176.136719 359.890625 L 187.011719 360.230469 L 197.886719 359.890625 L 208.714844 358.867188 L 219.460938 357.164062 L 230.078125 354.789062 L 240.527344 351.753906 L 250.761719 348.070312 L 260.746094 343.75 L 270.4375 338.8125 L 279.804688 333.273438 L 288.800781 327.15625 L 297.398438 320.488281 L 305.558594 313.296875 L 313.25 305.601562 L 320.445312 297.441406 L 327.113281 288.847656 L 333.226562 279.847656 L 338.765625 270.484375 L 343.703125 260.792969 L 348.023438 250.808594 L 351.710938 240.570312 L 354.746094 230.125 L 357.117188 219.507812 L 358.820312 208.761719 L 359.84375 197.933594 L 360.183594 187.058594 "/>
</g>
</svg>
