<?xml version="1.0" encoding="UTF-8"?>
<svg xmlns="http://www.w3.org/2000/svg" xmlns:xlink="http://www.w3.org/1999/xlink" width="374pt" height="374pt" viewBox="0 0 374 374" version="1.1">
<g id="surface6">
<rect x="0" y="0" width="374" height="374" style="fill:rgb(100%,100%,100%);fill-opacity:1;stroke:none;"/>
<path style="fill-rule:nonzero;fill:rgb(100%,49.803922%,31.372549%);fill-opacity:1;stroke-width:0.75;stroke-linecap:round;stroke-linejoin:round;stroke:rgb(100%,49.803922%,31.372549%);stroke-opacity:1;stroke-miterlimit:10;" d="M 294.253906 131.625 C 294.253906 135.222656 288.855469 135.222656 288.855469 131.625 C 288.855469 128.023438 294.253906 128.023438 294.253906 131.625 "/>
<path style="fill-rule:nonzero;fill:rgb(100%,49.803922%,31.372549%);fill-opacity:1;stroke-width:0.75;stroke-linecap:round;stroke-linejoin:round;stroke:rgb(100%,49.803922%,31.372549%);stroke-opacity:1;stroke-miterlimit:10;" d="M 103.863281 129.527344 C 103.863281 133.128906 98.464844 133.128906 98.464844 129.527344 C 98.464844 125.929688 103.863281 125.929688 103.863281 129.527344 "/>
<path style="fill-rule:nonzero;fill:rgb(100%,49.803922%,31.372549%);fill-opacity:1;stroke-width:0.75;stroke-linecap:round;stroke-linejoin:round;stroke:rgb(100%,49.803922%,31.372549%);stroke-opacity:1;stroke-miterlimit:10;" d="M 278.980469 119.617188 C 278.980469 123.214844 273.578125 123.214844 273.578125 119.617188 C 273.578125 116.015625 278.980469 116.015625 278.980469 119.617188 "/>
<path style="fill-rule:nonzero;fill:rgb(100%,49.803922%,31.372549%);fill-opacity:1;stroke-width:0.75;stroke-linecap:round;stroke-linejoin:round;stroke:rgb(100%,49.803922%,31.372549%);stroke-opacity:1;stroke-miterlimit:10;" d="M 293.320312 249.359375 C 293.320312 252.960938 287.921875 252.960938 287.921875 249.359375 C 287.921875 245.761719 293.320312 245.761719 293.320312 249.359375 "/>
<path style="fill-rule:nonzero;fill:rgb(100%,49.803922%,31.372549%);fill-opacity:1;stroke-width:0.75;stroke-linecap:round;stroke-linejoin:round;stroke:rgb(100%,49.803922%,31.372549%);stroke-opacity:1;stroke-miterlimit:10;" d="M 295.703125 152.265625 C 295.703125 155.867188 290.304688 155.867188 290.304688 152.265625 C 290.304688 148.664062 295.703125 148.664062 295.703125 152.265625 "/>
<path style="fill-rule:nonzero;fill:rgb(100%,49.803922%,31.372549%);fill-opacity:1;stroke-width:0.75;stroke-linecap:round;stroke-linejoin:round;stroke:rgb(100%,49.803922%,31.372549%);stroke-opacity:1;stroke-miterlimit:10;" d="M 117.933594 108.738281 C 117.933594 112.339844 112.53125 112.339844 112.53125 108.738281 C 112.53125 105.140625 117.933594 105.140625 117.933594 108.738281 "/>
<path style="fill-rule:nonzero;fill:rgb(100%,49.803922%,31.372549%);fill-opacity:1;stroke-width:0.75;stroke-linecap:round;stroke-linejoin:round;stroke:rgb(100%,49.803922%,31.372549%);stroke-opacity:1;stroke-miterlimit:10;" d="M 222.402344 316.460938 C 222.402344 320.058594 217 320.058594 217 316.460938 C 217 312.859375 222.402344 312.859375 222.402344 316.460938 "/>
<path style="fill-rule:nonzero;fill:rgb(100%,49.803922%,31.372549%);fill-opacity:1;stroke-width:0.75;stroke-linecap:round;stroke-linejoin:round;stroke:rgb(100%,49.803922%,31.372549%);stroke-opacity:1;stroke-miterlimit:10;" d="M 109.589844 106.273438 C 109.589844 109.875 104.191406 109.875 104.191406 106.273438 C 104.191406 102.675781 109.589844 102.675781 109.589844 106.273438 "/>
<path style="fill-rule:nonzero;fill:rgb(100%,49.803922%,31.372549%);fill-opacity:1;stroke-width:0.75;stroke-linecap:round;stroke-linejoin:round;stroke:rgb(100%,49.803922%,31.372549%);stroke-opacity:1;stroke-miterlimit:10;" d="M 280.839844 115.839844 C 280.839844 119.441406 275.4375 119.441406 275.4375 115.839844 C 275.4375 112.242188 280.839844 112.242188 280.839844 115.839844 "/>
<path style="fill-rule:nonzero;fill:rgb(100%,49.803922%,31.372549%);fill-opacity:1;stroke-width:0.75;stroke-linecap:round;stroke-linejoin:round;stroke:rgb(100%,49.803922%,31.372549%);stroke-opacity:1;stroke-miterlimit:10;" d="M 245.441406 74.871094 C 245.441406 78.472656 240.039062 78.472656 240.039062 74.871094 C 240.039062 71.273438 245.441406 71.273438 245.441406 74.871094 "/>
<path style="fill-rule:nonzero;fill:rgb(100%,49.803922%,31.372549%);fill-opacity:1;stroke-width:0.75;stroke-linecap:round;stroke-linejoin:round;stroke:rgb(100%,49.803922%,31.372549%);stroke-opacity:1;stroke-miterlimit:10;" d="M 198.796875 316.273438 C 198.796875 319.871094 193.398438 319.871094 193.398438 316.273438 C 193.398438 312.671875 198.796875 312.671875 198.796875 316.273438 "/>
<path style="fill-rule:nonzero;fill:rgb(100%,49.803922%,31.372549%);fill-opacity:1;stroke-width:0.75;stroke-linecap:round;stroke-linejoin:round;stroke:rgb(100%,49.803922%,31.372549%);stroke-opacity:1;stroke-miterlimit:10;" d="M 171.789062 64.816406 C 171.789062 68.417969 166.390625 68.417969 166.390625 64.816406 C 166.390625 61.21875 171.789062 61.21875 171.789062 64.816406 "/>
<path style="fill-rule:nonzero;fill:rgb(100%,49.803922%,31.372549%);fill-opacity:1;stroke-width:0.75;stroke-linecap:round;stroke-linejoin:round;stroke:rgb(100%,49.803922%,31.372549%);stroke-opacity:1;stroke-miterlimit:10;" d="M 306.074219 187.546875 C 306.074219 191.148438 300.671875 191.148438 300.671875 187.546875 C 300.671875 183.949219 306.074219 183.949219 306.074219 187.546875 "/>
<path style="fill-rule:nonzero;fill:rgb(100%,49.803922%,31.372549%);fill-opacity:1;stroke-width:0.75;stroke-linecap:round;stroke-linejoin:round;stroke:rgb(100%,49.803922%,31.372549%);stroke-opacity:1;stroke-miterlimit:10;" d="M 259.273438 286.191406 C 259.273438 289.789062 253.871094 289.789062 253.871094 286.191406 C 253.871094 282.589844 259.273438 282.589844 259.273438 286.191406 "/>
<path style="fill-rule:nonzero;fill:rgb(100%,49.803922%,31.372549%);fill-opacity:1;stroke-width:0.75;stroke-linecap:round;stroke-linejoin:round;stroke:rgb(100%,49.803922%,31.372549%);stroke-opacity:1;stroke-miterlimit:10;" d="M 112.144531 137.660156 C 112.144531 141.261719 106.742188 141.261719 106.742188 137.660156 C 106.742188 134.0625 112.144531 134.0625 112.144531 137.660156 "/>
<path style="fill-rule:nonzero;fill:rgb(100%,49.803922%,31.372549%);fill-opacity:1;stroke-width:0.75;stroke-linecap:round;stroke-linejoin:round;stroke:rgb(100%,49.803922%,31.372549%);stroke-opacity:1;stroke-miterlimit:10;" d="M 305.375 219.398438 C 305.375 223 299.976562 223 299.976562 219.398438 C 299.976562 215.800781 305.375 215.800781 305.375 219.398438 "/>
<path style="fill-rule:nonzero;fill:rgb(100%,49.803922%,31.372549%);fill-opacity:1;stroke-width:0.75;stroke-linecap:round;stroke-linejoin:round;stroke:rgb(100%,49.803922%,31.372549%);stroke-opacity:1;stroke-miterlimit:10;" d="M 94.582031 136.34375 C 94.582031 139.941406 89.183594 139.941406 89.183594 136.34375 C 89.183594 132.742188 94.582031 132.742188 94.582031 136.34375 "/>
<path style="fill-rule:nonzero;fill:rgb(100%,49.803922%,31.372549%);fill-opacity:1;stroke-width:0.75;stroke-linecap:round;stroke-linejoin:round;stroke:rgb(100%,49.803922%,31.372549%);stroke-opacity:1;stroke-miterlimit:10;" d="M 299.144531 228.304688 C 299.144531 231.902344 293.746094 231.902344 293.746094 228.304688 C 293.746094 224.703125 299.144531 224.703125 299.144531 228.304688 "/>
<path style="fill-rule:nonzero;fill:rgb(100%,49.803922%,31.372549%);fill-opacity:1;stroke-width:0.75;stroke-linecap:round;stroke-linejoin:round;stroke:rgb(100%,49.803922%,31.372549%);stroke-opacity:1;stroke-miterlimit:10;" d="M 223.914062 311.300781 C 223.914062 314.902344 218.515625 314.902344 218.515625 311.300781 C 218.515625 307.699219 223.914062 307.699219 223.914062 311.300781 "/>
<path style="fill-rule:nonzero;fill:rgb(100%,49.803922%,31.372549%);fill-opacity:1;stroke-width:0.75;stroke-linecap:round;stroke-linejoin:round;stroke:rgb(100%,49.803922%,31.372549%);stroke-opacity:1;stroke-miterlimit:10;" d="M 187 70.125 C 187 73.726562 181.601562 73.726562 181.601562 70.125 C 181.601562 66.527344 187 66.527344 187 70.125 "/>
<path style="fill-rule:nonzero;fill:rgb(100%,49.803922%,31.372549%);fill-opacity:1;stroke-width:0.75;stroke-linecap:round;stroke-linejoin:round;stroke:rgb(100%,49.803922%,31.372549%);stroke-opacity:1;stroke-miterlimit:10;" d="M 80.070312 185.136719 C 80.070312 188.738281 74.671875 188.738281 74.671875 185.136719 C 74.671875 181.539062 80.070312 181.539062 80.070312 185.136719 "/>
<path style="fill-rule:nonzero;fill:rgb(100%,49.803922%,31.372549%);fill-opacity:1;stroke-width:0.75;stroke-linecap:round;stroke-linejoin:round;stroke:rgb(100%,49.803922%,31.372549%);stroke-opacity:1;stroke-miterlimit:10;" d="M 260.667969 281.203125 C 260.667969 284.804688 255.269531 284.804688 255.269531 281.203125 C 255.269531 277.605469 260.667969 277.605469 260.667969 281.203125 "/>
<path style="fill-rule:nonzero;fill:rgb(100%,49.803922%,31.372549%);fill-opacity:1;stroke-width:0.75;stroke-linecap:round;stroke-linejoin:round;stroke:rgb(100%,49.803922%,31.372549%);stroke-opacity:1;stroke-miterlimit:10;" d="M 220.347656 71.597656 C 220.347656 75.199219 214.945312 75.199219 214.945312 71.597656 C 214.945312 68 220.347656 68 220.347656 71.597656 "/>
<path style="fill-rule:nonzero;fill:rgb(100%,49.803922%,31.372549%);fill-opacity:1;stroke-width:0.75;stroke-linecap:round;stroke-linejoin:round;stroke:rgb(100%,49.803922%,31.372549%);stroke-opacity:1;stroke-miterlimit:10;" d="M 289.296875 114.597656 C 289.296875 118.199219 283.894531 118.199219 283.894531 114.597656 C 283.894531 111 289.296875 111 289.296875 114.597656 "/>
<path style="fill-rule:nonzero;fill:rgb(100%,49.803922%,31.372549%);fill-opacity:1;stroke-width:0.75;stroke-linecap:round;stroke-linejoin:round;stroke:rgb(100%,49.803922%,31.372549%);stroke-opacity:1;stroke-miterlimit:10;" d="M 288.753906 124.960938 C 288.753906 128.5625 283.355469 128.5625 283.355469 124.960938 C 283.355469 121.359375 288.753906 121.359375 288.753906 124.960938 "/>
<path style="fill-rule:nonzero;fill:rgb(100%,49.803922%,31.372549%);fill-opacity:1;stroke-width:0.75;stroke-linecap:round;stroke-linejoin:round;stroke:rgb(100%,49.803922%,31.372549%);stroke-opacity:1;stroke-miterlimit:10;" d="M 227.238281 59.402344 C 227.238281 63 221.835938 63 221.835938 59.402344 C 221.835938 55.800781 227.238281 55.800781 227.238281 59.402344 "/>
<path style="fill-rule:nonzero;fill:rgb(100%,49.803922%,31.372549%);fill-opacity:1;stroke-width:0.75;stroke-linecap:round;stroke-linejoin:round;stroke:rgb(100%,49.803922%,31.372549%);stroke-opacity:1;stroke-miterlimit:10;" d="M 95.546875 219.929688 C 95.546875 223.53125 90.144531 223.53125 90.144531 219.929688 C 90.144531 216.332031 95.546875 216.332031 95.546875 219.929688 "/>
<path style="fill-rule:nonzero;fill:rgb(100%,49.803922%,31.372549%);fill-opacity:1;stroke-width:0.75;stroke-linecap:round;stroke-linejoin:round;stroke:rgb(100%,49.803922%,31.372549%);stroke-opacity:1;stroke-miterlimit:10;" d="M 111.550781 274.960938 C 111.550781 278.5625 106.152344 278.5625 106.152344 274.960938 C 106.152344 271.359375 111.550781 271.359375 111.550781 274.960938 "/>
<path style="fill-rule:nonzero;fill:rgb(100%,49.803922%,31.372549%);fill-opacity:1;stroke-width:0.75;stroke-linecap:round;stroke-linejoin:round;stroke:rgb(100%,49.803922%,31.372549%);stroke-opacity:1;stroke-miterlimit:10;" d="M 143.402344 84.476562 C 143.402344 88.078125 138 88.078125 138 84.476562 C 138 80.878906 143.402344 80.878906 143.402344 84.476562 "/>
<path style="fill-rule:nonzero;fill:rgb(100%,49.803922%,31.372549%);fill-opacity:1;stroke-width:0.75;stroke-linecap:round;stroke-linejoin:round;stroke:rgb(100%,49.803922%,31.372549%);stroke-opacity:1;stroke-miterlimit:10;" d="M 296.75 210.914062 C 296.75 214.515625 291.351562 214.515625 291.351562 210.914062 C 291.351562 207.316406 296.75 207.316406 296.75 210.914062 "/>
<path style="fill-rule:nonzero;fill:rgb(100%,49.803922%,31.372549%);fill-opacity:1;stroke-width:0.75;stroke-linecap:round;stroke-linejoin:round;stroke:rgb(100%,49.803922%,31.372549%);stroke-opacity:1;stroke-miterlimit:10;" d="M 136.761719 298.601562 C 136.761719 302.203125 131.363281 302.203125 131.363281 298.601562 C 131.363281 295 136.761719 295 136.761719 298.601562 "/>
<path style="fill-rule:nonzero;fill:rgb(100%,49.803922%,31.372549%);fill-opacity:1;stroke-width:0.75;stroke-linecap:round;stroke-linejoin:round;stroke:rgb(100%,49.803922%,31.372549%);stroke-opacity:1;stroke-miterlimit:10;" d="M 95.21875 203.738281 C 95.21875 207.339844 89.820312 207.339844 89.820312 203.738281 C 89.820312 200.140625 95.21875 200.140625 95.21875 203.738281 "/>
<path style="fill-rule:nonzero;fill:rgb(100%,49.803922%,31.372549%);fill-opacity:1;stroke-width:0.75;stroke-linecap:round;stroke-linejoin:round;stroke:rgb(100%,49.803922%,31.372549%);stroke-opacity:1;stroke-miterlimit:10;" d="M 109.1875 278.566406 C 109.1875 282.167969 103.785156 282.167969 103.785156 278.566406 C 103.785156 274.96875 109.1875 274.96875 109.1875 278.566406 "/>
<path style="fill-rule:nonzero;fill:rgb(100%,49.803922%,31.372549%);fill-opacity:1;stroke-width:0.75;stroke-linecap:round;stroke-linejoin:round;stroke:rgb(100%,49.803922%,31.372549%);stroke-opacity:1;stroke-miterlimit:10;" d="M 262.554688 286.796875 C 262.554688 290.394531 257.152344 290.394531 257.152344 286.796875 C 257.152344 283.195312 262.554688 283.195312 262.554688 286.796875 "/>
<path style="fill-rule:nonzero;fill:rgb(100%,49.803922%,31.372549%);fill-opacity:1;stroke-width:0.75;stroke-linecap:round;stroke-linejoin:round;stroke:rgb(100%,49.803922%,31.372549%);stroke-opacity:1;stroke-miterlimit:10;" d="M 271.191406 265.332031 C 271.191406 268.929688 265.792969 268.929688 265.792969 265.332031 C 265.792969 261.730469 271.191406 261.730469 271.191406 265.332031 "/>
<path style="fill-rule:nonzero;fill:rgb(100%,49.803922%,31.372549%);fill-opacity:1;stroke-width:0.75;stroke-linecap:round;stroke-linejoin:round;stroke:rgb(100%,49.803922%,31.372549%);stroke-opacity:1;stroke-miterlimit:10;" d="M 90 172.027344 C 90 175.628906 84.597656 175.628906 84.597656 172.027344 C 84.597656 168.429688 90 168.429688 90 172.027344 "/>
<path style="fill-rule:nonzero;fill:rgb(100%,49.803922%,31.372549%);fill-opacity:1;stroke-width:0.75;stroke-linecap:round;stroke-linejoin:round;stroke:rgb(100%,49.803922%,31.372549%);stroke-opacity:1;stroke-miterlimit:10;" d="M 180.390625 305.496094 C 180.390625 309.097656 174.992188 309.097656 174.992188 305.496094 C 174.992188 301.894531 180.390625 301.894531 180.390625 305.496094 "/>
<path style="fill-rule:nonzero;fill:rgb(100%,49.803922%,31.372549%);fill-opacity:1;stroke-width:0.75;stroke-linecap:round;stroke-linejoin:round;stroke:rgb(100%,49.803922%,31.372549%);stroke-opacity:1;stroke-miterlimit:10;" d="M 88.84375 190.210938 C 88.84375 193.808594 83.445312 193.808594 83.445312 190.210938 C 83.445312 186.609375 88.84375 186.609375 88.84375 190.210938 "/>
<path style="fill-rule:nonzero;fill:rgb(100%,49.803922%,31.372549%);fill-opacity:1;stroke-width:0.75;stroke-linecap:round;stroke-linejoin:round;stroke:rgb(100%,49.803922%,31.372549%);stroke-opacity:1;stroke-miterlimit:10;" d="M 277.515625 278.003906 C 277.515625 281.605469 272.113281 281.605469 272.113281 278.003906 C 272.113281 274.402344 277.515625 274.402344 277.515625 278.003906 "/>
<path style="fill-rule:nonzero;fill:rgb(100%,49.803922%,31.372549%);fill-opacity:1;stroke-width:0.75;stroke-linecap:round;stroke-linejoin:round;stroke:rgb(100%,49.803922%,31.372549%);stroke-opacity:1;stroke-miterlimit:10;" d="M 132.191406 295.304688 C 132.191406 298.902344 126.792969 298.902344 126.792969 295.304688 C 126.792969 291.703125 132.191406 291.703125 132.191406 295.304688 "/>
<path style="fill-rule:nonzero;fill:rgb(100%,49.803922%,31.372549%);fill-opacity:1;stroke-width:0.75;stroke-linecap:round;stroke-linejoin:round;stroke:rgb(100%,49.803922%,31.372549%);stroke-opacity:1;stroke-miterlimit:10;" d="M 96.152344 206.886719 C 96.152344 210.488281 90.75 210.488281 90.75 206.886719 C 90.75 203.285156 96.152344 203.285156 96.152344 206.886719 "/>
<path style="fill-rule:nonzero;fill:rgb(100%,49.803922%,31.372549%);fill-opacity:1;stroke-width:0.75;stroke-linecap:round;stroke-linejoin:round;stroke:rgb(100%,49.803922%,31.372549%);stroke-opacity:1;stroke-miterlimit:10;" d="M 292.199219 221.167969 C 292.199219 224.765625 286.800781 224.765625 286.800781 221.167969 C 286.800781 217.566406 292.199219 217.566406 292.199219 221.167969 "/>
<path style="fill-rule:nonzero;fill:rgb(100%,49.803922%,31.372549%);fill-opacity:1;stroke-width:0.75;stroke-linecap:round;stroke-linejoin:round;stroke:rgb(100%,49.803922%,31.372549%);stroke-opacity:1;stroke-miterlimit:10;" d="M 214.296875 310.566406 C 214.296875 314.167969 208.898438 314.167969 208.898438 310.566406 C 208.898438 306.964844 214.296875 306.964844 214.296875 310.566406 "/>
<path style="fill-rule:nonzero;fill:rgb(100%,49.803922%,31.372549%);fill-opacity:1;stroke-width:0.75;stroke-linecap:round;stroke-linejoin:round;stroke:rgb(100%,49.803922%,31.372549%);stroke-opacity:1;stroke-miterlimit:10;" d="M 230.457031 57.539062 C 230.457031 61.140625 225.058594 61.140625 225.058594 57.539062 C 225.058594 53.941406 230.457031 53.941406 230.457031 57.539062 "/>
<path style="fill-rule:nonzero;fill:rgb(100%,49.803922%,31.372549%);fill-opacity:1;stroke-width:0.75;stroke-linecap:round;stroke-linejoin:round;stroke:rgb(100%,49.803922%,31.372549%);stroke-opacity:1;stroke-miterlimit:10;" d="M 110.929688 129.335938 C 110.929688 132.9375 105.53125 132.9375 105.53125 129.335938 C 105.53125 125.738281 110.929688 125.738281 110.929688 129.335938 "/>
<path style="fill-rule:nonzero;fill:rgb(100%,49.803922%,31.372549%);fill-opacity:1;stroke-width:0.75;stroke-linecap:round;stroke-linejoin:round;stroke:rgb(100%,49.803922%,31.372549%);stroke-opacity:1;stroke-miterlimit:10;" d="M 110.808594 111.675781 C 110.808594 115.277344 105.410156 115.277344 105.410156 111.675781 C 105.410156 108.078125 110.808594 108.078125 110.808594 111.675781 "/>
<path style="fill-rule:nonzero;fill:rgb(100%,49.803922%,31.372549%);fill-opacity:1;stroke-width:0.75;stroke-linecap:round;stroke-linejoin:round;stroke:rgb(100%,49.803922%,31.372549%);stroke-opacity:1;stroke-miterlimit:10;" d="M 97.921875 138.757812 C 97.921875 142.355469 92.523438 142.355469 92.523438 138.757812 C 92.523438 135.15625 97.921875 135.15625 97.921875 138.757812 "/>
<path style="fill-rule:nonzero;fill:rgb(100%,49.803922%,31.372549%);fill-opacity:1;stroke-width:0.75;stroke-linecap:round;stroke-linejoin:round;stroke:rgb(100%,49.803922%,31.372549%);stroke-opacity:1;stroke-miterlimit:10;" d="M 116.566406 276.820312 C 116.566406 280.421875 111.167969 280.421875 111.167969 276.820312 C 111.167969 273.21875 116.566406 273.21875 116.566406 276.820312 "/>
<path style="fill-rule:nonzero;fill:rgb(100%,49.803922%,31.372549%);fill-opacity:1;stroke-width:0.75;stroke-linecap:round;stroke-linejoin:round;stroke:rgb(100%,49.803922%,31.372549%);stroke-opacity:1;stroke-miterlimit:10;" d="M 94.121094 211.511719 C 94.121094 215.109375 88.71875 215.109375 88.71875 211.511719 C 88.71875 207.910156 94.121094 207.910156 94.121094 211.511719 "/>
<path style="fill-rule:nonzero;fill:rgb(100%,49.803922%,31.372549%);fill-opacity:1;stroke-width:0.75;stroke-linecap:round;stroke-linejoin:round;stroke:rgb(100%,49.803922%,31.372549%);stroke-opacity:1;stroke-miterlimit:10;" d="M 96.507812 214.289062 C 96.507812 217.890625 91.109375 217.890625 91.109375 214.289062 C 91.109375 210.691406 96.507812 210.691406 96.507812 214.289062 "/>
<path style="fill-rule:nonzero;fill:rgb(11.764706%,56.470588%,100%);fill-opacity:1;stroke-width:0.75;stroke-linecap:round;stroke-linejoin:round;stroke:rgb(11.764706%,56.470588%,100%);stroke-opacity:1;stroke-miterlimit:10;" d="M 262.488281 114.574219 C 262.488281 118.171875 257.089844 118.171875 257.089844 114.574219 C 257.089844 110.972656 262.488281 110.972656 262.488281 114.574219 "/>
<path style="fill-rule:nonzero;fill:rgb(11.764706%,56.470588%,100%);fill-opacity:1;stroke-width:0.75;stroke-linecap:round;stroke-linejoin:round;stroke:rgb(11.764706%,56.470588%,100%);stroke-opacity:1;stroke-miterlimit:10;" d="M 317.242188 95.976562 C 317.242188 99.578125 311.839844 99.578125 311.839844 95.976562 C 311.839844 92.378906 317.242188 92.378906 317.242188 95.976562 "/>
<path style="fill-rule:nonzero;fill:rgb(11.764706%,56.470588%,100%);fill-opacity:1;stroke-width:0.75;stroke-linecap:round;stroke-linejoin:round;stroke:rgb(11.764706%,56.470588%,100%);stroke-opacity:1;stroke-miterlimit:10;" d="M 283.109375 131.824219 C 283.109375 135.425781 277.710938 135.425781 277.710938 131.824219 C 277.710938 128.222656 283.109375 128.222656 283.109375 131.824219 "/>
<path style="fill-rule:nonzero;fill:rgb(11.764706%,56.470588%,100%);fill-opacity:1;stroke-width:0.75;stroke-linecap:round;stroke-linejoin:round;stroke:rgb(11.764706%,56.470588%,100%);stroke-opacity:1;stroke-miterlimit:10;" d="M 123.429688 167.714844 C 123.429688 171.316406 118.027344 171.316406 118.027344 167.714844 C 118.027344 164.117188 123.429688 164.117188 123.429688 167.714844 "/>
<path style="fill-rule:nonzero;fill:rgb(11.764706%,56.470588%,100%);fill-opacity:1;stroke-width:0.75;stroke-linecap:round;stroke-linejoin:round;stroke:rgb(11.764706%,56.470588%,100%);stroke-opacity:1;stroke-miterlimit:10;" d="M 107.066406 72.132812 C 107.066406 75.730469 101.667969 75.730469 101.667969 72.132812 C 101.667969 68.53125 107.066406 68.53125 107.066406 72.132812 "/>
<path style="fill-rule:nonzero;fill:rgb(11.764706%,56.470588%,100%);fill-opacity:1;stroke-width:0.75;stroke-linecap:round;stroke-linejoin:round;stroke:rgb(11.764706%,56.470588%,100%);stroke-opacity:1;stroke-miterlimit:10;" d="M 179.472656 304.097656 C 179.472656 307.699219 174.074219 307.699219 174.074219 304.097656 C 174.074219 300.496094 179.472656 300.496094 179.472656 304.097656 "/>
<path style="fill-rule:nonzero;fill:rgb(11.764706%,56.470588%,100%);fill-opacity:1;stroke-width:0.75;stroke-linecap:round;stroke-linejoin:round;stroke:rgb(11.764706%,56.470588%,100%);stroke-opacity:1;stroke-miterlimit:10;" d="M 337.566406 138.851562 C 337.566406 142.449219 332.167969 142.449219 332.167969 138.851562 C 332.167969 135.25 337.566406 135.25 337.566406 138.851562 "/>
<path style="fill-rule:nonzero;fill:rgb(11.764706%,56.470588%,100%);fill-opacity:1;stroke-width:0.75;stroke-linecap:round;stroke-linejoin:round;stroke:rgb(11.764706%,56.470588%,100%);stroke-opacity:1;stroke-miterlimit:10;" d="M 97.453125 163.355469 C 97.453125 166.953125 92.050781 166.953125 92.050781 163.355469 C 92.050781 159.753906 97.453125 159.753906 97.453125 163.355469 "/>
<path style="fill-rule:nonzero;fill:rgb(11.764706%,56.470588%,100%);fill-opacity:1;stroke-width:0.75;stroke-linecap:round;stroke-linejoin:round;stroke:rgb(11.764706%,56.470588%,100%);stroke-opacity:1;stroke-miterlimit:10;" d="M 122.316406 197.542969 C 122.316406 201.144531 116.914062 201.144531 116.914062 197.542969 C 116.914062 193.945312 122.316406 193.945312 122.316406 197.542969 "/>
<path style="fill-rule:nonzero;fill:rgb(11.764706%,56.470588%,100%);fill-opacity:1;stroke-width:0.75;stroke-linecap:round;stroke-linejoin:round;stroke:rgb(11.764706%,56.470588%,100%);stroke-opacity:1;stroke-miterlimit:10;" d="M 60.695312 227.207031 C 60.695312 230.808594 55.292969 230.808594 55.292969 227.207031 C 55.292969 223.609375 60.695312 223.609375 60.695312 227.207031 "/>
<path style="fill-rule:nonzero;fill:rgb(11.764706%,56.470588%,100%);fill-opacity:1;stroke-width:0.75;stroke-linecap:round;stroke-linejoin:round;stroke:rgb(11.764706%,56.470588%,100%);stroke-opacity:1;stroke-miterlimit:10;" d="M 237.707031 302.328125 C 237.707031 305.929688 232.308594 305.929688 232.308594 302.328125 C 232.308594 298.730469 237.707031 298.730469 237.707031 302.328125 "/>
<path style="fill-rule:nonzero;fill:rgb(11.764706%,56.470588%,100%);fill-opacity:1;stroke-width:0.75;stroke-linecap:round;stroke-linejoin:round;stroke:rgb(11.764706%,56.470588%,100%);stroke-opacity:1;stroke-miterlimit:10;" d="M 289.375 90.605469 C 289.375 94.207031 283.976562 94.207031 283.976562 90.605469 C 283.976562 87.007812 289.375 87.007812 289.375 90.605469 "/>
<path style="fill-rule:nonzero;fill:rgb(11.764706%,56.470588%,100%);fill-opacity:1;stroke-width:0.75;stroke-linecap:round;stroke-linejoin:round;stroke:rgb(11.764706%,56.470588%,100%);stroke-opacity:1;stroke-miterlimit:10;" d="M 293.558594 79.507812 C 293.558594 83.109375 288.15625 83.109375 288.15625 79.507812 C 288.15625 75.910156 293.558594 75.910156 293.558594 79.507812 "/>
<path style="fill-rule:nonzero;fill:rgb(11.764706%,56.470588%,100%);fill-opacity:1;stroke-width:0.75;stroke-linecap:round;stroke-linejoin:round;stroke:rgb(11.764706%,56.470588%,100%);stroke-opacity:1;stroke-miterlimit:10;" d="M 183.238281 52.671875 C 183.238281 56.269531 177.839844 56.269531 177.839844 52.671875 C 177.839844 49.070312 183.238281 49.070312 183.238281 52.671875 "/>
<path style="fill-rule:nonzero;fill:rgb(11.764706%,56.470588%,100%);fill-opacity:1;stroke-width:0.75;stroke-linecap:round;stroke-linejoin:round;stroke:rgb(11.764706%,56.470588%,100%);stroke-opacity:1;stroke-miterlimit:10;" d="M 103.632812 231.042969 C 103.632812 234.640625 98.230469 234.640625 98.230469 231.042969 C 98.230469 227.441406 103.632812 227.441406 103.632812 231.042969 "/>
<path style="fill-rule:nonzero;fill:rgb(11.764706%,56.470588%,100%);fill-opacity:1;stroke-width:0.75;stroke-linecap:round;stroke-linejoin:round;stroke:rgb(11.764706%,56.470588%,100%);stroke-opacity:1;stroke-miterlimit:10;" d="M 215.816406 112.480469 C 215.816406 116.078125 210.417969 116.078125 210.417969 112.480469 C 210.417969 108.878906 215.816406 108.878906 215.816406 112.480469 "/>
<path style="fill-rule:nonzero;fill:rgb(11.764706%,56.470588%,100%);fill-opacity:1;stroke-width:0.75;stroke-linecap:round;stroke-linejoin:round;stroke:rgb(11.764706%,56.470588%,100%);stroke-opacity:1;stroke-miterlimit:10;" d="M 331.804688 132.566406 C 331.804688 136.167969 326.40625 136.167969 326.40625 132.566406 C 326.40625 128.96875 331.804688 128.96875 331.804688 132.566406 "/>
<path style="fill-rule:nonzero;fill:rgb(11.764706%,56.470588%,100%);fill-opacity:1;stroke-width:0.75;stroke-linecap:round;stroke-linejoin:round;stroke:rgb(11.764706%,56.470588%,100%);stroke-opacity:1;stroke-miterlimit:10;" d="M 136.445312 238.910156 C 136.445312 242.507812 131.042969 242.507812 131.042969 238.910156 C 131.042969 235.308594 136.445312 235.308594 136.445312 238.910156 "/>
<path style="fill-rule:nonzero;fill:rgb(11.764706%,56.470588%,100%);fill-opacity:1;stroke-width:0.75;stroke-linecap:round;stroke-linejoin:round;stroke:rgb(11.764706%,56.470588%,100%);stroke-opacity:1;stroke-miterlimit:10;" d="M 217.609375 308.011719 C 217.609375 311.609375 212.207031 311.609375 212.207031 308.011719 C 212.207031 304.410156 217.609375 304.410156 217.609375 308.011719 "/>
<path style="fill-rule:nonzero;fill:rgb(11.764706%,56.470588%,100%);fill-opacity:1;stroke-width:0.75;stroke-linecap:round;stroke-linejoin:round;stroke:rgb(11.764706%,56.470588%,100%);stroke-opacity:1;stroke-miterlimit:10;" d="M 170.484375 90.796875 C 170.484375 94.398438 165.085938 94.398438 165.085938 90.796875 C 165.085938 87.199219 170.484375 87.199219 170.484375 90.796875 "/>
<path style="fill-rule:nonzero;fill:rgb(11.764706%,56.470588%,100%);fill-opacity:1;stroke-width:0.75;stroke-linecap:round;stroke-linejoin:round;stroke:rgb(11.764706%,56.470588%,100%);stroke-opacity:1;stroke-miterlimit:10;" d="M 150.964844 70.132812 C 150.964844 73.734375 145.5625 73.734375 145.5625 70.132812 C 145.5625 66.535156 150.964844 66.535156 150.964844 70.132812 "/>
<path style="fill-rule:nonzero;fill:rgb(11.764706%,56.470588%,100%);fill-opacity:1;stroke-width:0.75;stroke-linecap:round;stroke-linejoin:round;stroke:rgb(11.764706%,56.470588%,100%);stroke-opacity:1;stroke-miterlimit:10;" d="M 163.878906 81.945312 C 163.878906 85.546875 158.480469 85.546875 158.480469 81.945312 C 158.480469 78.347656 163.878906 78.347656 163.878906 81.945312 "/>
<path style="fill-rule:nonzero;fill:rgb(11.764706%,56.470588%,100%);fill-opacity:1;stroke-width:0.75;stroke-linecap:round;stroke-linejoin:round;stroke:rgb(11.764706%,56.470588%,100%);stroke-opacity:1;stroke-miterlimit:10;" d="M 364.632812 261.421875 C 364.632812 265.019531 359.230469 265.019531 359.230469 261.421875 C 359.230469 257.820312 364.632812 257.820312 364.632812 261.421875 "/>
<path style="fill-rule:nonzero;fill:rgb(11.764706%,56.470588%,100%);fill-opacity:1;stroke-width:0.75;stroke-linecap:round;stroke-linejoin:round;stroke:rgb(11.764706%,56.470588%,100%);stroke-opacity:1;stroke-miterlimit:10;" d="M 268.277344 319.992188 C 268.277344 323.59375 262.878906 323.59375 262.878906 319.992188 C 262.878906 316.394531 268.277344 316.394531 268.277344 319.992188 "/>
<path style="fill-rule:nonzero;fill:rgb(11.764706%,56.470588%,100%);fill-opacity:1;stroke-width:0.75;stroke-linecap:round;stroke-linejoin:round;stroke:rgb(11.764706%,56.470588%,100%);stroke-opacity:1;stroke-miterlimit:10;" d="M 76.464844 203.664062 C 76.464844 207.265625 71.066406 207.265625 71.066406 203.664062 C 71.066406 200.066406 76.464844 200.066406 76.464844 203.664062 "/>
<path style="fill-rule:nonzero;fill:rgb(11.764706%,56.470588%,100%);fill-opacity:1;stroke-width:0.75;stroke-linecap:round;stroke-linejoin:round;stroke:rgb(11.764706%,56.470588%,100%);stroke-opacity:1;stroke-miterlimit:10;" d="M 111.953125 222.933594 C 111.953125 226.53125 106.550781 226.53125 106.550781 222.933594 C 106.550781 219.332031 111.953125 219.332031 111.953125 222.933594 "/>
<path style="fill-rule:nonzero;fill:rgb(11.764706%,56.470588%,100%);fill-opacity:1;stroke-width:0.75;stroke-linecap:round;stroke-linejoin:round;stroke:rgb(11.764706%,56.470588%,100%);stroke-opacity:1;stroke-miterlimit:10;" d="M 323.667969 190.296875 C 323.667969 193.898438 318.269531 193.898438 318.269531 190.296875 C 318.269531 186.699219 323.667969 186.699219 323.667969 190.296875 "/>
<path style="fill-rule:nonzero;fill:rgb(11.764706%,56.470588%,100%);fill-opacity:1;stroke-width:0.75;stroke-linecap:round;stroke-linejoin:round;stroke:rgb(11.764706%,56.470588%,100%);stroke-opacity:1;stroke-miterlimit:10;" d="M 310.035156 190.3125 C 310.035156 193.910156 304.632812 193.910156 304.632812 190.3125 C 304.632812 186.710938 310.035156 186.710938 310.035156 190.3125 "/>
<path style="fill-rule:nonzero;fill:rgb(11.764706%,56.470588%,100%);fill-opacity:1;stroke-width:0.75;stroke-linecap:round;stroke-linejoin:round;stroke:rgb(11.764706%,56.470588%,100%);stroke-opacity:1;stroke-miterlimit:10;" d="M 43.613281 254.757812 C 43.613281 258.359375 38.210938 258.359375 38.210938 254.757812 C 38.210938 251.160156 43.613281 251.160156 43.613281 254.757812 "/>
<path style="fill-rule:nonzero;fill:rgb(11.764706%,56.470588%,100%);fill-opacity:1;stroke-width:0.75;stroke-linecap:round;stroke-linejoin:round;stroke:rgb(11.764706%,56.470588%,100%);stroke-opacity:1;stroke-miterlimit:10;" d="M 303.605469 129.894531 C 303.605469 133.496094 298.203125 133.496094 298.203125 129.894531 C 298.203125 126.292969 303.605469 126.292969 303.605469 129.894531 "/>
<path style="fill-rule:nonzero;fill:rgb(11.764706%,56.470588%,100%);fill-opacity:1;stroke-width:0.75;stroke-linecap:round;stroke-linejoin:round;stroke:rgb(11.764706%,56.470588%,100%);stroke-opacity:1;stroke-miterlimit:10;" d="M 101.722656 106.679688 C 101.722656 110.277344 96.324219 110.277344 96.324219 106.679688 C 96.324219 103.078125 101.722656 103.078125 101.722656 106.679688 "/>
<path style="fill-rule:nonzero;fill:rgb(11.764706%,56.470588%,100%);fill-opacity:1;stroke-width:0.75;stroke-linecap:round;stroke-linejoin:round;stroke:rgb(11.764706%,56.470588%,100%);stroke-opacity:1;stroke-miterlimit:10;" d="M 291.679688 244.875 C 291.679688 248.476562 286.28125 248.476562 286.28125 244.875 C 286.28125 241.277344 291.679688 241.277344 291.679688 244.875 "/>
<path style="fill-rule:nonzero;fill:rgb(11.764706%,56.470588%,100%);fill-opacity:1;stroke-width:0.75;stroke-linecap:round;stroke-linejoin:round;stroke:rgb(11.764706%,56.470588%,100%);stroke-opacity:1;stroke-miterlimit:10;" d="M 274.320312 296.195312 C 274.320312 299.792969 268.917969 299.792969 268.917969 296.195312 C 268.917969 292.59375 274.320312 292.59375 274.320312 296.195312 "/>
<path style="fill-rule:nonzero;fill:rgb(11.764706%,56.470588%,100%);fill-opacity:1;stroke-width:0.75;stroke-linecap:round;stroke-linejoin:round;stroke:rgb(11.764706%,56.470588%,100%);stroke-opacity:1;stroke-miterlimit:10;" d="M 109.921875 219.097656 C 109.921875 222.699219 104.519531 222.699219 104.519531 219.097656 C 104.519531 215.496094 109.921875 215.496094 109.921875 219.097656 "/>
<path style="fill-rule:nonzero;fill:rgb(11.764706%,56.470588%,100%);fill-opacity:1;stroke-width:0.75;stroke-linecap:round;stroke-linejoin:round;stroke:rgb(11.764706%,56.470588%,100%);stroke-opacity:1;stroke-miterlimit:10;" d="M 206.195312 336.347656 C 206.195312 339.949219 200.792969 339.949219 200.792969 336.347656 C 200.792969 332.75 206.195312 332.75 206.195312 336.347656 "/>
<path style="fill-rule:nonzero;fill:rgb(11.764706%,56.470588%,100%);fill-opacity:1;stroke-width:0.75;stroke-linecap:round;stroke-linejoin:round;stroke:rgb(11.764706%,56.470588%,100%);stroke-opacity:1;stroke-miterlimit:10;" d="M 288.378906 93.992188 C 288.378906 97.589844 282.980469 97.589844 282.980469 93.992188 C 282.980469 90.390625 288.378906 90.390625 288.378906 93.992188 "/>
<path style="fill-rule:nonzero;fill:rgb(11.764706%,56.470588%,100%);fill-opacity:1;stroke-width:0.75;stroke-linecap:round;stroke-linejoin:round;stroke:rgb(11.764706%,56.470588%,100%);stroke-opacity:1;stroke-miterlimit:10;" d="M 148.085938 27.421875 C 148.085938 31.023438 142.6875 31.023438 142.6875 27.421875 C 142.6875 23.824219 148.085938 23.824219 148.085938 27.421875 "/>
<path style="fill-rule:nonzero;fill:rgb(11.764706%,56.470588%,100%);fill-opacity:1;stroke-width:0.75;stroke-linecap:round;stroke-linejoin:round;stroke:rgb(11.764706%,56.470588%,100%);stroke-opacity:1;stroke-miterlimit:10;" d="M 89.242188 192.003906 C 89.242188 195.601562 83.839844 195.601562 83.839844 192.003906 C 83.839844 188.402344 89.242188 188.402344 89.242188 192.003906 "/>
<path style="fill-rule:nonzero;fill:rgb(11.764706%,56.470588%,100%);fill-opacity:1;stroke-width:0.75;stroke-linecap:round;stroke-linejoin:round;stroke:rgb(11.764706%,56.470588%,100%);stroke-opacity:1;stroke-miterlimit:10;" d="M 203.792969 300.683594 C 203.792969 304.285156 198.394531 304.285156 198.394531 300.683594 C 198.394531 297.085938 203.792969 297.085938 203.792969 300.683594 "/>
<path style="fill-rule:nonzero;fill:rgb(11.764706%,56.470588%,100%);fill-opacity:1;stroke-width:0.75;stroke-linecap:round;stroke-linejoin:round;stroke:rgb(11.764706%,56.470588%,100%);stroke-opacity:1;stroke-miterlimit:10;" d="M 90.644531 230.308594 C 90.644531 233.910156 85.242188 233.910156 85.242188 230.308594 C 85.242188 226.710938 90.644531 226.710938 90.644531 230.308594 "/>
<path style="fill-rule:nonzero;fill:rgb(11.764706%,56.470588%,100%);fill-opacity:1;stroke-width:0.75;stroke-linecap:round;stroke-linejoin:round;stroke:rgb(11.764706%,56.470588%,100%);stroke-opacity:1;stroke-miterlimit:10;" d="M 145.589844 334.59375 C 145.589844 338.195312 140.191406 338.195312 140.191406 334.59375 C 140.191406 330.996094 145.589844 330.996094 145.589844 334.59375 "/>
<path style="fill-rule:nonzero;fill:rgb(11.764706%,56.470588%,100%);fill-opacity:1;stroke-width:0.75;stroke-linecap:round;stroke-linejoin:round;stroke:rgb(11.764706%,56.470588%,100%);stroke-opacity:1;stroke-miterlimit:10;" d="M 119.28125 163.226562 C 119.28125 166.828125 113.878906 166.828125 113.878906 163.226562 C 113.878906 159.628906 119.28125 159.628906 119.28125 163.226562 "/>
<path style="fill-rule:nonzero;fill:rgb(11.764706%,56.470588%,100%);fill-opacity:1;stroke-width:0.75;stroke-linecap:round;stroke-linejoin:round;stroke:rgb(11.764706%,56.470588%,100%);stroke-opacity:1;stroke-miterlimit:10;" d="M 152.597656 283.132812 C 152.597656 286.730469 147.199219 286.730469 147.199219 283.132812 C 147.199219 279.53125 152.597656 279.53125 152.597656 283.132812 "/>
<path style="fill-rule:nonzero;fill:rgb(11.764706%,56.470588%,100%);fill-opacity:1;stroke-width:0.75;stroke-linecap:round;stroke-linejoin:round;stroke:rgb(11.764706%,56.470588%,100%);stroke-opacity:1;stroke-miterlimit:10;" d="M 70.679688 189.320312 C 70.679688 192.917969 65.277344 192.917969 65.277344 189.320312 C 65.277344 185.71875 70.679688 185.71875 70.679688 189.320312 "/>
<path style="fill-rule:nonzero;fill:rgb(11.764706%,56.470588%,100%);fill-opacity:1;stroke-width:0.75;stroke-linecap:round;stroke-linejoin:round;stroke:rgb(11.764706%,56.470588%,100%);stroke-opacity:1;stroke-miterlimit:10;" d="M 140.308594 96.699219 C 140.308594 100.300781 134.910156 100.300781 134.910156 96.699219 C 134.910156 93.097656 140.308594 93.097656 140.308594 96.699219 "/>
<path style="fill-rule:nonzero;fill:rgb(11.764706%,56.470588%,100%);fill-opacity:1;stroke-width:0.75;stroke-linecap:round;stroke-linejoin:round;stroke:rgb(11.764706%,56.470588%,100%);stroke-opacity:1;stroke-miterlimit:10;" d="M 283.226562 282.140625 C 283.226562 285.738281 277.828125 285.738281 277.828125 282.140625 C 277.828125 278.539062 283.226562 278.539062 283.226562 282.140625 "/>
<path style="fill-rule:nonzero;fill:rgb(11.764706%,56.470588%,100%);fill-opacity:1;stroke-width:0.75;stroke-linecap:round;stroke-linejoin:round;stroke:rgb(11.764706%,56.470588%,100%);stroke-opacity:1;stroke-miterlimit:10;" d="M 82.199219 201.910156 C 82.199219 205.511719 76.800781 205.511719 76.800781 201.910156 C 76.800781 198.3125 82.199219 198.3125 82.199219 201.910156 "/>
<path style="fill-rule:nonzero;fill:rgb(11.764706%,56.470588%,100%);fill-opacity:1;stroke-width:0.75;stroke-linecap:round;stroke-linejoin:round;stroke:rgb(11.764706%,56.470588%,100%);stroke-opacity:1;stroke-miterlimit:10;" d="M 151.097656 261.851562 C 151.097656 265.449219 145.695312 265.449219 145.695312 261.851562 C 145.695312 258.25 151.097656 258.25 151.097656 261.851562 "/>
<path style="fill-rule:nonzero;fill:rgb(11.764706%,56.470588%,100%);fill-opacity:1;stroke-width:0.75;stroke-linecap:round;stroke-linejoin:round;stroke:rgb(11.764706%,56.470588%,100%);stroke-opacity:1;stroke-miterlimit:10;" d="M 254.558594 274.40625 C 254.558594 278.007812 249.160156 278.007812 249.160156 274.40625 C 249.160156 270.804688 254.558594 270.804688 254.558594 274.40625 "/>
<path style="fill-rule:nonzero;fill:rgb(11.764706%,56.470588%,100%);fill-opacity:1;stroke-width:0.75;stroke-linecap:round;stroke-linejoin:round;stroke:rgb(11.764706%,56.470588%,100%);stroke-opacity:1;stroke-miterlimit:10;" d="M 259.082031 96.253906 C 259.082031 99.855469 253.679688 99.855469 253.679688 96.253906 C 253.679688 92.65625 259.082031 92.65625 259.082031 96.253906 "/>
</g>
</svg>
