<svg xmlns="http://www.w3.org/2000/svg" viewBox="0 0 40 40"><circle transform="rotate(-86.45 20 20) scale(1.00002)" cx="20" cy="20" fill="#53bab6" r="20"/><path d="M30.5 8.6c-.1.1-.2.2-.4.3-.8.5-1 1.2-.9 2.1 0 .2.1.3.2.5s.2.4.2.5c0 2.6 0 5.1-.1 7.7 0 .6-.3.8-.8.8-.6 0-.9-.3-.9-1v-3.6c0-1.2.1-2.4.2-3.7 0-.3.3-.6.3-.9.1-.4.1-.7.1-1.1 0 0-.1 0-.1-.1-1.2.9-2.3 1.8-3.4 2.7.2.7.4 1.3.4 2 .2 1.5-.5 2.7-1.6 3.7-.4.4-.8.7-1.2 1.1-.5.5-.5 1.2-.1 1.7.6.6 1.2 1.2 1.9 1.8 1.3 1.1 1.8 2.5 1.7 4.1-.1 1.8-1.2 3-2.8 3.7-1.1.6-2.4.8-3.6.7-1.8 0-3.6-.3-5.2-1.3-1.3-.9-1.9-2.1-1.5-3.4.2-.8.6-1.4 1.1-1.9 1.4-1.3 3-1.9 4.9-2h1.6c-.9-1-1.1-1.9-.5-3.1-1.5 0-2.8-.2-3.9-1.2s-1.6-2.2-1.6-3.7H12c-.8 0-1.6 0-2.5-.1.1-.1.2-.2.4-.3 2.4-2 4.8-4 7.3-6.1.1-.1.2-.2.3-.2 4.3.1 8.6.2 13 .3zm-10.6 22c1.1-.1 2.1-.2 3-.6 1.6-.8 2.3-3.6.4-4.9-.4-.3-.9-.7-1.3-1-.1-.1-.3-.2-.4-.2-1.6-.4-3.2-.2-4.7.6-1.9 1.1-2.2 3.2-.6 4.8 1 1 2.3 1.3 3.6 1.3zm-3-15.9v.4c.2 1.6.8 2.9 2.2 3.8 1.2.8 2.5.6 3.3-.5.4-.5.5-1.1.6-1.8.3-1.8-.7-3.9-2.2-4.8-1.2-.7-2.6-.5-3.3.6-.4.6-.6 1.4-.6 2.3z" fill="#f4f4f4"/></svg>